<svg width="70" height="94" viewBox="0 0 70 94" fill="none" xmlns="http://www.w3.org/2000/svg">
<g clip-path="url(#clip0_475_4861)">
<path d="M58.8344 28.4618V52.7684C58.8345 53.4285 58.6607 54.077 58.3306 54.6487C58.0005 55.2203 57.5257 55.695 56.954 56.025L36.5119 67.8251C35.9404 68.155 35.2921 68.3287 34.6322 68.3287C33.9722 68.3287 33.3239 68.155 32.7524 67.8251L12.0248 55.8597C11.4532 55.5296 10.9784 55.0549 10.6484 54.4832C10.3184 53.9116 10.1447 53.2631 10.1448 52.603V28.1739C10.1447 27.5139 10.3185 26.8655 10.6485 26.2939C10.9785 25.7223 11.4532 25.2477 12.0248 24.9177L32.3595 13.1771C32.931 12.8474 33.5791 12.6738 34.2388 12.6738C34.8986 12.6738 35.5467 12.8474 36.1182 13.1771L46.1971 18.9908L56.9553 25.2084C57.5263 25.5383 58.0005 26.0125 58.3303 26.5836C58.6601 27.1546 58.834 27.8023 58.8344 28.4618Z" fill="#D6D7D9"/>
<path d="M23.7185 35.1722V45.929C23.7184 46.2211 23.7953 46.5081 23.9413 46.7611C24.0873 47.014 24.2973 47.2241 24.5503 47.3701L33.5966 52.592C33.8495 52.7382 34.1364 52.8151 34.4284 52.8151C34.7205 52.8151 35.0074 52.7382 35.2602 52.592L44.4327 47.2955C44.6856 47.1496 44.8957 46.9396 45.0417 46.6867C45.1877 46.4338 45.2645 46.1469 45.2645 45.8549V35.0446C45.2645 34.7525 45.1876 34.4656 45.0416 34.2126C44.8956 33.9597 44.6856 33.7496 44.4327 33.6035L35.4338 28.4084C35.181 28.2624 34.8942 28.1855 34.6023 28.1855C34.3103 28.1855 34.0235 28.2624 33.7707 28.4084L29.3106 30.9811L24.5498 33.7315C24.2971 33.8777 24.0872 34.0877 23.9413 34.3406C23.7954 34.5934 23.7186 34.8802 23.7185 35.1722V35.1722Z" fill="#9DA0A2"/>
<path d="M66.495 24.5181L63.1679 26.4391L61.2012 27.5739L56.918 30.0481L50.6636 33.6575L44.1163 37.4373L38.0654 40.9316C37.8826 41.0371 37.7308 41.1889 37.6253 41.3717C37.5198 41.5545 37.4643 41.7619 37.4644 41.9729V77.2441C37.4643 77.4552 37.5199 77.6625 37.6254 77.8453C37.731 78.0281 37.8828 78.1799 38.0656 78.2854C38.2484 78.3909 38.4557 78.4464 38.6668 78.4463C38.8779 78.4463 39.0852 78.3906 39.2679 78.285L44.1163 75.4853L50.6636 71.7054L56.918 68.096L63.1697 64.4871L67.6173 61.9194C67.9895 61.7043 69.4214 58.9534 69.4214 58.5237V26.6224C69.4214 25.6972 67.2862 24.0622 66.4968 24.5181H66.495ZM63.1679 56.0463C63.1679 56.2574 63.1123 56.4648 63.0067 56.6476C62.9011 56.8304 62.7492 56.9822 62.5664 57.0877L56.9162 60.3498L50.6618 63.9592L45.918 66.6977C45.7352 66.8034 45.5278 66.859 45.3167 66.8591C45.1056 66.8591 44.8982 66.8036 44.7154 66.698C44.5326 66.5924 44.3808 66.4406 44.2753 66.2578C44.1698 66.0749 44.1143 65.8675 44.1144 65.6564V45.878C44.1142 45.6672 44.1694 45.46 44.2745 45.2773C44.3795 45.0945 44.5308 44.9426 44.7131 44.8367L50.6595 41.4037L56.9139 37.7947L61.362 35.2266C61.5448 35.1212 61.7521 35.0656 61.9632 35.0657C62.1742 35.0657 62.3815 35.1213 62.5643 35.2268C62.7471 35.3323 62.8989 35.4841 63.0044 35.6668C63.1099 35.8496 63.1655 36.0569 63.1655 36.268L63.1679 56.0463Z" fill="url(#paint0_linear_475_4861)"/>
<path d="M6.57639 26.8575V62.4907C6.57638 62.6991 6.52154 62.9037 6.4174 63.0841C6.31325 63.2645 6.16346 63.4144 5.98306 63.5185C5.80267 63.6227 5.59802 63.6776 5.38971 63.6776C5.18139 63.6776 4.97675 63.6228 4.79632 63.5187L0.918372 61.2799C0.737953 61.1758 0.588133 61.0261 0.483925 60.8457C0.379717 60.6653 0.324791 60.4607 0.324707 60.2524V24.6188C0.324663 24.4104 0.379499 24.2057 0.483672 24.0252C0.587845 23.8447 0.737682 23.6948 0.918147 23.5906C1.09861 23.4865 1.30334 23.4316 1.51173 23.4316C1.72011 23.4317 1.92481 23.4866 2.10525 23.5908L5.98317 25.8296C6.16357 25.9338 6.31338 26.0836 6.41751 26.2641C6.52164 26.4445 6.57643 26.6492 6.57639 26.8575Z" fill="#570008"/>
<path d="M19.0798 34.1319V69.5417C19.0798 69.7669 19.0205 69.9881 18.9079 70.1831C18.7954 70.3781 18.6335 70.54 18.4385 70.6527C18.2435 70.7653 18.0223 70.8246 17.7971 70.8247C17.5719 70.8247 17.3507 70.7655 17.1556 70.653L13.4711 68.5266C13.276 68.414 13.1139 68.2521 13.0012 68.057C12.8885 67.8619 12.8291 67.6406 12.8291 67.4153V32.0036C12.8292 31.7784 12.8886 31.5572 13.0012 31.3622C13.1139 31.1672 13.2758 31.0053 13.4708 30.8927C13.6659 30.7801 13.8871 30.7208 14.1123 30.7207C14.3375 30.7206 14.5587 30.7798 14.7538 30.8923L15.2295 31.1686L18.4397 33.0224C18.6342 33.1351 18.7956 33.2969 18.908 33.4916C19.0203 33.6863 19.0796 33.9071 19.0798 34.1319V34.1319Z" fill="#6C0010"/>
<path d="M32.2284 41.8829V76.641C32.2284 76.9159 32.1561 77.186 32.0187 77.4241C31.8812 77.6622 31.6836 77.8599 31.4455 77.9973C31.2075 78.1348 30.9374 78.2072 30.6625 78.2072C30.3876 78.2072 30.1176 78.1348 29.8795 77.9974L26.4133 75.9972C26.1752 75.8597 25.9774 75.6619 25.84 75.4237C25.7025 75.1855 25.6302 74.9154 25.6304 74.6404V39.8827C25.6303 39.6078 25.7027 39.3377 25.8401 39.0997C25.9775 38.8616 26.1752 38.6639 26.4132 38.5264C26.6513 38.3889 26.9213 38.3166 27.1962 38.3165C27.4711 38.3165 27.7412 38.3889 27.9792 38.5263L31.445 40.5266C31.6831 40.664 31.8809 40.8616 32.0184 41.0997C32.156 41.3378 32.2284 41.608 32.2284 41.8829V41.8829Z" fill="#7A0014"/>
<path d="M65.1351 20.6448L62.1672 22.3572C61.8828 22.5212 61.5603 22.6076 61.232 22.6076C60.9037 22.6076 60.5812 22.5212 60.2968 22.3572L54.0263 18.7367L47.6139 15.0333L44.6248 13.309L44.5991 13.2938L40.9035 11.1614L40.7778 11.0891C40.4934 10.9251 40.1709 10.8388 39.8426 10.839C39.5143 10.8391 39.1919 10.9256 38.9076 11.0898C38.6234 11.2539 38.3873 11.49 38.2232 11.7743C38.059 12.0586 37.9726 12.3811 37.9725 12.7093V35.2437C37.9725 35.572 37.886 35.8946 37.7218 36.1789C37.5576 36.4632 37.3215 36.6993 37.0371 36.8635L35.4251 37.7934C35.1408 37.9576 34.8181 38.0441 34.4897 38.0441C34.1613 38.0441 33.8387 37.9576 33.5543 37.7934L31.8208 36.7921C31.5364 36.628 31.3002 36.3919 31.136 36.1075C30.9718 35.8232 30.8854 35.5006 30.8854 35.1723V12.7789C30.8854 12.4505 30.799 12.1279 30.6348 11.8436C30.4707 11.5592 30.2345 11.3231 29.9502 11.1589C29.6658 10.9948 29.3432 10.9083 29.0149 10.9084C28.6865 10.9084 28.364 10.9949 28.0796 11.1591V11.1591L21.3766 15.0278L14.9568 18.7339L8.6863 22.3539C8.40202 22.5182 8.07947 22.6047 7.75112 22.6047C7.42278 22.6047 7.10026 22.5182 6.81597 22.3539L3.84627 20.6397C3.56182 20.4756 3.32557 20.2395 3.16133 19.9551C2.99709 19.6707 2.91064 19.3481 2.91064 19.0197C2.91064 18.6913 2.99709 18.3687 3.16133 18.0843C3.32557 17.7999 3.56182 17.5638 3.84627 17.3997L8.24601 14.8597L14.6667 11.1572L21.3725 7.28851L27.7844 3.58514L30.8886 1.79447L32.9878 0.582735L33.0136 0.567537L33.5608 0.25205C33.8449 0.088105 34.1672 0.00180054 34.4953 0.00180054C34.8233 0.00180054 35.1456 0.088105 35.4297 0.25205L37.9743 1.71986L41.2033 3.58467L44.6009 5.54621L44.6267 5.56141L47.6157 7.28575L54.3211 11.1572L60.733 14.8606L65.1337 17.4006C65.4192 17.5643 65.6564 17.8005 65.8214 18.0852C65.9865 18.37 66.0734 18.6932 66.0736 19.0223C66.0737 19.3514 65.987 19.6747 65.8222 19.9596C65.6575 20.2445 65.4204 20.4808 65.1351 20.6448Z" fill="url(#paint1_linear_475_4861)"/>
<path d="M10.5626 90.8107C10.5495 90.6534 10.5626 83.0643 10.5626 83.0643C10.5626 83.0119 8.95046 83.0119 8.95046 83.0512L8.97667 86.9703C8.97667 87.0358 8.97667 87.429 8.98978 87.9271C8.96357 87.9009 8.93735 87.8615 8.91114 87.8091L8.81939 87.6518C8.74074 87.5601 7.66596 85.9086 7.66596 85.9086C7.65285 85.8824 6.90575 85.8824 6.89264 85.9086L5.64746 87.8091C5.62125 87.8615 5.59503 87.9009 5.56882 87.9271C5.58193 87.429 5.58193 87.0358 5.58193 86.9703L5.60814 83.0643C5.60814 83.025 3.99596 83.0119 3.99596 83.0643C3.99596 83.0643 4.00907 90.6534 3.99596 90.8107C3.99596 90.8107 4.65132 90.8107 5.49018 90.7975H5.50328C5.5295 90.8107 5.56882 90.8107 5.56882 90.7975C5.67368 90.6009 6.814 88.9363 6.87953 88.8315L7.27275 88.2285L7.67907 88.8315C7.7446 88.9363 8.88492 90.6009 8.98978 90.7975C8.98978 90.8107 10.5626 90.8107 10.5626 90.8107ZM16.029 83.0643H11.6119V90.8107H13.1848V87.8222H14.4693V90.8107H16.029V83.0643ZM14.4693 86.2101H13.1848V84.6372H14.4693V86.2101ZM22.9879 83.0512H17.1159C17.1159 83.0512 17.129 84.5061 17.1159 84.5586C17.1028 84.5979 17.1421 84.6241 17.1683 84.6241H19.2655L19.2917 90.8107H20.7859C20.8252 90.8107 20.8645 90.7713 20.8514 90.732L20.8645 84.6372H23.001C23.0272 84.6372 23.0272 83.0512 22.9879 83.0512ZM28.4834 83.0643H24.0663V90.8107H25.6391V87.8222H26.9236V90.8107H28.4834V83.0643ZM26.9236 86.2101H25.6391V84.6372H26.9236V86.2101ZM33.1616 83.1037H29.5702V90.8107H33.1354L34.4854 89.4606V84.4406L33.1616 83.1037ZM32.8601 88.9625L32.48 89.3164H31.13L31.1693 84.5979H32.5455L32.8994 84.978L32.8601 88.9625Z" fill="#373739"/>
<path d="M41.7354 87.5916V84.328H37.4625V85.8222H40.2412V87.5916H37.4625V89.0858H42.8233V87.5916H41.7354ZM44.6076 87.5916H42.2221V89.0858H44.6076V87.5916ZM46.7068 87.5916H44.3213V89.0858H46.7068V87.5916ZM48.806 87.5916H46.4205V89.0858H48.806V87.5916ZM50.9052 87.5916H48.5197V89.0858H50.9052V87.5916ZM53.0044 87.5916H50.6189V89.0858H53.0044V87.5916ZM55.1036 87.5916H52.7181V89.0858H55.1036V87.5916ZM57.2028 87.5916H54.8173V89.0858H57.2028V87.5916ZM60.4947 82.6109C60.3767 82.4667 60.1015 82.1784 60.0228 82.0997L59.8918 81.9687C59.7345 81.8245 59.6427 81.7721 59.6034 81.8245L59.4199 81.9818C59.3151 82.0735 59.1709 82.2308 58.8956 82.493C58.7646 82.3488 58.5811 82.1653 58.5286 82.0997L58.3976 81.9687C58.2403 81.8245 58.1485 81.7721 58.1092 81.8245L57.9257 81.9818C57.8208 82.0735 57.6504 82.2439 57.349 82.5323C57.2703 82.6109 57.2703 82.7551 57.3752 82.86C57.5718 83.0697 57.7684 83.2663 57.965 83.4498C58.0568 83.5415 58.2009 83.5415 58.2796 83.4629L58.8694 82.8731C59.066 83.0697 59.2626 83.2663 59.4592 83.4498C59.551 83.5415 59.6952 83.5415 59.7738 83.4629L60.4947 82.7551C60.534 82.7158 60.534 82.6502 60.4947 82.6109ZM59.9442 89.0858L59.9573 84.3411H58.3976V87.5916H56.8771V89.0858H59.9442ZM65.4693 91.7073V84.2624H61.1177V89.0858H63.8571V90.2131H61.1177V91.7073H65.4693ZM63.8702 87.5916H62.625V85.8353H63.8571L63.8702 87.5916Z" fill="#7F000A"/>
<path d="M35.957 82.9805V91.1333" stroke="#48494B" stroke-width="0.460562" stroke-miterlimit="10"/>
<path d="M65.5112 93.2011H3.47168" stroke="#7B1422" stroke-width="0.921124" stroke-miterlimit="10"/>
</g>
<defs>
<linearGradient id="paint0_linear_475_4861" x1="37.4644" y1="51.4429" x2="69.4214" y2="51.4429" gradientUnits="userSpaceOnUse">
<stop stop-color="#8A0018"/>
<stop offset="0.996" stop-color="#430000"/>
</linearGradient>
<linearGradient id="paint1_linear_475_4861" x1="34.4921" y1="38.0441" x2="34.4921" y2="0.00180054" gradientUnits="userSpaceOnUse">
<stop stop-color="#8A0018"/>
<stop offset="0.996" stop-color="#430000"/>
</linearGradient>
<clipPath id="clip0_475_4861">
<rect width="69.0948" height="93.6806" fill="white" transform="translate(0.324707)"/>
</clipPath>
</defs>
</svg>
