<svg width="65" height="74" viewBox="0 0 65 74" fill="none" xmlns="http://www.w3.org/2000/svg">
<g opacity="0.09">
<path d="M61.7224 23.4792L58.626 25.267L56.7957 26.3232L52.8095 28.6258L46.9887 31.985L40.8953 35.5027L35.2639 38.7548C35.0938 38.853 34.9525 38.9942 34.8543 39.1643C34.7561 39.3345 34.7044 39.5275 34.7045 39.7239V72.5498C34.7045 72.7462 34.7562 72.9391 34.8544 73.1093C34.9527 73.2794 35.0939 73.4206 35.2641 73.5188C35.4342 73.617 35.6272 73.6687 35.8236 73.6686C36.02 73.6685 36.213 73.6168 36.3831 73.5185L40.8953 70.9128L46.9887 67.395L52.8095 64.0359L58.6277 60.6771L62.767 58.2875C63.1133 58.0873 64.446 55.5271 64.446 55.1272V25.4376C64.446 24.5765 62.4588 23.0549 61.7241 23.4792H61.7224ZM58.626 52.8216C58.626 53.0181 58.5743 53.2111 58.476 53.3812C58.3777 53.5513 58.2364 53.6926 58.0662 53.7907L52.8078 56.8267L46.9869 60.1859L42.5721 62.7345C42.402 62.8328 42.209 62.8846 42.0125 62.8847C41.816 62.8847 41.623 62.833 41.4529 62.7348C41.2827 62.6365 41.1415 62.4952 41.0433 62.3251C40.9451 62.1549 40.8934 61.9619 40.8935 61.7654V43.3583C40.8933 43.1621 40.9447 42.9692 41.0425 42.7991C41.1403 42.629 41.2811 42.4877 41.4508 42.3891L46.9848 39.1941L52.8056 35.8354L56.9453 33.4453C57.1155 33.3471 57.3084 33.2955 57.5048 33.2955C57.7013 33.2955 57.8942 33.3472 58.0643 33.4455C58.2344 33.5437 58.3757 33.6849 58.4739 33.855C58.5721 34.0251 58.6238 34.218 58.6239 34.4145L58.626 52.8216Z" fill="url(#paint0_linear_147_2479)"/>
<path d="M5.95796 25.6579V58.8206C5.95796 59.0145 5.90692 59.2049 5.80999 59.3729C5.71306 59.5408 5.57366 59.6802 5.40577 59.7771C5.23788 59.8741 5.04742 59.9252 4.85355 59.9252C4.65968 59.9252 4.46923 59.8742 4.30131 59.7773L0.692215 57.6938C0.524305 57.5969 0.384872 57.4575 0.287889 57.2896C0.190905 57.1218 0.139787 56.9313 0.139709 56.7375V23.5743C0.139669 23.3804 0.190703 23.1898 0.287653 23.0219C0.384604 22.8539 0.524053 22.7144 0.692006 22.6175C0.85996 22.5205 1.0505 22.4695 1.24443 22.4695C1.43837 22.4695 1.62888 22.5206 1.79681 22.6176L5.40587 24.7012C5.57377 24.7982 5.71319 24.9376 5.8101 25.1056C5.90701 25.2735 5.958 25.464 5.95796 25.6579Z" fill="#570008"/>
<path d="M17.5945 32.4275V65.3823C17.5945 65.5919 17.5393 65.7978 17.4345 65.9793C17.3297 66.1608 17.179 66.3115 16.9976 66.4163C16.8161 66.5211 16.6102 66.5763 16.4007 66.5764C16.1911 66.5764 15.9852 66.5213 15.8037 66.4166L12.3746 64.4376C12.193 64.3329 12.0421 64.1821 11.9372 64.0006C11.8323 63.819 11.7771 63.613 11.7771 63.4034V30.4468C11.7772 30.2372 11.8325 30.0313 11.9373 29.8499C12.0421 29.6684 12.1928 29.5177 12.3743 29.4129C12.5558 29.3081 12.7617 29.2529 12.9713 29.2528C13.1809 29.2527 13.3868 29.3078 13.5684 29.4125L14.0111 29.6697L16.9987 31.3949C17.1797 31.4998 17.33 31.6504 17.4345 31.8316C17.5391 32.0128 17.5942 32.2183 17.5945 32.4275Z" fill="#6C0010"/>
<path d="M29.8314 39.6419V71.9902C29.8314 72.246 29.7641 72.4974 29.6362 72.719C29.5083 72.9405 29.3243 73.1245 29.1028 73.2525C28.8812 73.3804 28.6299 73.4478 28.3741 73.4478C28.1182 73.4478 27.8669 73.3805 27.6453 73.2525L24.4195 71.391C24.1978 71.263 24.0138 71.079 23.8859 70.8573C23.758 70.6356 23.6907 70.3842 23.6908 70.1282V37.7803C23.6908 37.5245 23.7581 37.2731 23.886 37.0516C24.0139 36.83 24.1978 36.646 24.4194 36.5181C24.6409 36.3901 24.8923 36.3228 25.1481 36.3228C25.4039 36.3227 25.6552 36.3901 25.8768 36.518L29.1023 38.3795C29.3239 38.5074 29.508 38.6914 29.636 38.913C29.764 39.1346 29.8314 39.386 29.8314 39.6419Z" fill="#7A0014"/>
<path d="M60.4567 19.8752L57.6946 21.4688C57.43 21.6215 57.1298 21.7019 56.8243 21.7019C56.5187 21.7019 56.2186 21.6215 55.9539 21.4688L50.1181 18.0993L44.1503 14.6527L41.3685 13.0479L41.3445 13.0338L37.9052 11.0492L37.7881 10.9819C37.5235 10.8293 37.2233 10.749 36.9178 10.7492C36.6123 10.7493 36.3122 10.8298 36.0476 10.9826C35.7831 11.1354 35.5634 11.3551 35.4106 11.6197C35.2579 11.8842 35.1774 12.1843 35.1773 12.4898V33.4619C35.1773 33.7675 35.0969 34.0677 34.9441 34.3323C34.7912 34.5969 34.5715 34.8166 34.3068 34.9694L32.8066 35.8348C32.5419 35.9877 32.2417 36.0682 31.936 36.0682C31.6304 36.0682 31.3301 35.9877 31.0655 35.8348L29.4521 34.903C29.1875 34.7502 28.9677 34.5305 28.8149 34.2659C28.662 34.0012 28.5816 33.701 28.5816 33.3955V12.5546C28.5816 12.249 28.5012 11.9488 28.3484 11.6841C28.1956 11.4195 27.9758 11.1997 27.7112 11.0469C27.4465 10.8941 27.1463 10.8137 26.8407 10.8137C26.5352 10.8138 26.235 10.8942 25.9704 11.0471L19.732 14.6476L13.7574 18.0968L7.92156 21.4658C7.65699 21.6187 7.35679 21.6992 7.05122 21.6992C6.74564 21.6992 6.44547 21.6187 6.1809 21.4658L3.41709 19.8704C3.15236 19.7177 2.93249 19.4979 2.77963 19.2333C2.62678 18.9686 2.54633 18.6684 2.54633 18.3627C2.54633 18.0571 2.62678 17.7568 2.77963 17.4922C2.93249 17.2275 3.15236 17.0078 3.41709 16.855L7.51179 14.4911L13.4873 11.0454L19.7282 7.44485L25.6956 3.99823L28.5846 2.33172L30.5383 1.20399L30.5623 1.18984L31.0715 0.89623C31.3359 0.743651 31.6359 0.66333 31.9412 0.66333C32.2465 0.66333 32.5464 0.743651 32.8109 0.89623L35.1791 2.26228L38.1842 3.9978L41.3462 5.82334L41.3702 5.83749L44.152 7.44228L50.3925 11.0454L56.3599 14.492L60.4554 16.8559C60.7211 17.0082 60.9419 17.228 61.0955 17.493C61.2491 17.758 61.3301 18.0589 61.3302 18.3651C61.3303 18.6714 61.2496 18.9723 61.0963 19.2375C60.9429 19.5026 60.7223 19.7226 60.4567 19.8752Z" fill="url(#paint1_linear_147_2479)"/>
</g>
<defs>
<linearGradient id="paint0_linear_147_2479" x1="34.7045" y1="48.5373" x2="64.446" y2="48.5373" gradientUnits="userSpaceOnUse">
<stop stop-color="#8A0018"/>
<stop offset="0.996" stop-color="#430000"/>
</linearGradient>
<linearGradient id="paint1_linear_147_2479" x1="31.9383" y1="36.0682" x2="31.9383" y2="0.66333" gradientUnits="userSpaceOnUse">
<stop stop-color="#8A0018"/>
<stop offset="0.996" stop-color="#430000"/>
</linearGradient>
</defs>
</svg>
