<svg width="749" height="400" viewBox="0 0 749 400" fill="none" xmlns="http://www.w3.org/2000/svg">
<g style="mix-blend-mode:multiply">
<path d="M374.431 399.9C580.948 399.9 748.362 392.9 748.362 384.265C748.362 375.631 580.948 368.631 374.431 368.631C167.915 368.631 0.5 375.631 0.5 384.265C0.5 392.9 167.915 399.9 374.431 399.9Z" fill="#F3F3F3"/>
</g>
<path d="M488.783 386.288H464.008L463.612 289.603H488.478L488.783 386.288Z" fill="#483E3F"/>
<path d="M464.008 386.288C480.667 386.288 494.172 364.644 494.172 337.945C494.172 311.246 480.667 289.603 464.008 289.603C447.349 289.603 433.845 311.246 433.845 337.945C433.845 364.644 447.349 386.288 464.008 386.288Z" fill="#483E3F"/>
<path d="M487.831 386.289C504.49 386.289 517.995 364.645 517.995 337.946C517.995 311.247 504.49 289.604 487.831 289.604C471.172 289.604 457.668 311.247 457.668 337.946C457.668 364.645 471.172 386.289 487.831 386.289Z" fill="#2A2A2A"/>
<path d="M487.831 384.266C503.792 384.266 516.731 363.528 516.731 337.946C516.731 312.365 503.792 291.627 487.831 291.627C471.87 291.627 458.932 312.365 458.932 337.946C458.932 363.528 471.87 384.266 487.831 384.266Z" fill="#2A2A2A"/>
<path d="M492.57 304.333C489.838 304.333 487.243 305.539 484.924 307.687C478.913 313.256 474.754 325.186 474.754 339.006C474.754 354.665 480.081 367.901 487.406 372.206C489.041 373.166 490.776 373.687 492.566 373.687C502.402 373.687 510.378 358.161 510.378 339.006C510.378 319.851 502.402 304.333 492.566 304.333H492.57Z" fill="#181A19"/>
<path d="M212.471 386.288H187.697L187.301 289.603H212.167L212.471 386.288Z" fill="#483E3F"/>
<path d="M187.697 386.288C204.356 386.288 217.861 364.644 217.861 337.945C217.861 311.246 204.356 289.603 187.697 289.603C171.038 289.603 157.533 311.246 157.533 337.945C157.533 364.644 171.038 386.288 187.697 386.288Z" fill="#483E3F"/>
<path d="M211.52 386.289C228.179 386.289 241.684 364.645 241.684 337.946C241.684 311.247 228.179 289.604 211.52 289.604C194.861 289.604 181.356 311.247 181.356 337.946C181.356 364.645 194.861 386.289 211.52 386.289Z" fill="#2A2A2A"/>
<path d="M211.52 384.266C227.481 384.266 240.42 363.528 240.42 337.946C240.42 312.365 227.481 291.627 211.52 291.627C195.559 291.627 182.621 312.365 182.621 337.946C182.621 363.528 195.559 384.266 211.52 384.266Z" fill="#2A2A2A"/>
<path d="M216.259 304.333C213.527 304.333 210.932 305.539 208.613 307.687C202.602 313.256 198.443 325.186 198.443 339.006C198.443 354.665 203.77 367.901 211.095 372.206C212.73 373.166 214.465 373.687 216.255 373.687C226.091 373.687 234.067 358.161 234.067 339.006C234.067 319.851 226.091 304.333 216.255 304.333H216.259Z" fill="#181A19"/>
<path d="M324.37 351.24H267.28C267.28 336.891 268.756 293.187 240.933 288.269H305.315C315.814 288.269 324.37 311.345 324.37 351.24Z" fill="#1F1F1F"/>
<path d="M240.445 386.288H215.671L215.274 289.603H240.144L240.445 386.288Z" fill="#483E3F"/>
<path d="M215.671 386.288C232.33 386.288 245.834 364.644 245.834 337.945C245.834 311.246 232.33 289.603 215.671 289.603C199.012 289.603 185.507 311.246 185.507 337.945C185.507 364.644 199.012 386.288 215.671 386.288Z" fill="#483E3F"/>
<path d="M239.494 386.289C256.153 386.289 269.657 364.645 269.657 337.946C269.657 311.247 256.153 289.604 239.494 289.604C222.835 289.604 209.33 311.247 209.33 337.946C209.33 364.645 222.835 386.289 239.494 386.289Z" fill="#2A2A2A"/>
<path d="M239.494 384.266C255.454 384.266 268.393 363.528 268.393 337.946C268.393 312.365 255.454 291.627 239.494 291.627C223.533 291.627 210.594 312.365 210.594 337.946C210.594 363.528 223.533 384.266 239.494 384.266Z" fill="#2A2A2A"/>
<path d="M244.237 304.333C241.504 304.333 238.91 305.539 236.59 307.687C230.579 313.256 226.42 325.186 226.42 339.006C226.42 354.665 231.747 367.901 239.072 372.206C240.708 373.166 242.443 373.687 244.232 373.687C254.069 373.687 262.044 358.161 262.044 339.006C262.044 319.851 254.069 304.333 244.232 304.333H244.237Z" fill="#181A19"/>
<path d="M657.3 254.104H484.069V334.947H657.3V254.104Z" fill="#171717"/>
<path d="M680.134 300.265V301.221C680.101 321.494 679.667 334.943 679.667 334.943H646.054C644.527 321.986 639.984 288.953 629.368 286.833C616.52 284.285 595.304 286.462 595.304 286.462L593.281 104.004C593.281 104.004 630.665 106.181 649.937 113.874C673.097 123.117 678.812 210.284 679.905 272.359C679.905 272.688 679.922 273.001 679.922 273.326C680.097 283.075 680.147 292.185 680.13 300.265H680.134Z" fill="#ECB703"/>
<path d="M632.68 283.539C619.828 280.706 598.62 283.126 598.62 283.126L596.827 104.259C594.583 104.088 593.277 104.009 593.277 104.009L595.313 286.463C595.313 286.463 616.516 284.285 629.372 286.834C639.993 288.941 644.531 321.987 646.062 334.943H649.149C647.426 319.405 642.833 285.775 632.68 283.539Z" fill="#AB8402"/>
<path d="M684.46 334.813L675.45 334.947V307.67L682.028 308.755C685.424 309.313 687.868 311.77 687.868 314.624V329.749C687.868 331.81 686.583 333.725 684.464 334.818L684.46 334.813Z" fill="#222536"/>
<path d="M602.909 126.514H631.47C640.735 126.514 654.951 131.903 656.637 139.408L670.782 220.375C671.32 222.769 665.751 224.959 663.407 223.474C650.98 215.59 624.346 196.957 616.303 197.002C610.588 197.036 602.608 196.94 602.608 196.94L602.909 126.514Z" fill="#97580D"/>
<path d="M668.5 220.646C668.433 221.117 666.873 222.056 665.384 222.056C665.042 222.056 664.863 221.998 664.817 221.968C662.76 220.667 660.262 219.028 657.6 217.284C657.367 217.13 657.129 216.979 656.887 216.821C654.855 215.49 652.857 214.185 650.897 212.912C648.615 211.431 646.387 210.001 644.231 208.641C639.517 205.662 635.137 203.013 631.233 200.865C625.901 197.924 621.442 195.922 618.226 195.309C617.538 195.163 616.904 195.1 616.332 195.1C615.44 195.109 614.547 195.109 613.637 195.109C611.881 195.109 610.05 195.1 608.402 195.096C607.088 195.088 605.883 195.084 604.923 195.067L604.961 186.899L605.057 163.935L605.165 138.782L605.207 128.42H631.474C633.681 128.42 636.101 128.741 638.52 129.321C640.431 129.771 642.345 130.389 644.147 131.123C649.341 133.25 653.616 136.404 654.371 139.766L659.069 166.672L662.539 186.532L668.5 220.654V220.646Z" fill="#64AFE0"/>
<g opacity="0.3">
<path d="M618.226 195.307C617.538 195.161 616.904 195.098 616.333 195.098C615.44 195.107 614.547 195.107 613.638 195.107C611.882 195.107 610.05 195.098 608.403 195.094L604.961 186.897L605.057 163.934L618.23 195.311L618.226 195.307Z" fill="white"/>
<path d="M644.231 208.643C639.517 205.664 635.137 203.016 631.233 200.867L605.161 138.78L605.203 128.418H610.547L644.227 208.647L644.231 208.643Z" fill="white"/>
<path d="M657.6 217.282C657.367 217.128 657.129 216.978 656.887 216.819C654.856 215.489 652.858 214.183 650.897 212.911L615.415 128.41H620.287L657.6 217.282Z" fill="white"/>
<path d="M662.539 186.523L638.516 129.312C640.427 129.762 642.341 130.379 644.143 131.114L659.065 166.662L662.535 186.523H662.539Z" fill="white"/>
</g>
<path d="M604.34 232.525H609.591C612.691 232.525 615.206 235.041 615.206 238.14V255.368C615.206 258.468 612.691 260.983 609.591 260.983H604.34V232.525Z" fill="#97580D"/>
<path d="M675.725 247.406H671.112V231.875C671.112 226.886 678.107 225.405 684.869 223.97C691.848 222.49 696.791 221.226 696.791 218.389C696.791 213.817 697.108 197.603 697.446 180.442C697.817 161.487 698.201 141.885 698.201 135.807C698.201 129.191 678.545 126.534 671.767 126.363C669.063 126.317 662.835 128.641 659.511 130.134L657.304 126.793C658.297 126.346 667.136 122.475 671.913 122.563C672.221 122.571 702.819 123.881 702.819 135.811C702.819 141.918 702.435 161.537 702.059 180.504C701.726 197.653 701.405 213.846 701.405 218.389C701.405 224.392 693.233 226.123 686.02 227.654C681.194 228.676 675.729 229.835 675.729 231.875V247.406H675.725Z" fill="#222536"/>
<path d="M669.368 229.802H670.394C673.185 229.802 675.45 232.067 675.45 234.858V249.053C675.45 251.844 673.185 254.109 670.394 254.109H669.368C666.577 254.109 664.312 251.844 664.312 249.053V234.858C664.312 232.067 666.577 229.802 669.368 229.802Z" fill="#222536"/>
<path d="M661.021 137.384C659.052 137.93 656.916 137.054 656.257 135.431L652.311 125.741C651.652 124.119 652.711 122.362 654.68 121.816C656.649 121.269 658.785 122.145 659.444 123.768L663.39 133.458C664.049 135.081 662.99 136.837 661.021 137.384Z" fill="#222536"/>
<path d="M675.746 237.715H675.145C673.498 237.715 672.163 239.05 672.163 240.697V249.065C672.163 250.713 673.498 252.048 675.145 252.048H675.746C677.393 252.048 678.728 250.713 678.728 249.065V240.697C678.728 239.05 677.393 237.715 675.746 237.715Z" fill="#222536"/>
<path d="M688.448 194.942L709.276 196.552C711.132 196.694 712.713 195.146 712.713 193.181V141.602C712.713 139.533 710.969 137.952 709.034 138.26L688.206 141.581C686.642 141.831 685.482 143.249 685.482 144.922V191.571C685.482 193.34 686.775 194.812 688.452 194.942H688.448Z" fill="#222536"/>
<path d="M710.911 141.601V193.181C710.911 193.994 710.281 194.657 709.514 194.657H709.405L708.312 194.574L707.441 194.503L702.243 194.098L698.918 193.84L696.178 193.631L694.659 193.514L690.4 193.176L688.573 193.039C687.843 192.98 687.276 192.334 687.276 191.562V144.913C687.276 144.183 687.772 143.561 688.465 143.453L690.809 143.086L691.401 142.99L707.382 140.441L707.708 140.387L709.297 140.132C709.372 140.12 709.443 140.107 709.514 140.107C710.285 140.107 710.911 140.775 710.911 141.588V141.601Z" fill="#64AFE0"/>
<g opacity="0.3">
<path d="M696.182 193.631L694.663 193.514L690.404 193.176L688.577 193.039C687.847 192.98 687.28 192.334 687.28 191.562V166.483L696.182 193.627V193.631Z" fill="white"/>
<path d="M708.317 194.573L707.445 194.502L702.247 194.097L687.28 148.449V144.916C687.28 144.186 687.776 143.565 688.469 143.456L690.813 143.089L691.406 142.993L708.312 194.569L708.317 194.573Z" fill="white"/>
<path d="M710.911 141.6V149.893L707.386 140.449L707.712 140.395L709.301 140.14C709.376 140.128 709.447 140.115 709.518 140.115C710.29 140.115 710.915 140.783 710.915 141.596L710.911 141.6Z" fill="white"/>
</g>
<path d="M668.287 318.031H655.252C654.876 318.031 654.572 317.727 654.572 317.351V312.608C654.572 312.233 654.876 311.928 655.252 311.928H668.287C668.663 311.928 668.967 312.233 668.967 312.608V317.351C668.967 317.727 668.663 318.031 668.287 318.031Z" fill="#353535"/>
<path d="M655.139 313.293V316.672C655.139 317.068 655.427 317.393 655.777 317.393H667.754C667.908 317.393 668.046 317.331 668.154 317.231C668.3 317.101 668.392 316.897 668.392 316.672V313.293C668.392 312.897 668.104 312.571 667.754 312.571H655.777C655.707 312.571 655.636 312.584 655.573 312.613C655.319 312.709 655.135 312.976 655.135 313.293H655.139Z" fill="#B3490F"/>
<path opacity="0.2" d="M655.577 312.613L668.154 317.231C668.3 317.101 668.392 316.897 668.392 316.672V313.293C668.392 312.897 668.104 312.571 667.754 312.571H655.777C655.706 312.571 655.636 312.584 655.573 312.613H655.577Z" fill="white"/>
<path d="M679.926 273.326C679.926 272.997 679.909 272.684 679.909 272.358H670.578C669.422 272.358 668.488 273.222 668.488 274.298L671.971 299.297C671.971 300.357 672.901 301.221 674.057 301.221H680.126V300.265L679.918 273.326H679.926Z" fill="#9FA9AB"/>
<path d="M680.134 300.266H673.919C673.356 300.266 672.893 299.774 672.893 299.165L669.41 274.416C669.41 274.341 669.426 274.265 669.426 274.207V274.195C669.539 273.702 669.939 273.331 670.436 273.331H679.926C680.101 283.08 680.151 292.19 680.134 300.27V300.266Z" fill="#F0F0F0"/>
<path d="M241.129 328.86H345.377V349.367H241.129C231.626 349.367 231.626 328.86 241.129 328.86Z" fill="black"/>
<path d="M492.579 328.86H596.827V349.367H492.579C483.076 349.367 483.076 328.86 492.579 328.86Z" fill="black"/>
<path d="M607.485 386.288H582.71L582.314 289.603H607.18L607.485 386.288Z" fill="#483E3F"/>
<path d="M582.71 386.288C599.369 386.288 612.874 364.644 612.874 337.945C612.874 311.246 599.369 289.603 582.71 289.603C566.052 289.603 552.547 311.246 552.547 337.945C552.547 364.644 566.052 386.288 582.71 386.288Z" fill="#483E3F"/>
<path d="M606.533 386.289C623.192 386.289 636.697 364.645 636.697 337.946C636.697 311.247 623.192 289.604 606.533 289.604C589.875 289.604 576.37 311.247 576.37 337.946C576.37 364.645 589.875 386.289 606.533 386.289Z" fill="#2A2A2A"/>
<path d="M606.533 384.266C622.494 384.266 635.433 363.528 635.433 337.946C635.433 312.365 622.494 291.627 606.533 291.627C590.573 291.627 577.634 312.365 577.634 337.946C577.634 363.528 590.573 384.266 606.533 384.266Z" fill="#2A2A2A"/>
<path d="M629.088 339.005C629.088 358.16 621.113 373.686 611.276 373.686C609.487 373.686 607.747 373.169 606.116 372.205C598.791 367.9 593.464 354.664 593.464 339.005C593.464 325.185 597.623 313.255 603.634 307.686C605.949 305.538 608.548 304.332 611.281 304.332C621.117 304.332 629.093 319.858 629.093 339.005H629.088Z" fill="#DDDEE2"/>
<path d="M624.742 339.681C624.742 357.655 616.766 372.239 606.93 372.239C606.663 372.239 606.383 372.23 606.112 372.205C598.787 367.901 593.46 354.665 593.46 339.005C593.46 325.185 597.619 313.255 603.63 307.686C604.706 307.319 605.803 307.127 606.93 307.127C616.766 307.127 624.742 321.698 624.742 339.685V339.681Z" fill="#8E8F93"/>
<path d="M612.015 359.724C618.051 359.724 622.944 350.668 622.944 339.497C622.944 328.326 618.051 319.27 612.015 319.27C605.979 319.27 601.086 328.326 601.086 339.497C601.086 350.668 605.979 359.724 612.015 359.724Z" fill="#D9D9DB"/>
<path d="M617.346 339.122C617.346 344.783 614.956 349.371 612.019 349.371C610.083 349.371 608.39 347.398 607.455 344.436C606.959 342.889 606.679 341.066 606.679 339.118C606.679 336.819 607.072 334.696 607.743 332.982C608.707 330.483 610.267 328.86 612.015 328.86C614.951 328.86 617.342 333.449 617.342 339.118L617.346 339.122Z" fill="#565251"/>
<path d="M612.019 338.733C612.019 341.929 610.25 344.511 608.068 344.511C607.86 344.511 607.656 344.486 607.459 344.436C606.963 342.888 606.684 341.065 606.684 339.117C606.684 336.819 607.076 334.696 607.747 332.981C607.852 332.964 607.964 332.956 608.068 332.956C610.25 332.956 612.019 335.538 612.019 338.733Z" fill="#6F7573"/>
<path d="M352.798 386.288H328.02L327.624 289.603H352.494L352.798 386.288Z" fill="#483E3F"/>
<path d="M328.02 386.288C344.679 386.288 358.183 364.644 358.183 337.945C358.183 311.246 344.679 289.603 328.02 289.603C311.361 289.603 297.856 311.246 297.856 337.945C297.856 364.644 311.361 386.288 328.02 386.288Z" fill="#483E3F"/>
<path d="M351.843 386.289C368.502 386.289 382.006 364.645 382.006 337.946C382.006 311.247 368.502 289.604 351.843 289.604C335.184 289.604 321.679 311.247 321.679 337.946C321.679 364.645 335.184 386.289 351.843 386.289Z" fill="#2A2A2A"/>
<path d="M351.843 384.266C367.804 384.266 380.742 363.528 380.742 337.946C380.742 312.365 367.804 291.627 351.843 291.627C335.882 291.627 322.943 312.365 322.943 337.946C322.943 363.528 335.882 384.266 351.843 384.266Z" fill="#2A2A2A"/>
<path d="M374.398 339.005C374.398 358.16 366.422 373.686 356.586 373.686C354.796 373.686 353.057 373.169 351.426 372.205C344.101 367.9 338.774 354.664 338.774 339.005C338.774 325.185 342.933 313.255 348.944 307.686C351.259 305.538 353.858 304.332 356.59 304.332C366.426 304.332 374.402 319.858 374.402 339.005H374.398Z" fill="#DDDEE2"/>
<path d="M370.051 339.681C370.051 357.655 362.075 372.239 352.239 372.239C351.972 372.239 351.693 372.23 351.421 372.205C344.096 367.901 338.77 354.665 338.77 339.005C338.77 325.185 342.928 313.255 348.939 307.686C350.016 307.319 351.113 307.127 352.239 307.127C362.075 307.127 370.051 321.698 370.051 339.685V339.681Z" fill="#8E8F93"/>
<path d="M357.324 359.724C363.36 359.724 368.253 350.668 368.253 339.497C368.253 328.326 363.36 319.27 357.324 319.27C351.288 319.27 346.395 328.326 346.395 339.497C346.395 350.668 351.288 359.724 357.324 359.724Z" fill="#D9D9DB"/>
<path d="M362.655 339.122C362.655 344.783 360.265 349.371 357.328 349.371C355.393 349.371 353.699 347.398 352.765 344.436C352.268 342.889 351.989 341.066 351.989 339.118C351.989 336.819 352.381 334.696 353.052 332.982C354.016 330.483 355.576 328.86 357.324 328.86C360.261 328.86 362.651 333.449 362.651 339.118L362.655 339.122Z" fill="#565251"/>
<path d="M357.328 338.733C357.328 341.929 355.559 344.511 353.378 344.511C353.169 344.511 352.965 344.486 352.769 344.436C352.272 342.888 351.993 341.065 351.993 339.117C351.993 336.819 352.385 334.696 353.057 332.981C353.161 332.964 353.274 332.956 353.378 332.956C355.559 332.956 357.328 335.538 357.328 338.733Z" fill="#6F7573"/>
<path d="M537.317 351.241H573.955C573.955 334.947 571.815 288.544 600.301 288.544H554.332C546.774 288.544 537.317 311.345 537.317 351.241Z" fill="#1F1F1F"/>
<path d="M419.528 351.098H456.863C455.841 334.946 454.919 288.401 480.794 288.401H434.979C428.113 288.401 416.112 312.858 419.524 351.098H419.528Z" fill="#1F1F1F"/>
<path d="M549.064 271.908H300.376V307.666H549.064V271.908Z" fill="#1F1F1F"/>
<path d="M600.301 6.39648H283.306V286.796H600.301V6.39648Z" fill="#F59D00"/>
<path d="M571.619 291.626H249.847V319.27H571.619V291.626Z" fill="#2E2E2E"/>
<path d="M416.116 351.24H359.026C359.026 336.891 360.503 293.187 332.679 288.269H397.061C407.561 288.269 416.116 311.345 416.116 351.24Z" fill="#1F1F1F"/>
<path d="M382.812 386.288H358.033L357.641 289.603H382.507L382.812 386.288Z" fill="#483E3F"/>
<path d="M358.033 386.288C374.692 386.288 388.197 364.644 388.197 337.945C388.197 311.246 374.692 289.603 358.033 289.603C341.374 289.603 327.87 311.246 327.87 337.945C327.87 364.644 341.374 386.288 358.033 386.288Z" fill="#483E3F"/>
<path d="M381.856 386.289C398.515 386.289 412.02 364.645 412.02 337.946C412.02 311.247 398.515 289.604 381.856 289.604C365.197 289.604 351.693 311.247 351.693 337.946C351.693 364.645 365.197 386.289 381.856 386.289Z" fill="#2A2A2A"/>
<path d="M381.856 384.266C397.817 384.266 410.756 363.528 410.756 337.946C410.756 312.365 397.817 291.627 381.856 291.627C365.895 291.627 352.957 312.365 352.957 337.946C352.957 363.528 365.895 384.266 381.856 384.266Z" fill="#2A2A2A"/>
<path d="M404.411 339.005C404.411 358.16 396.435 373.686 386.599 373.686C384.81 373.686 383.07 373.169 381.439 372.205C374.114 367.9 368.787 354.664 368.787 339.005C368.787 325.185 372.946 313.255 378.957 307.686C381.272 305.538 383.871 304.332 386.603 304.332C396.44 304.332 404.415 319.858 404.415 339.005H404.411Z" fill="#DDDEE2"/>
<path d="M400.069 339.681C400.069 357.655 392.093 372.239 382.257 372.239C381.99 372.239 381.71 372.23 381.439 372.205C374.114 367.901 368.787 354.665 368.787 339.005C368.787 325.185 372.946 313.255 378.957 307.686C380.033 307.319 381.13 307.127 382.257 307.127C392.093 307.127 400.069 321.698 400.069 339.685V339.681Z" fill="#8E8F93"/>
<path d="M387.337 359.724C393.373 359.724 398.266 350.668 398.266 339.497C398.266 328.326 393.373 319.27 387.337 319.27C381.301 319.27 376.408 328.326 376.408 339.497C376.408 350.668 381.301 359.724 387.337 359.724Z" fill="#D9D9DB"/>
<path d="M392.673 339.122C392.673 344.783 390.282 349.371 387.346 349.371C385.41 349.371 383.717 347.398 382.782 344.436C382.286 342.889 382.006 341.066 382.006 339.118C382.006 336.819 382.398 334.696 383.07 332.982C384.034 330.483 385.594 328.86 387.342 328.86C390.278 328.86 392.669 333.449 392.669 339.118L392.673 339.122Z" fill="#565251"/>
<path d="M387.342 338.733C387.342 341.929 385.573 344.511 383.391 344.511C383.183 344.511 382.978 344.486 382.782 344.436C382.286 342.888 382.006 341.065 382.006 339.117C382.006 336.819 382.398 334.696 383.07 332.981C383.174 332.964 383.287 332.956 383.391 332.956C385.573 332.956 387.342 335.538 387.342 338.733Z" fill="#6F7573"/>
<path d="M292.971 351.24H350.062C350.062 336.89 348.581 293.562 376.408 288.644H312.027C301.527 288.644 292.971 311.344 292.971 351.24Z" fill="#1F1F1F"/>
<path d="M156.057 351.24H213.147C213.147 336.89 211.67 293.562 239.494 288.644H175.112C164.612 288.644 156.057 311.344 156.057 351.24Z" fill="#1F1F1F"/>
<path d="M319.135 282.87H115.485V322.574H319.135V282.87Z" fill="#12100D"/>
<path d="M316.878 282.87H113.229V322.574H316.878V282.87Z" fill="#332E25"/>
<path d="M321.946 5.69141H108.156V286.62H321.946V5.69141Z" fill="#EFB601"/>
<path d="M315.189 17.6885H114.918V273.622H315.189V17.6885Z" fill="#633200"/>
<path d="M324.929 288.619H111.139V311.608H324.929V288.619Z" fill="#D1610C"/>
<path d="M321.946 288.617H108.156V311.606H321.946V288.617Z" fill="#EFB601"/>
<path d="M320.257 309.308V290.916H109.846V309.308H320.257Z" fill="#F59D00"/>
<path d="M311.559 307.01H299.133V293.215H311.559C312.631 293.215 313.499 294.083 313.499 295.155V305.07C313.499 306.142 312.631 307.01 311.559 307.01Z" fill="#FFBB34"/>
<path d="M279.698 307.01H267.271C266.199 307.01 265.332 306.142 265.332 305.07V295.155C265.332 294.083 266.199 293.215 267.271 293.215H279.698V307.01Z" fill="#E72F2F"/>
<path d="M279.698 307.01H299.133V293.215H279.698V307.01Z" fill="#F2EFE8"/>
<path d="M248.946 293.214H181.16V307.906H248.946V293.214Z" fill="#633200"/>
<path d="M115.164 293.139H127.591V306.934H115.164C114.092 306.934 113.225 306.066 113.225 304.994V295.078C113.225 294.006 114.092 293.139 115.164 293.139Z" fill="#FFBB34"/>
<path d="M147.03 293.139H159.456C160.529 293.139 161.396 294.006 161.396 295.078V304.994C161.396 306.066 160.529 306.934 159.456 306.934H147.03V293.139Z" fill="#E72F2F"/>
<path d="M147.026 293.139H127.591V306.934H147.026V293.139Z" fill="#F2EFE8"/>
<path d="M140.184 15.8361H132.025C130.611 15.8361 129.468 14.276 129.468 12.353C129.468 10.43 130.615 8.87402 132.025 8.87402H140.184C141.599 8.87402 142.741 10.4341 142.741 12.353C142.741 14.276 141.594 15.8361 140.184 15.8361Z" fill="#E72F2F"/>
<path d="M298.077 15.8361H289.918C288.504 15.8361 287.361 14.276 287.361 12.353C287.361 10.43 288.508 8.87402 289.918 8.87402H298.077C299.491 8.87402 300.634 10.4341 300.634 12.353C300.634 14.276 299.487 15.8361 298.077 15.8361Z" fill="#E72F2F"/>
<path d="M322.125 24.2627H321.775C320.319 24.2627 319.139 25.443 319.139 26.899V48.8366C319.139 50.2926 320.319 51.4729 321.775 51.4729H322.125C323.581 51.4729 324.762 50.2926 324.762 48.8366V26.899C324.762 25.443 323.581 24.2627 322.125 24.2627Z" fill="#EB7600"/>
<path d="M322.626 96.4541H321.274C320.095 96.4541 319.139 97.4103 319.139 98.5899V121.529C319.139 122.708 320.095 123.664 321.274 123.664H322.626C323.806 123.664 324.762 122.708 324.762 121.529V98.5899C324.762 97.4103 323.806 96.4541 322.626 96.4541Z" fill="#EB7600"/>
<path d="M322.125 168.644H321.775C320.319 168.644 319.139 169.824 319.139 171.28V193.217C319.139 194.673 320.319 195.854 321.775 195.854H322.125C323.581 195.854 324.762 194.673 324.762 193.217V171.28C324.762 169.824 323.581 168.644 322.125 168.644Z" fill="#EB7600"/>
<path d="M322.125 240.835H321.775C320.319 240.835 319.139 242.015 319.139 243.471V265.409C319.139 266.865 320.319 268.045 321.775 268.045H322.125C323.581 268.045 324.762 266.865 324.762 265.409V243.471C324.762 242.015 323.581 240.835 322.125 240.835Z" fill="#EB7600"/>
<path d="M408.078 290.967H402.079L329.492 273.622V17.6886L402.079 0.34375H408.078V290.967Z" fill="#EFC130"/>
<path d="M402.079 290.967L323.49 273.622V17.6886L402.079 0.34375V290.967Z" fill="#EFB601"/>
<path d="M107.702 24.2627H109.107C109.971 24.2627 110.676 24.9635 110.676 25.8312V49.9086C110.676 50.7721 109.975 51.4771 109.107 51.4771H107.702C106.838 51.4771 106.133 50.7763 106.133 49.9086V25.8312C106.133 24.9677 106.834 24.2627 107.702 24.2627Z" fill="#EB7600"/>
<path d="M109.107 96.4541H107.706C106.839 96.4541 106.137 97.1563 106.137 98.0226V122.096C106.137 122.962 106.839 123.664 107.706 123.664H109.107C109.973 123.664 110.676 122.962 110.676 122.096V98.0226C110.676 97.1563 109.973 96.4541 109.107 96.4541Z" fill="#EB7600"/>
<path d="M107.702 168.644H109.107C109.971 168.644 110.676 169.344 110.676 170.212V194.29C110.676 195.153 109.975 195.858 109.107 195.858H107.702C106.838 195.858 106.133 195.157 106.133 194.29V170.212C106.133 169.349 106.834 168.644 107.702 168.644Z" fill="#EB7600"/>
<path d="M107.702 240.835H109.107C109.971 240.835 110.676 241.536 110.676 242.403V266.481C110.676 267.344 109.975 268.049 109.107 268.049H107.702C106.838 268.049 106.133 267.349 106.133 266.481V242.403C106.133 241.54 106.834 240.835 107.702 240.835Z" fill="#EB7600"/>
<path d="M3.84131 290.967L106.759 273.622V17.6886L3.84131 0.34375V290.967Z" fill="#EFB601"/>
<path d="M194.501 201.315H129.647V273.623H194.501V201.315Z" fill="#FFA15E"/>
<path d="M238.413 201.315H194.5V273.619H238.413V201.315Z" fill="#EB843F"/>
<g style="mix-blend-mode:multiply">
<path d="M194.496 190.081H129.643V206.567H194.496V190.081Z" fill="#B2B2B2"/>
</g>
<g style="mix-blend-mode:multiply">
<path d="M238.413 190.081H194.5V206.567H238.413V190.081Z" fill="#B2B2B2"/>
</g>
<path d="M198.347 189.238H125.797V205.724H198.347V189.238Z" fill="#FFB47D"/>
<path d="M242.418 189.238H194.5V205.724H242.418V189.238Z" fill="#F59D5B"/>
<path fill-rule="evenodd" clip-rule="evenodd" d="M157.008 263.82C157.008 263.82 157.008 263.816 156.999 263.816C157.008 263.833 157.012 263.841 157.008 263.82ZM155.544 266.753H155.769C156.082 266.736 156.336 266.657 156.532 266.469L156.908 265.91V265.902C156.987 265.806 157.066 265.689 157.108 265.568C157.145 265.464 157.154 265.351 157.099 265.239L156.578 264.233L156.499 264.083L156.641 263.991L156.887 263.833L154.793 263.437L154.125 265.401L154.363 265.247L154.522 265.143L154.622 265.305L155.535 266.761L155.544 266.753ZM152.924 266.753H155.101L154.413 265.656L154.113 265.852L154.092 265.864L154.071 265.873C154.029 265.885 153.983 265.893 153.938 265.889C153.875 265.881 153.817 265.856 153.767 265.798C153.729 265.752 153.704 265.689 153.7 265.61C153.7 265.543 153.712 265.451 153.754 265.339L154.497 263.161L154.551 263.007L154.709 263.036L156.966 263.466C157.229 263.52 157.341 263.624 157.371 263.741C157.4 263.883 157.316 263.987 157.204 264.071L157.191 264.079L156.991 264.208L157.437 265.068C157.542 265.284 157.529 265.497 157.462 265.685C157.404 265.856 157.304 266.002 157.212 266.119L155.481 268.872C155.218 269.347 154.893 269.502 154.509 269.485H152.523V267.191C152.523 266.836 152.661 266.761 152.92 266.749L152.924 266.753Z" fill="#85583C"/>
<path d="M148.753 261.856C148.753 261.856 148.753 261.86 148.753 261.865C148.761 261.852 148.769 261.84 148.753 261.856ZM152.369 261.614L151.698 263.045L152.027 263.191L152.052 263.204L152.069 263.216C152.102 263.241 152.131 263.279 152.152 263.32C152.181 263.379 152.19 263.441 152.169 263.512C152.152 263.571 152.115 263.625 152.048 263.671C151.994 263.708 151.91 263.746 151.789 263.771L149.553 264.326L149.395 264.363L149.337 264.213L148.477 262.082C148.381 261.831 148.406 261.681 148.49 261.594C148.59 261.493 148.728 261.506 148.857 261.556H148.869L149.086 261.66L149.57 260.822C149.695 260.617 149.883 260.513 150.075 260.467C150.25 260.426 150.429 260.43 150.575 260.442H153.616L152.219 260.851L150.563 260.818H150.55C150.434 260.809 150.292 260.805 150.167 260.834C150.062 260.859 149.962 260.914 149.896 261.018L149.332 262.002L149.249 262.148L149.095 262.077L148.828 261.956L149.624 263.934L151.639 263.437L151.381 263.32L151.205 263.241L151.285 263.07L152.04 261.464L152.378 261.623L152.369 261.614Z" fill="#85583C"/>
<path fill-rule="evenodd" clip-rule="evenodd" d="M153.424 263.704L151.889 261.31C151.693 261.034 151.472 260.859 151.172 260.805L152.186 260.471L153.825 260.4C154.371 260.363 154.676 260.555 154.872 260.888L155.944 262.561L154.013 263.8C153.712 263.988 153.575 263.917 153.424 263.704Z" fill="#85583C"/>
<path fill-rule="evenodd" clip-rule="evenodd" d="M151.009 269.936H151.018C151.001 269.936 150.988 269.936 151.009 269.936ZM149.224 267.187L149.107 267.383C148.961 267.662 148.903 267.921 148.965 268.188L149.257 268.797V268.805C149.307 268.914 149.366 269.043 149.449 269.143C149.52 269.227 149.612 269.289 149.737 269.302L150.867 269.36L151.034 269.368L151.043 269.535L151.055 269.827L152.461 268.226L151.105 266.653L151.118 266.937L151.126 267.124H150.938L149.22 267.178L149.224 267.187ZM150.55 264.93L149.445 266.807L150.738 266.77L150.721 266.411V266.386V266.365C150.73 266.323 150.746 266.282 150.776 266.244C150.813 266.194 150.867 266.156 150.943 266.144C151.001 266.136 151.068 266.144 151.139 266.182C151.197 266.215 151.268 266.273 151.343 266.369L152.845 268.113L152.949 268.234L152.841 268.355L151.326 270.082C151.147 270.282 151.001 270.328 150.884 270.29C150.746 270.244 150.701 270.115 150.684 269.978V269.961L150.671 269.723L149.704 269.673C149.466 269.652 149.286 269.535 149.157 269.381C149.04 269.243 148.965 269.081 148.911 268.947L147.413 266.061C147.138 265.593 147.172 265.235 147.38 264.913L148.385 263.203L150.363 264.367C150.667 264.55 150.663 264.705 150.542 264.934L150.55 264.93Z" fill="#85583C"/>
<path d="M157.667 258.465H147.084C146.358 258.465 145.758 259.086 145.758 259.841V270.854C145.758 271.613 146.358 272.231 147.084 272.231H157.667C158.393 272.231 158.985 271.613 158.985 270.854V259.841C158.985 259.086 158.393 258.465 157.667 258.465ZM158.197 270.679C158.197 271.075 157.88 271.409 157.496 271.409H147.251C146.863 271.409 146.55 271.075 146.55 270.679V260.021C146.55 259.616 146.863 259.291 147.251 259.291H157.496C157.876 259.291 158.197 259.616 158.197 260.021V270.679Z" fill="#85583C"/>
<path d="M142.036 270.624H135.145C135.012 270.624 134.903 270.516 134.903 270.383C134.903 270.249 135.012 270.141 135.145 270.141H142.036C142.17 270.141 142.278 270.249 142.278 270.383C142.278 270.516 142.17 270.624 142.036 270.624Z" fill="#85583C"/>
<path fill-rule="evenodd" clip-rule="evenodd" d="M137.535 261.927V269.123H136.075V261.923L135.362 261.919L136.835 260.075L138.299 261.927H137.535Z" fill="#85583C"/>
<path fill-rule="evenodd" clip-rule="evenodd" d="M141.11 261.932V269.128H139.654V261.924H138.937L140.414 260.08L141.878 261.932H141.11Z" fill="#85583C"/>
<path d="M143.885 258.465H133.302C132.576 258.465 131.975 259.086 131.975 259.841V270.854C131.975 271.613 132.576 272.231 133.302 272.231H143.885C144.61 272.231 145.203 271.613 145.203 270.854V259.841C145.203 259.086 144.61 258.465 143.885 258.465ZM144.414 270.679C144.414 271.075 144.097 271.409 143.714 271.409H133.468C133.081 271.409 132.768 271.075 132.768 270.679V260.021C132.768 259.616 133.081 259.291 133.468 259.291H143.714C144.093 259.291 144.414 259.616 144.414 260.021V270.679Z" fill="#85583C"/>
<path d="M292.291 201.315H227.438V273.623H292.291V201.315Z" fill="#FFA15E"/>
<path d="M336.204 201.315H292.291V273.619H336.204V201.315Z" fill="#EB843F"/>
<g style="mix-blend-mode:multiply">
<path d="M292.291 190.081H227.438V206.567H292.291V190.081Z" fill="#B2B2B2"/>
</g>
<g style="mix-blend-mode:multiply">
<path d="M336.204 190.081H292.291V206.567H336.204V190.081Z" fill="#B2B2B2"/>
</g>
<path d="M296.142 189.238H223.592V205.724H296.142V189.238Z" fill="#FFB47D"/>
<path d="M340.208 189.238H292.291V205.724H340.208V189.238Z" fill="#F59D5B"/>
<path fill-rule="evenodd" clip-rule="evenodd" d="M254.799 263.82C254.799 263.82 254.799 263.816 254.79 263.816C254.799 263.833 254.803 263.841 254.799 263.82ZM253.335 266.753H253.56C253.873 266.736 254.127 266.657 254.323 266.469L254.699 265.91V265.902C254.778 265.806 254.857 265.689 254.899 265.568C254.936 265.464 254.945 265.351 254.891 265.239L254.369 264.233L254.29 264.083L254.432 263.991L254.678 263.833L252.584 263.437L251.916 265.401L252.154 265.247L252.313 265.143L252.413 265.305L253.326 266.761L253.335 266.753ZM250.715 266.753H252.892L252.204 265.656L251.904 265.852L251.883 265.864L251.862 265.873C251.82 265.885 251.774 265.893 251.729 265.889C251.666 265.881 251.603 265.856 251.558 265.798C251.52 265.752 251.495 265.689 251.491 265.61C251.491 265.543 251.503 265.451 251.545 265.339L252.288 263.161L252.342 263.007L252.5 263.036L254.757 263.466C255.02 263.52 255.132 263.624 255.162 263.741C255.191 263.883 255.107 263.987 254.995 264.071L254.982 264.079L254.782 264.208L255.228 265.068C255.333 265.284 255.32 265.497 255.253 265.685C255.195 265.856 255.095 266.002 255.003 266.119L253.272 268.872C253.009 269.347 252.684 269.502 252.3 269.485H250.314V267.191C250.314 266.836 250.452 266.761 250.711 266.749L250.715 266.753Z" fill="#85583C"/>
<path d="M246.544 261.856C246.544 261.856 246.544 261.86 246.544 261.865C246.552 261.852 246.56 261.84 246.544 261.856ZM250.16 261.614L249.489 263.045L249.818 263.191L249.843 263.204L249.86 263.216C249.893 263.241 249.922 263.279 249.943 263.32C249.973 263.379 249.981 263.441 249.96 263.512C249.943 263.571 249.906 263.625 249.839 263.671C249.785 263.708 249.701 263.746 249.58 263.771L247.345 264.326L247.186 264.363L247.128 264.213L246.268 262.082C246.172 261.831 246.197 261.681 246.281 261.594C246.381 261.493 246.519 261.506 246.648 261.556H246.66L246.877 261.66L247.361 260.822C247.486 260.617 247.674 260.513 247.866 260.467C248.041 260.426 248.221 260.43 248.367 260.442H251.407L250.01 260.851L248.354 260.818H248.341C248.225 260.809 248.083 260.805 247.958 260.834C247.853 260.859 247.753 260.914 247.687 261.018L247.123 262.002L247.04 262.148L246.886 262.077L246.619 261.956L247.415 263.934L249.426 263.437L249.167 263.32L248.992 263.241L249.071 263.07L249.827 261.464L250.164 261.623L250.16 261.614Z" fill="#85583C"/>
<path fill-rule="evenodd" clip-rule="evenodd" d="M251.215 263.704L249.68 261.31C249.484 261.034 249.263 260.859 248.963 260.805L249.977 260.471L251.616 260.4C252.162 260.363 252.467 260.555 252.663 260.888L253.735 262.561L251.804 263.8C251.503 263.988 251.366 263.917 251.215 263.704Z" fill="#85583C"/>
<path fill-rule="evenodd" clip-rule="evenodd" d="M248.804 269.936H248.813C248.796 269.936 248.784 269.936 248.804 269.936ZM247.019 267.187L246.902 267.383C246.756 267.662 246.698 267.921 246.76 268.188L247.052 268.797V268.805C247.102 268.914 247.161 269.043 247.244 269.143C247.315 269.227 247.407 269.289 247.532 269.302L248.663 269.36L248.829 269.368L248.838 269.535L248.85 269.827L250.256 268.226L248.9 266.653L248.913 266.937L248.921 267.124H248.734L247.015 267.178L247.019 267.187ZM248.346 264.93L247.24 266.807L248.533 266.77L248.517 266.411V266.386V266.365C248.525 266.323 248.542 266.282 248.571 266.244C248.608 266.194 248.663 266.156 248.738 266.144C248.796 266.136 248.863 266.144 248.934 266.182C248.992 266.215 249.063 266.273 249.138 266.369L250.64 268.113L250.744 268.234L250.636 268.355L249.121 270.082C248.942 270.282 248.796 270.328 248.679 270.29C248.542 270.244 248.496 270.115 248.479 269.978V269.961L248.467 269.723L247.499 269.673C247.261 269.652 247.082 269.535 246.952 269.381C246.835 269.243 246.76 269.081 246.706 268.947L245.209 266.061C244.933 265.593 244.967 265.235 245.175 264.913L246.181 263.203L248.158 264.367C248.462 264.55 248.458 264.705 248.337 264.934L248.346 264.93Z" fill="#85583C"/>
<path d="M255.458 258.465H244.875C244.149 258.465 243.548 259.086 243.548 259.841V270.854C243.548 271.613 244.149 272.231 244.875 272.231H255.458C256.184 272.231 256.776 271.613 256.776 270.854V259.841C256.776 259.086 256.184 258.465 255.458 258.465ZM255.988 270.679C255.988 271.075 255.67 271.409 255.287 271.409H245.042C244.654 271.409 244.341 271.075 244.341 270.679V260.021C244.341 259.616 244.654 259.291 245.042 259.291H255.287C255.666 259.291 255.988 259.616 255.988 260.021V270.679Z" fill="#85583C"/>
<path d="M239.831 270.624H232.94C232.807 270.624 232.698 270.516 232.698 270.383C232.698 270.249 232.807 270.141 232.94 270.141H239.831C239.965 270.141 240.073 270.249 240.073 270.383C240.073 270.516 239.965 270.624 239.831 270.624Z" fill="#85583C"/>
<path fill-rule="evenodd" clip-rule="evenodd" d="M235.326 261.927V269.123H233.87V261.923L233.153 261.919L234.625 260.075L236.094 261.927H235.326Z" fill="#85583C"/>
<path fill-rule="evenodd" clip-rule="evenodd" d="M238.905 261.932V269.128H237.445V261.924H236.732L238.204 260.08L239.669 261.932H238.905Z" fill="#85583C"/>
<path d="M241.679 258.465H231.097C230.371 258.465 229.77 259.086 229.77 259.841V270.854C229.77 271.613 230.371 272.231 231.097 272.231H241.679C242.405 272.231 242.998 271.613 242.998 270.854V259.841C242.998 259.086 242.405 258.465 241.679 258.465ZM242.209 270.679C242.209 271.075 241.892 271.409 241.508 271.409H231.263C230.875 271.409 230.563 271.075 230.563 270.679V260.021C230.563 259.616 230.875 259.291 231.263 259.291H241.508C241.888 259.291 242.209 259.616 242.209 260.021V270.679Z" fill="#85583C"/>
<path d="M195.998 116.476H131.145V188.783H195.998V116.476Z" fill="#FFA15E"/>
<path d="M239.911 116.479H195.998V188.783H239.911V116.479Z" fill="#EB843F"/>
<g style="mix-blend-mode:multiply">
<path d="M195.998 105.242H131.145V121.728H195.998V105.242Z" fill="#B2B2B2"/>
</g>
<g style="mix-blend-mode:multiply">
<path d="M239.911 105.242H195.998V121.728H239.911V105.242Z" fill="#B2B2B2"/>
</g>
<path d="M199.848 104.403H127.299V120.889H199.848V104.403Z" fill="#FFB47D"/>
<path d="M243.915 104.403H195.998V120.889H243.915V104.403Z" fill="#F59D5B"/>
<path fill-rule="evenodd" clip-rule="evenodd" d="M158.505 178.985C158.505 178.985 158.505 178.981 158.497 178.981C158.505 178.998 158.509 179.006 158.505 178.985ZM157.041 181.918H157.266C157.579 181.901 157.834 181.822 158.03 181.634L158.405 181.075V181.067C158.484 180.971 158.564 180.854 158.605 180.733C158.643 180.629 158.651 180.516 158.597 180.404L158.076 179.398L157.996 179.248L158.138 179.156L158.384 178.998L156.29 178.602L155.623 180.566L155.861 180.412L156.019 180.308L156.119 180.47L157.033 181.926L157.041 181.918ZM154.421 181.918H156.599L155.911 180.821L155.61 181.017L155.589 181.029L155.569 181.038C155.527 181.05 155.481 181.059 155.435 181.054C155.373 181.046 155.314 181.021 155.264 180.963C155.227 180.917 155.202 180.854 155.197 180.775C155.197 180.708 155.21 180.616 155.252 180.504L155.994 178.326L156.048 178.172L156.207 178.201L158.464 178.631C158.726 178.685 158.839 178.789 158.868 178.906C158.897 179.048 158.814 179.152 158.701 179.236L158.689 179.244L158.489 179.373L158.935 180.233C159.039 180.449 159.027 180.662 158.96 180.85C158.902 181.021 158.801 181.167 158.71 181.284L156.979 184.037C156.716 184.512 156.39 184.667 156.007 184.65H154.021V182.356C154.021 182.001 154.159 181.926 154.417 181.914L154.421 181.918Z" fill="#85583C"/>
<path d="M150.25 177.016C150.25 177.016 150.25 177.021 150.25 177.025C150.258 177.012 150.267 177 150.25 177.016ZM153.867 176.775L153.195 178.205L153.525 178.351L153.55 178.364L153.566 178.376C153.6 178.401 153.629 178.439 153.65 178.481C153.679 178.539 153.687 178.602 153.667 178.673C153.65 178.731 153.612 178.785 153.546 178.831C153.491 178.869 153.408 178.906 153.287 178.931L151.051 179.486L150.893 179.524L150.834 179.373L149.975 177.242C149.879 176.991 149.904 176.841 149.987 176.754C150.087 176.654 150.225 176.666 150.354 176.716H150.367L150.584 176.82L151.068 175.982C151.193 175.778 151.381 175.673 151.572 175.627C151.748 175.586 151.927 175.59 152.073 175.602H155.114L153.712 176.011L152.056 175.978H152.044C151.927 175.969 151.785 175.965 151.66 175.994C151.556 176.019 151.456 176.074 151.389 176.178L150.826 177.162L150.742 177.308L150.588 177.238L150.321 177.117L151.118 179.094L153.133 178.597L152.874 178.481L152.699 178.401L152.778 178.23L153.533 176.624L153.871 176.783L153.867 176.775Z" fill="#85583C"/>
<path fill-rule="evenodd" clip-rule="evenodd" d="M154.926 178.864L153.391 176.47C153.195 176.194 152.974 176.019 152.674 175.965L153.687 175.631L155.327 175.56C155.873 175.523 156.178 175.715 156.374 176.048L157.446 177.721L155.515 178.96C155.214 179.148 155.077 179.077 154.926 178.864Z" fill="#85583C"/>
<path fill-rule="evenodd" clip-rule="evenodd" d="M152.511 185.101H152.519C152.503 185.101 152.49 185.101 152.511 185.101ZM150.726 182.352L150.609 182.548C150.463 182.827 150.404 183.086 150.467 183.353L150.759 183.962V183.97C150.809 184.079 150.867 184.208 150.951 184.308C151.022 184.392 151.114 184.454 151.239 184.467L152.369 184.525L152.536 184.534L152.544 184.7L152.557 184.992L153.963 183.391L152.607 181.818L152.619 182.102L152.628 182.289H152.44L150.721 182.344L150.726 182.352ZM152.052 180.095L150.947 181.972L152.24 181.935L152.223 181.576V181.551V181.53C152.231 181.488 152.248 181.447 152.277 181.409C152.315 181.359 152.369 181.322 152.444 181.309C152.503 181.301 152.569 181.309 152.64 181.347C152.699 181.38 152.77 181.438 152.845 181.534L154.346 183.278L154.451 183.399L154.342 183.52L152.828 185.247C152.649 185.447 152.503 185.493 152.386 185.455C152.248 185.41 152.202 185.284 152.186 185.143V185.126L152.173 184.888L151.205 184.838C150.968 184.817 150.788 184.7 150.659 184.546C150.542 184.408 150.467 184.246 150.413 184.112L148.915 181.226C148.64 180.758 148.673 180.4 148.882 180.078L149.887 178.368L151.864 179.532C152.169 179.716 152.165 179.87 152.044 180.099L152.052 180.095Z" fill="#85583C"/>
<path d="M159.164 173.629H148.581C147.856 173.629 147.255 174.25 147.255 175.005V186.018C147.255 186.777 147.856 187.395 148.581 187.395H159.164C159.89 187.395 160.482 186.777 160.482 186.018V175.005C160.482 174.25 159.89 173.629 159.164 173.629ZM159.694 185.843C159.694 186.239 159.377 186.573 158.993 186.573H148.748C148.36 186.573 148.047 186.239 148.047 185.843V175.185C148.047 174.78 148.36 174.455 148.748 174.455H158.993C159.373 174.455 159.694 174.78 159.694 175.185V185.843Z" fill="#85583C"/>
<path d="M143.538 185.785H136.647C136.513 185.785 136.405 185.676 136.405 185.543C136.405 185.409 136.513 185.301 136.647 185.301H143.538C143.671 185.301 143.78 185.409 143.78 185.543C143.78 185.676 143.671 185.785 143.538 185.785Z" fill="#85583C"/>
<path fill-rule="evenodd" clip-rule="evenodd" d="M139.033 177.086V184.282H137.577V177.082L136.86 177.078L138.336 175.234L139.8 177.091L139.033 177.086Z" fill="#85583C"/>
<path fill-rule="evenodd" clip-rule="evenodd" d="M142.612 177.09V184.286H141.156V177.086L140.438 177.082L141.911 175.238L143.379 177.09H142.612Z" fill="#85583C"/>
<path d="M145.386 173.629H134.803C134.077 173.629 133.477 174.25 133.477 175.005V186.018C133.477 186.777 134.077 187.395 134.803 187.395H145.386C146.112 187.395 146.704 186.777 146.704 186.018V175.005C146.704 174.25 146.112 173.629 145.386 173.629ZM145.916 185.843C145.916 186.239 145.599 186.573 145.215 186.573H134.97C134.582 186.573 134.269 186.239 134.269 185.843V175.185C134.269 174.78 134.582 174.455 134.97 174.455H145.215C145.595 174.455 145.916 174.78 145.916 175.185V185.843Z" fill="#85583C"/>
<path d="M293.793 116.476H228.94V188.783H293.793V116.476Z" fill="#FFA15E"/>
<path d="M337.706 116.479H293.793V188.783H337.706V116.479Z" fill="#EB843F"/>
<g style="mix-blend-mode:multiply">
<path d="M293.793 105.242H228.94V121.728H293.793V105.242Z" fill="#B2B2B2"/>
</g>
<g style="mix-blend-mode:multiply">
<path d="M337.706 105.242H293.793V121.728H337.706V105.242Z" fill="#B2B2B2"/>
</g>
<path d="M297.639 104.403H225.09V120.889H297.639V104.403Z" fill="#FFB47D"/>
<path d="M341.71 104.403H293.793V120.889H341.71V104.403Z" fill="#F59D5B"/>
<path fill-rule="evenodd" clip-rule="evenodd" d="M256.3 178.985C256.3 178.985 256.3 178.981 256.292 178.981C256.3 178.998 256.305 179.006 256.3 178.985ZM254.836 181.918H255.062C255.374 181.901 255.629 181.822 255.825 181.634L256.2 181.075V181.067C256.28 180.971 256.359 180.854 256.401 180.733C256.438 180.629 256.446 180.516 256.392 180.404L255.871 179.398L255.792 179.248L255.933 179.156L256.179 178.998L254.085 178.602L253.418 180.566L253.656 180.412L253.814 180.308L253.914 180.47L254.828 181.926L254.836 181.918ZM252.217 181.918H254.394L253.706 180.821L253.406 181.017L253.385 181.029L253.364 181.038C253.322 181.05 253.276 181.059 253.23 181.054C253.168 181.046 253.109 181.021 253.059 180.963C253.022 180.917 252.997 180.854 252.993 180.775C252.993 180.708 253.005 180.616 253.047 180.504L253.789 178.326L253.843 178.172L254.002 178.201L256.259 178.631C256.522 178.685 256.634 178.789 256.663 178.906C256.693 179.048 256.609 179.152 256.497 179.236L256.484 179.244L256.284 179.373L256.73 180.233C256.834 180.449 256.822 180.662 256.755 180.85C256.697 181.021 256.597 181.167 256.505 181.284L254.774 184.037C254.511 184.512 254.186 184.667 253.802 184.65H251.816V182.356C251.816 182.001 251.954 181.926 252.212 181.914L252.217 181.918Z" fill="#85583C"/>
<path d="M248.045 177.016C248.045 177.016 248.045 177.021 248.045 177.025C248.054 177.012 248.062 177 248.045 177.016ZM251.662 176.775L250.99 178.205L251.32 178.351L251.345 178.364L251.362 178.376C251.395 178.401 251.424 178.439 251.445 178.481C251.474 178.539 251.483 178.602 251.462 178.673C251.445 178.731 251.407 178.785 251.341 178.831C251.287 178.869 251.203 178.906 251.082 178.931L248.846 179.486L248.688 179.524L248.629 179.373L247.77 177.242C247.674 176.991 247.699 176.841 247.782 176.754C247.883 176.654 248.02 176.666 248.15 176.716H248.162L248.379 176.82L248.863 175.982C248.988 175.778 249.176 175.673 249.368 175.627C249.543 175.586 249.722 175.59 249.868 175.602H252.909L251.512 176.011L249.856 175.978H249.843C249.726 175.969 249.585 175.965 249.459 175.994C249.355 176.019 249.255 176.074 249.188 176.178L248.625 177.162L248.542 177.308L248.387 177.238L248.12 177.117L248.917 179.094L250.932 178.597L250.673 178.481L250.498 178.401L250.577 178.23L251.332 176.624L251.67 176.783L251.662 176.775Z" fill="#85583C"/>
<path fill-rule="evenodd" clip-rule="evenodd" d="M252.717 178.864L251.182 176.47C250.986 176.194 250.765 176.019 250.465 175.965L251.478 175.631L253.118 175.56C253.664 175.523 253.969 175.715 254.165 176.048L255.237 177.721L253.306 178.96C253.005 179.148 252.868 179.077 252.717 178.864Z" fill="#85583C"/>
<path fill-rule="evenodd" clip-rule="evenodd" d="M250.302 185.101H250.31C250.294 185.101 250.281 185.101 250.302 185.101ZM248.517 182.352L248.4 182.548C248.254 182.827 248.195 183.086 248.258 183.353L248.55 183.962V183.97C248.6 184.079 248.658 184.208 248.742 184.308C248.813 184.392 248.905 184.454 249.03 184.467L250.16 184.525L250.327 184.534L250.335 184.7L250.348 184.992L251.754 183.391L250.398 181.818L250.41 182.102L250.419 182.289H250.231L248.512 182.344L248.517 182.352ZM249.843 180.095L248.738 181.972L250.031 181.935L250.014 181.576V181.551V181.53C250.022 181.488 250.039 181.447 250.068 181.409C250.106 181.359 250.16 181.322 250.235 181.309C250.294 181.301 250.36 181.309 250.431 181.347C250.49 181.38 250.561 181.438 250.636 181.534L252.137 183.278L252.242 183.399L252.133 183.52L250.619 185.247C250.44 185.447 250.294 185.493 250.177 185.455C250.039 185.41 249.993 185.284 249.977 185.143V185.126L249.964 184.888L248.996 184.838C248.759 184.817 248.579 184.7 248.45 184.546C248.333 184.408 248.258 184.246 248.204 184.112L246.706 181.226C246.431 180.758 246.464 180.4 246.673 180.078L247.678 178.368L249.655 179.532C249.96 179.716 249.956 179.87 249.835 180.099L249.843 180.095Z" fill="#85583C"/>
<path d="M256.959 173.629H246.377C245.651 173.629 245.05 174.25 245.05 175.005V186.018C245.05 186.777 245.651 187.395 246.377 187.395H256.959C257.685 187.395 258.278 186.777 258.278 186.018V175.005C258.278 174.25 257.685 173.629 256.959 173.629ZM257.489 185.843C257.489 186.239 257.172 186.573 256.788 186.573H246.543C246.155 186.573 245.843 186.239 245.843 185.843V175.185C245.843 174.78 246.155 174.455 246.543 174.455H256.788C257.168 174.455 257.489 174.78 257.489 175.185V185.843Z" fill="#85583C"/>
<path d="M241.329 185.785H234.438C234.304 185.785 234.196 185.676 234.196 185.543C234.196 185.409 234.304 185.301 234.438 185.301H241.329C241.462 185.301 241.571 185.409 241.571 185.543C241.571 185.676 241.462 185.785 241.329 185.785Z" fill="#85583C"/>
<path fill-rule="evenodd" clip-rule="evenodd" d="M236.828 177.086V184.282H235.368V177.082L234.655 177.078L236.127 175.234L237.591 177.091L236.828 177.086Z" fill="#85583C"/>
<path fill-rule="evenodd" clip-rule="evenodd" d="M240.407 177.09V184.286H238.947V177.086L238.234 177.082L239.706 175.238L241.171 177.09H240.407Z" fill="#85583C"/>
<path d="M243.181 173.629H232.598C231.872 173.629 231.272 174.25 231.272 175.005V186.018C231.272 186.777 231.872 187.395 232.598 187.395H243.181C243.907 187.395 244.499 186.777 244.499 186.018V175.005C244.499 174.25 243.907 173.629 243.181 173.629ZM243.711 185.843C243.711 186.239 243.394 186.573 243.01 186.573H232.765C232.377 186.573 232.064 186.239 232.064 185.843V175.185C232.064 174.78 232.377 174.455 232.765 174.455H243.01C243.39 174.455 243.711 174.78 243.711 175.185V185.843Z" fill="#85583C"/>
</svg>
