<svg width="49" height="60" viewBox="0 0 49 60" fill="none" xmlns="http://www.w3.org/2000/svg">
<g style="mix-blend-mode:multiply" opacity="0.22">
<path d="M4.41684 59.6449L6.25776 57.3838L8.07013 59.6449L9.91105 57.3838L11.7238 59.6449L13.5643 57.3838L15.3771 59.6449L17.2176 57.3838L19.0304 59.6449L20.8713 57.3838L22.6837 59.6449L24.5246 57.3838L26.337 59.6449L28.1779 57.3838L29.9903 59.6449L31.8312 57.3838L33.6439 59.6449L35.4845 57.3838L37.2972 59.6449L39.1381 57.3838L40.9505 59.6449L42.7914 57.3838L44.6038 59.6449L46.4447 57.3838L48.2522 59.6385V5.41992H4.41309V59.6449H4.41684Z" fill="#A1A4A5"/>
</g>
<path d="M0.256084 55.3903L2.09663 53.1297L3.90938 55.3903L5.74992 53.1297L7.56267 55.3903L9.40321 53.1297L11.216 55.3903L13.0569 53.1297L14.8693 55.3903L16.7102 53.1297L18.5226 55.3903L20.3635 53.1297L22.1758 55.3903L24.0168 53.1297L25.8295 55.3903L27.6701 53.1297L29.4828 55.3903L31.3237 53.1297L33.1361 55.3903L34.977 53.1297L36.7894 55.3903L38.6303 53.1297L40.4427 55.3903L42.2836 53.1297L44.0911 55.3839V0.251953H0.251953V55.3903H0.256084Z" fill="#F7F7F7"/>
<path d="M20.0177 19.1104H5.44737C5.01625 19.1104 4.66699 18.7602 4.66699 18.3287C4.66699 17.8968 5.01662 17.5469 5.44737 17.5469H20.0177C20.4489 17.5469 20.7981 17.8971 20.7981 18.3287C20.7981 18.7605 20.4485 19.1104 20.0177 19.1104Z" fill="#C4C4C4"/>
<path d="M38.593 19.1104H33.1202C32.6891 19.1104 32.3398 18.7602 32.3398 18.3287C32.3398 17.8968 32.6895 17.5469 33.1202 17.5469H38.593C39.0242 17.5469 39.3738 17.8971 39.3738 18.3287C39.3738 18.7605 39.0242 19.1104 38.593 19.1104Z" fill="#C4C4C4"/>
<path d="M38.593 22.5655H33.1202C32.6891 22.5655 32.3398 22.2152 32.3398 21.7837C32.3398 21.3518 32.6895 21.002 33.1202 21.002H38.593C39.0242 21.002 39.3738 21.3518 39.3738 21.7837C39.3738 22.2156 39.0242 22.5655 38.593 22.5655Z" fill="#C4C4C4"/>
<path d="M38.593 26.0225H33.1202C32.6891 26.0225 32.3398 25.6723 32.3398 25.2408C32.3398 24.8089 32.6895 24.459 33.1202 24.459H38.593C39.0242 24.459 39.3738 24.8092 39.3738 25.2408C39.3738 25.6727 39.0242 26.0225 38.593 26.0225Z" fill="#C4C4C4"/>
<path d="M38.593 32.935H33.1202C32.6891 32.935 32.3398 32.5848 32.3398 32.1529C32.3398 31.721 32.6895 31.3711 33.1202 31.3711H38.593C39.0242 31.3711 39.3738 31.7213 39.3738 32.1529C39.3738 32.5848 39.0242 32.935 38.593 32.935Z" fill="#C4C4C4"/>
<path d="M38.593 36.3936H33.1202C32.6891 36.3936 32.3398 36.0434 32.3398 35.6118C32.3398 35.18 32.6895 34.8301 33.1202 34.8301H38.593C39.0242 34.8301 39.3738 35.1803 39.3738 35.6118C39.3738 36.0437 39.0242 36.3936 38.593 36.3936Z" fill="#C4C4C4"/>
<path d="M14.3726 22.5655H5.44737C5.01625 22.5655 4.66699 22.2152 4.66699 21.7837C4.66699 21.3518 5.01662 21.002 5.44737 21.002H14.3726C14.8037 21.002 15.1529 21.3518 15.1529 21.7837C15.1529 22.2156 14.8033 22.5655 14.3726 22.5655Z" fill="#C4C4C4"/>
<path d="M16.521 26.0225H5.44737C5.01625 26.0225 4.66699 25.6723 4.66699 25.2408C4.66699 24.8089 5.01662 24.459 5.44737 24.459H16.521C16.9522 24.459 17.3014 24.8092 17.3014 25.2408C17.3014 25.6727 16.9518 26.0225 16.521 26.0225Z" fill="#C4C4C4"/>
<path d="M17.6274 32.935H5.44737C5.01625 32.935 4.66699 32.5848 4.66699 32.1529C4.66699 31.721 5.01662 31.3711 5.44737 31.3711H17.6274C18.0585 31.3711 18.4078 31.7213 18.4078 32.1529C18.4078 32.5848 18.0581 32.935 17.6274 32.935Z" fill="#C4C4C4"/>
<path d="M19.0597 36.3936H5.44737C5.01625 36.3936 4.66699 36.0434 4.66699 35.6118C4.66699 35.18 5.01662 34.8301 5.44737 34.8301H19.0597C19.4908 34.8301 19.8401 35.1803 19.8401 35.6118C19.8401 36.0437 19.4908 36.3936 19.0597 36.3936Z" fill="#C4C4C4"/>
<path d="M38.593 8.64986H33.1202C32.6891 8.64986 32.3398 8.29961 32.3398 7.86771C32.3398 7.43582 32.6895 7.08594 33.1202 7.08594H38.593C39.0242 7.08594 39.3738 7.43619 39.3738 7.86771C39.3738 8.29961 39.0242 8.64986 38.593 8.64986Z" fill="#C4C4C4"/>
<path d="M38.593 12.1069H33.1202C32.6891 12.1069 32.3398 11.7566 32.3398 11.3247C32.3398 10.8928 32.6895 10.543 33.1202 10.543H38.593C39.0242 10.543 39.3738 10.8932 39.3738 11.3247C39.3738 11.7566 39.0242 12.1069 38.593 12.1069Z" fill="#C4C4C4"/>
<path d="M17.6274 8.64986H5.44737C5.01625 8.64986 4.66699 8.29961 4.66699 7.86771C4.66699 7.43582 5.01662 7.08594 5.44737 7.08594H17.6274C18.0585 7.08594 18.4078 7.43619 18.4078 7.86771C18.4078 8.29961 18.0581 8.64986 17.6274 8.64986Z" fill="#C4C4C4"/>
<path d="M19.0597 12.1069H5.44737C5.01625 12.1069 4.66699 11.7566 4.66699 11.3247C4.66699 10.8928 5.01662 10.543 5.44737 10.543H19.0597C19.4908 10.543 19.8401 10.8932 19.8401 11.3247C19.8401 11.7566 19.4908 12.1069 19.0597 12.1069Z" fill="#C4C4C4"/>
<path d="M21.8268 40.8398H7.87913C6.10539 40.8398 4.66748 42.2803 4.66748 44.0572C4.66748 45.8341 6.10539 47.2746 7.87913 47.2746H21.8268C23.6006 47.2746 25.0385 45.8341 25.0385 44.0572C25.0385 42.2803 23.6006 40.8398 21.8268 40.8398Z" fill="#E8E8E8"/>
<path d="M36.2751 46.9833V47.8186H35.4391V46.9833H33.7666V45.7304H35.4391V44.6861C34.324 44.6861 33.7666 44.1016 33.7666 42.9321C33.7666 41.7627 34.324 41.1361 35.4391 41.1361V40.3008H36.2751V41.1361H37.9476V42.389H36.2751V43.4332C37.3898 43.4332 37.9476 44.0318 37.9476 45.2289C37.9476 46.4261 37.3902 46.9833 36.2751 46.9833ZM35.021 42.9321C35.021 43.2663 35.1604 43.4332 35.4391 43.4332V42.389C35.1604 42.389 35.021 42.5699 35.021 42.9318V42.9321ZM36.2751 44.6861V45.7304C36.5538 45.7304 36.6931 45.5635 36.6931 45.2293C36.6931 44.8674 36.5538 44.6865 36.2751 44.6865V44.6861Z" fill="#991220"/>
</svg>
