<svg width="289" height="255" viewBox="0 0 289 255" fill="none" xmlns="http://www.w3.org/2000/svg">
<g clip-path="url(#clip0_185_1451)">
<path d="M278.065 69.9153H190.566V78.1342H278.065V69.9153Z" fill="#ED8945"/>
<path d="M278.065 0.264893H190.566V72.5033H278.065V0.264893Z" fill="#FFAD6E"/>
<path d="M244.138 47.7383H224.491V72.5033H244.138V47.7383Z" fill="#FFC59E"/>
<path d="M244.138 0.264893H224.491V25.0299H244.138V0.264893Z" fill="#FFC59E"/>
<path fill-rule="evenodd" clip-rule="evenodd" d="M209.837 64.9745C209.837 64.9745 209.84 64.9904 209.837 64.9772V64.9745ZM208.857 66.9387H209.01C209.198 66.9407 209.381 66.8729 209.523 66.7484L209.774 66.373C209.829 66.3037 209.874 66.2272 209.909 66.1456C209.938 66.0745 209.938 65.9947 209.909 65.9236L209.557 65.2495L209.507 65.149L209.602 65.0882L209.766 64.9824L208.362 64.7181L207.915 66.0399L208.074 65.9368L208.18 65.8654L208.249 65.9738L208.857 66.9387ZM207.101 66.9387H208.563L208.101 66.2038L207.897 66.336H207.884C207.854 66.3414 207.824 66.3414 207.794 66.336C207.772 66.3336 207.75 66.3267 207.73 66.3158C207.711 66.3049 207.694 66.2902 207.68 66.2725C207.651 66.2376 207.635 66.1936 207.635 66.1483C207.636 66.0857 207.649 66.0238 207.672 65.9659L208.169 64.504L208.204 64.4035L208.309 64.422L209.824 64.7102C210.001 64.7472 210.088 64.8159 210.088 64.8952C210.094 64.9391 210.087 64.9836 210.067 65.0232C210.047 65.0628 210.016 65.0955 209.977 65.1173L209.843 65.2045L210.141 65.7808C210.172 65.8454 210.189 65.9153 210.192 65.9865C210.195 66.0577 210.184 66.1289 210.16 66.1958C210.119 66.3005 210.063 66.3985 209.993 66.4866L208.833 68.3371C208.779 68.4638 208.688 68.571 208.572 68.6443C208.456 68.7176 208.32 68.7534 208.182 68.7469H206.861V67.2083C206.837 66.9995 206.929 66.9493 207.101 66.9413V66.9387Z" fill="#85583C"/>
<path d="M204.307 63.6579C204.307 63.6579 204.318 63.6473 204.307 63.6579V63.6579ZM206.731 63.494L206.279 64.4536L206.501 64.5514H206.517C206.54 64.571 206.559 64.5954 206.573 64.6228C206.581 64.6433 206.586 64.6653 206.586 64.6876C206.586 64.7098 206.581 64.7318 206.573 64.7523C206.559 64.7956 206.53 64.8323 206.491 64.8554C206.438 64.8891 206.38 64.9124 206.319 64.9242L204.82 65.2943L204.714 65.3207L204.675 65.2202L204.101 63.7901C204.037 63.6209 204.051 63.5257 204.101 63.4649C204.134 63.4363 204.176 63.4185 204.22 63.4138C204.264 63.409 204.308 63.4176 204.347 63.4385L204.492 63.5046L204.817 62.9415C204.855 62.8811 204.904 62.8289 204.962 62.788C205.02 62.7472 205.086 62.7184 205.156 62.7035C205.266 62.6808 205.379 62.6746 205.491 62.685H207.527L206.588 62.9494L205.478 62.9256C205.391 62.9103 205.301 62.9103 205.214 62.9256C205.177 62.9327 205.142 62.9471 205.11 62.968C205.079 62.9889 205.052 63.0158 205.031 63.0472L204.653 63.7055L204.595 63.8033L204.492 63.7583L204.315 63.6764L204.844 64.9982L206.195 64.6651L206.02 64.5884L205.904 64.5355L205.957 64.4219L206.462 63.3459L206.731 63.494Z" fill="#85583C"/>
<path fill-rule="evenodd" clip-rule="evenodd" d="M207.437 64.8978L206.409 63.2931C206.356 63.2067 206.286 63.1321 206.203 63.0739C206.12 63.0157 206.027 62.9751 205.927 62.9547L206.607 62.73L207.707 62.6851C207.843 62.6606 207.983 62.6787 208.108 62.7369C208.234 62.7951 208.338 62.8905 208.407 63.0103L209.126 64.1391L207.831 64.9692C207.627 65.096 207.537 65.0458 207.437 64.9057V64.8978Z" fill="#85583C"/>
<path fill-rule="evenodd" clip-rule="evenodd" d="M205.822 69.0746C205.814 69.0693 205.806 69.0693 205.822 69.0746V69.0746ZM204.632 67.232L204.555 67.3642C204.46 67.5229 204.426 67.7107 204.458 67.8929L204.653 68.3C204.682 68.3812 204.724 68.4571 204.778 68.5247C204.801 68.555 204.83 68.5802 204.863 68.5988C204.896 68.6174 204.933 68.6291 204.971 68.6331L205.729 68.6728H205.84V68.7838V68.9821L206.781 67.9061L205.875 66.8487V67.039V67.1659H205.745L204.632 67.232ZM205.52 65.7199L204.78 66.9782L205.65 66.9545L205.637 66.7112V66.6795C205.642 66.6496 205.655 66.6215 205.674 66.5976C205.701 66.5617 205.741 66.538 205.785 66.5315C205.83 66.5256 205.875 66.5349 205.914 66.5579C205.968 66.5897 206.015 66.6319 206.052 66.6822L207.059 67.8506L207.13 67.9326L207.059 68.0145L206.044 69.1724C205.922 69.3046 205.824 69.3363 205.748 69.3125C205.707 69.2951 205.672 69.266 205.648 69.2287C205.624 69.1915 205.612 69.148 205.613 69.1037V68.9424L204.965 68.9081C204.894 68.9023 204.825 68.8823 204.762 68.8491C204.699 68.816 204.643 68.7704 204.598 68.7151C204.528 68.6269 204.472 68.5289 204.431 68.4243L203.429 66.4865C203.347 66.3764 203.3 66.2434 203.296 66.1057C203.291 65.968 203.33 65.8323 203.406 65.7173L204.08 64.5699L205.401 65.363C205.597 65.4608 205.594 65.5666 205.513 65.7252L205.52 65.7199Z" fill="#85583C"/>
<path d="M210.279 61.3871H203.186C202.946 61.3933 202.718 61.494 202.552 61.6672C202.385 61.8404 202.294 62.0722 202.298 62.3123V69.6906C202.294 69.9302 202.386 70.1614 202.552 70.3338C202.718 70.5062 202.946 70.6057 203.186 70.6105H210.279C210.518 70.6057 210.746 70.5061 210.912 70.3336C211.078 70.1612 211.169 69.9299 211.164 69.6906V62.3123C211.169 62.0725 211.078 61.8407 210.912 61.6674C210.746 61.4941 210.519 61.3933 210.279 61.3871ZM210.633 69.5822C210.635 69.7089 210.587 69.8313 210.5 69.9229C210.412 70.0145 210.292 70.0678 210.165 70.0712H203.292C203.165 70.0678 203.045 70.0145 202.957 69.9229C202.87 69.8313 202.822 69.7089 202.824 69.5822V62.4445C202.822 62.3816 202.833 62.3189 202.855 62.2602C202.878 62.2014 202.912 62.1478 202.956 62.1023C202.999 62.0568 203.051 62.0204 203.109 61.9952C203.167 61.97 203.229 61.9565 203.292 61.9555H210.165C210.228 61.9568 210.29 61.9706 210.347 61.9959C210.405 62.0212 210.457 62.0576 210.5 62.103C210.544 62.1485 210.578 62.202 210.601 62.2606C210.623 62.3192 210.634 62.3817 210.633 62.4445V69.5822Z" fill="#85583C"/>
<path d="M199.805 69.5346H195.187C195.144 69.5346 195.103 69.5177 195.073 69.4874C195.042 69.4572 195.025 69.4162 195.025 69.3734C195.025 69.3306 195.042 69.2896 195.073 69.2594C195.103 69.2291 195.144 69.2121 195.187 69.2121H199.805C199.848 69.2121 199.889 69.2291 199.919 69.2594C199.949 69.2896 199.966 69.3306 199.966 69.3734C199.966 69.4162 199.949 69.4572 199.919 69.4874C199.889 69.5177 199.848 69.5346 199.805 69.5346Z" fill="#85583C"/>
<path fill-rule="evenodd" clip-rule="evenodd" d="M196.789 63.7055V68.5274H195.811V63.7029L195.332 63.7003L196.321 62.4657L197.302 63.7055H196.789Z" fill="#85583C"/>
<path fill-rule="evenodd" clip-rule="evenodd" d="M199.187 63.7082V68.5301H198.211V63.7029H197.73L198.719 62.4684L199.699 63.7082H199.187Z" fill="#85583C"/>
<path d="M201.045 61.3871H193.952C193.712 61.3933 193.484 61.494 193.318 61.6672C193.152 61.8404 193.06 62.0722 193.064 62.3123V69.6906C193.06 69.9302 193.152 70.1614 193.318 70.3338C193.485 70.5062 193.713 70.6057 193.952 70.6105H201.045C201.284 70.6057 201.512 70.5061 201.678 70.3336C201.844 70.1612 201.935 69.9299 201.93 69.6906V62.3123C201.935 62.0725 201.844 61.8407 201.678 61.6674C201.512 61.4941 201.285 61.3933 201.045 61.3871ZM201.399 69.5822C201.401 69.7089 201.353 69.8313 201.266 69.9229C201.178 70.0145 201.058 70.0678 200.931 70.0712H194.058C193.931 70.0678 193.81 70.0146 193.722 69.9231C193.634 69.8316 193.586 69.7091 193.587 69.5822V62.4445C193.586 62.3815 193.597 62.3187 193.62 62.26C193.643 62.2012 193.677 62.1476 193.721 62.1021C193.765 62.0567 193.817 62.0203 193.875 61.9951C193.932 61.97 193.995 61.9565 194.058 61.9555H200.931C200.994 61.9568 201.056 61.9706 201.113 61.9959C201.171 62.0212 201.223 62.0576 201.266 62.103C201.31 62.1485 201.344 62.202 201.367 62.2606C201.389 62.3192 201.4 62.3817 201.399 62.4445V69.5822Z" fill="#85583C"/>
<path d="M219.513 61.3871H212.42C212.18 61.3933 211.952 61.494 211.786 61.6672C211.62 61.8404 211.528 62.0722 211.532 62.3123V69.6906C211.528 69.9302 211.62 70.1614 211.786 70.3338C211.953 70.5062 212.18 70.6057 212.42 70.6105H219.513C219.752 70.6057 219.98 70.5061 220.146 70.3336C220.312 70.1612 220.403 69.9299 220.398 69.6906V62.3123C220.403 62.0725 220.312 61.8407 220.146 61.6674C219.98 61.4941 219.753 61.3933 219.513 61.3871ZM219.867 69.5822C219.869 69.7089 219.821 69.8313 219.734 69.9229C219.646 70.0145 219.526 70.0678 219.399 70.0712H212.526C212.399 70.0678 212.279 70.0145 212.191 69.9229C212.104 69.8313 212.056 69.7089 212.058 69.5822V62.4445C212.056 62.3816 212.067 62.3189 212.09 62.2602C212.112 62.2014 212.146 62.1478 212.19 62.1023C212.233 62.0568 212.285 62.0204 212.343 61.9952C212.401 61.97 212.463 61.9565 212.526 61.9555H219.399C219.462 61.9568 219.524 61.9706 219.581 61.9959C219.639 62.0212 219.691 62.0576 219.734 62.103C219.778 62.1485 219.812 62.202 219.835 62.2606C219.857 62.3192 219.868 62.3817 219.867 62.4445V69.5822Z" fill="#85583C"/>
<path fill-rule="evenodd" clip-rule="evenodd" d="M215.923 63.7849C215.202 63.7859 214.503 64.0295 213.937 64.4765C213.372 64.9234 212.974 65.5477 212.806 66.2487C212.958 66.1169 213.155 66.0479 213.356 66.0557C213.697 66.0557 213.977 66.2249 214.004 66.439C214.038 66.2275 214.313 66.0636 214.651 66.0636C214.99 66.0636 215.273 66.2302 215.299 66.4443C215.333 66.2354 215.608 66.0689 215.947 66.0689C216.285 66.0689 216.568 66.2381 216.594 66.4522C216.629 66.2434 216.906 66.0768 217.242 66.0768C217.578 66.0768 217.869 66.2487 217.892 66.4681C217.914 66.2487 218.196 66.0768 218.54 66.0768C218.716 66.0729 218.889 66.1237 219.034 66.2222C218.863 65.5266 218.463 64.9084 217.899 64.4666C217.335 64.0248 216.639 63.7847 215.923 63.7849Z" fill="#85583C"/>
<path d="M216.116 63.6104C216.116 63.5711 216.1 63.5335 216.073 63.5057C216.045 63.478 216.007 63.4624 215.968 63.4624C215.929 63.4624 215.891 63.478 215.863 63.5057C215.835 63.5335 215.82 63.5711 215.82 63.6104V68.9901C215.82 69.0294 215.835 69.067 215.863 69.0948C215.891 69.1225 215.929 69.1381 215.968 69.1381C216.007 69.1381 216.045 69.1225 216.073 69.0948C216.1 69.067 216.116 69.0294 216.116 68.9901V63.6104Z" fill="#85583C"/>
<path d="M215.014 68.6331C215.042 68.6054 215.057 68.5677 215.058 68.5283C215.058 68.4889 215.043 68.451 215.015 68.423C214.987 68.3949 214.949 68.379 214.91 68.3788C214.871 68.3785 214.833 68.394 214.805 68.4217C214.661 68.5659 214.58 68.7612 214.58 68.9649C214.58 69.1686 214.661 69.364 214.805 69.5082C214.894 69.5985 215.004 69.6654 215.125 69.7029C215.247 69.7404 215.375 69.7472 215.5 69.7229C215.624 69.6986 215.741 69.6438 215.839 69.5634C215.938 69.483 216.014 69.3796 216.063 69.2623C216.101 69.1673 216.121 69.0659 216.121 68.9636C216.12 68.9241 216.104 68.8864 216.076 68.8587C216.048 68.8311 216.01 68.8155 215.97 68.8155C215.951 68.8155 215.932 68.8195 215.914 68.8271C215.896 68.8347 215.879 68.8459 215.866 68.86C215.852 68.8741 215.842 68.8907 215.835 68.909C215.828 68.9272 215.824 68.9467 215.825 68.9662C215.826 69.0294 215.813 69.0919 215.789 69.1501C215.764 69.2083 215.728 69.2608 215.682 69.3046C215.594 69.3924 215.474 69.4417 215.349 69.4417C215.225 69.4417 215.105 69.3924 215.016 69.3046C214.93 69.2153 214.881 69.0958 214.881 68.9715C214.882 68.9093 214.895 68.8479 214.919 68.7907C214.944 68.7335 214.979 68.6818 215.024 68.6384L215.014 68.6331Z" fill="#85583C"/>
<path d="M143.885 69.9153H101.392V78.1342H143.885V69.9153Z" fill="#ED8945"/>
<path d="M188.85 69.9153H146.471V78.1342H188.85V69.9153Z" fill="#ED8945"/>
<path d="M188.892 0.264893H101.392V72.5033H188.892V0.264893Z" fill="#FFAD6E"/>
<path d="M154.964 47.7383H135.317V72.5033H154.964V47.7383Z" fill="#FFC59E"/>
<path d="M154.964 0.264893H135.317V25.0299H154.964V0.264893Z" fill="#FFC59E"/>
<path fill-rule="evenodd" clip-rule="evenodd" d="M120.664 64.9745C120.664 64.9745 120.667 64.9904 120.664 64.9772V64.9745ZM119.683 66.9387H119.837C120.025 66.9411 120.207 66.8732 120.347 66.7484L120.611 66.373C120.666 66.3037 120.712 66.2272 120.746 66.1456C120.775 66.0745 120.775 65.9947 120.746 65.9236L120.395 65.2495L120.344 65.149L120.439 65.0882L120.603 64.9824L119.2 64.7181L118.753 66.0399L118.911 65.9368L119.017 65.8654L119.086 65.9738L119.683 66.9387ZM117.928 66.9387H119.387L118.927 66.2038L118.724 66.336H118.711H118.697C118.668 66.3414 118.637 66.3414 118.607 66.336C118.585 66.3336 118.564 66.3267 118.544 66.3158C118.525 66.3049 118.507 66.2902 118.494 66.2725C118.465 66.2376 118.449 66.1936 118.449 66.1483C118.448 66.0856 118.461 66.0234 118.486 65.9659L118.983 64.504L119.017 64.4035L119.123 64.422L120.638 64.7102C120.812 64.7472 120.889 64.8159 120.902 64.8952C120.908 64.9391 120.9 64.9836 120.881 65.0232C120.861 65.0628 120.83 65.0955 120.791 65.1173L120.656 65.2045L120.955 65.7808C120.985 65.8454 121.002 65.9153 121.006 65.9865C121.009 66.0577 120.998 66.1289 120.973 66.1958C120.933 66.3005 120.876 66.3985 120.807 66.4866L119.646 68.3371C119.593 68.4638 119.502 68.571 119.386 68.6443C119.269 68.7176 119.133 68.7534 118.996 68.7469H117.674V67.2083C117.658 66.9995 117.756 66.9493 117.923 66.9413L117.928 66.9387Z" fill="#85583C"/>
<path d="M115.134 63.6579C115.134 63.6579 115.145 63.6473 115.134 63.6579V63.6579ZM117.558 63.494L117.106 64.4536L117.328 64.5514H117.344C117.367 64.571 117.386 64.5954 117.4 64.6228C117.408 64.6433 117.413 64.6653 117.413 64.6876C117.413 64.7098 117.408 64.7318 117.4 64.7523C117.386 64.7956 117.357 64.8323 117.318 64.8554C117.264 64.8895 117.205 64.9128 117.143 64.9242L115.647 65.2943L115.541 65.3207L115.501 65.2202L114.925 63.7901C114.862 63.6209 114.878 63.5257 114.925 63.4649C114.959 63.4363 115 63.4185 115.044 63.4138C115.088 63.409 115.132 63.4176 115.171 63.4385L115.316 63.5046L115.642 62.9415C115.679 62.8811 115.728 62.8289 115.787 62.788C115.845 62.7472 115.91 62.7184 115.98 62.7035C116.09 62.6808 116.203 62.6746 116.316 62.685H118.351L117.413 62.9494L116.303 62.9256C116.215 62.9103 116.126 62.9103 116.038 62.9256C116.001 62.9327 115.966 62.9471 115.935 62.968C115.903 62.9889 115.876 63.0158 115.856 63.0472L115.478 63.7055L115.42 63.8033L115.316 63.7583L115.139 63.6764L115.668 64.9982L117.019 64.6651L116.844 64.5884L116.728 64.5355L116.781 64.4219L117.286 63.3459L117.558 63.494Z" fill="#85583C"/>
<path fill-rule="evenodd" clip-rule="evenodd" d="M118.264 64.8978L117.235 63.2931C117.182 63.207 117.112 63.1326 117.03 63.0745C116.947 63.0163 116.853 62.9756 116.754 62.9547L117.434 62.73L118.534 62.6851C118.67 62.6606 118.81 62.6787 118.935 62.7369C119.061 62.7951 119.165 62.8905 119.234 63.0103L119.953 64.1311L118.658 64.9612C118.454 65.0881 118.364 65.0379 118.264 64.8978Z" fill="#85583C"/>
<path fill-rule="evenodd" clip-rule="evenodd" d="M116.649 69.0746C116.649 69.0746 116.633 69.0693 116.649 69.0746V69.0746ZM115.451 67.232L115.372 67.3642C115.28 67.524 115.246 67.7109 115.277 67.8929L115.472 68.3C115.501 68.3811 115.543 68.457 115.596 68.5247C115.619 68.5556 115.648 68.5814 115.681 68.6001C115.714 68.6188 115.751 68.63 115.789 68.6331L116.548 68.6727H116.659V68.7838V68.982L117.603 67.9061L116.694 66.8487V67.039V67.1659H116.567L115.451 67.232ZM116.337 65.7251L115.596 66.9835L116.464 66.9597V66.7165V66.6848C116.469 66.6554 116.481 66.6275 116.498 66.6028C116.526 66.568 116.565 66.5445 116.609 66.5367C116.655 66.5307 116.701 66.54 116.741 66.5632C116.795 66.5949 116.842 66.6372 116.879 66.6874L117.886 67.8559L117.957 67.9378L117.886 68.0198L116.865 69.1618C116.744 69.294 116.646 69.3257 116.569 69.3019C116.529 69.2845 116.494 69.2553 116.47 69.2181C116.446 69.1809 116.434 69.1374 116.435 69.0931V68.9318L115.784 68.8974C115.714 68.8914 115.645 68.8712 115.582 68.838C115.519 68.8049 115.464 68.7594 115.419 68.7045C115.349 68.617 115.292 68.5188 115.253 68.4137L114.251 66.4759C114.168 66.3658 114.122 66.2327 114.117 66.095C114.113 65.9574 114.151 65.8217 114.227 65.7066L114.901 64.5593L116.223 65.3524C116.424 65.4608 116.421 65.5665 116.337 65.7251Z" fill="#85583C"/>
<path d="M121.095 61.3871H114.002C113.762 61.3933 113.534 61.4939 113.367 61.667C113.201 61.8402 113.109 62.072 113.112 62.3123V69.6906C113.109 69.9304 113.201 70.1617 113.368 70.334C113.535 70.5063 113.763 70.6057 114.002 70.6105H121.095C121.335 70.6057 121.562 70.5061 121.728 70.3336C121.894 70.1612 121.985 69.9299 121.981 69.6906V62.3123C121.985 62.0725 121.894 61.8407 121.729 61.6674C121.563 61.4941 121.335 61.3933 121.095 61.3871ZM121.449 69.5822C121.452 69.7089 121.404 69.8313 121.316 69.9229C121.228 70.0145 121.108 70.0678 120.982 70.0712H114.108C113.981 70.0678 113.861 70.0146 113.773 69.9231C113.685 69.8316 113.636 69.7091 113.638 69.5822V62.4445C113.636 62.3815 113.647 62.3187 113.67 62.26C113.693 62.2012 113.728 62.1476 113.771 62.1021C113.815 62.0567 113.867 62.0203 113.925 61.9951C113.983 61.97 114.045 61.9565 114.108 61.9555H120.982C121.044 61.9568 121.106 61.9706 121.164 61.9959C121.221 62.0212 121.273 62.0576 121.317 62.103C121.36 62.1485 121.394 62.202 121.417 62.2606C121.44 62.3192 121.451 62.3817 121.449 62.4445V69.5822Z" fill="#85583C"/>
<path d="M110.632 69.5346H106.027C105.984 69.5346 105.943 69.5177 105.913 69.4874C105.882 69.4572 105.865 69.4162 105.865 69.3734C105.865 69.3306 105.882 69.2896 105.913 69.2594C105.943 69.2291 105.984 69.2121 106.027 69.2121H110.645C110.688 69.2121 110.729 69.2291 110.759 69.2594C110.789 69.2896 110.806 69.3306 110.806 69.3734C110.806 69.4162 110.789 69.4572 110.759 69.4874C110.729 69.5177 110.688 69.5346 110.645 69.5346H110.632Z" fill="#85583C"/>
<path fill-rule="evenodd" clip-rule="evenodd" d="M107.616 63.7055V68.5274H106.637V63.7029L106.159 63.7003L107.148 62.4657L108.128 63.7055H107.616Z" fill="#85583C"/>
<path fill-rule="evenodd" clip-rule="evenodd" d="M110.013 63.7082V68.5301H109.035V63.7029H108.556L109.545 62.4684L110.526 63.7082H110.013Z" fill="#85583C"/>
<path d="M111.872 61.3871H104.779C104.538 61.3926 104.31 61.493 104.143 61.6663C103.976 61.8396 103.884 62.0718 103.888 62.3123V69.6906C103.885 69.9306 103.976 70.1623 104.143 70.3347C104.31 70.5072 104.539 70.6064 104.779 70.6105H111.872C112.111 70.6057 112.339 70.5061 112.505 70.3336C112.671 70.1612 112.762 69.9299 112.757 69.6906V62.3123C112.762 62.0725 112.671 61.8407 112.505 61.6674C112.339 61.4941 112.112 61.3933 111.872 61.3871ZM112.226 69.5822C112.228 69.7089 112.18 69.8313 112.092 69.9229C112.005 70.0145 111.885 70.0678 111.758 70.0712H104.885C104.758 70.0685 104.637 70.0155 104.548 69.9238C104.46 69.8322 104.412 69.7093 104.414 69.5822V62.4445C104.413 62.3815 104.424 62.3187 104.447 62.26C104.47 62.2012 104.504 62.1476 104.548 62.1021C104.591 62.0567 104.644 62.0203 104.702 61.9951C104.759 61.97 104.822 61.9565 104.885 61.9555H111.758C111.821 61.9568 111.883 61.9706 111.94 61.9959C111.998 62.0212 112.05 62.0576 112.093 62.103C112.137 62.1485 112.171 62.202 112.194 62.2606C112.216 62.3192 112.227 62.3817 112.226 62.4445V69.5822Z" fill="#85583C"/>
<path d="M130.348 61.3871H123.255C123.015 61.3933 122.787 61.4939 122.62 61.667C122.453 61.8402 122.361 62.072 122.364 62.3123V69.6906C122.361 69.9304 122.453 70.1617 122.62 70.334C122.787 70.5063 123.015 70.6057 123.255 70.6105H130.348C130.587 70.6057 130.815 70.5061 130.981 70.3336C131.147 70.1612 131.238 69.9299 131.233 69.6906V62.3123C131.238 62.0725 131.147 61.8407 130.981 61.6674C130.815 61.4941 130.587 61.3933 130.348 61.3871ZM130.702 69.5822C130.704 69.7089 130.656 69.8313 130.568 69.9229C130.481 70.0145 130.361 70.0678 130.234 70.0712H123.361C123.234 70.0678 123.113 70.0146 123.025 69.9231C122.937 69.8316 122.889 69.7091 122.89 69.5822V62.4445C122.889 62.3815 122.9 62.3187 122.923 62.26C122.946 62.2012 122.98 62.1476 123.024 62.1021C123.067 62.0567 123.12 62.0203 123.178 61.9951C123.235 61.97 123.298 61.9565 123.361 61.9555H130.234C130.297 61.9568 130.359 61.9706 130.416 61.9959C130.474 62.0212 130.526 62.0576 130.569 62.103C130.613 62.1485 130.647 62.202 130.67 62.2606C130.692 62.3192 130.703 62.3817 130.702 62.4445V69.5822Z" fill="#85583C"/>
<path fill-rule="evenodd" clip-rule="evenodd" d="M126.75 63.7849C126.028 63.7853 125.328 64.0293 124.762 64.4774C124.196 64.9255 123.799 65.5515 123.633 66.254C123.785 66.1222 123.982 66.0532 124.183 66.061C124.524 66.061 124.804 66.2302 124.831 66.4443C124.862 66.2328 125.14 66.0689 125.478 66.0689C125.817 66.0689 126.099 66.2354 126.126 66.4496C126.158 66.2407 126.435 66.0742 126.774 66.0742C127.112 66.0742 127.395 66.2434 127.421 66.4575C127.456 66.2487 127.731 66.0821 128.069 66.0821C128.407 66.0821 128.696 66.2539 128.719 66.4734C128.74 66.2539 129.023 66.0821 129.367 66.0821C129.543 66.0782 129.716 66.129 129.861 66.2275C129.689 65.5321 129.29 64.9142 128.726 64.4724C128.162 64.0307 127.466 63.7905 126.75 63.7901V63.7849Z" fill="#85583C"/>
<path d="M126.943 63.6104C126.943 63.5711 126.927 63.5335 126.899 63.5057C126.871 63.478 126.834 63.4624 126.795 63.4624C126.755 63.4624 126.717 63.4779 126.689 63.5056C126.661 63.5333 126.644 63.5709 126.644 63.6104V68.9901C126.644 69.0294 126.659 69.067 126.687 69.0948C126.715 69.1225 126.753 69.1381 126.792 69.1381C126.831 69.1381 126.869 69.1225 126.897 69.0948C126.924 69.067 126.94 69.0294 126.94 68.9901L126.943 63.6104Z" fill="#85583C"/>
<path d="M125.838 68.6332C125.852 68.6196 125.863 68.6034 125.87 68.5854C125.878 68.5675 125.882 68.5482 125.882 68.5287C125.882 68.5093 125.878 68.49 125.87 68.4721C125.863 68.4541 125.852 68.4379 125.838 68.4243C125.81 68.3967 125.772 68.3812 125.733 68.3812C125.694 68.3812 125.657 68.3967 125.629 68.4243C125.485 68.5685 125.404 68.7639 125.404 68.9676C125.404 69.1713 125.485 69.3666 125.629 69.5108C125.718 69.6012 125.828 69.6681 125.95 69.7056C126.071 69.743 126.199 69.7499 126.324 69.7256C126.449 69.7012 126.565 69.6464 126.664 69.5661C126.762 69.4857 126.839 69.3823 126.887 69.265C126.925 69.17 126.945 69.0686 126.945 68.9663C126.945 68.9268 126.929 68.8891 126.9 68.8614C126.872 68.8337 126.834 68.8182 126.795 68.8182C126.755 68.8189 126.718 68.8351 126.69 68.8633C126.662 68.8915 126.647 68.9294 126.647 68.9689C126.648 69.0323 126.637 69.0954 126.612 69.154C126.587 69.2113 126.551 69.2633 126.507 69.3073C126.418 69.3951 126.298 69.4444 126.173 69.4444C126.049 69.4444 125.929 69.3951 125.84 69.3073C125.753 69.2187 125.703 69.099 125.703 68.9742C125.703 68.8494 125.753 68.7297 125.84 68.6411L125.838 68.6332Z" fill="#85583C"/>
<path d="M99.6771 69.9153H12.1772V78.1342H99.6771V69.9153Z" fill="#ED8945"/>
<path d="M99.6771 0.264893H12.1772V72.5033H99.6771V0.264893Z" fill="#FFAD6E"/>
<path d="M65.7491 47.7383H46.1021V72.5033H65.7491V47.7383Z" fill="#FFC59E"/>
<path d="M65.7491 0.264893H46.1021V25.0299H65.7491V0.264893Z" fill="#FFC59E"/>
<path fill-rule="evenodd" clip-rule="evenodd" d="M31.446 64.9745C31.446 64.9745 31.4486 64.9904 31.446 64.9772V64.9745ZM30.4679 66.9387H30.6186C30.8073 66.9417 30.9903 66.8738 31.1314 66.7484L31.3957 66.373C31.4509 66.3042 31.4955 66.2276 31.5279 66.1456C31.544 66.1108 31.5524 66.0729 31.5524 66.0346C31.5524 65.9962 31.544 65.9584 31.5279 65.9236L31.179 65.2495L31.1261 65.149L31.2213 65.0882L31.3878 64.9824L29.9841 64.7181L29.5373 66.0399L29.6959 65.9368L29.8017 65.8654L29.8704 65.9738L30.4679 66.9387ZM28.7125 66.9387H30.1718L29.7092 66.2038L29.5083 66.336H29.4924C29.4636 66.3415 29.4339 66.3415 29.4051 66.336C29.3596 66.3307 29.3179 66.3079 29.2888 66.2725C29.2608 66.2372 29.2459 66.1933 29.2466 66.1483C29.2461 66.0856 29.2587 66.0234 29.2835 65.9659L29.7806 64.504L29.8149 64.4035L29.9207 64.422L31.4354 64.7102C31.6099 64.7472 31.6866 64.8159 31.6998 64.8952C31.7055 64.9391 31.698 64.9836 31.6782 65.0232C31.6584 65.0628 31.6272 65.0955 31.5887 65.1173L31.4539 65.2045L31.7527 65.7808C31.7829 65.8454 31.8001 65.9153 31.8033 65.9865C31.8064 66.0577 31.7955 66.1289 31.7712 66.1958C31.7294 66.3 31.6733 66.3979 31.6046 66.4866L30.4441 68.3371C30.3902 68.464 30.2987 68.5713 30.1819 68.6446C30.0652 68.7178 29.9288 68.7535 29.7911 68.7469H28.4694V67.2083C28.4482 66.9995 28.5381 66.9493 28.7125 66.9413V66.9387Z" fill="#85583C"/>
<path d="M25.9158 63.6579C25.9158 63.6579 25.9264 63.6473 25.9264 63.6579H25.9158ZM28.3426 63.494L27.8905 64.4536L28.11 64.5514H28.1285C28.1518 64.5711 28.1707 64.5954 28.184 64.6228C28.1926 64.6433 28.1971 64.6653 28.1971 64.6876C28.1971 64.7098 28.1926 64.7319 28.184 64.7524C28.1692 64.7951 28.1403 64.8314 28.102 64.8555C28.0489 64.8895 27.9897 64.9129 27.9276 64.9242L26.4313 65.2943L26.3255 65.3207L26.2859 65.2203L25.7096 63.7901C25.6461 63.6209 25.662 63.5257 25.7096 63.4649C25.7431 63.4363 25.7846 63.4185 25.8285 63.4138C25.8723 63.4091 25.9166 63.4177 25.9555 63.4385L26.1008 63.5046L26.4233 62.9415C26.4611 62.8809 26.5109 62.8285 26.5695 62.7876C26.6281 62.7467 26.6944 62.7181 26.7644 62.7036C26.8738 62.6808 26.9861 62.6746 27.0975 62.6851H29.1356L28.1972 62.9494L27.0869 62.9256C26.9994 62.9103 26.91 62.9103 26.8225 62.9256C26.7854 62.9325 26.7502 62.9468 26.7188 62.9677C26.6874 62.9886 26.6607 63.0157 26.6401 63.0472L26.2595 63.7055L26.204 63.8033L26.1008 63.7584L25.9211 63.6764L26.4498 64.9982L27.798 64.6651L27.6262 64.5885L27.5099 64.5356L27.5627 64.4219L28.0677 63.346L28.3426 63.494Z" fill="#85583C"/>
<path fill-rule="evenodd" clip-rule="evenodd" d="M29.0483 64.8978L28.0173 63.2931C27.9647 63.2071 27.8952 63.1327 27.8129 63.0746C27.7306 63.0164 27.6374 62.9756 27.5388 62.9547L28.2182 62.73L29.3179 62.6851C29.454 62.6606 29.5943 62.6787 29.7196 62.7369C29.845 62.7951 29.9494 62.8905 30.0185 63.0103L30.7349 64.1311L29.4422 64.9612C29.2386 65.0881 29.1487 65.0379 29.0483 64.8978Z" fill="#85583C"/>
<path fill-rule="evenodd" clip-rule="evenodd" d="M27.4303 69.0746C27.4303 69.0746 27.4171 69.0693 27.4303 69.0746V69.0746ZM26.2327 67.232L26.1561 67.3642C26.0639 67.524 26.0302 67.711 26.0609 67.8929L26.2566 68.3C26.2873 68.3809 26.3301 68.4566 26.3835 68.5247C26.4056 68.5554 26.4341 68.5809 26.4669 68.5996C26.4997 68.6183 26.5362 68.6297 26.5738 68.6331L27.3325 68.6728H27.4462V68.7838V68.9821L28.3873 67.9061L27.4805 66.8487V67.039V67.1659H27.3536L26.2327 67.232ZM27.1237 65.7199L26.3835 66.9782L27.2506 66.9545V66.7112V66.6795C27.2584 66.6504 27.2709 66.6227 27.2875 66.5976C27.3152 66.5627 27.3548 66.5392 27.3986 66.5315C27.4444 66.5254 27.4909 66.5347 27.5308 66.5579C27.584 66.5904 27.6306 66.6325 27.6683 66.6822L28.6754 67.8506L28.7468 67.9326L28.6754 68.0145L27.6603 69.1724C27.5387 69.3046 27.4409 69.3363 27.3642 69.3125C27.3235 69.2951 27.2889 69.266 27.2649 69.2287C27.2409 69.1915 27.2285 69.148 27.2294 69.1037V68.9424L26.5791 68.9081C26.5084 68.902 26.4397 68.8818 26.3771 68.8486C26.3144 68.8155 26.2591 68.7701 26.2143 68.7151C26.1437 68.6276 26.0874 68.5294 26.0477 68.4243L25.0458 66.4865C24.9631 66.3764 24.9164 66.2434 24.9122 66.1057C24.9079 65.968 24.9463 65.8323 25.022 65.7173L25.6961 64.5699L27.0179 65.363C27.2082 65.4608 27.2056 65.5666 27.1237 65.7252V65.7199Z" fill="#85583C"/>
<path d="M31.8899 61.3871H24.7972C24.5567 61.3926 24.3281 61.493 24.1613 61.6663C23.9944 61.8396 23.9028 62.0718 23.9063 62.3123V69.6906C23.9028 69.9306 23.9946 70.1623 24.1616 70.3347C24.3286 70.5072 24.5572 70.6064 24.7972 70.6105H31.8899C32.1293 70.6057 32.3569 70.5061 32.5229 70.3336C32.6889 70.1612 32.7798 69.9299 32.7755 69.6906V62.3123C32.7798 62.0725 32.6891 61.8407 32.5232 61.6674C32.3573 61.4941 32.1298 61.3933 31.8899 61.3871ZM32.2441 69.5822C32.2456 69.7087 32.1974 69.8307 32.11 69.9222C32.0225 70.0136 31.9027 70.0671 31.7762 70.0712H24.9029C24.7758 70.0685 24.6549 70.0155 24.5667 69.9238C24.4786 69.8322 24.4303 69.7093 24.4324 69.5822V62.4445C24.431 62.3815 24.4421 62.3187 24.465 62.26C24.4879 62.2012 24.5222 62.1476 24.566 62.1021C24.6097 62.0567 24.662 62.0203 24.7198 61.9951C24.7777 61.97 24.8399 61.9565 24.9029 61.9555H31.7762C31.9029 61.9589 32.0231 62.0122 32.1107 62.1038C32.1983 62.1954 32.2463 62.3178 32.2441 62.4445V69.5822Z" fill="#85583C"/>
<path d="M21.416 69.5346H16.7977C16.7549 69.5346 16.7139 69.5177 16.6837 69.4874C16.6534 69.4572 16.6365 69.4162 16.6365 69.3734C16.6365 69.3306 16.6534 69.2896 16.6837 69.2594C16.7139 69.2291 16.7549 69.2121 16.7977 69.2121H21.416C21.4588 69.2121 21.4998 69.2291 21.5301 69.2594C21.5603 69.2896 21.5773 69.3306 21.5773 69.3734C21.5773 69.4162 21.5603 69.4572 21.5301 69.4874C21.4998 69.5177 21.4588 69.5346 21.416 69.5346Z" fill="#85583C"/>
<path fill-rule="evenodd" clip-rule="evenodd" d="M18.4002 63.7055V68.5274H17.4221V63.7029L16.9436 63.7003L17.9297 62.4657L18.9131 63.7055H18.4002Z" fill="#85583C"/>
<path fill-rule="evenodd" clip-rule="evenodd" d="M20.7977 63.7082V68.5301H19.8196V63.7029H19.3411L20.3298 62.4684L21.3105 63.7082H20.7977Z" fill="#85583C"/>
<path d="M22.6561 61.3871H15.5634C15.3229 61.3926 15.0943 61.493 14.9274 61.6663C14.7605 61.8396 14.6689 62.0718 14.6725 62.3123V69.6906C14.6689 69.9306 14.7607 70.1623 14.9277 70.3347C15.0947 70.5072 15.3233 70.6064 15.5634 70.6105H22.6561C22.775 70.6088 22.8925 70.5836 23.0017 70.5364C23.1109 70.4892 23.2097 70.4209 23.2925 70.3355C23.3753 70.25 23.4403 70.1491 23.484 70.0384C23.5277 69.9277 23.5491 69.8095 23.547 69.6906V62.3123C23.5512 62.0725 23.4606 61.8407 23.2947 61.6674C23.1288 61.4941 22.9012 61.3933 22.6613 61.3871H22.6561ZM23.0103 69.5822C23.0118 69.7087 22.9636 69.8307 22.8761 69.9222C22.7887 70.0136 22.6689 70.0671 22.5424 70.0712H15.6691C15.5419 70.0685 15.4211 70.0155 15.3329 69.9238C15.2447 69.8322 15.1964 69.7093 15.1985 69.5822V62.4445C15.1971 62.3815 15.2082 62.3187 15.2311 62.26C15.254 62.2012 15.2884 62.1476 15.3321 62.1021C15.3759 62.0567 15.4282 62.0203 15.486 61.9951C15.5438 61.97 15.606 61.9565 15.6691 61.9555H22.5424C22.6691 61.9589 22.7893 62.0122 22.8769 62.1038C22.9645 62.1954 23.0125 62.3178 23.0103 62.4445V69.5822Z" fill="#85583C"/>
<path d="M41.1243 61.3871H34.0316C33.7911 61.3926 33.5625 61.493 33.3957 61.6663C33.2288 61.8396 33.1372 62.0718 33.1407 62.3123V69.6906C33.1372 69.9306 33.229 70.1623 33.396 70.3347C33.563 70.5072 33.7915 70.6064 34.0316 70.6105H41.1243C41.3637 70.6057 41.5913 70.5061 41.7573 70.3336C41.9234 70.1612 42.0142 69.9299 42.0099 69.6906V62.3123C42.0142 62.0725 41.9235 61.8407 41.7577 61.6674C41.5918 61.4941 41.3641 61.3933 41.1243 61.3871ZM41.4786 69.5822C41.48 69.7087 41.4319 69.8307 41.3444 69.9222C41.2569 70.0136 41.1371 70.0671 41.0107 70.0712H34.1374C34.0102 70.0685 33.8893 70.0155 33.8012 69.9238C33.713 69.8322 33.6647 69.7093 33.6668 69.5822V62.4445C33.6654 62.3815 33.6765 62.3187 33.6994 62.26C33.7223 62.2012 33.7566 62.1476 33.8003 62.1021C33.8441 62.0567 33.8964 62.0203 33.9542 61.9951C34.012 61.97 34.0743 61.9565 34.1374 61.9555H41.0107C41.1373 61.9589 41.2575 62.0122 41.3451 62.1038C41.4327 62.1954 41.4807 62.3178 41.4786 62.4445V69.5822Z" fill="#85583C"/>
<path fill-rule="evenodd" clip-rule="evenodd" d="M37.5342 63.7849C36.8133 63.785 36.1134 64.0283 35.5478 64.4753C34.9823 64.9224 34.584 65.5472 34.4175 66.2487C34.5696 66.1169 34.7662 66.0479 34.9673 66.0557C35.3083 66.0557 35.5885 66.2249 35.615 66.439C35.6467 66.2275 35.9243 66.0636 36.2627 66.0636C36.6011 66.0636 36.8839 66.2302 36.9104 66.4443C36.9421 66.2354 37.2196 66.0689 37.558 66.0689C37.8964 66.0689 38.1792 66.2381 38.2057 66.4522C38.2374 66.2434 38.515 66.0768 38.8533 66.0768C39.1917 66.0768 39.4799 66.2487 39.5011 66.4681C39.5249 66.2487 39.8051 66.0768 40.1514 66.0768C40.3264 66.0729 40.4983 66.1237 40.6431 66.2222C40.4722 65.5268 40.073 64.9087 39.5094 64.4668C38.9458 64.025 38.2504 63.7849 37.5342 63.7849Z" fill="#85583C"/>
<path d="M37.7245 63.6104C37.7245 63.5711 37.709 63.5335 37.6812 63.5057C37.6534 63.478 37.6158 63.4624 37.5765 63.4624C37.5373 63.4624 37.4996 63.478 37.4718 63.5057C37.4441 63.5335 37.4285 63.5711 37.4285 63.6104V68.9901C37.4285 69.0294 37.4441 69.067 37.4718 69.0948C37.4996 69.1225 37.5373 69.1381 37.5765 69.1381C37.6158 69.1381 37.6534 69.1225 37.6812 69.0948C37.709 69.067 37.7245 69.0294 37.7245 68.9901V63.6104Z" fill="#85583C"/>
<path d="M36.6222 68.6331C36.6498 68.6054 36.6653 68.5678 36.6653 68.5287C36.6653 68.4896 36.6498 68.452 36.6222 68.4243C36.594 68.3965 36.5561 68.381 36.5165 68.381C36.4769 68.381 36.4389 68.3965 36.4107 68.4243C36.2998 68.53 36.2231 68.6664 36.1904 68.8161C36.1578 68.9659 36.1708 69.1219 36.2277 69.2642C36.2846 69.4064 36.3828 69.5284 36.5097 69.6143C36.6365 69.7002 36.7862 69.7461 36.9394 69.7461C37.0402 69.7471 37.1402 69.7282 37.2336 69.6906C37.3271 69.6529 37.4121 69.5972 37.484 69.5267C37.5584 69.4514 37.6161 69.3614 37.6533 69.2623C37.6938 69.168 37.7136 69.0662 37.7114 68.9636C37.7114 68.9243 37.6958 68.8867 37.668 68.8589C37.6403 68.8311 37.6026 68.8155 37.5633 68.8155C37.5238 68.8162 37.4862 68.8324 37.4585 68.8606C37.4308 68.8888 37.4153 68.9267 37.4153 68.9662C37.417 69.0293 37.4054 69.092 37.3813 69.1503C37.3571 69.2086 37.321 69.2612 37.2752 69.3046C37.2309 69.3481 37.1784 69.3824 37.1208 69.4056C37.0632 69.4287 37.0015 69.4402 36.9394 69.4394C36.8778 69.4393 36.8168 69.4268 36.7601 69.4027C36.7033 69.3787 36.652 69.3435 36.609 69.2993C36.5212 69.2107 36.4719 69.091 36.4719 68.9662C36.4719 68.8415 36.5212 68.7217 36.609 68.6331H36.6222Z" fill="#85583C"/>
<path d="M288.18 248.545H0.614014V254.395H288.18V248.545Z" fill="#F8CE84"/>
<path d="M288.18 219.772H0.614014V225.622H288.18V219.772Z" fill="#F8CE84"/>
<path d="M162.023 225.622H126.771V248.545H162.023V225.622Z" fill="#F09E5B"/>
<path d="M38.5124 225.622H3.26025V248.545H38.5124V225.622Z" fill="#F09E5B"/>
<path d="M285.534 225.622H250.281V248.545H285.534V225.622Z" fill="#F09E5B"/>
<path d="M143.886 74.0261H12.1772V219.772H143.886V74.0261Z" fill="#FFAD6E"/>
<path d="M92.8169 182.492H63.2432V219.772H92.8169V182.492Z" fill="#FFC59E"/>
<path d="M92.8169 74.0261H63.2432V123.873H92.8169V74.0261Z" fill="#FFC59E"/>
<path fill-rule="evenodd" clip-rule="evenodd" d="M41.1849 208.442C41.1849 208.442 41.1875 208.463 41.1849 208.442V208.442ZM39.7098 211.4H39.9371C40.2208 211.403 40.4955 211.301 40.709 211.114L41.0898 210.548C41.173 210.444 41.2407 210.328 41.2907 210.205C41.3129 210.152 41.3244 210.095 41.3244 210.038C41.3244 209.981 41.3129 209.924 41.2907 209.872L40.762 208.857L40.6853 208.706L40.828 208.613L41.0765 208.452L38.9617 208.05L38.2902 210.033L38.5281 209.874L38.6894 209.769L38.7924 209.933L39.7098 211.4ZM37.0662 211.4H39.2657L38.5704 210.295L38.2664 210.493L38.2426 210.509H38.2241C38.1811 210.525 38.1348 210.53 38.0893 210.525C38.0223 210.517 37.9608 210.484 37.9175 210.432C37.8748 210.378 37.8515 210.311 37.8514 210.242C37.8532 210.151 37.872 210.061 37.9069 209.977L38.655 207.778L38.7079 207.625L38.8665 207.654L41.1453 208.087C41.4096 208.143 41.5259 208.246 41.5524 208.352C41.5613 208.417 41.5502 208.484 41.5205 208.544C41.4908 208.603 41.4438 208.652 41.3858 208.685H41.3726L41.169 208.814L41.6211 209.684C41.6672 209.78 41.6932 209.885 41.6977 209.992C41.7023 210.099 41.6852 210.205 41.6475 210.305C41.5873 210.464 41.5025 210.612 41.3964 210.744L39.6516 213.522C39.5715 213.714 39.4344 213.876 39.2589 213.987C39.0834 214.097 38.8781 214.151 38.6708 214.141H36.667V211.825C36.6696 211.487 36.8071 211.413 37.0662 211.4Z" fill="#85583C"/>
<path d="M32.8525 206.456C32.8525 206.456 32.8763 206.44 32.8604 206.456H32.8525ZM36.5006 206.21L35.8239 207.656L36.1543 207.804H36.1781H36.1967C36.2316 207.833 36.2604 207.868 36.2812 207.908C36.3114 207.968 36.3171 208.038 36.2971 208.103C36.2749 208.169 36.2311 208.225 36.1728 208.262C36.092 208.312 36.0023 208.346 35.9085 208.362L33.6561 208.92L33.4975 208.96L33.4367 208.809L32.5696 206.657C32.4744 206.393 32.4982 206.25 32.5696 206.165C32.6208 206.122 32.6835 206.096 32.7499 206.089C32.8163 206.082 32.8834 206.095 32.9424 206.126L33.1618 206.226L33.6509 205.378C33.7072 205.286 33.7814 205.207 33.8691 205.146C33.9568 205.084 34.0561 205.04 34.161 205.018C34.327 204.983 34.4975 204.975 34.666 204.994H37.7299L36.3182 205.404L34.6475 205.37C34.5179 205.357 34.387 205.362 34.2589 205.386C34.1502 205.411 34.0556 205.477 33.9945 205.571L33.4262 206.562L33.3389 206.71L33.1856 206.641L32.9212 206.52L33.7143 208.513L35.7472 208.011L35.4828 207.894L35.3057 207.815L35.3877 207.643L36.149 206.025L36.5006 206.21Z" fill="#85583C"/>
<path fill-rule="evenodd" clip-rule="evenodd" d="M37.5738 208.322L36.022 205.906C35.9428 205.777 35.8379 205.665 35.7137 205.578C35.5896 205.49 35.4489 205.429 35.3003 205.399L36.3234 205.06L37.9783 204.992C38.1837 204.955 38.3956 204.982 38.5849 205.07C38.7742 205.158 38.9316 205.302 39.0357 205.483L40.1169 207.17L38.166 208.42C37.8619 208.611 37.7271 208.537 37.5764 208.322H37.5738Z" fill="#85583C"/>
<path fill-rule="evenodd" clip-rule="evenodd" d="M35.1444 214.609C35.1444 214.609 35.118 214.604 35.1391 214.609H35.1444ZM33.3415 211.838L33.2278 212.037C33.0819 212.279 33.0301 212.567 33.0824 212.846L33.3785 213.461C33.4247 213.583 33.4888 213.697 33.5688 213.8C33.6034 213.845 33.6467 213.882 33.6963 213.91C33.7458 213.938 33.8005 213.955 33.857 213.961L34.999 214.022H35.1682V214.191L35.1814 214.487L36.5984 212.869L35.2343 211.283L35.2475 211.569V211.762H35.0545L33.3415 211.838ZM34.6818 209.562L33.5688 211.455L34.8748 211.418L34.8563 211.053V211.027V211.006C34.8653 210.961 34.8842 210.92 34.9118 210.884C34.952 210.83 35.0117 210.793 35.0784 210.781C35.1461 210.772 35.2149 210.786 35.274 210.821C35.3554 210.869 35.4263 210.932 35.4828 211.008L36.9975 212.766L37.106 212.89L36.9975 213.012L35.4696 214.757C35.2872 214.958 35.1391 215.005 35.0228 214.968C34.9617 214.942 34.91 214.898 34.8741 214.842C34.8383 214.786 34.8201 214.72 34.8219 214.654V214.638V214.397L33.8464 214.344C33.7394 214.335 33.6355 214.304 33.5407 214.253C33.4458 214.203 33.3619 214.134 33.2939 214.051C33.1892 213.919 33.1053 213.772 33.0454 213.615L31.5359 210.707C31.4052 210.542 31.3293 210.341 31.3189 210.131C31.3084 209.921 31.364 209.713 31.4778 209.536L32.4956 207.81L34.4914 208.983C34.8034 209.174 34.7981 209.33 34.6765 209.562H34.6818Z" fill="#85583C"/>
<path d="M41.8512 203.038H31.1738C30.8127 203.047 30.4696 203.198 30.2192 203.458C29.9688 203.719 29.8311 204.067 29.8361 204.429V215.532C29.8304 215.893 29.9679 216.241 30.2186 216.502C30.4692 216.762 30.8127 216.912 31.1738 216.919H41.8512C42.2097 216.908 42.5495 216.757 42.7969 216.497C43.0443 216.237 43.1794 215.89 43.1729 215.532V204.429C43.1787 204.07 43.0435 203.723 42.7963 203.463C42.5491 203.203 42.2097 203.05 41.8512 203.038ZM42.3799 215.362C42.3814 215.553 42.3084 215.736 42.1765 215.873C42.0446 216.011 41.8643 216.091 41.6741 216.097H31.3456C31.1549 216.092 30.9737 216.013 30.8416 215.875C30.7094 215.737 30.6369 215.553 30.6398 215.362V204.611C30.6373 204.516 30.6536 204.422 30.6878 204.333C30.7221 204.245 30.7735 204.164 30.8391 204.095C30.9047 204.027 30.9832 203.972 31.0701 203.934C31.1571 203.896 31.2507 203.875 31.3456 203.873H41.6794C41.8705 203.878 42.052 203.959 42.1843 204.097C42.3165 204.235 42.3887 204.42 42.3852 204.611L42.3799 215.362Z" fill="#85583C"/>
<path d="M26.0849 215.304H19.1323C19.0718 215.298 19.0158 215.27 18.9751 215.224C18.9344 215.179 18.9119 215.121 18.9119 215.06C18.9119 214.999 18.9344 214.94 18.9751 214.895C19.0158 214.85 19.0718 214.822 19.1323 214.815H26.0849C26.1191 214.812 26.1537 214.815 26.1865 214.826C26.2192 214.837 26.2493 214.854 26.2749 214.877C26.3005 214.9 26.3209 214.928 26.3349 214.96C26.3489 214.991 26.3562 215.025 26.3562 215.06C26.3562 215.094 26.3489 215.128 26.3349 215.16C26.3209 215.191 26.3005 215.219 26.2749 215.242C26.2493 215.265 26.2192 215.283 26.1865 215.294C26.1537 215.304 26.1191 215.308 26.0849 215.304Z" fill="#85583C"/>
<path fill-rule="evenodd" clip-rule="evenodd" d="M21.5433 206.528V213.787H20.0735V206.522L19.3518 206.52L20.8375 204.661L22.3153 206.53L21.5433 206.528Z" fill="#85583C"/>
<path fill-rule="evenodd" clip-rule="evenodd" d="M25.1541 206.53V213.792H23.6817V206.528L22.96 206.525L24.4483 204.666L25.9261 206.533L25.1541 206.53Z" fill="#85583C"/>
<path d="M27.951 203.038H17.2736C16.9125 203.047 16.5695 203.198 16.3191 203.458C16.0686 203.719 15.931 204.067 15.936 204.429V215.532C15.9303 215.893 16.0678 216.241 16.3185 216.502C16.5691 216.762 16.9125 216.912 17.2736 216.919H27.951C28.3096 216.908 28.6493 216.757 28.8967 216.497C29.1441 216.237 29.2792 215.89 29.2728 215.532V204.429C29.2786 204.07 29.1433 203.723 28.8961 203.463C28.649 203.203 28.3096 203.05 27.951 203.038ZM28.4797 215.362C28.4812 215.553 28.4082 215.736 28.2764 215.873C28.1445 216.011 27.9642 216.091 27.7739 216.097H17.4401C17.2494 216.092 17.0683 216.013 16.9361 215.875C16.804 215.737 16.7315 215.553 16.7343 215.362V204.611C16.7319 204.516 16.7482 204.422 16.7824 204.333C16.8166 204.245 16.868 204.164 16.9336 204.095C16.9992 204.027 17.0778 203.972 17.1647 203.934C17.2517 203.896 17.3453 203.875 17.4401 203.873H27.7766C27.9678 203.878 28.1493 203.959 28.2815 204.097C28.4138 204.235 28.4859 204.42 28.4824 204.611L28.4797 215.362Z" fill="#85583C"/>
<path d="M55.751 203.038H45.0735C44.7122 203.047 44.3689 203.198 44.1181 203.458C43.8672 203.719 43.729 204.067 43.7333 204.429V215.532C43.7283 215.893 43.8664 216.242 44.1175 216.502C44.3686 216.762 44.7122 216.912 45.0735 216.919H55.751C56.1095 216.908 56.4493 216.757 56.6967 216.497C56.9441 216.237 57.0792 215.89 57.0728 215.532V204.429C57.0785 204.07 56.9432 203.723 56.696 203.463C56.4489 203.203 56.1095 203.05 55.751 203.038ZM56.2797 215.362C56.2812 215.553 56.2082 215.736 56.0763 215.873C55.9445 216.011 55.7641 216.091 55.5738 216.097H45.2401C45.0491 216.092 44.8677 216.013 44.7351 215.875C44.6026 215.738 44.5294 215.553 44.5316 215.362V204.611C44.5295 204.516 44.5462 204.422 44.5807 204.333C44.6152 204.244 44.6669 204.164 44.7327 204.095C44.7985 204.027 44.8772 203.972 44.9643 203.934C45.0513 203.896 45.1451 203.875 45.2401 203.873H55.5738C55.765 203.878 55.9466 203.959 56.0788 204.097C56.211 204.235 56.2832 204.42 56.2797 204.611V215.362Z" fill="#85583C"/>
<path fill-rule="evenodd" clip-rule="evenodd" d="M50.3479 206.646C49.2636 206.646 48.211 207.011 47.3596 207.683C46.5083 208.354 45.908 209.293 45.6555 210.347C45.884 210.148 46.1801 210.044 46.483 210.057C46.9958 210.057 47.4162 210.321 47.4585 210.633C47.506 210.316 47.9237 210.07 48.4313 210.07C48.9388 210.07 49.3672 210.334 49.4068 210.644C49.457 210.326 49.8747 210.08 50.3823 210.08C50.8898 210.08 51.3181 210.345 51.3577 210.657C51.408 210.339 51.8256 210.091 52.3332 210.091C52.8408 210.091 53.277 210.355 53.3087 210.678C53.3431 210.35 53.7687 210.091 54.2868 210.091C54.5514 210.084 54.8113 210.161 55.0297 210.31C54.772 209.263 54.1709 208.332 53.3222 207.667C52.4736 207.001 51.4264 206.639 50.3479 206.638V206.646Z" fill="#85583C"/>
<path d="M50.6356 206.403C50.639 206.372 50.6357 206.34 50.6261 206.31C50.6164 206.28 50.6006 206.252 50.5795 206.229C50.5584 206.205 50.5326 206.187 50.5038 206.174C50.475 206.161 50.4438 206.154 50.4122 206.154C50.3806 206.154 50.3494 206.161 50.3206 206.174C50.2918 206.187 50.266 206.205 50.2449 206.229C50.2238 206.252 50.208 206.28 50.1983 206.31C50.1886 206.34 50.1854 206.372 50.1888 206.403V214.498C50.1948 214.553 50.2209 214.604 50.2621 214.641C50.3034 214.678 50.3568 214.698 50.4122 214.698C50.4676 214.698 50.521 214.678 50.5623 214.641C50.6035 214.604 50.6296 214.553 50.6356 214.498V206.403Z" fill="#85583C"/>
<path d="M48.9755 213.953C49.0002 213.934 49.0205 213.909 49.035 213.881C49.0495 213.853 49.058 213.822 49.0598 213.791C49.0617 213.759 49.0569 213.728 49.0457 213.698C49.0346 213.669 49.0173 213.642 48.9951 213.619C48.9728 213.597 48.9461 213.579 48.9167 213.568C48.8873 213.557 48.8558 213.552 48.8243 213.553C48.7928 213.555 48.7619 213.563 48.7337 213.577C48.7056 213.592 48.6808 213.612 48.6609 213.636C48.5528 213.742 48.4667 213.869 48.4075 214.009C48.3483 214.149 48.3172 214.299 48.316 214.45C48.3147 214.602 48.3434 214.752 48.4003 214.893C48.4572 215.034 48.5413 215.162 48.6477 215.27C48.7541 215.378 48.8808 215.464 49.0205 215.523C49.1602 215.582 49.3101 215.614 49.4618 215.615C49.6135 215.616 49.764 215.587 49.9046 215.53C50.0452 215.473 50.1733 215.389 50.2814 215.283C50.3928 215.175 50.4809 215.046 50.5405 214.902C50.6 214.759 50.6297 214.605 50.6277 214.45C50.6217 214.395 50.5956 214.344 50.5544 214.307C50.5132 214.27 50.4597 214.25 50.4044 214.25C50.349 214.25 50.2955 214.27 50.2543 214.307C50.2131 214.344 50.187 214.395 50.181 214.45C50.1795 214.541 50.1606 214.631 50.1255 214.715C50.0903 214.803 50.0371 214.883 49.9695 214.95C49.8339 215.081 49.6529 215.154 49.4646 215.154C49.2764 215.151 49.0969 215.074 48.9649 214.939C48.8327 214.806 48.7585 214.626 48.7585 214.438C48.7585 214.251 48.8327 214.071 48.9649 213.937L48.9755 213.953Z" fill="#85583C"/>
<path d="M278.179 74.0261H146.471V219.772H278.179V74.0261Z" fill="#FFAD6E"/>
<path d="M227.11 182.492H197.537V219.772H227.11V182.492Z" fill="#FFC59E"/>
<path d="M227.11 74.0261H197.537V123.873H227.11V74.0261Z" fill="#FFC59E"/>
<path fill-rule="evenodd" clip-rule="evenodd" d="M175.479 208.442C175.479 208.442 175.481 208.463 175.479 208.442V208.442ZM174.003 211.4H174.231C174.514 211.403 174.789 211.301 175.003 211.114L175.383 210.548C175.467 210.444 175.534 210.328 175.584 210.205C175.607 210.152 175.618 210.095 175.618 210.038C175.618 209.981 175.607 209.924 175.584 209.872L175.056 208.857L174.979 208.706L175.122 208.613L175.37 208.452L173.255 208.05L172.584 210.033L172.822 209.874L172.983 209.769L173.086 209.933L174.003 211.4ZM171.36 211.4H173.559L172.864 210.295L172.56 210.493L172.536 210.509H172.518C172.475 210.525 172.429 210.53 172.383 210.525C172.316 210.517 172.255 210.484 172.211 210.432C172.169 210.378 172.145 210.311 172.145 210.242C172.147 210.151 172.166 210.061 172.201 209.977L172.949 207.778L173.002 207.625L173.16 207.654L175.439 208.087C175.703 208.143 175.82 208.246 175.846 208.352C175.855 208.417 175.844 208.484 175.814 208.544C175.784 208.603 175.738 208.652 175.68 208.685H175.666L175.463 208.814L175.915 209.684C175.961 209.78 175.987 209.885 175.991 209.992C175.996 210.099 175.979 210.205 175.941 210.305C175.881 210.464 175.796 210.612 175.69 210.744L173.945 213.522C173.865 213.714 173.728 213.876 173.553 213.987C173.377 214.097 173.172 214.151 172.965 214.141H170.961V211.825C170.963 211.487 171.101 211.413 171.36 211.4Z" fill="#85583C"/>
<path d="M167.146 206.456C167.146 206.456 167.17 206.44 167.154 206.456H167.146ZM170.794 206.21L170.117 207.656L170.448 207.804H170.472H170.49C170.525 207.833 170.554 207.868 170.575 207.908C170.605 207.968 170.611 208.038 170.591 208.103C170.568 208.169 170.525 208.225 170.466 208.262C170.385 208.312 170.296 208.346 170.202 208.362L167.95 208.92L167.791 208.96L167.73 208.809L166.863 206.657C166.768 206.393 166.792 206.25 166.863 206.165C166.914 206.122 166.977 206.096 167.043 206.089C167.11 206.082 167.177 206.095 167.236 206.126L167.455 206.226L167.944 205.378C168.001 205.286 168.075 205.207 168.163 205.146C168.25 205.084 168.35 205.04 168.455 205.018C168.62 204.983 168.791 204.975 168.959 204.994H172.023L170.612 205.404L168.941 205.37C168.811 205.357 168.68 205.362 168.552 205.386C168.444 205.411 168.349 205.477 168.288 205.571L167.72 206.562L167.632 206.71L167.479 206.641L167.215 206.52L168.008 208.513L170.041 208.011L169.776 207.894L169.599 207.815L169.681 207.643L170.442 206.025L170.794 206.21Z" fill="#85583C"/>
<path fill-rule="evenodd" clip-rule="evenodd" d="M171.868 208.322L170.316 205.906C170.237 205.777 170.132 205.665 170.008 205.578C169.884 205.49 169.743 205.429 169.594 205.399L170.617 205.06L172.272 204.992C172.478 204.955 172.69 204.982 172.879 205.07C173.068 205.158 173.226 205.302 173.33 205.483L174.411 207.17L172.46 208.42C172.156 208.611 172.021 208.537 171.87 208.322H171.868Z" fill="#85583C"/>
<path fill-rule="evenodd" clip-rule="evenodd" d="M169.438 214.609C169.438 214.609 169.412 214.604 169.433 214.609H169.438ZM167.635 211.838L167.522 212.037C167.376 212.279 167.324 212.567 167.376 212.846L167.672 213.461C167.718 213.583 167.783 213.697 167.863 213.8C167.897 213.845 167.94 213.882 167.99 213.91C168.04 213.938 168.094 213.955 168.151 213.961L169.293 214.022H169.462V214.191L169.475 214.487L170.892 212.869L169.528 211.283L169.541 211.569V211.762H169.348L167.635 211.838ZM168.976 209.562L167.863 211.455L169.168 211.418L169.15 211.053V211.027V211.006C169.159 210.961 169.178 210.92 169.205 210.884C169.246 210.83 169.305 210.793 169.372 210.781C169.44 210.772 169.509 210.786 169.568 210.821C169.649 210.869 169.72 210.932 169.776 211.008L171.291 212.766L171.4 212.89L171.291 213.012L169.763 214.757C169.581 214.958 169.433 215.005 169.316 214.968C169.255 214.942 169.204 214.898 169.168 214.842C169.132 214.786 169.114 214.72 169.116 214.654V214.638V214.397L168.14 214.344C168.033 214.335 167.929 214.304 167.834 214.253C167.74 214.203 167.656 214.134 167.588 214.051C167.483 213.919 167.399 213.772 167.339 213.615L165.83 210.707C165.699 210.542 165.623 210.341 165.613 210.131C165.602 209.921 165.658 209.713 165.771 209.536L166.789 207.81L168.785 208.983C169.097 209.174 169.092 209.33 168.97 209.562H168.976Z" fill="#85583C"/>
<path d="M176.145 203.038H165.467C165.106 203.047 164.763 203.198 164.513 203.458C164.262 203.719 164.125 204.067 164.13 204.429V215.532C164.124 215.893 164.262 216.241 164.512 216.502C164.763 216.762 165.106 216.912 165.467 216.919H176.145C176.503 216.908 176.843 216.757 177.091 216.497C177.338 216.237 177.473 215.89 177.467 215.532V204.429C177.472 204.07 177.337 203.723 177.09 203.463C176.843 203.203 176.503 203.05 176.145 203.038ZM176.674 215.362C176.675 215.553 176.602 215.736 176.47 215.873C176.338 216.011 176.158 216.091 175.968 216.097H165.639C165.449 216.092 165.267 216.013 165.135 215.875C165.003 215.737 164.931 215.553 164.933 215.362V204.611C164.931 204.516 164.947 204.422 164.982 204.333C165.016 204.245 165.067 204.164 165.133 204.095C165.198 204.027 165.277 203.972 165.364 203.934C165.451 203.896 165.544 203.875 165.639 203.873H175.973C176.164 203.878 176.346 203.959 176.478 204.097C176.61 204.235 176.682 204.42 176.679 204.611L176.674 215.362Z" fill="#85583C"/>
<path d="M160.379 215.304H153.426C153.366 215.298 153.31 215.27 153.269 215.224C153.228 215.179 153.206 215.121 153.206 215.06C153.206 214.999 153.228 214.94 153.269 214.895C153.31 214.85 153.366 214.822 153.426 214.815H160.379C160.413 214.812 160.447 214.815 160.48 214.826C160.513 214.837 160.543 214.854 160.569 214.877C160.594 214.9 160.615 214.928 160.629 214.96C160.643 214.991 160.65 215.025 160.65 215.06C160.65 215.094 160.643 215.128 160.629 215.16C160.615 215.191 160.594 215.219 160.569 215.242C160.543 215.265 160.513 215.283 160.48 215.294C160.447 215.304 160.413 215.308 160.379 215.304Z" fill="#85583C"/>
<path fill-rule="evenodd" clip-rule="evenodd" d="M155.837 206.528V213.787H154.367V206.522L153.646 206.52L155.131 204.661L156.609 206.53L155.837 206.528Z" fill="#85583C"/>
<path fill-rule="evenodd" clip-rule="evenodd" d="M159.448 206.53V213.792H157.976V206.528L157.254 206.525L158.742 204.666L160.22 206.533L159.448 206.53Z" fill="#85583C"/>
<path d="M162.245 203.038H151.568C151.207 203.047 150.864 203.198 150.613 203.458C150.363 203.719 150.225 204.067 150.23 204.429V215.532C150.224 215.893 150.362 216.241 150.613 216.502C150.863 216.762 151.207 216.912 151.568 216.919H162.245C162.604 216.908 162.944 216.757 163.191 216.497C163.438 216.237 163.573 215.89 163.567 215.532V204.429C163.573 204.07 163.438 203.723 163.19 203.463C162.943 203.203 162.604 203.05 162.245 203.038ZM162.774 215.362C162.775 215.553 162.702 215.736 162.571 215.873C162.439 216.011 162.258 216.091 162.068 216.097H151.734C151.544 216.092 151.362 216.013 151.23 215.875C151.098 215.737 151.026 215.553 151.029 215.362V204.611C151.026 204.516 151.042 204.422 151.077 204.333C151.111 204.245 151.162 204.164 151.228 204.095C151.293 204.027 151.372 203.972 151.459 203.934C151.546 203.896 151.639 203.875 151.734 203.873H162.071C162.262 203.878 162.443 203.959 162.576 204.097C162.708 204.235 162.78 204.42 162.777 204.611L162.774 215.362Z" fill="#85583C"/>
<path d="M190.045 203.038H179.367C179.006 203.047 178.663 203.198 178.412 203.458C178.161 203.719 178.023 204.067 178.027 204.429V215.532C178.022 215.893 178.16 216.242 178.411 216.502C178.662 216.762 179.006 216.912 179.367 216.919H190.045C190.403 216.908 190.743 216.757 190.99 216.497C191.238 216.237 191.373 215.89 191.366 215.532V204.429C191.372 204.07 191.237 203.723 190.99 203.463C190.743 203.203 190.403 203.05 190.045 203.038ZM190.573 215.362C190.575 215.553 190.502 215.736 190.37 215.873C190.238 216.011 190.058 216.091 189.868 216.097H179.534C179.343 216.092 179.161 216.013 179.029 215.875C178.896 215.738 178.823 215.553 178.825 215.362V204.611C178.823 204.516 178.84 204.422 178.874 204.333C178.909 204.244 178.961 204.164 179.026 204.095C179.092 204.027 179.171 203.972 179.258 203.934C179.345 203.896 179.439 203.875 179.534 203.873H189.868C190.059 203.878 190.24 203.959 190.372 204.097C190.505 204.235 190.577 204.42 190.573 204.611V215.362Z" fill="#85583C"/>
<path fill-rule="evenodd" clip-rule="evenodd" d="M184.641 206.646C183.557 206.646 182.504 207.011 181.653 207.683C180.802 208.354 180.201 209.293 179.949 210.347C180.177 210.148 180.474 210.044 180.776 210.057C181.289 210.057 181.71 210.321 181.752 210.633C181.799 210.316 182.217 210.07 182.725 210.07C183.232 210.07 183.661 210.334 183.7 210.644C183.75 210.326 184.168 210.08 184.676 210.08C185.183 210.08 185.612 210.345 185.651 210.657C185.701 210.339 186.119 210.091 186.627 210.091C187.134 210.091 187.57 210.355 187.602 210.678C187.637 210.35 188.062 210.091 188.58 210.091C188.845 210.084 189.105 210.161 189.323 210.31C189.065 209.263 188.464 208.332 187.616 207.667C186.767 207.001 185.72 206.639 184.641 206.638V206.646Z" fill="#85583C"/>
<path d="M184.93 206.403C184.933 206.372 184.93 206.34 184.92 206.31C184.91 206.28 184.895 206.252 184.873 206.229C184.852 206.205 184.827 206.187 184.798 206.174C184.769 206.161 184.738 206.154 184.706 206.154C184.675 206.154 184.643 206.161 184.615 206.174C184.586 206.187 184.56 206.205 184.539 206.229C184.518 206.252 184.502 206.28 184.492 206.31C184.483 206.34 184.479 206.372 184.483 206.403V214.498C184.489 214.553 184.515 214.604 184.556 214.641C184.597 214.678 184.651 214.698 184.706 214.698C184.762 214.698 184.815 214.678 184.856 214.641C184.897 214.604 184.924 214.553 184.93 214.498V206.403Z" fill="#85583C"/>
<path d="M183.269 213.953C183.294 213.934 183.314 213.909 183.329 213.881C183.343 213.853 183.352 213.822 183.354 213.791C183.356 213.759 183.351 213.728 183.34 213.698C183.329 213.669 183.311 213.642 183.289 213.619C183.267 213.597 183.24 213.579 183.211 213.568C183.181 213.557 183.15 213.552 183.118 213.553C183.087 213.555 183.056 213.563 183.028 213.577C183 213.592 182.975 213.612 182.955 213.636C182.847 213.742 182.761 213.869 182.701 214.009C182.642 214.149 182.611 214.299 182.61 214.45C182.609 214.602 182.637 214.752 182.694 214.893C182.751 215.034 182.835 215.162 182.942 215.27C183.048 215.378 183.175 215.464 183.314 215.523C183.454 215.582 183.604 215.614 183.756 215.615C183.907 215.616 184.058 215.587 184.199 215.53C184.339 215.473 184.467 215.389 184.575 215.283C184.687 215.175 184.775 215.046 184.834 214.902C184.894 214.759 184.924 214.605 184.922 214.45C184.925 214.419 184.922 214.387 184.912 214.357C184.903 214.327 184.887 214.299 184.866 214.276C184.845 214.252 184.819 214.234 184.79 214.221C184.761 214.208 184.73 214.201 184.698 214.201C184.667 214.201 184.636 214.208 184.607 214.221C184.578 214.234 184.552 214.252 184.531 214.276C184.51 214.299 184.494 214.327 184.484 214.357C184.475 214.387 184.472 214.419 184.475 214.45C184.473 214.541 184.455 214.631 184.419 214.715C184.384 214.803 184.331 214.883 184.263 214.95C184.128 215.081 183.947 215.154 183.759 215.154C183.57 215.151 183.391 215.074 183.259 214.939C183.127 214.806 183.052 214.626 183.052 214.438C183.052 214.251 183.127 214.071 183.259 213.937L183.269 213.953Z" fill="#85583C"/>
</g>
<defs>
<clipPath id="clip0_185_1451">
<rect width="287.566" height="254.13" fill="white" transform="translate(0.614014 0.265015)"/>
</clipPath>
</defs>
</svg>
