<svg width="291" height="301" viewBox="0 0 291 301" fill="none" xmlns="http://www.w3.org/2000/svg">
<g clip-path="url(#clip0_185_2188)">
<path d="M178.703 182.25L105.937 199.737C104.828 200.003 103.677 200.049 102.551 199.871C101.425 199.693 100.345 199.294 99.3722 198.698C98.3999 198.102 97.5544 197.321 96.8841 196.398C96.2139 195.475 95.7319 194.429 95.4659 193.319L56.8827 32.6429C56.3451 30.4029 56.7188 28.041 57.9218 26.0766C59.1247 24.1122 61.0583 22.7063 63.2973 22.168L136.064 4.68085C137.174 4.4124 138.325 4.3655 139.453 4.54283C140.581 4.72015 141.663 5.11823 142.637 5.71428C143.611 6.31033 144.458 7.09264 145.129 8.01646C145.8 8.94028 146.283 9.98746 146.549 11.0981L185.118 171.775C185.655 174.015 185.282 176.377 184.079 178.341C182.876 180.305 180.942 181.711 178.703 182.25Z" fill="#DC3D4E"/>
<path d="M99.3956 51.4302C101.337 44.221 97.0695 36.8021 89.8632 34.8596C82.657 32.9171 75.241 37.1866 73.2993 44.3958C71.3576 51.605 75.6254 59.024 82.8317 60.9664C90.038 62.9089 97.4539 58.6394 99.3956 51.4302Z" fill="#B52131"/>
<path d="M95.3143 54.9752C100.592 49.6957 100.592 41.136 95.3143 35.8565C90.0369 30.5771 81.4807 30.577 76.2033 35.8565C70.926 41.136 70.926 49.6958 76.2033 54.9752C81.4806 60.2547 90.0369 60.2547 95.3143 54.9752Z" fill="white"/>
<path d="M83.8462 55.7012C83.5952 55.6503 83.3746 55.502 83.2328 55.2887C83.091 55.0754 83.0396 54.8145 83.0898 54.5633L86.6955 36.5736C86.7457 36.3228 86.8934 36.1022 87.1061 35.9603C87.3189 35.8184 87.5793 35.7668 87.83 35.817C88.0809 35.8672 88.3017 36.0148 88.444 36.2276C88.5863 36.4403 88.6386 36.7008 88.5893 36.952L84.9807 54.9445C84.9298 55.195 84.782 55.4151 84.5694 55.5569C84.3568 55.6987 84.0968 55.7505 83.8462 55.7012Z" fill="#B52131"/>
<path d="M140.549 40.1304C141.674 32.7494 136.605 25.8535 129.227 24.728C121.849 23.6025 114.956 28.6736 113.831 36.0546C112.705 43.4356 117.775 50.3315 125.153 51.457C132.531 52.5825 139.424 47.5114 140.549 40.1304Z" fill="#B52131"/>
<path d="M136.166 45.1595C141.444 39.8801 141.444 31.3203 136.166 26.0409C130.889 20.7614 122.333 20.7614 117.055 26.0408C111.778 31.3203 111.778 39.8801 117.055 45.1595C122.333 50.439 130.889 50.439 136.166 45.1595Z" fill="white"/>
<path d="M134.271 42.6674C134.101 42.8584 133.862 42.9742 133.607 42.9894C133.351 43.0045 133.1 42.9178 132.909 42.7483L119.193 30.5751C119.003 30.4044 118.888 30.1655 118.872 29.9102C118.857 29.6549 118.943 29.404 119.112 29.212C119.283 29.0216 119.522 28.9063 119.777 28.8912C120.032 28.8761 120.283 28.9623 120.475 29.1311L134.19 41.3158C134.377 41.4861 134.49 41.7227 134.505 41.9752C134.521 42.2276 134.436 42.476 134.271 42.6674Z" fill="#B52131"/>
<path d="M107.749 94.2811C111.35 87.7415 108.97 79.5196 102.433 75.917C95.8962 72.3143 87.6776 74.6952 84.0764 81.2349C80.4752 87.7745 82.8552 95.9964 89.3922 99.5991C95.9292 103.202 104.148 100.821 107.749 94.2811Z" fill="#B52131"/>
<path d="M108.667 87.301C109.792 79.92 104.723 73.0241 97.3454 71.8986C89.9674 70.7731 83.0743 75.8442 81.9493 83.2252C80.8243 90.6062 85.8933 97.5021 93.2713 98.6276C100.649 99.7531 107.542 94.682 108.667 87.301Z" fill="white"/>
<path d="M102.989 92.3476C102.819 92.5379 102.58 92.6532 102.325 92.6683C102.069 92.6835 101.819 92.5973 101.627 92.4284L87.9111 80.2495C87.7208 80.0788 87.6056 79.8398 87.5904 79.5846C87.5753 79.3293 87.6615 79.0784 87.8303 78.8864C87.9143 78.7914 88.0163 78.714 88.1304 78.6586C88.2444 78.6031 88.3683 78.5707 88.4948 78.5632C88.6214 78.5557 88.7482 78.5732 88.8679 78.6148C88.9877 78.6564 89.0981 78.7212 89.1929 78.8055L102.908 90.9873C103.097 91.1583 103.211 91.3966 103.226 91.6509C103.242 91.9052 103.156 92.1554 102.989 92.3476Z" fill="#B52131"/>
<path d="M148.299 85.0145C152.198 78.6477 150.199 70.3248 143.834 66.4248C137.47 62.5248 129.151 64.5245 125.252 70.8912C121.354 77.258 123.353 85.5809 129.717 89.4809C136.081 93.3809 144.401 91.3812 148.299 85.0145Z" fill="#B52131"/>
<path d="M145.738 85.0175C151.015 79.738 151.015 71.1783 145.738 65.8988C140.46 60.6194 131.904 60.6194 126.627 65.8988C121.349 71.1783 121.349 79.738 126.627 85.0175C131.904 90.297 140.46 90.297 145.738 85.0175Z" fill="white"/>
<path d="M143.986 69.2288C144.151 69.424 144.232 69.6767 144.212 69.9315C144.191 70.1864 144.07 70.4228 143.876 70.589L129.901 82.4734C129.804 82.5553 129.692 82.6175 129.572 82.6562C129.451 82.6949 129.324 82.7094 129.198 82.699C129.071 82.6885 128.948 82.6533 128.836 82.5952C128.723 82.5372 128.623 82.4575 128.541 82.3607C128.459 82.2642 128.397 82.1525 128.358 82.0319C128.319 81.9113 128.304 81.7842 128.314 81.6578C128.324 81.5315 128.359 81.4084 128.417 81.2956C128.475 81.1828 128.554 81.0825 128.651 81.0005L142.626 69.119C142.723 69.0369 142.834 68.9745 142.955 68.9356C143.075 68.8966 143.202 68.8818 143.329 68.892C143.455 68.9022 143.578 68.9372 143.691 68.995C143.804 69.0528 143.904 69.1322 143.986 69.2288Z" fill="#B52131"/>
<path d="M119.123 130.835C120.248 123.454 115.179 116.558 107.801 115.433C100.422 114.307 93.5294 119.378 92.4044 126.759C91.2793 134.14 96.3484 141.036 103.726 142.162C111.104 143.287 117.997 138.216 119.123 130.835Z" fill="#B52131"/>
<path d="M118.47 128.791C119.838 121.451 114.999 114.392 107.662 113.023C100.325 111.655 93.2687 116.496 91.901 123.836C90.5332 131.176 95.3722 138.235 102.709 139.603C110.046 140.972 117.102 136.131 118.47 128.791Z" fill="white"/>
<path d="M97.5387 133.214C97.3735 133.018 97.2924 132.766 97.3129 132.511C97.3335 132.256 97.4541 132.019 97.6484 131.853L111.618 119.969C111.813 119.804 112.066 119.723 112.32 119.743C112.575 119.764 112.812 119.884 112.978 120.079C113.143 120.274 113.224 120.527 113.203 120.781C113.183 121.036 113.062 121.273 112.868 121.439L98.9157 133.323C98.8185 133.407 98.7055 133.471 98.5834 133.511C98.4613 133.551 98.3324 133.567 98.2042 133.557C98.0761 133.546 97.9513 133.511 97.837 133.452C97.7228 133.393 97.6214 133.312 97.5387 133.214Z" fill="#B52131"/>
<path d="M159.124 124.115C161.957 117.207 158.657 109.31 151.752 106.476C144.848 103.641 136.954 106.943 134.12 113.851C131.287 120.758 134.588 128.655 141.492 131.49C148.397 134.324 156.291 131.022 159.124 124.115Z" fill="#B52131"/>
<path d="M159.523 116.707C159.647 109.242 153.698 103.09 146.236 102.966C138.774 102.842 132.624 108.793 132.5 116.259C132.376 123.724 138.325 129.876 145.788 130C153.25 130.124 159.4 124.172 159.523 116.707Z" fill="white"/>
<path d="M154.309 110.863C154.459 111.07 154.521 111.329 154.481 111.581C154.441 111.834 154.302 112.061 154.096 112.212L139.271 123.016C139.169 123.091 139.053 123.144 138.93 123.174C138.807 123.204 138.679 123.21 138.554 123.19C138.428 123.17 138.308 123.126 138.2 123.06C138.092 122.994 137.998 122.907 137.923 122.805C137.774 122.598 137.712 122.34 137.752 122.087C137.791 121.835 137.928 121.608 138.134 121.456L152.961 110.652C153.168 110.502 153.426 110.44 153.679 110.479C153.931 110.519 154.158 110.657 154.309 110.863Z" fill="#B52131"/>
<path d="M120.014 180.448C126.978 177.764 130.449 169.94 127.766 162.973C125.083 156.005 117.262 152.533 110.298 155.218C103.333 157.902 99.8628 165.726 102.546 172.693C105.229 179.66 113.05 183.132 120.014 180.448Z" fill="#B52131"/>
<path d="M124.11 174.895C129.387 169.616 129.387 161.056 124.11 155.776C118.832 150.497 110.276 150.497 104.999 155.776C99.7215 161.056 99.7215 169.616 104.999 174.895C110.276 180.175 118.832 180.175 124.11 174.895Z" fill="white"/>
<path d="M112.64 175.613C112.39 175.562 112.169 175.414 112.028 175.201C111.886 174.989 111.834 174.729 111.884 174.478L115.489 156.485C115.542 156.235 115.69 156.015 115.903 155.874C116.116 155.732 116.376 155.68 116.627 155.729C116.877 155.78 117.097 155.929 117.239 156.142C117.381 156.355 117.432 156.615 117.383 156.867L113.777 174.856C113.753 174.981 113.703 175.099 113.633 175.205C113.562 175.31 113.471 175.4 113.366 175.471C113.26 175.541 113.142 175.59 113.017 175.614C112.892 175.639 112.764 175.638 112.64 175.613Z" fill="#B52131"/>
<path d="M168.224 163.733C171.391 156.973 168.48 148.924 161.722 145.755C154.964 142.587 146.918 145.499 143.751 152.26C140.584 159.02 143.495 167.069 150.253 170.238C157.011 173.406 165.057 170.494 168.224 163.733Z" fill="#B52131"/>
<path d="M168.22 159.783C170.578 152.699 166.75 145.044 159.669 142.685C152.588 140.326 144.936 144.156 142.578 151.24C140.22 158.324 144.048 165.979 151.129 168.338C158.21 170.697 165.862 166.867 168.22 159.783Z" fill="white"/>
<path d="M163.065 162.588C162.894 162.778 162.655 162.894 162.4 162.909C162.145 162.924 161.894 162.838 161.702 162.669L147.993 150.484C147.802 150.314 147.686 150.075 147.671 149.819C147.656 149.564 147.742 149.313 147.912 149.121C148.082 148.93 148.321 148.814 148.576 148.799C148.832 148.784 149.083 148.87 149.274 149.04L162.987 161.225C163.178 161.395 163.293 161.635 163.307 161.89C163.322 162.146 163.235 162.397 163.065 162.588Z" fill="#B52131"/>
<path d="M24.0157 184.003L24.749 193.929C33.987 198.763 47.2523 194.18 55.5174 189.666C55.5174 189.666 47.3735 188.569 40.7943 190.532C34.2151 192.496 31.3051 182.972 34.4432 175.746C37.5812 168.52 39.5067 163.186 38.326 160.13C37.1453 157.074 24.0157 184.003 24.0157 184.003Z" fill="#84ADE9"/>
<path d="M16.0999 150.472L148.833 141.219L269.75 150.472L176.443 160.777L16.0999 150.472Z" fill="#FCAD6A"/>
<path d="M202.996 45.7835C202.995 47.1021 202.854 48.4168 202.575 49.7055L199.18 65.3558L166.789 214.691C166.285 217.09 165.311 219.366 163.924 221.387C162.537 223.408 160.764 225.135 158.708 226.468C156.651 227.801 154.351 228.714 151.94 229.154C149.53 229.595 147.056 229.554 144.661 229.034C142.266 228.514 139.998 227.526 137.986 226.125C135.975 224.725 134.26 222.941 132.94 220.875C131.621 218.809 130.723 216.503 130.298 214.088C129.873 211.674 129.929 209.199 130.464 206.807L155.21 92.775L166.261 41.8211C167.233 37.3346 169.829 33.3663 173.55 30.6802C177.271 27.9941 181.854 26.7802 186.417 27.2721C190.979 27.764 195.198 29.927 198.262 33.3446C201.326 36.7623 203.017 41.1929 203.011 45.7835H202.996Z" fill="#F8D2D5"/>
<path d="M197.378 5.87944L189.258 43.3143C189.004 44.391 188.338 45.3249 187.403 45.9151C186.467 46.5052 185.338 46.7043 184.257 46.4696C183.177 46.2348 182.232 45.585 181.625 44.66C181.019 43.7349 180.8 42.6087 181.016 41.5237L189.134 4.09174C189.37 2.99795 190.032 2.04314 190.973 1.43734C191.913 0.831547 193.056 0.624396 194.149 0.86146C195.243 1.09852 196.197 1.76038 196.803 2.70144C197.408 3.64249 197.615 4.78566 197.378 5.87944Z" fill="white"/>
<path d="M199.18 65.3559L166.789 214.691C166.285 217.09 165.311 219.366 163.924 221.387C162.537 223.408 160.764 225.135 158.708 226.468C156.651 227.801 154.351 228.714 151.94 229.154C149.53 229.595 147.056 229.554 144.661 229.034C142.266 228.514 139.998 227.526 137.986 226.125C135.975 224.725 134.26 222.941 132.94 220.875C131.621 218.809 130.723 216.503 130.298 214.088C129.873 211.674 129.929 209.199 130.464 206.807L155.21 92.775C155.21 92.775 183.351 91.4234 199.18 65.3559Z" fill="#F2A8AE"/>
<path d="M171.483 105.376C171.162 105.304 170.883 105.108 170.705 104.831C170.527 104.554 170.466 104.219 170.534 103.897L191.166 8.77031C191.237 8.44848 191.432 8.16775 191.709 7.98964C191.986 7.81154 192.322 7.75058 192.644 7.82014C192.965 7.89072 193.245 8.08554 193.423 8.36206C193.601 8.63858 193.663 8.97432 193.594 9.29594L172.961 104.422C172.892 104.745 172.697 105.026 172.42 105.205C172.142 105.384 171.806 105.445 171.483 105.376Z" fill="#B52131"/>
<path d="M197.379 5.87944L194.76 17.9342L186.515 16.1436L189.131 4.09174C189.368 2.99795 190.029 2.04314 190.97 1.43734C191.911 0.831547 193.054 0.624396 194.147 0.86146C195.24 1.09852 196.195 1.76038 196.8 2.70144C197.406 3.64249 197.613 4.78566 197.376 5.87944H197.379Z" fill="#B52131"/>
<path d="M186.633 255.265L118.948 223.326C116.867 222.344 115.261 220.575 114.483 218.409C113.705 216.243 113.817 213.857 114.796 211.774L185.253 62.3118C186.236 60.231 188.004 58.6251 190.169 57.8465C192.334 57.068 194.719 57.1803 196.801 58.1588L264.487 90.0948C266.567 91.0774 268.173 92.8459 268.951 95.0121C269.729 97.1782 269.615 99.5646 268.635 101.647L198.178 251.109C197.197 253.191 195.43 254.798 193.265 255.577C191.101 256.356 188.715 256.244 186.633 255.265Z" fill="#DC3D4E"/>
<path d="M203.063 104.27C210.079 101.732 213.709 93.9843 211.171 86.9659C208.634 79.9476 200.889 76.316 193.874 78.8546C186.858 81.3931 183.228 89.1405 185.766 96.1588C188.303 103.177 196.048 106.809 203.063 104.27Z" fill="#B52131"/>
<path d="M209.333 99.9062C214.61 94.6268 214.61 86.067 209.333 80.7876C204.055 75.5081 195.499 75.5081 190.222 80.7875C184.944 86.067 184.944 94.6268 190.222 99.9063C195.499 105.186 204.055 105.186 209.333 99.9062Z" fill="white"/>
<path d="M191.856 97.1648C191.692 96.9681 191.613 96.7146 191.636 96.4596C191.659 96.2046 191.781 95.9691 191.977 95.8045L206.048 84.0328C206.244 83.869 206.498 83.7898 206.753 83.8125C207.008 83.8353 207.243 83.9581 207.408 84.1541C207.571 84.3508 207.651 84.6044 207.628 84.8593C207.605 85.1143 207.482 85.3498 207.286 85.5144L193.216 97.289C193.019 97.4525 192.765 97.5312 192.51 97.5079C192.255 97.4847 192.02 97.3613 191.856 97.1648Z" fill="#B52131"/>
<path d="M250.079 112.646C251.195 105.264 246.118 98.374 238.738 97.2575C231.359 96.1411 224.472 101.221 223.356 108.603C222.24 115.985 227.318 122.875 234.697 123.991C242.076 125.108 248.963 120.028 250.079 112.646Z" fill="#B52131"/>
<path d="M245.915 119.115C251.879 114.627 253.077 106.152 248.591 100.185C244.105 94.2184 235.633 93.0197 229.668 97.5079C223.704 101.996 222.506 110.471 226.992 116.438C231.479 122.405 239.95 123.604 245.915 119.115Z" fill="white"/>
<path d="M239.328 118.585C239.075 118.627 238.817 118.568 238.609 118.419C238.4 118.271 238.259 118.046 238.216 117.794L235.145 99.7034C235.104 99.4512 235.164 99.193 235.312 98.9849C235.46 98.7767 235.684 98.6354 235.936 98.5915C236.188 98.5496 236.446 98.6089 236.655 98.7565C236.863 98.9042 237.005 99.1282 237.05 99.38L240.119 117.471C240.161 117.723 240.102 117.983 239.954 118.192C239.805 118.401 239.58 118.542 239.328 118.585Z" fill="#B52131"/>
<path d="M189.673 140.282C195.487 135.601 196.407 127.091 191.727 121.274C187.048 115.458 178.541 114.538 172.727 119.22C166.913 123.901 165.993 132.411 170.673 138.228C175.353 144.044 183.859 144.964 189.673 140.282Z" fill="#B52131"/>
<path d="M191.856 136.986C197.133 131.707 197.133 123.147 191.856 117.867C186.578 112.588 178.022 112.588 172.745 117.867C167.467 123.147 167.467 131.707 172.745 136.986C178.022 142.266 186.578 142.266 191.856 136.986Z" fill="white"/>
<path d="M183.848 137.736C183.596 137.777 183.338 137.717 183.129 137.569C182.921 137.421 182.78 137.197 182.736 136.945L179.665 118.854C179.623 118.602 179.682 118.343 179.831 118.134C179.979 117.925 180.203 117.783 180.456 117.739C180.708 117.698 180.967 117.758 181.175 117.906C181.384 118.054 181.526 118.279 181.57 118.531L184.639 136.621C184.681 136.874 184.621 137.133 184.473 137.342C184.325 137.551 184.1 137.692 183.848 137.736Z" fill="#B52131"/>
<path d="M226.93 158.811C233.056 154.546 234.565 146.12 230.301 139.993C226.038 133.865 217.616 132.355 211.49 136.62C205.365 140.885 203.855 149.311 208.119 155.439C212.383 161.567 220.805 163.077 226.93 158.811Z" fill="#B52131"/>
<path d="M231.859 152.336C235.72 145.946 233.672 137.635 227.285 133.773C220.897 129.911 212.59 131.96 208.729 138.35C204.869 144.739 206.917 153.05 213.304 156.912C219.691 160.775 227.999 158.726 231.859 152.336Z" fill="white"/>
<path d="M230.286 145.381C230.292 145.637 230.197 145.885 230.021 146.071C229.846 146.257 229.604 146.366 229.348 146.374L211.013 146.888C210.757 146.895 210.51 146.799 210.324 146.624C210.138 146.448 210.028 146.206 210.02 145.95C210.014 145.694 210.109 145.446 210.285 145.261C210.461 145.075 210.703 144.967 210.958 144.959L229.293 144.445C229.549 144.438 229.796 144.533 229.983 144.708C230.169 144.883 230.278 145.125 230.286 145.381Z" fill="#B52131"/>
<path d="M172.763 177.485C178.041 172.205 178.041 163.646 172.763 158.366C167.486 153.087 158.93 153.087 153.653 158.366C148.375 163.646 148.375 172.205 153.653 177.485C158.93 182.764 167.486 182.764 172.763 177.485Z" fill="#B52131"/>
<path d="M172.898 176.005C178.657 171.256 179.477 162.736 174.73 156.975C169.983 151.213 161.466 150.393 155.707 155.142C149.948 159.891 149.128 168.412 153.875 174.173C158.623 179.934 167.14 180.754 172.898 176.005Z" fill="white"/>
<path d="M154.026 166.192C154.02 165.936 154.115 165.688 154.291 165.502C154.467 165.316 154.709 165.207 154.965 165.199L173.299 164.684C173.555 164.678 173.803 164.773 173.989 164.949C174.175 165.125 174.284 165.367 174.292 165.623C174.298 165.879 174.203 166.126 174.027 166.312C173.852 166.498 173.609 166.606 173.354 166.614L155.019 167.128C154.764 167.135 154.516 167.04 154.33 166.865C154.144 166.69 154.035 166.448 154.026 166.192Z" fill="#B52131"/>
<path d="M207.372 197.852C214.015 194.448 216.642 186.302 213.24 179.656C209.838 173.011 201.695 170.383 195.052 173.786C188.409 177.19 185.782 185.336 189.184 191.982C192.587 198.627 200.73 201.255 207.372 197.852Z" fill="#B52131"/>
<path d="M209.044 195.287C215.515 191.567 217.745 183.303 214.026 176.83C210.306 170.357 202.046 168.125 195.575 171.846C189.105 175.567 186.875 183.831 190.594 190.304C194.313 196.777 202.573 199.008 209.044 195.287Z" fill="white"/>
<path d="M212.286 184.309C212.274 184.565 212.16 184.805 211.971 184.978C211.782 185.15 211.532 185.241 211.276 185.23L192.953 184.364C192.698 184.351 192.458 184.238 192.286 184.049C192.114 183.86 192.024 183.611 192.035 183.356C192.048 183.1 192.161 182.859 192.35 182.687C192.54 182.514 192.789 182.423 193.045 182.434L211.365 183.301C211.621 183.314 211.861 183.427 212.033 183.615C212.206 183.804 212.297 184.053 212.286 184.309Z" fill="#B52131"/>
<path d="M151.65 217.679C158.889 215.738 163.185 208.293 161.244 201.051C159.304 193.808 151.862 189.511 144.623 191.452C137.383 193.394 133.088 200.838 135.028 208.081C136.969 215.323 144.41 219.62 151.65 217.679Z" fill="#B52131"/>
<path d="M155.25 212.784C161.243 208.334 162.496 199.867 158.048 193.871C153.601 187.876 145.137 186.622 139.144 191.072C133.15 195.521 131.897 203.989 136.345 209.984C140.793 215.98 149.257 217.233 155.25 212.784Z" fill="white"/>
<path d="M139.271 208.713C139.19 208.616 139.128 208.503 139.09 208.382C139.052 208.261 139.039 208.134 139.05 208.008C139.061 207.881 139.097 207.758 139.156 207.646C139.215 207.534 139.295 207.434 139.393 207.353L153.46 195.581C153.657 195.417 153.91 195.338 154.165 195.361C154.42 195.383 154.656 195.506 154.82 195.702C154.902 195.799 154.963 195.912 155.001 196.033C155.039 196.154 155.053 196.281 155.042 196.407C155.03 196.534 154.994 196.657 154.935 196.769C154.877 196.881 154.796 196.981 154.699 197.062L140.631 208.834C140.435 208.998 140.181 209.077 139.926 209.054C139.671 209.032 139.436 208.909 139.271 208.713Z" fill="#B52131"/>
<path d="M190.745 233.949C197.242 230.275 199.531 222.027 195.859 215.527C192.186 209.028 183.942 206.737 177.445 210.412C170.948 214.086 168.658 222.334 172.331 228.833C176.004 235.333 184.248 237.623 190.745 233.949Z" fill="#B52131"/>
<path d="M191.467 231.802C198.078 228.336 200.628 220.165 197.163 213.552C193.699 206.939 185.531 204.388 178.921 207.854C172.31 211.32 169.76 219.49 173.225 226.103C176.69 232.717 184.857 235.268 191.467 231.802Z" fill="white"/>
<path d="M186.743 230.139C186.492 230.182 186.233 230.123 186.025 229.975C185.816 229.827 185.675 229.603 185.632 229.351L182.56 211.26C182.518 211.007 182.578 210.748 182.726 210.54C182.874 210.331 183.099 210.189 183.351 210.145C183.604 210.103 183.863 210.163 184.071 210.311C184.28 210.46 184.422 210.684 184.466 210.937L187.534 229.027C187.576 229.28 187.516 229.538 187.368 229.747C187.22 229.955 186.995 230.096 186.743 230.139Z" fill="#B52131"/>
<path d="M141.032 158.49L132.822 217.432C130.472 234.301 115.818 246.2 100.091 244.002L60.2315 238.454C44.5067 236.262 33.6722 220.811 36.0106 203.945L44.2209 144.994C44.4513 143.352 44.8034 141.729 45.2746 140.139C45.7437 138.555 46.3344 137.011 47.0414 135.518C49.6724 129.843 53.9733 125.107 59.3684 121.944C64.6693 118.834 70.8607 117.596 76.9495 118.427L116.814 123.977C122.845 124.839 128.417 127.684 132.652 132.064C133.186 132.613 133.7 133.179 134.196 133.771C137.717 138.031 140.036 143.155 140.914 148.613C141.452 151.88 141.492 155.21 141.032 158.49Z" fill="#4B83DB"/>
<g opacity="0.5">
<path d="M132.649 132.052C133.183 132.601 133.697 133.167 134.193 133.759L133.873 136.647C133.405 140.901 116.306 141.413 95.6825 137.785C75.0586 134.158 58.7304 127.769 59.1923 123.51L59.3684 121.936C64.6693 118.826 70.8607 117.587 76.9495 118.418L116.814 123.977C122.842 124.836 128.413 127.677 132.649 132.052Z" fill="#2E62BF"/>
</g>
<path d="M136.543 112.622L133.873 131.784C133.521 134.317 123.786 135.174 110.221 134.224C105.729 133.91 100.815 133.398 95.6825 132.682C75.0615 129.811 58.7304 124.746 59.1923 121.373L61.8627 102.21L127.86 111.409L136.543 112.622Z" fill="#FFCA87"/>
<path opacity="0.6" d="M136.543 112.622L133.873 131.784C133.521 134.317 123.786 135.174 110.221 134.224C112.666 131.914 115.844 128.2 116.811 123.977C118.448 116.818 112.213 114.765 112.213 114.765L127.86 111.409L136.543 112.622Z" fill="#FFA26A"/>
<path d="M136.529 112.607C136.998 109.235 120.66 104.171 100.037 101.297C79.4133 98.4229 62.314 98.8273 61.8444 102.2C61.3747 105.573 77.7126 110.637 98.3361 113.511C118.96 116.385 136.059 115.98 136.529 112.607Z" fill="#FFD4A1"/>
<path d="M142.523 113.376L131.168 174.724L246.615 196.109L257.97 134.761L142.523 113.376Z" fill="#B52131"/>
<path d="M142.522 113.375L131.167 174.723L155.179 179.171L166.534 117.823L142.522 113.375Z" fill="#A71C2B"/>
<path d="M269.06 276.85C236.149 287.961 176.443 299.614 176.443 299.614L167.046 216.666L176.44 160.777L269.744 150.472L269.06 276.85Z" fill="#F09E5B"/>
<path d="M176.443 160.777L177.349 225.963L174.647 236.539L177.066 242.748L176.443 299.614C176.443 299.614 133.394 301.471 85.3128 297.561C32.9015 293.298 17.5606 286.398 17.5606 286.398L16.0999 244.071L18.2448 238.584L16.0999 230.359V150.472L176.443 160.777Z" fill="#FFAD6E"/>
<path d="M176.443 160.777V165.36L163.553 206.457L16.0999 195.367V191.255L176.443 160.777Z" fill="#FCAD6A"/>
<path d="M269.75 150.472L282.276 186.628L190.69 203.223L176.443 160.777L269.75 150.472Z" fill="#FFAD6E"/>
<path d="M176.55 217.051L176.839 222.203C176.94 224.066 177.223 225.975 176.709 227.791C175.742 231.217 174.466 234.584 173.348 237.96C173.207 238.385 173.874 238.564 174.012 238.145C175.167 234.627 176.631 231.09 177.511 227.494C177.889 225.946 177.641 224.288 177.557 222.72C177.457 220.831 177.355 218.941 177.251 217.051C177.225 216.609 176.538 216.606 176.561 217.051H176.55Z" fill="#F49356"/>
<path d="M174.315 236.631C175.121 238.595 176.362 240.738 176.735 242.841C177.133 245.085 176.712 247.696 176.654 249.966C176.662 250.052 176.701 250.132 176.765 250.19C176.829 250.248 176.912 250.281 176.999 250.281C177.085 250.281 177.168 250.248 177.232 250.19C177.296 250.132 177.336 250.052 177.344 249.966C177.402 247.719 177.716 245.304 177.456 243.066C177.197 240.828 175.828 238.52 174.979 236.45C174.815 236.042 174.148 236.221 174.315 236.631Z" fill="#F49356"/>
<path d="M175.995 256.594C175.908 259.047 175.97 261.504 176.18 263.95C176.218 264.389 176.908 264.391 176.867 263.95C176.659 261.503 176.599 259.047 176.685 256.594C176.7 256.149 176.01 256.149 175.995 256.594Z" fill="#F49356"/>
<path d="M184.714 187.151C186.319 191.162 187.572 195.307 189.021 199.376C189.35 200.3 189.685 201.227 190.052 202.137C190.234 202.593 190.389 203.13 190.851 203.381C191.671 203.829 193.074 203.341 193.935 203.228L198.089 202.694C198.522 202.639 198.528 201.949 198.089 202.004L194.454 202.472C193.672 202.573 191.55 203.228 190.929 202.472C190.462 201.894 190.216 200.661 189.965 199.974C189.65 199.109 189.344 198.243 189.05 197.374C187.852 193.909 186.74 190.388 185.381 186.977C185.216 186.57 184.549 186.749 184.714 187.162V187.151Z" fill="#F49356"/>
<path d="M55.5172 131.83C55.5172 131.83 49.2093 140.257 50.748 145.355C52.2867 150.452 82.6509 148.82 81.8109 145.355C80.9708 141.889 67.1802 138.588 64.1461 136.113C61.1119 133.638 55.5172 131.83 55.5172 131.83Z" fill="#5B9CEF"/>
<path d="M16.1 150.472L0.597412 189.617L163.553 201.874L176.443 160.777L16.1 150.472Z" fill="#FFB881"/>
<path opacity="0.5" d="M160.051 152.766C160.051 152.766 170.695 158.695 177.823 158.022C184.951 157.349 255.281 152.072 255.281 152.072L176.443 160.777L158.749 159.642L160.051 152.766Z" fill="#A71C2B"/>
</g>
<defs>
<clipPath id="clip0_185_2188">
<rect width="289.505" height="299.288" fill="white" transform="translate(0.597168 0.767578)"/>
</clipPath>
</defs>
</svg>
