<svg width="367" height="241" viewBox="0 0 367 241" fill="none" xmlns="http://www.w3.org/2000/svg">
<g clip-path="url(#clip0_185_1320)">
<g style="mix-blend-mode:multiply">
<path d="M183.349 240.586C284.394 240.586 366.308 239.801 366.308 238.832C366.308 237.864 284.394 237.079 183.349 237.079C82.3033 237.079 0.389893 237.864 0.389893 238.832C0.389893 239.801 82.3033 240.586 183.349 240.586Z" fill="#DBE1E6"/>
</g>
<path d="M42.0597 130.023H35.8229V141.14H42.0597V130.023Z" fill="#B3B3B3"/>
<path d="M21.9457 0.862305H16.1255V112.553H21.9457V0.862305Z" fill="#656565"/>
<path d="M19.9578 157.274H15.1932V174.44H19.9578V157.274Z" fill="#141414"/>
<path d="M20.8033 161.695H14.3946C14.0915 161.695 13.8009 161.575 13.5866 161.36C13.3723 161.146 13.252 160.855 13.252 160.552C13.2525 160.25 13.3731 159.96 13.5873 159.746C13.8016 159.532 14.0919 159.412 14.3946 159.412H20.8033C21.106 159.412 21.3963 159.532 21.6105 159.746C21.8247 159.96 21.9454 160.25 21.9459 160.552C21.9459 160.855 21.8255 161.146 21.6112 161.36C21.3969 161.575 21.1063 161.695 20.8033 161.695Z" fill="#C9C9C9"/>
<path d="M20.8033 158.233H14.3946C14.0915 158.233 13.8009 158.112 13.5866 157.898C13.3723 157.684 13.252 157.393 13.252 157.09C13.252 156.94 13.2815 156.792 13.339 156.653C13.3964 156.515 13.4806 156.389 13.5867 156.283C13.6929 156.177 13.8188 156.093 13.9575 156.036C14.0961 155.979 14.2446 155.949 14.3946 155.95H20.8033C20.9532 155.949 21.1018 155.979 21.2404 156.036C21.379 156.093 21.505 156.177 21.6111 156.283C21.7172 156.389 21.8014 156.515 21.8589 156.653C21.9163 156.792 21.9459 156.94 21.9459 157.09C21.9459 157.393 21.8255 157.684 21.6112 157.898C21.3969 158.112 21.1063 158.233 20.8033 158.233Z" fill="#C9C9C9"/>
<path d="M20.8033 165.157H14.3946C14.2446 165.157 14.0961 165.128 13.9575 165.071C13.8188 165.014 13.6929 164.93 13.5867 164.824C13.4806 164.718 13.3964 164.592 13.339 164.454C13.2815 164.315 13.252 164.167 13.252 164.017C13.252 163.714 13.3723 163.423 13.5866 163.209C13.8009 162.994 14.0915 162.874 14.3946 162.874H20.8033C21.1063 162.874 21.3969 162.994 21.6112 163.209C21.8255 163.423 21.9459 163.714 21.9459 164.017C21.9459 164.167 21.9163 164.315 21.8589 164.454C21.8014 164.592 21.7172 164.718 21.6111 164.824C21.505 164.93 21.379 165.014 21.2404 165.071C21.1018 165.128 20.9532 165.157 20.8033 165.157Z" fill="#C9C9C9"/>
<path d="M20.8051 166.336H14.3964C13.7653 166.336 13.2538 166.847 13.2538 167.478C13.2538 168.108 13.7653 168.619 14.3964 168.619H20.8051C21.4362 168.619 21.9477 168.108 21.9477 167.478C21.9477 166.847 21.4362 166.336 20.8051 166.336Z" fill="#C9C9C9"/>
<path d="M20.8033 172.084H14.3946C14.0915 172.084 13.8009 171.963 13.5866 171.749C13.3723 171.535 13.252 171.244 13.252 170.941C13.252 170.791 13.2815 170.643 13.339 170.504C13.3964 170.366 13.4806 170.24 13.5867 170.134C13.6929 170.028 13.8188 169.944 13.9575 169.887C14.0961 169.829 14.2446 169.8 14.3946 169.8H20.8033C20.9532 169.8 21.1018 169.829 21.2404 169.887C21.379 169.944 21.505 170.028 21.6111 170.134C21.7172 170.24 21.8014 170.366 21.8589 170.504C21.9163 170.643 21.9459 170.791 21.9459 170.941C21.9459 171.244 21.8255 171.535 21.6112 171.749C21.3969 171.963 21.1063 172.084 20.8033 172.084Z" fill="#C9C9C9"/>
<path d="M20.8033 175.546H14.3946C14.2445 175.546 14.0959 175.516 13.9573 175.459C13.8187 175.401 13.6927 175.317 13.5866 175.211C13.4805 175.105 13.3964 174.979 13.3389 174.84C13.2815 174.702 13.252 174.553 13.252 174.403C13.2525 174.1 13.3731 173.81 13.5873 173.597C13.8016 173.383 14.0919 173.263 14.3946 173.263H20.8033C21.106 173.263 21.3963 173.383 21.6105 173.597C21.8247 173.81 21.9454 174.1 21.9459 174.403C21.9459 174.553 21.9163 174.702 21.8589 174.84C21.8015 174.979 21.7173 175.105 21.6112 175.211C21.5051 175.317 21.3792 175.401 21.2405 175.459C21.1019 175.516 20.9533 175.546 20.8033 175.546Z" fill="#C9C9C9"/>
<path d="M35.6389 122.49H73.4562C74.7702 122.49 76.0305 123.012 76.9597 123.942C77.8888 124.871 78.4108 126.131 78.4108 127.445V131.993H31.7115V126.418C31.7113 125.902 31.8127 125.391 32.01 124.914C32.2072 124.438 32.4965 124.005 32.8612 123.64C33.226 123.275 33.659 122.986 34.1356 122.789C34.6122 122.591 35.1231 122.49 35.6389 122.49Z" fill="#FC7C26"/>
<path d="M11.361 173.999H31.7116V180.703H11.361C11.1267 180.703 10.9019 180.61 10.7361 180.444C10.5704 180.278 10.4773 180.053 10.4773 179.819V174.883C10.4773 174.648 10.5704 174.423 10.7361 174.258C10.9019 174.092 11.1267 173.999 11.361 173.999Z" fill="#262626"/>
<path d="M48.9881 178.221H29.5011V188.766H48.9881V178.221Z" fill="#2B2B2B"/>
<path d="M37.115 190.648H28.4373V204.204H37.115V190.648Z" fill="#242424"/>
<path d="M28.047 184.557H61.8379V194.792H28.047C27.2216 194.792 26.43 194.464 25.8463 193.881C25.2626 193.297 24.9347 192.505 24.9347 191.68V187.668C24.9352 186.842 25.2634 186.051 25.847 185.468C26.4306 184.885 27.2219 184.557 28.047 184.557Z" fill="#4D4D4D"/>
<path d="M31.7114 191.712C32.959 191.712 33.9704 190.701 33.9704 189.453C33.9704 188.206 32.959 187.194 31.7114 187.194C30.4639 187.194 29.4525 188.206 29.4525 189.453C29.4525 190.701 30.4639 191.712 31.7114 191.712Z" fill="#C9C9C9"/>
<path d="M19.6727 148.18H15.7231V156.374H19.6727V148.18Z" fill="#141414"/>
<path d="M29.8976 143.579H48.5879C48.9059 143.579 49.211 143.705 49.4359 143.93C49.6608 144.155 49.7871 144.46 49.7871 144.778V177.473C49.7871 177.672 49.7081 177.863 49.5674 178.004C49.4267 178.144 49.2358 178.223 49.0368 178.223H29.4507C29.2517 178.223 29.0609 178.144 28.9202 178.004C28.7795 177.863 28.7004 177.672 28.7004 177.473V144.776C28.701 144.459 28.8273 144.155 29.0517 143.93C29.2761 143.706 29.5803 143.58 29.8976 143.579Z" fill="#4D4D4D"/>
<path d="M23.6425 153.025H11.7554V157.543H23.6425V153.025Z" fill="#212121"/>
<path d="M48.2805 143.579H30.2051C30.2051 141.708 33.101 140.19 34.8382 140.19H43.6474C45.3846 140.19 48.2805 141.708 48.2805 143.579Z" fill="#363636"/>
<path d="M15.1932 111.376V147.721L22.1682 152.926L15.9779 173.999H28.7003V143.579L22.3644 111.376H15.1932Z" fill="#262626"/>
<path d="M21.974 0.862305H15.8767C14.5766 0.862305 13.5227 1.91621 13.5227 3.21628V46.2471C13.5227 47.5472 14.5766 48.6011 15.8767 48.6011H21.974C23.274 48.6011 24.3279 47.5472 24.3279 46.2471V3.21628C24.3279 1.91621 23.274 0.862305 21.974 0.862305Z" fill="#363636"/>
<path d="M32.7774 238.832C44.5774 238.832 54.1431 229.266 54.1431 217.466C54.1431 205.666 44.5774 196.101 32.7774 196.101C20.9774 196.101 11.4116 205.666 11.4116 217.466C11.4116 229.266 20.9774 238.832 32.7774 238.832Z" fill="#323232"/>
<path d="M44.2381 228.928C50.5688 222.598 50.5688 212.333 44.2381 206.003C37.9073 199.672 27.6432 199.672 21.3124 206.003C14.9817 212.333 14.9817 222.598 21.3124 228.928C27.6432 235.259 37.9073 235.259 44.2381 228.928Z" fill="#F78921"/>
<path d="M32.7774 221.592C35.0558 221.592 36.9029 219.745 36.9029 217.466C36.9029 215.188 35.0558 213.341 32.7774 213.341C30.4989 213.341 28.6519 215.188 28.6519 217.466C28.6519 219.745 30.4989 221.592 32.7774 221.592Z" fill="#C9C9C9"/>
<path d="M290.295 238.832C296.385 238.832 301.322 233.895 301.322 227.804C301.322 221.714 296.385 216.777 290.295 216.777C284.204 216.777 279.267 221.714 279.267 227.804C279.267 233.895 284.204 238.832 290.295 238.832Z" fill="#323232"/>
<path d="M290.295 236.171C294.915 236.171 298.661 232.425 298.661 227.804C298.661 223.184 294.915 219.438 290.295 219.438C285.674 219.438 281.928 223.184 281.928 227.804C281.928 232.425 285.674 236.171 290.295 236.171Z" fill="#F78921"/>
<path d="M290.295 229.934C291.471 229.934 292.424 228.98 292.424 227.804C292.424 226.628 291.471 225.675 290.295 225.675C289.119 225.675 288.165 226.628 288.165 227.804C288.165 228.98 289.119 229.934 290.295 229.934Z" fill="#C9C9C9"/>
<path d="M314.755 238.832C320.845 238.832 325.782 233.895 325.782 227.804C325.782 221.714 320.845 216.777 314.755 216.777C308.664 216.777 303.727 221.714 303.727 227.804C303.727 233.895 308.664 238.832 314.755 238.832Z" fill="#323232"/>
<path d="M314.755 236.171C319.375 236.171 323.121 232.425 323.121 227.804C323.121 223.184 319.375 219.438 314.755 219.438C310.134 219.438 306.388 223.184 306.388 227.804C306.388 232.425 310.134 236.171 314.755 236.171Z" fill="#F78921"/>
<path d="M314.755 229.934C315.931 229.934 316.884 228.98 316.884 227.804C316.884 226.628 315.931 225.675 314.755 225.675C313.579 225.675 312.625 226.628 312.625 227.804C312.625 228.98 313.579 229.934 314.755 229.934Z" fill="#C9C9C9"/>
<path d="M61.8357 214.748L55.152 126.606C55.1395 126.268 55.1953 125.93 55.3161 125.614C55.4369 125.298 55.6203 125.01 55.8551 124.766C56.09 124.523 56.3716 124.329 56.683 124.197C56.9945 124.065 57.3294 123.997 57.6677 123.997H77.0678C77.4405 123.997 77.801 124.13 78.0843 124.372C78.3675 124.614 78.555 124.949 78.6129 125.318L101.129 214.746L61.8357 214.748Z" fill="#FCA026"/>
<path d="M82.7633 201.221C84.2339 199.75 84.2339 197.366 82.7633 195.895C81.2928 194.425 78.9086 194.425 77.438 195.895C75.9675 197.366 75.9675 199.75 77.438 201.221C78.9086 202.691 81.2928 202.691 82.7633 201.221Z" fill="#FBB252"/>
<path d="M81.698 200.155C82.5802 199.273 82.5802 197.843 81.698 196.961C80.8159 196.079 79.3856 196.079 78.5034 196.961C77.6213 197.843 77.6213 199.273 78.5034 200.155C79.3856 201.037 80.8159 201.037 81.698 200.155Z" fill="#A69B8D"/>
<path d="M340.699 226.799H58.9765C58.0705 226.799 57.3344 225.966 57.3344 224.941V216.285C57.3344 214.615 58.5316 213.252 60.0078 213.252H358.299C359.537 213.252 360.542 214.388 360.542 215.79V216.781C360.542 217.887 359.935 218.876 359.009 219.254L340.699 226.799Z" fill="#FBB252"/>
<path d="M338.048 231.534H109.221V236.189H338.048V231.534Z" fill="#F8CE84"/>
<path d="M338.048 208.637H109.221V213.292H338.048V208.637Z" fill="#F8CE84"/>
<path d="M237.658 213.292H209.608V231.534H237.658V213.292Z" fill="#F09E5B"/>
<path d="M139.376 213.292H111.326V231.534H139.376V213.292Z" fill="#F09E5B"/>
<path d="M335.94 213.292H307.891V231.534H335.94V213.292Z" fill="#F09E5B"/>
<path d="M256.474 90.7036H187.885V99.3692H256.474V90.7036Z" fill="#ED8945"/>
<path d="M256.474 38.0426H187.885V94.6694H256.474V38.0426Z" fill="#FFAD6E"/>
<path d="M231.158 75.2572H213.202V94.6714H231.158V75.2572Z" fill="#FFC59E"/>
<path d="M231.158 38.0426H213.202V57.4568H231.158V38.0426Z" fill="#FFC59E"/>
<path fill-rule="evenodd" clip-rule="evenodd" d="M206.152 89.294C206.152 89.294 206.158 89.3062 206.158 89.294H206.152ZM205.198 90.918H205.348C205.527 90.9222 205.703 90.8668 205.847 90.7602L206.092 90.4508C206.144 90.3975 206.187 90.336 206.219 90.2688C206.233 90.2406 206.241 90.2094 206.241 90.1778C206.241 90.1462 206.233 90.115 206.219 90.0868L205.879 89.5286L205.829 89.4457L205.922 89.3952L206.082 89.3062L204.715 89.0857L204.28 90.1738L204.433 90.0868L204.537 90.0302L204.603 90.1191L205.198 90.918ZM203.489 90.918H204.905L204.456 90.3113L204.253 90.4205H204.239H204.227C204.199 90.4268 204.169 90.4268 204.14 90.4205C204.098 90.4178 204.059 90.3998 204.029 90.3699C204.003 90.342 203.987 90.3052 203.987 90.2668C203.987 90.2141 203.999 90.1622 204.023 90.1151L204.506 88.9017L204.541 88.8168L204.644 88.835L206.118 89.0716C206.29 89.1019 206.365 89.1585 206.381 89.2233C206.397 89.288 206.345 89.3608 206.274 89.4073L206.142 89.4781L206.434 89.9553C206.463 90.0071 206.479 90.0649 206.482 90.1243C206.485 90.1837 206.474 90.2428 206.45 90.2971C206.41 90.3861 206.355 90.4676 206.288 90.5378L205.159 92.0626C205.097 92.1737 205.004 92.2646 204.891 92.3248C204.779 92.385 204.652 92.4119 204.524 92.4023H203.228V91.1303C203.232 90.9665 203.327 90.926 203.489 90.918Z" fill="#85583C"/>
<path d="M200.767 88.204C200.767 88.204 200.777 88.202 200.767 88.202V88.204ZM203.127 88.0685L202.688 88.8633L202.904 88.9442H202.918H202.931C202.952 88.9602 202.971 88.9801 202.985 89.0029C202.993 89.0196 202.997 89.0379 202.997 89.0564C202.997 89.075 202.993 89.0933 202.985 89.11C202.969 89.1473 202.94 89.178 202.904 89.197C202.852 89.224 202.795 89.2424 202.736 89.2516L201.276 89.559L201.175 89.5792L201.135 89.4963L200.575 88.3153C200.512 88.1757 200.528 88.0928 200.575 88.0443C200.61 88.0204 200.65 88.0059 200.692 88.0024C200.734 87.9989 200.777 88.0063 200.815 88.0241L200.957 88.0787L201.272 87.6135C201.352 87.5056 201.471 87.4331 201.604 87.4113C201.711 87.392 201.821 87.3872 201.93 87.3971H203.934L203.02 87.6216L201.938 87.6034C201.854 87.5924 201.77 87.5924 201.687 87.6034C201.617 87.613 201.553 87.6492 201.509 87.7045L201.139 88.2485L201.084 88.3294L200.985 88.291L200.809 88.2243L201.329 89.3204L202.643 89.0433L202.474 88.9806L202.36 88.9361L202.413 88.8411L202.906 87.9533L203.127 88.0685Z" fill="#85583C"/>
<path fill-rule="evenodd" clip-rule="evenodd" d="M203.817 89.2293L202.805 87.9027C202.69 87.7536 202.522 87.6539 202.336 87.6236L203 87.4376L204.069 87.4012C204.427 87.3809 204.627 87.4861 204.753 87.6701L205.453 88.5963L204.191 89.2819C203.988 89.3871 203.906 89.3466 203.808 89.2293H203.817Z" fill="#85583C"/>
<path fill-rule="evenodd" clip-rule="evenodd" d="M202.241 92.6815C202.235 92.6775 202.227 92.6775 202.241 92.6815V92.6815ZM201.074 91.1587L200.999 91.2679C200.953 91.3313 200.921 91.4037 200.905 91.4804C200.889 91.5571 200.89 91.6363 200.906 91.7128L201.103 92.0445C201.133 92.1124 201.174 92.1752 201.224 92.2306C201.274 92.2824 201.341 92.3141 201.412 92.3195L202.15 92.3539H202.261V92.4469V92.6108L203.18 91.723L202.296 90.8513V91.0091V91.1143H202.172L201.074 91.1587ZM201.942 89.9089L201.22 90.9484L202.065 90.9282V90.726V90.7118C202.07 90.6861 202.082 90.6623 202.1 90.643C202.128 90.6116 202.167 90.5921 202.209 90.5884C202.252 90.5826 202.295 90.5897 202.334 90.6087C202.385 90.6342 202.431 90.6692 202.47 90.7118L203.451 91.6764L203.519 91.7452L203.451 91.8119L202.462 92.7705C202.342 92.8797 202.247 92.906 202.172 92.8858C202.135 92.8744 202.103 92.8517 202.079 92.8209C202.056 92.7901 202.042 92.7527 202.041 92.7139V92.5804L201.41 92.5521C201.275 92.5442 201.149 92.4865 201.054 92.3903C200.987 92.3208 200.932 92.2401 200.892 92.1517L199.916 90.55C199.836 90.4648 199.789 90.3537 199.785 90.237C199.781 90.1204 199.818 90.0061 199.891 89.915L200.549 88.9666L201.841 89.6117C202.025 89.6966 202.021 89.7836 201.942 89.9089Z" fill="#85583C"/>
<path d="M206.585 86.3274H199.675C199.459 86.3157 199.247 86.3893 199.085 86.5323C198.923 86.6753 198.824 86.8763 198.809 87.0918V93.1911C198.824 93.4065 198.924 93.6072 199.086 93.7499C199.248 93.8926 199.459 93.9658 199.675 93.9535H206.585C206.692 93.9606 206.799 93.9465 206.9 93.912C207.001 93.8774 207.095 93.8231 207.175 93.7522C207.255 93.6813 207.32 93.5952 207.367 93.4989C207.414 93.4025 207.441 93.2979 207.447 93.1911V87.0918C207.432 86.8768 207.333 86.6762 207.172 86.5332C207.011 86.3902 206.8 86.3163 206.585 86.3274ZM206.931 93.094C206.922 93.2078 206.87 93.3138 206.785 93.3893C206.699 93.4649 206.588 93.5041 206.474 93.4985H199.786C199.672 93.5052 199.56 93.4663 199.474 93.3906C199.388 93.3148 199.336 93.2082 199.329 93.094V87.1909C199.332 87.1343 199.347 87.0789 199.372 87.0279C199.396 86.9769 199.431 86.9313 199.473 86.8938C199.516 86.8562 199.565 86.8274 199.619 86.8089C199.673 86.7905 199.729 86.7829 199.786 86.7864H206.474C206.588 86.7803 206.7 86.8193 206.785 86.895C206.871 86.9707 206.923 87.077 206.931 87.1909V93.094Z" fill="#85583C"/>
<path d="M196.383 93.0556H191.883C191.863 93.059 191.843 93.0581 191.824 93.053C191.805 93.0478 191.788 93.0386 191.772 93.0258C191.757 93.0131 191.745 92.9973 191.737 92.9793C191.728 92.9614 191.724 92.9419 191.724 92.9221C191.724 92.9024 191.728 92.8828 191.737 92.8649C191.745 92.847 191.757 92.8311 191.772 92.8184C191.788 92.8057 191.805 92.7964 191.824 92.7913C191.843 92.7861 191.863 92.7852 191.883 92.7886H196.383C196.402 92.7852 196.422 92.7861 196.441 92.7913C196.46 92.7964 196.478 92.8057 196.493 92.8184C196.508 92.8311 196.52 92.847 196.529 92.8649C196.537 92.8828 196.541 92.9024 196.541 92.9221C196.541 92.9419 196.537 92.9614 196.529 92.9793C196.52 92.9973 196.508 93.0131 196.493 93.0258C196.478 93.0386 196.46 93.0478 196.441 93.053C196.422 93.0581 196.402 93.059 196.383 93.0556Z" fill="#85583C"/>
<path fill-rule="evenodd" clip-rule="evenodd" d="M193.444 88.2425V92.2305H192.491V88.2405H192.024L192.987 87.2192L193.943 88.2446L193.444 88.2425Z" fill="#85583C"/>
<path fill-rule="evenodd" clip-rule="evenodd" d="M195.78 88.2465V92.2325H194.827V88.2425H194.36L195.323 87.2212L196.279 88.2465H195.78Z" fill="#85583C"/>
<path d="M197.59 86.3274H190.68C190.464 86.3157 190.252 86.3892 190.089 86.5322C189.927 86.6752 189.828 86.8761 189.812 87.0918V93.1911C189.828 93.4066 189.927 93.6074 190.09 93.75C190.252 93.8927 190.464 93.9658 190.68 93.9535H197.59C197.697 93.9607 197.804 93.9465 197.905 93.912C198.006 93.8774 198.1 93.8231 198.18 93.7522C198.26 93.6813 198.325 93.5952 198.372 93.4989C198.418 93.4026 198.445 93.2979 198.451 93.1911V87.0918C198.437 86.8768 198.338 86.6762 198.177 86.5332C198.016 86.3902 197.805 86.3163 197.59 86.3274ZM197.936 93.094C197.927 93.2078 197.875 93.3138 197.789 93.3893C197.704 93.4649 197.592 93.5041 197.479 93.4985H190.789C190.675 93.5052 190.562 93.4663 190.477 93.3906C190.391 93.3148 190.339 93.2082 190.332 93.094V87.1909C190.335 87.1343 190.35 87.0789 190.374 87.0279C190.399 86.9769 190.434 86.9314 190.476 86.8938C190.519 86.8562 190.568 86.8274 190.622 86.809C190.675 86.7905 190.732 86.7829 190.789 86.7864H197.477C197.591 86.7803 197.702 86.8193 197.788 86.895C197.874 86.9707 197.926 87.077 197.934 87.1909L197.936 93.094Z" fill="#85583C"/>
<path d="M187.353 147.688H118.764V156.354H187.353V147.688Z" fill="#ED8945"/>
<path d="M256.476 147.688H187.887V156.354H256.476V147.688Z" fill="#ED8945"/>
<path d="M187.353 152.01H118.764V208.637H187.353V152.01Z" fill="#FFAD6E"/>
<path d="M162.036 189.223H144.079V208.637H162.036V189.223Z" fill="#FFC59E"/>
<path d="M162.036 152.01H144.079V171.424H162.036V152.01Z" fill="#FFC59E"/>
<path fill-rule="evenodd" clip-rule="evenodd" d="M137.032 203.262C137.032 203.262 137.036 203.272 137.032 203.272V203.262ZM136.077 204.886H136.225C136.404 204.889 136.579 204.833 136.724 204.728L136.971 204.416C137.023 204.362 137.065 204.3 137.096 204.232C137.111 204.204 137.118 204.173 137.118 204.141C137.118 204.11 137.111 204.079 137.096 204.05L136.755 203.494L136.704 203.411L136.797 203.361L136.959 203.272L135.592 203.051L135.155 204.139L135.311 204.052L135.414 203.994L135.481 204.083L136.077 204.886ZM134.368 204.886H135.784L135.335 204.279L135.133 204.388H135.119H135.107C135.078 204.392 135.048 204.392 135.02 204.388C134.978 204.385 134.938 204.367 134.908 204.338C134.881 204.309 134.865 204.272 134.864 204.232C134.866 204.181 134.879 204.13 134.9 204.083L135.384 202.869L135.418 202.784L135.521 202.801L136.997 203.039C137.167 203.07 137.242 203.126 137.26 203.191C137.279 203.256 137.224 203.328 137.151 203.375L137.02 203.448L137.313 203.925C137.342 203.977 137.359 204.035 137.362 204.094C137.364 204.153 137.353 204.213 137.329 204.267C137.289 204.355 137.234 204.437 137.167 204.507L136.037 206.032C135.974 206.143 135.881 206.234 135.768 206.294C135.656 206.354 135.529 206.381 135.402 206.372H134.105V205.1C134.11 204.934 134.199 204.89 134.366 204.89L134.368 204.886Z" fill="#85583C"/>
<path d="M131.644 202.17C131.644 202.17 131.654 202.162 131.644 202.17V202.17ZM134.006 202.036L133.567 202.829L133.782 202.912H133.798C133.82 202.926 133.839 202.945 133.852 202.968C133.861 202.985 133.865 203.003 133.865 203.022C133.865 203.041 133.861 203.059 133.852 203.076C133.837 203.113 133.809 203.144 133.774 203.163C133.721 203.192 133.663 203.211 133.604 203.219L132.146 203.525L132.042 203.547L132.004 203.464L131.444 202.283C131.381 202.143 131.397 202.058 131.444 202.012C131.479 201.988 131.519 201.973 131.561 201.969C131.603 201.965 131.646 201.972 131.685 201.99L131.826 202.044L132.142 201.579C132.222 201.473 132.34 201.4 132.471 201.377C132.579 201.358 132.689 201.354 132.799 201.363H134.783L133.869 201.587L132.787 201.567C132.703 201.556 132.618 201.556 132.534 201.567C132.465 201.577 132.402 201.613 132.358 201.668L131.988 202.212L131.933 202.293L131.832 202.255L131.658 202.188L132.178 203.282L133.493 203.007L133.323 202.942L133.209 202.9L133.262 202.805L133.753 201.917L134.006 202.036Z" fill="#85583C"/>
<path fill-rule="evenodd" clip-rule="evenodd" d="M134.694 203.197L133.682 201.868C133.568 201.719 133.401 201.619 133.215 201.589L133.877 201.405L134.948 201.367C135.076 201.344 135.208 201.357 135.329 201.405C135.45 201.453 135.555 201.533 135.632 201.638L136.332 202.562L135.07 203.249C134.868 203.355 134.785 203.312 134.686 203.197H134.694Z" fill="#85583C"/>
<path fill-rule="evenodd" clip-rule="evenodd" d="M131.954 205.128L131.879 205.237C131.832 205.301 131.8 205.373 131.784 205.45C131.768 205.526 131.768 205.606 131.786 205.682L131.976 206.018C132.005 206.086 132.046 206.149 132.097 206.204C132.147 206.256 132.214 206.288 132.285 206.293L133.023 206.325H133.133V206.418V206.58L134.049 205.692L133.165 204.823V204.981V205.086H133.041L131.954 205.128ZM132.821 203.878L132.099 204.918L132.944 204.898L132.932 204.695V204.669C132.939 204.644 132.952 204.622 132.969 204.602C132.997 204.572 133.035 204.552 133.076 204.546C133.12 204.541 133.164 204.549 133.203 204.568C133.255 204.594 133.301 204.629 133.339 204.671L134.32 205.636L134.388 205.705L134.32 205.771L133.329 206.73C133.211 206.839 133.116 206.865 133.041 206.845C133.004 206.834 132.971 206.811 132.948 206.779C132.924 206.748 132.911 206.71 132.91 206.671V206.54L132.279 206.511C132.144 206.503 132.017 206.445 131.921 206.35C131.855 206.279 131.8 206.197 131.759 206.109L130.783 204.509C130.703 204.424 130.657 204.312 130.653 204.195C130.649 204.078 130.687 203.963 130.76 203.872L131.418 202.926L132.71 203.571C132.902 203.664 132.9 203.749 132.821 203.878Z" fill="#85583C"/>
<path d="M137.462 200.295H130.554C130.338 200.283 130.127 200.356 129.965 200.499C129.802 200.642 129.703 200.842 129.687 201.057V207.159C129.702 207.374 129.802 207.575 129.964 207.718C130.126 207.86 130.338 207.933 130.554 207.921H137.462C137.678 207.933 137.889 207.86 138.051 207.717C138.212 207.575 138.311 207.374 138.326 207.159V201.057C138.311 200.842 138.212 200.642 138.05 200.499C137.889 200.357 137.678 200.283 137.462 200.295ZM137.808 207.062C137.8 207.175 137.747 207.281 137.662 207.357C137.577 207.432 137.465 207.472 137.351 207.466H130.665C130.551 207.473 130.439 207.434 130.353 207.358C130.267 207.282 130.214 207.176 130.206 207.062V201.156C130.214 201.042 130.266 200.935 130.352 200.859C130.438 200.783 130.551 200.745 130.665 200.752H137.351C137.465 200.746 137.577 200.785 137.663 200.861C137.748 200.936 137.8 201.042 137.808 201.156V207.062Z" fill="#85583C"/>
<path d="M127.26 207.029H122.76C122.741 207.033 122.721 207.032 122.702 207.027C122.683 207.021 122.665 207.012 122.65 206.999C122.635 206.987 122.622 206.971 122.614 206.953C122.606 206.935 122.601 206.916 122.601 206.896C122.601 206.876 122.606 206.856 122.614 206.839C122.622 206.821 122.635 206.805 122.65 206.792C122.665 206.779 122.683 206.77 122.702 206.765C122.721 206.76 122.741 206.759 122.76 206.762H127.26C127.279 206.759 127.299 206.76 127.318 206.765C127.337 206.77 127.355 206.779 127.37 206.792C127.385 206.805 127.398 206.821 127.406 206.839C127.414 206.856 127.419 206.876 127.419 206.896C127.419 206.916 127.414 206.935 127.406 206.953C127.398 206.971 127.385 206.987 127.37 206.999C127.355 207.012 127.337 207.021 127.318 207.027C127.299 207.032 127.279 207.033 127.26 207.029Z" fill="#85583C"/>
<path fill-rule="evenodd" clip-rule="evenodd" d="M124.321 202.21V206.196H123.371V202.208L122.902 202.206L123.866 201.187L124.821 202.212L124.321 202.21Z" fill="#85583C"/>
<path fill-rule="evenodd" clip-rule="evenodd" d="M126.657 202.212V206.198H125.707V202.21L125.24 202.208L126.202 201.189L127.157 202.214L126.657 202.212Z" fill="#85583C"/>
<path d="M128.467 200.295H121.559C121.343 200.283 121.132 200.356 120.97 200.499C120.807 200.642 120.707 200.842 120.691 201.057V207.159C120.707 207.374 120.807 207.575 120.969 207.718C121.131 207.86 121.343 207.933 121.559 207.921H128.467C128.683 207.933 128.894 207.86 129.056 207.717C129.217 207.575 129.316 207.374 129.331 207.159V201.057C129.316 200.842 129.217 200.642 129.055 200.499C128.894 200.357 128.682 200.283 128.467 200.295ZM128.813 207.062C128.805 207.175 128.752 207.281 128.667 207.357C128.581 207.432 128.47 207.472 128.356 207.466H121.67C121.556 207.473 121.443 207.434 121.357 207.358C121.272 207.282 121.219 207.176 121.211 207.062V201.156C121.218 201.042 121.271 200.935 121.357 200.859C121.443 200.783 121.556 200.745 121.67 200.752H128.356C128.47 200.745 128.582 200.784 128.668 200.86C128.754 200.936 128.806 201.042 128.813 201.156V207.062Z" fill="#85583C"/>
<path d="M187.353 95.0273H118.764V151.654H187.353V95.0273Z" fill="#FFAD6E"/>
<path d="M162.036 132.242H144.079V151.656H162.036V132.242Z" fill="#FFC59E"/>
<path d="M162.036 95.0273H144.079V114.442H162.036V95.0273Z" fill="#FFC59E"/>
<path fill-rule="evenodd" clip-rule="evenodd" d="M137.032 146.279C137.032 146.279 137.036 146.291 137.032 146.279V146.279ZM136.077 147.903H136.225C136.404 147.907 136.58 147.852 136.724 147.745L136.971 147.436C137.023 147.383 137.066 147.321 137.096 147.254C137.111 147.225 137.118 147.194 137.118 147.163C137.118 147.131 137.111 147.1 137.096 147.072L136.755 146.513L136.704 146.431L136.797 146.38L136.959 146.291L135.592 146.071L135.155 147.159L135.311 147.072L135.414 147.015L135.481 147.104L136.077 147.903ZM134.368 147.903H135.784L135.335 147.296L135.133 147.405H135.119H135.107C135.078 147.412 135.048 147.412 135.02 147.405C134.978 147.403 134.938 147.385 134.908 147.355C134.881 147.327 134.866 147.29 134.864 147.252C134.866 147.199 134.878 147.148 134.9 147.1L135.384 145.887L135.418 145.802L135.521 145.82L136.997 146.056C137.167 146.087 137.242 146.143 137.26 146.208C137.279 146.273 137.224 146.346 137.151 146.392L137.02 146.463L137.313 146.94C137.342 146.992 137.359 147.05 137.362 147.109C137.364 147.169 137.353 147.228 137.329 147.282C137.289 147.371 137.234 147.452 137.167 147.523L136.037 149.047C135.974 149.159 135.881 149.25 135.769 149.31C135.656 149.37 135.529 149.397 135.402 149.387H134.105V148.115C134.11 147.951 134.199 147.911 134.366 147.903H134.368Z" fill="#85583C"/>
<path d="M131.644 145.189C131.644 145.189 131.654 145.181 131.644 145.189V145.189ZM134.006 145.055L133.567 145.848L133.782 145.929H133.798C133.821 145.944 133.839 145.964 133.852 145.988C133.861 146.004 133.865 146.023 133.865 146.041C133.865 146.06 133.861 146.078 133.852 146.095C133.836 146.132 133.809 146.162 133.774 146.182C133.72 146.209 133.663 146.227 133.604 146.236L132.146 146.544L132.042 146.564L132.004 146.481L131.444 145.3C131.381 145.16 131.397 145.078 131.444 145.029C131.479 145.005 131.519 144.991 131.562 144.987C131.604 144.984 131.646 144.991 131.685 145.009L131.826 145.063L132.142 144.598C132.221 144.491 132.339 144.418 132.471 144.396C132.579 144.377 132.689 144.372 132.799 144.382H134.783L133.869 144.606L132.787 144.588C132.703 144.577 132.618 144.577 132.534 144.588C132.465 144.598 132.402 144.634 132.358 144.689L131.988 145.233L131.933 145.314L131.832 145.276L131.658 145.209L132.178 146.305L133.493 146.028L133.323 145.965L133.209 145.921L133.262 145.826L133.753 144.938L134.006 145.055Z" fill="#85583C"/>
<path fill-rule="evenodd" clip-rule="evenodd" d="M134.694 146.214L133.682 144.888C133.568 144.738 133.401 144.639 133.215 144.608L133.877 144.422L134.948 144.386C135.304 144.366 135.505 144.471 135.632 144.655L136.332 145.581L135.07 146.267C134.868 146.372 134.785 146.331 134.686 146.214H134.694Z" fill="#85583C"/>
<path fill-rule="evenodd" clip-rule="evenodd" d="M133.12 149.666C133.12 149.666 133.106 149.662 133.12 149.666V149.666ZM131.954 148.143L131.879 148.253C131.832 148.316 131.8 148.388 131.784 148.465C131.768 148.542 131.768 148.621 131.786 148.698L131.976 149.035C132.005 149.104 132.046 149.167 132.097 149.221C132.147 149.273 132.214 149.305 132.285 149.31L133.023 149.345H133.133V149.438V149.602L134.049 148.714L133.165 147.842V148V148.105H133.042L131.954 148.143ZM132.821 146.894L132.099 147.933L132.944 147.913L132.932 147.711V147.686C132.939 147.661 132.951 147.637 132.969 147.618C132.996 147.587 133.035 147.567 133.076 147.563C133.119 147.557 133.164 147.564 133.203 147.583C133.255 147.609 133.301 147.644 133.339 147.686L134.32 148.651L134.388 148.72L134.32 148.787L133.329 149.745C133.211 149.854 133.116 149.881 133.042 149.86C133.004 149.85 132.971 149.827 132.947 149.796C132.924 149.765 132.911 149.727 132.91 149.689V149.555L132.279 149.527C132.144 149.518 132.017 149.461 131.921 149.365C131.854 149.295 131.8 149.214 131.759 149.126L130.783 147.525C130.703 147.439 130.657 147.328 130.653 147.211C130.649 147.095 130.687 146.98 130.76 146.89L131.418 145.941L132.71 146.586C132.902 146.681 132.9 146.768 132.821 146.894Z" fill="#85583C"/>
<path d="M137.462 143.312H130.554C130.338 143.3 130.126 143.374 129.964 143.517C129.802 143.66 129.702 143.861 129.687 144.077V150.176C129.702 150.391 129.802 150.592 129.964 150.735C130.126 150.877 130.338 150.951 130.554 150.938H137.462C137.678 150.95 137.889 150.877 138.051 150.735C138.212 150.592 138.311 150.391 138.326 150.176V144.077C138.311 143.861 138.212 143.66 138.051 143.517C137.889 143.374 137.678 143.3 137.462 143.312ZM137.804 150.085C137.796 150.199 137.743 150.305 137.658 150.38C137.573 150.456 137.461 150.495 137.347 150.489H130.665C130.551 150.496 130.439 150.457 130.353 150.381C130.267 150.306 130.214 150.199 130.206 150.085V144.176C130.214 144.061 130.266 143.954 130.352 143.878C130.438 143.803 130.551 143.764 130.665 143.771H137.351C137.465 143.765 137.577 143.804 137.663 143.88C137.748 143.955 137.8 144.062 137.808 144.176L137.804 150.085Z" fill="#85583C"/>
<path d="M127.26 150.046H122.76C122.741 150.05 122.721 150.049 122.702 150.044C122.683 150.039 122.665 150.029 122.65 150.017C122.635 150.004 122.622 149.988 122.614 149.97C122.606 149.952 122.601 149.933 122.601 149.913C122.601 149.893 122.606 149.874 122.614 149.856C122.622 149.838 122.635 149.822 122.65 149.809C122.665 149.797 122.683 149.787 122.702 149.782C122.721 149.777 122.741 149.776 122.76 149.779H127.26C127.279 149.776 127.299 149.777 127.318 149.782C127.337 149.787 127.355 149.797 127.37 149.809C127.385 149.822 127.398 149.838 127.406 149.856C127.414 149.874 127.419 149.893 127.419 149.913C127.419 149.933 127.414 149.952 127.406 149.97C127.398 149.988 127.385 150.004 127.37 150.017C127.355 150.029 127.337 150.039 127.318 150.044C127.299 150.049 127.279 150.05 127.26 150.046Z" fill="#85583C"/>
<path fill-rule="evenodd" clip-rule="evenodd" d="M124.321 145.229V149.215H123.371V145.225H122.902L123.866 144.204L124.821 145.229H124.321Z" fill="#85583C"/>
<path fill-rule="evenodd" clip-rule="evenodd" d="M126.657 145.231V149.217H125.707V145.227H125.24L126.202 144.206L127.157 145.231H126.657Z" fill="#85583C"/>
<path d="M128.467 143.312H121.559C121.343 143.3 121.131 143.374 120.969 143.517C120.807 143.66 120.707 143.861 120.691 144.077V150.176C120.707 150.391 120.807 150.592 120.969 150.735C121.131 150.877 121.343 150.951 121.559 150.938H128.467C128.683 150.95 128.894 150.877 129.056 150.735C129.217 150.592 129.316 150.391 129.331 150.176V144.077C129.316 143.861 129.217 143.66 129.056 143.517C128.894 143.374 128.683 143.3 128.467 143.312ZM128.813 150.079C128.805 150.193 128.752 150.299 128.667 150.374C128.581 150.45 128.47 150.489 128.356 150.483H121.67C121.556 150.49 121.443 150.451 121.357 150.375C121.272 150.3 121.219 150.193 121.211 150.079V144.176C121.218 144.061 121.271 143.954 121.357 143.878C121.443 143.803 121.556 143.764 121.67 143.771H128.356C128.47 143.765 128.582 143.803 128.668 143.879C128.754 143.955 128.806 144.062 128.813 144.176V150.079Z" fill="#85583C"/>
<path d="M256.476 95.0273H187.887V151.654H256.476V95.0273Z" fill="#FFAD6E"/>
<path d="M231.158 132.242H213.202V151.656H231.158V132.242Z" fill="#FFC59E"/>
<path d="M231.158 95.0273H213.202V114.442H231.158V95.0273Z" fill="#FFC59E"/>
<path fill-rule="evenodd" clip-rule="evenodd" d="M206.154 146.279C206.154 146.279 206.158 146.291 206.158 146.279H206.154ZM205.2 147.903H205.347C205.527 147.907 205.703 147.852 205.847 147.745L206.094 147.436C206.146 147.383 206.188 147.321 206.219 147.254C206.233 147.225 206.241 147.194 206.241 147.163C206.241 147.131 206.233 147.1 206.219 147.072L205.877 146.513L205.827 146.431L205.92 146.38L206.082 146.291L204.712 146.071L204.278 147.159L204.433 147.072L204.537 147.015L204.603 147.104L205.2 147.903ZM203.491 147.903H204.907L204.456 147.296L204.253 147.405H204.239H204.227C204.198 147.412 204.169 147.412 204.14 147.405C204.098 147.403 204.059 147.385 204.029 147.355C204.001 147.328 203.985 147.291 203.984 147.252C203.986 147.199 203.998 147.147 204.021 147.1L204.504 145.887L204.539 145.802L204.642 145.82L206.116 146.056C206.288 146.087 206.363 146.143 206.381 146.208C206.399 146.273 206.344 146.346 206.272 146.392L206.14 146.463L206.431 146.94C206.461 146.992 206.479 147.049 206.482 147.109C206.485 147.168 206.474 147.228 206.45 147.282C206.409 147.371 206.355 147.452 206.288 147.523L205.157 149.047C205.095 149.159 205.002 149.25 204.889 149.31C204.777 149.37 204.65 149.397 204.522 149.387H203.226V148.115C203.232 147.951 203.327 147.911 203.491 147.903Z" fill="#85583C"/>
<path d="M200.767 145.189C200.767 145.189 200.777 145.181 200.767 145.189V145.189ZM203.129 145.055L202.69 145.848L202.904 145.929H202.921C202.943 145.944 202.962 145.964 202.975 145.988C202.983 146.004 202.987 146.023 202.987 146.041C202.987 146.06 202.983 146.078 202.975 146.095C202.959 146.132 202.931 146.162 202.896 146.182C202.843 146.209 202.786 146.227 202.726 146.236L201.268 146.544L201.165 146.564L201.127 146.481L200.567 145.3C200.504 145.16 200.52 145.078 200.567 145.029C200.602 145.005 200.642 144.991 200.684 144.987C200.726 144.984 200.769 144.991 200.807 145.009L200.949 145.063L201.264 144.598C201.344 144.491 201.462 144.418 201.594 144.396C201.702 144.377 201.812 144.372 201.922 144.382H203.905L202.991 144.606L201.909 144.588C201.826 144.577 201.742 144.577 201.659 144.588C201.589 144.599 201.525 144.635 201.481 144.689L201.113 145.233L201.058 145.314L200.957 145.276L200.783 145.209L201.303 146.305L202.617 146.028L202.447 145.965L202.334 145.921L202.387 145.826L202.878 144.938L203.129 145.055Z" fill="#85583C"/>
<path fill-rule="evenodd" clip-rule="evenodd" d="M203.817 146.214L202.806 144.888C202.691 144.738 202.524 144.639 202.338 144.608L203 144.422L204.072 144.386C204.427 144.366 204.628 144.471 204.755 144.655L205.453 145.581L204.193 146.267C203.991 146.372 203.908 146.331 203.809 146.214H203.817Z" fill="#85583C"/>
<path fill-rule="evenodd" clip-rule="evenodd" d="M202.243 149.666C202.235 149.662 202.229 149.662 202.243 149.666V149.666ZM201.076 148.143L201.001 148.253C200.955 148.316 200.923 148.388 200.907 148.465C200.891 148.542 200.891 148.621 200.908 148.698L201.099 149.035C201.128 149.104 201.169 149.167 201.22 149.221C201.269 149.273 201.336 149.305 201.408 149.31L202.146 149.345H202.255V149.438V149.602L203.171 148.714L202.316 147.86V148.018V148.123H202.193L201.076 148.143ZM201.944 146.894L201.222 147.933L202.067 147.913L202.055 147.711V147.686C202.061 147.661 202.073 147.637 202.092 147.618C202.119 147.586 202.157 147.567 202.199 147.563C202.242 147.557 202.286 147.564 202.326 147.583C202.377 147.609 202.423 147.644 202.462 147.686L203.442 148.651L203.511 148.72L203.44 148.787L202.452 149.745C202.334 149.854 202.249 149.881 202.164 149.86C202.127 149.85 202.094 149.827 202.07 149.796C202.047 149.765 202.033 149.727 202.033 149.689V149.555L201.4 149.527C201.266 149.518 201.139 149.46 201.044 149.365C200.977 149.295 200.923 149.214 200.882 149.126L199.905 147.525C199.826 147.439 199.78 147.328 199.776 147.211C199.772 147.095 199.81 146.98 199.883 146.89L200.54 145.941L201.833 146.586C202.025 146.681 202.023 146.768 201.944 146.894Z" fill="#85583C"/>
<path d="M206.585 143.312H199.687C199.471 143.3 199.259 143.374 199.097 143.517C198.935 143.66 198.835 143.861 198.819 144.077V150.176C198.835 150.391 198.935 150.592 199.097 150.735C199.259 150.877 199.471 150.951 199.687 150.938H206.595C206.702 150.945 206.809 150.931 206.91 150.897C207.012 150.862 207.105 150.808 207.185 150.737C207.265 150.666 207.331 150.58 207.377 150.484C207.424 150.387 207.451 150.283 207.457 150.176V144.077C207.442 143.862 207.344 143.661 207.183 143.518C207.021 143.375 206.81 143.301 206.595 143.312H206.585ZM206.931 150.079C206.923 150.193 206.87 150.299 206.785 150.374C206.699 150.45 206.588 150.489 206.474 150.483H199.788C199.674 150.49 199.561 150.451 199.475 150.375C199.389 150.3 199.337 150.193 199.329 150.079V144.176C199.336 144.061 199.389 143.954 199.475 143.878C199.561 143.803 199.674 143.764 199.788 143.771H206.474C206.588 143.765 206.7 143.804 206.785 143.88C206.871 143.955 206.923 144.062 206.931 144.176V150.079Z" fill="#85583C"/>
<path d="M196.383 150.046H191.883C191.863 150.05 191.843 150.049 191.824 150.044C191.805 150.039 191.788 150.029 191.772 150.017C191.757 150.004 191.745 149.988 191.737 149.97C191.728 149.952 191.724 149.933 191.724 149.913C191.724 149.893 191.728 149.874 191.737 149.856C191.745 149.838 191.757 149.822 191.772 149.809C191.788 149.797 191.805 149.787 191.824 149.782C191.843 149.777 191.863 149.776 191.883 149.779H196.383C196.402 149.776 196.422 149.777 196.441 149.782C196.46 149.787 196.478 149.797 196.493 149.809C196.508 149.822 196.52 149.838 196.529 149.856C196.537 149.874 196.541 149.893 196.541 149.913C196.541 149.933 196.537 149.952 196.529 149.97C196.52 149.988 196.508 150.004 196.493 150.017C196.478 150.029 196.46 150.039 196.441 150.044C196.422 150.049 196.402 150.05 196.383 150.046Z" fill="#85583C"/>
<path fill-rule="evenodd" clip-rule="evenodd" d="M193.444 145.229V149.215H192.491V145.225H192.024L192.987 144.204L193.943 145.229H193.444Z" fill="#85583C"/>
<path fill-rule="evenodd" clip-rule="evenodd" d="M195.78 145.231V149.217H194.829V145.227H194.36L195.323 144.206L196.279 145.231H195.78Z" fill="#85583C"/>
<path d="M197.59 143.312H190.682C190.466 143.3 190.254 143.374 190.091 143.517C189.929 143.66 189.83 143.861 189.814 144.077V150.176C189.83 150.391 189.929 150.592 190.092 150.735C190.254 150.877 190.466 150.951 190.682 150.938H197.59C197.697 150.945 197.804 150.931 197.905 150.897C198.006 150.862 198.1 150.808 198.18 150.737C198.26 150.666 198.325 150.58 198.372 150.484C198.418 150.387 198.445 150.283 198.451 150.176V144.077C198.437 143.862 198.338 143.661 198.177 143.518C198.016 143.375 197.805 143.301 197.59 143.312ZM197.936 150.079C197.927 150.193 197.875 150.299 197.789 150.374C197.704 150.45 197.592 150.489 197.479 150.483H190.789C190.674 150.49 190.562 150.451 190.476 150.375C190.39 150.3 190.337 150.193 190.33 150.079V144.176C190.337 144.061 190.389 143.954 190.475 143.878C190.562 143.803 190.674 143.764 190.789 143.771H197.474C197.589 143.765 197.7 143.804 197.786 143.88C197.871 143.955 197.924 144.062 197.932 144.176L197.936 150.079Z" fill="#85583C"/>
<path d="M325.726 147.688H257.137V156.354H325.726V147.688Z" fill="#ED8945"/>
<path d="M325.726 95.0273H257.137V151.654H325.726V95.0273Z" fill="#FFAD6E"/>
<path d="M300.41 132.242H282.454V151.656H300.41V132.242Z" fill="#FFC59E"/>
<path d="M300.41 95.0273H282.454V114.442H300.41V95.0273Z" fill="#FFC59E"/>
<path fill-rule="evenodd" clip-rule="evenodd" d="M275.404 146.279C275.404 146.279 275.408 146.291 275.404 146.279V146.279ZM274.45 147.903H274.6C274.779 147.907 274.955 147.852 275.099 147.745L275.344 147.436C275.396 147.382 275.439 147.321 275.471 147.254C275.485 147.225 275.493 147.194 275.493 147.163C275.493 147.131 275.485 147.1 275.471 147.072L275.131 146.513L275.081 146.431L275.174 146.38L275.334 146.291L273.967 146.071L273.53 147.159L273.685 147.072L273.789 147.015L273.855 147.104L274.45 147.903ZM272.741 147.903H274.157L273.708 147.296L273.505 147.405H273.491H273.479C273.451 147.412 273.421 147.412 273.392 147.405C273.35 147.403 273.311 147.385 273.281 147.355C273.255 147.327 273.239 147.29 273.238 147.252C273.239 147.199 273.251 147.147 273.275 147.1L273.758 145.887L273.793 145.802L273.896 145.82L275.37 146.056C275.542 146.087 275.617 146.143 275.633 146.208C275.649 146.273 275.597 146.346 275.526 146.392L275.396 146.463L275.688 146.94C275.717 146.992 275.733 147.05 275.736 147.109C275.739 147.169 275.728 147.228 275.704 147.282C275.664 147.371 275.609 147.452 275.542 147.523L274.413 149.047C274.351 149.159 274.258 149.25 274.145 149.31C274.033 149.37 273.906 149.397 273.778 149.387H272.49V148.115C272.49 147.951 272.573 147.911 272.741 147.903Z" fill="#85583C"/>
<path d="M270.019 145.189C270.019 145.189 270.029 145.181 270.019 145.189V145.189ZM272.379 145.055L271.94 145.848L272.157 145.929H272.171H272.183C272.205 145.945 272.223 145.965 272.237 145.988C272.245 146.004 272.25 146.023 272.25 146.041C272.25 146.06 272.245 146.078 272.237 146.095C272.221 146.132 272.193 146.163 272.157 146.182C272.104 146.209 272.047 146.227 271.989 146.236L270.529 146.544L270.427 146.564L270.387 146.481L269.827 145.3C269.764 145.161 269.78 145.078 269.827 145.029C269.862 145.005 269.902 144.991 269.944 144.987C269.987 144.984 270.029 144.991 270.067 145.009L270.209 145.064L270.525 144.598C270.605 144.49 270.724 144.418 270.856 144.396C270.964 144.377 271.073 144.372 271.182 144.382H273.166L272.288 144.625L271.206 144.606C271.123 144.595 271.039 144.595 270.955 144.606C270.885 144.616 270.821 144.652 270.777 144.708L270.407 145.252L270.353 145.332L270.254 145.294L270.063 145.231L270.583 146.327L271.898 146.05L271.728 145.988L271.615 145.943L271.667 145.848L272.161 144.96L272.379 145.055Z" fill="#85583C"/>
<path fill-rule="evenodd" clip-rule="evenodd" d="M273.069 146.214L272.058 144.888C271.942 144.738 271.774 144.639 271.588 144.608L272.252 144.422L273.321 144.386C273.679 144.366 273.88 144.471 274.005 144.655L274.705 145.581L273.443 146.267C273.241 146.372 273.158 146.331 273.061 146.214H273.069Z" fill="#85583C"/>
<path fill-rule="evenodd" clip-rule="evenodd" d="M271.493 149.666C271.493 149.666 271.479 149.662 271.493 149.666V149.666ZM270.327 148.143L270.252 148.253C270.206 148.316 270.173 148.388 270.157 148.465C270.141 148.542 270.142 148.621 270.159 148.698L270.349 149.035C270.379 149.104 270.42 149.167 270.47 149.221C270.52 149.273 270.587 149.305 270.658 149.31L271.396 149.345H271.508V149.438V149.602L272.426 148.714L271.542 147.842V148V148.105H271.419L270.327 148.143ZM271.194 146.894L270.472 147.933L271.317 147.913V147.711V147.697V147.686C271.322 147.661 271.334 147.637 271.352 147.618C271.38 147.586 271.419 147.567 271.461 147.563C271.504 147.557 271.547 147.564 271.586 147.583C271.638 147.609 271.684 147.644 271.722 147.686L272.703 148.651L272.771 148.72L272.703 148.787L271.714 149.745C271.595 149.854 271.499 149.881 271.425 149.86C271.388 149.849 271.355 149.826 271.331 149.796C271.308 149.765 271.294 149.727 271.293 149.689V149.555L270.662 149.527C270.528 149.519 270.401 149.461 270.306 149.365C270.239 149.295 270.184 149.215 270.145 149.126L269.168 147.525C269.088 147.439 269.042 147.328 269.037 147.212C269.033 147.095 269.07 146.981 269.143 146.89L269.801 145.941L271.093 146.586C271.277 146.681 271.277 146.768 271.194 146.894Z" fill="#85583C"/>
<path d="M275.837 143.312H268.927C268.711 143.3 268.5 143.374 268.338 143.517C268.176 143.66 268.076 143.861 268.061 144.077V150.176C268.076 150.391 268.176 150.592 268.338 150.735C268.5 150.877 268.711 150.95 268.927 150.938H275.837C275.944 150.945 276.051 150.931 276.152 150.897C276.254 150.862 276.347 150.808 276.427 150.737C276.507 150.666 276.573 150.58 276.619 150.484C276.666 150.387 276.693 150.283 276.699 150.176V144.077C276.684 143.862 276.586 143.661 276.424 143.518C276.263 143.375 276.052 143.301 275.837 143.312ZM276.183 150.079C276.175 150.193 276.122 150.298 276.037 150.374C275.951 150.45 275.84 150.489 275.726 150.483H269.038C268.924 150.49 268.812 150.451 268.726 150.375C268.641 150.3 268.588 150.193 268.581 150.079V144.176C268.584 144.119 268.599 144.064 268.624 144.013C268.649 143.962 268.683 143.916 268.726 143.879C268.768 143.841 268.818 143.812 268.871 143.794C268.925 143.775 268.982 143.768 269.038 143.771H275.726C275.84 143.765 275.952 143.804 276.037 143.88C276.123 143.955 276.175 144.062 276.183 144.176V150.079Z" fill="#85583C"/>
<path d="M265.635 150.046H261.135C261.116 150.05 261.096 150.049 261.077 150.044C261.058 150.039 261.04 150.029 261.025 150.017C261.009 150.004 260.997 149.988 260.989 149.97C260.981 149.952 260.976 149.933 260.976 149.913C260.976 149.893 260.981 149.874 260.989 149.856C260.997 149.838 261.009 149.822 261.025 149.809C261.04 149.797 261.058 149.787 261.077 149.782C261.096 149.777 261.116 149.776 261.135 149.779H265.635C265.654 149.776 265.674 149.777 265.693 149.782C265.712 149.787 265.73 149.797 265.745 149.809C265.76 149.822 265.773 149.838 265.781 149.856C265.789 149.874 265.794 149.893 265.794 149.913C265.794 149.933 265.789 149.952 265.781 149.97C265.773 149.988 265.76 150.004 265.745 150.017C265.73 150.029 265.712 150.039 265.693 150.044C265.674 150.049 265.654 150.05 265.635 150.046Z" fill="#85583C"/>
<path fill-rule="evenodd" clip-rule="evenodd" d="M262.696 145.229V149.215H261.744V145.225H261.276L262.239 144.204L263.196 145.229H262.696Z" fill="#85583C"/>
<path fill-rule="evenodd" clip-rule="evenodd" d="M265.032 145.231V149.217H264.079V145.227H263.612L264.575 144.206L265.531 145.231H265.032Z" fill="#85583C"/>
<path d="M266.842 143.312H259.932C259.716 143.3 259.504 143.374 259.342 143.517C259.179 143.66 259.08 143.861 259.064 144.077V150.176C259.08 150.391 259.18 150.592 259.342 150.735C259.504 150.877 259.716 150.951 259.932 150.938H266.842C266.949 150.945 267.056 150.931 267.157 150.897C267.258 150.862 267.352 150.808 267.432 150.737C267.512 150.666 267.577 150.58 267.624 150.484C267.671 150.387 267.698 150.283 267.704 150.176V144.077C267.689 143.862 267.59 143.661 267.429 143.518C267.268 143.375 267.057 143.301 266.842 143.312ZM267.188 150.079C267.18 150.193 267.127 150.299 267.042 150.374C266.956 150.45 266.845 150.489 266.731 150.483H260.043C259.929 150.49 259.817 150.451 259.731 150.375C259.645 150.3 259.593 150.193 259.586 150.079V144.176C259.589 144.119 259.604 144.064 259.629 144.013C259.653 143.962 259.688 143.916 259.73 143.879C259.773 143.841 259.822 143.812 259.876 143.794C259.93 143.775 259.986 143.768 260.043 143.771H266.731C266.845 143.765 266.957 143.804 267.042 143.88C267.128 143.955 267.18 144.062 267.188 144.176V150.079Z" fill="#85583C"/>
<path d="M256.476 152.01H187.887V208.637H256.476V152.01Z" fill="#FFAD6E"/>
<path d="M231.158 189.223H213.202V208.637H231.158V189.223Z" fill="#FFC59E"/>
<path d="M231.158 152.01H213.202V171.424H231.158V152.01Z" fill="#FFC59E"/>
<path fill-rule="evenodd" clip-rule="evenodd" d="M205.204 204.896H205.352C205.531 204.899 205.706 204.843 205.851 204.738L206.098 204.426C206.149 204.372 206.192 204.31 206.223 204.242C206.237 204.214 206.245 204.183 206.245 204.151C206.245 204.12 206.237 204.089 206.223 204.06L205.881 203.504L205.831 203.421L205.924 203.371L206.086 203.282L204.716 203.061L204.282 204.149L204.437 204.062L204.541 204.004L204.607 204.093L205.204 204.896ZM203.495 204.896H204.911L204.46 204.289L204.257 204.398H204.243H204.231C204.202 204.402 204.173 204.402 204.144 204.398C204.102 204.395 204.063 204.377 204.033 204.348C204.005 204.32 203.989 204.282 203.988 204.242C203.99 204.191 204.002 204.14 204.025 204.093L204.508 202.879L204.543 202.794L204.646 202.811L206.12 203.049C206.292 203.08 206.367 203.136 206.385 203.201C206.403 203.266 206.348 203.338 206.276 203.385L206.144 203.458L206.435 203.935C206.465 203.986 206.483 204.044 206.486 204.104C206.489 204.163 206.478 204.222 206.454 204.277C206.413 204.365 206.359 204.447 206.292 204.517L205.161 206.042C205.098 206.153 205.005 206.244 204.893 206.304C204.781 206.364 204.654 206.391 204.526 206.382H203.23V205.11C203.232 204.934 203.327 204.89 203.491 204.89L203.495 204.896Z" fill="#85583C"/>
<path d="M200.767 202.17C200.767 202.17 200.777 202.162 200.767 202.17V202.17ZM203.129 202.036L202.69 202.829L202.904 202.912H202.921C202.943 202.926 202.962 202.945 202.975 202.968C202.983 202.985 202.987 203.003 202.987 203.022C202.987 203.041 202.983 203.059 202.975 203.076C202.96 203.113 202.932 203.144 202.896 203.163C202.844 203.192 202.786 203.211 202.726 203.219L201.268 203.525L201.165 203.547L201.127 203.464L200.567 202.283C200.504 202.143 200.52 202.058 200.567 202.012C200.601 201.988 200.642 201.973 200.684 201.969C200.726 201.965 200.769 201.972 200.807 201.99L200.949 202.044L201.264 201.579C201.345 201.473 201.462 201.4 201.594 201.377C201.702 201.358 201.812 201.354 201.922 201.363H203.905L202.991 201.587L201.909 201.567C201.826 201.556 201.742 201.556 201.659 201.567C201.589 201.577 201.525 201.614 201.481 201.668L201.113 202.212L201.058 202.293L200.957 202.255L200.783 202.188L201.303 203.282L202.617 203.007L202.447 202.942L202.334 202.9L202.387 202.805L202.878 201.917L203.129 202.036Z" fill="#85583C"/>
<path fill-rule="evenodd" clip-rule="evenodd" d="M203.817 203.197L202.806 201.868C202.691 201.719 202.524 201.619 202.338 201.589L203 201.405L204.072 201.367C204.199 201.344 204.331 201.357 204.452 201.405C204.573 201.453 204.678 201.533 204.755 201.638L205.453 202.562L204.193 203.249C203.991 203.355 203.908 203.312 203.809 203.197H203.817Z" fill="#85583C"/>
<path fill-rule="evenodd" clip-rule="evenodd" d="M201.076 205.128L201.001 205.237C200.955 205.301 200.922 205.373 200.906 205.45C200.89 205.526 200.891 205.606 200.908 205.682L201.098 206.018C201.128 206.086 201.169 206.149 201.22 206.204C201.269 206.256 201.336 206.288 201.408 206.293L202.146 206.325H202.255V206.418V206.58L203.171 205.692L202.288 204.823V204.981V205.086H202.164L201.076 205.128ZM201.944 203.878L201.222 204.918L202.067 204.898L202.055 204.695V204.669C202.061 204.644 202.074 204.621 202.091 204.602C202.119 204.571 202.157 204.551 202.199 204.546C202.242 204.541 202.286 204.549 202.326 204.568C202.377 204.594 202.423 204.629 202.461 204.671L203.442 205.636L203.511 205.705L203.44 205.771L202.451 206.73C202.334 206.839 202.249 206.865 202.164 206.845C202.127 206.834 202.094 206.811 202.07 206.779C202.047 206.748 202.034 206.71 202.033 206.671V206.54L201.4 206.511C201.265 206.503 201.139 206.445 201.044 206.35C200.977 206.279 200.923 206.197 200.882 206.109L199.905 204.509C199.826 204.424 199.78 204.312 199.776 204.195C199.771 204.078 199.81 203.963 199.883 203.872L200.54 202.926L201.833 203.571C202.025 203.664 202.023 203.749 201.944 203.878Z" fill="#85583C"/>
<path d="M206.585 200.295H199.687C199.471 200.283 199.26 200.356 199.098 200.499C198.935 200.642 198.836 200.842 198.819 201.057V207.159C198.835 207.375 198.934 207.576 199.096 207.719C199.259 207.862 199.471 207.935 199.687 207.923H206.595C206.702 207.93 206.809 207.916 206.91 207.882C207.012 207.847 207.105 207.793 207.185 207.722C207.265 207.651 207.331 207.565 207.377 207.468C207.424 207.372 207.451 207.267 207.457 207.161V201.059C207.451 200.953 207.424 200.848 207.377 200.752C207.331 200.655 207.265 200.569 207.185 200.498C207.105 200.427 207.012 200.373 206.91 200.339C206.809 200.304 206.702 200.29 206.595 200.297L206.585 200.295ZM206.931 207.062C206.923 207.175 206.87 207.281 206.785 207.357C206.699 207.432 206.588 207.472 206.474 207.466H199.788C199.674 207.473 199.561 207.434 199.475 207.358C199.389 207.282 199.337 207.176 199.329 207.062V201.156C199.336 201.042 199.389 200.935 199.475 200.859C199.561 200.783 199.674 200.745 199.788 200.752H206.474C206.588 200.746 206.7 200.785 206.785 200.861C206.871 200.936 206.923 201.042 206.931 201.156V207.062Z" fill="#85583C"/>
<path d="M196.383 207.029H191.883C191.863 207.033 191.843 207.032 191.824 207.027C191.805 207.021 191.788 207.012 191.772 206.999C191.757 206.987 191.745 206.971 191.737 206.953C191.728 206.935 191.724 206.916 191.724 206.896C191.724 206.876 191.728 206.856 191.737 206.839C191.745 206.821 191.757 206.805 191.772 206.792C191.788 206.779 191.805 206.77 191.824 206.765C191.843 206.76 191.863 206.759 191.883 206.762H196.383C196.402 206.759 196.422 206.76 196.441 206.765C196.46 206.77 196.478 206.779 196.493 206.792C196.508 206.805 196.52 206.821 196.529 206.839C196.537 206.856 196.541 206.876 196.541 206.896C196.541 206.916 196.537 206.935 196.529 206.953C196.52 206.971 196.508 206.987 196.493 206.999C196.478 207.012 196.46 207.021 196.441 207.027C196.422 207.032 196.402 207.033 196.383 207.029Z" fill="#85583C"/>
<path fill-rule="evenodd" clip-rule="evenodd" d="M193.444 202.21V206.196H192.491V202.208L192.024 202.206L192.987 201.187L193.943 202.212L193.444 202.21Z" fill="#85583C"/>
<path fill-rule="evenodd" clip-rule="evenodd" d="M195.78 202.212V206.198H194.829V202.21L194.36 202.208L195.323 201.189L196.279 202.214L195.78 202.212Z" fill="#85583C"/>
<path d="M197.59 200.295H190.682C190.466 200.283 190.254 200.356 190.092 200.499C189.93 200.642 189.83 200.842 189.814 201.057V207.159C189.83 207.374 189.929 207.575 190.092 207.718C190.254 207.86 190.466 207.933 190.682 207.921H197.59C197.697 207.928 197.804 207.914 197.905 207.879C198.006 207.845 198.1 207.791 198.18 207.72C198.26 207.649 198.325 207.563 198.372 207.466C198.418 207.37 198.445 207.265 198.451 207.159V201.057C198.445 200.95 198.418 200.846 198.372 200.75C198.325 200.653 198.26 200.567 198.18 200.496C198.1 200.425 198.006 200.371 197.905 200.336C197.804 200.302 197.697 200.288 197.59 200.295ZM197.936 207.062C197.927 207.175 197.875 207.281 197.789 207.357C197.704 207.432 197.592 207.472 197.479 207.466H190.789C190.674 207.473 190.562 207.434 190.476 207.358C190.39 207.282 190.337 207.176 190.33 207.062V201.156C190.337 201.042 190.389 200.935 190.475 200.859C190.562 200.783 190.674 200.745 190.789 200.752H197.474C197.589 200.746 197.7 200.785 197.786 200.86C197.871 200.936 197.924 201.042 197.932 201.156L197.936 207.062Z" fill="#85583C"/>
<path d="M325.726 152.01H257.137V208.637H325.726V152.01Z" fill="#FFAD6E"/>
<path d="M300.41 189.223H282.454V208.637H300.41V189.223Z" fill="#FFC59E"/>
<path d="M300.41 152.01H282.454V171.424H300.41V152.01Z" fill="#FFC59E"/>
<path fill-rule="evenodd" clip-rule="evenodd" d="M275.404 203.262C275.404 203.262 275.408 203.272 275.404 203.272V203.262ZM274.45 204.886H274.6C274.779 204.888 274.954 204.833 275.099 204.728L275.344 204.416C275.395 204.362 275.438 204.3 275.471 204.232C275.485 204.204 275.493 204.173 275.493 204.141C275.493 204.11 275.485 204.079 275.471 204.05L275.131 203.494L275.081 203.411L275.174 203.361L275.334 203.272L273.967 203.051L273.53 204.139L273.685 204.052L273.789 203.994L273.855 204.083L274.45 204.886ZM272.741 204.886H274.157L273.708 204.279L273.505 204.388H273.491H273.479C273.45 204.392 273.421 204.392 273.392 204.388C273.35 204.385 273.311 204.367 273.281 204.338C273.255 204.309 273.239 204.271 273.238 204.232C273.239 204.18 273.251 204.129 273.275 204.083L273.758 202.869L273.793 202.784L273.896 202.801L275.37 203.039C275.542 203.07 275.617 203.126 275.633 203.191C275.649 203.256 275.597 203.328 275.526 203.375L275.396 203.448L275.688 203.925C275.717 203.977 275.733 204.035 275.736 204.094C275.739 204.153 275.728 204.213 275.704 204.267C275.664 204.356 275.609 204.437 275.542 204.507L274.413 206.032C274.35 206.143 274.257 206.233 274.145 206.293C274.032 206.353 273.905 206.381 273.778 206.372H272.49V205.1C272.49 204.934 272.573 204.89 272.741 204.89V204.886Z" fill="#85583C"/>
<path d="M270.019 202.17C270.019 202.17 270.029 202.162 270.019 202.17V202.17ZM272.379 202.036L271.94 202.829L272.157 202.912H272.171H272.183C272.205 202.927 272.223 202.946 272.237 202.968C272.245 202.985 272.25 203.003 272.25 203.022C272.25 203.041 272.245 203.059 272.237 203.076C272.222 203.114 272.193 203.145 272.157 203.163C272.104 203.191 272.048 203.21 271.989 203.219L270.529 203.525L270.427 203.547L270.387 203.464L269.827 202.283C269.764 202.143 269.78 202.058 269.827 202.012C269.862 201.988 269.902 201.973 269.944 201.969C269.986 201.965 270.029 201.972 270.067 201.99L270.209 202.044L270.525 201.579C270.605 201.472 270.724 201.4 270.856 201.377C270.964 201.358 271.073 201.354 271.182 201.363H273.166L272.252 201.587L271.17 201.567C271.086 201.556 271.002 201.556 270.919 201.567C270.849 201.576 270.785 201.613 270.741 201.668L270.371 202.212L270.316 202.293L270.217 202.255L270.041 202.188L270.561 203.282L271.875 203.007L271.706 202.942L271.592 202.9L271.645 202.805L272.138 201.917L272.379 202.036Z" fill="#85583C"/>
<path fill-rule="evenodd" clip-rule="evenodd" d="M273.069 203.197L272.058 201.868C271.942 201.719 271.774 201.619 271.588 201.589L272.252 201.405L273.321 201.367C273.679 201.346 273.88 201.454 274.005 201.638L274.705 202.562L273.443 203.249C273.241 203.355 273.158 203.312 273.061 203.197H273.069Z" fill="#85583C"/>
<path fill-rule="evenodd" clip-rule="evenodd" d="M270.326 205.128L270.252 205.237C270.205 205.301 270.173 205.373 270.157 205.45C270.141 205.527 270.142 205.606 270.158 205.682L270.349 206.018C270.379 206.086 270.42 206.149 270.47 206.204C270.52 206.256 270.586 206.288 270.658 206.293L271.396 206.325H271.507V206.418V206.58L272.426 205.692L271.542 204.823V204.981V205.086H271.418L270.326 205.128ZM271.194 203.878L270.472 204.918L271.317 204.898V204.695V204.687V204.675C271.323 204.65 271.334 204.627 271.352 204.609C271.38 204.577 271.419 204.557 271.461 204.552C271.504 204.547 271.547 204.555 271.586 204.574C271.638 204.6 271.683 204.635 271.722 204.677L272.703 205.642L272.771 205.711L272.703 205.777L271.714 206.736C271.594 206.845 271.499 206.871 271.424 206.851C271.387 206.839 271.355 206.816 271.331 206.785C271.308 206.754 271.294 206.716 271.293 206.677V206.546L270.662 206.518C270.527 206.51 270.401 206.452 270.306 206.356C270.239 206.285 270.184 206.204 270.144 206.115L269.168 204.515C269.088 204.43 269.042 204.318 269.037 204.201C269.033 204.085 269.071 203.97 269.143 203.878L269.801 202.932L271.093 203.577C271.277 203.664 271.277 203.749 271.194 203.878Z" fill="#85583C"/>
<path d="M275.837 200.295H268.927C268.712 200.283 268.5 200.357 268.338 200.499C268.176 200.642 268.077 200.842 268.061 201.057V207.159C268.076 207.374 268.176 207.575 268.338 207.717C268.5 207.86 268.711 207.933 268.927 207.921H275.837C275.944 207.928 276.051 207.914 276.152 207.879C276.254 207.845 276.347 207.791 276.427 207.72C276.507 207.649 276.573 207.563 276.619 207.466C276.666 207.37 276.693 207.265 276.699 207.159V201.057C276.684 200.843 276.586 200.642 276.424 200.499C276.263 200.357 276.052 200.283 275.837 200.295ZM276.183 207.062C276.175 207.175 276.122 207.281 276.037 207.357C275.951 207.432 275.84 207.472 275.726 207.466H269.038C268.924 207.473 268.812 207.434 268.726 207.358C268.641 207.282 268.588 207.176 268.581 207.062V201.156C268.584 201.1 268.599 201.044 268.624 200.993C268.649 200.942 268.683 200.897 268.726 200.859C268.768 200.822 268.818 200.793 268.871 200.774C268.925 200.756 268.982 200.748 269.038 200.752H275.726C275.84 200.746 275.952 200.785 276.037 200.861C276.123 200.936 276.175 201.042 276.183 201.156V207.062Z" fill="#85583C"/>
<path d="M265.635 207.029H261.135C261.116 207.033 261.096 207.032 261.077 207.027C261.058 207.021 261.04 207.012 261.025 206.999C261.009 206.987 260.997 206.971 260.989 206.953C260.981 206.935 260.976 206.916 260.976 206.896C260.976 206.876 260.981 206.856 260.989 206.839C260.997 206.821 261.009 206.805 261.025 206.792C261.04 206.779 261.058 206.77 261.077 206.765C261.096 206.76 261.116 206.759 261.135 206.762H265.635C265.654 206.759 265.674 206.76 265.693 206.765C265.712 206.77 265.73 206.779 265.745 206.792C265.76 206.805 265.773 206.821 265.781 206.839C265.789 206.856 265.794 206.876 265.794 206.896C265.794 206.916 265.789 206.935 265.781 206.953C265.773 206.971 265.76 206.987 265.745 206.999C265.73 207.012 265.712 207.021 265.693 207.027C265.674 207.032 265.654 207.033 265.635 207.029Z" fill="#85583C"/>
<path fill-rule="evenodd" clip-rule="evenodd" d="M262.696 202.21V206.196H261.744V202.208L261.276 202.206L262.239 201.187L263.196 202.212L262.696 202.21Z" fill="#85583C"/>
<path fill-rule="evenodd" clip-rule="evenodd" d="M265.032 202.212V206.198H264.079V202.21L263.612 202.208L264.575 201.189L265.531 202.214L265.032 202.212Z" fill="#85583C"/>
<path d="M266.842 200.295H259.932C259.716 200.283 259.505 200.356 259.342 200.499C259.18 200.642 259.08 200.842 259.064 201.057V207.159C259.08 207.374 259.18 207.575 259.342 207.718C259.504 207.86 259.716 207.933 259.932 207.921H266.842C266.949 207.928 267.056 207.914 267.157 207.879C267.258 207.845 267.352 207.791 267.432 207.72C267.512 207.649 267.577 207.563 267.624 207.466C267.671 207.37 267.698 207.265 267.704 207.159V201.057C267.689 200.843 267.59 200.642 267.429 200.499C267.268 200.357 267.057 200.283 266.842 200.295ZM267.188 207.062C267.18 207.175 267.127 207.281 267.042 207.357C266.956 207.432 266.845 207.472 266.731 207.466H260.043C259.929 207.473 259.817 207.434 259.731 207.358C259.645 207.282 259.593 207.176 259.586 207.062V201.156C259.589 201.1 259.604 201.044 259.629 200.993C259.653 200.942 259.688 200.897 259.73 200.859C259.773 200.822 259.822 200.793 259.876 200.774C259.93 200.756 259.986 200.748 260.043 200.752H266.731C266.845 200.746 266.957 200.785 267.042 200.861C267.128 200.936 267.18 201.042 267.188 201.156V207.062Z" fill="#85583C"/>
</g>
<defs>
<clipPath id="clip0_185_1320">
<rect width="365.92" height="239.723" fill="white" transform="translate(0.389893 0.862305)"/>
</clipPath>
</defs>
</svg>
