<svg width="748" height="400" viewBox="0 0 748 400" fill="none" xmlns="http://www.w3.org/2000/svg">
<g style="mix-blend-mode:multiply">
<path d="M373.931 399.785C580.448 399.785 747.862 392.785 747.862 384.15C747.862 375.515 580.448 368.516 373.931 368.516C167.415 368.516 0 375.515 0 384.15C0 392.785 167.415 399.785 373.931 399.785Z" fill="#F3F3F3"/>
</g>
<path d="M488.283 386.173H463.508L463.112 289.487H487.978L488.283 386.173Z" fill="#483E3F"/>
<path d="M463.508 386.173C480.167 386.173 493.672 364.529 493.672 337.83C493.672 311.131 480.167 289.487 463.508 289.487C446.849 289.487 433.345 311.131 433.345 337.83C433.345 364.529 446.849 386.173 463.508 386.173Z" fill="#483E3F"/>
<path d="M487.331 386.174C503.99 386.174 517.495 364.53 517.495 337.831C517.495 311.132 503.99 289.488 487.331 289.488C470.672 289.488 457.168 311.132 457.168 337.831C457.168 364.53 470.672 386.174 487.331 386.174Z" fill="#2A2A2A"/>
<path d="M487.331 384.151C503.292 384.151 516.231 363.413 516.231 337.831C516.231 312.25 503.292 291.512 487.331 291.512C471.371 291.512 458.432 312.25 458.432 337.831C458.432 363.413 471.371 384.151 487.331 384.151Z" fill="#2A2A2A"/>
<path d="M492.07 304.218C489.338 304.218 486.743 305.423 484.424 307.572C478.413 313.14 474.254 325.071 474.254 338.891C474.254 354.55 479.581 367.786 486.906 372.091C488.541 373.051 490.276 373.572 492.066 373.572C501.902 373.572 509.878 358.046 509.878 338.891C509.878 319.735 501.902 304.218 492.066 304.218H492.07Z" fill="#181A19"/>
<path d="M211.971 386.173H187.197L186.801 289.487H211.667L211.971 386.173Z" fill="#483E3F"/>
<path d="M187.197 386.173C203.856 386.173 217.361 364.529 217.361 337.83C217.361 311.131 203.856 289.487 187.197 289.487C170.538 289.487 157.033 311.131 157.033 337.83C157.033 364.529 170.538 386.173 187.197 386.173Z" fill="#483E3F"/>
<path d="M211.02 386.174C227.679 386.174 241.184 364.53 241.184 337.831C241.184 311.132 227.679 289.488 211.02 289.488C194.361 289.488 180.856 311.132 180.856 337.831C180.856 364.53 194.361 386.174 211.02 386.174Z" fill="#2A2A2A"/>
<path d="M211.02 384.151C226.981 384.151 239.92 363.413 239.92 337.831C239.92 312.25 226.981 291.512 211.02 291.512C195.059 291.512 182.12 312.25 182.12 337.831C182.12 363.413 195.059 384.151 211.02 384.151Z" fill="#2A2A2A"/>
<path d="M215.759 304.218C213.027 304.218 210.432 305.423 208.113 307.572C202.102 313.14 197.943 325.071 197.943 338.891C197.943 354.55 203.27 367.786 210.595 372.091C212.23 373.051 213.965 373.572 215.755 373.572C225.591 373.572 233.567 358.046 233.567 338.891C233.567 319.735 225.591 304.218 215.755 304.218H215.759Z" fill="#181A19"/>
<path d="M323.87 351.125H266.78C266.78 336.776 268.256 293.071 240.433 288.153H304.815C315.314 288.153 323.87 311.23 323.87 351.125Z" fill="#1F1F1F"/>
<path d="M239.945 386.173H215.171L214.774 289.487H239.644L239.945 386.173Z" fill="#483E3F"/>
<path d="M215.171 386.173C231.83 386.173 245.334 364.529 245.334 337.83C245.334 311.131 231.83 289.487 215.171 289.487C198.512 289.487 185.007 311.131 185.007 337.83C185.007 364.529 198.512 386.173 215.171 386.173Z" fill="#483E3F"/>
<path d="M238.994 386.174C255.653 386.174 269.157 364.53 269.157 337.831C269.157 311.132 255.653 289.488 238.994 289.488C222.335 289.488 208.83 311.132 208.83 337.831C208.83 364.53 222.335 386.174 238.994 386.174Z" fill="#2A2A2A"/>
<path d="M238.994 384.151C254.954 384.151 267.893 363.413 267.893 337.831C267.893 312.25 254.954 291.512 238.994 291.512C223.033 291.512 210.094 312.25 210.094 337.831C210.094 363.413 223.033 384.151 238.994 384.151Z" fill="#2A2A2A"/>
<path d="M243.737 304.218C241.004 304.218 238.41 305.423 236.09 307.572C230.079 313.14 225.92 325.071 225.92 338.891C225.92 354.55 231.247 367.786 238.572 372.091C240.208 373.051 241.943 373.572 243.732 373.572C253.569 373.572 261.544 358.046 261.544 338.891C261.544 319.735 253.569 304.218 243.732 304.218H243.737Z" fill="#181A19"/>
<path d="M656.8 253.989H483.569V334.832H656.8V253.989Z" fill="#171717"/>
<path d="M679.634 300.15V301.106C679.601 321.379 679.167 334.827 679.167 334.827H645.554C644.027 321.871 639.484 288.837 628.868 286.718C616.02 284.169 594.804 286.347 594.804 286.347L592.781 103.889C592.781 103.889 630.165 106.066 649.437 113.758C672.597 123.002 678.312 210.168 679.405 272.243C679.405 272.573 679.421 272.886 679.421 273.211C679.597 282.96 679.647 292.07 679.63 300.15H679.634Z" fill="#ECB703"/>
<path d="M632.18 283.424C619.328 280.591 598.12 283.011 598.12 283.011L596.327 104.144C594.082 103.973 592.777 103.894 592.777 103.894L594.812 286.348C594.812 286.348 616.016 284.17 628.872 286.719C639.493 288.826 644.031 321.872 645.562 334.828H648.649C646.926 319.289 642.333 285.659 632.18 283.424Z" fill="#AB8402"/>
<path d="M683.96 334.698L674.95 334.832V307.555L681.528 308.639C684.924 309.198 687.368 311.655 687.368 314.508V329.634C687.368 331.695 686.083 333.609 683.964 334.702L683.96 334.698Z" fill="#222536"/>
<path d="M602.409 126.398H630.97C640.235 126.398 654.451 131.788 656.137 139.292L670.282 220.26C670.82 222.654 665.251 224.844 662.907 223.359C650.48 215.475 623.846 196.841 615.803 196.887C610.088 196.921 602.108 196.825 602.108 196.825L602.409 126.398Z" fill="#97580D"/>
<path d="M668 220.531C667.933 221.002 666.373 221.941 664.884 221.941C664.542 221.941 664.363 221.882 664.317 221.853C662.26 220.552 659.762 218.912 657.1 217.169C656.867 217.014 656.629 216.864 656.387 216.706C654.355 215.375 652.357 214.069 650.397 212.797C648.115 211.316 645.887 209.885 643.731 208.525C639.017 205.547 634.637 202.898 630.733 200.75C625.401 197.809 620.942 195.807 617.726 195.194C617.038 195.048 616.404 194.985 615.832 194.985C614.94 194.993 614.047 194.993 613.137 194.993C611.381 194.993 609.55 194.985 607.902 194.981C606.588 194.972 605.383 194.968 604.423 194.952L604.461 186.784L604.557 163.82L604.665 138.667L604.707 128.305H630.974C633.181 128.305 635.601 128.626 638.02 129.206C639.931 129.656 641.845 130.274 643.647 131.008C648.841 133.135 653.116 136.289 653.871 139.651L658.569 166.557L662.039 186.417L668 220.539V220.531Z" fill="#64AFE0"/>
<g opacity="0.3">
<path d="M617.726 195.192C617.038 195.046 616.404 194.983 615.832 194.983C614.94 194.991 614.047 194.991 613.137 194.991C611.381 194.991 609.55 194.983 607.902 194.979L604.461 186.782L604.557 163.818L617.73 195.196L617.726 195.192Z" fill="white"/>
<path d="M643.731 208.528C639.017 205.549 634.637 202.9 630.733 200.752L604.661 138.665L604.703 128.303H610.046L643.727 208.532L643.731 208.528Z" fill="white"/>
<path d="M657.1 217.167C656.867 217.013 656.629 216.863 656.387 216.704C654.355 215.374 652.357 214.068 650.397 212.796L614.914 128.295H619.787L657.1 217.167Z" fill="white"/>
<path d="M662.039 186.407L638.016 129.196C639.926 129.647 641.841 130.264 643.643 130.998L658.564 166.547L662.035 186.407H662.039Z" fill="white"/>
</g>
<path d="M603.839 232.41H609.091C612.191 232.41 614.706 234.926 614.706 238.025V255.253C614.706 258.352 612.191 260.868 609.091 260.868H603.839V232.41Z" fill="#97580D"/>
<path d="M675.225 247.29H670.611V231.76C670.611 226.771 677.607 225.29 684.369 223.855C691.348 222.374 696.291 221.11 696.291 218.274C696.291 213.702 696.608 197.488 696.946 180.326C697.317 161.371 697.701 141.77 697.701 135.692C697.701 129.076 678.045 126.419 671.266 126.248C668.563 126.202 662.335 128.526 659.011 130.019L656.804 126.678C657.797 126.231 666.636 122.36 671.412 122.448C671.721 122.456 702.318 123.766 702.318 135.696C702.318 141.803 701.935 161.421 701.559 180.389C701.226 197.538 700.904 213.731 700.904 218.274C700.904 224.277 692.733 226.008 685.52 227.539C680.694 228.561 675.229 229.72 675.229 231.76V247.29H675.225Z" fill="#222536"/>
<path d="M668.868 229.687H669.894C672.685 229.687 674.95 231.952 674.95 234.742V248.938C674.95 251.728 672.685 253.993 669.894 253.993H668.868C666.077 253.993 663.812 251.728 663.812 248.938V234.742C663.812 231.952 666.077 229.687 668.868 229.687Z" fill="#222536"/>
<path d="M660.521 137.268C658.552 137.815 656.416 136.939 655.757 135.316L651.811 125.626C651.152 124.003 652.211 122.247 654.18 121.701C656.149 121.154 658.285 122.03 658.944 123.653L662.89 133.343C663.549 134.966 662.49 136.722 660.521 137.268Z" fill="#222536"/>
<path d="M675.246 237.6H674.645C672.998 237.6 671.663 238.935 671.663 240.582V248.95C671.663 250.597 672.998 251.933 674.645 251.933H675.246C676.893 251.933 678.228 250.597 678.228 248.95V240.582C678.228 238.935 676.893 237.6 675.246 237.6Z" fill="#222536"/>
<path d="M687.948 194.826L708.776 196.437C710.632 196.578 712.213 195.031 712.213 193.066V141.486C712.213 139.417 710.469 137.836 708.534 138.145L687.706 141.466C686.142 141.716 684.982 143.134 684.982 144.807V191.456C684.982 193.225 686.275 194.697 687.952 194.826H687.948Z" fill="#222536"/>
<path d="M710.411 141.486V193.065C710.411 193.879 709.781 194.542 709.014 194.542H708.905L707.812 194.459L706.94 194.388L701.743 193.983L698.418 193.724L695.678 193.516L694.159 193.399L689.9 193.061L688.073 192.923C687.343 192.865 686.776 192.218 686.776 191.447V144.798C686.776 144.068 687.272 143.446 687.965 143.338L690.309 142.971L690.901 142.875L706.882 140.326L707.207 140.272L708.797 140.017C708.872 140.005 708.943 139.992 709.014 139.992C709.785 139.992 710.411 140.66 710.411 141.473V141.486Z" fill="#64AFE0"/>
<g opacity="0.3">
<path d="M695.682 193.516L694.163 193.399L689.904 193.061L688.077 192.923C687.347 192.865 686.78 192.219 686.78 191.447V166.368L695.682 193.512V193.516Z" fill="white"/>
<path d="M707.816 194.458L706.945 194.387L701.747 193.982L686.78 148.334V144.801C686.78 144.071 687.276 143.449 687.969 143.341L690.313 142.974L690.905 142.878L707.812 194.453L707.816 194.458Z" fill="white"/>
<path d="M710.411 141.485V149.778L706.886 140.334L707.211 140.279L708.801 140.025C708.876 140.013 708.947 140 709.018 140C709.789 140 710.415 140.667 710.415 141.481L710.411 141.485Z" fill="white"/>
</g>
<path d="M667.787 317.916H654.752C654.376 317.916 654.072 317.611 654.072 317.236V312.493C654.072 312.118 654.376 311.813 654.752 311.813H667.787C668.163 311.813 668.467 312.118 668.467 312.493V317.236C668.467 317.611 668.163 317.916 667.787 317.916Z" fill="#353535"/>
<path d="M654.639 313.178V316.557C654.639 316.953 654.927 317.278 655.277 317.278H667.253C667.408 317.278 667.545 317.216 667.654 317.116C667.8 316.986 667.892 316.782 667.892 316.557V313.178C667.892 312.781 667.604 312.456 667.253 312.456H655.277C655.206 312.456 655.135 312.469 655.073 312.498C654.818 312.594 654.635 312.861 654.635 313.178H654.639Z" fill="#B3490F"/>
<path opacity="0.2" d="M655.077 312.498L667.654 317.116C667.8 316.986 667.892 316.782 667.892 316.557V313.178C667.892 312.781 667.604 312.456 667.253 312.456H655.277C655.206 312.456 655.135 312.469 655.073 312.498H655.077Z" fill="white"/>
<path d="M679.426 273.211C679.426 272.881 679.409 272.569 679.409 272.243H670.077C668.922 272.243 667.988 273.107 667.988 274.183L671.471 299.182C671.471 300.242 672.401 301.105 673.556 301.105H679.626V300.15L679.417 273.211H679.426Z" fill="#9FA9AB"/>
<path d="M679.634 300.151H673.419C672.856 300.151 672.393 299.659 672.393 299.049L668.909 274.3C668.909 274.225 668.926 274.15 668.926 274.092V274.079C669.039 273.587 669.439 273.216 669.936 273.216H679.426C679.601 282.964 679.651 292.075 679.634 300.155V300.151Z" fill="#F0F0F0"/>
<path d="M240.629 328.745H344.877V349.252H240.629C231.126 349.252 231.126 328.745 240.629 328.745Z" fill="black"/>
<path d="M492.079 328.745H596.327V349.252H492.079C482.576 349.252 482.576 328.745 492.079 328.745Z" fill="black"/>
<path d="M606.985 386.173H582.21L581.814 289.487H606.68L606.985 386.173Z" fill="#483E3F"/>
<path d="M582.21 386.173C598.869 386.173 612.374 364.529 612.374 337.83C612.374 311.131 598.869 289.487 582.21 289.487C565.552 289.487 552.047 311.131 552.047 337.83C552.047 364.529 565.552 386.173 582.21 386.173Z" fill="#483E3F"/>
<path d="M606.034 386.174C622.692 386.174 636.197 364.53 636.197 337.831C636.197 311.132 622.692 289.488 606.034 289.488C589.375 289.488 575.87 311.132 575.87 337.831C575.87 364.53 589.375 386.174 606.034 386.174Z" fill="#2A2A2A"/>
<path d="M606.034 384.151C621.994 384.151 634.933 363.413 634.933 337.831C634.933 312.25 621.994 291.512 606.034 291.512C590.073 291.512 577.134 312.25 577.134 337.831C577.134 363.413 590.073 384.151 606.034 384.151Z" fill="#2A2A2A"/>
<path d="M628.588 338.89C628.588 358.045 620.613 373.571 610.776 373.571C608.987 373.571 607.247 373.054 605.616 372.09C598.291 367.785 592.964 354.549 592.964 338.89C592.964 325.07 597.123 313.14 603.134 307.571C605.45 305.422 608.048 304.217 610.781 304.217C620.617 304.217 628.593 319.743 628.593 338.89H628.588Z" fill="#DDDEE2"/>
<path d="M624.242 339.566C624.242 357.54 616.266 372.124 606.43 372.124C606.163 372.124 605.883 372.115 605.612 372.09C598.287 367.785 592.96 354.549 592.96 338.89C592.96 325.07 597.119 313.14 603.13 307.571C604.206 307.204 605.303 307.012 606.43 307.012C616.266 307.012 624.242 321.583 624.242 339.57V339.566Z" fill="#8E8F93"/>
<path d="M611.515 359.609C617.551 359.609 622.444 350.553 622.444 339.382C622.444 328.21 617.551 319.154 611.515 319.154C605.479 319.154 600.586 328.21 600.586 339.382C600.586 350.553 605.479 359.609 611.515 359.609Z" fill="#D9D9DB"/>
<path d="M616.846 339.007C616.846 344.667 614.456 349.256 611.519 349.256C609.583 349.256 607.89 347.283 606.955 344.321C606.459 342.774 606.18 340.951 606.18 339.003C606.18 336.704 606.572 334.581 607.243 332.866C608.207 330.368 609.767 328.745 611.515 328.745C614.451 328.745 616.842 333.334 616.842 339.003L616.846 339.007Z" fill="#565251"/>
<path d="M611.519 338.618C611.519 341.814 609.75 344.396 607.569 344.396C607.36 344.396 607.156 344.371 606.96 344.321C606.463 342.773 606.184 340.95 606.184 339.002C606.184 336.704 606.576 334.58 607.247 332.866C607.352 332.849 607.464 332.841 607.569 332.841C609.75 332.841 611.519 335.423 611.519 338.618Z" fill="#6F7573"/>
<path d="M352.298 386.173H327.52L327.123 289.487H351.994L352.298 386.173Z" fill="#483E3F"/>
<path d="M327.52 386.173C344.179 386.173 357.683 364.529 357.683 337.83C357.683 311.131 344.179 289.487 327.52 289.487C310.861 289.487 297.356 311.131 297.356 337.83C297.356 364.529 310.861 386.173 327.52 386.173Z" fill="#483E3F"/>
<path d="M351.343 386.174C368.002 386.174 381.506 364.53 381.506 337.831C381.506 311.132 368.002 289.488 351.343 289.488C334.684 289.488 321.179 311.132 321.179 337.831C321.179 364.53 334.684 386.174 351.343 386.174Z" fill="#2A2A2A"/>
<path d="M351.343 384.151C367.304 384.151 380.242 363.413 380.242 337.831C380.242 312.25 367.304 291.512 351.343 291.512C335.382 291.512 322.443 312.25 322.443 337.831C322.443 363.413 335.382 384.151 351.343 384.151Z" fill="#2A2A2A"/>
<path d="M373.898 338.89C373.898 358.045 365.922 373.571 356.086 373.571C354.296 373.571 352.557 373.054 350.926 372.09C343.601 367.785 338.274 354.549 338.274 338.89C338.274 325.07 342.433 313.14 348.444 307.571C350.759 305.422 353.358 304.217 356.09 304.217C365.926 304.217 373.902 319.743 373.902 338.89H373.898Z" fill="#DDDEE2"/>
<path d="M369.551 339.566C369.551 357.54 361.575 372.124 351.739 372.124C351.472 372.124 351.193 372.115 350.922 372.09C343.597 367.785 338.27 354.549 338.27 338.89C338.27 325.07 342.429 313.14 348.44 307.571C349.516 307.204 350.613 307.012 351.739 307.012C361.575 307.012 369.551 321.583 369.551 339.57V339.566Z" fill="#8E8F93"/>
<path d="M356.824 359.609C362.86 359.609 367.753 350.553 367.753 339.382C367.753 328.21 362.86 319.154 356.824 319.154C350.788 319.154 345.895 328.21 345.895 339.382C345.895 350.553 350.788 359.609 356.824 359.609Z" fill="#D9D9DB"/>
<path d="M362.155 339.007C362.155 344.667 359.765 349.256 356.828 349.256C354.893 349.256 353.199 347.283 352.265 344.321C351.768 342.774 351.489 340.951 351.489 339.003C351.489 336.704 351.881 334.581 352.553 332.866C353.516 330.368 355.076 328.745 356.824 328.745C359.761 328.745 362.151 333.334 362.151 339.003L362.155 339.007Z" fill="#565251"/>
<path d="M356.828 338.618C356.828 341.814 355.06 344.396 352.878 344.396C352.669 344.396 352.465 344.371 352.269 344.321C351.773 342.773 351.493 340.95 351.493 339.002C351.493 336.704 351.885 334.58 352.557 332.866C352.661 332.849 352.774 332.841 352.878 332.841C355.06 332.841 356.828 335.423 356.828 338.618Z" fill="#6F7573"/>
<path d="M536.817 351.125H573.455C573.455 334.832 571.315 288.429 599.801 288.429H553.832C546.274 288.429 536.817 311.23 536.817 351.125Z" fill="#1F1F1F"/>
<path d="M419.028 350.983H456.363C455.341 334.831 454.419 288.286 480.294 288.286H434.479C427.613 288.286 415.612 312.743 419.024 350.983H419.028Z" fill="#1F1F1F"/>
<path d="M548.564 271.793H299.876V307.55H548.564V271.793Z" fill="#1F1F1F"/>
<path d="M599.802 6.28125H282.806V286.681H599.802V6.28125Z" fill="#F59D00"/>
<path d="M571.119 291.511H249.347V319.155H571.119V291.511Z" fill="#2E2E2E"/>
<path d="M415.616 351.125H358.526C358.526 336.776 360.003 293.071 332.179 288.153H396.561C407.061 288.153 415.616 311.23 415.616 351.125Z" fill="#1F1F1F"/>
<path d="M382.312 386.173H357.533L357.141 289.487H382.007L382.312 386.173Z" fill="#483E3F"/>
<path d="M357.533 386.173C374.192 386.173 387.697 364.529 387.697 337.83C387.697 311.131 374.192 289.487 357.533 289.487C340.874 289.487 327.37 311.131 327.37 337.83C327.37 364.529 340.874 386.173 357.533 386.173Z" fill="#483E3F"/>
<path d="M381.356 386.174C398.015 386.174 411.52 364.53 411.52 337.831C411.52 311.132 398.015 289.488 381.356 289.488C364.697 289.488 351.193 311.132 351.193 337.831C351.193 364.53 364.697 386.174 381.356 386.174Z" fill="#2A2A2A"/>
<path d="M381.356 384.151C397.317 384.151 410.256 363.413 410.256 337.831C410.256 312.25 397.317 291.512 381.356 291.512C365.395 291.512 352.457 312.25 352.457 337.831C352.457 363.413 365.395 384.151 381.356 384.151Z" fill="#2A2A2A"/>
<path d="M403.911 338.89C403.911 358.045 395.935 373.571 386.099 373.571C384.31 373.571 382.57 373.054 380.939 372.09C373.614 367.785 368.287 354.549 368.287 338.89C368.287 325.07 372.446 313.14 378.457 307.571C380.772 305.422 383.371 304.217 386.103 304.217C395.94 304.217 403.915 319.743 403.915 338.89H403.911Z" fill="#DDDEE2"/>
<path d="M399.569 339.566C399.569 357.54 391.593 372.124 381.757 372.124C381.49 372.124 381.21 372.115 380.939 372.09C373.614 367.785 368.287 354.549 368.287 338.89C368.287 325.07 372.446 313.14 378.457 307.571C379.533 307.204 380.63 307.012 381.757 307.012C391.593 307.012 399.569 321.583 399.569 339.57V339.566Z" fill="#8E8F93"/>
<path d="M386.837 359.609C392.873 359.609 397.767 350.553 397.767 339.382C397.767 328.21 392.873 319.154 386.837 319.154C380.801 319.154 375.908 328.21 375.908 339.382C375.908 350.553 380.801 359.609 386.837 359.609Z" fill="#D9D9DB"/>
<path d="M392.173 339.007C392.173 344.667 389.782 349.256 386.846 349.256C384.91 349.256 383.217 347.283 382.282 344.321C381.786 342.774 381.506 340.951 381.506 339.003C381.506 336.704 381.898 334.581 382.57 332.866C383.534 330.368 385.094 328.745 386.842 328.745C389.778 328.745 392.169 333.334 392.169 339.003L392.173 339.007Z" fill="#565251"/>
<path d="M386.842 338.618C386.842 341.814 385.073 344.396 382.891 344.396C382.683 344.396 382.478 344.371 382.282 344.321C381.786 342.773 381.506 340.95 381.506 339.002C381.506 336.704 381.898 334.58 382.57 332.866C382.674 332.849 382.787 332.841 382.891 332.841C385.073 332.841 386.842 335.423 386.842 338.618Z" fill="#6F7573"/>
<path d="M292.471 351.125H349.561C349.561 336.775 348.081 293.446 375.908 288.528H311.526C301.027 288.528 292.471 311.229 292.471 351.125Z" fill="#1F1F1F"/>
<path d="M155.557 351.125H212.647C212.647 336.775 211.17 293.446 238.994 288.528H174.612C164.112 288.528 155.557 311.229 155.557 351.125Z" fill="#1F1F1F"/>
<path d="M318.635 282.755H114.985V322.459H318.635V282.755Z" fill="#12100D"/>
<path d="M316.378 282.755H112.729V322.459H316.378V282.755Z" fill="#332E25"/>
<path d="M321.446 5.57617H107.656V286.505H321.446V5.57617Z" fill="#EFB601"/>
<path d="M314.689 17.5732H114.418V273.507H314.689V17.5732Z" fill="#633200"/>
<path d="M324.429 288.504H110.639V311.493H324.429V288.504Z" fill="#D1610C"/>
<path d="M321.446 288.502H107.656V311.491H321.446V288.502Z" fill="#EFB601"/>
<path d="M319.757 309.193V290.801H109.346V309.193H319.757Z" fill="#F59D00"/>
<path d="M311.059 306.895H298.633V293.1H311.059C312.131 293.1 312.999 293.967 312.999 295.039V304.955C312.999 306.027 312.131 306.895 311.059 306.895Z" fill="#FFBB34"/>
<path d="M279.198 306.895H266.771C265.699 306.895 264.832 306.027 264.832 304.955V295.039C264.832 293.967 265.699 293.1 266.771 293.1H279.198V306.895Z" fill="#E72F2F"/>
<path d="M279.198 306.895H298.633V293.1H279.198V306.895Z" fill="#F2EFE8"/>
<path d="M248.446 293.099H180.66V307.79H248.446V293.099Z" fill="#633200"/>
<path d="M114.664 293.023H127.091V306.818H114.664C113.592 306.818 112.724 305.951 112.724 304.879V294.963C112.724 293.891 113.592 293.023 114.664 293.023Z" fill="#FFBB34"/>
<path d="M146.53 293.023H158.956C160.029 293.023 160.896 293.891 160.896 294.963V304.879C160.896 305.951 160.029 306.818 158.956 306.818H146.53V293.023Z" fill="#E72F2F"/>
<path d="M146.526 293.023H127.091V306.818H146.526V293.023Z" fill="#F2EFE8"/>
<path d="M139.685 15.7209H131.525C130.111 15.7209 128.968 14.1608 128.968 12.2378C128.968 10.3147 130.115 8.75879 131.525 8.75879H139.685C141.099 8.75879 142.242 10.3189 142.242 12.2378C142.242 14.1608 141.094 15.7209 139.685 15.7209Z" fill="#E72F2F"/>
<path d="M297.577 15.7209H289.418C288.004 15.7209 286.861 14.1608 286.861 12.2378C286.861 10.3147 288.008 8.75879 289.418 8.75879H297.577C298.991 8.75879 300.134 10.3189 300.134 12.2378C300.134 14.1608 298.987 15.7209 297.577 15.7209Z" fill="#E72F2F"/>
<path d="M321.626 24.1475H321.275C319.819 24.1475 318.639 25.3278 318.639 26.7838V48.7214C318.639 50.1774 319.819 51.3577 321.275 51.3577H321.626C323.082 51.3577 324.262 50.1774 324.262 48.7214V26.7838C324.262 25.3278 323.082 24.1475 321.626 24.1475Z" fill="#EB7600"/>
<path d="M322.126 96.3389H320.775C319.595 96.3389 318.639 97.2951 318.639 98.4746V121.413C318.639 122.593 319.595 123.549 320.775 123.549H322.126C323.306 123.549 324.262 122.593 324.262 121.413V98.4746C324.262 97.2951 323.306 96.3389 322.126 96.3389Z" fill="#EB7600"/>
<path d="M321.626 168.528H321.275C319.819 168.528 318.639 169.709 318.639 171.165V193.102C318.639 194.558 319.819 195.739 321.275 195.739H321.626C323.082 195.739 324.262 194.558 324.262 193.102V171.165C324.262 169.709 323.082 168.528 321.626 168.528Z" fill="#EB7600"/>
<path d="M321.626 240.72H321.275C319.819 240.72 318.639 241.9 318.639 243.356V265.294C318.639 266.75 319.819 267.93 321.275 267.93H321.626C323.082 267.93 324.262 266.75 324.262 265.294V243.356C324.262 241.9 323.082 240.72 321.626 240.72Z" fill="#EB7600"/>
<path d="M407.578 290.852H401.579L328.992 273.507V17.5733L401.579 0.228516H407.578V290.852Z" fill="#EFC130"/>
<path d="M401.579 290.852L322.99 273.507V17.5733L401.579 0.228516V290.852Z" fill="#EFB601"/>
<path d="M107.202 24.1475H108.607C109.471 24.1475 110.176 24.8483 110.176 25.7159V49.7934C110.176 50.6569 109.475 51.3619 108.607 51.3619H107.202C106.338 51.3619 105.633 50.6611 105.633 49.7934V25.7159C105.633 24.8524 106.334 24.1475 107.202 24.1475Z" fill="#EB7600"/>
<path d="M108.607 96.3389H107.206C106.34 96.3389 105.637 97.0411 105.637 97.9073V121.981C105.637 122.847 106.34 123.549 107.206 123.549H108.607C109.474 123.549 110.176 122.847 110.176 121.981V97.9073C110.176 97.0411 109.474 96.3389 108.607 96.3389Z" fill="#EB7600"/>
<path d="M107.202 168.528H108.607C109.471 168.528 110.176 169.229 110.176 170.097V194.174C110.176 195.038 109.475 195.743 108.607 195.743H107.202C106.338 195.743 105.633 195.042 105.633 194.174V170.097C105.633 169.233 106.334 168.528 107.202 168.528Z" fill="#EB7600"/>
<path d="M107.202 240.72H108.607C109.471 240.72 110.176 241.421 110.176 242.288V266.366C110.176 267.229 109.475 267.934 108.607 267.934H107.202C106.338 267.934 105.633 267.233 105.633 266.366V242.288C105.633 241.425 106.334 240.72 107.202 240.72Z" fill="#EB7600"/>
<path d="M3.34131 290.852L106.259 273.507V17.5733L3.34131 0.228516V290.852Z" fill="#EFB601"/>
<path d="M194.001 201.2H129.148V273.508H194.001V201.2Z" fill="#FFA15E"/>
<path d="M237.913 201.2H194.001V273.504H237.913V201.2Z" fill="#EB843F"/>
<g style="mix-blend-mode:multiply">
<path d="M193.997 189.966H129.143V206.451H193.997V189.966Z" fill="#B2B2B2"/>
</g>
<g style="mix-blend-mode:multiply">
<path d="M237.913 189.966H194.001V206.451H237.913V189.966Z" fill="#B2B2B2"/>
</g>
<path d="M197.847 189.123H125.297V205.609H197.847V189.123Z" fill="#FFB47D"/>
<path d="M241.918 189.123H194.001V205.609H241.918V189.123Z" fill="#F59D5B"/>
<path fill-rule="evenodd" clip-rule="evenodd" d="M156.508 263.705C156.508 263.705 156.508 263.701 156.5 263.701C156.508 263.718 156.512 263.726 156.508 263.705ZM155.044 266.638H155.269C155.582 266.621 155.836 266.542 156.032 266.354L156.408 265.795V265.787C156.487 265.691 156.566 265.574 156.608 265.453C156.645 265.349 156.654 265.236 156.6 265.123L156.078 264.118L155.999 263.968L156.141 263.876L156.387 263.718L154.293 263.321L153.625 265.286L153.863 265.132L154.022 265.027L154.122 265.19L155.035 266.646L155.044 266.638ZM152.424 266.638H154.601L153.913 265.54L153.613 265.737L153.592 265.749L153.571 265.757C153.529 265.77 153.484 265.778 153.438 265.774C153.375 265.766 153.317 265.741 153.267 265.682C153.229 265.636 153.204 265.574 153.2 265.495C153.2 265.428 153.212 265.336 153.254 265.223L153.997 263.046L154.051 262.892L154.209 262.921L156.466 263.35C156.729 263.405 156.842 263.509 156.871 263.626C156.9 263.768 156.817 263.872 156.704 263.955L156.691 263.964L156.491 264.093L156.938 264.952C157.042 265.169 157.029 265.382 156.963 265.57C156.904 265.741 156.804 265.887 156.712 266.003L154.981 268.757C154.718 269.232 154.393 269.387 154.009 269.37H152.024V267.076C152.024 266.721 152.161 266.646 152.42 266.633L152.424 266.638Z" fill="#85583C"/>
<path d="M148.253 261.741C148.253 261.741 148.253 261.745 148.253 261.749C148.261 261.737 148.269 261.724 148.253 261.741ZM151.869 261.499L151.198 262.93L151.527 263.076L151.552 263.088L151.569 263.101C151.602 263.126 151.632 263.164 151.652 263.205C151.682 263.264 151.69 263.326 151.669 263.397C151.652 263.456 151.615 263.51 151.548 263.556C151.494 263.593 151.41 263.631 151.29 263.656L149.054 264.211L148.895 264.248L148.837 264.098L147.977 261.966C147.881 261.716 147.906 261.566 147.99 261.478C148.09 261.378 148.228 261.391 148.357 261.441H148.37L148.586 261.545L149.07 260.707C149.195 260.502 149.383 260.398 149.575 260.352C149.75 260.31 149.93 260.314 150.076 260.327H153.117L151.719 260.736L150.063 260.702H150.051C149.934 260.694 149.792 260.69 149.667 260.719C149.563 260.744 149.462 260.798 149.396 260.903L148.833 261.887L148.749 262.033L148.595 261.962L148.328 261.841L149.125 263.818L151.139 263.322L150.881 263.205L150.706 263.126L150.785 262.955L151.54 261.349L151.878 261.507L151.869 261.499Z" fill="#85583C"/>
<path fill-rule="evenodd" clip-rule="evenodd" d="M152.925 263.589L151.39 261.194C151.194 260.919 150.972 260.744 150.672 260.69L151.686 260.356L153.325 260.285C153.872 260.247 154.176 260.439 154.372 260.773L155.444 262.446L153.513 263.685C153.213 263.872 153.075 263.801 152.925 263.589Z" fill="#85583C"/>
<path fill-rule="evenodd" clip-rule="evenodd" d="M150.509 269.821H150.518C150.501 269.821 150.489 269.821 150.509 269.821ZM148.724 267.072L148.607 267.268C148.461 267.547 148.403 267.806 148.465 268.073L148.757 268.682V268.69C148.807 268.799 148.866 268.928 148.949 269.028C149.02 269.111 149.112 269.174 149.237 269.187L150.368 269.245L150.534 269.253L150.543 269.42L150.555 269.712L151.961 268.11L150.605 266.538L150.618 266.821L150.626 267.009H150.438L148.72 267.063L148.724 267.072ZM150.051 264.815L148.945 266.692L150.238 266.654L150.222 266.296V266.271V266.25C150.23 266.208 150.247 266.166 150.276 266.129C150.313 266.079 150.368 266.041 150.443 266.029C150.501 266.02 150.568 266.029 150.639 266.066C150.697 266.1 150.768 266.158 150.843 266.254L152.345 267.998L152.449 268.119L152.341 268.24L150.826 269.967C150.647 270.167 150.501 270.213 150.384 270.175C150.247 270.129 150.201 270 150.184 269.862V269.846L150.171 269.608L149.204 269.558C148.966 269.537 148.787 269.42 148.657 269.266C148.54 269.128 148.465 268.965 148.411 268.832L146.914 265.945C146.638 265.478 146.672 265.119 146.88 264.798L147.886 263.088L149.863 264.252C150.167 264.435 150.163 264.59 150.042 264.819L150.051 264.815Z" fill="#85583C"/>
<path d="M157.167 258.35H146.584C145.858 258.35 145.258 258.971 145.258 259.726V270.739C145.258 271.498 145.858 272.115 146.584 272.115H157.167C157.893 272.115 158.485 271.498 158.485 270.739V259.726C158.485 258.971 157.893 258.35 157.167 258.35ZM157.697 270.564C157.697 270.96 157.38 271.294 156.996 271.294H146.751C146.363 271.294 146.05 270.96 146.05 270.564V259.906C146.05 259.501 146.363 259.176 146.751 259.176H156.996C157.376 259.176 157.697 259.501 157.697 259.906V270.564Z" fill="#85583C"/>
<path d="M141.537 270.509H134.645C134.512 270.509 134.403 270.401 134.403 270.267C134.403 270.134 134.512 270.025 134.645 270.025H141.537C141.67 270.025 141.779 270.134 141.779 270.267C141.779 270.401 141.67 270.509 141.537 270.509Z" fill="#85583C"/>
<path fill-rule="evenodd" clip-rule="evenodd" d="M137.036 261.812V269.008H135.576V261.808L134.862 261.804L136.335 259.96L137.799 261.812H137.036Z" fill="#85583C"/>
<path fill-rule="evenodd" clip-rule="evenodd" d="M140.61 261.817V269.013H139.155V261.809H138.437L139.914 259.965L141.378 261.817H140.61Z" fill="#85583C"/>
<path d="M143.385 258.35H132.802C132.076 258.35 131.475 258.971 131.475 259.726V270.739C131.475 271.498 132.076 272.115 132.802 272.115H143.385C144.11 272.115 144.703 271.498 144.703 270.739V259.726C144.703 258.971 144.11 258.35 143.385 258.35ZM143.914 270.564C143.914 270.96 143.597 271.294 143.214 271.294H132.968C132.581 271.294 132.268 270.96 132.268 270.564V259.906C132.268 259.501 132.581 259.176 132.968 259.176H143.214C143.593 259.176 143.914 259.501 143.914 259.906V270.564Z" fill="#85583C"/>
<path d="M291.792 201.2H226.938V273.508H291.792V201.2Z" fill="#FFA15E"/>
<path d="M335.704 201.2H291.792V273.504H335.704V201.2Z" fill="#EB843F"/>
<g style="mix-blend-mode:multiply">
<path d="M291.792 189.966H226.938V206.451H291.792V189.966Z" fill="#B2B2B2"/>
</g>
<g style="mix-blend-mode:multiply">
<path d="M335.704 189.966H291.792V206.451H335.704V189.966Z" fill="#B2B2B2"/>
</g>
<path d="M295.642 189.123H223.092V205.609H295.642V189.123Z" fill="#FFB47D"/>
<path d="M339.709 189.123H291.792V205.609H339.709V189.123Z" fill="#F59D5B"/>
<path fill-rule="evenodd" clip-rule="evenodd" d="M254.299 263.705C254.299 263.705 254.299 263.701 254.291 263.701C254.299 263.718 254.303 263.726 254.299 263.705ZM252.835 266.638H253.06C253.373 266.621 253.627 266.542 253.823 266.354L254.199 265.795V265.787C254.278 265.691 254.357 265.574 254.399 265.453C254.437 265.349 254.445 265.236 254.391 265.123L253.869 264.118L253.79 263.968L253.932 263.876L254.178 263.718L252.084 263.321L251.416 265.286L251.654 265.132L251.813 265.027L251.913 265.19L252.826 266.646L252.835 266.638ZM250.215 266.638H252.393L251.704 265.54L251.404 265.737L251.383 265.749L251.362 265.757C251.321 265.77 251.275 265.778 251.229 265.774C251.166 265.766 251.104 265.741 251.058 265.682C251.02 265.636 250.995 265.574 250.991 265.495C250.991 265.428 251.003 265.336 251.045 265.223L251.788 263.046L251.842 262.892L252 262.921L254.257 263.35C254.52 263.405 254.633 263.509 254.662 263.626C254.691 263.768 254.608 263.872 254.495 263.955L254.482 263.964L254.282 264.093L254.729 264.952C254.833 265.169 254.82 265.382 254.754 265.57C254.695 265.741 254.595 265.887 254.503 266.003L252.772 268.757C252.509 269.232 252.184 269.387 251.8 269.37H249.815V267.076C249.815 266.721 249.952 266.646 250.211 266.633L250.215 266.638Z" fill="#85583C"/>
<path d="M246.044 261.741C246.044 261.741 246.044 261.745 246.044 261.749C246.052 261.737 246.06 261.724 246.044 261.741ZM249.66 261.499L248.989 262.93L249.318 263.076L249.343 263.088L249.36 263.101C249.393 263.126 249.422 263.164 249.443 263.205C249.473 263.264 249.481 263.326 249.46 263.397C249.443 263.456 249.406 263.51 249.339 263.556C249.285 263.593 249.201 263.631 249.08 263.656L246.845 264.211L246.686 264.248L246.628 264.098L245.768 261.966C245.672 261.716 245.697 261.566 245.781 261.478C245.881 261.378 246.019 261.391 246.148 261.441H246.16L246.377 261.545L246.861 260.707C246.986 260.502 247.174 260.398 247.366 260.352C247.541 260.31 247.721 260.314 247.867 260.327H250.907L249.51 260.736L247.854 260.702H247.841C247.725 260.694 247.583 260.69 247.458 260.719C247.353 260.744 247.253 260.798 247.187 260.903L246.623 261.887L246.54 262.033L246.386 261.962L246.119 261.841L246.915 263.818L248.926 263.322L248.667 263.205L248.492 263.126L248.571 262.955L249.327 261.349L249.664 261.507L249.66 261.499Z" fill="#85583C"/>
<path fill-rule="evenodd" clip-rule="evenodd" d="M250.716 263.589L249.18 261.194C248.984 260.919 248.763 260.744 248.463 260.69L249.477 260.356L251.116 260.285C251.662 260.247 251.967 260.439 252.163 260.773L253.235 262.446L251.304 263.685C251.003 263.872 250.866 263.801 250.716 263.589Z" fill="#85583C"/>
<path fill-rule="evenodd" clip-rule="evenodd" d="M248.305 269.821H248.313C248.296 269.821 248.284 269.821 248.305 269.821ZM246.519 267.072L246.402 267.268C246.256 267.547 246.198 267.806 246.261 268.073L246.553 268.682V268.69C246.603 268.799 246.661 268.928 246.744 269.028C246.815 269.111 246.907 269.174 247.032 269.187L248.163 269.245L248.33 269.253L248.338 269.42L248.35 269.712L249.756 268.11L248.4 266.538L248.413 266.821L248.421 267.009H248.234L246.515 267.063L246.519 267.072ZM247.846 264.815L246.74 266.692L248.033 266.654L248.017 266.296V266.271V266.25C248.025 266.208 248.042 266.166 248.071 266.129C248.108 266.079 248.163 266.041 248.238 266.029C248.296 266.02 248.363 266.029 248.434 266.066C248.492 266.1 248.563 266.158 248.638 266.254L250.14 267.998L250.244 268.119L250.136 268.24L248.622 269.967C248.442 270.167 248.296 270.213 248.179 270.175C248.042 270.129 247.996 270 247.979 269.862V269.846L247.967 269.608L246.999 269.558C246.761 269.537 246.582 269.42 246.452 269.266C246.336 269.128 246.261 268.965 246.206 268.832L244.709 265.945C244.433 265.478 244.467 265.119 244.675 264.798L245.681 263.088L247.658 264.252C247.962 264.435 247.958 264.59 247.837 264.819L247.846 264.815Z" fill="#85583C"/>
<path d="M254.958 258.35H244.375C243.649 258.35 243.049 258.971 243.049 259.726V270.739C243.049 271.498 243.649 272.115 244.375 272.115H254.958C255.684 272.115 256.276 271.498 256.276 270.739V259.726C256.276 258.971 255.684 258.35 254.958 258.35ZM255.488 270.564C255.488 270.96 255.171 271.294 254.787 271.294H244.542C244.154 271.294 243.841 270.96 243.841 270.564V259.906C243.841 259.501 244.154 259.176 244.542 259.176H254.787C255.167 259.176 255.488 259.501 255.488 259.906V270.564Z" fill="#85583C"/>
<path d="M239.332 270.509H232.441C232.307 270.509 232.199 270.401 232.199 270.267C232.199 270.134 232.307 270.025 232.441 270.025H239.332C239.465 270.025 239.574 270.134 239.574 270.267C239.574 270.401 239.465 270.509 239.332 270.509Z" fill="#85583C"/>
<path fill-rule="evenodd" clip-rule="evenodd" d="M234.826 261.812V269.008H233.371V261.808L232.653 261.804L234.126 259.96L235.594 261.812H234.826Z" fill="#85583C"/>
<path fill-rule="evenodd" clip-rule="evenodd" d="M238.406 261.817V269.013H236.946V261.809H236.232L237.705 259.965L239.169 261.817H238.406Z" fill="#85583C"/>
<path d="M241.18 258.35H230.597C229.871 258.35 229.27 258.971 229.27 259.726V270.739C229.27 271.498 229.871 272.115 230.597 272.115H241.18C241.906 272.115 242.498 271.498 242.498 270.739V259.726C242.498 258.971 241.906 258.35 241.18 258.35ZM241.709 270.564C241.709 270.96 241.392 271.294 241.009 271.294H230.764C230.376 271.294 230.063 270.96 230.063 270.564V259.906C230.063 259.501 230.376 259.176 230.764 259.176H241.009C241.388 259.176 241.709 259.501 241.709 259.906V270.564Z" fill="#85583C"/>
<path d="M195.498 116.36H130.645V188.668H195.498V116.36Z" fill="#FFA15E"/>
<path d="M239.411 116.364H195.498V188.668H239.411V116.364Z" fill="#EB843F"/>
<g style="mix-blend-mode:multiply">
<path d="M195.498 105.127H130.645V121.612H195.498V105.127Z" fill="#B2B2B2"/>
</g>
<g style="mix-blend-mode:multiply">
<path d="M239.411 105.127H195.498V121.612H239.411V105.127Z" fill="#B2B2B2"/>
</g>
<path d="M199.348 104.288H126.799V120.774H199.348V104.288Z" fill="#FFB47D"/>
<path d="M243.415 104.288H195.498V120.774H243.415V104.288Z" fill="#F59D5B"/>
<path fill-rule="evenodd" clip-rule="evenodd" d="M158.006 178.87C158.006 178.87 158.006 178.866 157.997 178.866C158.006 178.883 158.01 178.891 158.006 178.87ZM156.541 181.803H156.767C157.079 181.786 157.334 181.707 157.53 181.519L157.905 180.96V180.952C157.985 180.856 158.064 180.739 158.106 180.618C158.143 180.514 158.152 180.401 158.097 180.288L157.576 179.283L157.497 179.133L157.638 179.041L157.885 178.883L155.79 178.486L155.123 180.451L155.361 180.297L155.519 180.192L155.619 180.355L156.533 181.811L156.541 181.803ZM153.922 181.803H156.099L155.411 180.706L155.111 180.902L155.09 180.914L155.069 180.922C155.027 180.935 154.981 180.943 154.935 180.939C154.873 180.931 154.814 180.906 154.764 180.847C154.727 180.801 154.702 180.739 154.698 180.66C154.698 180.593 154.71 180.501 154.752 180.388L155.494 178.211L155.549 178.057L155.707 178.086L157.964 178.516C158.227 178.57 158.339 178.674 158.368 178.791C158.398 178.933 158.314 179.037 158.202 179.12L158.189 179.129L157.989 179.258L158.435 180.117C158.539 180.334 158.527 180.547 158.46 180.735C158.402 180.906 158.302 181.052 158.21 181.169L156.479 183.922C156.216 184.397 155.891 184.552 155.507 184.535H153.521V182.241C153.521 181.886 153.659 181.811 153.918 181.798L153.922 181.803Z" fill="#85583C"/>
<path d="M149.75 176.901C149.75 176.901 149.75 176.905 149.75 176.91C149.759 176.897 149.767 176.885 149.75 176.901ZM153.367 176.659L152.695 178.09L153.025 178.236L153.05 178.249L153.067 178.261C153.1 178.286 153.129 178.324 153.15 178.365C153.179 178.424 153.188 178.486 153.167 178.557C153.15 178.616 153.113 178.67 153.046 178.716C152.992 178.753 152.908 178.791 152.787 178.816L150.551 179.371L150.393 179.408L150.334 179.258L149.475 177.126C149.379 176.876 149.404 176.726 149.488 176.638C149.588 176.538 149.725 176.551 149.855 176.601H149.867L150.084 176.705L150.568 175.867C150.693 175.662 150.881 175.558 151.073 175.512C151.248 175.47 151.427 175.475 151.573 175.487H154.614L153.213 175.896L151.557 175.863H151.544C151.427 175.854 151.285 175.85 151.16 175.879C151.056 175.904 150.956 175.958 150.889 176.063L150.326 177.047L150.243 177.193L150.088 177.122L149.821 177.001L150.618 178.979L152.633 178.482L152.374 178.365L152.199 178.286L152.278 178.115L153.033 176.509L153.371 176.668L153.367 176.659Z" fill="#85583C"/>
<path fill-rule="evenodd" clip-rule="evenodd" d="M154.427 178.749L152.891 176.354C152.695 176.079 152.474 175.904 152.174 175.85L153.188 175.516L154.827 175.445C155.373 175.408 155.678 175.599 155.874 175.933L156.946 177.606L155.015 178.845C154.714 179.033 154.577 178.962 154.427 178.749Z" fill="#85583C"/>
<path fill-rule="evenodd" clip-rule="evenodd" d="M152.011 184.986H152.02C152.003 184.986 151.99 184.986 152.011 184.986ZM150.226 182.237L150.109 182.433C149.963 182.712 149.905 182.971 149.967 183.238L150.259 183.847V183.855C150.309 183.964 150.368 184.093 150.451 184.193C150.522 184.276 150.614 184.339 150.739 184.352L151.869 184.41L152.036 184.418L152.045 184.585L152.057 184.877L153.463 183.275L152.107 181.703L152.12 181.986L152.128 182.174H151.94L150.222 182.228L150.226 182.237ZM151.552 179.98L150.447 181.857L151.74 181.82L151.723 181.461V181.436V181.415C151.732 181.373 151.748 181.331 151.778 181.294C151.815 181.244 151.869 181.206 151.944 181.194C152.003 181.185 152.07 181.194 152.141 181.231C152.199 181.265 152.27 181.323 152.345 181.419L153.847 183.163L153.951 183.284L153.842 183.405L152.328 185.132C152.149 185.332 152.003 185.378 151.886 185.34C151.748 185.294 151.703 185.169 151.686 185.027V185.011L151.673 184.773L150.706 184.723C150.468 184.702 150.288 184.585 150.159 184.431C150.042 184.293 149.967 184.13 149.913 183.997L148.415 181.11C148.14 180.643 148.173 180.284 148.382 179.963L149.387 178.253L151.365 179.417C151.669 179.6 151.665 179.755 151.544 179.984L151.552 179.98Z" fill="#85583C"/>
<path d="M158.665 173.514H148.082C147.356 173.514 146.755 174.135 146.755 174.89V185.903C146.755 186.662 147.356 187.279 148.082 187.279H158.665C159.391 187.279 159.983 186.662 159.983 185.903V174.89C159.983 174.135 159.391 173.514 158.665 173.514ZM159.194 185.728C159.194 186.124 158.877 186.458 158.494 186.458H148.249C147.861 186.458 147.548 186.124 147.548 185.728V175.07C147.548 174.665 147.861 174.34 148.249 174.34H158.494C158.873 174.34 159.194 174.665 159.194 175.07V185.728Z" fill="#85583C"/>
<path d="M143.038 185.669H136.147C136.014 185.669 135.905 185.561 135.905 185.427C135.905 185.294 136.014 185.186 136.147 185.186H143.038C143.172 185.186 143.28 185.294 143.28 185.427C143.28 185.561 143.172 185.669 143.038 185.669Z" fill="#85583C"/>
<path fill-rule="evenodd" clip-rule="evenodd" d="M138.533 176.971V184.167H137.077V176.967L136.36 176.963L137.837 175.119L139.301 176.975L138.533 176.971Z" fill="#85583C"/>
<path fill-rule="evenodd" clip-rule="evenodd" d="M142.112 176.975V184.171H140.656V176.971L139.939 176.967L141.411 175.123L142.88 176.975H142.112Z" fill="#85583C"/>
<path d="M144.886 173.514H134.303C133.577 173.514 132.977 174.135 132.977 174.89V185.903C132.977 186.662 133.577 187.279 134.303 187.279H144.886C145.612 187.279 146.204 186.662 146.204 185.903V174.89C146.204 174.135 145.612 173.514 144.886 173.514ZM145.416 185.728C145.416 186.124 145.099 186.458 144.715 186.458H134.47C134.082 186.458 133.769 186.124 133.769 185.728V175.07C133.769 174.665 134.082 174.34 134.47 174.34H144.715C145.095 174.34 145.416 174.665 145.416 175.07V185.728Z" fill="#85583C"/>
<path d="M293.293 116.36H228.44V188.668H293.293V116.36Z" fill="#FFA15E"/>
<path d="M337.206 116.364H293.293V188.668H337.206V116.364Z" fill="#EB843F"/>
<g style="mix-blend-mode:multiply">
<path d="M293.293 105.127H228.44V121.612H293.293V105.127Z" fill="#B2B2B2"/>
</g>
<g style="mix-blend-mode:multiply">
<path d="M337.206 105.127H293.293V121.612H337.206V105.127Z" fill="#B2B2B2"/>
</g>
<path d="M297.139 104.288H224.59V120.774H297.139V104.288Z" fill="#FFB47D"/>
<path d="M341.21 104.288H293.293V120.774H341.21V104.288Z" fill="#F59D5B"/>
<path fill-rule="evenodd" clip-rule="evenodd" d="M255.8 178.87C255.8 178.87 255.8 178.866 255.792 178.866C255.8 178.883 255.805 178.891 255.8 178.87ZM254.336 181.803H254.562C254.874 181.786 255.129 181.707 255.325 181.519L255.7 180.96V180.952C255.78 180.856 255.859 180.739 255.901 180.618C255.938 180.514 255.946 180.401 255.892 180.288L255.371 179.283L255.292 179.133L255.433 179.041L255.679 178.883L253.585 178.486L252.918 180.451L253.156 180.297L253.314 180.192L253.414 180.355L254.328 181.811L254.336 181.803ZM251.717 181.803H253.894L253.206 180.706L252.906 180.902L252.885 180.914L252.864 180.922C252.822 180.935 252.776 180.943 252.73 180.939C252.668 180.931 252.609 180.906 252.559 180.847C252.522 180.801 252.497 180.739 252.493 180.66C252.493 180.593 252.505 180.501 252.547 180.388L253.289 178.211L253.343 178.057L253.502 178.086L255.759 178.516C256.022 178.57 256.134 178.674 256.163 178.791C256.193 178.933 256.109 179.037 255.997 179.12L255.984 179.129L255.784 179.258L256.23 180.117C256.334 180.334 256.322 180.547 256.255 180.735C256.197 180.906 256.097 181.052 256.005 181.169L254.274 183.922C254.011 184.397 253.686 184.552 253.302 184.535H251.316V182.241C251.316 181.886 251.454 181.811 251.712 181.798L251.717 181.803Z" fill="#85583C"/>
<path d="M247.545 176.901C247.545 176.901 247.545 176.905 247.545 176.91C247.554 176.897 247.562 176.885 247.545 176.901ZM251.162 176.659L250.49 178.09L250.82 178.236L250.845 178.249L250.862 178.261C250.895 178.286 250.924 178.324 250.945 178.365C250.974 178.424 250.982 178.486 250.962 178.557C250.945 178.616 250.907 178.67 250.841 178.716C250.786 178.753 250.703 178.791 250.582 178.816L248.346 179.371L248.188 179.408L248.129 179.258L247.27 177.126C247.174 176.876 247.199 176.726 247.282 176.638C247.383 176.538 247.52 176.551 247.65 176.601H247.662L247.879 176.705L248.363 175.867C248.488 175.662 248.676 175.558 248.868 175.512C249.043 175.47 249.222 175.475 249.368 175.487H252.409L251.012 175.896L249.356 175.863H249.343C249.226 175.854 249.084 175.85 248.959 175.879C248.855 175.904 248.755 175.958 248.688 176.063L248.125 177.047L248.042 177.193L247.887 177.122L247.62 177.001L248.417 178.979L250.432 178.482L250.173 178.365L249.998 178.286L250.077 178.115L250.832 176.509L251.17 176.668L251.162 176.659Z" fill="#85583C"/>
<path fill-rule="evenodd" clip-rule="evenodd" d="M252.217 178.749L250.682 176.354C250.486 176.079 250.265 175.904 249.965 175.85L250.978 175.516L252.618 175.445C253.164 175.408 253.469 175.599 253.665 175.933L254.737 177.606L252.805 178.845C252.505 179.033 252.367 178.962 252.217 178.749Z" fill="#85583C"/>
<path fill-rule="evenodd" clip-rule="evenodd" d="M249.802 184.986H249.81C249.794 184.986 249.781 184.986 249.802 184.986ZM248.017 182.237L247.9 182.433C247.754 182.712 247.695 182.971 247.758 183.238L248.05 183.847V183.855C248.1 183.964 248.158 184.093 248.242 184.193C248.313 184.276 248.404 184.339 248.53 184.352L249.66 184.41L249.827 184.418L249.835 184.585L249.848 184.877L251.254 183.275L249.898 181.703L249.91 181.986L249.919 182.174H249.731L248.012 182.228L248.017 182.237ZM249.343 179.98L248.238 181.857L249.531 181.82L249.514 181.461V181.436V181.415C249.522 181.373 249.539 181.331 249.568 181.294C249.606 181.244 249.66 181.206 249.735 181.194C249.794 181.185 249.86 181.194 249.931 181.231C249.99 181.265 250.061 181.323 250.136 181.419L251.637 183.163L251.742 183.284L251.633 183.405L250.119 185.132C249.94 185.332 249.794 185.378 249.677 185.34C249.539 185.294 249.493 185.169 249.477 185.027V185.011L249.464 184.773L248.496 184.723C248.258 184.702 248.079 184.585 247.95 184.431C247.833 184.293 247.758 184.13 247.704 183.997L246.206 181.11C245.931 180.643 245.964 180.284 246.173 179.963L247.178 178.253L249.155 179.417C249.46 179.6 249.456 179.755 249.335 179.984L249.343 179.98Z" fill="#85583C"/>
<path d="M256.459 173.514H245.877C245.151 173.514 244.55 174.135 244.55 174.89V185.903C244.55 186.662 245.151 187.279 245.877 187.279H256.459C257.185 187.279 257.778 186.662 257.778 185.903V174.89C257.778 174.135 257.185 173.514 256.459 173.514ZM256.989 185.728C256.989 186.124 256.672 186.458 256.288 186.458H246.043C245.655 186.458 245.343 186.124 245.343 185.728V175.07C245.343 174.665 245.655 174.34 246.043 174.34H256.288C256.668 174.34 256.989 174.665 256.989 175.07V185.728Z" fill="#85583C"/>
<path d="M240.829 185.669H233.938C233.804 185.669 233.696 185.561 233.696 185.427C233.696 185.294 233.804 185.186 233.938 185.186H240.829C240.963 185.186 241.071 185.294 241.071 185.427C241.071 185.561 240.963 185.669 240.829 185.669Z" fill="#85583C"/>
<path fill-rule="evenodd" clip-rule="evenodd" d="M236.328 176.971V184.167H234.868V176.967L234.155 176.963L235.627 175.119L237.091 176.975L236.328 176.971Z" fill="#85583C"/>
<path fill-rule="evenodd" clip-rule="evenodd" d="M239.907 176.975V184.171H238.447V176.971L237.734 176.967L239.206 175.123L240.671 176.975H239.907Z" fill="#85583C"/>
<path d="M242.681 173.514H232.098C231.372 173.514 230.772 174.135 230.772 174.89V185.903C230.772 186.662 231.372 187.279 232.098 187.279H242.681C243.407 187.279 243.999 186.662 243.999 185.903V174.89C243.999 174.135 243.407 173.514 242.681 173.514ZM243.211 185.728C243.211 186.124 242.894 186.458 242.51 186.458H232.265C231.877 186.458 231.564 186.124 231.564 185.728V175.07C231.564 174.665 231.877 174.34 232.265 174.34H242.51C242.89 174.34 243.211 174.665 243.211 175.07V185.728Z" fill="#85583C"/>
</svg>
