<svg width="65" height="57" viewBox="0 0 65 57" fill="none" xmlns="http://www.w3.org/2000/svg">
<g clip-path="url(#clip0_293_2501)">
<path d="M61.8878 16.0684H42.5894V17.8811H61.8878V16.0684Z" fill="#ED8945"/>
<path d="M61.8878 0.707031H42.5894V16.6395H61.8878V0.707031Z" fill="#FFAD6E"/>
<path d="M54.405 11.1777H50.0718V16.6398H54.405V11.1777Z" fill="#FFC59E"/>
<path d="M54.405 0.707031H50.0718V6.16906H54.405V0.707031Z" fill="#FFC59E"/>
<path fill-rule="evenodd" clip-rule="evenodd" d="M46.8397 14.9795C46.8397 14.9795 46.8403 14.983 46.8397 14.98V14.9795ZM46.6234 15.4127H46.6572C46.6988 15.4131 46.7391 15.3982 46.7703 15.3707L46.8257 15.2879C46.8379 15.2726 46.8479 15.2557 46.8554 15.2377C46.8619 15.2221 46.8619 15.2045 46.8554 15.1888L46.7779 15.0401L46.7668 15.0179L46.7878 15.0045L46.824 14.9812L46.5144 14.9229L46.4158 15.2144L46.4508 15.1917L46.4741 15.1759L46.4893 15.1998L46.6234 15.4127ZM46.2363 15.4127H46.5587L46.4566 15.2506L46.4118 15.2797H46.4088C46.4023 15.2809 46.3956 15.2809 46.389 15.2797C46.3841 15.2792 46.3793 15.2777 46.375 15.2753C46.3707 15.2729 46.367 15.2696 46.3639 15.2657C46.3576 15.258 46.3541 15.2483 46.354 15.2383C46.3542 15.2245 46.357 15.2109 46.3622 15.1981L46.4718 14.8757L46.4794 14.8535L46.5027 14.8576L46.8368 14.9211C46.8758 14.9293 46.8951 14.9445 46.8951 14.962C46.8964 14.9716 46.8947 14.9815 46.8903 14.9902C46.886 14.9989 46.8791 15.0061 46.8706 15.0109L46.8409 15.0302L46.9068 15.1573C46.9134 15.1715 46.9172 15.1869 46.9179 15.2026C46.9186 15.2184 46.9162 15.234 46.9108 15.2488C46.9018 15.2719 46.8895 15.2935 46.8741 15.313L46.6181 15.7211C46.6064 15.749 46.5863 15.7727 46.5606 15.7888C46.535 15.805 46.505 15.8129 46.4747 15.8115H46.1832V15.4721C46.1779 15.4261 46.1984 15.415 46.2363 15.4132V15.4127Z" fill="#85583C"/>
<path d="M45.6201 14.6883C45.6201 14.6883 45.6224 14.686 45.6201 14.6883V14.6883ZM46.1548 14.6522L46.0551 14.8638L46.104 14.8854H46.1075C46.1127 14.8897 46.1168 14.8951 46.1198 14.9011C46.1217 14.9056 46.1227 14.9105 46.1227 14.9154C46.1227 14.9203 46.1217 14.9252 46.1198 14.9297C46.1167 14.9392 46.1103 14.9473 46.1017 14.9524C46.0901 14.9598 46.0773 14.965 46.0638 14.9676L45.7332 15.0492L45.7099 15.055L45.7011 15.0329L45.5746 14.7175C45.5606 14.6801 45.5635 14.6592 45.5746 14.6457C45.582 14.6394 45.5912 14.6355 45.6008 14.6345C45.6105 14.6334 45.6203 14.6353 45.6288 14.6399L45.6609 14.6545L45.7326 14.5303C45.7409 14.517 45.7518 14.5055 45.7646 14.4965C45.7774 14.4874 45.7919 14.4811 45.8073 14.4778C45.8316 14.4728 45.8566 14.4714 45.8813 14.4737H46.3303L46.1233 14.532L45.8784 14.5268C45.8591 14.5234 45.8394 14.5234 45.8201 14.5268C45.8119 14.5284 45.8042 14.5315 45.7973 14.5362C45.7904 14.5408 45.7844 14.5467 45.7799 14.5536L45.6965 14.6988L45.6837 14.7204L45.6609 14.7105L45.6218 14.6924L45.7385 14.9839L46.0364 14.9104L45.9979 14.8935L45.9723 14.8819L45.9839 14.8568L46.0953 14.6195L46.1548 14.6522Z" fill="#85583C"/>
<path fill-rule="evenodd" clip-rule="evenodd" d="M46.3105 14.9611L46.0837 14.6071C46.072 14.5881 46.0566 14.5716 46.0384 14.5588C46.0201 14.546 45.9994 14.537 45.9775 14.5325L46.1274 14.483L46.3699 14.473C46.3999 14.4676 46.4309 14.4716 46.4585 14.4845C46.4862 14.4973 46.5092 14.5184 46.5244 14.5448L46.683 14.7937L46.3973 14.9768C46.3525 15.0048 46.3326 14.9937 46.3105 14.9628V14.9611Z" fill="#85583C"/>
<path fill-rule="evenodd" clip-rule="evenodd" d="M45.9542 15.8841C45.9524 15.883 45.9507 15.883 45.9542 15.8841V15.8841ZM45.6918 15.4778L45.6749 15.5069C45.6539 15.5419 45.6463 15.5833 45.6533 15.6235L45.6965 15.7133C45.7029 15.7312 45.7121 15.7479 45.7239 15.7629C45.729 15.7695 45.7354 15.7751 45.7427 15.7792C45.75 15.7833 45.7581 15.7859 45.7664 15.7868L45.9338 15.7955H45.9583V15.82V15.8637L46.1658 15.6264L45.9658 15.3932V15.4352V15.4632H45.9373L45.6918 15.4778ZM45.8877 15.1443L45.7245 15.4218L45.9163 15.4165L45.9134 15.3629V15.3559C45.9146 15.3493 45.9174 15.3431 45.9215 15.3378C45.9274 15.3299 45.9362 15.3247 45.946 15.3232C45.9559 15.322 45.966 15.324 45.9746 15.3291C45.9864 15.3361 45.9967 15.3454 46.0049 15.3565L46.227 15.6142L46.2428 15.6323L46.227 15.6503L46.0032 15.9057C45.9763 15.9349 45.9548 15.9419 45.9378 15.9366C45.9289 15.9328 45.9212 15.9263 45.9159 15.9181C45.9106 15.9099 45.9079 15.9003 45.9081 15.8906V15.855L45.7653 15.8474C45.7496 15.8462 45.7343 15.8417 45.7204 15.8344C45.7065 15.8271 45.6942 15.817 45.6842 15.8048C45.6689 15.7854 45.6565 15.7638 45.6475 15.7407L45.4265 15.3133C45.4083 15.289 45.398 15.2597 45.397 15.2293C45.3961 15.199 45.4046 15.169 45.4213 15.1437L45.5699 14.8906L45.8615 15.0655C45.9046 15.0871 45.904 15.1104 45.886 15.1454L45.8877 15.1443Z" fill="#85583C"/>
<path d="M46.9373 14.1875H45.3729C45.32 14.1889 45.2697 14.2111 45.2331 14.2493C45.1964 14.2875 45.1762 14.3386 45.177 14.3916V16.0189C45.1762 16.0717 45.1964 16.1227 45.2331 16.1607C45.2698 16.1988 45.3201 16.2207 45.3729 16.2218H46.9373C46.9901 16.2207 47.0403 16.1987 47.0769 16.1607C47.1135 16.1227 47.1335 16.0717 47.1326 16.0189V14.3916C47.1335 14.3387 47.1135 14.2875 47.0769 14.2493C47.0404 14.2111 46.9902 14.1889 46.9373 14.1875ZM47.0154 15.995C47.0159 16.0229 47.0053 16.0499 46.986 16.0701C46.9666 16.0903 46.9401 16.1021 46.9122 16.1028H45.3963C45.3683 16.1021 45.3418 16.0903 45.3225 16.0701C45.3032 16.0499 45.2926 16.0229 45.2931 15.995V14.4207C45.2927 14.4068 45.295 14.393 45.3 14.3801C45.305 14.3671 45.3125 14.3553 45.3221 14.3452C45.3317 14.3352 45.3432 14.3272 45.356 14.3216C45.3687 14.3161 45.3824 14.3131 45.3963 14.3129H46.9122C46.926 14.3132 46.9397 14.3162 46.9524 14.3218C46.9651 14.3274 46.9766 14.3354 46.9861 14.3454C46.9957 14.3554 47.0032 14.3672 47.0083 14.3802C47.0133 14.3931 47.0157 14.4069 47.0154 14.4207V15.995Z" fill="#85583C"/>
<path d="M44.6272 15.9852H43.6086C43.5991 15.9852 43.5901 15.9814 43.5834 15.9748C43.5767 15.9681 43.573 15.9591 43.573 15.9496C43.573 15.9402 43.5767 15.9311 43.5834 15.9245C43.5901 15.9178 43.5991 15.9141 43.6086 15.9141H44.6272C44.6366 15.9141 44.6456 15.9178 44.6523 15.9245C44.659 15.9311 44.6627 15.9402 44.6627 15.9496C44.6627 15.9591 44.659 15.9681 44.6523 15.9748C44.6456 15.9814 44.6366 15.9852 44.6272 15.9852Z" fill="#85583C"/>
<path fill-rule="evenodd" clip-rule="evenodd" d="M43.9619 14.6992V15.7627H43.7462V14.6986L43.6406 14.6981L43.8587 14.4258L44.075 14.6992H43.9619Z" fill="#85583C"/>
<path fill-rule="evenodd" clip-rule="evenodd" d="M44.4907 14.6992V15.7627H44.2755V14.6981H44.1694L44.3875 14.4258L44.6038 14.6992H44.4907Z" fill="#85583C"/>
<path d="M44.9006 14.1875H43.3363C43.2834 14.1889 43.2331 14.2111 43.1964 14.2493C43.1598 14.2875 43.1396 14.3386 43.1404 14.3916V16.0189C43.1396 16.0717 43.1598 16.1227 43.1965 16.1607C43.2332 16.1988 43.2835 16.2207 43.3363 16.2218H44.9006C44.9534 16.2207 45.0036 16.1987 45.0402 16.1607C45.0769 16.1227 45.0969 16.0717 45.096 16.0189V14.3916C45.0969 14.3387 45.0769 14.2875 45.0403 14.2493C45.0037 14.2111 44.9535 14.1889 44.9006 14.1875ZM44.9788 15.995C44.9792 16.0229 44.9687 16.0499 44.9493 16.0701C44.93 16.0903 44.9035 16.1021 44.8756 16.1028H43.3596C43.3316 16.1021 43.3051 16.0903 43.2857 16.0701C43.2662 16.05 43.2555 16.023 43.2558 15.995V14.4207C43.2555 14.4068 43.258 14.393 43.263 14.38C43.2681 14.3671 43.2757 14.3552 43.2853 14.3452C43.295 14.3352 43.3065 14.3272 43.3192 14.3216C43.332 14.3161 43.3457 14.3131 43.3596 14.3129H44.8756C44.8894 14.3132 44.9031 14.3162 44.9158 14.3218C44.9285 14.3274 44.9399 14.3354 44.9495 14.3454C44.9591 14.3554 44.9666 14.3672 44.9716 14.3802C44.9767 14.3931 44.9791 14.4069 44.9788 14.4207V15.995Z" fill="#85583C"/>
<path d="M48.9739 14.1875H47.4095C47.3566 14.1889 47.3063 14.2111 47.2697 14.2493C47.233 14.2875 47.2129 14.3386 47.2136 14.3916V16.0189C47.2129 16.0717 47.233 16.1227 47.2697 16.1607C47.3064 16.1988 47.3567 16.2207 47.4095 16.2218H48.9739C49.0267 16.2207 49.0769 16.1987 49.1135 16.1607C49.1501 16.1227 49.1701 16.0717 49.1692 16.0189V14.3916C49.1701 14.3387 49.1501 14.2875 49.1135 14.2493C49.077 14.2111 49.0268 14.1889 48.9739 14.1875ZM49.052 15.995C49.0525 16.0229 49.0419 16.0499 49.0226 16.0701C49.0032 16.0903 48.9767 16.1021 48.9488 16.1028H47.4329C47.4049 16.1021 47.3784 16.0903 47.3591 16.0701C47.3398 16.0499 47.3292 16.0229 47.3297 15.995V14.4207C47.3293 14.4068 47.3317 14.393 47.3366 14.3801C47.3416 14.3671 47.3491 14.3553 47.3587 14.3452C47.3683 14.3352 47.3798 14.3272 47.3926 14.3216C47.4053 14.3161 47.419 14.3131 47.4329 14.3129H48.9488C48.9627 14.3132 48.9763 14.3162 48.989 14.3218C49.0017 14.3274 49.0132 14.3354 49.0227 14.3454C49.0323 14.3554 49.0398 14.3672 49.0449 14.3802C49.0499 14.3931 49.0523 14.4069 49.052 14.4207V15.995Z" fill="#85583C"/>
<path fill-rule="evenodd" clip-rule="evenodd" d="M48.182 14.7168C48.0231 14.717 47.8688 14.7708 47.7441 14.8693C47.6194 14.9679 47.5316 15.1056 47.4946 15.2602C47.5282 15.2311 47.5715 15.2159 47.6159 15.2176C47.6911 15.2176 47.7529 15.255 47.7588 15.3022C47.7663 15.2555 47.827 15.2194 47.9016 15.2194C47.9762 15.2194 48.0386 15.2561 48.0445 15.3033C48.052 15.2573 48.1127 15.2206 48.1873 15.2206C48.2619 15.2206 48.3243 15.2579 48.3301 15.3051C48.3377 15.259 48.3989 15.2223 48.473 15.2223C48.547 15.2223 48.6112 15.2602 48.6164 15.3086C48.6211 15.2602 48.6835 15.2223 48.7593 15.2223C48.7981 15.2214 48.8362 15.2326 48.8683 15.2544C48.8305 15.1009 48.7423 14.9646 48.6179 14.8672C48.4935 14.7697 48.3401 14.7168 48.182 14.7168Z" fill="#85583C"/>
<path d="M48.2247 14.6772C48.2247 14.6685 48.2213 14.6602 48.2152 14.6541C48.209 14.648 48.2007 14.6445 48.1921 14.6445C48.1834 14.6445 48.1751 14.648 48.169 14.6541C48.1629 14.6602 48.1594 14.6685 48.1594 14.6772V15.8637C48.1594 15.8724 48.1629 15.8807 48.169 15.8868C48.1751 15.8929 48.1834 15.8963 48.1921 15.8963C48.2007 15.8963 48.209 15.8929 48.2152 15.8868C48.2213 15.8807 48.2247 15.8724 48.2247 15.8637V14.6772Z" fill="#85583C"/>
<path d="M47.9813 15.7866C47.9875 15.7805 47.991 15.7721 47.9911 15.7635C47.9911 15.7548 47.9877 15.7464 47.9816 15.7402C47.9755 15.734 47.9672 15.7305 47.9585 15.7305C47.9498 15.7304 47.9415 15.7338 47.9353 15.7399C47.9036 15.7717 47.8857 15.8148 47.8857 15.8597C47.8857 15.9047 47.9036 15.9478 47.9353 15.9796C47.9549 15.9995 47.9792 16.0142 48.006 16.0225C48.0327 16.0308 48.0611 16.0323 48.0886 16.0269C48.1161 16.0215 48.1418 16.0095 48.1635 15.9917C48.1851 15.974 48.2021 15.9512 48.2128 15.9253C48.2212 15.9044 48.2256 15.882 48.2256 15.8594C48.2255 15.8507 48.2219 15.8424 48.2157 15.8363C48.2095 15.8302 48.2011 15.8268 48.1924 15.8268C48.1881 15.8268 48.1838 15.8277 48.1799 15.8293C48.1759 15.831 48.1723 15.8335 48.1693 15.8366C48.1663 15.8397 48.164 15.8434 48.1624 15.8474C48.1609 15.8514 48.1602 15.8557 48.1603 15.86C48.1604 15.874 48.1577 15.8878 48.1523 15.9006C48.1469 15.9134 48.1389 15.925 48.1289 15.9347C48.1093 15.954 48.0829 15.9649 48.0554 15.9649C48.0279 15.9649 48.0015 15.954 47.9819 15.9347C47.9628 15.915 47.9522 15.8886 47.9522 15.8612C47.9523 15.8475 47.9552 15.8339 47.9606 15.8213C47.966 15.8087 47.9738 15.7973 47.9837 15.7877L47.9813 15.7866Z" fill="#85583C"/>
<path d="M32.2938 16.0684H22.9219V17.8811H32.2938V16.0684Z" fill="#ED8945"/>
<path d="M42.2109 16.0684H32.864V17.8811H42.2109V16.0684Z" fill="#ED8945"/>
<path d="M42.2203 0.707031H22.9219V16.6395H42.2203V0.707031Z" fill="#FFAD6E"/>
<path d="M34.7375 11.1777H30.4043V16.6398H34.7375V11.1777Z" fill="#FFC59E"/>
<path d="M34.7373 0.707031H30.4041V6.16906H34.7373V0.707031Z" fill="#FFC59E"/>
<path fill-rule="evenodd" clip-rule="evenodd" d="M27.1723 14.9795C27.1723 14.9795 27.1728 14.983 27.1723 14.98V14.9795ZM26.9559 15.4127H26.9898C27.0312 15.4132 27.0713 15.3982 27.1023 15.3707L27.1606 15.2879C27.1727 15.2726 27.1827 15.2557 27.1903 15.2377C27.1967 15.2221 27.1967 15.2045 27.1903 15.1888L27.1128 15.0401L27.1017 15.0179L27.1227 15.0045L27.1588 14.9812L26.8492 14.9229L26.7507 15.2144L26.7857 15.1917L26.809 15.1759L26.8242 15.1998L26.9559 15.4127ZM26.5688 15.4127H26.8906L26.7892 15.2506L26.7443 15.2797H26.7414H26.7385C26.7319 15.2809 26.7252 15.2809 26.7186 15.2797C26.7137 15.2792 26.709 15.2777 26.7047 15.2753C26.7004 15.2729 26.6966 15.2696 26.6936 15.2657C26.6872 15.258 26.6837 15.2483 26.6837 15.2383C26.6836 15.2245 26.6863 15.2108 26.6918 15.1981L26.8014 14.8757L26.809 14.8535L26.8323 14.8576L27.1664 14.9211C27.2049 14.9293 27.2218 14.9445 27.2247 14.962C27.226 14.9716 27.2243 14.9815 27.22 14.9902C27.2156 14.9989 27.2087 15.0061 27.2002 15.0109L27.1705 15.0302L27.2364 15.1573C27.2431 15.1715 27.2468 15.1869 27.2475 15.2026C27.2482 15.2184 27.2458 15.234 27.2405 15.2488C27.2315 15.2719 27.2191 15.2935 27.2037 15.313L26.9478 15.7211C26.936 15.749 26.9159 15.7727 26.8903 15.7888C26.8646 15.805 26.8346 15.8129 26.8043 15.8115H26.5128V15.4721C26.5093 15.4261 26.5309 15.415 26.5676 15.4132L26.5688 15.4127Z" fill="#85583C"/>
<path d="M25.9528 14.6883C25.9528 14.6883 25.9551 14.686 25.9528 14.6883V14.6883ZM26.4874 14.6522L26.3877 14.8638L26.4367 14.8854H26.4402C26.4453 14.8897 26.4495 14.8951 26.4524 14.9011C26.4543 14.9056 26.4553 14.9105 26.4553 14.9154C26.4553 14.9203 26.4543 14.9252 26.4524 14.9297C26.4494 14.9392 26.443 14.9473 26.4344 14.9524C26.4226 14.9599 26.4096 14.9651 26.3959 14.9676L26.0659 15.0492L26.0425 15.055L26.0338 15.0329L25.9067 14.7175C25.8927 14.6801 25.8962 14.6592 25.9067 14.6457C25.9141 14.6394 25.9232 14.6355 25.9329 14.6345C25.9426 14.6334 25.9523 14.6353 25.9609 14.6399L25.993 14.6545L26.0647 14.5303C26.073 14.517 26.0838 14.5055 26.0967 14.4965C26.1095 14.4874 26.124 14.4811 26.1393 14.4778C26.1637 14.4728 26.1886 14.4714 26.2134 14.4737H26.6623L26.4554 14.532L26.2105 14.5268C26.1912 14.5234 26.1715 14.5234 26.1522 14.5268C26.144 14.5284 26.1362 14.5315 26.1293 14.5362C26.1224 14.5408 26.1165 14.5467 26.1119 14.5536L26.0286 14.6988L26.0157 14.7204L25.993 14.7105L25.9539 14.6924L26.0705 14.9839L26.3685 14.9104L26.33 14.8935L26.3043 14.8819L26.316 14.8568L26.4274 14.6195L26.4874 14.6522Z" fill="#85583C"/>
<path fill-rule="evenodd" clip-rule="evenodd" d="M26.643 14.9611L26.4162 14.6071C26.4045 14.5882 26.389 14.5718 26.3708 14.5589C26.3525 14.5461 26.3319 14.5371 26.3101 14.5325L26.4599 14.483L26.7025 14.473C26.7325 14.4676 26.7634 14.4716 26.791 14.4845C26.8187 14.4973 26.8417 14.5184 26.857 14.5448L27.0155 14.792L26.7299 14.9751C26.685 15.003 26.6651 14.992 26.643 14.9611Z" fill="#85583C"/>
<path fill-rule="evenodd" clip-rule="evenodd" d="M26.2866 15.8826C26.2866 15.8826 26.2831 15.8814 26.2866 15.8826V15.8826ZM26.0225 15.4762L26.005 15.5053C25.9847 15.5406 25.9773 15.5818 25.984 15.6219L26.0272 15.7117C26.0336 15.7296 26.0428 15.7464 26.0546 15.7613C26.0595 15.7681 26.0659 15.7738 26.0732 15.7779C26.0806 15.782 26.0887 15.7845 26.0971 15.7852L26.2645 15.7939H26.289V15.8184V15.8622L26.4971 15.6249L26.2966 15.3916V15.4336V15.4616H26.2686L26.0225 15.4762ZM26.2178 15.1438L26.0546 15.4214L26.2458 15.4161V15.3625V15.3555C26.2471 15.349 26.2497 15.3429 26.2534 15.3374C26.2595 15.3297 26.2682 15.3245 26.2779 15.3228C26.288 15.3215 26.2982 15.3236 26.3071 15.3287C26.3189 15.3357 26.3292 15.345 26.3374 15.3561L26.5595 15.6138L26.5752 15.6319L26.5595 15.6499L26.3345 15.9018C26.3076 15.931 26.2861 15.938 26.2691 15.9327C26.2602 15.9289 26.2525 15.9224 26.2472 15.9142C26.2419 15.906 26.2392 15.8964 26.2394 15.8867V15.8511L26.096 15.8435C26.0804 15.8422 26.0652 15.8377 26.0514 15.8304C26.0376 15.8231 26.0254 15.8131 26.0155 15.8009C26 15.7817 25.9875 15.76 25.9788 15.7368L25.7578 15.3094C25.7396 15.2851 25.7293 15.2558 25.7283 15.2254C25.7274 15.1951 25.7359 15.1651 25.7526 15.1398L25.9013 14.8867L26.1928 15.0616C26.2371 15.0855 26.2365 15.1089 26.2178 15.1438Z" fill="#85583C"/>
<path d="M27.2674 14.1875H25.7031C25.6501 14.1889 25.5998 14.2111 25.563 14.2492C25.5262 14.2874 25.506 14.3386 25.5066 14.3916V16.0189C25.506 16.0718 25.5263 16.1228 25.5631 16.1608C25.5999 16.1988 25.6502 16.2207 25.7031 16.2218H27.2674C27.3202 16.2207 27.3704 16.1987 27.407 16.1607C27.4436 16.1227 27.4637 16.0717 27.4627 16.0189V14.3916C27.4637 14.3387 27.4437 14.2875 27.4071 14.2493C27.3705 14.2111 27.3203 14.1889 27.2674 14.1875ZM27.3456 15.995C27.346 16.0229 27.3354 16.0499 27.3161 16.0701C27.2968 16.0903 27.2703 16.1021 27.2424 16.1028H25.7264C25.6984 16.1021 25.6719 16.0903 25.6524 16.0701C25.633 16.05 25.6223 16.023 25.6226 15.995V14.4207C25.6223 14.4068 25.6248 14.393 25.6298 14.38C25.6349 14.3671 25.6424 14.3552 25.6521 14.3452C25.6617 14.3352 25.6733 14.3272 25.686 14.3216C25.6988 14.3161 25.7125 14.3131 25.7264 14.3129H27.2424C27.2562 14.3132 27.2699 14.3162 27.2826 14.3218C27.2953 14.3274 27.3067 14.3354 27.3163 14.3454C27.3259 14.3554 27.3334 14.3672 27.3384 14.3802C27.3434 14.3931 27.3459 14.4069 27.3456 14.4207V15.995Z" fill="#85583C"/>
<path d="M24.9597 15.9852H23.944C23.9346 15.9852 23.9255 15.9814 23.9189 15.9748C23.9122 15.9681 23.9084 15.9591 23.9084 15.9496C23.9084 15.9402 23.9122 15.9311 23.9189 15.9245C23.9255 15.9178 23.9346 15.9141 23.944 15.9141H24.9626C24.972 15.9141 24.9811 15.9178 24.9878 15.9245C24.9944 15.9311 24.9982 15.9402 24.9982 15.9496C24.9982 15.9591 24.9944 15.9681 24.9878 15.9748C24.9811 15.9814 24.972 15.9852 24.9626 15.9852H24.9597Z" fill="#85583C"/>
<path fill-rule="evenodd" clip-rule="evenodd" d="M24.2944 14.6992V15.7627H24.0787V14.6986L23.9731 14.6981L24.1912 14.4258L24.4075 14.6992H24.2944Z" fill="#85583C"/>
<path fill-rule="evenodd" clip-rule="evenodd" d="M24.8232 14.6992V15.7627H24.6075V14.6981H24.502L24.72 14.4258L24.9363 14.6992H24.8232Z" fill="#85583C"/>
<path d="M25.233 14.1875H23.6687C23.6156 14.1887 23.5652 14.2109 23.5284 14.2491C23.4916 14.2873 23.4714 14.3385 23.4722 14.3916V16.0189C23.4714 16.0718 23.4917 16.1229 23.5285 16.1609C23.5653 16.199 23.6157 16.2208 23.6687 16.2218H25.233C25.2858 16.2207 25.336 16.1987 25.3726 16.1607C25.4092 16.1227 25.4293 16.0717 25.4283 16.0189V14.3916C25.4293 14.3387 25.4093 14.2875 25.3727 14.2493C25.3361 14.2111 25.2859 14.1889 25.233 14.1875ZM25.3111 15.995C25.3116 16.0229 25.301 16.0499 25.2817 16.0701C25.2624 16.0903 25.2359 16.1021 25.2079 16.1028H23.692C23.664 16.1022 23.6373 16.0905 23.6179 16.0703C23.5984 16.0501 23.5877 16.023 23.5882 15.995V14.4207C23.5879 14.4068 23.5903 14.393 23.5954 14.38C23.6005 14.3671 23.608 14.3552 23.6177 14.3452C23.6273 14.3352 23.6389 14.3272 23.6516 14.3216C23.6644 14.3161 23.6781 14.3131 23.692 14.3129H25.2079C25.2218 14.3132 25.2355 14.3162 25.2481 14.3218C25.2608 14.3274 25.2723 14.3354 25.2819 14.3454C25.2915 14.3554 25.299 14.3672 25.304 14.3802C25.309 14.3931 25.3114 14.4069 25.3111 14.4207V15.995Z" fill="#85583C"/>
<path d="M29.3082 14.1875H27.7439C27.6909 14.1889 27.6405 14.2111 27.6038 14.2492C27.567 14.2874 27.5467 14.3386 27.5474 14.3916V16.0189C27.5468 16.0718 27.567 16.1228 27.6038 16.1608C27.6406 16.1988 27.691 16.2207 27.7439 16.2218H29.3082C29.361 16.2207 29.4112 16.1987 29.4478 16.1607C29.4844 16.1227 29.5045 16.0717 29.5035 16.0189V14.3916C29.5045 14.3387 29.4845 14.2875 29.4479 14.2493C29.4113 14.2111 29.3611 14.1889 29.3082 14.1875ZM29.3863 15.995C29.3868 16.0229 29.3762 16.0499 29.3569 16.0701C29.3376 16.0903 29.3111 16.1021 29.2831 16.1028H27.7672C27.7392 16.1021 27.7126 16.0903 27.6932 16.0701C27.6738 16.05 27.6631 16.023 27.6634 15.995V14.4207C27.6631 14.4068 27.6655 14.393 27.6706 14.38C27.6756 14.3671 27.6832 14.3552 27.6929 14.3452C27.7025 14.3352 27.714 14.3272 27.7268 14.3216C27.7395 14.3161 27.7533 14.3131 27.7672 14.3129H29.2831C29.297 14.3132 29.3106 14.3162 29.3233 14.3218C29.336 14.3274 29.3475 14.3354 29.3571 14.3454C29.3667 14.3554 29.3742 14.3672 29.3792 14.3802C29.3842 14.3931 29.3866 14.4069 29.3863 14.4207V15.995Z" fill="#85583C"/>
<path fill-rule="evenodd" clip-rule="evenodd" d="M28.5146 14.7168C28.3554 14.7169 28.2009 14.7707 28.0762 14.8695C27.9514 14.9684 27.8637 15.1064 27.8271 15.2614C27.8607 15.2323 27.9041 15.2171 27.9484 15.2188C28.0236 15.2188 28.0854 15.2561 28.0913 15.3033C28.0983 15.2567 28.1595 15.2206 28.2341 15.2206C28.3087 15.2206 28.3711 15.2573 28.377 15.3045C28.384 15.2585 28.4452 15.2217 28.5198 15.2217C28.5944 15.2217 28.6568 15.259 28.6627 15.3063C28.6702 15.2602 28.7309 15.2235 28.8055 15.2235C28.8801 15.2235 28.9437 15.2614 28.9489 15.3098C28.9536 15.2614 29.016 15.2235 29.0918 15.2235C29.1306 15.2226 29.1687 15.2338 29.2008 15.2555C29.1629 15.1022 29.0747 14.9659 28.9504 14.8684C28.826 14.771 28.6726 14.718 28.5146 14.718V14.7168Z" fill="#85583C"/>
<path d="M28.5571 14.6772C28.5571 14.6685 28.5537 14.6602 28.5475 14.6541C28.5414 14.648 28.5331 14.6445 28.5244 14.6445C28.5157 14.6445 28.5074 14.648 28.5011 14.6541C28.4949 14.6602 28.4914 14.6685 28.4912 14.6772V15.8637C28.4912 15.8724 28.4947 15.8807 28.5008 15.8868C28.5069 15.8929 28.5152 15.8963 28.5239 15.8963C28.5325 15.8963 28.5408 15.8929 28.547 15.8868C28.5531 15.8807 28.5565 15.8724 28.5565 15.8637L28.5571 14.6772Z" fill="#85583C"/>
<path d="M28.3134 15.786C28.3165 15.783 28.3189 15.7795 28.3206 15.7755C28.3223 15.7716 28.3231 15.7673 28.3231 15.763C28.3231 15.7587 28.3223 15.7545 28.3206 15.7505C28.3189 15.7465 28.3165 15.743 28.3134 15.74C28.3073 15.7339 28.299 15.7305 28.2903 15.7305C28.2817 15.7305 28.2734 15.7339 28.2673 15.74C28.2356 15.7718 28.2178 15.8149 28.2178 15.8598C28.2178 15.9047 28.2356 15.9478 28.2673 15.9796C28.287 15.9995 28.3113 16.0143 28.338 16.0226C28.3648 16.0308 28.3932 16.0323 28.4206 16.027C28.4481 16.0216 28.4738 16.0095 28.4955 15.9918C28.5172 15.9741 28.5341 15.9513 28.5448 15.9254C28.5532 15.9044 28.5576 15.8821 28.5577 15.8595C28.5575 15.8508 28.5539 15.8425 28.5477 15.8364C28.5415 15.8303 28.5332 15.8268 28.5244 15.8268C28.5157 15.827 28.5074 15.8306 28.5013 15.8368C28.4952 15.843 28.4918 15.8514 28.4918 15.8601C28.4922 15.8741 28.4896 15.888 28.4842 15.9009C28.4786 15.9135 28.4707 15.925 28.4609 15.9347C28.4413 15.9541 28.4149 15.9649 28.3874 15.9649C28.3599 15.9649 28.3335 15.9541 28.314 15.9347C28.2946 15.9152 28.2837 15.8888 28.2837 15.8612C28.2837 15.8337 28.2946 15.8073 28.314 15.7878L28.3134 15.786Z" fill="#85583C"/>
<path d="M22.5435 16.0684H3.24512V17.8811H22.5435V16.0684Z" fill="#ED8945"/>
<path d="M22.5435 0.707031H3.24512V16.6395H22.5435V0.707031Z" fill="#FFAD6E"/>
<path d="M15.0605 11.1777H10.7273V16.6398H15.0605V11.1777Z" fill="#FFC59E"/>
<path d="M15.0605 0.707031H10.7273V6.16906H15.0605V0.707031Z" fill="#FFC59E"/>
<path fill-rule="evenodd" clip-rule="evenodd" d="M7.49482 14.9795C7.49482 14.9795 7.4954 14.983 7.49482 14.98V14.9795ZM7.27909 15.4127H7.31233C7.35396 15.4133 7.39433 15.3984 7.42544 15.3707L7.48375 15.2879C7.49591 15.2727 7.50574 15.2558 7.5129 15.2377C7.51645 15.2301 7.51829 15.2217 7.51829 15.2133C7.51829 15.2048 7.51645 15.1964 7.5129 15.1888L7.43595 15.0401L7.42427 15.0179L7.44527 15.0045L7.48199 14.9812L7.17241 14.9229L7.07386 15.2144L7.10885 15.1917L7.13216 15.1759L7.14732 15.1998L7.27909 15.4127ZM6.89195 15.4127H7.2138L7.11177 15.2506L7.06745 15.2797H7.06395C7.0576 15.2809 7.05106 15.2809 7.04471 15.2797C7.03467 15.2786 7.02547 15.2735 7.01906 15.2657C7.01288 15.2579 7.00959 15.2483 7.00973 15.2383C7.00963 15.2245 7.01241 15.2108 7.01789 15.1981L7.12751 14.8757L7.13508 14.8535L7.15841 14.8576L7.4925 14.9211C7.53098 14.9293 7.54789 14.9445 7.55081 14.962C7.55207 14.9716 7.5504 14.9815 7.54604 14.9902C7.54167 14.9989 7.5348 15.0061 7.52631 15.0109L7.49657 15.0302L7.56246 15.1573C7.56913 15.1715 7.57292 15.1869 7.57362 15.2026C7.57432 15.2184 7.57192 15.234 7.56655 15.2488C7.55732 15.2718 7.54495 15.2934 7.52981 15.313L7.27386 15.7211C7.26197 15.7491 7.24178 15.7727 7.21603 15.7889C7.19028 15.8051 7.16021 15.8129 7.12984 15.8115H6.83832V15.4721C6.83365 15.4261 6.85347 15.415 6.89195 15.4132V15.4127Z" fill="#85583C"/>
<path d="M6.27517 14.6883C6.27517 14.6883 6.2775 14.686 6.2775 14.6883H6.27517ZM6.81041 14.6522L6.71071 14.8638L6.7591 14.8854H6.76319C6.76833 14.8897 6.7725 14.8951 6.77543 14.9011C6.77734 14.9056 6.77832 14.9105 6.77832 14.9154C6.77832 14.9203 6.77734 14.9252 6.77543 14.9297C6.77217 14.9391 6.76579 14.9471 6.75735 14.9524C6.74564 14.9599 6.73257 14.9651 6.71888 14.9676L6.38886 15.0492L6.36554 15.0551L6.3568 15.0329L6.22969 14.7175C6.2157 14.6802 6.21919 14.6592 6.22969 14.6458C6.23709 14.6394 6.24624 14.6355 6.25591 14.6345C6.26558 14.6334 6.27535 14.6353 6.28392 14.6399L6.31598 14.6545L6.38711 14.5303C6.39545 14.5169 6.40642 14.5054 6.41935 14.4964C6.43228 14.4873 6.44689 14.481 6.46233 14.4778C6.48647 14.4728 6.51124 14.4714 6.53579 14.4738H6.98532L6.77835 14.5321L6.53346 14.5268C6.51417 14.5234 6.49444 14.5234 6.47515 14.5268C6.46698 14.5283 6.45919 14.5315 6.45228 14.5361C6.44536 14.5407 6.43946 14.5467 6.43492 14.5536L6.35097 14.6988L6.33873 14.7204L6.31598 14.7105L6.27634 14.6924L6.39295 14.9839L6.69031 14.9105L6.6524 14.8935L6.62675 14.8819L6.63841 14.8568L6.74978 14.6195L6.81041 14.6522Z" fill="#85583C"/>
<path fill-rule="evenodd" clip-rule="evenodd" d="M6.96622 14.9611L6.73882 14.6071C6.72724 14.5882 6.7119 14.5718 6.69376 14.5589C6.67561 14.5461 6.65505 14.5371 6.6333 14.5325L6.78313 14.483L7.02569 14.473C7.0557 14.4676 7.08664 14.4716 7.11429 14.4845C7.14194 14.4973 7.16496 14.5184 7.1802 14.5448L7.3382 14.792L7.0531 14.9751C7.0082 15.003 6.98838 14.992 6.96622 14.9611Z" fill="#85583C"/>
<path fill-rule="evenodd" clip-rule="evenodd" d="M6.60916 15.8841C6.60916 15.8841 6.60625 15.883 6.60916 15.8841V15.8841ZM6.34504 15.4778L6.32814 15.5069C6.30779 15.5422 6.30036 15.5834 6.30714 15.6235L6.35029 15.7133C6.35708 15.7311 6.36651 15.7478 6.37827 15.7629C6.38316 15.7696 6.38944 15.7753 6.39668 15.7794C6.40392 15.7835 6.41195 15.786 6.42025 15.7868L6.5876 15.7955H6.61266V15.82V15.8637L6.82023 15.6264L6.62024 15.3932V15.4352V15.4632H6.59225L6.34504 15.4778ZM6.54153 15.1443L6.37827 15.4218L6.56952 15.4165V15.3629V15.3559C6.57125 15.3495 6.574 15.3434 6.57767 15.3378C6.58378 15.3301 6.5925 15.325 6.60217 15.3232C6.61227 15.3219 6.62252 15.324 6.63132 15.3291C6.64305 15.3362 6.65333 15.3455 6.66164 15.3565L6.88378 15.6142L6.89952 15.6323L6.88378 15.6503L6.65989 15.9057C6.63307 15.9349 6.61149 15.9419 6.59458 15.9366C6.5856 15.9328 6.57798 15.9263 6.57268 15.9181C6.56738 15.9099 6.56465 15.9003 6.56485 15.8906V15.855L6.42142 15.8474C6.40584 15.8461 6.39069 15.8416 6.37687 15.8343C6.36304 15.827 6.35084 15.817 6.34097 15.8048C6.32539 15.7856 6.31298 15.7639 6.30423 15.7407L6.08325 15.3133C6.06501 15.289 6.05472 15.2597 6.05378 15.2293C6.05284 15.199 6.0613 15.169 6.07801 15.1437L6.22668 14.8906L6.5182 15.0655C6.56018 15.0871 6.55961 15.1104 6.54153 15.1454V15.1443Z" fill="#85583C"/>
<path d="M7.59287 14.1875H6.02853C5.97549 14.1887 5.92508 14.2109 5.88828 14.2491C5.85148 14.2873 5.83127 14.3385 5.83205 14.3916V16.0189C5.83127 16.0718 5.85152 16.1229 5.88835 16.1609C5.92518 16.199 5.97559 16.2208 6.02853 16.2218H7.59287C7.64565 16.2207 7.69585 16.1987 7.73247 16.1607C7.76908 16.1227 7.78912 16.0717 7.78818 16.0189V14.3916C7.78912 14.3387 7.76912 14.2875 7.73254 14.2493C7.69595 14.2111 7.64576 14.1889 7.59287 14.1875ZM7.67099 15.995C7.67131 16.0229 7.66068 16.0498 7.64139 16.0699C7.6221 16.0901 7.59567 16.1019 7.56778 16.1028H6.05185C6.02381 16.1022 5.99715 16.0905 5.9777 16.0703C5.95825 16.0501 5.94761 16.023 5.94808 15.995V14.4207C5.94777 14.4068 5.95021 14.393 5.95527 14.38C5.96032 14.3671 5.96789 14.3552 5.97753 14.3452C5.98718 14.3352 5.99871 14.3272 6.01147 14.3216C6.02422 14.3161 6.03794 14.3131 6.05185 14.3129H7.56778C7.59572 14.3136 7.62224 14.3254 7.64156 14.3456C7.66089 14.3658 7.67146 14.3928 7.67099 14.4207V15.995Z" fill="#85583C"/>
<path d="M5.28291 15.9852H4.26432C4.25489 15.9852 4.24584 15.9814 4.23917 15.9748C4.2325 15.9681 4.22876 15.9591 4.22876 15.9496C4.22876 15.9402 4.2325 15.9311 4.23917 15.9245C4.24584 15.9178 4.25489 15.9141 4.26432 15.9141H5.28291C5.29234 15.9141 5.30139 15.9178 5.30806 15.9245C5.31473 15.9311 5.31848 15.9402 5.31848 15.9496C5.31848 15.9591 5.31473 15.9681 5.30806 15.9748C5.30139 15.9814 5.29234 15.9852 5.28291 15.9852Z" fill="#85583C"/>
<path fill-rule="evenodd" clip-rule="evenodd" d="M4.61765 14.6992V15.7627H4.40192V14.6986L4.29639 14.6981L4.51386 14.4258L4.73076 14.6992H4.61765Z" fill="#85583C"/>
<path fill-rule="evenodd" clip-rule="evenodd" d="M5.14646 14.6992V15.7627H4.93073V14.6981H4.8252L5.04326 14.4258L5.25957 14.6992H5.14646Z" fill="#85583C"/>
<path d="M5.55624 14.1875H3.99193C3.93888 14.1887 3.88846 14.2109 3.85166 14.2491C3.81486 14.2873 3.79465 14.3385 3.79543 14.3916V16.0189C3.79465 16.0718 3.8149 16.1229 3.85173 16.1609C3.88856 16.199 3.93899 16.2208 3.99193 16.2218H5.55624C5.58248 16.2214 5.60839 16.2158 5.63247 16.2054C5.65656 16.195 5.67836 16.18 5.69661 16.1611C5.71487 16.1423 5.72922 16.12 5.73885 16.0956C5.74848 16.0712 5.7532 16.0451 5.75274 16.0189V14.3916C5.75368 14.3387 5.73368 14.2875 5.6971 14.2493C5.66051 14.2111 5.6103 14.1889 5.55741 14.1875H5.55624ZM5.63438 15.995C5.6347 16.0229 5.62408 16.0498 5.60478 16.0699C5.58549 16.0901 5.55907 16.1019 5.53118 16.1028H4.01524C3.9872 16.1022 3.96054 16.0905 3.9411 16.0703C3.92165 16.0501 3.91099 16.023 3.91146 15.995V14.4207C3.91115 14.4068 3.91359 14.393 3.91865 14.38C3.9237 14.3671 3.93128 14.3552 3.94092 14.3452C3.95057 14.3352 3.9621 14.3272 3.97486 14.3216C3.98762 14.3161 4.00133 14.3131 4.01524 14.3129H5.53118C5.55912 14.3136 5.58563 14.3254 5.60496 14.3456C5.62428 14.3658 5.63485 14.3928 5.63438 14.4207V15.995Z" fill="#85583C"/>
<path d="M9.62949 14.1875H8.06516C8.01211 14.1887 7.9617 14.2109 7.9249 14.2491C7.8881 14.2873 7.86789 14.3385 7.86867 14.3916V16.0189C7.86789 16.0718 7.88814 16.1229 7.92497 16.1609C7.96181 16.199 8.01222 16.2208 8.06516 16.2218H9.62949C9.68227 16.2207 9.73248 16.1987 9.7691 16.1607C9.80572 16.1227 9.82575 16.0717 9.82482 16.0189V14.3916C9.82576 14.3387 9.80576 14.2875 9.76917 14.2493C9.73259 14.2111 9.68238 14.1889 9.62949 14.1875ZM9.70762 15.995C9.70794 16.0229 9.69732 16.0498 9.67803 16.0699C9.65874 16.0901 9.63231 16.1019 9.60442 16.1028H8.08849C8.06044 16.1022 8.03379 16.0905 8.01434 16.0703C7.99489 16.0501 7.98423 16.023 7.9847 15.995V14.4207C7.98439 14.4068 7.98683 14.393 7.99189 14.38C7.99695 14.3671 8.00451 14.3552 8.01415 14.3452C8.0238 14.3352 8.03533 14.3272 8.04809 14.3216C8.06084 14.3161 8.07458 14.3131 8.08849 14.3129H9.60442C9.63236 14.3136 9.65886 14.3254 9.67818 14.3456C9.69751 14.3658 9.70809 14.3928 9.70762 14.4207V15.995Z" fill="#85583C"/>
<path fill-rule="evenodd" clip-rule="evenodd" d="M8.8378 14.7168C8.67879 14.7168 8.52444 14.7705 8.3997 14.8691C8.27496 14.9677 8.18713 15.1055 8.15039 15.2602C8.18395 15.2311 8.22729 15.2159 8.27166 15.2176C8.34687 15.2176 8.40867 15.255 8.4145 15.3022C8.4215 15.2555 8.48273 15.2194 8.55736 15.2194C8.63199 15.2194 8.69437 15.2561 8.7002 15.3033C8.7072 15.2573 8.76842 15.2206 8.84305 15.2206C8.91768 15.2206 8.98006 15.2579 8.98589 15.3051C8.99289 15.259 9.05411 15.2223 9.12874 15.2223C9.20337 15.2223 9.26693 15.2602 9.2716 15.3086C9.27684 15.2602 9.33865 15.2223 9.41503 15.2223C9.45363 15.2214 9.49154 15.2326 9.52347 15.2544C9.48577 15.101 9.39773 14.9647 9.27343 14.8672C9.14913 14.7698 8.99575 14.7168 8.8378 14.7168Z" fill="#85583C"/>
<path d="M8.87975 14.6772C8.87975 14.6685 8.87632 14.6602 8.8702 14.6541C8.86407 14.648 8.85577 14.6445 8.84711 14.6445C8.83845 14.6445 8.83014 14.648 8.82402 14.6541C8.8179 14.6602 8.81445 14.6685 8.81445 14.6772V15.8637C8.81445 15.8724 8.8179 15.8807 8.82402 15.8868C8.83014 15.8929 8.83845 15.8963 8.84711 15.8963C8.85577 15.8963 8.86407 15.8929 8.8702 15.8868C8.87632 15.8807 8.87975 15.8724 8.87975 15.8637V14.6772Z" fill="#85583C"/>
<path d="M8.63646 15.7861C8.64255 15.78 8.64597 15.7717 8.64597 15.7631C8.64597 15.7544 8.64255 15.7461 8.63646 15.74C8.63025 15.7339 8.62187 15.7305 8.61315 15.7305C8.60442 15.7305 8.59603 15.7339 8.58982 15.74C8.56535 15.7633 8.54843 15.7934 8.54123 15.8265C8.53404 15.8595 8.5369 15.8939 8.54945 15.9253C8.562 15.9566 8.58366 15.9835 8.61164 16.0025C8.63962 16.0214 8.67263 16.0316 8.70643 16.0316C8.72864 16.0318 8.7507 16.0276 8.77131 16.0193C8.79192 16.011 8.81068 15.9987 8.82654 15.9832C8.84295 15.9666 8.85567 15.9467 8.86386 15.9249C8.87281 15.9041 8.87718 15.8816 8.87669 15.859C8.87669 15.8503 8.87325 15.842 8.86712 15.8359C8.861 15.8298 8.85269 15.8263 8.84403 15.8263C8.83532 15.8265 8.82701 15.83 8.8209 15.8363C8.81479 15.8425 8.81138 15.8508 8.81138 15.8596C8.81176 15.8735 8.8092 15.8873 8.80388 15.9002C8.79855 15.913 8.79058 15.9246 8.78048 15.9342C8.77071 15.9438 8.75913 15.9513 8.74643 15.9565C8.73372 15.9616 8.72012 15.9641 8.70643 15.9639C8.69283 15.9639 8.67938 15.9611 8.66687 15.9558C8.65435 15.9505 8.64302 15.9428 8.63355 15.933C8.61418 15.9135 8.60331 15.8871 8.60331 15.8596C8.60331 15.832 8.61418 15.8056 8.63355 15.7861H8.63646Z" fill="#85583C"/>
<path d="M64.1186 55.4668H0.694824V56.7571H64.1186V55.4668Z" fill="#F8CE84"/>
<path d="M64.1186 49.1191H0.694824V50.4094H64.1186V49.1191Z" fill="#F8CE84"/>
<path d="M36.2943 50.4102H28.5193V55.4658H36.2943V50.4102Z" fill="#F09E5B"/>
<path d="M9.05356 50.4102H1.27856V55.4658H9.05356V50.4102Z" fill="#F09E5B"/>
<path d="M63.535 50.4102H55.76V55.4658H63.535V50.4102Z" fill="#F09E5B"/>
<path d="M32.2939 16.9746H3.24512V49.1194H32.2939V16.9746Z" fill="#FFAD6E"/>
<path d="M21.0304 40.8984H14.5078V49.1206H21.0304V40.8984Z" fill="#FFC59E"/>
<path d="M21.0304 16.9746H14.5078V27.9686H21.0304V16.9746Z" fill="#FFC59E"/>
<path fill-rule="evenodd" clip-rule="evenodd" d="M9.64292 46.6216C9.64292 46.6216 9.64351 46.6262 9.64292 46.6216V46.6216ZM9.31758 47.274H9.36773C9.43028 47.2746 9.49088 47.2522 9.53797 47.211L9.62194 47.0863C9.6403 47.0633 9.65523 47.0377 9.66626 47.0105C9.67116 46.9988 9.67369 46.9864 9.67369 46.9737C9.67369 46.9611 9.67116 46.9486 9.66626 46.937L9.54964 46.7131L9.53273 46.6799L9.56422 46.6595L9.61902 46.6239L9.15258 46.5353L9.00449 46.9726L9.05695 46.9376L9.09253 46.9143L9.11526 46.9504L9.31758 47.274ZM8.73453 47.274H9.21963L9.06629 47.0303L8.99923 47.074L8.994 47.0775H8.98991C8.98043 47.0811 8.97022 47.0823 8.96017 47.081C8.9454 47.0793 8.93185 47.072 8.92228 47.0606C8.91287 47.0486 8.90774 47.0339 8.9077 47.0186C8.90811 46.9986 8.91226 46.9788 8.91995 46.9603L9.08494 46.4752L9.09661 46.4414L9.13159 46.4478L9.63418 46.5434C9.69249 46.5557 9.71815 46.5784 9.72398 46.6017C9.72595 46.6163 9.7235 46.631 9.71694 46.6441C9.71039 46.6572 9.70003 46.6681 9.68724 46.6752H9.68432L9.63942 46.7038L9.73914 46.8956C9.74929 46.9169 9.75503 46.94 9.75603 46.9635C9.75704 46.9871 9.75327 47.0106 9.74496 47.0326C9.73167 47.0676 9.71299 47.1002 9.68957 47.1294L9.30475 47.7422C9.28708 47.7844 9.25684 47.8201 9.21813 47.8446C9.17943 47.869 9.13415 47.8809 9.08844 47.8786H8.64648V47.3679C8.64707 47.2932 8.67739 47.2769 8.73453 47.274Z" fill="#85583C"/>
<path d="M7.80524 46.184C7.80524 46.184 7.81049 46.1805 7.80699 46.184H7.80524ZM8.60985 46.1298L8.46059 46.4487L8.53347 46.4814H8.53872H8.54281C8.55052 46.4876 8.55686 46.4954 8.56145 46.5041C8.56811 46.5175 8.56937 46.533 8.56496 46.5473C8.56006 46.5617 8.5504 46.574 8.53755 46.5823C8.51973 46.5933 8.49993 46.6009 8.47925 46.6044L7.98249 46.7274L7.9475 46.7362L7.93409 46.7029L7.74285 46.2283C7.72186 46.17 7.72711 46.1386 7.74285 46.1199C7.75413 46.1104 7.76798 46.1045 7.78262 46.103C7.79726 46.1014 7.81205 46.1043 7.82507 46.1111L7.87347 46.1333L7.98132 45.9461C7.99374 45.926 8.01012 45.9086 8.02946 45.895C8.0488 45.8813 8.0707 45.8718 8.09385 45.8668C8.13045 45.8592 8.16806 45.8574 8.20522 45.8616H8.88097L8.56963 45.952L8.20113 45.9444C8.17254 45.9415 8.14369 45.9427 8.11543 45.9479C8.09146 45.9535 8.07058 45.9681 8.05712 45.9887L7.93177 46.2074L7.91253 46.24L7.8787 46.2248L7.8204 46.198L7.99531 46.6376L8.44368 46.5269L8.38537 46.5012L8.34631 46.4837L8.36439 46.4458L8.5323 46.089L8.60985 46.1298Z" fill="#85583C"/>
<path fill-rule="evenodd" clip-rule="evenodd" d="M8.8464 46.5956L8.50414 46.0627C8.48667 46.0342 8.46353 46.0095 8.43616 45.9902C8.40878 45.971 8.37774 45.9575 8.34497 45.9508L8.57062 45.8761L8.93561 45.861C8.98092 45.8528 9.02765 45.8588 9.0694 45.8782C9.11115 45.8977 9.14588 45.9295 9.16883 45.9694L9.40729 46.3414L8.977 46.6172C8.90995 46.6592 8.88022 46.6428 8.84698 46.5956H8.8464Z" fill="#85583C"/>
<path fill-rule="evenodd" clip-rule="evenodd" d="M8.31057 47.982C8.31057 47.982 8.30474 47.9809 8.3094 47.982H8.31057ZM7.91293 47.371L7.88786 47.4147C7.85566 47.4683 7.84425 47.5317 7.85579 47.5931L7.92108 47.729C7.93127 47.7558 7.94542 47.781 7.96306 47.8036C7.97068 47.8136 7.98025 47.8218 7.99117 47.8279C8.0021 47.8341 8.01416 47.8379 8.02662 47.8392L8.2785 47.8526H8.31581V47.8899L8.31873 47.9552L8.63125 47.5984L8.33039 47.2486L8.3333 47.3115V47.3541H8.29074L7.91293 47.371ZM8.20854 46.869L7.96306 47.2865L8.2511 47.2783L8.24701 47.1978V47.192V47.1873C8.249 47.1776 8.25318 47.1684 8.25926 47.1605C8.26814 47.1485 8.28129 47.1404 8.29599 47.1378C8.31095 47.1358 8.32612 47.1389 8.33914 47.1465C8.35709 47.1571 8.37274 47.1712 8.38519 47.1879L8.71928 47.5756L8.74319 47.603L8.71928 47.6299L8.38229 48.0147C8.34205 48.059 8.30939 48.0695 8.28374 48.0613C8.27027 48.0555 8.25885 48.0458 8.25096 48.0334C8.24306 48.0211 8.23904 48.0066 8.23943 47.9919V47.9884V47.9354L8.02428 47.9237C8.00069 47.9216 7.97778 47.9147 7.95685 47.9036C7.93593 47.8925 7.91743 47.8773 7.90244 47.859C7.87933 47.83 7.86083 47.7975 7.84762 47.7628L7.5147 47.1214C7.48586 47.0851 7.46913 47.0407 7.46683 46.9944C7.46453 46.948 7.47678 46.9022 7.50187 46.8632L7.72635 46.4824L8.16654 46.7413C8.23535 46.7833 8.23419 46.8177 8.20737 46.869H8.20854Z" fill="#85583C"/>
<path d="M9.7899 45.4297H7.43496C7.35531 45.4317 7.27966 45.465 7.22443 45.5224C7.16919 45.5798 7.13883 45.6567 7.13993 45.7364V48.1852C7.13868 48.2648 7.169 48.3418 7.22428 48.3991C7.27957 48.4565 7.35531 48.4896 7.43496 48.4913H9.7899C9.86898 48.4889 9.94391 48.4554 9.99848 48.3981C10.053 48.3408 10.0828 48.2643 10.0814 48.1852V45.7364C10.0827 45.6573 10.0529 45.5808 9.99835 45.5234C9.94383 45.4661 9.86898 45.4324 9.7899 45.4297ZM9.90651 48.1479C9.90683 48.1899 9.89074 48.2303 9.86165 48.2606C9.83257 48.2909 9.7928 48.3086 9.75084 48.31H7.47285C7.43078 48.3089 7.39084 48.2913 7.36169 48.2609C7.33254 48.2306 7.31655 48.1899 7.31718 48.1479V45.7766C7.31664 45.7557 7.32024 45.7349 7.32778 45.7153C7.33533 45.6958 7.34666 45.678 7.36114 45.6628C7.37561 45.6477 7.39292 45.6356 7.4121 45.6272C7.43127 45.6188 7.45192 45.6143 7.47285 45.6139H9.752C9.79417 45.615 9.8342 45.6327 9.86336 45.6632C9.89253 45.6937 9.90846 45.7344 9.90767 45.7766L9.90651 48.1479Z" fill="#85583C"/>
<path d="M6.31251 48.1355H4.77908C4.76574 48.1341 4.7534 48.1278 4.74442 48.1179C4.73544 48.1079 4.73047 48.095 4.73047 48.0816C4.73047 48.0682 4.73544 48.0552 4.74442 48.0453C4.7534 48.0353 4.76574 48.029 4.77908 48.0276H6.31251C6.32006 48.0268 6.32769 48.0277 6.33491 48.03C6.34213 48.0324 6.34877 48.0362 6.35442 48.0413C6.36006 48.0464 6.36457 48.0526 6.36765 48.0595C6.37074 48.0665 6.37234 48.074 6.37234 48.0816C6.37234 48.0892 6.37074 48.0967 6.36765 48.1036C6.36457 48.1106 6.36006 48.1168 6.35442 48.1218C6.34877 48.1269 6.34213 48.1308 6.33491 48.1331C6.32769 48.1355 6.32006 48.1363 6.31251 48.1355Z" fill="#85583C"/>
<path fill-rule="evenodd" clip-rule="evenodd" d="M5.31074 46.1987V47.7998H4.98657V46.1976L4.82739 46.197L5.15507 45.7871L5.48099 46.1993L5.31074 46.1987Z" fill="#85583C"/>
<path fill-rule="evenodd" clip-rule="evenodd" d="M6.10722 46.2001V47.8018H5.78246V46.1995L5.62329 46.1989L5.95155 45.7891L6.27747 46.2007L6.10722 46.2001Z" fill="#85583C"/>
<path d="M6.72422 45.4297H4.36928C4.28964 45.4317 4.21399 45.465 4.15875 45.5224C4.10352 45.5798 4.07316 45.6567 4.07426 45.7364V48.1852C4.07301 48.2648 4.10334 48.3418 4.15862 48.3991C4.21391 48.4565 4.28964 48.4896 4.36928 48.4913H6.72422C6.8033 48.4889 6.87824 48.4554 6.9328 48.3981C6.98737 48.3408 7.01717 48.2643 7.01575 48.1852V45.7364C7.01702 45.6573 6.98719 45.5808 6.93267 45.5234C6.87816 45.4661 6.8033 45.4324 6.72422 45.4297ZM6.84083 48.1479C6.84116 48.1899 6.82506 48.2303 6.79598 48.2606C6.76689 48.2909 6.72713 48.3086 6.68516 48.31H4.40601C4.36394 48.3089 4.324 48.2913 4.29485 48.2609C4.2657 48.2306 4.24971 48.1899 4.25034 48.1479V45.7766C4.2498 45.7557 4.2534 45.7349 4.26094 45.7153C4.26849 45.6958 4.27982 45.678 4.2943 45.6628C4.30877 45.6477 4.3261 45.6356 4.34527 45.6272C4.36444 45.6188 4.38508 45.6143 4.40601 45.6139H6.68575C6.72791 45.615 6.76795 45.6327 6.79712 45.6632C6.82628 45.6937 6.8422 45.7344 6.84142 45.7766L6.84083 48.1479Z" fill="#85583C"/>
<path d="M12.8554 45.4297H10.5005C10.4208 45.4317 10.3451 45.465 10.2897 45.5224C10.2344 45.5798 10.2039 45.6567 10.2049 45.7364V48.1852C10.2038 48.2649 10.2342 48.3418 10.2896 48.3991C10.345 48.4565 10.4208 48.4896 10.5005 48.4913H12.8554C12.9345 48.4889 13.0094 48.4554 13.064 48.3981C13.1186 48.3408 13.1484 48.2643 13.1469 48.1852V45.7364C13.1482 45.6573 13.1184 45.5808 13.0639 45.5234C13.0093 45.4661 12.9345 45.4324 12.8554 45.4297ZM12.972 48.1479C12.9723 48.1899 12.9563 48.2303 12.9272 48.2606C12.8981 48.2909 12.8583 48.3086 12.8163 48.31H10.5372C10.4951 48.3089 10.4551 48.2913 10.4258 48.261C10.3966 48.2306 10.3805 48.19 10.3809 48.1479V45.7766C10.3805 45.7557 10.3842 45.7348 10.3918 45.7153C10.3994 45.6958 10.4108 45.6779 10.4253 45.6628C10.4398 45.6477 10.4572 45.6356 10.4764 45.6272C10.4956 45.6188 10.5162 45.6143 10.5372 45.6139H12.8163C12.8585 45.615 12.8985 45.6327 12.9277 45.6632C12.9569 45.6937 12.9728 45.7344 12.972 45.7766V48.1479Z" fill="#85583C"/>
<path fill-rule="evenodd" clip-rule="evenodd" d="M11.6638 46.2244C11.4247 46.2244 11.1925 46.3049 11.0048 46.453C10.817 46.6011 10.6846 46.8081 10.6289 47.0407C10.6793 46.9967 10.7446 46.9738 10.8114 46.9765C10.9245 46.9765 11.0172 47.0348 11.0266 47.1036C11.037 47.0337 11.1292 46.9795 11.2411 46.9795C11.3531 46.9795 11.4475 47.0378 11.4563 47.106C11.4673 47.036 11.5595 46.9818 11.6714 46.9818C11.7834 46.9818 11.8778 47.0401 11.8866 47.1089C11.8976 47.0389 11.9897 46.9841 12.1017 46.9841C12.2136 46.9841 12.3099 47.0424 12.3169 47.1136C12.3244 47.0413 12.4183 46.9841 12.5326 46.9841C12.5909 46.9826 12.6483 46.9996 12.6964 47.0325C12.6396 46.8015 12.507 46.5963 12.3198 46.4495C12.1327 46.3027 11.9017 46.2228 11.6638 46.2227V46.2244Z" fill="#85583C"/>
<path d="M11.7272 46.1721C11.728 46.1652 11.7273 46.1582 11.7251 46.1516C11.723 46.1449 11.7195 46.1388 11.7149 46.1337C11.7102 46.1285 11.7045 46.1243 11.6982 46.1215C11.6918 46.1187 11.6849 46.1172 11.678 46.1172C11.671 46.1172 11.6641 46.1187 11.6578 46.1215C11.6514 46.1243 11.6457 46.1285 11.6411 46.1337C11.6364 46.1388 11.6329 46.1449 11.6308 46.1516C11.6287 46.1582 11.628 46.1652 11.6287 46.1721V47.9574C11.63 47.9696 11.6358 47.9808 11.6449 47.9889C11.654 47.9971 11.6658 48.0016 11.678 48.0016C11.6902 48.0016 11.702 47.9971 11.7111 47.9889C11.7202 47.9808 11.7259 47.9696 11.7272 47.9574V46.1721Z" fill="#85583C"/>
<path d="M11.361 47.8364C11.3665 47.832 11.371 47.8266 11.3742 47.8204C11.3774 47.8142 11.3792 47.8075 11.3797 47.8005C11.3801 47.7936 11.379 47.7866 11.3765 47.7801C11.3741 47.7736 11.3703 47.7677 11.3654 47.7627C11.3605 47.7578 11.3546 47.7539 11.3481 47.7514C11.3416 47.7489 11.3346 47.7478 11.3277 47.7481C11.3207 47.7485 11.3139 47.7503 11.3077 47.7534C11.3015 47.7566 11.2961 47.761 11.2917 47.7664C11.2678 47.7899 11.2488 47.8178 11.2358 47.8486C11.2227 47.8794 11.2159 47.9125 11.2156 47.946C11.2153 47.9794 11.2216 48.0126 11.2342 48.0436C11.2467 48.0746 11.2653 48.1029 11.2888 48.1267C11.3122 48.1506 11.3402 48.1696 11.371 48.1826C11.4018 48.1957 11.4348 48.2025 11.4683 48.2028C11.5018 48.2031 11.535 48.1968 11.566 48.1842C11.597 48.1717 11.6252 48.1531 11.6491 48.1296C11.6736 48.1058 11.6931 48.0773 11.7062 48.0457C11.7193 48.0141 11.7259 47.9802 11.7255 47.946C11.7241 47.9338 11.7184 47.9226 11.7093 47.9145C11.7002 47.9063 11.6884 47.9018 11.6762 47.9018C11.664 47.9018 11.6522 47.9063 11.6431 47.9145C11.634 47.9226 11.6282 47.9338 11.6269 47.946C11.6266 47.966 11.6224 47.9858 11.6147 48.0043C11.6069 48.0238 11.5952 48.0414 11.5803 48.0562C11.5504 48.085 11.5105 48.1011 11.4689 48.1011C11.4274 48.1004 11.3878 48.0835 11.3587 48.0538C11.3296 48.0245 11.3132 47.9848 11.3132 47.9434C11.3132 47.902 11.3296 47.8623 11.3587 47.8329L11.361 47.8364Z" fill="#85583C"/>
<path d="M61.9128 16.9746H32.864V49.1194H61.9128V16.9746Z" fill="#FFAD6E"/>
<path d="M50.6496 40.8984H44.127V49.1206H50.6496V40.8984Z" fill="#FFC59E"/>
<path d="M50.6496 16.9746H44.127V27.9686H50.6496V16.9746Z" fill="#FFC59E"/>
<path fill-rule="evenodd" clip-rule="evenodd" d="M39.2618 46.6216C39.2618 46.6216 39.2624 46.6262 39.2618 46.6216V46.6216ZM38.9365 47.274H38.9866C39.0492 47.2746 39.1098 47.2522 39.1569 47.211L39.2408 47.0863C39.2592 47.0633 39.2741 47.0377 39.2852 47.0105C39.2901 46.9988 39.2926 46.9864 39.2926 46.9737C39.2926 46.9611 39.2901 46.9486 39.2852 46.937L39.1685 46.7131L39.1516 46.6799L39.1831 46.6595L39.2379 46.6239L38.7715 46.5353L38.6234 46.9726L38.6759 46.9376L38.7114 46.9143L38.7342 46.9504L38.9365 47.274ZM38.3534 47.274H38.8385L38.6852 47.0303L38.6181 47.074L38.6129 47.0775H38.6088C38.5993 47.0811 38.5891 47.0823 38.5791 47.081C38.5643 47.0793 38.5507 47.072 38.5412 47.0606C38.5318 47.0486 38.5266 47.0339 38.5266 47.0186C38.527 46.9986 38.5312 46.9788 38.5388 46.9603L38.7038 46.4752L38.7155 46.4414L38.7505 46.4478L39.2531 46.5434C39.3114 46.5557 39.337 46.5784 39.3429 46.6017C39.3448 46.6163 39.3424 46.631 39.3358 46.6441C39.3293 46.6572 39.3189 46.6681 39.3061 46.6752H39.3032L39.2583 46.7038L39.358 46.8956C39.3682 46.9169 39.3739 46.94 39.3749 46.9635C39.3759 46.9871 39.3722 47.0106 39.3639 47.0326C39.3506 47.0676 39.3319 47.1002 39.3085 47.1294L38.9236 47.7422C38.906 47.7844 38.8757 47.8201 38.837 47.8446C38.7983 47.869 38.753 47.8809 38.7073 47.8786H38.2654V47.3679C38.266 47.2932 38.2963 47.2769 38.3534 47.274Z" fill="#85583C"/>
<path d="M37.4241 46.184C37.4241 46.184 37.4294 46.1805 37.4259 46.184H37.4241ZM38.2287 46.1298L38.0795 46.4487L38.1524 46.4814H38.1576H38.1617C38.1694 46.4876 38.1758 46.4954 38.1804 46.5041C38.187 46.5175 38.1883 46.533 38.1839 46.5473C38.179 46.5617 38.1693 46.574 38.1565 46.5823C38.1386 46.5933 38.1188 46.6009 38.0981 46.6044L37.6014 46.7274L37.5664 46.7362L37.553 46.7029L37.3617 46.2283C37.3408 46.17 37.346 46.1386 37.3617 46.1199C37.373 46.1104 37.3869 46.1045 37.4015 46.103C37.4162 46.1014 37.4309 46.1043 37.444 46.1111L37.4924 46.1333L37.6002 45.9461C37.6126 45.926 37.629 45.9086 37.6484 45.895C37.6677 45.8813 37.6896 45.8718 37.7127 45.8668C37.7493 45.8592 37.787 45.8574 37.8241 45.8616H38.4999L38.1885 45.952L37.82 45.9444C37.7914 45.9415 37.7626 45.9427 37.7343 45.9479C37.7104 45.9535 37.6895 45.9681 37.676 45.9887L37.5507 46.2074L37.5314 46.24L37.4976 46.2248L37.4393 46.198L37.6142 46.6376L38.0626 46.5269L38.0043 46.5012L37.9652 46.4837L37.9833 46.4458L38.1512 46.089L38.2287 46.1298Z" fill="#85583C"/>
<path fill-rule="evenodd" clip-rule="evenodd" d="M38.4655 46.5956L38.1233 46.0627C38.1058 46.0342 38.0827 46.0095 38.0553 45.9902C38.0279 45.971 37.9969 45.9575 37.9641 45.9508L38.1898 45.8761L38.5547 45.861C38.6001 45.8528 38.6468 45.8588 38.6885 45.8782C38.7303 45.8977 38.765 45.9295 38.788 45.9694L39.0264 46.3414L38.5961 46.6172C38.5291 46.6592 38.4994 46.6428 38.4661 46.5956H38.4655Z" fill="#85583C"/>
<path fill-rule="evenodd" clip-rule="evenodd" d="M37.9297 47.982C37.9297 47.982 37.9239 47.9809 37.9285 47.982H37.9297ZM37.5321 47.371L37.507 47.4147C37.4748 47.4683 37.4634 47.5317 37.4749 47.5931L37.5402 47.729C37.5504 47.7558 37.5646 47.781 37.5822 47.8036C37.5898 47.8136 37.5994 47.8218 37.6103 47.8279C37.6212 47.8341 37.6333 47.8379 37.6458 47.8392L37.8976 47.8526H37.935V47.8899L37.9379 47.9552L38.2504 47.5984L37.9495 47.2486L37.9524 47.3115V47.3541H37.9099L37.5321 47.371ZM37.8277 46.869L37.5822 47.2865L37.8702 47.2783L37.8662 47.1978V47.192V47.1873C37.8681 47.1776 37.8723 47.1684 37.8784 47.1605C37.8873 47.1485 37.9004 47.1404 37.9151 47.1378C37.9301 47.1358 37.9453 47.1389 37.9583 47.1465C37.9762 47.1571 37.9919 47.1712 38.0043 47.1879L38.3384 47.5756L38.3623 47.603L38.3384 47.6299L38.0014 48.0147C37.9612 48.059 37.9285 48.0695 37.9029 48.0613C37.8894 48.0555 37.878 48.0458 37.8701 48.0334C37.8622 48.0211 37.8582 48.0066 37.8586 47.9919V47.9884V47.9354L37.6434 47.9237C37.6198 47.9216 37.5969 47.9147 37.576 47.9036C37.5551 47.8925 37.5366 47.8773 37.5216 47.859C37.4985 47.83 37.48 47.7975 37.4668 47.7628L37.1338 47.1214C37.105 47.0851 37.0883 47.0407 37.086 46.9944C37.0837 46.948 37.0959 46.9022 37.121 46.8632L37.3455 46.4824L37.7857 46.7413C37.8545 46.7833 37.8533 46.8177 37.8265 46.869H37.8277Z" fill="#85583C"/>
<path d="M39.4088 45.4297H37.0539C36.9742 45.4317 36.8986 45.465 36.8433 45.5224C36.7881 45.5798 36.7577 45.6567 36.7588 45.7364V48.1852C36.7576 48.2648 36.7879 48.3418 36.8432 48.3991C36.8985 48.4565 36.9742 48.4896 37.0539 48.4913H39.4088C39.4879 48.4889 39.5628 48.4554 39.6174 48.3981C39.6719 48.3408 39.7017 48.2643 39.7003 48.1852V45.7364C39.7016 45.6573 39.6718 45.5808 39.6172 45.5234C39.5627 45.4661 39.4879 45.4324 39.4088 45.4297ZM39.5254 48.1479C39.5257 48.1899 39.5096 48.2303 39.4805 48.2606C39.4515 48.2909 39.4117 48.3086 39.3697 48.31H37.0917C37.0497 48.3089 37.0097 48.2913 36.9806 48.2609C36.9514 48.2306 36.9354 48.1899 36.9361 48.1479V45.7766C36.9355 45.7557 36.9391 45.7349 36.9467 45.7153C36.9542 45.6958 36.9656 45.678 36.98 45.6628C36.9945 45.6477 37.0118 45.6356 37.031 45.6272C37.0502 45.6188 37.0708 45.6143 37.0917 45.6139H39.3709C39.4131 45.615 39.4531 45.6327 39.4823 45.6632C39.5114 45.6937 39.5274 45.7344 39.5266 45.7766L39.5254 48.1479Z" fill="#85583C"/>
<path d="M35.9316 48.1355H34.3982C34.3849 48.1341 34.3725 48.1278 34.3636 48.1179C34.3546 48.1079 34.3496 48.095 34.3496 48.0816C34.3496 48.0682 34.3546 48.0552 34.3636 48.0453C34.3725 48.0353 34.3849 48.029 34.3982 48.0276H35.9316C35.9392 48.0268 35.9468 48.0277 35.9541 48.03C35.9613 48.0324 35.9679 48.0362 35.9736 48.0413C35.9792 48.0464 35.9837 48.0526 35.9868 48.0595C35.9899 48.0665 35.9915 48.074 35.9915 48.0816C35.9915 48.0892 35.9899 48.0967 35.9868 48.1036C35.9837 48.1106 35.9792 48.1168 35.9736 48.1218C35.9679 48.1269 35.9613 48.1308 35.9541 48.1331C35.9468 48.1355 35.9392 48.1363 35.9316 48.1355Z" fill="#85583C"/>
<path fill-rule="evenodd" clip-rule="evenodd" d="M34.9299 46.1987V47.7998H34.6057V46.1976L34.4465 46.197L34.7742 45.7871L35.1001 46.1993L34.9299 46.1987Z" fill="#85583C"/>
<path fill-rule="evenodd" clip-rule="evenodd" d="M35.7264 46.2001V47.8018H35.4016V46.1995L35.2424 46.1989L35.5707 45.7891L35.8966 46.2007L35.7264 46.2001Z" fill="#85583C"/>
<path d="M36.3431 45.4297H33.9882C33.9085 45.4317 33.8329 45.465 33.7776 45.5224C33.7224 45.5798 33.6921 45.6567 33.6932 45.7364V48.1852C33.6919 48.2648 33.7222 48.3418 33.7775 48.3991C33.8328 48.4565 33.9085 48.4896 33.9882 48.4913H36.3431C36.4222 48.4889 36.4971 48.4554 36.5517 48.3981C36.6063 48.3408 36.6361 48.2643 36.6346 48.1852V45.7364C36.6359 45.6573 36.6061 45.5808 36.5516 45.5234C36.4971 45.4661 36.4222 45.4324 36.3431 45.4297ZM36.4597 48.1479C36.4601 48.1899 36.444 48.2303 36.4149 48.2606C36.3858 48.2909 36.346 48.3086 36.3041 48.31H34.0249C33.9828 48.3089 33.9429 48.2913 33.9137 48.2609C33.8846 48.2306 33.8686 48.1899 33.8692 48.1479V45.7766C33.8687 45.7557 33.8723 45.7349 33.8798 45.7153C33.8874 45.6958 33.8987 45.678 33.9132 45.6628C33.9277 45.6477 33.945 45.6356 33.9642 45.6272C33.9833 45.6188 34.004 45.6143 34.0249 45.6139H36.3046C36.3468 45.615 36.3868 45.6327 36.416 45.6632C36.4452 45.6937 36.4611 45.7344 36.4603 45.7766L36.4597 48.1479Z" fill="#85583C"/>
<path d="M42.4746 45.4297H40.1196C40.0399 45.4317 39.9642 45.465 39.9089 45.5224C39.8535 45.5798 39.8231 45.6567 39.824 45.7364V48.1852C39.8229 48.2649 39.8534 48.3418 39.9087 48.3991C39.9641 48.4565 40.0399 48.4896 40.1196 48.4913H42.4746C42.5536 48.4889 42.6286 48.4554 42.6831 48.3981C42.7377 48.3408 42.7675 48.2643 42.7661 48.1852V45.7364C42.7673 45.6573 42.7375 45.5808 42.683 45.5234C42.6285 45.4661 42.5536 45.4324 42.4746 45.4297ZM42.5912 48.1479C42.5915 48.1899 42.5754 48.2303 42.5463 48.2606C42.5172 48.2909 42.4774 48.3086 42.4355 48.31H40.1563C40.1142 48.3089 40.0742 48.2913 40.045 48.261C40.0157 48.2306 39.9996 48.19 40.0001 48.1479V45.7766C39.9996 45.7557 40.0033 45.7348 40.0109 45.7153C40.0185 45.6958 40.0299 45.6779 40.0444 45.6628C40.0589 45.6477 40.0763 45.6356 40.0955 45.6272C40.1147 45.6188 40.1354 45.6143 40.1563 45.6139H42.4355C42.4776 45.615 42.5177 45.6327 42.5469 45.6632C42.576 45.6937 42.5919 45.7344 42.5912 45.7766V48.1479Z" fill="#85583C"/>
<path fill-rule="evenodd" clip-rule="evenodd" d="M41.2827 46.2244C41.0436 46.2244 40.8114 46.3049 40.6237 46.453C40.4359 46.6011 40.3035 46.8081 40.2478 47.0407C40.2982 46.9967 40.3635 46.9738 40.4303 46.9765C40.5434 46.9765 40.6361 47.0348 40.6454 47.1036C40.6559 47.0337 40.7481 46.9795 40.86 46.9795C40.972 46.9795 41.0664 47.0378 41.0752 47.106C41.0862 47.036 41.1784 46.9818 41.2903 46.9818C41.4023 46.9818 41.4967 47.0401 41.5054 47.1089C41.5165 47.0389 41.6086 46.9841 41.7206 46.9841C41.8325 46.9841 41.9288 47.0424 41.9357 47.1136C41.9433 47.0413 42.0372 46.9841 42.1515 46.9841C42.2098 46.9826 42.2671 46.9996 42.3153 47.0325C42.2585 46.8015 42.1259 46.5963 41.9387 46.4495C41.7516 46.3027 41.5206 46.2228 41.2827 46.2227V46.2244Z" fill="#85583C"/>
<path d="M41.3464 46.1721C41.3471 46.1652 41.3464 46.1582 41.3443 46.1516C41.3422 46.1449 41.3387 46.1388 41.334 46.1337C41.3294 46.1285 41.3237 46.1243 41.3173 46.1215C41.311 46.1187 41.3041 46.1172 41.2971 46.1172C41.2902 46.1172 41.2833 46.1187 41.2769 46.1215C41.2706 46.1243 41.2649 46.1285 41.2602 46.1337C41.2556 46.1388 41.2521 46.1449 41.2499 46.1516C41.2478 46.1582 41.2471 46.1652 41.2478 46.1721V47.9574C41.2492 47.9696 41.2549 47.9808 41.264 47.9889C41.2731 47.9971 41.2849 48.0016 41.2971 48.0016C41.3093 48.0016 41.3211 47.9971 41.3302 47.9889C41.3393 47.9808 41.3451 47.9696 41.3464 47.9574V46.1721Z" fill="#85583C"/>
<path d="M40.9802 47.8364C40.9856 47.832 40.9901 47.8266 40.9933 47.8204C40.9965 47.8142 40.9984 47.8075 40.9988 47.8005C40.9992 47.7936 40.9981 47.7866 40.9957 47.7801C40.9932 47.7736 40.9894 47.7677 40.9845 47.7627C40.9796 47.7578 40.9737 47.7539 40.9672 47.7514C40.9607 47.7489 40.9538 47.7478 40.9468 47.7481C40.9399 47.7485 40.9331 47.7503 40.9269 47.7534C40.9207 47.7566 40.9152 47.761 40.9108 47.7664C40.887 47.7899 40.868 47.8178 40.8549 47.8486C40.8419 47.8794 40.835 47.9125 40.8347 47.946C40.8345 47.9794 40.8408 48.0126 40.8533 48.0436C40.8659 48.0746 40.8844 48.1029 40.9079 48.1267C40.9314 48.1506 40.9593 48.1696 40.9901 48.1826C41.0209 48.1957 41.054 48.2025 41.0874 48.2028C41.1209 48.2031 41.1541 48.1968 41.1851 48.1842C41.2161 48.1717 41.2444 48.1531 41.2682 48.1296C41.2928 48.1058 41.3122 48.0773 41.3254 48.0457C41.3385 48.0141 41.345 47.9802 41.3446 47.946C41.3454 47.9391 41.3446 47.9321 41.3425 47.9254C41.3404 47.9188 41.3369 47.9127 41.3322 47.9075C41.3276 47.9023 41.3219 47.8982 41.3155 47.8954C41.3092 47.8925 41.3023 47.8911 41.2953 47.8911C41.2884 47.8911 41.2815 47.8925 41.2751 47.8954C41.2688 47.8982 41.2631 47.9023 41.2584 47.9075C41.2538 47.9127 41.2503 47.9188 41.2482 47.9254C41.246 47.9321 41.2453 47.9391 41.2461 47.946C41.2457 47.966 41.2416 47.9858 41.2338 48.0043C41.2261 48.0238 41.2143 48.0414 41.1994 48.0562C41.1695 48.085 41.1296 48.1011 41.0881 48.1011C41.0465 48.1004 41.007 48.0835 40.9779 48.0538C40.9487 48.0245 40.9323 47.9848 40.9323 47.9434C40.9323 47.902 40.9487 47.8623 40.9779 47.8329L40.9802 47.8364Z" fill="#85583C"/>
</g>
<defs>
<clipPath id="clip0_293_2501">
<rect width="63.4238" height="56.0493" fill="white" transform="translate(0.694824 0.707031)"/>
</clipPath>
</defs>
</svg>
