<svg width="89" height="59" viewBox="0 0 89 59" fill="none" xmlns="http://www.w3.org/2000/svg">
<g style="mix-blend-mode:multiply">
<path d="M44.0933 58.523C68.3938 58.523 88.0933 58.3342 88.0933 58.1013C88.0933 57.8685 68.3938 57.6797 44.0933 57.6797C19.7927 57.6797 0.0932617 57.8685 0.0932617 58.1013C0.0932617 58.3342 19.7927 58.523 44.0933 58.523Z" fill="#DBE1E6"/>
</g>
<path d="M10.1144 31.9336H8.6145V34.6071H10.1144V31.9336Z" fill="#B3B3B3"/>
<path d="M5.27715 0.871094H3.87744V27.7317H5.27715V0.871094Z" fill="#656565"/>
<path d="M4.79916 38.4883H3.65332V42.6164H4.79916V38.4883Z" fill="#141414"/>
<path d="M5.00255 39.5491H3.46131C3.38843 39.5491 3.31854 39.5201 3.26701 39.4686C3.21547 39.4171 3.18652 39.3472 3.18652 39.2743C3.18665 39.2015 3.21566 39.1317 3.26718 39.0803C3.3187 39.0289 3.38852 39 3.46131 39H5.00255C5.07535 39 5.14516 39.0289 5.19668 39.0803C5.2482 39.1317 5.27721 39.2015 5.27734 39.2743C5.27734 39.3472 5.24839 39.4171 5.19686 39.4686C5.14532 39.5201 5.07543 39.5491 5.00255 39.5491Z" fill="#C9C9C9"/>
<path d="M5.00255 38.7171H3.46131C3.38843 38.7171 3.31854 38.6881 3.26701 38.6366C3.21547 38.585 3.18652 38.5151 3.18652 38.4423C3.18652 38.4062 3.19364 38.3705 3.20745 38.3372C3.22127 38.3039 3.24151 38.2736 3.26704 38.2481C3.29256 38.2227 3.32286 38.2025 3.35619 38.1887C3.38953 38.175 3.42525 38.1679 3.46131 38.168H5.00255C5.03861 38.1679 5.07434 38.175 5.10767 38.1887C5.14101 38.2025 5.1713 38.2227 5.19683 38.2481C5.22235 38.2736 5.2426 38.3039 5.25641 38.3372C5.27023 38.3705 5.27734 38.4062 5.27734 38.4423C5.27734 38.5151 5.24839 38.585 5.19686 38.6366C5.14532 38.6881 5.07543 38.7171 5.00255 38.7171Z" fill="#C9C9C9"/>
<path d="M5.00255 40.3831H3.46131C3.42525 40.3831 3.38953 40.3761 3.35619 40.3623C3.32286 40.3486 3.29256 40.3284 3.26704 40.3029C3.24151 40.2774 3.22127 40.2472 3.20745 40.2139C3.19364 40.1805 3.18652 40.1448 3.18652 40.1088C3.18652 40.0359 3.21547 39.966 3.26701 39.9145C3.31854 39.8629 3.38843 39.834 3.46131 39.834H5.00255C5.07543 39.834 5.14532 39.8629 5.19686 39.9145C5.24839 39.966 5.27734 40.0359 5.27734 40.1088C5.27734 40.1448 5.27023 40.1805 5.25641 40.2139C5.2426 40.2472 5.22235 40.2774 5.19683 40.3029C5.1713 40.3284 5.14101 40.3486 5.10767 40.3623C5.07434 40.3761 5.03861 40.3831 5.00255 40.3831Z" fill="#C9C9C9"/>
<path d="M5.00304 40.666H3.4618C3.31004 40.666 3.18701 40.7889 3.18701 40.9406C3.18701 41.0922 3.31004 41.2151 3.4618 41.2151H5.00304C5.1548 41.2151 5.27783 41.0922 5.27783 40.9406C5.27783 40.7889 5.1548 40.666 5.00304 40.666Z" fill="#C9C9C9"/>
<path d="M5.00255 42.0491H3.46131C3.38843 42.0491 3.31854 42.0201 3.26701 41.9686C3.21547 41.9171 3.18652 41.8472 3.18652 41.7743C3.18652 41.7382 3.19364 41.7025 3.20745 41.6692C3.22127 41.6359 3.24151 41.6056 3.26704 41.5802C3.29256 41.5547 3.32286 41.5345 3.35619 41.5207C3.38953 41.507 3.42525 41.4999 3.46131 41.5H5.00255C5.03861 41.4999 5.07434 41.507 5.10767 41.5207C5.14101 41.5345 5.1713 41.5547 5.19683 41.5802C5.22235 41.6056 5.2426 41.6359 5.25641 41.6692C5.27023 41.7025 5.27734 41.7382 5.27734 41.7743C5.27734 41.8472 5.24839 41.9171 5.19686 41.9686C5.14532 42.0201 5.07543 42.0491 5.00255 42.0491Z" fill="#C9C9C9"/>
<path d="M5.00255 42.8811H3.46131C3.42523 42.8811 3.38949 42.874 3.35615 42.8602C3.32282 42.8464 3.29252 42.8262 3.26701 42.8006C3.24149 42.7751 3.22125 42.7448 3.20744 42.7115C3.19363 42.6781 3.18652 42.6424 3.18652 42.6063C3.18665 42.5335 3.21566 42.4638 3.26718 42.4123C3.3187 42.3609 3.38852 42.332 3.46131 42.332H5.00255C5.07535 42.332 5.14516 42.3609 5.19668 42.4123C5.2482 42.4638 5.27721 42.5335 5.27734 42.6063C5.27734 42.6424 5.27023 42.6781 5.25642 42.7115C5.24261 42.7448 5.22237 42.7751 5.19686 42.8006C5.17134 42.8262 5.14105 42.8464 5.10771 42.8602C5.07437 42.874 5.03864 42.8811 5.00255 42.8811Z" fill="#C9C9C9"/>
<path d="M8.57047 30.1211H17.6652C17.9812 30.1211 18.2843 30.2466 18.5078 30.4701C18.7312 30.6936 18.8567 30.9966 18.8567 31.3126V32.4064H7.62598V31.0656C7.62591 30.9415 7.6503 30.8187 7.69774 30.7041C7.74518 30.5894 7.81475 30.4853 7.90247 30.3976C7.99018 30.3099 8.09433 30.2403 8.20895 30.1929C8.32357 30.1454 8.44642 30.121 8.57047 30.1211Z" fill="#FC7C26"/>
<path d="M2.73158 42.5098H7.62571V44.122H2.73158C2.67521 44.122 2.62115 44.0996 2.58129 44.0598C2.54143 44.0199 2.51904 43.9658 2.51904 43.9095V42.7223C2.51904 42.6659 2.54143 42.6119 2.58129 42.572C2.62115 42.5322 2.67521 42.5098 2.73158 42.5098Z" fill="#262626"/>
<path d="M11.7807 43.5254H7.09424V46.0612H11.7807V43.5254Z" fill="#2B2B2B"/>
<path d="M8.9253 46.5137H6.83838V49.7737H8.9253V46.5137Z" fill="#242424"/>
<path d="M6.74458 45.0469H14.871V47.5083H6.74458C6.54607 47.5083 6.35569 47.4294 6.21532 47.2891C6.07495 47.1487 5.99609 46.9583 5.99609 46.7598V45.7949C5.99622 45.5964 6.07514 45.4062 6.21549 45.2659C6.35585 45.1257 6.54616 45.0469 6.74458 45.0469Z" fill="#4D4D4D"/>
<path d="M7.62577 46.7701C7.9258 46.7701 8.16902 46.5269 8.16902 46.2268C8.16902 45.9268 7.9258 45.6836 7.62577 45.6836C7.32574 45.6836 7.08252 45.9268 7.08252 46.2268C7.08252 46.5269 7.32574 46.7701 7.62577 46.7701Z" fill="#C9C9C9"/>
<path d="M4.7306 36.3008H3.78076V38.2715H4.7306V36.3008Z" fill="#141414"/>
<path d="M7.18977 35.1934H11.6846C11.7611 35.1934 11.8345 35.2237 11.8885 35.2778C11.9426 35.3319 11.973 35.4053 11.973 35.4818V43.3446C11.973 43.3924 11.954 43.4383 11.9202 43.4722C11.8863 43.506 11.8404 43.525 11.7926 43.525H7.08229C7.03444 43.525 6.98854 43.506 6.9547 43.4722C6.92087 43.4383 6.90186 43.3924 6.90186 43.3446V35.4813C6.90198 35.405 6.93236 35.3318 6.98633 35.2778C7.04029 35.2239 7.11345 35.1935 7.18977 35.1934Z" fill="#4D4D4D"/>
<path d="M5.68518 37.4648H2.82642V38.5513H5.68518V37.4648Z" fill="#212121"/>
<path d="M11.6107 35.194H7.26367C7.26367 34.7442 7.96012 34.3789 8.3779 34.3789H10.4964C10.9142 34.3789 11.6107 34.7442 11.6107 35.194Z" fill="#363636"/>
<path d="M3.65332 27.4492V36.1899L5.33074 37.4417L3.84202 42.5095H6.90165V35.1938L5.37791 27.4492H3.65332Z" fill="#262626"/>
<path d="M5.28392 0.871094H3.81758C3.50492 0.871094 3.25146 1.12455 3.25146 1.4372V11.7857C3.25146 12.0984 3.50492 12.3518 3.81758 12.3518H5.28392C5.59657 12.3518 5.85003 12.0984 5.85003 11.7857V1.4372C5.85003 1.12455 5.59657 0.871094 5.28392 0.871094Z" fill="#363636"/>
<path d="M7.88217 58.1008C10.72 58.1008 13.0205 55.8003 13.0205 52.9625C13.0205 50.1247 10.72 47.8242 7.88217 47.8242C5.04438 47.8242 2.7439 50.1247 2.7439 52.9625C2.7439 55.8003 5.04438 58.1008 7.88217 58.1008Z" fill="#323232"/>
<path d="M10.6383 55.7176C12.1608 54.1952 12.1608 51.7267 10.6383 50.2042C9.1158 48.6817 6.64736 48.6817 5.12487 50.2042C3.60239 51.7267 3.60238 54.1952 5.12487 55.7176C6.64736 57.2401 9.1158 57.2401 10.6383 55.7176Z" fill="#F78921"/>
<path d="M7.88204 53.9531C8.42999 53.9531 8.8742 53.5088 8.8742 52.9609C8.8742 52.4129 8.42999 51.9688 7.88204 51.9688C7.33409 51.9688 6.88989 52.4129 6.88989 52.9609C6.88989 53.5088 7.33409 53.9531 7.88204 53.9531Z" fill="#C9C9C9"/>
<path d="M69.813 58.101C71.2776 58.101 72.465 56.9136 72.465 55.4489C72.465 53.9842 71.2776 52.7969 69.813 52.7969C68.3483 52.7969 67.1609 53.9842 67.1609 55.4489C67.1609 56.9136 68.3483 58.101 69.813 58.101Z" fill="#323232"/>
<path d="M69.8128 57.4616C70.924 57.4616 71.8248 56.5607 71.8248 55.4495C71.8248 54.3383 70.924 53.4375 69.8128 53.4375C68.7016 53.4375 67.8008 54.3383 67.8008 55.4495C67.8008 56.5607 68.7016 57.4616 69.8128 57.4616Z" fill="#F78921"/>
<path d="M69.8129 55.9617C70.0957 55.9617 70.325 55.7325 70.325 55.4496C70.325 55.1668 70.0957 54.9375 69.8129 54.9375C69.5301 54.9375 69.3008 55.1668 69.3008 55.4496C69.3008 55.7325 69.5301 55.9617 69.8129 55.9617Z" fill="#C9C9C9"/>
<path d="M75.6953 58.101C77.16 58.101 78.3473 56.9136 78.3473 55.4489C78.3473 53.9842 77.16 52.7969 75.6953 52.7969C74.2306 52.7969 73.0432 53.9842 73.0432 55.4489C73.0432 56.9136 74.2306 58.101 75.6953 58.101Z" fill="#323232"/>
<path d="M75.6951 57.4616C76.8063 57.4616 77.7072 56.5607 77.7072 55.4495C77.7072 54.3383 76.8063 53.4375 75.6951 53.4375C74.5839 53.4375 73.6831 54.3383 73.6831 55.4495C73.6831 56.5607 74.5839 57.4616 75.6951 57.4616Z" fill="#F78921"/>
<path d="M75.6952 55.9617C75.9781 55.9617 76.2074 55.7325 76.2074 55.4496C76.2074 55.1668 75.9781 54.9375 75.6952 54.9375C75.4124 54.9375 75.1831 55.1668 75.1831 55.4496C75.1831 55.7325 75.4124 55.9617 75.6952 55.9617Z" fill="#C9C9C9"/>
<path d="M14.8705 52.3093L13.2631 31.1118C13.2601 31.0305 13.2735 30.9494 13.3026 30.8734C13.3316 30.7974 13.3757 30.728 13.4322 30.6694C13.4887 30.6108 13.5564 30.5643 13.6313 30.5325C13.7062 30.5007 13.7868 30.4843 13.8681 30.4844H18.5337C18.6233 30.4843 18.71 30.5163 18.7781 30.5745C18.8462 30.6328 18.8913 30.7134 18.9052 30.802L24.3203 52.3088L14.8705 52.3093Z" fill="#FCA026"/>
<path d="M19.9035 49.0564C20.2571 48.7027 20.2571 48.1293 19.9035 47.7757C19.5498 47.422 18.9764 47.422 18.6228 47.7757C18.2691 48.1293 18.2691 48.7027 18.6228 49.0564C18.9764 49.41 19.5498 49.41 19.9035 49.0564Z" fill="#FBB252"/>
<path d="M19.647 48.8002C19.8592 48.588 19.8592 48.244 19.647 48.0319C19.4349 47.8197 19.0909 47.8197 18.8788 48.0319C18.6666 48.244 18.6666 48.588 18.8788 48.8002C19.0909 49.0123 19.4349 49.0123 19.647 48.8002Z" fill="#A69B8D"/>
<path d="M81.9346 55.2053H14.1828C13.9649 55.2053 13.7878 55.0049 13.7878 54.7584V52.6768C13.7878 52.2751 14.0758 51.9473 14.4308 51.9473H86.1673C86.4649 51.9473 86.7066 52.2206 86.7066 52.5576V52.7959C86.7066 53.062 86.5607 53.2998 86.338 53.3908L81.9346 55.2053Z" fill="#FBB252"/>
<path d="M81.297 56.3457H26.2661V57.4653H81.297V56.3457Z" fill="#F8CE84"/>
<path d="M81.297 50.8398H26.2661V51.9594H81.297V50.8398Z" fill="#F8CE84"/>
<path d="M57.1541 51.957H50.4084V56.3439H57.1541V51.957Z" fill="#F09E5B"/>
<path d="M33.5181 51.957H26.7725V56.3439H33.5181V51.957Z" fill="#F09E5B"/>
<path d="M80.7901 51.957H74.0444V56.3439H80.7901V51.957Z" fill="#F09E5B"/>
<path d="M61.6791 22.4766H45.1841V24.5606H61.6791V22.4766Z" fill="#ED8945"/>
<path d="M61.6791 9.8125H45.1841V23.4308H61.6791V9.8125Z" fill="#FFAD6E"/>
<path d="M55.591 18.7617H51.2727V23.4307H55.591V18.7617Z" fill="#FFC59E"/>
<path d="M55.591 9.8125H51.2727V14.4815H55.591V9.8125Z" fill="#FFC59E"/>
<path fill-rule="evenodd" clip-rule="evenodd" d="M49.5773 22.1382C49.5773 22.1382 49.5787 22.1411 49.5787 22.1382H49.5773ZM49.3477 22.5288H49.3837C49.4269 22.5298 49.4691 22.5164 49.5038 22.4908L49.5627 22.4164C49.5752 22.4036 49.5856 22.3888 49.5933 22.3726C49.5968 22.3658 49.5985 22.3584 49.5985 22.3508C49.5985 22.3432 49.5968 22.3357 49.5933 22.3289L49.5116 22.1946L49.4995 22.1747L49.5218 22.1625L49.5603 22.1411L49.2315 22.0881L49.1269 22.3498L49.1639 22.3289L49.1887 22.3152L49.2047 22.3366L49.3477 22.5288ZM48.9368 22.5288H49.2772L49.1692 22.3829L49.1206 22.4091H49.1172H49.1143C49.1074 22.4106 49.1003 22.4106 49.0934 22.4091C49.0833 22.4085 49.0737 22.4041 49.0666 22.397C49.0603 22.3902 49.0566 22.3814 49.0564 22.3722C49.0565 22.3595 49.0595 22.347 49.0652 22.3357L49.1814 22.0439L49.1897 22.0234L49.2145 22.0278L49.569 22.0847C49.6104 22.092 49.6283 22.1056 49.6322 22.1212C49.6361 22.1368 49.6235 22.1543 49.6065 22.1655L49.5749 22.1825L49.6449 22.2973C49.6519 22.3097 49.6559 22.3236 49.6566 22.3379C49.6573 22.3522 49.6546 22.3664 49.6488 22.3794C49.6393 22.4009 49.6261 22.4204 49.6099 22.4373L49.3385 22.804C49.3234 22.8307 49.3011 22.8526 49.274 22.8671C49.247 22.8816 49.2164 22.888 49.1858 22.8857H48.874V22.5798C48.875 22.5404 48.8979 22.5307 48.9368 22.5288Z" fill="#85583C"/>
<path d="M48.2822 21.875C48.2822 21.875 48.2846 21.8745 48.2822 21.8745V21.875ZM48.8497 21.8424L48.7442 22.0335L48.7963 22.053H48.7997H48.8026C48.8078 22.0568 48.8122 22.0616 48.8157 22.0671C48.8176 22.0711 48.8187 22.0755 48.8187 22.0799C48.8187 22.0844 48.8176 22.0888 48.8157 22.0928C48.8118 22.1018 48.8049 22.1092 48.7963 22.1138C48.7836 22.1202 48.7699 22.1247 48.7559 22.1269L48.4047 22.2008L48.3804 22.2057L48.3707 22.1857L48.236 21.9017C48.2209 21.8681 48.2248 21.8482 48.236 21.8365C48.2444 21.8308 48.2541 21.8273 48.2643 21.8265C48.2744 21.8256 48.2846 21.8274 48.2938 21.8317L48.3279 21.8448L48.4038 21.7329C48.423 21.707 48.4516 21.6896 48.4835 21.6843C48.5094 21.6797 48.5357 21.6785 48.5618 21.6809H49.0438L48.824 21.7349L48.5638 21.7305C48.5438 21.7278 48.5235 21.7278 48.5035 21.7305C48.4866 21.7328 48.4713 21.7415 48.4607 21.7548L48.3717 21.8857L48.3585 21.9051L48.3347 21.8959L48.2924 21.8798L48.4174 22.1434L48.7335 22.0768L48.6927 22.0617L48.6654 22.051L48.6781 22.0282L48.7967 21.8146L48.8497 21.8424Z" fill="#85583C"/>
<path fill-rule="evenodd" clip-rule="evenodd" d="M49.0157 22.1219L48.7725 21.8029C48.7448 21.767 48.7044 21.743 48.6597 21.7357L48.8192 21.691L49.0765 21.6822C49.1626 21.6774 49.2107 21.7027 49.2409 21.7469L49.4091 21.9697L49.1057 22.1345C49.057 22.1598 49.0371 22.1501 49.0137 22.1219H49.0157Z" fill="#85583C"/>
<path fill-rule="evenodd" clip-rule="evenodd" d="M48.6367 22.952C48.6352 22.951 48.6333 22.951 48.6367 22.952V22.952ZM48.356 22.5858L48.3381 22.6121C48.327 22.6273 48.3192 22.6447 48.3154 22.6632C48.3115 22.6816 48.3116 22.7007 48.3157 22.7191L48.3629 22.7988C48.3702 22.8152 48.38 22.8302 48.392 22.8436C48.404 22.856 48.4201 22.8636 48.4373 22.865L48.6148 22.8732H48.6415V22.8956V22.935L48.8623 22.7215L48.6498 22.5119V22.5498V22.5751H48.6201L48.356 22.5858ZM48.5647 22.2852L48.3911 22.5352L48.5944 22.5303V22.4817V22.4783C48.5955 22.4721 48.5984 22.4664 48.6026 22.4618C48.6094 22.4542 48.6188 22.4495 48.6289 22.4486C48.6392 22.4472 48.6497 22.4489 48.659 22.4535C48.6714 22.4596 48.6824 22.4681 48.6916 22.4783L48.9275 22.7103L48.944 22.7268L48.9275 22.7429L48.6897 22.9734C48.661 22.9997 48.6381 23.006 48.6201 23.0011C48.6112 22.9984 48.6034 22.9929 48.5977 22.9855C48.592 22.9781 48.5888 22.9691 48.5885 22.9598V22.9277L48.4368 22.9209C48.4044 22.919 48.3739 22.9051 48.3512 22.882C48.335 22.8653 48.3218 22.8458 48.3123 22.8246L48.0774 22.4394C48.0582 22.4189 48.0471 22.3922 48.046 22.3641C48.0449 22.3361 48.054 22.3086 48.0715 22.2867L48.2296 22.0586L48.5404 22.2137C48.5846 22.2342 48.5837 22.2551 48.5647 22.2852Z" fill="#85583C"/>
<path d="M49.6815 21.4241H48.0197C47.9678 21.4213 47.9169 21.439 47.878 21.4734C47.839 21.5078 47.8151 21.5561 47.8115 21.608V23.0748C47.8151 23.1266 47.839 23.1749 47.878 23.2092C47.9169 23.2435 47.9678 23.2611 48.0197 23.2581H49.6815C49.7072 23.2599 49.733 23.2565 49.7573 23.2481C49.7817 23.2398 49.8041 23.2268 49.8234 23.2097C49.8427 23.1927 49.8584 23.172 49.8696 23.1488C49.8808 23.1256 49.8873 23.1005 49.8887 23.0748V21.608C49.8852 21.5563 49.8615 21.508 49.8228 21.4736C49.784 21.4392 49.7333 21.4214 49.6815 21.4241ZM49.7647 23.0514C49.7627 23.0788 49.7501 23.1043 49.7295 23.1225C49.709 23.1406 49.6822 23.1501 49.6548 23.1487H48.0464C48.019 23.1503 47.992 23.141 47.9714 23.1228C47.9508 23.1045 47.9383 23.0789 47.9365 23.0514V21.6318C47.9373 21.6182 47.9408 21.6049 47.9468 21.5926C47.9527 21.5803 47.9611 21.5694 47.9713 21.5603C47.9815 21.5513 47.9934 21.5444 48.0063 21.5399C48.0192 21.5355 48.0328 21.5337 48.0464 21.5345H49.6548C49.6822 21.5331 49.7091 21.5424 49.7297 21.5606C49.7502 21.5788 49.7628 21.6044 49.7647 21.6318V23.0514Z" fill="#85583C"/>
<path d="M47.2277 23.0432H46.1456C46.1409 23.044 46.1361 23.0438 46.1315 23.0426C46.1269 23.0413 46.1227 23.0391 46.119 23.036C46.1154 23.033 46.1125 23.0292 46.1105 23.0249C46.1085 23.0206 46.1074 23.0159 46.1074 23.0111C46.1074 23.0063 46.1085 23.0016 46.1105 22.9973C46.1125 22.993 46.1154 22.9892 46.119 22.9862C46.1227 22.9831 46.1269 22.9809 46.1315 22.9796C46.1361 22.9784 46.1409 22.9782 46.1456 22.979H47.2277C47.2324 22.9782 47.2372 22.9784 47.2418 22.9796C47.2464 22.9809 47.2507 22.9831 47.2543 22.9862C47.258 22.9892 47.2609 22.993 47.2629 22.9973C47.2649 23.0016 47.2659 23.0063 47.2659 23.0111C47.2659 23.0159 47.2649 23.0206 47.2629 23.0249C47.2609 23.0292 47.258 23.033 47.2543 23.036C47.2507 23.0391 47.2464 23.0413 47.2418 23.0426C47.2372 23.0438 47.2324 23.044 47.2277 23.0432Z" fill="#85583C"/>
<path fill-rule="evenodd" clip-rule="evenodd" d="M46.5211 21.8867V22.8458H46.292V21.8862H46.1797L46.4112 21.6406L46.6412 21.8872L46.5211 21.8867Z" fill="#85583C"/>
<path fill-rule="evenodd" clip-rule="evenodd" d="M47.0829 21.8872V22.8458H46.8538V21.8862H46.7415L46.973 21.6406L47.203 21.8872H47.0829Z" fill="#85583C"/>
<path d="M47.5182 21.4241H45.8563C45.8044 21.4213 45.7535 21.439 45.7144 21.4734C45.6754 21.5078 45.6515 21.5561 45.6477 21.608V23.0748C45.6515 23.1266 45.6754 23.1749 45.7145 23.2092C45.7535 23.2435 45.8045 23.2611 45.8563 23.2581H47.5182C47.5439 23.2599 47.5696 23.2565 47.594 23.2481C47.6183 23.2398 47.6408 23.2268 47.6601 23.2097C47.6793 23.1927 47.695 23.172 47.7062 23.1488C47.7175 23.1256 47.724 23.1005 47.7254 23.0748V21.608C47.7219 21.5563 47.6982 21.508 47.6594 21.4736C47.6207 21.4392 47.57 21.4214 47.5182 21.4241ZM47.6014 23.0514C47.5994 23.0788 47.5868 23.1043 47.5662 23.1225C47.5457 23.1406 47.5188 23.1501 47.4914 23.1487H45.8826C45.8552 23.1503 45.8282 23.141 45.8076 23.1228C45.787 23.1045 45.7744 23.0789 45.7727 23.0514V21.6318C45.7735 21.6182 45.777 21.6049 45.7829 21.5926C45.7889 21.5803 45.7972 21.5694 45.8075 21.5603C45.8177 21.5513 45.8296 21.5444 45.8425 21.5399C45.8554 21.5355 45.869 21.5337 45.8826 21.5345H47.491C47.5184 21.5331 47.5453 21.5424 47.5659 21.5606C47.5864 21.5788 47.599 21.6044 47.6009 21.6318L47.6014 23.0514Z" fill="#85583C"/>
<path d="M45.0563 36.1816H28.5613V38.2656H45.0563V36.1816Z" fill="#ED8945"/>
<path d="M61.6796 36.1816H45.1846V38.2656H61.6796V36.1816Z" fill="#ED8945"/>
<path d="M45.0563 37.2207H28.5613V50.839H45.0563V37.2207Z" fill="#FFAD6E"/>
<path d="M38.9677 46.1699H34.6494V50.8389H38.9677V46.1699Z" fill="#FFC59E"/>
<path d="M38.9677 37.2207H34.6494V41.8897H38.9677V37.2207Z" fill="#FFC59E"/>
<path fill-rule="evenodd" clip-rule="evenodd" d="M32.9545 49.5464C32.9545 49.5464 32.9555 49.5489 32.9545 49.5489V49.5464ZM32.7249 49.937H32.7604C32.8035 49.9377 32.8457 49.9243 32.8806 49.899L32.9399 49.8241C32.9523 49.8112 32.9625 49.7962 32.97 49.7799C32.9735 49.7731 32.9752 49.7656 32.9752 49.758C32.9752 49.7504 32.9735 49.7429 32.97 49.7361L32.8879 49.6023L32.8757 49.5824L32.8981 49.5702L32.937 49.5489L32.6082 49.4958L32.5032 49.7575L32.5406 49.7366L32.5654 49.7225L32.5815 49.7439L32.7249 49.937ZM32.314 49.937H32.6544L32.5464 49.7911L32.4978 49.8173H32.4944H32.4915C32.4845 49.8183 32.4775 49.8183 32.4706 49.8173C32.4605 49.8165 32.4511 49.8122 32.4438 49.8052C32.4373 49.7983 32.4335 49.7893 32.4331 49.7799C32.4337 49.7674 32.4367 49.7552 32.4419 49.7439L32.5581 49.4521L32.5664 49.4316L32.5912 49.4355L32.9462 49.4929C32.9871 49.5002 33.0051 49.5138 33.0094 49.5294C33.0138 49.545 33.0007 49.5625 32.9832 49.5737L32.9516 49.5912L33.0221 49.7059C33.0291 49.7184 33.0331 49.7323 33.0338 49.7466C33.0345 49.7609 33.0318 49.7751 33.026 49.7881C33.0163 49.8094 33.0031 49.829 32.9871 49.846L32.7152 50.2127C32.7 50.2394 32.6777 50.2612 32.6506 50.2756C32.6236 50.2901 32.5931 50.2966 32.5625 50.2944H32.2507V49.9885C32.2517 49.9486 32.2731 49.9379 32.3135 49.9379L32.314 49.937Z" fill="#85583C"/>
<path d="M31.6586 49.285C31.6586 49.285 31.6611 49.283 31.6586 49.285V49.285ZM32.2267 49.2529L32.1212 49.4435L32.1727 49.4635H32.1766C32.182 49.4668 32.1865 49.4715 32.1897 49.4771C32.1917 49.4811 32.1927 49.4855 32.1927 49.49C32.1927 49.4944 32.1917 49.4988 32.1897 49.5029C32.1861 49.5119 32.1794 49.5193 32.1708 49.5238C32.1581 49.5307 32.1442 49.5354 32.1299 49.5374L31.7793 49.6108L31.7544 49.6162L31.7452 49.5962L31.6105 49.3122C31.5954 49.2786 31.5993 49.2582 31.6105 49.247C31.6189 49.2413 31.6286 49.2377 31.6387 49.2368C31.6489 49.2358 31.6591 49.2375 31.6684 49.2417L31.7024 49.2548L31.7783 49.143C31.7976 49.1173 31.8259 49.1 31.8576 49.0943C31.8836 49.0899 31.91 49.0887 31.9363 49.0909H32.4135L32.1936 49.1449L31.9334 49.14C31.9132 49.1374 31.8928 49.1374 31.8726 49.14C31.8559 49.1424 31.8408 49.1511 31.8303 49.1644L31.7413 49.2952L31.7282 49.3146L31.7039 49.3054L31.662 49.2893L31.787 49.5525L32.1032 49.4863L32.0623 49.4708L32.0351 49.4605L32.0477 49.4377L32.1659 49.2242L32.2267 49.2529Z" fill="#85583C"/>
<path fill-rule="evenodd" clip-rule="evenodd" d="M32.3921 49.5307L32.149 49.2111C32.1214 49.1753 32.0813 49.1513 32.0366 49.144L32.1957 49.0998L32.4534 49.0905C32.4842 49.085 32.5159 49.0882 32.5449 49.0997C32.5739 49.1112 32.5992 49.1306 32.6178 49.1557L32.7861 49.378L32.4826 49.5433C32.434 49.5686 32.414 49.5584 32.3902 49.5307H32.3921Z" fill="#85583C"/>
<path fill-rule="evenodd" clip-rule="evenodd" d="M31.7333 49.9964L31.7153 50.0227C31.7041 50.0379 31.6963 50.0553 31.6924 50.0738C31.6886 50.0922 31.6887 50.1113 31.6929 50.1297L31.7386 50.2104C31.7457 50.2269 31.7556 50.242 31.7678 50.2552C31.7797 50.2676 31.7958 50.2752 31.813 50.2766L31.9905 50.2843H32.0168V50.3067V50.3456L32.2371 50.1321L32.0246 49.923V49.9609V49.9862H31.9949L31.7333 49.9964ZM31.9419 49.6959L31.7683 49.9458L31.9716 49.941L31.9687 49.8924V49.886C31.9703 49.8801 31.9733 49.8746 31.9774 49.87C31.9841 49.8626 31.9933 49.8577 32.0032 49.8564C32.0137 49.8552 32.0243 49.857 32.0338 49.8617C32.0462 49.8678 32.0572 49.8763 32.0664 49.8865L32.3023 50.1185L32.3188 50.135L32.3023 50.1511L32.064 50.3816C32.0358 50.4079 32.0129 50.4142 31.9949 50.4093C31.9859 50.4066 31.978 50.4011 31.9724 50.3935C31.9667 50.386 31.9635 50.3769 31.9633 50.3675V50.3359L31.8116 50.3291C31.7791 50.3271 31.7485 50.3132 31.7255 50.2902C31.7095 50.2731 31.6964 50.2535 31.6866 50.2323L31.4517 49.8476C31.4325 49.827 31.4215 49.8001 31.4205 49.772C31.4195 49.7439 31.4287 49.7163 31.4463 49.6944L31.6044 49.4668L31.9152 49.6219C31.9614 49.6443 31.9609 49.6647 31.9419 49.6959Z" fill="#85583C"/>
<path d="M33.058 48.8323H31.3966C31.3448 48.8295 31.2939 48.8471 31.2549 48.8814C31.2159 48.9157 31.1919 48.9639 31.188 49.0157V50.483C31.1917 50.5348 31.2157 50.5831 31.2548 50.6174C31.2938 50.6517 31.3448 50.6693 31.3966 50.6663H33.058C33.1098 50.6693 33.1606 50.6517 33.1995 50.6173C33.2384 50.583 33.2622 50.5347 33.2657 50.483V49.0157C33.262 48.964 33.2382 48.9158 33.1994 48.8815C33.1605 48.8472 33.1098 48.8295 33.058 48.8323ZM33.1412 50.4596C33.1392 50.487 33.1266 50.5125 33.106 50.5307C33.0855 50.5488 33.0586 50.5583 33.0313 50.5569H31.4234C31.3959 50.5585 31.3688 50.5492 31.3482 50.531C31.3275 50.5128 31.3149 50.4871 31.313 50.4596V49.0395C31.3147 49.012 31.3273 48.9863 31.348 48.968C31.3687 48.9498 31.3958 48.9405 31.4234 48.9422H33.0313C33.0587 48.9408 33.0856 48.9501 33.1061 48.9683C33.1267 48.9865 33.1393 49.0121 33.1412 49.0395V50.4596Z" fill="#85583C"/>
<path d="M30.6042 50.4534H29.5221C29.5174 50.4542 29.5126 50.454 29.508 50.4527C29.5034 50.4515 29.4991 50.4493 29.4955 50.4462C29.4919 50.4431 29.4889 50.4393 29.4869 50.435C29.4849 50.4307 29.4839 50.426 29.4839 50.4213C29.4839 50.4165 29.4849 50.4118 29.4869 50.4075C29.4889 50.4032 29.4919 50.3994 29.4955 50.3963C29.4991 50.3933 29.5034 50.391 29.508 50.3898C29.5126 50.3886 29.5174 50.3883 29.5221 50.3892H30.6042C30.6089 50.3883 30.6137 50.3886 30.6183 50.3898C30.6229 50.391 30.6271 50.3933 30.6308 50.3963C30.6344 50.3994 30.6373 50.4032 30.6394 50.4075C30.6414 50.4118 30.6424 50.4165 30.6424 50.4213C30.6424 50.426 30.6414 50.4307 30.6394 50.435C30.6373 50.4393 30.6344 50.4431 30.6308 50.4462C30.6271 50.4493 30.6229 50.4515 30.6183 50.4527C30.6137 50.454 30.6089 50.4542 30.6042 50.4534Z" fill="#85583C"/>
<path fill-rule="evenodd" clip-rule="evenodd" d="M29.8976 49.293V50.2516H29.669V49.2925L29.5562 49.292L29.7881 49.0469L30.0177 49.2935L29.8976 49.293Z" fill="#85583C"/>
<path fill-rule="evenodd" clip-rule="evenodd" d="M30.4596 49.2949V50.2535H30.231V49.2944L30.1187 49.2939L30.3502 49.0488L30.5797 49.2954L30.4596 49.2949Z" fill="#85583C"/>
<path d="M30.8947 48.8323H29.2333C29.1814 48.8295 29.1306 48.8471 29.0915 48.8814C29.0525 48.9157 29.0285 48.9639 29.0247 49.0157V50.483C29.0284 50.5348 29.0524 50.5831 29.0914 50.6174C29.1305 50.6517 29.1814 50.6693 29.2333 50.6663H30.8947C30.9465 50.6693 30.9973 50.6517 31.0362 50.6173C31.0751 50.583 31.0988 50.5347 31.1023 50.483V49.0157C31.0987 48.964 31.0749 48.9158 31.0361 48.8815C30.9972 48.8472 30.9464 48.8295 30.8947 48.8323ZM30.9778 50.4596C30.9758 50.487 30.9632 50.5125 30.9427 50.5307C30.9221 50.5488 30.8953 50.5583 30.8679 50.5569H29.26C29.2325 50.5585 29.2055 50.5492 29.1848 50.531C29.1642 50.5128 29.1515 50.4871 29.1497 50.4596V49.0395C29.1514 49.012 29.164 48.9863 29.1847 48.968C29.2054 48.9498 29.2325 48.9405 29.26 48.9422H30.8679C30.8954 48.9406 30.9223 48.95 30.9429 48.9682C30.9635 48.9864 30.9761 49.0121 30.9778 49.0395V50.4596Z" fill="#85583C"/>
<path d="M45.0563 23.5176H28.5613V37.1358H45.0563V23.5176Z" fill="#FFAD6E"/>
<path d="M38.9677 32.4668H34.6494V37.1357H38.9677V32.4668Z" fill="#FFC59E"/>
<path d="M38.9677 23.5176H34.6494V28.1865H38.9677V23.5176Z" fill="#FFC59E"/>
<path fill-rule="evenodd" clip-rule="evenodd" d="M32.9545 35.8433C32.9545 35.8433 32.9555 35.8462 32.9545 35.8433V35.8433ZM32.7249 36.2338H32.7604C32.8036 36.2349 32.8458 36.2215 32.8806 36.1959L32.9399 36.1215C32.9524 36.1088 32.9626 36.094 32.97 36.0777C32.9735 36.0709 32.9752 36.0634 32.9752 36.0558C32.9752 36.0482 32.9735 36.0407 32.97 36.0339L32.8879 35.8997L32.8757 35.8798L32.8981 35.8676L32.937 35.8462L32.6082 35.7932L32.5032 36.0549L32.5406 36.0339L32.5654 36.0203L32.5815 36.0417L32.7249 36.2338ZM32.314 36.2338H32.6544L32.5464 36.0879L32.4978 36.1142H32.4944H32.4915C32.4846 36.1157 32.4775 36.1157 32.4706 36.1142C32.4605 36.1135 32.4509 36.1092 32.4438 36.102C32.4373 36.0954 32.4335 36.0865 32.4331 36.0772C32.4336 36.0646 32.4366 36.0522 32.4419 36.0408L32.5581 35.7489L32.5664 35.7285L32.5912 35.7329L32.9462 35.7898C32.9871 35.7971 33.0051 35.8107 33.0094 35.8263C33.0138 35.8418 33.0007 35.8593 32.9832 35.8705L32.9516 35.8876L33.0221 36.0023C33.0291 36.0148 33.0331 36.0287 33.0338 36.043C33.0345 36.0572 33.0318 36.0715 33.026 36.0845C33.0163 36.1058 33.0031 36.1254 32.9871 36.1424L32.7152 36.5091C32.7002 36.5359 32.6778 36.5578 32.6508 36.5722C32.6237 36.5867 32.5931 36.5932 32.5625 36.5908H32.2507V36.2849C32.2517 36.2455 32.2731 36.2358 32.3135 36.2338H32.314Z" fill="#85583C"/>
<path d="M31.6586 35.5801C31.6586 35.5801 31.6611 35.5781 31.6586 35.5801V35.5801ZM32.2267 35.548L32.1212 35.7386L32.1727 35.7581H32.1766C32.182 35.7616 32.1866 35.7665 32.1897 35.7722C32.1917 35.7762 32.1927 35.7806 32.1927 35.7851C32.1927 35.7895 32.1917 35.7939 32.1897 35.7979C32.1859 35.8068 32.1792 35.8141 32.1708 35.8189C32.1579 35.8254 32.1441 35.8298 32.1299 35.832L31.7793 35.9059L31.7544 35.9108L31.7452 35.8908L31.6105 35.6068C31.5954 35.5733 31.5993 35.5533 31.6105 35.5416C31.6189 35.5359 31.6287 35.5325 31.6388 35.5316C31.6489 35.5308 31.6591 35.5326 31.6684 35.5368L31.7024 35.5499L31.7783 35.438C31.7974 35.4122 31.8258 35.3948 31.8576 35.3894C31.8835 35.3847 31.91 35.3836 31.9363 35.386H32.4135L32.1936 35.44L31.9334 35.4356C31.9132 35.433 31.8928 35.433 31.8726 35.4356C31.8559 35.438 31.8408 35.4467 31.8303 35.4599L31.7413 35.5908L31.7282 35.6102L31.7039 35.601L31.662 35.5849L31.787 35.8485L32.1032 35.7819L32.0623 35.7668L32.0351 35.7561L32.0477 35.7333L32.1659 35.5198L32.2267 35.548Z" fill="#85583C"/>
<path fill-rule="evenodd" clip-rule="evenodd" d="M32.3921 35.827L32.149 35.5079C32.1214 35.4721 32.0813 35.4481 32.0366 35.4408L32.1957 35.3961L32.4534 35.3873C32.539 35.3824 32.5872 35.4077 32.6178 35.452L32.7861 35.6747L32.4826 35.8396C32.434 35.8649 32.414 35.8552 32.3902 35.827H32.3921Z" fill="#85583C"/>
<path fill-rule="evenodd" clip-rule="evenodd" d="M32.0138 36.6576C32.0138 36.6576 32.0104 36.6566 32.0138 36.6576V36.6576ZM31.7332 36.2914L31.7152 36.3176C31.7041 36.3328 31.6963 36.3502 31.6924 36.3687C31.6886 36.3871 31.6887 36.4062 31.6928 36.4246L31.7386 36.5058C31.7456 36.5224 31.7554 36.5375 31.7677 36.5506C31.7797 36.563 31.7958 36.5707 31.813 36.572L31.9905 36.5802H32.0168V36.6026V36.642L32.2371 36.4285L32.0245 36.2189V36.2568V36.2821H31.9949L31.7332 36.2914ZM31.9419 35.9908L31.7682 36.2408L31.9715 36.2359L31.9686 36.1873V36.1814C31.9701 36.1753 31.9731 36.1696 31.9774 36.1649C31.984 36.1575 31.9932 36.1528 32.0031 36.1518C32.0136 36.1504 32.0242 36.1521 32.0338 36.1566C32.0461 36.1628 32.0572 36.1712 32.0664 36.1814L32.3022 36.4134L32.3188 36.43L32.3022 36.446L32.0639 36.6765C32.0357 36.7028 32.0129 36.7091 31.9949 36.7043C31.9859 36.7017 31.9779 36.6962 31.9723 36.6888C31.9666 36.6814 31.9634 36.6723 31.9633 36.6629V36.6308L31.8115 36.624C31.779 36.622 31.7484 36.6082 31.7254 36.5851C31.7094 36.5683 31.6962 36.5489 31.6865 36.5277L31.4516 36.1425C31.4325 36.122 31.4215 36.0952 31.4205 36.0672C31.4195 36.0391 31.4287 36.0117 31.4463 35.9898L31.6043 35.7617L31.9151 35.9169C31.9613 35.9397 31.9608 35.9606 31.9419 35.9908Z" fill="#85583C"/>
<path d="M33.058 35.1292H31.3966C31.3447 35.1264 31.2937 35.1441 31.2547 35.1785C31.2157 35.2128 31.1917 35.2612 31.188 35.313V36.7799C31.1917 36.8317 31.2157 36.88 31.2548 36.9143C31.2938 36.9486 31.3448 36.9662 31.3966 36.9632H33.058C33.1098 36.9662 33.1606 36.9485 33.1995 36.9142C33.2384 36.8799 33.2622 36.8316 33.2657 36.7799V35.313C33.2622 35.2612 33.2384 35.2129 33.1995 35.1785C33.1607 35.1441 33.1098 35.1264 33.058 35.1292ZM33.1402 36.758C33.1382 36.7853 33.1256 36.8108 33.105 36.829C33.0845 36.8472 33.0577 36.8566 33.0303 36.8552H31.4234C31.3959 36.8569 31.3688 36.8475 31.3482 36.8293C31.3275 36.8111 31.3149 36.7855 31.313 36.758V35.3369C31.3147 35.3093 31.3273 35.2836 31.348 35.2654C31.3687 35.2471 31.3958 35.2379 31.4234 35.2396H33.0313C33.0587 35.2381 33.0856 35.2475 33.1061 35.2657C33.1267 35.2839 33.1393 35.3095 33.1412 35.3369L33.1402 36.758Z" fill="#85583C"/>
<path d="M30.6042 36.7483H29.5221C29.5174 36.7491 29.5126 36.7489 29.508 36.7476C29.5034 36.7464 29.4991 36.7442 29.4955 36.7411C29.4919 36.7381 29.4889 36.7342 29.4869 36.7299C29.4849 36.7256 29.4839 36.7209 29.4839 36.7162C29.4839 36.7114 29.4849 36.7067 29.4869 36.7024C29.4889 36.6981 29.4919 36.6943 29.4955 36.6912C29.4991 36.6882 29.5034 36.686 29.508 36.6847C29.5126 36.6835 29.5174 36.6833 29.5221 36.6841H30.6042C30.6089 36.6833 30.6137 36.6835 30.6183 36.6847C30.6229 36.686 30.6271 36.6882 30.6308 36.6912C30.6344 36.6943 30.6373 36.6981 30.6394 36.7024C30.6414 36.7067 30.6424 36.7114 30.6424 36.7162C30.6424 36.7209 30.6414 36.7256 30.6394 36.7299C30.6373 36.7342 30.6344 36.7381 30.6308 36.7411C30.6271 36.7442 30.6229 36.7464 30.6183 36.7476C30.6137 36.7489 30.6089 36.7491 30.6042 36.7483Z" fill="#85583C"/>
<path fill-rule="evenodd" clip-rule="evenodd" d="M29.8976 35.5903V36.5489H29.669V35.5894H29.5562L29.7881 35.3438L30.0177 35.5903H29.8976Z" fill="#85583C"/>
<path fill-rule="evenodd" clip-rule="evenodd" d="M30.4596 35.5903V36.5489H30.231V35.5894H30.1187L30.3502 35.3438L30.5797 35.5903H30.4596Z" fill="#85583C"/>
<path d="M30.8947 35.1292H29.2333C29.1814 35.1264 29.1304 35.1441 29.0914 35.1785C29.0524 35.2128 29.0284 35.2612 29.0247 35.313V36.7799C29.0284 36.8317 29.0524 36.88 29.0914 36.9143C29.1305 36.9486 29.1814 36.9662 29.2333 36.9632H30.8947C30.9465 36.9662 30.9973 36.9485 31.0362 36.9142C31.0751 36.8799 31.0988 36.8316 31.1023 36.7799V35.313C31.0988 35.2612 31.0751 35.2129 31.0362 35.1785C30.9973 35.1441 30.9465 35.1264 30.8947 35.1292ZM30.9778 36.7565C30.9758 36.7839 30.9632 36.8094 30.9427 36.8275C30.9221 36.8457 30.8953 36.8551 30.8679 36.8538H29.26C29.2325 36.8554 29.2055 36.8461 29.1848 36.8279C29.1642 36.8096 29.1515 36.784 29.1497 36.7565V35.3369C29.1514 35.3093 29.164 35.2836 29.1847 35.2654C29.2054 35.2471 29.2325 35.2379 29.26 35.2396H30.8679C30.8954 35.238 30.9223 35.2473 30.9429 35.2656C30.9635 35.2838 30.9761 35.3094 30.9778 35.3369V36.7565Z" fill="#85583C"/>
<path d="M61.6796 23.5176H45.1846V37.1358H61.6796V23.5176Z" fill="#FFAD6E"/>
<path d="M55.591 32.4668H51.2727V37.1357H55.591V32.4668Z" fill="#FFC59E"/>
<path d="M55.591 23.5176H51.2727V28.1865H55.591V23.5176Z" fill="#FFC59E"/>
<path fill-rule="evenodd" clip-rule="evenodd" d="M49.5778 35.8433C49.5778 35.8433 49.5787 35.8462 49.5787 35.8433H49.5778ZM49.3482 36.2338H49.3837C49.4269 36.2349 49.4691 36.2215 49.5038 36.1959L49.5632 36.1215C49.5757 36.1088 49.5859 36.094 49.5933 36.0777C49.5968 36.0709 49.5985 36.0634 49.5985 36.0558C49.5985 36.0482 49.5968 36.0407 49.5933 36.0339L49.5111 35.8997L49.499 35.8798L49.5213 35.8676L49.5603 35.8462L49.231 35.7932L49.1264 36.0549L49.1639 36.0339L49.1887 36.0203L49.2047 36.0417L49.3482 36.2338ZM48.9372 36.2338H49.2777L49.1692 36.0879L49.1206 36.1142H49.1172H49.1143C49.1074 36.1157 49.1003 36.1157 49.0934 36.1142C49.0833 36.1135 49.0737 36.1092 49.0666 36.102C49.0599 36.0955 49.0561 36.0866 49.0559 36.0772C49.0562 36.0646 49.0592 36.0522 49.0647 36.0408L49.1809 35.7489L49.1892 35.7285L49.214 35.7329L49.5685 35.7898C49.6099 35.7971 49.6279 35.8107 49.6322 35.8263C49.6366 35.8418 49.6235 35.8593 49.606 35.8705L49.5744 35.8876L49.6444 36.0023C49.6516 36.0147 49.6558 36.0286 49.6565 36.0429C49.6573 36.0572 49.6546 36.0715 49.6488 36.0845C49.6391 36.1058 49.6259 36.1254 49.6099 36.1424L49.338 36.5091C49.323 36.5359 49.3006 36.5578 49.2736 36.5722C49.2465 36.5867 49.2159 36.5932 49.1853 36.5908H48.8735V36.2849C48.875 36.2455 48.8979 36.2358 48.9372 36.2338Z" fill="#85583C"/>
<path d="M48.2822 35.5801C48.2822 35.5801 48.2846 35.5781 48.2822 35.5801V35.5801ZM48.8502 35.548L48.7447 35.7386L48.7962 35.7581H48.8001C48.8056 35.7616 48.8101 35.7665 48.8133 35.7722C48.8152 35.7762 48.8162 35.7806 48.8162 35.7851C48.8162 35.7895 48.8152 35.7939 48.8133 35.7979C48.8094 35.8068 48.8027 35.8141 48.7943 35.8189C48.7815 35.8254 48.7677 35.8298 48.7534 35.832L48.4028 35.9059L48.378 35.9108L48.3687 35.8908L48.234 35.6068C48.2189 35.5733 48.2228 35.5533 48.234 35.5416C48.2424 35.5359 48.2522 35.5325 48.2623 35.5316C48.2725 35.5308 48.2826 35.5326 48.2919 35.5368L48.3259 35.5499L48.4018 35.438C48.421 35.4122 48.4494 35.3948 48.4811 35.3894C48.5071 35.3847 48.5336 35.3836 48.5599 35.386H49.037L48.8172 35.44L48.557 35.4356C48.5369 35.433 48.5167 35.433 48.4967 35.4356C48.4799 35.4381 48.4646 35.4468 48.4539 35.4599L48.3653 35.5908L48.3522 35.6102L48.3279 35.601L48.2861 35.5849L48.4111 35.8485L48.7272 35.7819L48.6863 35.7668L48.6591 35.7561L48.6717 35.7333L48.7899 35.5198L48.8502 35.548Z" fill="#85583C"/>
<path fill-rule="evenodd" clip-rule="evenodd" d="M49.0157 35.827L48.7725 35.5079C48.745 35.4721 48.7048 35.4481 48.6602 35.4408L48.8192 35.3961L49.077 35.3873C49.1626 35.3824 49.2107 35.4077 49.2413 35.452L49.4091 35.6747L49.1061 35.8396C49.0575 35.8649 49.0376 35.8552 49.0137 35.827H49.0157Z" fill="#85583C"/>
<path fill-rule="evenodd" clip-rule="evenodd" d="M48.6371 36.6576C48.6352 36.6566 48.6337 36.6566 48.6371 36.6576V36.6576ZM48.3565 36.2914L48.3385 36.3176C48.3273 36.3328 48.3196 36.3502 48.3157 36.3687C48.3118 36.3871 48.312 36.4062 48.3161 36.4246L48.3619 36.5058C48.3688 36.5224 48.3787 36.5375 48.391 36.5506C48.403 36.563 48.4191 36.5707 48.4363 36.572L48.6138 36.5802H48.64V36.6026V36.642L48.8604 36.4285L48.6546 36.2233V36.2612V36.2865H48.625L48.3565 36.2914ZM48.5651 35.9908L48.3915 36.2408L48.5948 36.2359L48.5919 36.1873V36.1814C48.5932 36.1752 48.5963 36.1695 48.6007 36.1649C48.6072 36.1574 48.6165 36.1527 48.6264 36.1518C48.6369 36.1504 48.6475 36.1521 48.6571 36.1566C48.6693 36.1629 48.6804 36.1713 48.6897 36.1814L48.9255 36.4134L48.9421 36.43L48.925 36.446L48.6872 36.6765C48.659 36.7028 48.6386 36.7091 48.6182 36.7043C48.6092 36.7017 48.6012 36.6962 48.5955 36.6888C48.5898 36.6814 48.5867 36.6723 48.5865 36.6629V36.6308L48.4343 36.624C48.402 36.6219 48.3716 36.608 48.3487 36.5851C48.3327 36.5683 48.3195 36.5489 48.3098 36.5277L48.0749 36.1425C48.0558 36.122 48.0448 36.0952 48.0438 36.0672C48.0428 36.0391 48.0519 36.0117 48.0696 35.9898L48.2276 35.7617L48.5384 35.9169C48.5846 35.9397 48.5841 35.9606 48.5651 35.9908Z" fill="#85583C"/>
<path d="M49.6813 35.1292H48.0224C47.9704 35.1264 47.9195 35.1441 47.8805 35.1785C47.8414 35.2128 47.8175 35.2612 47.8137 35.313V36.7799C47.8175 36.8317 47.8415 36.88 47.8805 36.9143C47.9195 36.9486 47.9705 36.9662 48.0224 36.9632H49.6837C49.7094 36.9649 49.7352 36.9615 49.7595 36.9532C49.7839 36.9449 49.8063 36.9318 49.8256 36.9148C49.8449 36.8977 49.8606 36.877 49.8718 36.8539C49.883 36.8307 49.8895 36.8056 49.8909 36.7799V35.313C49.8874 35.2613 49.8637 35.2131 49.825 35.1787C49.7862 35.1443 49.7355 35.1265 49.6837 35.1292H49.6813ZM49.7645 36.7565C49.7625 36.7839 49.7499 36.8094 49.7293 36.8275C49.7088 36.8457 49.6819 36.8551 49.6546 36.8538H48.0467C48.0192 36.8554 47.9922 36.8461 47.9715 36.8279C47.9508 36.8096 47.9382 36.784 47.9363 36.7565V35.3369C47.938 35.3093 47.9506 35.2836 47.9713 35.2654C47.992 35.2471 48.0191 35.2379 48.0467 35.2396H49.6546C49.682 35.2381 49.7089 35.2475 49.7294 35.2657C49.75 35.2839 49.7626 35.3095 49.7645 35.3369V36.7565Z" fill="#85583C"/>
<path d="M47.2277 36.7483H46.1456C46.1409 36.7491 46.1361 36.7489 46.1315 36.7476C46.1269 36.7464 46.1227 36.7442 46.119 36.7411C46.1154 36.7381 46.1125 36.7342 46.1105 36.7299C46.1085 36.7256 46.1074 36.7209 46.1074 36.7162C46.1074 36.7114 46.1085 36.7067 46.1105 36.7024C46.1125 36.6981 46.1154 36.6943 46.119 36.6912C46.1227 36.6882 46.1269 36.686 46.1315 36.6847C46.1361 36.6835 46.1409 36.6833 46.1456 36.6841H47.2277C47.2324 36.6833 47.2372 36.6835 47.2418 36.6847C47.2464 36.686 47.2507 36.6882 47.2543 36.6912C47.258 36.6943 47.2609 36.6981 47.2629 36.7024C47.2649 36.7067 47.2659 36.7114 47.2659 36.7162C47.2659 36.7209 47.2649 36.7256 47.2629 36.7299C47.2609 36.7342 47.258 36.7381 47.2543 36.7411C47.2507 36.7442 47.2464 36.7464 47.2418 36.7476C47.2372 36.7489 47.2324 36.7491 47.2277 36.7483Z" fill="#85583C"/>
<path fill-rule="evenodd" clip-rule="evenodd" d="M46.5211 35.5903V36.5489H46.292V35.5894H46.1797L46.4112 35.3438L46.6412 35.5903H46.5211Z" fill="#85583C"/>
<path fill-rule="evenodd" clip-rule="evenodd" d="M47.0829 35.5903V36.5489H46.8543V35.5894H46.7415L46.973 35.3438L47.203 35.5903H47.0829Z" fill="#85583C"/>
<path d="M47.5182 35.1292H45.8568C45.8049 35.1264 45.7539 35.1441 45.7149 35.1785C45.6759 35.2128 45.6519 35.2612 45.6482 35.313V36.7799C45.6519 36.8317 45.6759 36.88 45.715 36.9143C45.754 36.9486 45.8049 36.9662 45.8568 36.9632H47.5182C47.5439 36.9649 47.5696 36.9615 47.594 36.9532C47.6183 36.9449 47.6408 36.9318 47.6601 36.9148C47.6793 36.8977 47.695 36.877 47.7062 36.8539C47.7175 36.8307 47.724 36.8056 47.7254 36.7799V35.313C47.7219 35.2613 47.6982 35.2131 47.6594 35.1787C47.6207 35.1443 47.57 35.1265 47.5182 35.1292ZM47.6014 36.7565C47.5994 36.7839 47.5868 36.8094 47.5662 36.8275C47.5457 36.8457 47.5188 36.8551 47.4915 36.8538H45.8826C45.8551 36.8554 45.8281 36.8461 45.8074 36.8279C45.7867 36.8096 45.7741 36.784 45.7722 36.7565V35.3369C45.774 35.3093 45.7866 35.2836 45.8073 35.2654C45.828 35.2471 45.8551 35.2379 45.8826 35.2396H47.4905C47.5179 35.2381 47.5448 35.2475 47.5654 35.2657C47.5859 35.2839 47.5985 35.3095 47.6004 35.3369L47.6014 36.7565Z" fill="#85583C"/>
<path d="M78.3336 36.1816H61.8386V38.2656H78.3336V36.1816Z" fill="#ED8945"/>
<path d="M78.3336 23.5176H61.8386V37.1358H78.3336V23.5176Z" fill="#FFAD6E"/>
<path d="M72.2455 32.4668H67.9272V37.1357H72.2455V32.4668Z" fill="#FFC59E"/>
<path d="M72.2455 23.5176H67.9272V28.1865H72.2455V23.5176Z" fill="#FFC59E"/>
<path fill-rule="evenodd" clip-rule="evenodd" d="M66.2318 35.8433C66.2318 35.8433 66.2328 35.8462 66.2318 35.8433V35.8433ZM66.0023 36.2338H66.0383C66.0814 36.2349 66.1237 36.2215 66.1584 36.1959L66.2172 36.1215C66.2298 36.1087 66.2401 36.0939 66.2479 36.0777C66.2513 36.0709 66.2531 36.0634 66.2531 36.0558C66.2531 36.0482 66.2513 36.0407 66.2479 36.0339L66.1662 35.8997L66.154 35.8798L66.1764 35.8676L66.2148 35.8462L65.886 35.7932L65.781 36.0549L65.8184 36.0339L65.8432 36.0203L65.8593 36.0417L66.0023 36.2338ZM65.5913 36.2338H65.9318L65.8238 36.0879L65.7752 36.1142H65.7717H65.7688C65.7619 36.1157 65.7548 36.1157 65.7479 36.1142C65.7378 36.1135 65.7283 36.1092 65.7212 36.102C65.7148 36.0953 65.7112 36.0865 65.711 36.0772C65.711 36.0646 65.714 36.0521 65.7197 36.0408L65.8359 35.7489L65.8442 35.7285L65.869 35.7329L66.2236 35.7898C66.2649 35.7971 66.2829 35.8107 66.2868 35.8263C66.2907 35.8418 66.278 35.8593 66.261 35.8705L66.2299 35.8876L66.2999 36.0023C66.307 36.0148 66.311 36.0287 66.3116 36.043C66.3123 36.0572 66.3096 36.0715 66.3038 36.0845C66.2943 36.1059 66.2811 36.1255 66.2649 36.1424L65.9935 36.5091C65.9785 36.5358 65.9561 36.5577 65.929 36.5722C65.902 36.5866 65.8714 36.5931 65.8408 36.5908H65.531V36.2849C65.531 36.2455 65.5509 36.2358 65.5913 36.2338Z" fill="#85583C"/>
<path d="M64.9367 35.58C64.9367 35.58 64.9392 35.5781 64.9367 35.58V35.58ZM65.5043 35.5479L65.3988 35.7386L65.4508 35.758H65.4542H65.4571C65.4623 35.7619 65.4668 35.7667 65.4702 35.7721C65.4722 35.7762 65.4732 35.7806 65.4732 35.785C65.4732 35.7895 65.4722 35.7939 65.4702 35.7979C65.4663 35.8069 65.4595 35.8143 65.4508 35.8188C65.4381 35.8253 65.4245 35.8298 65.4104 35.832L65.0593 35.9059L65.035 35.9108L65.0252 35.8908L64.8905 35.6068C64.8754 35.5732 64.8793 35.5533 64.8905 35.5416C64.8989 35.5359 64.9087 35.5324 64.9188 35.5315C64.929 35.5307 64.9392 35.5325 64.9484 35.5367L64.9824 35.5499L65.0583 35.438C65.0776 35.4121 65.1062 35.3946 65.1381 35.3894C65.1639 35.3847 65.1902 35.3836 65.2164 35.386H65.6935L65.4824 35.4443L65.2222 35.44C65.2022 35.4373 65.1819 35.4373 65.1619 35.44C65.145 35.4423 65.1297 35.451 65.1191 35.4643L65.0301 35.5951L65.017 35.6146L64.9931 35.6053L64.9474 35.5902L65.0724 35.8538L65.3885 35.7872L65.3477 35.7721L65.3205 35.7614L65.3331 35.7386L65.4518 35.5251L65.5043 35.5479Z" fill="#85583C"/>
<path fill-rule="evenodd" clip-rule="evenodd" d="M65.6702 35.827L65.427 35.5079C65.3993 35.4721 65.359 35.4481 65.3142 35.4408L65.4737 35.3961L65.731 35.3873C65.8171 35.3824 65.8652 35.4077 65.8954 35.452L66.0637 35.6747L65.7602 35.8396C65.7116 35.8649 65.6916 35.8552 65.6683 35.827H65.6702Z" fill="#85583C"/>
<path fill-rule="evenodd" clip-rule="evenodd" d="M65.2912 36.6576C65.2912 36.6576 65.2878 36.6566 65.2912 36.6576V36.6576ZM65.0106 36.2914L64.9926 36.3176C64.9815 36.3329 64.9738 36.3503 64.9699 36.3687C64.9661 36.3872 64.9662 36.4062 64.9702 36.4246L65.0159 36.5058C65.0231 36.5223 65.033 36.5374 65.0451 36.5506C65.057 36.563 65.0731 36.5707 65.0903 36.572L65.2679 36.5802H65.2946V36.6026V36.642L65.5154 36.4285L65.3029 36.2189V36.2568V36.2821H65.2732L65.0106 36.2914ZM65.2192 35.9908L65.0456 36.2408L65.2489 36.2359V36.1873V36.1839V36.1814C65.25 36.1753 65.2529 36.1695 65.2572 36.1649C65.2639 36.1573 65.2733 36.1526 65.2834 36.1518C65.2937 36.1504 65.3042 36.1521 65.3136 36.1566C65.3259 36.1628 65.337 36.1712 65.3462 36.1814L65.5821 36.4134L65.5986 36.43L65.5821 36.446L65.3442 36.6765C65.3155 36.7028 65.2927 36.7091 65.2747 36.7043C65.2658 36.7015 65.2579 36.6961 65.2522 36.6887C65.2466 36.6812 65.2434 36.6722 65.2431 36.6629V36.6308L65.0913 36.624C65.059 36.6221 65.0284 36.6082 65.0057 36.5851C64.9895 36.5684 64.9763 36.549 64.9668 36.5277L64.7319 36.1425C64.7127 36.122 64.7016 36.0953 64.7005 36.0673C64.6995 36.0392 64.7085 36.0117 64.7261 35.9898L64.8841 35.7617L65.1949 35.9169C65.2392 35.9397 65.2392 35.9606 65.2192 35.9908Z" fill="#85583C"/>
<path d="M66.3358 35.1292H64.674C64.6221 35.1264 64.5712 35.1441 64.5322 35.1785C64.4933 35.2129 64.4694 35.2612 64.4658 35.313V36.7799C64.4694 36.8317 64.4933 36.8799 64.5323 36.9142C64.5712 36.9486 64.6221 36.9662 64.674 36.9632H66.3358C66.3615 36.9649 66.3873 36.9615 66.4116 36.9532C66.436 36.9449 66.4584 36.9318 66.4777 36.9148C66.497 36.8977 66.5127 36.877 66.5239 36.8539C66.5351 36.8307 66.5416 36.8056 66.543 36.7799V35.313C66.5395 35.2613 66.5158 35.2131 66.4771 35.1787C66.4383 35.1443 66.3876 35.1265 66.3358 35.1292ZM66.419 36.7565C66.417 36.7839 66.4044 36.8094 66.3838 36.8275C66.3633 36.8457 66.3365 36.8551 66.3091 36.8538H64.7007C64.6733 36.8554 64.6463 36.8461 64.6257 36.8278C64.6051 36.8096 64.5926 36.784 64.5908 36.7565V35.3369C64.5916 35.3233 64.5951 35.3099 64.6011 35.2977C64.607 35.2854 64.6154 35.2744 64.6256 35.2654C64.6358 35.2564 64.6477 35.2494 64.6606 35.245C64.6735 35.2406 64.6871 35.2387 64.7007 35.2396H66.3091C66.3365 35.2381 66.3634 35.2475 66.384 35.2657C66.4045 35.2839 66.4171 35.3095 66.419 35.3369V36.7565Z" fill="#85583C"/>
<path d="M63.8823 36.7483H62.8002C62.7955 36.7491 62.7907 36.7489 62.7861 36.7476C62.7815 36.7464 62.7772 36.7442 62.7736 36.7411C62.7699 36.7381 62.767 36.7342 62.765 36.7299C62.763 36.7256 62.762 36.7209 62.762 36.7162C62.762 36.7114 62.763 36.7067 62.765 36.7024C62.767 36.6981 62.7699 36.6943 62.7736 36.6912C62.7772 36.6882 62.7815 36.686 62.7861 36.6847C62.7907 36.6835 62.7955 36.6833 62.8002 36.6841H63.8823C63.887 36.6833 63.8918 36.6835 63.8964 36.6847C63.901 36.686 63.9052 36.6882 63.9089 36.6912C63.9125 36.6943 63.9154 36.6981 63.9174 36.7024C63.9194 36.7067 63.9205 36.7114 63.9205 36.7162C63.9205 36.7209 63.9194 36.7256 63.9174 36.7299C63.9154 36.7342 63.9125 36.7381 63.9089 36.7411C63.9052 36.7442 63.901 36.7464 63.8964 36.7476C63.8918 36.7489 63.887 36.7491 63.8823 36.7483Z" fill="#85583C"/>
<path fill-rule="evenodd" clip-rule="evenodd" d="M63.1756 35.5903V36.5489H62.9466V35.5894H62.8342L63.0657 35.3438L63.2958 35.5903H63.1756Z" fill="#85583C"/>
<path fill-rule="evenodd" clip-rule="evenodd" d="M63.7374 35.5903V36.5489H63.5083V35.5894H63.396L63.6275 35.3438L63.8575 35.5903H63.7374Z" fill="#85583C"/>
<path d="M64.1727 35.1292H62.5109C62.459 35.1264 62.408 35.1441 62.369 35.1785C62.33 35.2128 62.306 35.2612 62.3022 35.313V36.7799C62.306 36.8317 62.33 36.88 62.369 36.9143C62.408 36.9486 62.459 36.9662 62.5109 36.9632H64.1727C64.1984 36.9649 64.2242 36.9615 64.2485 36.9532C64.2729 36.9449 64.2953 36.9318 64.3146 36.9148C64.3339 36.8977 64.3496 36.877 64.3608 36.8539C64.372 36.8307 64.3785 36.8056 64.3799 36.7799V35.313C64.3764 35.2613 64.3527 35.2131 64.314 35.1787C64.2752 35.1443 64.2245 35.1265 64.1727 35.1292ZM64.2559 36.7565C64.2539 36.7839 64.2413 36.8094 64.2208 36.8275C64.2002 36.8457 64.1734 36.8551 64.146 36.8538H62.5376C62.5102 36.8554 62.4832 36.8461 62.4626 36.8278C62.442 36.8096 62.4295 36.784 62.4277 36.7565V35.3369C62.4285 35.3233 62.432 35.3099 62.438 35.2977C62.4439 35.2854 62.4523 35.2744 62.4625 35.2654C62.4727 35.2564 62.4846 35.2494 62.4975 35.245C62.5104 35.2406 62.524 35.2387 62.5376 35.2396H64.146C64.1734 35.2381 64.2003 35.2475 64.2209 35.2657C64.2415 35.2839 64.254 35.3095 64.2559 35.3369V36.7565Z" fill="#85583C"/>
<path d="M61.6796 37.2207H45.1846V50.839H61.6796V37.2207Z" fill="#FFAD6E"/>
<path d="M55.591 46.1699H51.2727V50.8389H55.591V46.1699Z" fill="#FFC59E"/>
<path d="M55.591 37.2207H51.2727V41.8897H55.591V37.2207Z" fill="#FFC59E"/>
<path fill-rule="evenodd" clip-rule="evenodd" d="M49.3492 49.9389H49.3847C49.4278 49.9396 49.4699 49.9263 49.5048 49.901L49.5642 49.8261C49.5766 49.8131 49.5868 49.7981 49.5943 49.7818C49.5977 49.775 49.5995 49.7675 49.5995 49.7599C49.5995 49.7523 49.5977 49.7448 49.5943 49.738L49.5121 49.6043L49.5 49.5844L49.5223 49.5722L49.5612 49.5508L49.232 49.4978L49.1274 49.7594L49.1649 49.7385L49.1897 49.7244L49.2057 49.7458L49.3492 49.9389ZM48.9382 49.9389H49.2787L49.1702 49.793L49.1216 49.8193H49.1182H49.1153C49.1083 49.8203 49.1013 49.8203 49.0943 49.8193C49.0843 49.8184 49.0748 49.8141 49.0676 49.8071C49.0609 49.8004 49.0571 49.7913 49.0569 49.7818C49.0572 49.7693 49.0602 49.7571 49.0656 49.7458L49.1819 49.454L49.1902 49.4336L49.215 49.4375L49.5695 49.4949C49.6108 49.5022 49.6288 49.5158 49.6332 49.5314C49.6376 49.5469 49.6245 49.5644 49.607 49.5756L49.5753 49.5931L49.6454 49.7079C49.6526 49.7203 49.6568 49.7342 49.6575 49.7485C49.6583 49.7628 49.6556 49.777 49.6497 49.7901C49.6401 49.8114 49.6269 49.831 49.6108 49.848L49.339 50.2147C49.3238 50.2413 49.3014 50.2631 49.2744 50.2776C49.2474 50.292 49.2168 50.2986 49.1863 50.2964H48.8745V49.9905C48.875 49.9481 48.8979 49.9375 48.9373 49.9375L48.9382 49.9389Z" fill="#85583C"/>
<path d="M48.2822 49.285C48.2822 49.285 48.2846 49.283 48.2822 49.285V49.285ZM48.8502 49.2529L48.7447 49.4435L48.7962 49.4635H48.8001C48.8056 49.4668 48.8101 49.4715 48.8133 49.4771C48.8152 49.4811 48.8162 49.4855 48.8162 49.49C48.8162 49.4944 48.8152 49.4988 48.8133 49.5029C48.8097 49.5119 48.8029 49.5193 48.7943 49.5238C48.7816 49.5307 48.7678 49.5354 48.7534 49.5374L48.4028 49.6108L48.378 49.6162L48.3687 49.5962L48.234 49.3122C48.2189 49.2786 48.2228 49.2582 48.234 49.247C48.2424 49.2413 48.2521 49.2377 48.2623 49.2368C48.2724 49.2358 48.2826 49.2375 48.2919 49.2417L48.3259 49.2548L48.4018 49.143C48.4212 49.1173 48.4495 49.1 48.4811 49.0943C48.5071 49.0899 48.5336 49.0887 48.5599 49.0909H49.037L48.8172 49.1449L48.557 49.14C48.5369 49.1374 48.5167 49.1374 48.4967 49.14C48.4799 49.1426 48.4646 49.1512 48.4539 49.1644L48.3653 49.2952L48.3522 49.3146L48.3279 49.3054L48.2861 49.2893L48.4111 49.5525L48.7272 49.4863L48.6863 49.4708L48.6591 49.4605L48.6717 49.4377L48.7899 49.2242L48.8502 49.2529Z" fill="#85583C"/>
<path fill-rule="evenodd" clip-rule="evenodd" d="M49.0157 49.5307L48.7725 49.2111C48.745 49.1753 48.7048 49.1513 48.6602 49.144L48.8192 49.0998L49.077 49.0905C49.1077 49.085 49.1394 49.0882 49.1684 49.0997C49.1975 49.1112 49.2227 49.1306 49.2413 49.1557L49.4091 49.378L49.1061 49.5433C49.0575 49.5686 49.0376 49.5584 49.0137 49.5307H49.0157Z" fill="#85583C"/>
<path fill-rule="evenodd" clip-rule="evenodd" d="M48.3566 49.9964L48.3386 50.0227C48.3274 50.0379 48.3196 50.0553 48.3157 50.0738C48.3119 50.0922 48.312 50.1113 48.3162 50.1297L48.3619 50.2104C48.369 50.2269 48.3789 50.242 48.3911 50.2552C48.403 50.2676 48.4191 50.2752 48.4363 50.2766L48.6138 50.2843H48.6401V50.3067V50.3456L48.8604 50.1321L48.6479 49.923V49.9609V49.9862H48.6182L48.3566 49.9964ZM48.5652 49.6959L48.3916 49.9458L48.5949 49.941L48.5919 49.8924V49.886C48.5934 49.88 48.5964 49.8745 48.6007 49.87C48.6074 49.8625 48.6165 49.8576 48.6265 49.8564C48.637 49.8552 48.6476 49.857 48.6571 49.8617C48.6694 49.868 48.6804 49.8764 48.6897 49.8865L48.9256 50.1185L48.9421 50.135L48.9251 50.1511L48.6873 50.3816C48.6591 50.4079 48.6386 50.4142 48.6182 50.4093C48.6092 50.4066 48.6013 50.4011 48.5956 50.3935C48.59 50.386 48.5868 50.3769 48.5866 50.3675V50.3359L48.4344 50.3291C48.4021 50.327 48.3716 50.3131 48.3488 50.2902C48.3328 50.2731 48.3197 50.2535 48.3099 50.2323L48.075 49.8476C48.0558 49.827 48.0448 49.8001 48.0438 49.772C48.0428 49.7439 48.052 49.7163 48.0696 49.6944L48.2277 49.4668L48.5385 49.6219C48.5847 49.6443 48.5842 49.6647 48.5652 49.6959Z" fill="#85583C"/>
<path d="M49.6813 48.8323H48.0224C47.9705 48.8295 47.9196 48.8471 47.8806 48.8814C47.8416 48.9157 47.8176 48.9639 47.8137 49.0157V50.483C47.8173 50.5349 47.8413 50.5833 47.8803 50.6177C47.9194 50.6521 47.9704 50.6698 48.0224 50.6668H49.6837C49.7094 50.6685 49.7352 50.6651 49.7595 50.6568C49.7839 50.6485 49.8063 50.6355 49.8256 50.6184C49.8449 50.6014 49.8606 50.5806 49.8718 50.5575C49.883 50.5343 49.8895 50.5092 49.8909 50.4835V49.0162C49.8895 48.9905 49.883 48.9653 49.8718 48.9422C49.8606 48.919 49.8449 48.8983 49.8256 48.8812C49.8063 48.8642 49.7839 48.8511 49.7595 48.8428C49.7352 48.8345 49.7094 48.8311 49.6837 48.8328L49.6813 48.8323ZM49.7645 50.4596C49.7625 50.487 49.7499 50.5125 49.7293 50.5307C49.7088 50.5488 49.6819 50.5583 49.6546 50.5569H48.0467C48.0192 50.5585 47.9922 50.5492 47.9715 50.531C47.9508 50.5128 47.9382 50.4871 47.9363 50.4596V49.0395C47.938 49.012 47.9506 48.9863 47.9713 48.968C47.992 48.9498 48.0191 48.9405 48.0467 48.9422H49.6546C49.682 48.9408 49.7089 48.9501 49.7294 48.9683C49.75 48.9865 49.7626 49.0121 49.7645 49.0395V50.4596Z" fill="#85583C"/>
<path d="M47.2277 50.4534H46.1456C46.1409 50.4542 46.1361 50.454 46.1315 50.4527C46.1269 50.4515 46.1227 50.4493 46.119 50.4462C46.1154 50.4431 46.1125 50.4393 46.1105 50.435C46.1085 50.4307 46.1074 50.426 46.1074 50.4213C46.1074 50.4165 46.1085 50.4118 46.1105 50.4075C46.1125 50.4032 46.1154 50.3994 46.119 50.3963C46.1227 50.3933 46.1269 50.391 46.1315 50.3898C46.1361 50.3886 46.1409 50.3883 46.1456 50.3892H47.2277C47.2324 50.3883 47.2372 50.3886 47.2418 50.3898C47.2464 50.391 47.2507 50.3933 47.2543 50.3963C47.258 50.3994 47.2609 50.4032 47.2629 50.4075C47.2649 50.4118 47.2659 50.4165 47.2659 50.4213C47.2659 50.426 47.2649 50.4307 47.2629 50.435C47.2609 50.4393 47.258 50.4431 47.2543 50.4462C47.2507 50.4493 47.2464 50.4515 47.2418 50.4527C47.2372 50.454 47.2324 50.4542 47.2277 50.4534Z" fill="#85583C"/>
<path fill-rule="evenodd" clip-rule="evenodd" d="M46.5211 49.293V50.2516H46.292V49.2925L46.1797 49.292L46.4112 49.0469L46.6412 49.2935L46.5211 49.293Z" fill="#85583C"/>
<path fill-rule="evenodd" clip-rule="evenodd" d="M47.0829 49.2949V50.2535H46.8543V49.2944L46.7415 49.2939L46.973 49.0488L47.203 49.2954L47.0829 49.2949Z" fill="#85583C"/>
<path d="M47.5182 48.8325H45.8568C45.805 48.8296 45.7541 48.8473 45.7151 48.8815C45.6761 48.9158 45.6521 48.964 45.6482 49.0158V50.4831C45.6519 50.535 45.6759 50.5832 45.715 50.6175C45.754 50.6518 45.8049 50.6694 45.8568 50.6665H47.5182C47.5439 50.6682 47.5696 50.6648 47.594 50.6565C47.6183 50.6482 47.6408 50.6351 47.6601 50.6181C47.6793 50.601 47.695 50.5803 47.7062 50.5571C47.7175 50.534 47.724 50.5088 47.7254 50.4831V49.0158C47.724 48.9901 47.7175 48.965 47.7062 48.9418C47.695 48.9186 47.6793 48.8979 47.6601 48.8809C47.6408 48.8638 47.6183 48.8508 47.594 48.8425C47.5696 48.8341 47.5439 48.8308 47.5182 48.8325ZM47.6014 50.4598C47.5994 50.4871 47.5868 50.5126 47.5662 50.5308C47.5457 50.549 47.5188 50.5584 47.4915 50.5571H45.8826C45.8551 50.5587 45.8281 50.5493 45.8074 50.5311C45.7867 50.5129 45.7741 50.4873 45.7722 50.4598V49.0396C45.774 49.0121 45.7866 48.9864 45.8073 48.9682C45.828 48.9499 45.8551 48.9406 45.8826 48.9424H47.4905C47.5179 48.9409 47.5448 48.9503 47.5654 48.9685C47.5859 48.9867 47.5985 49.0122 47.6004 49.0396L47.6014 50.4598Z" fill="#85583C"/>
<path d="M78.3336 37.2207H61.8386V50.839H78.3336V37.2207Z" fill="#FFAD6E"/>
<path d="M72.2455 46.1699H67.9272V50.8389H72.2455V46.1699Z" fill="#FFC59E"/>
<path d="M72.2455 37.2207H67.9272V41.8897H72.2455V37.2207Z" fill="#FFC59E"/>
<path fill-rule="evenodd" clip-rule="evenodd" d="M66.2318 49.5464C66.2318 49.5464 66.2328 49.5489 66.2318 49.5489V49.5464ZM66.0023 49.937H66.0383C66.0814 49.9376 66.1235 49.9243 66.1584 49.899L66.2172 49.8241C66.2297 49.811 66.24 49.7961 66.2479 49.7799C66.2513 49.7731 66.2531 49.7656 66.2531 49.758C66.2531 49.7504 66.2513 49.7429 66.2479 49.7361L66.1662 49.6023L66.154 49.5824L66.1764 49.5702L66.2148 49.5489L65.886 49.4958L65.781 49.7575L65.8184 49.7366L65.8432 49.7225L65.8593 49.7439L66.0023 49.937ZM65.5913 49.937H65.9318L65.8238 49.7911L65.7752 49.8173H65.7717H65.7688C65.7619 49.8183 65.7549 49.8183 65.7479 49.8173C65.7379 49.8165 65.7284 49.8122 65.7212 49.8052C65.7148 49.7982 65.7112 49.7893 65.711 49.7799C65.711 49.7674 65.714 49.755 65.7197 49.7439L65.8359 49.4521L65.8442 49.4316L65.869 49.4355L66.2236 49.4929C66.2649 49.5002 66.2829 49.5138 66.2868 49.5294C66.2907 49.545 66.278 49.5625 66.261 49.5737L66.2299 49.5912L66.2999 49.7059C66.307 49.7184 66.311 49.7323 66.3116 49.7466C66.3123 49.7609 66.3096 49.7751 66.3038 49.7881C66.2943 49.8095 66.2811 49.8291 66.2649 49.846L65.9935 50.2127C65.9783 50.2393 65.9559 50.261 65.9289 50.2755C65.9019 50.2899 65.8714 50.2965 65.8408 50.2944H65.531V49.9885C65.531 49.9486 65.5509 49.9379 65.5913 49.9379V49.937Z" fill="#85583C"/>
<path d="M64.9367 49.285C64.9367 49.285 64.9392 49.283 64.9367 49.285V49.285ZM65.5043 49.2529L65.3988 49.4435L65.4508 49.4634H65.4542H65.4571C65.4623 49.4671 65.4668 49.4717 65.4702 49.4771C65.4722 49.4811 65.4732 49.4855 65.4732 49.49C65.4732 49.4944 65.4722 49.4988 65.4702 49.5028C65.4666 49.512 65.4596 49.5194 65.4508 49.5238C65.4383 49.5307 65.4246 49.5353 65.4104 49.5374L65.0593 49.6108L65.035 49.6162L65.0252 49.5962L64.8905 49.3122C64.8754 49.2786 64.8793 49.2582 64.8905 49.247C64.8989 49.2412 64.9086 49.2376 64.9188 49.2367C64.9289 49.2358 64.9391 49.2375 64.9484 49.2417L64.9824 49.2548L65.0583 49.1429C65.0777 49.1172 65.1063 49.0998 65.1381 49.0943C65.1639 49.0899 65.1902 49.0887 65.2164 49.0909H65.6935L65.4736 49.1449L65.2135 49.14C65.1934 49.1374 65.1732 49.1374 65.1531 49.14C65.1363 49.1423 65.121 49.151 65.1103 49.1643L65.0213 49.2952L65.0082 49.3146L64.9844 49.3054L64.9421 49.2893L65.0671 49.5525L65.3832 49.4863L65.3423 49.4707L65.3151 49.4605L65.3277 49.4377L65.4464 49.2242L65.5043 49.2529Z" fill="#85583C"/>
<path fill-rule="evenodd" clip-rule="evenodd" d="M65.6702 49.5306L65.427 49.211C65.3993 49.1752 65.359 49.1512 65.3142 49.1439L65.4737 49.0997L65.731 49.0904C65.8171 49.0856 65.8652 49.1113 65.8954 49.1556L66.0637 49.3779L65.7602 49.5432C65.7116 49.5685 65.6916 49.5583 65.6683 49.5306H65.6702Z" fill="#85583C"/>
<path fill-rule="evenodd" clip-rule="evenodd" d="M65.0107 49.9969L64.9927 50.0232C64.9817 50.0384 64.9739 50.0558 64.9701 50.0743C64.9662 50.0927 64.9663 50.1118 64.9704 50.1302L65.0161 50.2109C65.0234 50.2273 65.0332 50.2424 65.0453 50.2557C65.0572 50.2681 65.0733 50.2757 65.0905 50.2771L65.268 50.2848H65.2948V50.3072V50.3461L65.5156 50.1326L65.303 49.9235V49.9614V49.9867H65.2734L65.0107 49.9969ZM65.2194 49.6964L65.0457 49.9463L65.249 49.9415V49.8929V49.8909V49.888C65.2503 49.882 65.2532 49.8764 65.2573 49.8719C65.2642 49.8644 65.2735 49.8596 65.2836 49.8583C65.2939 49.8572 65.3044 49.859 65.3137 49.8637C65.3261 49.8698 65.3371 49.8782 65.3463 49.8885L65.5822 50.1205L65.5987 50.137L65.5822 50.153L65.3444 50.3836C65.3157 50.4098 65.2928 50.4162 65.2748 50.4113C65.2659 50.4084 65.2581 50.4028 65.2524 50.3954C65.2468 50.3879 65.2435 50.3788 65.2432 50.3695V50.3379L65.0915 50.3311C65.0591 50.3291 65.0286 50.3153 65.0059 50.2921C64.9897 50.2752 64.9766 50.2556 64.967 50.2343L64.7321 49.8496C64.7129 49.8289 64.7018 49.8021 64.7008 49.774C64.6997 49.7459 64.7087 49.7184 64.7262 49.6964L64.8843 49.4688L65.1951 49.6239C65.2393 49.6448 65.2393 49.6652 65.2194 49.6964Z" fill="#85583C"/>
<path d="M66.3358 48.8323H64.674C64.6222 48.8295 64.5713 48.8471 64.5324 48.8814C64.4935 48.9157 64.4696 48.9639 64.4658 49.0157V50.483C64.4694 50.5348 64.4933 50.5831 64.5323 50.6174C64.5712 50.6517 64.6221 50.6693 64.674 50.6663H66.3358C66.3615 50.6681 66.3873 50.6647 66.4116 50.6563C66.436 50.648 66.4584 50.635 66.4777 50.6179C66.497 50.6009 66.5127 50.5802 66.5239 50.557C66.5351 50.5338 66.5416 50.5087 66.543 50.483V49.0157C66.5395 48.964 66.5158 48.9158 66.477 48.8815C66.4383 48.8472 66.3875 48.8295 66.3358 48.8323ZM66.419 50.4596C66.417 50.487 66.4044 50.5125 66.3838 50.5307C66.3633 50.5488 66.3365 50.5583 66.3091 50.5569H64.7007C64.6733 50.5585 64.6463 50.5492 64.6257 50.531C64.6051 50.5127 64.5926 50.4871 64.5908 50.4596V49.0395C64.5916 49.0259 64.5951 49.0126 64.6011 49.0003C64.607 48.988 64.6154 48.9771 64.6256 48.968C64.6358 48.959 64.6477 48.9521 64.6606 48.9476C64.6735 48.9432 64.6871 48.9414 64.7007 48.9422H66.3091C66.3365 48.9408 66.3634 48.9501 66.384 48.9683C66.4045 48.9865 66.4171 49.0121 66.419 49.0395V50.4596Z" fill="#85583C"/>
<path d="M63.8823 50.4534H62.8002C62.7955 50.4542 62.7907 50.454 62.7861 50.4527C62.7815 50.4515 62.7772 50.4493 62.7736 50.4462C62.7699 50.4431 62.767 50.4393 62.765 50.435C62.763 50.4307 62.762 50.426 62.762 50.4213C62.762 50.4165 62.763 50.4118 62.765 50.4075C62.767 50.4032 62.7699 50.3994 62.7736 50.3963C62.7772 50.3933 62.7815 50.391 62.7861 50.3898C62.7907 50.3886 62.7955 50.3883 62.8002 50.3892H63.8823C63.887 50.3883 63.8918 50.3886 63.8964 50.3898C63.901 50.391 63.9052 50.3933 63.9089 50.3963C63.9125 50.3994 63.9154 50.4032 63.9174 50.4075C63.9194 50.4118 63.9205 50.4165 63.9205 50.4213C63.9205 50.426 63.9194 50.4307 63.9174 50.435C63.9154 50.4393 63.9125 50.4431 63.9089 50.4462C63.9052 50.4493 63.901 50.4515 63.8964 50.4527C63.8918 50.454 63.887 50.4542 63.8823 50.4534Z" fill="#85583C"/>
<path fill-rule="evenodd" clip-rule="evenodd" d="M63.1756 49.293V50.2516H62.9466V49.2925L62.8342 49.292L63.0657 49.0469L63.2958 49.2935L63.1756 49.293Z" fill="#85583C"/>
<path fill-rule="evenodd" clip-rule="evenodd" d="M63.7374 49.2949V50.2535H63.5083V49.2944L63.396 49.2939L63.6275 49.0488L63.8575 49.2954L63.7374 49.2949Z" fill="#85583C"/>
<path d="M64.1727 48.8323H62.5109C62.459 48.8295 62.4081 48.8471 62.3691 48.8814C62.3301 48.9157 62.3061 48.9639 62.3022 49.0157V50.483C62.306 50.5348 62.33 50.5831 62.369 50.6174C62.408 50.6517 62.459 50.6693 62.5109 50.6663H64.1727C64.1984 50.6681 64.2242 50.6647 64.2485 50.6563C64.2729 50.648 64.2953 50.635 64.3146 50.6179C64.3339 50.6009 64.3496 50.5802 64.3608 50.557C64.372 50.5338 64.3785 50.5087 64.3799 50.483V49.0157C64.3764 48.964 64.3527 48.9158 64.3139 48.8815C64.2752 48.8472 64.2244 48.8295 64.1727 48.8323ZM64.2559 50.4596C64.2539 50.487 64.2413 50.5125 64.2208 50.5307C64.2002 50.5488 64.1734 50.5583 64.146 50.5569H62.5376C62.5102 50.5585 62.4832 50.5492 62.4626 50.531C62.442 50.5127 62.4295 50.4871 62.4277 50.4596V49.0395C62.4285 49.0259 62.432 49.0126 62.438 49.0003C62.4439 48.9881 62.4523 48.9771 62.4625 48.968C62.4727 48.959 62.4846 48.9521 62.4975 48.9476C62.5104 48.9432 62.524 48.9414 62.5376 48.9422H64.146C64.1734 48.9408 64.2003 48.9501 64.2209 48.9683C64.2415 48.9865 64.254 49.0121 64.2559 49.0395V50.4596Z" fill="#85583C"/>
</svg>
