<svg width="68" height="70" viewBox="0 0 68 70" fill="none" xmlns="http://www.w3.org/2000/svg">
<g style="mix-blend-mode:multiply">
<path d="M18.8569 68.9503C29.0408 68.9503 37.2964 68.5605 37.2964 68.0797C37.2964 67.5988 29.0408 67.209 18.8569 67.209C8.67311 67.209 0.41748 67.5988 0.41748 68.0797C0.41748 68.5605 8.67311 68.9503 18.8569 68.9503Z" fill="#CCE0F0"/>
</g>
<path d="M36.1386 67.3711H1.2356V68.0814H36.1386V67.3711Z" fill="#FFCFA8"/>
<path d="M36.1386 63.8789H1.2356V64.5892H36.1386V63.8789Z" fill="#FFCFA8"/>
<path d="M20.8263 64.5879H16.5476V67.3701H20.8263V64.5879Z" fill="#F09E5B"/>
<path d="M5.83534 64.5879H1.55664V67.3701H5.83534V64.5879Z" fill="#F09E5B"/>
<path d="M35.8175 64.5879H31.5388V67.3701H35.8175V64.5879Z" fill="#F09E5B"/>
<path d="M27.9432 12.5371H9.96631V14.4409H27.9432V12.5371Z" fill="#F7934F"/>
<path d="M27.9431 0.966797H12.876V13.4059H27.9431V0.966797Z" fill="#FFB778"/>
<path d="M22.101 9.14258H18.7175V13.4073H22.101V9.14258Z" fill="#FFCFA8"/>
<path d="M22.101 0.966797H18.7175V5.23155H22.101V0.966797Z" fill="#FFCFA8"/>
<path fill-rule="evenodd" clip-rule="evenodd" d="M16.1943 12.1115C16.1943 12.1115 16.1943 12.1107 16.1935 12.1111C16.1943 12.1127 16.1947 12.114 16.1943 12.1115ZM16.0258 12.4502H16.052C16.0881 12.4482 16.1172 12.4392 16.1402 12.4174L16.1836 12.3526C16.1918 12.3416 16.2017 12.3272 16.2066 12.3133C16.2107 12.3014 16.2119 12.2883 16.2058 12.2755L16.1455 12.1595L16.1365 12.1423L16.1529 12.1316L16.1812 12.1131L15.9396 12.0672L15.8625 12.2936L15.89 12.2755L15.9085 12.2636L15.9199 12.2821L16.0253 12.4498L16.0258 12.4502ZM15.7235 12.4502H15.9749L15.8953 12.3235L15.8605 12.3465L15.858 12.3481L15.8556 12.3489C15.851 12.3506 15.8457 12.3514 15.8404 12.3506C15.833 12.3498 15.826 12.3465 15.8207 12.3399C15.8162 12.3346 15.8133 12.3276 15.8129 12.3182C15.8129 12.3104 15.8145 12.3001 15.8195 12.2866L15.9048 12.0352L15.9109 12.0176L15.9294 12.0209L16.1902 12.0705C16.2206 12.077 16.2337 12.0885 16.237 12.1021C16.2407 12.1185 16.2304 12.1304 16.2177 12.1402L16.2165 12.1414L16.1935 12.1566L16.2452 12.2559C16.2571 12.2809 16.2558 12.3055 16.248 12.3272C16.2411 12.3469 16.2296 12.3637 16.2193 12.3772L16.0196 12.6951C15.9893 12.75 15.9515 12.7677 15.9072 12.7656H15.678V12.5007C15.678 12.4597 15.694 12.4511 15.7239 12.4494L15.7235 12.4502Z" fill="#6E4125"/>
<path d="M15.242 11.8868V11.8876C15.2432 11.886 15.244 11.8848 15.242 11.8868ZM15.6591 11.8589L15.5816 12.0242L15.6197 12.041L15.6226 12.0423L15.6246 12.0439C15.6283 12.0468 15.632 12.0509 15.6345 12.0558C15.6377 12.0623 15.6386 12.0697 15.6361 12.0779C15.6341 12.0845 15.6295 12.0906 15.6222 12.096C15.6156 12.1005 15.6062 12.1046 15.5922 12.1075L15.3343 12.1714L15.3162 12.1759L15.3092 12.1587L15.21 11.9127C15.1989 11.8835 15.2018 11.8663 15.2116 11.8565C15.2235 11.8446 15.2391 11.8466 15.2543 11.852L15.2559 11.8528L15.2809 11.8643L15.3367 11.7675C15.3515 11.7441 15.3728 11.7318 15.395 11.7265C15.4151 11.7215 15.4356 11.7224 15.4528 11.7236H15.8034L15.6418 11.7708L15.4507 11.7667H15.4495C15.436 11.7654 15.4196 11.765 15.4052 11.7683C15.3929 11.7712 15.3814 11.7773 15.3736 11.7896L15.3084 11.9032L15.2986 11.92L15.2809 11.9118L15.2502 11.8979L15.3421 12.1259L15.5742 12.0685L15.5442 12.055L15.5241 12.0459L15.5336 12.0263L15.6205 11.8413L15.6595 11.8593L15.6591 11.8589Z" fill="#6E4125"/>
<path fill-rule="evenodd" clip-rule="evenodd" d="M15.7815 12.0983L15.6043 11.8219C15.5818 11.7903 15.5559 11.7698 15.5215 11.7636L15.6384 11.7251L15.8278 11.7173C15.891 11.7132 15.9263 11.7353 15.9484 11.7735L16.0723 11.9662L15.8492 12.1093C15.8143 12.1311 15.7987 12.1225 15.7815 12.0983Z" fill="#6E4125"/>
<path fill-rule="evenodd" clip-rule="evenodd" d="M15.5033 12.8174H15.5042C15.5021 12.8174 15.5009 12.8169 15.5033 12.8174ZM15.2971 12.5003L15.2839 12.5229C15.2671 12.5549 15.2606 12.5848 15.2675 12.6156L15.3012 12.6857V12.6869C15.3069 12.6997 15.3139 12.7144 15.3233 12.7259C15.3315 12.7357 15.3422 12.7431 15.3565 12.7444L15.4873 12.7513L15.5066 12.7526L15.5074 12.7718L15.5091 12.8059L15.6711 12.6209L15.5148 12.4396L15.5165 12.4725L15.5177 12.4942L15.496 12.495L15.2975 12.5008L15.2971 12.5003ZM15.4504 12.2399L15.3229 12.4565L15.4722 12.4519L15.4701 12.4105V12.4077V12.4052C15.4709 12.4003 15.473 12.3954 15.4763 12.3913C15.4808 12.3855 15.4869 12.381 15.4956 12.3798C15.5025 12.3785 15.5099 12.3798 15.5181 12.3843C15.5251 12.388 15.5329 12.3949 15.5419 12.4056L15.7154 12.607L15.7277 12.6213L15.7154 12.6353L15.5407 12.835C15.5197 12.858 15.5029 12.8633 15.4898 12.8592C15.4738 12.8539 15.4685 12.8391 15.4664 12.8231V12.8215L15.4652 12.794L15.3537 12.7882C15.3262 12.7858 15.3057 12.7722 15.2905 12.7546C15.277 12.7386 15.2683 12.7202 15.2618 12.7046L15.0891 12.3712C15.0571 12.317 15.0612 12.2756 15.085 12.2387L15.2011 12.041L15.4295 12.1755C15.4648 12.1969 15.4644 12.2145 15.4504 12.2407V12.2399Z" fill="#6E4125"/>
<path d="M16.2707 11.4922H15.0494C14.9653 11.4922 14.896 11.564 14.896 11.6513V12.9222C14.896 13.01 14.9653 13.081 15.0494 13.081H16.2707C16.3544 13.081 16.4228 13.0096 16.4228 12.9222V11.6513C16.4228 11.564 16.3544 11.4922 16.2707 11.4922ZM16.3318 12.9017C16.3318 12.9477 16.2949 12.9858 16.251 12.9858H15.0691C15.0244 12.9858 14.9883 12.9473 14.9883 12.9017V11.6718C14.9883 11.6251 15.0244 11.5877 15.0691 11.5877H16.251C16.2949 11.5877 16.3318 11.6251 16.3318 11.6718V12.9017Z" fill="#6E4125"/>
<path d="M14.4673 12.8976H13.6717C13.6561 12.8976 13.6438 12.8853 13.6438 12.8697C13.6438 12.8541 13.6561 12.8418 13.6717 12.8418H14.4673C14.4829 12.8418 14.4952 12.8541 14.4952 12.8697C14.4952 12.8853 14.4829 12.8976 14.4673 12.8976Z" fill="#6E4125"/>
<path fill-rule="evenodd" clip-rule="evenodd" d="M13.9478 11.8929V12.7238H13.7792V11.8925H13.6968L13.867 11.6797L14.0359 11.8934L13.9478 11.8929Z" fill="#6E4125"/>
<path fill-rule="evenodd" clip-rule="evenodd" d="M14.3606 11.8934V12.7238H14.1921V11.8925H14.1096L14.2798 11.6797L14.4488 11.8934H14.3606Z" fill="#6E4125"/>
<path d="M14.6806 11.4922H13.4593C13.3752 11.4922 13.3059 11.564 13.3059 11.6513V12.9222C13.3059 13.01 13.3752 13.081 13.4593 13.081H14.6806C14.7643 13.081 14.8328 13.0096 14.8328 12.9222V11.6513C14.8328 11.564 14.7643 11.4922 14.6806 11.4922ZM14.7417 12.9017C14.7417 12.9477 14.7048 12.9858 14.6609 12.9858H13.479C13.4343 12.9858 13.3982 12.9473 13.3982 12.9017V11.6718C13.3982 11.6251 13.4343 11.5877 13.479 11.5877H14.6609C14.7048 11.5877 14.7417 11.6251 14.7417 11.6718V12.9017Z" fill="#6E4125"/>
<path d="M17.861 11.4922H16.6397C16.5556 11.4922 16.4863 11.564 16.4863 11.6513V12.9222C16.4863 13.01 16.5556 13.081 16.6397 13.081H17.861C17.9447 13.081 18.0132 13.0096 18.0132 12.9222V11.6513C18.0132 11.564 17.9447 11.4922 17.861 11.4922ZM17.9221 12.9017C17.9221 12.9477 17.8856 12.9858 17.8413 12.9858H16.659C16.6143 12.9858 16.5782 12.9473 16.5782 12.9017V11.6718C16.5782 11.6251 16.6143 11.5877 16.659 11.5877H17.8413C17.8852 11.5877 17.9221 11.6251 17.9221 11.6718V12.9017Z" fill="#6E4125"/>
<path fill-rule="evenodd" clip-rule="evenodd" d="M17.2426 11.9043C16.9818 11.9043 16.7636 12.0852 16.7058 12.3284C16.7255 12.3083 16.7608 12.2951 16.8001 12.2951C16.8588 12.2951 16.9072 12.3243 16.9117 12.3612C16.9174 12.3251 16.965 12.2968 17.0232 12.2968C17.0815 12.2968 17.1303 12.3259 17.1348 12.3628C17.1405 12.3263 17.1881 12.298 17.2463 12.298C17.3046 12.298 17.3534 12.3271 17.3579 12.364C17.3636 12.3275 17.4112 12.2992 17.4694 12.2992C17.5277 12.2992 17.5773 12.3288 17.5814 12.3665C17.5851 12.3292 17.6339 12.2992 17.6934 12.2992C17.7274 12.2992 17.7577 12.3091 17.7783 12.3243C17.7192 12.0831 17.5018 11.9043 17.2426 11.9043Z" fill="#6E4125"/>
<path d="M17.2757 11.875C17.2757 11.8611 17.2642 11.8496 17.2503 11.8496C17.2363 11.8496 17.2249 11.8611 17.2249 11.875L17.2236 12.8011C17.2236 12.815 17.2351 12.8265 17.2491 12.8265C17.263 12.8265 17.2745 12.815 17.2745 12.8011L17.2757 11.875Z" fill="#6E4125"/>
<path d="M17.086 12.743C17.0962 12.7332 17.0962 12.7168 17.086 12.7069C17.0761 12.6967 17.0597 12.6967 17.0499 12.7069C17.024 12.7323 17.0105 12.7664 17.0105 12.8C17.0105 12.834 17.0228 12.8677 17.0482 12.8939C17.0737 12.9198 17.1077 12.9333 17.1413 12.9333C17.175 12.9333 17.209 12.921 17.2352 12.8956C17.248 12.8828 17.2578 12.8681 17.2648 12.8517C17.2713 12.8357 17.275 12.818 17.2746 12.8C17.2746 12.7861 17.2631 12.7746 17.2488 12.7746C17.2348 12.7746 17.2233 12.7861 17.2233 12.8004C17.2233 12.8115 17.2213 12.8221 17.2172 12.8324C17.2131 12.8422 17.2069 12.8513 17.1991 12.8591C17.1832 12.8746 17.1622 12.8824 17.1417 12.8824C17.1212 12.8824 17.1003 12.8742 17.0847 12.8582C17.0691 12.8422 17.0614 12.8213 17.0614 12.8008C17.0614 12.7803 17.0696 12.7594 17.0855 12.7438L17.086 12.743Z" fill="#6E4125"/>
<path d="M12.8761 0.966797H9.96631V13.4059H12.8761V0.966797Z" fill="#F59153"/>
<path d="M35.3567 25.1758H17.3799V27.0795H35.3567V25.1758Z" fill="#F7934F"/>
<path d="M35.3564 13.6055H20.2893V26.0446H35.3564V13.6055Z" fill="#FFB778"/>
<path d="M29.5148 21.7812H26.1313V26.046H29.5148V21.7812Z" fill="#FFCFA8"/>
<path d="M29.5148 13.6055H26.1313V17.8702H29.5148V13.6055Z" fill="#FFCFA8"/>
<path fill-rule="evenodd" clip-rule="evenodd" d="M23.6079 24.7521C23.6079 24.7521 23.6079 24.7513 23.6071 24.7517C23.6079 24.7533 23.6083 24.7546 23.6079 24.7521ZM23.4393 25.0909H23.4656C23.5017 25.0888 23.5308 25.0798 23.5538 25.0581L23.5972 24.9933C23.6054 24.9822 23.6153 24.9678 23.6202 24.9539C23.6243 24.942 23.6255 24.9289 23.6194 24.9162L23.5591 24.8001L23.5501 24.7829L23.5665 24.7722L23.5948 24.7538L23.3532 24.7078L23.2761 24.9342L23.3036 24.9162L23.322 24.9043L23.3335 24.9227L23.4389 25.0905L23.4393 25.0909ZM23.1371 25.0909H23.3885L23.3089 24.9641L23.2741 24.9871L23.2716 24.9888L23.2691 24.9896C23.2646 24.9912 23.2593 24.992 23.254 24.9912C23.2466 24.9904 23.2396 24.9871 23.2343 24.9806C23.2298 24.9752 23.2269 24.9682 23.2265 24.9588C23.2265 24.951 23.2281 24.9408 23.233 24.9272L23.3183 24.6758L23.3245 24.6582L23.343 24.6615L23.6038 24.7111C23.6341 24.7177 23.6473 24.7292 23.6505 24.7427C23.6542 24.7591 23.644 24.771 23.6313 24.7808L23.63 24.7821L23.6071 24.7972L23.6587 24.8965C23.6706 24.9215 23.6694 24.9461 23.6616 24.9678C23.6546 24.9875 23.6432 25.0043 23.6329 25.0179L23.4332 25.3357C23.4028 25.3907 23.3651 25.4083 23.3208 25.4062H23.0916V25.1413C23.0916 25.1003 23.1075 25.0917 23.1375 25.0905L23.1371 25.0909Z" fill="#6E4125"/>
<path d="M22.6556 24.5235C22.6556 24.5235 22.6552 24.5244 22.6556 24.5244C22.6569 24.5227 22.6577 24.5215 22.6556 24.5235ZM23.0731 24.4957L22.9956 24.6609L23.0338 24.6777L23.0366 24.679L23.0387 24.6806C23.0424 24.6835 23.0461 24.6876 23.0485 24.6925C23.0518 24.6991 23.0526 24.7064 23.0502 24.7146C23.0481 24.7212 23.0436 24.7274 23.0362 24.7327C23.0297 24.7372 23.0202 24.7413 23.0063 24.7442L22.7483 24.8082L22.7303 24.8127L22.7233 24.7954L22.6241 24.5494C22.613 24.5203 22.6159 24.503 22.6257 24.4932C22.6376 24.4813 22.6532 24.4833 22.6683 24.4887L22.67 24.4895L22.695 24.501L22.7508 24.4042C22.7655 24.3808 22.7869 24.3685 22.809 24.3632C22.8291 24.3583 22.8496 24.3591 22.8668 24.3603H23.2175L23.0559 24.4075L22.8648 24.4034H22.8636C22.85 24.4021 22.8336 24.4017 22.8193 24.405C22.807 24.4079 22.7955 24.414 22.7877 24.4263L22.7225 24.5399L22.7126 24.5568L22.695 24.5486L22.6642 24.5346L22.7561 24.7626L22.9882 24.7052L22.9583 24.6917L22.9382 24.6827L22.9476 24.663L23.0346 24.478L23.0735 24.4961L23.0731 24.4957Z" fill="#6E4125"/>
<path fill-rule="evenodd" clip-rule="evenodd" d="M23.1948 24.7389L23.0177 24.4625C22.9951 24.4309 22.9693 24.4104 22.9348 24.4043L23.0517 24.3657L23.2412 24.3579C23.3043 24.3538 23.3396 24.376 23.3617 24.4141L23.4856 24.6068L23.2625 24.75C23.2276 24.7717 23.2121 24.7631 23.1948 24.7389Z" fill="#6E4125"/>
<path fill-rule="evenodd" clip-rule="evenodd" d="M22.9164 25.4584H22.9172C22.9152 25.4584 22.914 25.458 22.9164 25.4584ZM22.7101 25.1414L22.697 25.1639C22.6802 25.1959 22.6736 25.2259 22.6806 25.2566L22.7142 25.3267V25.328C22.72 25.3407 22.727 25.3555 22.7364 25.3669C22.7446 25.3764 22.7553 25.3842 22.7696 25.3854L22.9004 25.3924L22.9197 25.3936L22.9205 25.4129L22.9222 25.4465L23.0842 25.2615L22.9279 25.0803L22.9296 25.1131L22.9308 25.1348L22.909 25.1356L22.7106 25.1414H22.7101ZM22.8635 24.881L22.736 25.0975L22.8853 25.093L22.8832 25.0516V25.0487V25.0462C22.884 25.0413 22.8861 25.0364 22.8894 25.0323C22.8939 25.0265 22.9 25.022 22.9086 25.0208C22.9156 25.0196 22.923 25.0208 22.9312 25.0253C22.9382 25.029 22.946 25.036 22.955 25.0466L23.1285 25.248L23.1408 25.2624L23.1285 25.2763L22.9537 25.476C22.9328 25.499 22.916 25.5043 22.9029 25.5002C22.8869 25.4949 22.8816 25.4801 22.8795 25.4641V25.4625L22.8783 25.435L22.7667 25.4289C22.7393 25.4264 22.7188 25.4129 22.7036 25.3952C22.69 25.3792 22.6814 25.3608 22.6749 25.3452L22.5022 25.0118C22.4702 24.9576 22.4743 24.9162 22.4981 24.8793L22.6142 24.6816L22.8426 24.8162C22.8779 24.8375 22.8771 24.8551 22.8635 24.8814V24.881Z" fill="#6E4125"/>
<path d="M23.6843 24.1328H22.463C22.3789 24.1328 22.3096 24.2046 22.3096 24.2919V25.5629C22.3096 25.6506 22.3789 25.7216 22.463 25.7216H23.6843C23.7679 25.7216 23.8364 25.6502 23.8364 25.5629V24.2919C23.8364 24.2046 23.7679 24.1328 23.6843 24.1328ZM23.7454 25.5424C23.7454 25.5883 23.7089 25.6264 23.6646 25.6264H22.4826C22.4379 25.6264 22.4018 25.5879 22.4018 25.5424V24.3124C22.4018 24.2657 22.4379 24.2284 22.4826 24.2284H23.6646C23.7085 24.2284 23.7454 24.2657 23.7454 24.3124V25.5424Z" fill="#6E4125"/>
<path d="M21.8809 25.5382H21.0853C21.0697 25.5382 21.0574 25.5259 21.0574 25.5103C21.0574 25.4947 21.0697 25.4824 21.0853 25.4824H21.8809C21.8965 25.4824 21.9088 25.4947 21.9088 25.5103C21.9088 25.5259 21.8965 25.5382 21.8809 25.5382Z" fill="#6E4125"/>
<path fill-rule="evenodd" clip-rule="evenodd" d="M21.3613 24.5336V25.3645H21.1928V24.5332L21.1104 24.5328L21.2805 24.3203L21.4495 24.534L21.3613 24.5336Z" fill="#6E4125"/>
<path fill-rule="evenodd" clip-rule="evenodd" d="M21.7738 24.534V25.3645H21.6056V24.5332H21.5232L21.6934 24.3203L21.8624 24.534H21.7738Z" fill="#6E4125"/>
<path d="M22.0942 24.1328H20.8729C20.7888 24.1328 20.7195 24.2046 20.7195 24.2919V25.5629C20.7195 25.6506 20.7888 25.7216 20.8729 25.7216H22.0942C22.1778 25.7216 22.2463 25.6502 22.2463 25.5629V24.2919C22.2463 24.2046 22.1778 24.1328 22.0942 24.1328ZM22.1553 25.5424C22.1553 25.5883 22.1184 25.6264 22.0745 25.6264H20.8925C20.8478 25.6264 20.8118 25.5879 20.8118 25.5424V24.3124C20.8118 24.2657 20.8478 24.2284 20.8925 24.2284H22.0745C22.1184 24.2284 22.1553 24.2657 22.1553 24.3124V25.5424Z" fill="#6E4125"/>
<path d="M25.2741 24.1328H24.0528C23.9687 24.1328 23.8994 24.2046 23.8994 24.2919V25.5629C23.8994 25.6506 23.9687 25.7216 24.0528 25.7216H25.2741C25.3578 25.7216 25.4263 25.6502 25.4263 25.5629V24.2919C25.4263 24.2046 25.3578 24.1328 25.2741 24.1328ZM25.3352 25.5424C25.3352 25.5883 25.2987 25.6264 25.2544 25.6264H24.0721C24.0274 25.6264 23.9913 25.5879 23.9913 25.5424V24.3124C23.9913 24.2657 24.0274 24.2284 24.0721 24.2284H25.2544C25.2983 24.2284 25.3352 24.2657 25.3352 24.3124V25.5424Z" fill="#6E4125"/>
<path fill-rule="evenodd" clip-rule="evenodd" d="M24.656 24.5449C24.3951 24.5449 24.177 24.7258 24.1191 24.969C24.1388 24.9489 24.1741 24.9358 24.2135 24.9358C24.2721 24.9358 24.3205 24.9649 24.325 25.0018C24.3308 24.9657 24.3783 24.9374 24.4366 24.9374C24.4948 24.9374 24.5436 24.9665 24.5481 25.0034C24.5539 24.9669 24.6014 24.9386 24.6597 24.9386C24.7179 24.9386 24.7667 24.9677 24.7712 25.0047C24.777 24.9682 24.8245 24.9399 24.8828 24.9399C24.941 24.9399 24.9906 24.9694 24.9947 25.0071C24.9984 24.9698 25.0472 24.9399 25.1067 24.9399C25.1407 24.9399 25.1711 24.9497 25.1916 24.9649C25.1325 24.7237 24.9152 24.5449 24.656 24.5449Z" fill="#6E4125"/>
<path d="M24.6893 24.5157C24.6893 24.5017 24.6778 24.4902 24.6639 24.4902C24.6499 24.4902 24.6384 24.5017 24.6384 24.5157L24.6372 25.4417C24.6372 25.4556 24.6487 25.4671 24.6626 25.4671C24.6766 25.4671 24.6881 25.4556 24.6881 25.4417L24.6893 24.5157Z" fill="#6E4125"/>
<path d="M24.499 25.3836C24.5093 25.3738 24.5093 25.3574 24.499 25.3475C24.4892 25.3373 24.4728 25.3373 24.463 25.3475C24.4371 25.373 24.4236 25.407 24.4236 25.4406C24.4236 25.4747 24.4359 25.5083 24.4613 25.5345C24.4867 25.5604 24.5208 25.5739 24.5544 25.5739C24.588 25.5739 24.6221 25.5616 24.6483 25.5362C24.661 25.5235 24.6709 25.5087 24.6779 25.4923C24.6844 25.4763 24.6881 25.4587 24.6877 25.4406C24.6877 25.4267 24.6762 25.4152 24.6619 25.4152C24.6479 25.4152 24.6364 25.4267 24.6364 25.441C24.6364 25.4521 24.6344 25.4628 24.6303 25.473C24.6262 25.4829 24.62 25.4919 24.6122 25.4997C24.5962 25.5153 24.5753 25.5231 24.5548 25.5231C24.5343 25.5231 24.5134 25.5149 24.4978 25.4989C24.4822 25.4829 24.4744 25.462 24.4744 25.4415C24.4744 25.4209 24.4826 25.4 24.4986 25.3844L24.499 25.3836Z" fill="#6E4125"/>
<path d="M20.2896 13.6055H17.3799V26.0446H20.2896V13.6055Z" fill="#F59153"/>
<path d="M19.9817 25.1758H2.00488V27.0795H19.9817V25.1758Z" fill="#F7934F"/>
<path d="M19.9817 13.6055H4.91455V26.0446H19.9817V13.6055Z" fill="#FFB778"/>
<path d="M14.14 21.7812H10.7566V26.046H14.14V21.7812Z" fill="#FFCFA8"/>
<path d="M14.14 13.6055H10.7566V17.8702H14.14V13.6055Z" fill="#FFCFA8"/>
<path fill-rule="evenodd" clip-rule="evenodd" d="M8.23313 24.7521C8.23313 24.7521 8.23313 24.7513 8.23231 24.7517C8.23313 24.7533 8.23354 24.7546 8.23313 24.7521ZM8.06457 25.0909H8.09082C8.12691 25.0888 8.15603 25.0798 8.17899 25.0581L8.22246 24.9933C8.23067 24.9822 8.24051 24.9678 8.24543 24.9539C8.24953 24.942 8.25076 24.9289 8.24461 24.9162L8.18432 24.8001L8.1753 24.7829L8.19171 24.7722L8.22 24.7538L7.97845 24.7078L7.90135 24.9342L7.92883 24.9162L7.94728 24.9043L7.95876 24.9227L8.06416 25.0905L8.06457 25.0909ZM7.76232 25.0909H8.01372L7.93416 24.9641L7.8993 24.9871L7.89684 24.9888L7.89437 24.9896C7.88986 24.9912 7.88453 24.992 7.8792 24.9912C7.87182 24.9904 7.86485 24.9871 7.85952 24.9806C7.85501 24.9752 7.85213 24.9682 7.85172 24.9588C7.85172 24.951 7.85336 24.9408 7.85829 24.9272L7.94359 24.6758L7.94974 24.6582L7.9682 24.6615L8.22903 24.7111C8.25937 24.7177 8.2725 24.7292 8.27578 24.7427C8.27947 24.7591 8.26922 24.771 8.2565 24.7808L8.25527 24.7821L8.23231 24.7972L8.28398 24.8965C8.29587 24.9215 8.29464 24.9461 8.28685 24.9678C8.27988 24.9875 8.2684 25.0043 8.25815 25.0179L8.05842 25.3357C8.02807 25.3907 7.99034 25.4083 7.94605 25.4062H7.7168V25.1413C7.7168 25.1003 7.73279 25.0917 7.76273 25.0905L7.76232 25.0909Z" fill="#6E4125"/>
<path d="M7.2808 24.5235C7.2808 24.5235 7.28039 24.5244 7.2808 24.5244C7.28203 24.5227 7.28285 24.5215 7.2808 24.5235ZM7.69789 24.4957L7.62037 24.6609L7.65851 24.6777L7.66139 24.679L7.66344 24.6806C7.66713 24.6835 7.67082 24.6876 7.67328 24.6925C7.67656 24.6991 7.67738 24.7064 7.67492 24.7146C7.67287 24.7212 7.66836 24.7274 7.66097 24.7327C7.65441 24.7372 7.64498 24.7413 7.63104 24.7442L7.37308 24.8082L7.35503 24.8127L7.34806 24.7954L7.24881 24.5494C7.23774 24.5203 7.24061 24.503 7.25045 24.4932C7.26235 24.4813 7.27793 24.4833 7.29311 24.4887L7.29474 24.4895L7.31976 24.501L7.37554 24.4042C7.3903 24.3808 7.41163 24.3685 7.43377 24.3632C7.45428 24.3583 7.47437 24.3591 7.4916 24.3603H7.84224L7.68066 24.4075L7.48955 24.4034H7.48832C7.47478 24.4021 7.45838 24.4017 7.44403 24.405C7.43172 24.4079 7.42024 24.414 7.41245 24.4263L7.34724 24.5399L7.3374 24.5568L7.31976 24.5486L7.289 24.5346L7.38087 24.7626L7.61299 24.7052L7.58305 24.6917L7.56296 24.6827L7.57239 24.663L7.65934 24.478L7.6983 24.4961L7.69789 24.4957Z" fill="#6E4125"/>
<path fill-rule="evenodd" clip-rule="evenodd" d="M7.81983 24.7389L7.64266 24.4625C7.61969 24.4309 7.59426 24.4104 7.55981 24.4043L7.6767 24.3657L7.86617 24.3579C7.92932 24.3538 7.96459 24.376 7.98674 24.4141L8.11059 24.6068L7.88749 24.75C7.85263 24.7717 7.83705 24.7631 7.81983 24.7389Z" fill="#6E4125"/>
<path fill-rule="evenodd" clip-rule="evenodd" d="M7.54167 25.4584H7.54249C7.54044 25.4584 7.53921 25.458 7.54167 25.4584ZM7.33539 25.1414L7.32226 25.1639C7.30545 25.1959 7.29889 25.2259 7.30586 25.2566L7.33949 25.3267V25.328C7.34523 25.3407 7.3522 25.3555 7.36163 25.3669C7.36983 25.3764 7.3805 25.3842 7.39485 25.3854L7.52568 25.3924L7.54495 25.3936L7.54577 25.4129L7.54741 25.4465L7.70941 25.2615L7.55316 25.0803L7.55479 25.1131L7.55603 25.1348L7.53429 25.1356L7.3358 25.1414H7.33539ZM7.48877 24.881L7.36122 25.0975L7.5105 25.093L7.50845 25.0516V25.0487V25.0462C7.50927 25.0413 7.51132 25.0364 7.5146 25.0323C7.51912 25.0265 7.52527 25.022 7.53388 25.0208C7.54085 25.0196 7.54823 25.0208 7.55644 25.0253C7.56341 25.029 7.5712 25.036 7.58022 25.0466L7.7537 25.248L7.766 25.2624L7.7537 25.2763L7.57899 25.476C7.55808 25.499 7.54126 25.5043 7.52814 25.5002C7.51214 25.4949 7.50681 25.4801 7.50476 25.4641V25.4625L7.50353 25.435L7.39198 25.4289C7.3645 25.4264 7.344 25.4129 7.32882 25.3952C7.31529 25.3792 7.30668 25.3608 7.30012 25.3452L7.12746 25.0118C7.09547 24.9576 7.09957 24.9162 7.12336 24.8793L7.23942 24.6816L7.46785 24.8162C7.50312 24.8375 7.50271 24.8551 7.48877 24.8814V24.881Z" fill="#6E4125"/>
<path d="M8.30951 24.1328H7.0882C7.00412 24.1328 6.93481 24.2046 6.93481 24.2919V25.5629C6.93481 25.6506 7.00412 25.7216 7.0882 25.7216H8.30951C8.39317 25.7216 8.46166 25.6502 8.46166 25.5629V24.2919C8.46166 24.2046 8.39317 24.1328 8.30951 24.1328ZM8.37062 25.5424C8.37062 25.5883 8.33412 25.6264 8.28983 25.6264H7.10788C7.06318 25.6264 7.02709 25.5879 7.02709 25.5424V24.3124C7.02709 24.2657 7.06318 24.2284 7.10788 24.2284H8.28983C8.33371 24.2284 8.37062 24.2657 8.37062 24.3124V25.5424Z" fill="#6E4125"/>
<path d="M6.50563 25.5382H5.71002C5.69443 25.5382 5.68213 25.5259 5.68213 25.5103C5.68213 25.4947 5.69443 25.4824 5.71002 25.4824H6.50563C6.52122 25.4824 6.53352 25.4947 6.53352 25.5103C6.53352 25.5259 6.52122 25.5382 6.50563 25.5382Z" fill="#6E4125"/>
<path fill-rule="evenodd" clip-rule="evenodd" d="M5.98593 24.5336V25.3645H5.81778V24.5332L5.73535 24.5328L5.90514 24.3203L6.07451 24.534L5.98593 24.5336Z" fill="#6E4125"/>
<path fill-rule="evenodd" clip-rule="evenodd" d="M6.39894 24.534V25.3645H6.23079V24.5332H6.14795L6.31815 24.3203L6.48711 24.534H6.39894Z" fill="#6E4125"/>
<path d="M6.71942 24.1328H5.49811C5.41404 24.1328 5.34473 24.2046 5.34473 24.2919V25.5629C5.34473 25.6506 5.41404 25.7216 5.49811 25.7216H6.71942C6.80309 25.7216 6.87157 25.6502 6.87157 25.5629V24.2919C6.87157 24.2046 6.80309 24.1328 6.71942 24.1328ZM6.78053 25.5424C6.78053 25.5883 6.74362 25.6264 6.69974 25.6264H5.51779C5.47309 25.6264 5.437 25.5879 5.437 25.5424V24.3124C5.437 24.2657 5.47309 24.2284 5.51779 24.2284H6.69974C6.74362 24.2284 6.78053 24.2657 6.78053 24.3124V25.5424Z" fill="#6E4125"/>
<path d="M9.89935 24.1328H8.67804C8.59397 24.1328 8.52466 24.2046 8.52466 24.2919V25.5629C8.52466 25.6506 8.59397 25.7216 8.67804 25.7216H9.89935C9.98302 25.7216 10.0515 25.6502 10.0515 25.5629V24.2919C10.0515 24.2046 9.98302 24.1328 9.89935 24.1328ZM9.96046 25.5424C9.96046 25.5883 9.92396 25.6264 9.87967 25.6264H8.69773C8.65302 25.6264 8.61693 25.5879 8.61693 25.5424V24.3124C8.61693 24.2657 8.65302 24.2284 8.69773 24.2284H9.87967C9.92355 24.2284 9.96046 24.2657 9.96046 24.3124V25.5424Z" fill="#6E4125"/>
<path fill-rule="evenodd" clip-rule="evenodd" d="M9.28122 24.5449C9.02039 24.5449 8.80221 24.7258 8.74438 24.969C8.76448 24.9489 8.79934 24.9358 8.83871 24.9358C8.89736 24.9358 8.94575 24.9649 8.95026 25.0018C8.956 24.9657 9.00358 24.9374 9.06181 24.9374C9.12005 24.9374 9.16885 24.9665 9.17336 25.0034C9.1791 24.9669 9.22668 24.9386 9.28491 24.9386C9.34315 24.9386 9.39195 24.9677 9.39646 25.0047C9.4022 24.9682 9.44978 24.9399 9.50801 24.9399C9.56625 24.9399 9.61587 24.9694 9.61997 25.0071C9.62367 24.9698 9.67247 24.9399 9.73193 24.9399C9.76597 24.9399 9.79632 24.9497 9.81683 24.9649C9.75777 24.7237 9.54041 24.5449 9.28122 24.5449Z" fill="#6E4125"/>
<path d="M9.31405 24.5157C9.31405 24.5017 9.30256 24.4902 9.28862 24.4902C9.27468 24.4902 9.26319 24.5017 9.26319 24.5157L9.26196 25.4417C9.26196 25.4556 9.27345 25.4671 9.28739 25.4671C9.30133 25.4671 9.31282 25.4556 9.31282 25.4417L9.31405 24.5157Z" fill="#6E4125"/>
<path d="M9.12429 25.3836C9.13454 25.3738 9.13454 25.3574 9.12429 25.3475C9.11445 25.3373 9.09804 25.3373 9.0882 25.3475C9.06236 25.373 9.04883 25.407 9.04883 25.4406C9.04883 25.4747 9.06113 25.5083 9.08656 25.5345C9.11198 25.5604 9.14602 25.5739 9.17965 25.5739C9.21328 25.5739 9.24732 25.5616 9.27357 25.5362C9.28628 25.5235 9.29613 25.5087 9.3031 25.4923C9.30966 25.4763 9.31335 25.4587 9.31294 25.4406C9.31294 25.4267 9.30146 25.4152 9.2871 25.4152C9.27316 25.4152 9.26168 25.4267 9.26168 25.441C9.26168 25.4521 9.25962 25.4628 9.25552 25.473C9.25142 25.4829 9.24527 25.4919 9.23748 25.4997C9.22148 25.5153 9.20057 25.5231 9.18006 25.5231C9.15956 25.5231 9.13864 25.5149 9.12306 25.4989C9.10747 25.4829 9.09968 25.462 9.09968 25.4415C9.09968 25.4209 9.10788 25.4 9.12388 25.3844L9.12429 25.3836Z" fill="#6E4125"/>
<path d="M4.91463 13.6055H2.00488V26.0446H4.91463V13.6055Z" fill="#F59153"/>
<path d="M18.6923 24.332H15.6562V25.7637H18.6923V24.332Z" fill="#FDF3E9"/>
<path d="M15.9027 24.9316H15.8535V25.6596H15.9027V24.9316Z" fill="#7A8581"/>
<path d="M16.1373 24.9316H16.0881V25.6596H16.1373V24.9316Z" fill="#7A8581"/>
<path d="M16.372 24.9316H16.3228V25.6596H16.372V24.9316Z" fill="#7A8581"/>
<path d="M16.6063 24.9316H16.5571V25.6596H16.6063V24.9316Z" fill="#7A8581"/>
<path d="M16.8407 24.9316H16.7915V25.6596H16.8407V24.9316Z" fill="#7A8581"/>
<path d="M17.0753 24.9316H17.0261V25.6596H17.0753V24.9316Z" fill="#7A8581"/>
<path d="M17.3097 24.9316H17.2605V25.6596H17.3097V24.9316Z" fill="#7A8581"/>
<path d="M17.5443 24.9316H17.4951V25.6596H17.5443V24.9316Z" fill="#7A8581"/>
<path d="M17.7785 24.9316H17.7292V25.6596H17.7785V24.9316Z" fill="#7A8581"/>
<path d="M18.0131 24.9316H17.9639V25.6596H18.0131V24.9316Z" fill="#7A8581"/>
<path d="M18.2477 24.9316H18.1985V25.6596H18.2477V24.9316Z" fill="#7A8581"/>
<path d="M18.4823 24.9316H18.4331V25.6596H18.4823V24.9316Z" fill="#7A8581"/>
<path d="M26.4863 11.6621H23.4502V13.0938H26.4863V11.6621Z" fill="#FDF3E9"/>
<path d="M23.6967 12.2617H23.6475V12.9897H23.6967V12.2617Z" fill="#7A8581"/>
<path d="M23.9313 12.2617H23.8821V12.9897H23.9313V12.2617Z" fill="#7A8581"/>
<path d="M24.1659 12.2617H24.1167V12.9897H24.1659V12.2617Z" fill="#7A8581"/>
<path d="M24.4005 12.2617H24.3513V12.9897H24.4005V12.2617Z" fill="#7A8581"/>
<path d="M24.6347 12.2617H24.5854V12.9897H24.6347V12.2617Z" fill="#7A8581"/>
<path d="M24.8693 12.2617H24.8201V12.9897H24.8693V12.2617Z" fill="#7A8581"/>
<path d="M25.1039 12.2617H25.0547V12.9897H25.1039V12.2617Z" fill="#7A8581"/>
<path d="M25.3383 12.2617H25.2891V12.9897H25.3383V12.2617Z" fill="#7A8581"/>
<path d="M25.5726 12.2617H25.5234V12.9897H25.5726V12.2617Z" fill="#7A8581"/>
<path d="M25.807 12.2617H25.7578V12.9897H25.807V12.2617Z" fill="#7A8581"/>
<path d="M26.0416 12.2617H25.9924V12.9897H26.0416V12.2617Z" fill="#7A8581"/>
<path d="M26.2763 12.2617H26.2271V12.9897H26.2763V12.2617Z" fill="#7A8581"/>
<path d="M33.7997 24.332H30.7637V25.7637H33.7997V24.332Z" fill="#FDF3E9"/>
<path d="M31.0106 24.9316H30.9614V25.6596H31.0106V24.9316Z" fill="#7A8581"/>
<path d="M31.2448 24.9316H31.1956V25.6596H31.2448V24.9316Z" fill="#7A8581"/>
<path d="M31.4794 24.9316H31.4302V25.6596H31.4794V24.9316Z" fill="#7A8581"/>
<path d="M31.7138 24.9316H31.6646V25.6596H31.7138V24.9316Z" fill="#7A8581"/>
<path d="M31.9484 24.9316H31.8992V25.6596H31.9484V24.9316Z" fill="#7A8581"/>
<path d="M32.1828 24.9316H32.1335V25.6596H32.1828V24.9316Z" fill="#7A8581"/>
<path d="M32.4174 24.9316H32.3682V25.6596H32.4174V24.9316Z" fill="#7A8581"/>
<path d="M32.6518 24.9316H32.6025V25.6596H32.6518V24.9316Z" fill="#7A8581"/>
<path d="M32.8864 24.9316H32.8372V25.6596H32.8864V24.9316Z" fill="#7A8581"/>
<path d="M33.1205 24.9316H33.0713V25.6596H33.1205V24.9316Z" fill="#7A8581"/>
<path d="M33.3551 24.9316H33.3059V25.6596H33.3551V24.9316Z" fill="#7A8581"/>
<path d="M33.5897 24.9316H33.5405V25.6596H33.5897V24.9316Z" fill="#7A8581"/>
<path d="M35.3567 37.7773H17.3799V39.6811H35.3567V37.7773Z" fill="#F7934F"/>
<path d="M35.3564 26.207H20.2893V38.6461H35.3564V26.207Z" fill="#FFB778"/>
<path d="M29.5148 34.3828H26.1313V38.6476H29.5148V34.3828Z" fill="#FFCFA8"/>
<path d="M29.5148 26.207H26.1313V30.4718H29.5148V26.207Z" fill="#FFCFA8"/>
<path fill-rule="evenodd" clip-rule="evenodd" d="M23.6079 37.3478C23.6079 37.3478 23.6079 37.347 23.6071 37.3474C23.6079 37.3491 23.6083 37.3503 23.6079 37.3478ZM23.4393 37.6866H23.4656C23.5017 37.6845 23.5308 37.6755 23.5538 37.6538L23.5972 37.589C23.6054 37.5779 23.6153 37.5635 23.6202 37.5496C23.6243 37.5377 23.6255 37.5246 23.6194 37.5119L23.5591 37.3958L23.5501 37.3786L23.5665 37.3679L23.5948 37.3495L23.3532 37.3035L23.2761 37.5299L23.3036 37.5119L23.322 37.5L23.3335 37.5184L23.4389 37.6862L23.4393 37.6866ZM23.1371 37.6866H23.3885L23.3089 37.5598L23.2741 37.5828L23.2716 37.5845L23.2691 37.5853C23.2646 37.5869 23.2593 37.5877 23.254 37.5869C23.2466 37.5861 23.2396 37.5828 23.2343 37.5763C23.2298 37.5709 23.2269 37.5639 23.2265 37.5545C23.2265 37.5467 23.2281 37.5365 23.233 37.5229L23.3183 37.2715L23.3245 37.2539L23.343 37.2572L23.6038 37.3068C23.6341 37.3134 23.6473 37.3249 23.6505 37.3384C23.6542 37.3548 23.644 37.3667 23.6313 37.3765L23.63 37.3778L23.6071 37.3929L23.6587 37.4922C23.6706 37.5172 23.6694 37.5418 23.6616 37.5635C23.6546 37.5832 23.6432 37.6 23.6329 37.6136L23.4332 37.9314C23.4028 37.9864 23.3651 38.004 23.3208 38.002H23.0916V37.737C23.0916 37.696 23.1075 37.6874 23.1375 37.6858L23.1371 37.6866Z" fill="#6E4125"/>
<path d="M22.6556 37.1231C22.6556 37.1231 22.6552 37.124 22.6556 37.124C22.6569 37.1223 22.6577 37.1211 22.6556 37.1231ZM23.0731 37.0953L22.9956 37.2605L23.0338 37.2774L23.0366 37.2786L23.0387 37.2802C23.0424 37.2831 23.0461 37.2872 23.0485 37.2921C23.0518 37.2987 23.0526 37.3061 23.0502 37.3143C23.0481 37.3208 23.0436 37.327 23.0362 37.3323C23.0297 37.3368 23.0202 37.3409 23.0063 37.3438L22.7483 37.4078L22.7303 37.4123L22.7233 37.3951L22.6241 37.149C22.613 37.1199 22.6159 37.1026 22.6257 37.0928C22.6376 37.0809 22.6532 37.083 22.6683 37.0883L22.67 37.0891L22.695 37.1006L22.7508 37.0038C22.7655 36.9804 22.7869 36.9681 22.809 36.9628C22.8291 36.9579 22.8496 36.9587 22.8668 36.9599H23.2175L23.0559 37.0071L22.8648 37.003H22.8636C22.85 37.0018 22.8336 37.0013 22.8193 37.0046C22.807 37.0075 22.7955 37.0136 22.7877 37.026L22.7225 37.1396L22.7126 37.1564L22.695 37.1482L22.6642 37.1342L22.7561 37.3622L22.9882 37.3048L22.9583 37.2913L22.9382 37.2823L22.9476 37.2626L23.0346 37.0776L23.0735 37.0957L23.0731 37.0953Z" fill="#6E4125"/>
<path fill-rule="evenodd" clip-rule="evenodd" d="M23.1948 37.3346L23.0177 37.0582C22.9951 37.0266 22.9693 37.0061 22.9348 37L23.0517 36.9614L23.2412 36.9536C23.3043 36.9495 23.3396 36.9717 23.3617 37.0098L23.4856 37.2025L23.2625 37.3457C23.2276 37.3674 23.2121 37.3588 23.1948 37.3346Z" fill="#6E4125"/>
<path fill-rule="evenodd" clip-rule="evenodd" d="M22.9164 38.0541H22.9172C22.9152 38.0541 22.914 38.0537 22.9164 38.0541ZM22.7101 37.7371L22.697 37.7596C22.6802 37.7916 22.6736 37.8216 22.6806 37.8523L22.7142 37.9224V37.9237C22.72 37.9364 22.727 37.9512 22.7364 37.9626C22.7446 37.9725 22.7553 37.9799 22.7696 37.9811L22.9004 37.9881L22.9197 37.9893L22.9205 38.0086L22.9222 38.0426L23.0842 37.8577L22.9279 37.6764L22.9296 37.7092L22.9308 37.7309L22.909 37.7317L22.7106 37.7375L22.7101 37.7371ZM22.8635 37.4767L22.736 37.6932L22.8853 37.6887L22.8832 37.6473V37.6444V37.6419C22.884 37.637 22.8861 37.6321 22.8894 37.628C22.8939 37.6222 22.9 37.6177 22.9086 37.6165C22.9156 37.6153 22.923 37.6165 22.9312 37.621C22.9382 37.6247 22.946 37.6317 22.955 37.6423L23.1285 37.8437L23.1408 37.8581L23.1285 37.872L22.9537 38.0717C22.9328 38.0947 22.916 38.1 22.9029 38.0959C22.8869 38.0906 22.8816 38.0758 22.8795 38.0598V38.0582L22.8783 38.0307L22.7667 38.0246C22.7393 38.0221 22.7188 38.0086 22.7036 37.9909C22.69 37.9749 22.6814 37.9565 22.6749 37.9409L22.5022 37.6075C22.4702 37.5533 22.4743 37.5119 22.4981 37.475L22.6142 37.2773L22.8426 37.4119C22.8779 37.4332 22.8771 37.4508 22.8635 37.4771V37.4767Z" fill="#6E4125"/>
<path d="M23.6843 36.7285H22.463C22.3789 36.7285 22.3096 36.8003 22.3096 36.8876V38.1586C22.3096 38.2463 22.3789 38.3173 22.463 38.3173H23.6843C23.7679 38.3173 23.8364 38.2459 23.8364 38.1586V36.8876C23.8364 36.8003 23.7679 36.7285 23.6843 36.7285ZM23.7454 38.1381C23.7454 38.184 23.7089 38.2221 23.6646 38.2221H22.4826C22.4379 38.2221 22.4018 38.1836 22.4018 38.1381V36.9081C22.4018 36.8614 22.4379 36.8241 22.4826 36.8241H23.6646C23.7085 36.8241 23.7454 36.8614 23.7454 36.9081V38.1381Z" fill="#6E4125"/>
<path d="M21.8809 38.1339H21.0853C21.0697 38.1339 21.0574 38.1216 21.0574 38.106C21.0574 38.0904 21.0697 38.0781 21.0853 38.0781H21.8809C21.8965 38.0781 21.9088 38.0904 21.9088 38.106C21.9088 38.1216 21.8965 38.1339 21.8809 38.1339Z" fill="#6E4125"/>
<path fill-rule="evenodd" clip-rule="evenodd" d="M21.3613 37.1297V37.9602H21.1928V37.1293L21.1104 37.1289L21.2805 36.916L21.4495 37.1301L21.3613 37.1297Z" fill="#6E4125"/>
<path fill-rule="evenodd" clip-rule="evenodd" d="M21.7738 37.1297V37.9602H21.6056V37.1293L21.5232 37.1289L21.6934 36.916L21.8624 37.1301L21.7738 37.1297Z" fill="#6E4125"/>
<path d="M22.0942 36.7285H20.8729C20.7888 36.7285 20.7195 36.8003 20.7195 36.8876V38.1586C20.7195 38.2463 20.7888 38.3173 20.8729 38.3173H22.0942C22.1778 38.3173 22.2463 38.2459 22.2463 38.1586V36.8876C22.2463 36.8003 22.1778 36.7285 22.0942 36.7285ZM22.1553 38.1381C22.1553 38.184 22.1184 38.2221 22.0745 38.2221H20.8925C20.8478 38.2221 20.8118 38.1836 20.8118 38.1381V36.9081C20.8118 36.8614 20.8478 36.8241 20.8925 36.8241H22.0745C22.1184 36.8241 22.1553 36.8614 22.1553 36.9081V38.1381Z" fill="#6E4125"/>
<path d="M25.2741 36.7285H24.0528C23.9687 36.7285 23.8994 36.8003 23.8994 36.8876V38.1586C23.8994 38.2463 23.9687 38.3173 24.0528 38.3173H25.2741C25.3578 38.3173 25.4263 38.2459 25.4263 38.1586V36.8876C25.4263 36.8003 25.3578 36.7285 25.2741 36.7285ZM25.3352 38.1381C25.3352 38.184 25.2987 38.2221 25.2544 38.2221H24.0721C24.0274 38.2221 23.9913 38.1836 23.9913 38.1381V36.9081C23.9913 36.8614 24.0274 36.8241 24.0721 36.8241H25.2544C25.2983 36.8241 25.3352 36.8614 25.3352 36.9081V38.1381Z" fill="#6E4125"/>
<path fill-rule="evenodd" clip-rule="evenodd" d="M24.656 37.1406C24.3951 37.1406 24.177 37.3215 24.1191 37.5647C24.1388 37.5446 24.1741 37.5315 24.2135 37.5315C24.2721 37.5315 24.3205 37.5606 24.325 37.5975C24.3308 37.5614 24.3783 37.5331 24.4366 37.5331C24.4948 37.5331 24.5436 37.5622 24.5481 37.5991C24.5539 37.5626 24.6014 37.5343 24.6597 37.5343C24.7179 37.5343 24.7667 37.5634 24.7712 37.6004C24.777 37.5639 24.8245 37.5356 24.8828 37.5356C24.941 37.5356 24.9906 37.5651 24.9947 37.6028C24.9984 37.5655 25.0472 37.5356 25.1067 37.5356C25.1407 37.5356 25.1711 37.5454 25.1916 37.5606C25.1325 37.3194 24.9152 37.1406 24.656 37.1406Z" fill="#6E4125"/>
<path d="M24.6893 37.1153C24.6893 37.1013 24.6778 37.0898 24.6639 37.0898C24.6499 37.0898 24.6384 37.1013 24.6384 37.1153L24.6372 38.0413C24.6372 38.0553 24.6487 38.0667 24.6626 38.0667C24.6766 38.0667 24.6881 38.0553 24.6881 38.0413L24.6893 37.1153Z" fill="#6E4125"/>
<path d="M24.499 37.9793C24.5093 37.9695 24.5093 37.9531 24.499 37.9432C24.4892 37.933 24.4728 37.933 24.463 37.9432C24.4371 37.9687 24.4236 38.0027 24.4236 38.0363C24.4236 38.0704 24.4359 38.104 24.4613 38.1302C24.4867 38.1561 24.5208 38.1696 24.5544 38.1696C24.588 38.1696 24.6221 38.1573 24.6483 38.1319C24.661 38.1192 24.6709 38.1044 24.6779 38.088C24.6844 38.072 24.6881 38.0544 24.6877 38.0363C24.6877 38.0224 24.6762 38.0109 24.6619 38.0109C24.6479 38.0109 24.6364 38.0224 24.6364 38.0367C24.6364 38.0478 24.6344 38.0585 24.6303 38.0687C24.6262 38.0786 24.62 38.0876 24.6122 38.0954C24.5962 38.111 24.5753 38.1188 24.5548 38.1188C24.5343 38.1188 24.5134 38.1106 24.4978 38.0946C24.4822 38.0786 24.4744 38.0577 24.4744 38.0372C24.4744 38.0166 24.4826 37.9957 24.4986 37.9801L24.499 37.9793Z" fill="#6E4125"/>
<path d="M20.2896 26.207H17.3799V38.6461H20.2896V26.207Z" fill="#F59153"/>
<path d="M19.9817 37.7773H2.00488V39.6811H19.9817V37.7773Z" fill="#F7934F"/>
<path d="M19.9817 26.207H4.91455V38.6461H19.9817V26.207Z" fill="#FFB778"/>
<path d="M14.14 34.3828H10.7566V38.6476H14.14V34.3828Z" fill="#FFCFA8"/>
<path d="M14.14 26.207H10.7566V30.4718H14.14V26.207Z" fill="#FFCFA8"/>
<path fill-rule="evenodd" clip-rule="evenodd" d="M8.23337 37.3478C8.23337 37.3478 8.23337 37.347 8.23255 37.3474C8.23337 37.3491 8.23378 37.3503 8.23337 37.3478ZM8.06482 37.6866H8.09106C8.12715 37.6845 8.15627 37.6755 8.17924 37.6538L8.22271 37.589C8.23091 37.5779 8.24075 37.5635 8.24568 37.5496C8.24978 37.5377 8.25101 37.5246 8.24486 37.5119L8.18457 37.3958L8.17555 37.3786L8.19195 37.3679L8.22025 37.3495L7.97869 37.3035L7.90159 37.5299L7.92907 37.5119L7.94752 37.5L7.95901 37.5184L8.06441 37.6862L8.06482 37.6866ZM7.76256 37.6866H8.01396L7.9344 37.5598L7.89954 37.5828L7.89708 37.5845L7.89462 37.5853C7.89011 37.5869 7.88478 37.5877 7.87945 37.5869C7.87206 37.5861 7.86509 37.5828 7.85976 37.5763C7.85525 37.5709 7.85238 37.5639 7.85197 37.5545C7.85197 37.5467 7.85361 37.5365 7.85853 37.5229L7.94383 37.2715L7.94998 37.2539L7.96844 37.2572L8.22927 37.3068C8.25962 37.3134 8.27274 37.3249 8.27602 37.3384C8.27972 37.3548 8.26946 37.3667 8.25675 37.3765L8.25552 37.3778L8.23255 37.3929L8.28423 37.4922C8.29612 37.5172 8.29489 37.5418 8.2871 37.5635C8.28012 37.5832 8.26864 37.6 8.25839 37.6136L8.05866 37.9314C8.02832 37.9864 7.99059 38.004 7.94629 38.002H7.71704V37.737C7.71704 37.696 7.73304 37.6874 7.76297 37.6858L7.76256 37.6866Z" fill="#6E4125"/>
<path d="M7.28105 37.1231C7.28105 37.1231 7.28064 37.124 7.28105 37.124C7.28228 37.1223 7.2831 37.1211 7.28105 37.1231ZM7.69813 37.0953L7.62062 37.2605L7.65876 37.2774L7.66163 37.2786L7.66368 37.2802C7.66737 37.2831 7.67106 37.2872 7.67352 37.2921C7.6768 37.2987 7.67762 37.3061 7.67516 37.3143C7.67311 37.3208 7.6686 37.327 7.66122 37.3323C7.65466 37.3368 7.64523 37.3409 7.63128 37.3438L7.37332 37.4078L7.35528 37.4123L7.3483 37.3951L7.24906 37.149C7.23798 37.1199 7.24085 37.1026 7.2507 37.0928C7.26259 37.0809 7.27818 37.083 7.29335 37.0883L7.29499 37.0891L7.32001 37.1006L7.37578 37.0038C7.39055 36.9804 7.41187 36.9681 7.43402 36.9628C7.45452 36.9579 7.47462 36.9587 7.49184 36.9599H7.84249L7.6809 37.0071L7.48979 37.003H7.48856C7.47503 37.0018 7.45862 37.0013 7.44427 37.0046C7.43197 37.0075 7.42048 37.0136 7.41269 37.026L7.34748 37.1396L7.33764 37.1564L7.32001 37.1482L7.28925 37.1342L7.38111 37.3622L7.61324 37.3048L7.5833 37.2913L7.5632 37.2823L7.57264 37.2626L7.65958 37.0776L7.69854 37.0957L7.69813 37.0953Z" fill="#6E4125"/>
<path fill-rule="evenodd" clip-rule="evenodd" d="M7.82007 37.3346L7.6429 37.0582C7.61993 37.0266 7.59451 37.0061 7.56006 37L7.67694 36.9614L7.86641 36.9536C7.92957 36.9495 7.96484 36.9717 7.98698 37.0098L8.11084 37.2025L7.88774 37.3457C7.85288 37.3674 7.83729 37.3588 7.82007 37.3346Z" fill="#6E4125"/>
<path fill-rule="evenodd" clip-rule="evenodd" d="M7.54192 38.0541H7.54274C7.54069 38.0541 7.53946 38.0537 7.54192 38.0541ZM7.33563 37.7371L7.32251 37.7596C7.30569 37.7916 7.29913 37.8216 7.3061 37.8523L7.33973 37.9224V37.9237C7.34547 37.9364 7.35244 37.9512 7.36188 37.9626C7.37008 37.9725 7.38074 37.9799 7.3951 37.9811L7.52592 37.9881L7.5452 37.9893L7.54602 38.0086L7.54766 38.0426L7.70965 37.8577L7.5534 37.6764L7.55504 37.7092L7.55627 37.7309L7.53453 37.7317L7.33604 37.7375L7.33563 37.7371ZM7.48901 37.4767L7.36147 37.6932L7.51075 37.6887L7.5087 37.6473V37.6444V37.6419C7.50952 37.637 7.51157 37.6321 7.51485 37.628C7.51936 37.6222 7.52551 37.6177 7.53412 37.6165C7.5411 37.6153 7.54848 37.6165 7.55668 37.621C7.56365 37.6247 7.57144 37.6317 7.58047 37.6423L7.75394 37.8437L7.76625 37.8581L7.75394 37.872L7.57924 38.0717C7.55832 38.0947 7.54151 38.1 7.52838 38.0959C7.51239 38.0906 7.50706 38.0758 7.50501 38.0598V38.0582L7.50377 38.0307L7.39222 38.0246C7.36475 38.0221 7.34424 38.0086 7.32907 37.9909C7.31553 37.9749 7.30692 37.9565 7.30036 37.9409L7.1277 37.6075C7.09571 37.5533 7.09981 37.5119 7.1236 37.475L7.23966 37.2773L7.4681 37.4119C7.50337 37.4332 7.50296 37.4508 7.48901 37.4771V37.4767Z" fill="#6E4125"/>
<path d="M8.30951 36.7285H7.0882C7.00412 36.7285 6.93481 36.8003 6.93481 36.8876V38.1586C6.93481 38.2463 7.00412 38.3173 7.0882 38.3173H8.30951C8.39317 38.3173 8.46166 38.2459 8.46166 38.1586V36.8876C8.46166 36.8003 8.39317 36.7285 8.30951 36.7285ZM8.37062 38.1381C8.37062 38.184 8.33412 38.2221 8.28983 38.2221H7.10788C7.06318 38.2221 7.02709 38.1836 7.02709 38.1381V36.9081C7.02709 36.8614 7.06318 36.8241 7.10788 36.8241H8.28983C8.33371 36.8241 8.37062 36.8614 8.37062 36.9081V38.1381Z" fill="#6E4125"/>
<path d="M6.50563 38.1339H5.71002C5.69443 38.1339 5.68213 38.1216 5.68213 38.106C5.68213 38.0904 5.69443 38.0781 5.71002 38.0781H6.50563C6.52122 38.0781 6.53352 38.0904 6.53352 38.106C6.53352 38.1216 6.52122 38.1339 6.50563 38.1339Z" fill="#6E4125"/>
<path fill-rule="evenodd" clip-rule="evenodd" d="M5.98593 37.1297V37.9602H5.81778V37.1293L5.73535 37.1289L5.90514 36.916L6.07451 37.1301L5.98593 37.1297Z" fill="#6E4125"/>
<path fill-rule="evenodd" clip-rule="evenodd" d="M6.39894 37.1297V37.9602H6.23079V37.1293L6.14795 37.1289L6.31815 36.916L6.48711 37.1301L6.39894 37.1297Z" fill="#6E4125"/>
<path d="M6.71942 36.7285H5.49811C5.41404 36.7285 5.34473 36.8003 5.34473 36.8876V38.1586C5.34473 38.2463 5.41404 38.3173 5.49811 38.3173H6.71942C6.80309 38.3173 6.87157 38.2459 6.87157 38.1586V36.8876C6.87157 36.8003 6.80309 36.7285 6.71942 36.7285ZM6.78053 38.1381C6.78053 38.184 6.74362 38.2221 6.69974 38.2221H5.51779C5.47309 38.2221 5.437 38.1836 5.437 38.1381V36.9081C5.437 36.8614 5.47309 36.8241 5.51779 36.8241H6.69974C6.74362 36.8241 6.78053 36.8614 6.78053 36.9081V38.1381Z" fill="#6E4125"/>
<path d="M9.89935 36.7285H8.67804C8.59397 36.7285 8.52466 36.8003 8.52466 36.8876V38.1586C8.52466 38.2463 8.59397 38.3173 8.67804 38.3173H9.89935C9.98302 38.3173 10.0515 38.2459 10.0515 38.1586V36.8876C10.0515 36.8003 9.98302 36.7285 9.89935 36.7285ZM9.96046 38.1381C9.96046 38.184 9.92396 38.2221 9.87967 38.2221H8.69773C8.65302 38.2221 8.61693 38.1836 8.61693 38.1381V36.9081C8.61693 36.8614 8.65302 36.8241 8.69773 36.8241H9.87967C9.92355 36.8241 9.96046 36.8614 9.96046 36.9081V38.1381Z" fill="#6E4125"/>
<path fill-rule="evenodd" clip-rule="evenodd" d="M9.28122 37.1406C9.02039 37.1406 8.80221 37.3215 8.74438 37.5647C8.76448 37.5446 8.79934 37.5315 8.83871 37.5315C8.89736 37.5315 8.94575 37.5606 8.95026 37.5975C8.956 37.5614 9.00358 37.5331 9.06181 37.5331C9.12005 37.5331 9.16885 37.5622 9.17336 37.5991C9.1791 37.5626 9.22668 37.5343 9.28491 37.5343C9.34315 37.5343 9.39195 37.5634 9.39646 37.6004C9.4022 37.5639 9.44978 37.5356 9.50801 37.5356C9.56625 37.5356 9.61587 37.5651 9.61997 37.6028C9.62367 37.5655 9.67247 37.5356 9.73193 37.5356C9.76597 37.5356 9.79632 37.5454 9.81683 37.5606C9.75777 37.3194 9.54041 37.1406 9.28122 37.1406Z" fill="#6E4125"/>
<path d="M9.31405 37.1153C9.31405 37.1013 9.30256 37.0898 9.28862 37.0898C9.27468 37.0898 9.26319 37.1013 9.26319 37.1153L9.26196 38.0413C9.26196 38.0553 9.27345 38.0667 9.28739 38.0667C9.30133 38.0667 9.31282 38.0553 9.31282 38.0413L9.31405 37.1153Z" fill="#6E4125"/>
<path d="M9.12429 37.9793C9.13454 37.9695 9.13454 37.9531 9.12429 37.9432C9.11445 37.933 9.09804 37.933 9.0882 37.9432C9.06236 37.9687 9.04883 38.0027 9.04883 38.0363C9.04883 38.0704 9.06113 38.104 9.08656 38.1302C9.11198 38.1561 9.14602 38.1696 9.17965 38.1696C9.21328 38.1696 9.24732 38.1573 9.27357 38.1319C9.28628 38.1192 9.29613 38.1044 9.3031 38.088C9.30966 38.072 9.31335 38.0544 9.31294 38.0363C9.31294 38.0224 9.30146 38.0109 9.2871 38.0109C9.27316 38.0109 9.26168 38.0224 9.26168 38.0367C9.26168 38.0478 9.25962 38.0585 9.25552 38.0687C9.25142 38.0786 9.24527 38.0876 9.23748 38.0954C9.22148 38.111 9.20057 38.1188 9.18006 38.1188C9.15956 38.1188 9.13864 38.1106 9.12306 38.0946C9.10747 38.0786 9.09968 38.0577 9.09968 38.0372C9.09968 38.0166 9.10788 37.9957 9.12388 37.9801L9.12429 37.9793Z" fill="#6E4125"/>
<path d="M4.91463 26.207H2.00488V38.6461H4.91463V26.207Z" fill="#F59153"/>
<path d="M35.3567 50.416H17.3799V52.3198H35.3567V50.416Z" fill="#F7934F"/>
<path d="M35.3564 38.8457H20.2893V51.2848H35.3564V38.8457Z" fill="#FFB778"/>
<path d="M29.5148 47.0215H26.1313V51.2862H29.5148V47.0215Z" fill="#FFCFA8"/>
<path d="M29.5148 38.8457H26.1313V43.1105H29.5148V38.8457Z" fill="#FFCFA8"/>
<path fill-rule="evenodd" clip-rule="evenodd" d="M23.6079 49.9924C23.6079 49.9924 23.6079 49.9915 23.6071 49.9919C23.6079 49.9936 23.6083 49.9948 23.6079 49.9924ZM23.4393 50.3311H23.4656C23.5017 50.3291 23.5308 50.32 23.5538 50.2983L23.5972 50.2335C23.6054 50.2224 23.6153 50.2081 23.6202 50.1941C23.6243 50.1822 23.6255 50.1691 23.6194 50.1564L23.5591 50.0403L23.5501 50.0231L23.5665 50.0124L23.5948 49.994L23.3532 49.9481L23.2761 50.1744L23.3036 50.1564L23.322 50.1445L23.3335 50.163L23.4389 50.3307L23.4393 50.3311ZM23.1371 50.3311H23.3885L23.3089 50.2044L23.2741 50.2273L23.2716 50.229L23.2691 50.2298C23.2646 50.2315 23.2593 50.2323 23.254 50.2314C23.2466 50.2306 23.2396 50.2273 23.2343 50.2208C23.2298 50.2155 23.2269 50.2085 23.2265 50.1991C23.2265 50.1913 23.2281 50.181 23.233 50.1675L23.3183 49.9161L23.3245 49.8984L23.343 49.9017L23.6038 49.9513C23.6341 49.9579 23.6473 49.9694 23.6505 49.9829C23.6542 49.9993 23.644 50.0112 23.6313 50.0211L23.63 50.0223L23.6071 50.0375L23.6587 50.1367C23.6706 50.1617 23.6694 50.1863 23.6616 50.2081C23.6546 50.2278 23.6432 50.2446 23.6329 50.2581L23.4332 50.5759C23.4028 50.6309 23.3651 50.6485 23.3208 50.6465H23.0916V50.3816C23.0916 50.3405 23.1075 50.3319 23.1375 50.3307L23.1371 50.3311Z" fill="#6E4125"/>
<path d="M22.6556 49.7677C22.6556 49.7677 22.6552 49.7685 22.6556 49.7685C22.6569 49.7669 22.6577 49.7656 22.6556 49.7677ZM23.0731 49.7398L22.9956 49.9051L23.0338 49.9219L23.0366 49.9231L23.0387 49.9248C23.0424 49.9276 23.0461 49.9317 23.0485 49.9366C23.0518 49.9432 23.0526 49.9506 23.0502 49.9588C23.0481 49.9654 23.0436 49.9715 23.0362 49.9768C23.0297 49.9813 23.0202 49.9854 23.0063 49.9883L22.7483 50.0523L22.7303 50.0568L22.7233 50.0396L22.6241 49.7935C22.613 49.7644 22.6159 49.7472 22.6257 49.7373C22.6376 49.7254 22.6532 49.7275 22.6683 49.7328L22.67 49.7336L22.695 49.7451L22.7508 49.6483C22.7655 49.625 22.7869 49.6127 22.809 49.6073C22.8291 49.6024 22.8496 49.6032 22.8668 49.6045H23.2175L23.0559 49.6516L22.8648 49.6475H22.8636C22.85 49.6463 22.8336 49.6459 22.8193 49.6492C22.807 49.652 22.7955 49.6582 22.7877 49.6705L22.7225 49.7841L22.7126 49.8009L22.695 49.7927L22.6642 49.7788L22.7561 50.0068L22.9882 49.9494L22.9583 49.9358L22.9382 49.9268L22.9476 49.9071L23.0346 49.7222L23.0735 49.7402L23.0731 49.7398Z" fill="#6E4125"/>
<path fill-rule="evenodd" clip-rule="evenodd" d="M23.1948 49.9791L23.0177 49.7027C22.9951 49.6711 22.9693 49.6506 22.9348 49.6445L23.0517 49.6059L23.2412 49.5981C23.3043 49.594 23.3396 49.6162 23.3617 49.6543L23.4856 49.8471L23.2625 49.9902C23.2276 50.0119 23.2121 50.0033 23.1948 49.9791Z" fill="#6E4125"/>
<path fill-rule="evenodd" clip-rule="evenodd" d="M22.9164 50.6986H22.9172C22.9152 50.6986 22.914 50.6982 22.9164 50.6986ZM22.7101 50.3816L22.697 50.4042C22.6802 50.4362 22.6736 50.4661 22.6806 50.4969L22.7142 50.567V50.5682C22.72 50.5809 22.727 50.5957 22.7364 50.6072C22.7446 50.6166 22.7553 50.6244 22.7696 50.6256L22.9004 50.6326L22.9197 50.6338L22.9205 50.6531L22.9222 50.6871L23.0842 50.5022L22.9279 50.3209L22.9296 50.3537L22.9308 50.3755L22.909 50.3763L22.7106 50.382L22.7101 50.3816ZM22.8635 50.1212L22.736 50.3377L22.8853 50.3332L22.8832 50.2918V50.2889V50.2865C22.884 50.2815 22.8861 50.2766 22.8894 50.2725C22.8939 50.2668 22.9 50.2623 22.9086 50.261C22.9156 50.2598 22.923 50.261 22.9312 50.2655C22.9382 50.2692 22.946 50.2762 22.955 50.2869L23.1285 50.4882L23.1408 50.5026L23.1285 50.5165L22.9537 50.7163C22.9328 50.7392 22.916 50.7446 22.9029 50.7405C22.8869 50.7351 22.8816 50.7204 22.8795 50.7044V50.7027L22.8783 50.6753L22.7667 50.6691C22.7393 50.6666 22.7188 50.6531 22.7036 50.6355C22.69 50.6195 22.6814 50.601 22.6749 50.5854L22.5022 50.252C22.4702 50.1979 22.4743 50.1565 22.4981 50.1195L22.6142 49.9219L22.8426 50.0564C22.8779 50.0777 22.8771 50.0954 22.8635 50.1216V50.1212Z" fill="#6E4125"/>
<path d="M23.6843 49.373H22.463C22.3789 49.373 22.3096 49.4448 22.3096 49.5322V50.8031C22.3096 50.8909 22.3789 50.9618 22.463 50.9618H23.6843C23.7679 50.9618 23.8364 50.8905 23.8364 50.8031V49.5322C23.8364 49.4448 23.7679 49.373 23.6843 49.373ZM23.7454 50.7826C23.7454 50.8285 23.7089 50.8667 23.6646 50.8667H22.4826C22.4379 50.8667 22.4018 50.8281 22.4018 50.7826V49.5527C22.4018 49.5059 22.4379 49.4686 22.4826 49.4686H23.6646C23.7085 49.4686 23.7454 49.5059 23.7454 49.5527V50.7826Z" fill="#6E4125"/>
<path d="M21.8809 50.7784H21.0853C21.0697 50.7784 21.0574 50.7661 21.0574 50.7505C21.0574 50.735 21.0697 50.7227 21.0853 50.7227H21.8809C21.8965 50.7227 21.9088 50.735 21.9088 50.7505C21.9088 50.7661 21.8965 50.7784 21.8809 50.7784Z" fill="#6E4125"/>
<path fill-rule="evenodd" clip-rule="evenodd" d="M21.3613 49.7742V50.6047H21.1928V49.7738L21.1104 49.7734L21.2805 49.5605L21.4495 49.7746L21.3613 49.7742Z" fill="#6E4125"/>
<path fill-rule="evenodd" clip-rule="evenodd" d="M21.7738 49.7742V50.6047H21.6056V49.7738L21.5232 49.7734L21.6934 49.5605L21.8624 49.7746L21.7738 49.7742Z" fill="#6E4125"/>
<path d="M22.0942 49.373H20.8729C20.7888 49.373 20.7195 49.4448 20.7195 49.5322V50.8031C20.7195 50.8909 20.7888 50.9618 20.8729 50.9618H22.0942C22.1778 50.9618 22.2463 50.8905 22.2463 50.8031V49.5322C22.2463 49.4448 22.1778 49.373 22.0942 49.373ZM22.1553 50.7826C22.1553 50.8285 22.1184 50.8667 22.0745 50.8667H20.8925C20.8478 50.8667 20.8118 50.8281 20.8118 50.7826V49.5527C20.8118 49.5059 20.8478 49.4686 20.8925 49.4686H22.0745C22.1184 49.4686 22.1553 49.5059 22.1553 49.5527V50.7826Z" fill="#6E4125"/>
<path d="M25.2741 49.373H24.0528C23.9687 49.373 23.8994 49.4448 23.8994 49.5322V50.8031C23.8994 50.8909 23.9687 50.9618 24.0528 50.9618H25.2741C25.3578 50.9618 25.4263 50.8905 25.4263 50.8031V49.5322C25.4263 49.4448 25.3578 49.373 25.2741 49.373ZM25.3352 50.7826C25.3352 50.8285 25.2987 50.8667 25.2544 50.8667H24.0721C24.0274 50.8667 23.9913 50.8281 23.9913 50.7826V49.5527C23.9913 49.5059 24.0274 49.4686 24.0721 49.4686H25.2544C25.2983 49.4686 25.3352 49.5059 25.3352 49.5527V50.7826Z" fill="#6E4125"/>
<path fill-rule="evenodd" clip-rule="evenodd" d="M24.656 49.7852C24.3951 49.7852 24.177 49.966 24.1191 50.2092C24.1388 50.1891 24.1741 50.176 24.2135 50.176C24.2721 50.176 24.3205 50.2051 24.325 50.242C24.3308 50.2059 24.3783 50.1776 24.4366 50.1776C24.4948 50.1776 24.5436 50.2068 24.5481 50.2437C24.5539 50.2072 24.6014 50.1789 24.6597 50.1789C24.7179 50.1789 24.7667 50.208 24.7712 50.2449C24.777 50.2084 24.8245 50.1801 24.8828 50.1801C24.941 50.1801 24.9906 50.2096 24.9947 50.2474C24.9984 50.21 25.0472 50.1801 25.1067 50.1801C25.1407 50.1801 25.1711 50.1899 25.1916 50.2051C25.1325 49.964 24.9152 49.7852 24.656 49.7852Z" fill="#6E4125"/>
<path d="M24.6893 49.7598C24.6893 49.7459 24.6778 49.7344 24.6639 49.7344C24.6499 49.7344 24.6384 49.7459 24.6384 49.7598L24.6372 50.6858C24.6372 50.6998 24.6487 50.7113 24.6626 50.7113C24.6766 50.7113 24.6881 50.6998 24.6881 50.6858L24.6893 49.7598Z" fill="#6E4125"/>
<path d="M24.499 50.6239C24.5093 50.614 24.5093 50.5976 24.499 50.5878C24.4892 50.5775 24.4728 50.5775 24.463 50.5878C24.4371 50.6132 24.4236 50.6472 24.4236 50.6809C24.4236 50.7149 24.4359 50.7485 24.4613 50.7748C24.4867 50.8006 24.5208 50.8142 24.5544 50.8142C24.588 50.8142 24.6221 50.8018 24.6483 50.7764C24.661 50.7637 24.6709 50.7489 24.6779 50.7325C24.6844 50.7165 24.6881 50.6989 24.6877 50.6809C24.6877 50.6669 24.6762 50.6554 24.6619 50.6554C24.6479 50.6554 24.6364 50.6669 24.6364 50.6813C24.6364 50.6923 24.6344 50.703 24.6303 50.7133C24.6262 50.7231 24.62 50.7321 24.6122 50.7399C24.5962 50.7555 24.5753 50.7633 24.5548 50.7633C24.5343 50.7633 24.5134 50.7551 24.4978 50.7391C24.4822 50.7231 24.4744 50.7022 24.4744 50.6817C24.4744 50.6612 24.4826 50.6403 24.4986 50.6247L24.499 50.6239Z" fill="#6E4125"/>
<path d="M20.2896 38.8457H17.3799V51.2848H20.2896V38.8457Z" fill="#F59153"/>
<path d="M35.3564 51.4375H20.2893V63.8766H35.3564V51.4375Z" fill="#FFB778"/>
<path d="M29.5148 59.6133H26.1313V63.878H29.5148V59.6133Z" fill="#FFCFA8"/>
<path d="M29.5148 51.4375H26.1313V55.7023H29.5148V51.4375Z" fill="#FFCFA8"/>
<path fill-rule="evenodd" clip-rule="evenodd" d="M23.6079 62.5802C23.6079 62.5802 23.6079 62.5794 23.6071 62.5798C23.6079 62.5815 23.6083 62.5827 23.6079 62.5802ZM23.4393 62.919H23.4656C23.5017 62.9169 23.5308 62.9079 23.5538 62.8862L23.5972 62.8214C23.6054 62.8103 23.6153 62.796 23.6202 62.782C23.6243 62.7701 23.6255 62.757 23.6194 62.7443L23.5591 62.6282L23.5501 62.611L23.5665 62.6003L23.5948 62.5819L23.3532 62.536L23.2761 62.7623L23.3036 62.7443L23.322 62.7324L23.3335 62.7509L23.4389 62.919H23.4393ZM23.1371 62.919H23.3885L23.3089 62.7923L23.2741 62.8152L23.2716 62.8169L23.2691 62.8177C23.2646 62.8193 23.2593 62.8202 23.254 62.8193C23.2466 62.8185 23.2396 62.8152 23.2343 62.8087C23.2298 62.8033 23.2269 62.7964 23.2265 62.7869C23.2265 62.7791 23.2281 62.7689 23.233 62.7554L23.3183 62.504L23.3245 62.4863L23.343 62.4896L23.6038 62.5392C23.6341 62.5458 23.6473 62.5573 23.6505 62.5708C23.6542 62.5872 23.644 62.5991 23.6313 62.609L23.63 62.6102L23.6071 62.6254L23.6587 62.7246C23.6706 62.7496 23.6694 62.7742 23.6616 62.796C23.6546 62.8157 23.6432 62.8325 23.6329 62.846L23.4332 63.1638C23.4028 63.2188 23.3651 63.2364 23.3208 63.2344H23.0916V62.9694C23.0916 62.9284 23.1075 62.9198 23.1375 62.9186L23.1371 62.919Z" fill="#6E4125"/>
<path d="M22.6556 62.3517C22.6556 62.3517 22.6552 62.3525 22.6556 62.3525C22.6569 62.3508 22.6577 62.3496 22.6556 62.3517ZM23.0731 62.3238L22.9956 62.4891L23.0338 62.5059L23.0366 62.5071L23.0387 62.5087C23.0424 62.5116 23.0461 62.5157 23.0485 62.5206C23.0518 62.5272 23.0526 62.5346 23.0502 62.5428C23.0481 62.5493 23.0436 62.5555 23.0362 62.5608C23.0297 62.5653 23.0202 62.5694 23.0063 62.5723L22.7483 62.6363L22.7303 62.6408L22.7233 62.6236L22.6241 62.3775C22.613 62.3484 22.6159 62.3312 22.6257 62.3213C22.6376 62.3094 22.6532 62.3115 22.6683 62.3168L22.67 62.3176L22.695 62.3291L22.7508 62.2323C22.7655 62.2089 22.7869 62.1966 22.809 62.1913C22.8291 62.1864 22.8496 62.1872 22.8668 62.1884H23.2175L23.0559 62.2356L22.8648 62.2315H22.8636C22.85 62.2303 22.8336 62.2299 22.8193 62.2331C22.807 62.236 22.7955 62.2422 22.7877 62.2545L22.7225 62.3681L22.7126 62.3849L22.695 62.3767L22.6642 62.3627L22.7561 62.5908L22.9882 62.5333L22.9583 62.5198L22.9382 62.5108L22.9476 62.4911L23.0346 62.3061L23.0735 62.3246L23.0731 62.3238Z" fill="#6E4125"/>
<path fill-rule="evenodd" clip-rule="evenodd" d="M23.1948 62.567L23.0177 62.2906C22.9951 62.259 22.9693 62.2385 22.9348 62.2324L23.0517 62.1938L23.2412 62.186C23.3043 62.1819 23.3396 62.2041 23.3617 62.2422L23.4856 62.435L23.2625 62.5781C23.2276 62.5998 23.2121 62.5912 23.1948 62.567Z" fill="#6E4125"/>
<path fill-rule="evenodd" clip-rule="evenodd" d="M22.9164 63.2865H22.9172C22.9152 63.2865 22.914 63.2861 22.9164 63.2865ZM22.7101 62.9695L22.697 62.9921C22.6802 63.024 22.6736 63.054 22.6806 63.0847L22.7142 63.1549V63.1561C22.72 63.1688 22.727 63.1836 22.7364 63.1951C22.7446 63.2045 22.7553 63.2123 22.7696 63.2135L22.9004 63.2205L22.9197 63.2217L22.9205 63.241L22.9222 63.2746L23.0842 63.0897L22.9279 62.9084L22.9296 62.9412L22.9308 62.9629L22.909 62.9638L22.7106 62.9695H22.7101ZM22.8635 62.7091L22.736 62.9256L22.8853 62.9211L22.8832 62.8797V62.8768V62.8744C22.884 62.8694 22.8861 62.8645 22.8894 62.8604C22.8939 62.8547 22.9 62.8502 22.9086 62.8489C22.9156 62.8477 22.923 62.8489 22.9312 62.8534C22.9382 62.8571 22.946 62.8641 22.955 62.8748L23.1285 63.0757L23.1408 63.0901L23.1285 63.104L22.9537 63.3037C22.9328 63.3267 22.916 63.332 22.9029 63.3279C22.8869 63.3226 22.8816 63.3078 22.8795 63.2918V63.2902L22.8783 63.2627L22.7667 63.257C22.7393 63.2545 22.7188 63.241 22.7036 63.2234C22.69 63.2074 22.6814 63.1889 22.6749 63.1733L22.5022 62.8399C22.4702 62.7858 22.4743 62.7443 22.4981 62.7074L22.6142 62.5098L22.8426 62.6443C22.8779 62.6656 22.8771 62.6832 22.8635 62.7095V62.7091Z" fill="#6E4125"/>
<path d="M23.6843 61.9629H22.463C22.3789 61.9629 22.3096 62.0347 22.3096 62.122V63.393C22.3096 63.4807 22.3789 63.5517 22.463 63.5517H23.6843C23.7679 63.5517 23.8364 63.4803 23.8364 63.393V62.122C23.8364 62.0347 23.7679 61.9629 23.6843 61.9629ZM23.7454 63.3724C23.7454 63.4184 23.7089 63.4565 23.6646 63.4565H22.4826C22.4379 63.4565 22.4018 63.418 22.4018 63.3724V62.1425C22.4018 62.0958 22.4379 62.0584 22.4826 62.0584H23.6646C23.7085 62.0584 23.7454 62.0958 23.7454 62.1425V63.3724Z" fill="#6E4125"/>
<path d="M21.8809 63.3644H21.0853C21.0697 63.3644 21.0574 63.3521 21.0574 63.3365C21.0574 63.3209 21.0697 63.3086 21.0853 63.3086H21.8809C21.8965 63.3086 21.9088 63.3209 21.9088 63.3365C21.9088 63.3521 21.8965 63.3644 21.8809 63.3644Z" fill="#6E4125"/>
<path fill-rule="evenodd" clip-rule="evenodd" d="M21.3613 62.3602V63.1906H21.1928V62.3593H21.1104L21.2805 62.1465L21.4495 62.3602H21.3613Z" fill="#6E4125"/>
<path fill-rule="evenodd" clip-rule="evenodd" d="M21.7738 62.3602V63.1906H21.6056V62.3593H21.5232L21.6934 62.1465L21.8624 62.3602H21.7738Z" fill="#6E4125"/>
<path d="M22.0942 61.9629H20.8729C20.7888 61.9629 20.7195 62.0347 20.7195 62.122V63.393C20.7195 63.4807 20.7888 63.5517 20.8729 63.5517H22.0942C22.1778 63.5517 22.2463 63.4803 22.2463 63.393V62.122C22.2463 62.0347 22.1778 61.9629 22.0942 61.9629ZM22.1553 63.3724C22.1553 63.4184 22.1184 63.4565 22.0745 63.4565H20.8925C20.8478 63.4565 20.8118 63.418 20.8118 63.3724V62.1425C20.8118 62.0958 20.8478 62.0584 20.8925 62.0584H22.0745C22.1184 62.0584 22.1553 62.0958 22.1553 62.1425V63.3724Z" fill="#6E4125"/>
<path d="M25.2741 61.9629H24.0528C23.9687 61.9629 23.8994 62.0347 23.8994 62.122V63.393C23.8994 63.4807 23.9687 63.5517 24.0528 63.5517H25.2741C25.3578 63.5517 25.4263 63.4803 25.4263 63.393V62.122C25.4263 62.0347 25.3578 61.9629 25.2741 61.9629ZM25.3352 63.3724C25.3352 63.4184 25.2987 63.4565 25.2544 63.4565H24.0721C24.0274 63.4565 23.9913 63.418 23.9913 63.3724V62.1425C23.9913 62.0958 24.0274 62.0584 24.0721 62.0584H25.2544C25.2983 62.0584 25.3352 62.0958 25.3352 62.1425V63.3724Z" fill="#6E4125"/>
<path fill-rule="evenodd" clip-rule="evenodd" d="M24.656 62.375C24.3951 62.375 24.177 62.5559 24.1191 62.7991C24.1388 62.779 24.1741 62.7658 24.2135 62.7658C24.2721 62.7658 24.3205 62.795 24.325 62.8319C24.3308 62.7958 24.3783 62.7675 24.4366 62.7675C24.4948 62.7675 24.5436 62.7966 24.5481 62.8335C24.5539 62.797 24.6014 62.7687 24.6597 62.7687C24.7179 62.7687 24.7667 62.7978 24.7712 62.8347C24.777 62.7982 24.8245 62.7699 24.8828 62.7699C24.941 62.7699 24.9906 62.7995 24.9947 62.8372C24.9984 62.7999 25.0472 62.7699 25.1067 62.7699C25.1407 62.7699 25.1711 62.7798 25.1916 62.795C25.1325 62.5538 24.9152 62.375 24.656 62.375Z" fill="#6E4125"/>
<path d="M24.6893 62.3457C24.6893 62.3318 24.6778 62.3203 24.6639 62.3203C24.6499 62.3203 24.6384 62.3318 24.6384 62.3457L24.6372 63.2718C24.6372 63.2857 24.6487 63.2972 24.6626 63.2972C24.6766 63.2972 24.6881 63.2857 24.6881 63.2718L24.6893 62.3457Z" fill="#6E4125"/>
<path d="M24.499 63.2137C24.5093 63.2039 24.5093 63.1875 24.499 63.1776C24.4892 63.1674 24.4728 63.1674 24.463 63.1776C24.4371 63.203 24.4236 63.2371 24.4236 63.2707C24.4236 63.3047 24.4359 63.3384 24.4613 63.3646C24.4867 63.3905 24.5208 63.404 24.5544 63.404C24.588 63.404 24.6221 63.3917 24.6483 63.3663C24.661 63.3535 24.6709 63.3388 24.6779 63.3224C24.6844 63.3064 24.6881 63.2888 24.6877 63.2707C24.6877 63.2568 24.6762 63.2453 24.6619 63.2453C24.6479 63.2453 24.6364 63.2568 24.6364 63.2711C24.6364 63.2822 24.6344 63.2929 24.6303 63.3031C24.6262 63.3129 24.62 63.322 24.6122 63.3298C24.5962 63.3453 24.5753 63.3531 24.5548 63.3531C24.5343 63.3531 24.5134 63.3449 24.4978 63.3289C24.4822 63.3129 24.4744 63.292 24.4744 63.2715C24.4744 63.251 24.4826 63.2301 24.4986 63.2145L24.499 63.2137Z" fill="#6E4125"/>
<path d="M20.2896 51.4375H17.3799V63.8766H20.2896V51.4375Z" fill="#F59153"/>
<path d="M19.9817 50.416H2.00488V52.3198H19.9817V50.416Z" fill="#F7934F"/>
<path d="M19.9817 38.8457H4.91455V51.2848H19.9817V38.8457Z" fill="#FFB778"/>
<path d="M14.14 47.0215H10.7566V51.2862H14.14V47.0215Z" fill="#FFCFA8"/>
<path d="M14.14 38.8457H10.7566V43.1105H14.14V38.8457Z" fill="#FFCFA8"/>
<path fill-rule="evenodd" clip-rule="evenodd" d="M8.23337 49.9924C8.23337 49.9924 8.23337 49.9915 8.23255 49.9919C8.23337 49.9936 8.23378 49.9948 8.23337 49.9924ZM8.06482 50.3311H8.09106C8.12715 50.3291 8.15627 50.32 8.17924 50.2983L8.22271 50.2335C8.23091 50.2224 8.24075 50.2081 8.24568 50.1941C8.24978 50.1822 8.25101 50.1691 8.24486 50.1564L8.18457 50.0403L8.17555 50.0231L8.19195 50.0124L8.22025 49.994L7.97869 49.9481L7.90159 50.1744L7.92907 50.1564L7.94752 50.1445L7.95901 50.163L8.06441 50.3307L8.06482 50.3311ZM7.76256 50.3311H8.01396L7.9344 50.2044L7.89954 50.2273L7.89708 50.229L7.89462 50.2298C7.89011 50.2315 7.88478 50.2323 7.87945 50.2314C7.87206 50.2306 7.86509 50.2273 7.85976 50.2208C7.85525 50.2155 7.85238 50.2085 7.85197 50.1991C7.85197 50.1913 7.85361 50.181 7.85853 50.1675L7.94383 49.9161L7.94998 49.8984L7.96844 49.9017L8.22927 49.9513C8.25962 49.9579 8.27274 49.9694 8.27602 49.9829C8.27972 49.9993 8.26946 50.0112 8.25675 50.0211L8.25552 50.0223L8.23255 50.0375L8.28423 50.1367C8.29612 50.1617 8.29489 50.1863 8.2871 50.2081C8.28012 50.2278 8.26864 50.2446 8.25839 50.2581L8.05866 50.5759C8.02832 50.6309 7.99059 50.6485 7.94629 50.6465H7.71704V50.3816C7.71704 50.3405 7.73304 50.3319 7.76297 50.3307L7.76256 50.3311Z" fill="#6E4125"/>
<path d="M7.28105 49.7677C7.28105 49.7677 7.28064 49.7685 7.28105 49.7685C7.28228 49.7669 7.2831 49.7656 7.28105 49.7677ZM7.69813 49.7398L7.62062 49.9051L7.65876 49.9219L7.66163 49.9231L7.66368 49.9248C7.66737 49.9276 7.67106 49.9317 7.67352 49.9366C7.6768 49.9432 7.67762 49.9506 7.67516 49.9588C7.67311 49.9654 7.6686 49.9715 7.66122 49.9768C7.65466 49.9813 7.64523 49.9854 7.63128 49.9883L7.37332 50.0523L7.35528 50.0568L7.3483 50.0396L7.24906 49.7935C7.23798 49.7644 7.24085 49.7472 7.2507 49.7373C7.26259 49.7254 7.27818 49.7275 7.29335 49.7328L7.29499 49.7336L7.32001 49.7451L7.37578 49.6483C7.39055 49.625 7.41187 49.6127 7.43402 49.6073C7.45452 49.6024 7.47462 49.6032 7.49184 49.6045H7.84249L7.6809 49.6516L7.48979 49.6475H7.48856C7.47503 49.6463 7.45862 49.6459 7.44427 49.6492C7.43197 49.652 7.42048 49.6582 7.41269 49.6705L7.34748 49.7841L7.33764 49.8009L7.32001 49.7927L7.28925 49.7788L7.38111 50.0068L7.61324 49.9494L7.5833 49.9358L7.5632 49.9268L7.57264 49.9071L7.65958 49.7222L7.69854 49.7402L7.69813 49.7398Z" fill="#6E4125"/>
<path fill-rule="evenodd" clip-rule="evenodd" d="M7.82007 49.9791L7.6429 49.7027C7.61993 49.6711 7.59451 49.6506 7.56006 49.6445L7.67694 49.6059L7.86641 49.5981C7.92957 49.594 7.96484 49.6162 7.98698 49.6543L8.11084 49.8471L7.88774 49.9902C7.85288 50.0119 7.83729 50.0033 7.82007 49.9791Z" fill="#6E4125"/>
<path fill-rule="evenodd" clip-rule="evenodd" d="M7.54192 50.6986H7.54274C7.54069 50.6986 7.53946 50.6982 7.54192 50.6986ZM7.33563 50.3816L7.32251 50.4042C7.30569 50.4362 7.29913 50.4661 7.3061 50.4969L7.33973 50.567V50.5682C7.34547 50.5809 7.35244 50.5957 7.36188 50.6072C7.37008 50.6166 7.38074 50.6244 7.3951 50.6256L7.52592 50.6326L7.5452 50.6338L7.54602 50.6531L7.54766 50.6871L7.70965 50.5022L7.5534 50.3209L7.55504 50.3537L7.55627 50.3755L7.53453 50.3763L7.33604 50.382L7.33563 50.3816ZM7.48901 50.1212L7.36147 50.3377L7.51075 50.3332L7.5087 50.2918V50.2889V50.2865C7.50952 50.2815 7.51157 50.2766 7.51485 50.2725C7.51936 50.2668 7.52551 50.2623 7.53412 50.261C7.5411 50.2598 7.54848 50.261 7.55668 50.2655C7.56365 50.2692 7.57144 50.2762 7.58047 50.2869L7.75394 50.4882L7.76625 50.5026L7.75394 50.5165L7.57924 50.7163C7.55832 50.7392 7.54151 50.7446 7.52838 50.7405C7.51239 50.7351 7.50706 50.7204 7.50501 50.7044V50.7027L7.50377 50.6753L7.39222 50.6691C7.36475 50.6666 7.34424 50.6531 7.32907 50.6355C7.31553 50.6195 7.30692 50.601 7.30036 50.5854L7.1277 50.252C7.09571 50.1979 7.09981 50.1565 7.1236 50.1195L7.23966 49.9219L7.4681 50.0564C7.50337 50.0777 7.50296 50.0954 7.48901 50.1216V50.1212Z" fill="#6E4125"/>
<path d="M8.30951 49.373H7.0882C7.00412 49.373 6.93481 49.4448 6.93481 49.5322V50.8031C6.93481 50.8909 7.00412 50.9618 7.0882 50.9618H8.30951C8.39317 50.9618 8.46166 50.8905 8.46166 50.8031V49.5322C8.46166 49.4448 8.39317 49.373 8.30951 49.373ZM8.37062 50.7826C8.37062 50.8285 8.33412 50.8667 8.28983 50.8667H7.10788C7.06318 50.8667 7.02709 50.8281 7.02709 50.7826V49.5527C7.02709 49.5059 7.06318 49.4686 7.10788 49.4686H8.28983C8.33371 49.4686 8.37062 49.5059 8.37062 49.5527V50.7826Z" fill="#6E4125"/>
<path d="M6.50563 50.7784H5.71002C5.69443 50.7784 5.68213 50.7661 5.68213 50.7505C5.68213 50.735 5.69443 50.7227 5.71002 50.7227H6.50563C6.52122 50.7227 6.53352 50.735 6.53352 50.7505C6.53352 50.7661 6.52122 50.7784 6.50563 50.7784Z" fill="#6E4125"/>
<path fill-rule="evenodd" clip-rule="evenodd" d="M5.98593 49.7742V50.6047H5.81778V49.7738L5.73535 49.7734L5.90514 49.5605L6.07451 49.7746L5.98593 49.7742Z" fill="#6E4125"/>
<path fill-rule="evenodd" clip-rule="evenodd" d="M6.39894 49.7742V50.6047H6.23079V49.7738L6.14795 49.7734L6.31815 49.5605L6.48711 49.7746L6.39894 49.7742Z" fill="#6E4125"/>
<path d="M6.71942 49.373H5.49811C5.41404 49.373 5.34473 49.4448 5.34473 49.5322V50.8031C5.34473 50.8909 5.41404 50.9618 5.49811 50.9618H6.71942C6.80309 50.9618 6.87157 50.8905 6.87157 50.8031V49.5322C6.87157 49.4448 6.80309 49.373 6.71942 49.373ZM6.78053 50.7826C6.78053 50.8285 6.74362 50.8667 6.69974 50.8667H5.51779C5.47309 50.8667 5.437 50.8281 5.437 50.7826V49.5527C5.437 49.5059 5.47309 49.4686 5.51779 49.4686H6.69974C6.74362 49.4686 6.78053 49.5059 6.78053 49.5527V50.7826Z" fill="#6E4125"/>
<path d="M9.89935 49.373H8.67804C8.59397 49.373 8.52466 49.4448 8.52466 49.5322V50.8031C8.52466 50.8909 8.59397 50.9618 8.67804 50.9618H9.89935C9.98302 50.9618 10.0515 50.8905 10.0515 50.8031V49.5322C10.0515 49.4448 9.98302 49.373 9.89935 49.373ZM9.96046 50.7826C9.96046 50.8285 9.92396 50.8667 9.87967 50.8667H8.69773C8.65302 50.8667 8.61693 50.8281 8.61693 50.7826V49.5527C8.61693 49.5059 8.65302 49.4686 8.69773 49.4686H9.87967C9.92355 49.4686 9.96046 49.5059 9.96046 49.5527V50.7826Z" fill="#6E4125"/>
<path fill-rule="evenodd" clip-rule="evenodd" d="M9.28122 49.7852C9.02039 49.7852 8.80221 49.966 8.74438 50.2092C8.76448 50.1891 8.79934 50.176 8.83871 50.176C8.89736 50.176 8.94575 50.2051 8.95026 50.242C8.956 50.2059 9.00358 50.1776 9.06181 50.1776C9.12005 50.1776 9.16885 50.2068 9.17336 50.2437C9.1791 50.2072 9.22668 50.1789 9.28491 50.1789C9.34315 50.1789 9.39195 50.208 9.39646 50.2449C9.4022 50.2084 9.44978 50.1801 9.50801 50.1801C9.56625 50.1801 9.61587 50.2096 9.61997 50.2474C9.62367 50.21 9.67247 50.1801 9.73193 50.1801C9.76597 50.1801 9.79632 50.1899 9.81683 50.2051C9.75777 49.964 9.54041 49.7852 9.28122 49.7852Z" fill="#6E4125"/>
<path d="M9.31405 49.7598C9.31405 49.7459 9.30256 49.7344 9.28862 49.7344C9.27468 49.7344 9.26319 49.7459 9.26319 49.7598L9.26196 50.6858C9.26196 50.6998 9.27345 50.7113 9.28739 50.7113C9.30133 50.7113 9.31282 50.6998 9.31282 50.6858L9.31405 49.7598Z" fill="#6E4125"/>
<path d="M9.12429 50.6239C9.13454 50.614 9.13454 50.5976 9.12429 50.5878C9.11445 50.5775 9.09804 50.5775 9.0882 50.5878C9.06236 50.6132 9.04883 50.6472 9.04883 50.6809C9.04883 50.7149 9.06113 50.7485 9.08656 50.7748C9.11198 50.8006 9.14602 50.8142 9.17965 50.8142C9.21328 50.8142 9.24732 50.8018 9.27357 50.7764C9.28628 50.7637 9.29613 50.7489 9.3031 50.7325C9.30966 50.7165 9.31335 50.6989 9.31294 50.6809C9.31294 50.6669 9.30146 50.6554 9.2871 50.6554C9.27316 50.6554 9.26168 50.6669 9.26168 50.6813C9.26168 50.6923 9.25962 50.703 9.25552 50.7133C9.25142 50.7231 9.24527 50.7321 9.23748 50.7399C9.22148 50.7555 9.20057 50.7633 9.18006 50.7633C9.15956 50.7633 9.13864 50.7551 9.12306 50.7391C9.10747 50.7231 9.09968 50.7022 9.09968 50.6817C9.09968 50.6612 9.10788 50.6403 9.12388 50.6247L9.12429 50.6239Z" fill="#6E4125"/>
<path d="M4.91463 38.8457H2.00488V51.2848H4.91463V38.8457Z" fill="#F59153"/>
<path d="M19.9817 51.4375H4.91455V63.8766H19.9817V51.4375Z" fill="#FFB778"/>
<path d="M14.14 59.6133H10.7566V63.878H14.14V59.6133Z" fill="#FFCFA8"/>
<path d="M14.14 51.4375H10.7566V55.7023H14.14V51.4375Z" fill="#FFCFA8"/>
<path fill-rule="evenodd" clip-rule="evenodd" d="M8.23313 62.5802C8.23313 62.5802 8.23313 62.5794 8.23231 62.5798C8.23313 62.5815 8.23354 62.5827 8.23313 62.5802ZM8.06457 62.919H8.09082C8.12691 62.9169 8.15603 62.9079 8.17899 62.8862L8.22246 62.8214C8.23067 62.8103 8.24051 62.796 8.24543 62.782C8.24953 62.7701 8.25076 62.757 8.24461 62.7443L8.18432 62.6282L8.1753 62.611L8.19171 62.6003L8.22 62.5819L7.97845 62.536L7.90135 62.7623L7.92883 62.7443L7.94728 62.7324L7.95876 62.7509L8.06416 62.919H8.06457ZM7.76232 62.919H8.01372L7.93416 62.7923L7.8993 62.8152L7.89684 62.8169L7.89437 62.8177C7.88986 62.8193 7.88453 62.8202 7.8792 62.8193C7.87182 62.8185 7.86485 62.8152 7.85952 62.8087C7.85501 62.8033 7.85213 62.7964 7.85172 62.7869C7.85172 62.7791 7.85336 62.7689 7.85829 62.7554L7.94359 62.504L7.94974 62.4863L7.9682 62.4896L8.22903 62.5392C8.25937 62.5458 8.2725 62.5573 8.27578 62.5708C8.27947 62.5872 8.26922 62.5991 8.2565 62.609L8.25527 62.6102L8.23231 62.6254L8.28398 62.7246C8.29587 62.7496 8.29464 62.7742 8.28685 62.796C8.27988 62.8157 8.2684 62.8325 8.25815 62.846L8.05842 63.1638C8.02807 63.2188 7.99034 63.2364 7.94605 63.2344H7.7168V62.9694C7.7168 62.9284 7.73279 62.9198 7.76273 62.9186L7.76232 62.919Z" fill="#6E4125"/>
<path d="M7.2808 62.3517C7.2808 62.3517 7.28039 62.3525 7.2808 62.3525C7.28203 62.3508 7.28285 62.3496 7.2808 62.3517ZM7.69789 62.3238L7.62037 62.4891L7.65851 62.5059L7.66139 62.5071L7.66344 62.5087C7.66713 62.5116 7.67082 62.5157 7.67328 62.5206C7.67656 62.5272 7.67738 62.5346 7.67492 62.5428C7.67287 62.5493 7.66836 62.5555 7.66097 62.5608C7.65441 62.5653 7.64498 62.5694 7.63104 62.5723L7.37308 62.6363L7.35503 62.6408L7.34806 62.6236L7.24881 62.3775C7.23774 62.3484 7.24061 62.3312 7.25045 62.3213C7.26235 62.3094 7.27793 62.3115 7.29311 62.3168L7.29474 62.3176L7.31976 62.3291L7.37554 62.2323C7.3903 62.2089 7.41163 62.1966 7.43377 62.1913C7.45428 62.1864 7.47437 62.1872 7.4916 62.1884H7.84224L7.68066 62.2356L7.48955 62.2315H7.48832C7.47478 62.2303 7.45838 62.2299 7.44403 62.2331C7.43172 62.236 7.42024 62.2422 7.41245 62.2545L7.34724 62.3681L7.3374 62.3849L7.31976 62.3767L7.289 62.3627L7.38087 62.5908L7.61299 62.5333L7.58305 62.5198L7.56296 62.5108L7.57239 62.4911L7.65934 62.3061L7.6983 62.3246L7.69789 62.3238Z" fill="#6E4125"/>
<path fill-rule="evenodd" clip-rule="evenodd" d="M7.81983 62.567L7.64266 62.2906C7.61969 62.259 7.59426 62.2385 7.55981 62.2324L7.6767 62.1938L7.86617 62.186C7.92932 62.1819 7.96459 62.2041 7.98674 62.2422L8.11059 62.435L7.88749 62.5781C7.85263 62.5998 7.83705 62.5912 7.81983 62.567Z" fill="#6E4125"/>
<path fill-rule="evenodd" clip-rule="evenodd" d="M7.54167 63.2865H7.54249C7.54044 63.2865 7.53921 63.2861 7.54167 63.2865ZM7.33539 62.9695L7.32226 62.9921C7.30545 63.024 7.29889 63.054 7.30586 63.0847L7.33949 63.1549V63.1561C7.34523 63.1688 7.3522 63.1836 7.36163 63.1951C7.36983 63.2045 7.3805 63.2123 7.39485 63.2135L7.52568 63.2205L7.54495 63.2217L7.54577 63.241L7.54741 63.2746L7.70941 63.0897L7.55316 62.9084L7.55479 62.9412L7.55603 62.9629L7.53429 62.9638L7.3358 62.9695H7.33539ZM7.48877 62.7091L7.36122 62.9256L7.5105 62.9211L7.50845 62.8797V62.8768V62.8744C7.50927 62.8694 7.51132 62.8645 7.5146 62.8604C7.51912 62.8547 7.52527 62.8502 7.53388 62.8489C7.54085 62.8477 7.54823 62.8489 7.55644 62.8534C7.56341 62.8571 7.5712 62.8641 7.58022 62.8748L7.7537 63.0757L7.766 63.0901L7.7537 63.104L7.57899 63.3037C7.55808 63.3267 7.54126 63.332 7.52814 63.3279C7.51214 63.3226 7.50681 63.3078 7.50476 63.2918V63.2902L7.50353 63.2627L7.39198 63.257C7.3645 63.2545 7.344 63.241 7.32882 63.2234C7.31529 63.2074 7.30668 63.1889 7.30012 63.1733L7.12746 62.8399C7.09547 62.7858 7.09957 62.7443 7.12336 62.7074L7.23942 62.5098L7.46785 62.6443C7.50312 62.6656 7.50271 62.6832 7.48877 62.7095V62.7091Z" fill="#6E4125"/>
<path d="M8.30951 61.9629H7.0882C7.00412 61.9629 6.93481 62.0347 6.93481 62.122V63.393C6.93481 63.4807 7.00412 63.5517 7.0882 63.5517H8.30951C8.39317 63.5517 8.46166 63.4803 8.46166 63.393V62.122C8.46166 62.0347 8.39317 61.9629 8.30951 61.9629ZM8.37062 63.3724C8.37062 63.4184 8.33412 63.4565 8.28983 63.4565H7.10788C7.06318 63.4565 7.02709 63.418 7.02709 63.3724V62.1425C7.02709 62.0958 7.06318 62.0584 7.10788 62.0584H8.28983C8.33371 62.0584 8.37062 62.0958 8.37062 62.1425V63.3724Z" fill="#6E4125"/>
<path d="M6.50588 63.3644H5.71026C5.69468 63.3644 5.68237 63.3521 5.68237 63.3365C5.68237 63.3209 5.69468 63.3086 5.71026 63.3086H6.50588C6.52146 63.3086 6.53377 63.3209 6.53377 63.3365C6.53377 63.3521 6.52146 63.3644 6.50588 63.3644Z" fill="#6E4125"/>
<path fill-rule="evenodd" clip-rule="evenodd" d="M5.98617 62.3602V63.1906H5.81803V62.3593H5.7356L5.90538 62.1465L6.07476 62.3602H5.98617Z" fill="#6E4125"/>
<path fill-rule="evenodd" clip-rule="evenodd" d="M6.39918 62.3602V63.1906H6.23104V62.3593H6.14819L6.31839 62.1465L6.48736 62.3602H6.39918Z" fill="#6E4125"/>
<path d="M6.71942 61.9629H5.49811C5.41404 61.9629 5.34473 62.0347 5.34473 62.122V63.393C5.34473 63.4807 5.41404 63.5517 5.49811 63.5517H6.71942C6.80309 63.5517 6.87157 63.4803 6.87157 63.393V62.122C6.87157 62.0347 6.80309 61.9629 6.71942 61.9629ZM6.78053 63.3724C6.78053 63.4184 6.74362 63.4565 6.69974 63.4565H5.51779C5.47309 63.4565 5.437 63.418 5.437 63.3724V62.1425C5.437 62.0958 5.47309 62.0584 5.51779 62.0584H6.69974C6.74362 62.0584 6.78053 62.0958 6.78053 62.1425V63.3724Z" fill="#6E4125"/>
<path d="M9.89935 61.9629H8.67804C8.59397 61.9629 8.52466 62.0347 8.52466 62.122V63.393C8.52466 63.4807 8.59397 63.5517 8.67804 63.5517H9.89935C9.98302 63.5517 10.0515 63.4803 10.0515 63.393V62.122C10.0515 62.0347 9.98302 61.9629 9.89935 61.9629ZM9.96046 63.3724C9.96046 63.4184 9.92396 63.4565 9.87967 63.4565H8.69773C8.65302 63.4565 8.61693 63.418 8.61693 63.3724V62.1425C8.61693 62.0958 8.65302 62.0584 8.69773 62.0584H9.87967C9.92355 62.0584 9.96046 62.0958 9.96046 62.1425V63.3724Z" fill="#6E4125"/>
<path fill-rule="evenodd" clip-rule="evenodd" d="M9.28122 62.375C9.02039 62.375 8.80221 62.5559 8.74438 62.7991C8.76448 62.779 8.79934 62.7658 8.83871 62.7658C8.89736 62.7658 8.94575 62.795 8.95026 62.8319C8.956 62.7958 9.00358 62.7675 9.06181 62.7675C9.12005 62.7675 9.16885 62.7966 9.17336 62.8335C9.1791 62.797 9.22668 62.7687 9.28491 62.7687C9.34315 62.7687 9.39195 62.7978 9.39646 62.8347C9.4022 62.7982 9.44978 62.7699 9.50801 62.7699C9.56625 62.7699 9.61587 62.7995 9.61997 62.8372C9.62367 62.7999 9.67247 62.7699 9.73193 62.7699C9.76597 62.7699 9.79632 62.7798 9.81683 62.795C9.75777 62.5538 9.54041 62.375 9.28122 62.375Z" fill="#6E4125"/>
<path d="M9.31405 62.3457C9.31405 62.3318 9.30256 62.3203 9.28862 62.3203C9.27468 62.3203 9.26319 62.3318 9.26319 62.3457L9.26196 63.2718C9.26196 63.2857 9.27345 63.2972 9.28739 63.2972C9.30133 63.2972 9.31282 63.2857 9.31282 63.2718L9.31405 62.3457Z" fill="#6E4125"/>
<path d="M9.12429 63.2137C9.13454 63.2039 9.13454 63.1875 9.12429 63.1776C9.11445 63.1674 9.09804 63.1674 9.0882 63.1776C9.06236 63.203 9.04883 63.2371 9.04883 63.2707C9.04883 63.3047 9.06113 63.3384 9.08656 63.3646C9.11198 63.3905 9.14602 63.404 9.17965 63.404C9.21328 63.404 9.24732 63.3917 9.27357 63.3663C9.28628 63.3535 9.29613 63.3388 9.3031 63.3224C9.30966 63.3064 9.31335 63.2888 9.31294 63.2707C9.31294 63.2568 9.30146 63.2453 9.2871 63.2453C9.27316 63.2453 9.26168 63.2568 9.26168 63.2711C9.26168 63.2822 9.25962 63.2929 9.25552 63.3031C9.25142 63.3129 9.24527 63.322 9.23748 63.3298C9.22148 63.3453 9.20057 63.3531 9.18006 63.3531C9.15956 63.3531 9.13864 63.3449 9.12306 63.3289C9.10747 63.3129 9.09968 63.292 9.09968 63.2715C9.09968 63.251 9.10788 63.2301 9.12388 63.2145L9.12429 63.2137Z" fill="#6E4125"/>
<path d="M4.91463 51.4375H2.00488V63.8766H4.91463V51.4375Z" fill="#F59153"/>
<path d="M18.6537 36.8652H15.6177V38.2969H18.6537V36.8652Z" fill="#FDF3E9"/>
<path d="M15.8642 37.4648H15.8149V38.1928H15.8642V37.4648Z" fill="#7A8581"/>
<path d="M16.0988 37.4648H16.0496V38.1928H16.0988V37.4648Z" fill="#7A8581"/>
<path d="M16.3334 37.4648H16.2842V38.1928H16.3334V37.4648Z" fill="#7A8581"/>
<path d="M16.5675 37.4648H16.5183V38.1928H16.5675V37.4648Z" fill="#7A8581"/>
<path d="M16.8021 37.4648H16.7529V38.1928H16.8021V37.4648Z" fill="#7A8581"/>
<path d="M17.0368 37.4648H16.9875V38.1928H17.0368V37.4648Z" fill="#7A8581"/>
<path d="M17.2711 37.4648H17.2219V38.1928H17.2711V37.4648Z" fill="#7A8581"/>
<path d="M17.5055 37.4648H17.4563V38.1928H17.5055V37.4648Z" fill="#7A8581"/>
<path d="M17.7399 37.4648H17.6907V38.1928H17.7399V37.4648Z" fill="#7A8581"/>
<path d="M17.9745 37.4648H17.9253V38.1928H17.9745V37.4648Z" fill="#7A8581"/>
<path d="M18.2091 37.4648H18.1599V38.1928H18.2091V37.4648Z" fill="#7A8581"/>
<path d="M18.4433 37.4648H18.394V38.1928H18.4433V37.4648Z" fill="#7A8581"/>
<path d="M33.7612 36.8652H30.7251V38.2969H33.7612V36.8652Z" fill="#FDF3E9"/>
<path d="M30.9716 37.4648H30.9224V38.1928H30.9716V37.4648Z" fill="#7A8581"/>
<path d="M31.2062 37.4648H31.157V38.1928H31.2062V37.4648Z" fill="#7A8581"/>
<path d="M31.4408 37.4648H31.3916V38.1928H31.4408V37.4648Z" fill="#7A8581"/>
<path d="M31.6752 37.4648H31.626V38.1928H31.6752V37.4648Z" fill="#7A8581"/>
<path d="M31.9096 37.4648H31.8604V38.1928H31.9096V37.4648Z" fill="#7A8581"/>
<path d="M32.1442 37.4648H32.095V38.1928H32.1442V37.4648Z" fill="#7A8581"/>
<path d="M32.3786 37.4648H32.3293V38.1928H32.3786V37.4648Z" fill="#7A8581"/>
<path d="M32.6132 37.4648H32.564V38.1928H32.6132V37.4648Z" fill="#7A8581"/>
<path d="M32.8473 37.4648H32.7981V38.1928H32.8473V37.4648Z" fill="#7A8581"/>
<path d="M33.0819 37.4648H33.0327V38.1928H33.0819V37.4648Z" fill="#7A8581"/>
<path d="M33.3165 37.4648H33.2673V38.1928H33.3165V37.4648Z" fill="#7A8581"/>
<path d="M33.5512 37.4648H33.502V38.1928H33.5512V37.4648Z" fill="#7A8581"/>
<path d="M18.6923 49.4688H15.6562V50.9005H18.6923V49.4688Z" fill="#FDF3E9"/>
<path d="M15.9027 50.0684H15.8535V50.7963H15.9027V50.0684Z" fill="#7A8581"/>
<path d="M16.1373 50.0684H16.0881V50.7963H16.1373V50.0684Z" fill="#7A8581"/>
<path d="M16.372 50.0684H16.3228V50.7963H16.372V50.0684Z" fill="#7A8581"/>
<path d="M16.6066 50.0684H16.5574V50.7963H16.6066V50.0684Z" fill="#7A8581"/>
<path d="M16.8407 50.0684H16.7915V50.7963H16.8407V50.0684Z" fill="#7A8581"/>
<path d="M17.0753 50.0684H17.0261V50.7963H17.0753V50.0684Z" fill="#7A8581"/>
<path d="M17.31 50.0684H17.2607V50.7963H17.31V50.0684Z" fill="#7A8581"/>
<path d="M17.5443 50.0684H17.4951V50.7963H17.5443V50.0684Z" fill="#7A8581"/>
<path d="M17.7787 50.0684H17.7295V50.7963H17.7787V50.0684Z" fill="#7A8581"/>
<path d="M18.0131 50.0684H17.9639V50.7963H18.0131V50.0684Z" fill="#7A8581"/>
<path d="M18.2477 50.0684H18.1985V50.7963H18.2477V50.0684Z" fill="#7A8581"/>
<path d="M18.4823 50.0684H18.4331V50.7963H18.4823V50.0684Z" fill="#7A8581"/>
<path d="M33.7997 49.4688H30.7637V50.9005H33.7997V49.4688Z" fill="#FDF3E9"/>
<path d="M31.0106 50.0684H30.9614V50.7963H31.0106V50.0684Z" fill="#7A8581"/>
<path d="M31.2448 50.0684H31.1956V50.7963H31.2448V50.0684Z" fill="#7A8581"/>
<path d="M31.4794 50.0684H31.4302V50.7963H31.4794V50.0684Z" fill="#7A8581"/>
<path d="M31.714 50.0684H31.6648V50.7963H31.714V50.0684Z" fill="#7A8581"/>
<path d="M31.9484 50.0684H31.8992V50.7963H31.9484V50.0684Z" fill="#7A8581"/>
<path d="M32.1828 50.0684H32.1335V50.7963H32.1828V50.0684Z" fill="#7A8581"/>
<path d="M32.4174 50.0684H32.3682V50.7963H32.4174V50.0684Z" fill="#7A8581"/>
<path d="M32.6518 50.0684H32.6025V50.7963H32.6518V50.0684Z" fill="#7A8581"/>
<path d="M32.8864 50.0684H32.8372V50.7963H32.8864V50.0684Z" fill="#7A8581"/>
<path d="M33.1205 50.0684H33.0713V50.7963H33.1205V50.0684Z" fill="#7A8581"/>
<path d="M33.3551 50.0684H33.3059V50.7963H33.3551V50.0684Z" fill="#7A8581"/>
<path d="M33.5897 50.0684H33.5405V50.7963H33.5897V50.0684Z" fill="#7A8581"/>
<path d="M18.6923 61.9883H15.6562V63.42H18.6923V61.9883Z" fill="#FDF3E9"/>
<path d="M15.9027 62.5879H15.8535V63.3158H15.9027V62.5879Z" fill="#7A8581"/>
<path d="M16.1373 62.5879H16.0881V63.3158H16.1373V62.5879Z" fill="#7A8581"/>
<path d="M16.372 62.5879H16.3228V63.3158H16.372V62.5879Z" fill="#7A8581"/>
<path d="M16.6066 62.5879H16.5574V63.3158H16.6066V62.5879Z" fill="#7A8581"/>
<path d="M16.8407 62.5879H16.7915V63.3158H16.8407V62.5879Z" fill="#7A8581"/>
<path d="M17.0753 62.5879H17.0261V63.3158H17.0753V62.5879Z" fill="#7A8581"/>
<path d="M17.31 62.5879H17.2607V63.3158H17.31V62.5879Z" fill="#7A8581"/>
<path d="M17.5443 62.5879H17.4951V63.3158H17.5443V62.5879Z" fill="#7A8581"/>
<path d="M17.7787 62.5879H17.7295V63.3158H17.7787V62.5879Z" fill="#7A8581"/>
<path d="M18.0131 62.5879H17.9639V63.3158H18.0131V62.5879Z" fill="#7A8581"/>
<path d="M18.2477 62.5879H18.1985V63.3158H18.2477V62.5879Z" fill="#7A8581"/>
<path d="M18.4823 62.5879H18.4331V63.3158H18.4823V62.5879Z" fill="#7A8581"/>
<path d="M33.7997 61.9883H30.7637V63.42H33.7997V61.9883Z" fill="#FDF3E9"/>
<path d="M31.0106 62.5879H30.9614V63.3158H31.0106V62.5879Z" fill="#7A8581"/>
<path d="M31.2448 62.5879H31.1956V63.3158H31.2448V62.5879Z" fill="#7A8581"/>
<path d="M31.4794 62.5879H31.4302V63.3158H31.4794V62.5879Z" fill="#7A8581"/>
<path d="M31.7138 62.5879H31.6646V63.3158H31.7138V62.5879Z" fill="#7A8581"/>
<path d="M31.9484 62.5879H31.8992V63.3158H31.9484V62.5879Z" fill="#7A8581"/>
<path d="M32.1828 62.5879H32.1335V63.3158H32.1828V62.5879Z" fill="#7A8581"/>
<path d="M32.4171 62.5879H32.3679V63.3158H32.4171V62.5879Z" fill="#7A8581"/>
<path d="M32.6518 62.5879H32.6025V63.3158H32.6518V62.5879Z" fill="#7A8581"/>
<path d="M32.8864 62.5879H32.8372V63.3158H32.8864V62.5879Z" fill="#7A8581"/>
<path d="M33.1205 62.5879H33.0713V63.3158H33.1205V62.5879Z" fill="#7A8581"/>
<path d="M33.3551 62.5879H33.3059V63.3158H33.3551V62.5879Z" fill="#7A8581"/>
<path d="M33.5897 62.5879H33.5405V63.3158H33.5897V62.5879Z" fill="#7A8581"/>
<g style="mix-blend-mode:multiply">
<path d="M58.0147 69.7592C63.4015 69.7592 67.7684 69.0073 67.7684 68.0798C67.7684 67.1523 63.4015 66.4004 58.0147 66.4004C52.6279 66.4004 48.261 67.1523 48.261 68.0798C48.261 69.0073 52.6279 69.7592 58.0147 69.7592Z" fill="#CCE0F0"/>
</g>
<path opacity="0.4" d="M31.786 23.9531C31.8631 23.9531 31.9369 23.9654 32.0083 23.9868L37.3311 24.7902V25.0112L32.0366 25.8946C31.957 25.9217 31.8733 25.9364 31.786 25.9364C31.3029 25.9364 30.9116 25.4927 30.9116 24.9448C30.9116 24.3969 31.3033 23.9531 31.786 23.9531Z" fill="#E63D2A"/>
<path d="M40.4336 28.0715C40.2811 28.0247 40.0084 28.3143 39.8624 28.3778C39.6909 28.4521 39.6122 28.6473 39.5515 28.824C39.4752 29.0476 39.4002 29.2821 39.4338 29.5163C39.4752 29.8046 39.3489 30.1278 39.5933 30.2869C39.8378 30.446 40.4386 30.5547 40.7174 30.6392C40.7211 30.6404 42.3411 31.0542 42.8238 31.2166C43.0748 30.8516 43.4496 29.7349 43.4714 29.5208C43.238 29.438 43.1572 29.3695 42.8709 29.2793C41.5721 28.8708 41.29 28.3352 40.4336 28.0715Z" fill="#FEBAA5"/>
<path d="M38.3508 26.1016C38.3508 26.1016 38.8725 26.4358 38.909 26.9542C38.9274 27.2158 38.7724 27.5849 38.7786 27.7523C38.7847 27.9184 39.4872 29.2201 39.4918 30.6788C39.4942 31.4433 38.4652 31.5171 38.5579 32.3303C38.5809 32.5325 38.8577 32.7064 39.0562 32.6609C39.3326 32.5977 40.944 32.229 41.3561 32.1351C41.706 32.0552 41.8274 31.5556 41.7384 31.1915C41.7166 31.1029 41.4033 30.7576 41.3237 30.3151C41.293 30.1432 41.3016 29.3226 41.2331 28.479C41.1531 27.4931 41.0006 26.4772 41.0625 26.4387L38.3508 26.102V26.1016Z" fill="#5F7D88"/>
<path d="M39.3552 32.234C39.4516 31.4215 40.0786 31.6044 40.0766 30.84C40.0725 29.3812 39.3695 28.0795 39.3634 27.9134C39.3572 27.7461 39.5119 27.377 39.4938 27.1154C39.4729 26.8168 39.2929 26.5875 39.144 26.4465C38.9951 26.3054 38.3508 26.1016 38.3508 26.1016C38.3508 26.1016 38.8725 26.4358 38.909 26.9542C38.9274 27.2158 38.7724 27.5849 38.7786 27.7523C38.7847 27.9184 39.4872 29.2201 39.4918 30.6788C39.4942 31.4433 38.4652 31.5171 38.5579 32.3303C38.5809 32.5325 38.8577 32.7064 39.0562 32.6609C39.1546 32.6383 39.4233 32.5768 39.746 32.503C39.5233 32.4882 39.3179 32.5498 39.3556 32.234H39.3552Z" fill="#2F3E45"/>
<path d="M41.7994 25.7734C41.7854 25.8296 41.7649 25.8796 41.7387 25.9248C41.5927 26.1774 41.2769 26.2791 41.0624 26.4399L38.9803 26.259C38.9803 26.259 37.3173 25.8415 36.8489 25.7542C36.7029 25.7271 36.6311 25.3621 36.607 25.0561C36.602 24.9938 36.5992 24.9339 36.5979 24.8798C36.5963 24.7978 36.5938 24.7112 36.5946 24.6268C36.5983 24.3807 36.6344 24.1535 36.8104 24.1137C38.7723 23.6745 40.501 24.4397 40.9619 24.7026C41.3146 24.9032 41.6702 25.2071 41.7781 25.5036C41.8113 25.595 41.8211 25.6861 41.7994 25.773V25.7734Z" fill="#5F7D88"/>
<path d="M41.6783 25.9191L36.6446 25.066C36.5462 25.0492 36.4699 24.9836 36.4748 24.8306C36.4818 24.6137 36.668 24.6424 36.7119 24.6502L41.7493 25.5036C41.8518 25.5208 41.9326 25.6115 41.9256 25.7255C41.9183 25.8502 41.8018 25.94 41.6783 25.9191Z" fill="#2F3E45"/>
<path d="M41.472 27.8959C40.9467 27.5818 40.4582 27.6687 40.4771 28.0879C40.4984 28.5652 41.0152 27.9201 41.6184 29.0775C41.7558 29.3412 42.663 29.2866 42.9726 29.367C42.4329 29.0771 41.9736 28.1953 41.472 27.8955V27.8959Z" fill="#FEBAA5"/>
<path d="M38.6471 27.4567C38.4326 27.6502 38.3887 28.2375 38.3588 28.5652C38.2952 29.2616 38.4252 30.1536 39.0453 30.5321C39.2606 30.6633 39.7499 30.544 39.9824 30.4497C40.3933 30.2832 40.4061 29.6774 40.3646 29.2583C40.3409 29.0155 40.3216 27.6707 39.7351 27.4595C39.5313 27.3861 38.9493 27.1839 38.6471 27.4567Z" fill="#FEBAA5"/>
<path d="M57.137 24.981C57.696 25.8882 57.5053 26.1839 55.9317 28.1877C54.8084 29.6182 51.4779 33.8616 49.5225 33.4047C48.2191 33.1004 41.9346 31.1815 41.9346 31.1815L42.8204 29.2528C42.8204 29.2528 48.8122 30.6316 49.13 30.5725C49.5737 30.4901 51.9052 26.6842 53.1269 25.6786C53.7659 25.1529 56.1122 23.318 57.137 24.9806V24.981Z" fill="#F28D3F"/>
<path d="M58.2352 20.1608L57.8276 25.3281L61.737 25.6365L62.1446 20.4691L58.2352 20.1608Z" fill="#FAAF9E"/>
<path d="M56.4202 18.5427C56.4202 18.5501 56.4202 18.5579 56.421 18.5657C56.4255 18.6219 56.4493 18.6854 56.4788 18.7564C56.5309 18.8806 56.599 19.0258 56.6076 19.1923C56.6248 19.5278 56.4103 20.0937 56.4025 20.2853C56.3665 21.1535 56.6675 23.3349 57.3782 23.4325C58.8772 23.6379 59.7474 23.2155 60.5332 22.3637C60.7994 22.075 60.9679 21.5419 61.157 21.1969C61.8148 19.9961 62.0978 18.7113 62.0609 17.3423C62.0527 17.0437 62.0231 16.7325 61.864 16.4798C61.132 15.3188 58.9092 15.7051 58.3711 15.8335C57.5164 16.0386 56.891 16.6882 56.704 17.364C56.6478 17.5683 56.4317 18.0034 56.4202 18.5427Z" fill="#FEBAA5"/>
<path d="M59.7638 16.6347C60.0357 16.6564 60.3482 16.7483 60.4421 17.0042C60.5241 17.2281 60.399 17.4689 60.2883 17.6801C60.1776 17.8913 60.08 18.155 60.2063 18.3568C60.3342 18.561 60.6328 18.5975 60.7735 18.7935C60.9285 19.0092 60.8317 19.3279 60.965 19.5576C61.1015 19.793 61.4145 19.8418 61.6855 19.8651C61.9197 19.8857 62.1617 19.9049 62.384 19.8286C62.8909 19.6552 63.0955 19.1155 63.2136 18.6094C63.4375 17.6489 63.422 16.7914 62.8158 15.8522C62.1805 14.8687 60.7353 14.5189 58.7639 14.7978C58.022 14.9028 56.998 15.4085 56.8298 16.1385C56.8044 16.2496 56.8897 16.7631 56.9438 16.8631C57.2248 16.5211 57.3277 16.517 57.5028 16.5387C57.7321 16.5674 57.7661 16.7454 57.9954 16.7741C58.1791 16.7971 58.3563 16.8418 58.5347 16.784C58.9333 16.6548 59.3442 16.6007 59.7634 16.6339L59.7638 16.6347Z" fill="#294E95"/>
<path d="M61.4265 20.7611C61.4282 20.7111 61.431 20.6582 61.4355 20.6036C61.4888 19.9298 61.7476 18.9636 62.4079 19.0157C62.7983 19.0465 62.9374 19.2392 62.9103 19.5837C62.8713 20.0783 62.1668 21.3583 61.673 21.3193C61.4454 21.3012 61.4146 21.072 61.4327 20.8444C61.4433 20.7095 61.4729 20.5717 61.4839 20.433C61.4864 20.4011 61.488 20.3695 61.488 20.3375L61.4265 20.7611Z" fill="#FEBAA5"/>
<path d="M58.6403 21.681L57.0466 21.5547C57.0466 21.5547 57.0848 22.0661 57.6782 22.1887C58.4029 22.3384 58.6403 21.681 58.6403 21.681Z" fill="white"/>
<path d="M57.8213 19.805C57.7307 20.2134 57.2993 20.6424 57.6306 21.0271C57.6913 21.0997 57.7799 21.1534 57.8701 21.1559C57.889 21.1563 57.8755 21.1309 57.8767 21.1378C57.4887 20.8134 57.8874 20.1642 57.9161 19.8193C57.9337 19.586 57.8525 19.3026 57.8205 19.3169C57.7939 19.3292 57.8919 19.5052 57.8209 19.8046L57.8213 19.805Z" fill="#FAAB9B"/>
<path d="M58.8909 19.7042C58.8843 19.833 58.9454 19.9404 59.027 19.9445C59.1086 19.9486 59.18 19.8477 59.1866 19.719C59.1931 19.5902 59.132 19.4827 59.0504 19.4786C58.9688 19.4745 58.8974 19.5754 58.8909 19.7042Z" fill="#251611"/>
<path d="M56.7661 19.4679C56.7595 19.5966 56.8207 19.7041 56.9023 19.7082C56.9839 19.7123 57.0552 19.6114 57.0618 19.4826C57.0684 19.3539 57.0073 19.2464 56.9256 19.2423C56.844 19.2382 56.7727 19.3391 56.7661 19.4679Z" fill="#251611"/>
<path d="M56.4211 18.5673C56.4257 18.6235 56.4494 18.6871 56.479 18.758C56.6426 18.7621 56.855 18.7806 57.1323 18.8232C57.3271 18.8532 57.373 18.6514 57.1799 18.6149C56.8997 18.5612 56.6389 18.5517 56.4211 18.5673Z" fill="#294E95"/>
<path d="M58.756 19.0617C58.6158 19.0518 58.6305 18.8468 58.7712 18.8496C59.3843 18.8611 59.7883 19.2343 59.6603 19.3094C59.5385 19.3807 59.6111 19.1228 58.756 19.0621V19.0617Z" fill="#294E95"/>
<path d="M63.6947 41.232L55.2866 41.4055C54.2096 35.5802 53.756 25.1966 54.089 24.944C55.1459 24.2898 56.6604 23.8551 57.9966 23.7559C57.9966 23.7559 58.2053 24.937 59.5948 24.9718C61.6794 25.0239 61.8533 23.9991 61.8533 23.9991C63.6254 24.6766 64.647 25.5575 65.2035 26.3351C65.2035 26.3351 63.7414 34.3737 63.5721 36.3237C63.4027 38.2738 63.6947 41.232 63.6947 41.232Z" fill="#FF9F55"/>
<path d="M62.949 20.0006C63.793 17.5432 63.7229 16.5655 63.0323 15.7071C62.1382 14.5957 62.1259 14.6154 60.9419 13.8809C60.4732 14.485 60.5786 17.5727 61.3155 18.1317C61.9988 18.6501 62.614 19.0393 62.949 20.0001V20.0006Z" fill="#E5483F"/>
<path d="M61.3157 18.1318C61.7836 15.1335 61.9165 14.2398 60.8834 13.858C59.6519 13.4028 58.23 13.9441 57.6345 14.7119C57.1658 15.316 56.9447 16.6402 56.802 17.5544C58.7213 15.9258 61.3153 18.1322 61.3153 18.1322L61.3157 18.1318Z" fill="#B8292F"/>
<path d="M56.0375 15.1976C55.8054 15.1931 54.9692 15.1229 54.865 16.2713C54.7596 17.4282 55.8107 17.4335 56.5596 17.7694C56.5539 17.7669 57.1629 17.1423 58.3243 16.9389C58.3108 16.8229 58.116 16.6071 58.0475 16.5124C57.1346 15.2542 56.7405 15.2111 56.0379 15.1972L56.0375 15.1976Z" fill="#B8292F"/>
<path d="M59.849 16.6565C59.2666 16.2448 58.6285 15.9195 57.9904 15.6009C57.5466 15.3794 56.8728 15.1342 56.3835 15.215C56.9011 15.3044 57.5114 15.717 57.8116 16.1521C58.1118 16.5872 58.3513 17.0748 58.7413 17.432C59.0772 17.74 59.1797 17.7593 59.6275 17.8442C60.8464 18.0751 61.0535 18.0997 61.3156 18.1317C61.3205 18.1034 60.7836 17.3172 59.849 16.6569V16.6565Z" fill="#FF685D"/>
<path d="M62.0253 66.0257C62.7589 65.7903 63.183 65.7214 63.9298 66.0372C64.0151 66.0733 64.0221 66.1914 64.052 66.3099C64.052 66.3559 64.0098 66.5039 63.9639 66.5039H61.9699C61.924 66.5039 61.8067 66.4116 61.8149 66.3665C61.853 66.1578 61.892 66.0688 62.0248 66.0261L62.0253 66.0257Z" fill="#2D3A64"/>
<path d="M63.9712 64.8203H61.9219V66.8438H63.9712V64.8203Z" fill="white"/>
<path d="M64.047 66.5046C64.1955 66.8676 64.3722 67.7563 64.3722 67.9478C64.3722 69.2192 62.9766 69.2323 62.1593 69.2323C61.8365 69.2323 60.9933 69.1847 60.9933 68.8661C60.9933 68.8439 60.9831 68.7102 60.9933 68.6569C61.0926 68.1537 61.6417 66.5178 61.9382 66.5178C62.407 66.5178 63.3396 66.5001 64.0466 66.5046H64.047Z" fill="#1A223B"/>
<path d="M64.0471 66.2949C64.1956 66.6579 64.3723 67.5466 64.3723 67.7381C64.3723 69.0095 62.9767 69.0226 62.1594 69.0226C61.8366 69.0226 60.9934 68.975 60.9934 68.6563C60.9934 68.4222 61.6225 66.2219 61.9383 66.308C62.4083 66.4364 63.1924 66.5033 64.0467 66.2949H64.0471Z" fill="#2D3A64"/>
<path d="M62.8401 67.4462C63.3472 67.4462 63.7584 67.0849 63.7584 66.6391C63.7584 66.1934 63.3472 65.832 62.8401 65.832C62.333 65.832 61.9219 66.1934 61.9219 66.6391C61.9219 67.0849 62.333 67.4462 62.8401 67.4462Z" fill="#2D3A64"/>
<path d="M56.5908 63.8574H53.7869V65.8809H56.5908V63.8574Z" fill="white"/>
<path d="M56.6314 65.6055C56.622 65.872 56.6314 66.4651 56.6314 67.0257C54.6821 67.4903 53.9312 68.5173 51.5308 68.5173C51.3336 68.5173 49.9326 68.4377 49.9326 67.9919C49.9326 66.7616 53.5773 65.9385 53.7869 65.9385C54.6731 65.9385 55.5487 65.6231 56.6314 65.6055Z" fill="#1A223B"/>
<path d="M56.6314 65.2285C56.622 65.4951 56.6314 66.2973 56.6314 66.8583C54.6821 67.323 53.9312 68.3499 51.5308 68.3499C51.3336 68.3499 49.9326 68.2703 49.9326 67.8245C49.9326 66.5942 53.5966 65.3101 53.7869 65.3983C54.4303 65.6956 55.5405 65.8826 56.6314 65.2289V65.2285Z" fill="#2D3A64"/>
<path d="M52.4155 66.57C52.6275 66.9371 53.253 66.9731 53.8119 66.6504C54.3713 66.3276 54.416 65.5948 54.204 65.2277C54.0781 65.0099 53.6848 65.0231 53.369 65.3819C53.1508 65.589 53.1734 65.5427 52.5266 65.7842C52.3396 66.0529 52.2863 66.3469 52.4151 66.57H52.4155Z" fill="#2D3A64"/>
<path d="M61.2873 29.5286C61.4985 27.145 61.6195 25.4549 64.0769 25.1994C63.7902 24.9447 63.2743 24.6761 62.8929 24.4473C60.6877 25.3106 60.1263 27.1397 60.0562 29.5286H61.2873Z" fill="#294E95"/>
<path d="M55.928 29.8731L54.6973 29.8555C54.76 28.5895 54.546 26.0944 54.92 24.5089C55.2641 24.3764 55.7062 24.1521 56.1179 24.0918C55.6766 25.8844 55.8924 28.382 55.928 29.8736V29.8731Z" fill="#294E95"/>
<path d="M62.8057 35.8501C61.4712 35.6786 61.5733 30.9349 61.6295 29.5807C61.6377 29.3851 61.4814 29.2227 61.2858 29.2227H54.2028C54.1019 29.2227 54.0219 29.308 54.0293 29.4088C54.1076 30.4833 54.2758 36.0145 54.9754 40.9539L64.0192 40.9207C63.5439 38.631 63.7063 35.7504 63.8867 34.016C63.5636 34.9798 63.5144 35.9411 62.8057 35.8501Z" fill="#294E95"/>
<path d="M62.0314 40.9551C62.0314 40.9551 59.891 46.3743 58.712 50.0276C58.315 51.2555 58.0275 52.2836 57.966 52.8397C57.7207 55.0506 57.8987 56.4508 57.7572 58.6707C57.6157 60.8906 57.2614 65.2456 57.2614 65.2456L53.531 65.3194C53.531 65.3194 53.604 56.005 53.9665 51.5368C54.3217 47.1584 54.9762 40.9551 54.9762 40.9551H62.0318H62.0314Z" fill="#294E95"/>
<path d="M62.0314 40.9527C62.0314 40.9527 59.8911 46.372 58.712 50.0252C57.9316 47.8024 57.0916 45.1933 56.8308 40.9199L62.0319 40.9531L62.0314 40.9527Z" fill="#254787"/>
<path d="M64.0024 40.837C64.0024 40.837 64.7874 43.5946 64.7316 45.9154C64.7005 47.2183 64.8477 48.1681 65.0495 58.7412C65.0921 60.9669 64.1308 66.1885 64.1308 66.1885H61.858C61.858 66.1885 60.5887 56.4233 60.4751 54.926C60.1498 50.6374 57.494 48.479 56.8308 40.921C58.1366 40.522 63.0235 40.9821 64.0029 40.837H64.0024Z" fill="#294E95"/>
<path d="M49.233 33.7158C49.1862 33.9397 49.4754 34.1895 49.8793 34.2744C50.2833 34.3589 50.6483 34.2461 50.6954 34.0222C50.7422 33.7982 50.4531 33.5485 50.0491 33.4636C49.6451 33.3791 49.2801 33.4919 49.233 33.7158Z" fill="#CC2D25"/>
<path d="M51.6838 34.8332L51.514 34.2603C51.5013 34.2168 51.4656 34.184 51.4209 34.1746L48.6932 33.6033C48.6346 33.591 48.5841 33.646 48.6009 33.7034L48.7539 34.2197L51.6833 34.8336L51.6838 34.8332Z" fill="#E5483F"/>
<path d="M52.5508 34.649L47.6664 33.5868C47.5015 33.5524 47.3613 33.709 47.4138 33.869L49.9278 41.4815C49.9483 41.5438 49.9954 41.5935 50.0565 41.6172L54.9779 43.4476C55.1481 43.5132 55.3191 43.3541 55.2658 43.1798L52.7149 34.7987C52.6915 34.7224 52.6288 34.665 52.5508 34.6486V34.649Z" fill="#315EB3"/>
<path d="M51.58 38.3982C51.5722 38.5659 51.5431 38.9842 51.6797 39.1983C52.0295 39.7474 53.5851 40.3573 54.338 40.315C54.8535 40.2863 55.3002 39.9439 55.7783 39.7483C55.9383 39.6826 56.4386 39.567 56.5317 39.4214C56.4485 38.853 56.1786 38.139 55.6902 37.4668C54.8019 37.582 53.8151 38.1049 53.1405 37.9241C51.7933 37.5636 51.5858 38.2682 51.58 38.3973V38.3982Z" fill="#FEBAA5"/>
<path d="M53.3293 36.8262C53.4675 37.2699 53.6602 37.8035 53.5602 37.9646C54.0289 37.9646 54.8225 37.6948 54.8225 37.6948C54.8225 37.6948 53.2153 36.3636 53.3293 36.8262Z" fill="#FEBAA5"/>
<path d="M64.4076 25.6282C65.4239 25.9485 65.4731 26.297 65.5932 28.8422C65.6794 30.659 65.7372 36.0409 63.9598 36.9747C62.7749 37.5969 55.9376 39.7307 55.9376 39.7307L55.2756 37.4501C55.2756 37.4501 61.3576 35.0554 61.5594 34.8032C61.8411 34.4505 61.5643 30.3387 61.8313 28.779C61.9707 27.9633 62.5453 25.0409 64.408 25.6282H64.4076Z" fill="#FFAB6B"/>
</svg>
