<svg width="114" height="96" viewBox="0 0 114 96" fill="none" xmlns="http://www.w3.org/2000/svg">
<path d="M-1.63201e-05 27.2261L19.8121 95.1448L28.3936 92.6415L8.58152 24.7229L-1.63201e-05 27.2261Z" fill="#ED8945"/>
<path d="M84.7538 2.50324L104.566 70.4219L113.147 67.9186L93.3354 -2.36352e-05L84.7538 2.50324Z" fill="#ED8945"/>
<path d="M4.29088 25.9742L24.103 93.8928L108.479 69.2801L88.6667 1.36148L4.29088 25.9742Z" fill="#FFAD6E"/>
<path d="M77.1289 33.3019L81.5777 48.553L100.803 42.945L96.354 27.6938L77.1289 33.3019Z" fill="#FFC59E"/>
<path d="M11.9727 52.3082L16.4215 67.5593L35.6466 61.9513L31.1978 46.7002L11.9727 52.3082Z" fill="#FFC59E"/>
<path fill-rule="evenodd" clip-rule="evenodd" d="M98.2794 56.0446L98.2729 56.0224L98.2794 56.0446ZM100.018 56.3396L99.9838 56.2229C99.9429 56.0759 99.8501 55.9487 99.7226 55.8649L99.3713 55.7562C99.3052 55.7269 99.2347 55.7088 99.1626 55.7025C99.133 55.6992 99.103 55.7018 99.0744 55.7102C99.0458 55.7185 99.0191 55.7324 98.9959 55.7511L98.5195 56.1856L98.4531 56.2472L98.3875 56.1879L98.2669 56.0844L98.3855 57.256L99.5031 57.3039L99.3896 57.2043L99.3097 57.1372L99.3785 57.0628L100.018 56.3396ZM100.415 57.7013L100.091 56.5897L99.6404 57.1131L99.7859 57.2395L99.8053 57.3062C99.8101 57.3425 99.8016 57.3793 99.7812 57.4097C99.7712 57.4257 99.758 57.4395 99.7425 57.4503C99.727 57.461 99.7094 57.4685 99.6909 57.4723C99.6484 57.4965 99.6008 57.5103 99.552 57.5128L98.3285 57.4535L98.2507 57.4762L98.2264 57.3929L98.1066 56.1553C98.0938 56.0082 98.1276 55.9381 98.1839 55.9036C98.2402 55.869 98.3199 55.8941 98.3822 55.9422L98.4797 56.0284L98.8618 55.6636C98.9064 55.6271 98.958 55.5999 99.0134 55.5837C99.0688 55.5676 99.1268 55.5628 99.1841 55.5696C99.2744 55.5779 99.3627 55.601 99.4454 55.6381L101.142 56.1202C101.253 56.1323 101.358 56.1783 101.442 56.2519C101.526 56.3256 101.585 56.4234 101.612 56.532L101.912 57.5602L100.717 57.9088C100.52 57.894 100.46 57.8331 100.42 57.718L100.415 57.7013Z" fill="#85583C"/>
<path d="M98.4975 60.6185C98.4975 60.6185 98.4887 60.609 98.4975 60.6185V60.6185ZM97.858 58.7365L98.7049 58.8694L98.7325 58.6744C98.7429 58.6456 98.7621 58.6209 98.7875 58.6037C98.8128 58.5866 98.8429 58.5779 98.8735 58.579C98.9102 58.5812 98.9448 58.5969 98.9708 58.6229C99.0094 58.6557 99.0415 58.6954 99.0653 58.7401L99.6876 59.8191L99.7119 59.9025L99.6422 59.9529L98.6619 60.7274C98.547 60.8091 98.466 60.8207 98.4118 60.8004C98.3846 60.7781 98.3647 60.7481 98.3549 60.7144C98.345 60.6807 98.3457 60.6447 98.3567 60.6114L98.3743 60.4856L97.8622 60.3636C97.8062 60.3482 97.7541 60.3213 97.7091 60.2846C97.6641 60.2478 97.6273 60.2021 97.601 60.1503C97.56 60.0706 97.5347 59.9839 97.5264 59.8947L97.0644 58.3106L97.488 58.9771L97.7393 59.8386C97.7475 59.908 97.7672 59.9757 97.7976 60.0387C97.8109 60.0667 97.8299 60.0916 97.8534 60.1117C97.877 60.1319 97.9045 60.1469 97.9343 60.1556L98.5315 60.301L98.6223 60.3228L98.6061 60.412L98.5855 60.5688L99.4921 59.852L98.9261 58.8833L98.9039 59.0345L98.8925 59.1403L98.7906 59.1218L97.8434 58.976L97.858 58.7365Z" fill="#85583C"/>
<path fill-rule="evenodd" clip-rule="evenodd" d="M98.7543 57.9019L97.7428 59.0654C97.6874 59.1259 97.6448 59.197 97.6177 59.2744C97.5905 59.3518 97.5792 59.4338 97.5846 59.5156L97.2502 59.0101L96.9688 58.1695C96.9149 58.0689 96.8944 57.9537 96.9102 57.8407C96.9261 57.7277 96.9774 57.6227 97.0568 57.5407L97.7673 56.7304L98.7038 57.5427C98.8453 57.6764 98.8314 57.7528 98.743 57.863L98.7543 57.9019Z" fill="#85583C"/>
<path fill-rule="evenodd" clip-rule="evenodd" d="M101.199 59.5411L101.317 59.573C101.464 59.6149 101.621 59.5972 101.755 59.5237L102.028 59.2812C102.085 59.2381 102.135 59.1869 102.176 59.1293C102.195 59.1044 102.207 59.0761 102.214 59.0462C102.221 59.0162 102.222 58.9851 102.216 58.9549L102.044 58.3657L102.02 58.2824L102.259 58.2127L101.211 57.7222L100.6 58.6664L100.85 58.5934L100.878 58.6879L101.199 59.5411ZM99.8252 59.1939L100.96 59.466L100.764 58.7935L100.575 58.8486C100.553 58.8573 100.531 58.8638 100.508 58.8681C100.475 58.8525 100.448 58.8263 100.432 58.7937C100.41 58.7652 100.4 58.7295 100.403 58.6937C100.415 58.6439 100.436 58.5968 100.465 58.555L101.12 57.5135L101.171 57.4385L101.248 57.4762L102.379 58.0028C102.506 58.0681 102.555 58.1323 102.551 58.1999C102.546 58.2675 102.489 58.3203 102.42 58.3525L102.292 58.3898L102.44 58.8956C102.451 58.9525 102.45 59.011 102.438 59.0676C102.425 59.1242 102.401 59.1775 102.367 59.2244C102.316 59.2978 102.253 59.3627 102.182 59.4171L100.903 60.6346C100.834 60.7219 100.74 60.7856 100.633 60.8167C100.527 60.8478 100.413 60.8448 100.308 60.8081L99.2664 60.545L99.5723 59.3401C99.6105 59.2023 99.6899 59.1852 99.8078 59.2171L99.8252 59.1939Z" fill="#85583C"/>
<path d="M95.3931 56.4881L96.9998 61.996C97.0585 62.181 97.1879 62.3352 97.3599 62.4252C97.5319 62.5151 97.7324 62.5334 97.9178 62.4761L103.643 60.8061C103.83 60.7548 103.989 60.6315 104.086 60.4633C104.182 60.295 104.208 60.0953 104.158 59.9078L102.552 54.3999C102.523 54.3085 102.476 54.2238 102.414 54.1505C102.353 54.0772 102.277 54.0168 102.192 53.9727C102.107 53.9287 102.014 53.9018 101.918 53.8937C101.823 53.8855 101.727 53.8963 101.635 53.9253L95.9107 55.5953C95.818 55.6199 95.7312 55.6625 95.6551 55.7207C95.5789 55.7789 95.515 55.8515 95.4669 55.9344C95.4188 56.0173 95.3876 56.1089 95.3749 56.2039C95.3623 56.2989 95.3684 56.3955 95.3931 56.4881ZM101.666 54.3626C101.764 54.3341 101.868 54.3443 101.959 54.391C102.049 54.4378 102.117 54.5176 102.15 54.6136L103.705 59.9437C103.718 59.9929 103.722 60.0441 103.716 60.0947C103.709 60.1453 103.693 60.1941 103.668 60.2384C103.643 60.2827 103.609 60.3216 103.569 60.3529C103.529 60.3842 103.483 60.4073 103.434 60.4208L97.8757 62.0421C97.827 62.0579 97.7756 62.0638 97.7247 62.0594C97.6737 62.055 97.6241 62.0404 97.5789 62.0164C97.5337 61.9925 97.4937 61.9597 97.4614 61.9201C97.429 61.8804 97.405 61.8346 97.3907 61.7855L95.8359 56.4554C95.8103 56.3568 95.8245 56.252 95.8755 56.1638C95.9265 56.0755 96.0102 56.0109 96.1085 55.9839L101.666 54.3626Z" fill="#85583C"/>
<path d="M104.085 62.7761L105.131 66.361C105.141 66.3949 105.137 66.4314 105.12 66.4624C105.103 66.4933 105.074 66.5163 105.04 66.5262C105.006 66.5361 104.97 66.5321 104.939 66.5151C104.908 66.4981 104.885 66.4695 104.875 66.4356L103.829 62.8507C103.824 62.8342 103.823 62.8168 103.825 62.7997C103.827 62.7826 103.833 62.7661 103.841 62.7512C103.85 62.7363 103.861 62.7233 103.875 62.713C103.889 62.7026 103.905 62.6952 103.921 62.6912C103.954 62.6815 103.99 62.685 104.02 62.7008C104.051 62.7166 104.074 62.7436 104.085 62.7761Z" fill="#85583C"/>
<path fill-rule="evenodd" clip-rule="evenodd" d="M100.244 66.4413L103.985 65.3502L104.205 66.1061L100.459 67.1989L100.568 67.5712L99.3882 67.0831L100.128 66.0412L100.244 66.4413Z" fill="#85583C"/>
<path fill-rule="evenodd" clip-rule="evenodd" d="M99.6994 64.5737L103.445 63.481L103.668 64.2424L99.9215 65.3352L100.025 65.7092L98.8449 65.2211L99.5843 64.1791L99.6994 64.5737Z" fill="#85583C"/>
<path d="M97.4848 63.6582L99.0915 69.1662C99.1502 69.3512 99.2796 69.5054 99.4516 69.5953C99.6235 69.6853 99.8241 69.7036 100.009 69.6462L105.734 67.9763C105.921 67.925 106.081 67.8017 106.177 67.6334C106.274 67.4651 106.3 67.2655 106.25 67.078L104.643 61.57C104.585 61.385 104.455 61.2308 104.283 61.1409C104.111 61.0509 103.911 61.0326 103.725 61.09L98.0007 62.7599C97.8136 62.8112 97.6543 62.9345 97.5577 63.1028C97.461 63.271 97.4348 63.4707 97.4848 63.6582ZM103.758 61.5327C103.856 61.5027 103.961 61.5122 104.051 61.5592C104.142 61.6061 104.21 61.6868 104.241 61.7838L105.796 67.1139C105.822 67.2125 105.808 67.3173 105.757 67.4055C105.706 67.4937 105.622 67.5584 105.524 67.5854L99.9657 69.2067C99.9175 69.2224 99.8667 69.2283 99.8161 69.2241C99.7656 69.2199 99.7164 69.2057 99.6715 69.1824C99.6265 69.159 99.5866 69.1269 99.5542 69.088C99.5217 69.0491 99.4973 69.0041 99.4824 68.9556L97.9276 63.6256C97.9141 63.5767 97.9105 63.5256 97.9169 63.4754C97.9234 63.4251 97.9397 63.3766 97.9651 63.3327C97.9905 63.2888 98.0243 63.2504 98.0647 63.2198C98.105 63.1891 98.1511 63.1667 98.2001 63.154L103.758 61.5327Z" fill="#85583C"/>
<path d="M93.3036 49.3241L94.9087 54.8265C94.9675 55.0119 95.0969 55.1668 95.269 55.2577C95.4411 55.3485 95.6419 55.3681 95.8283 55.3121L101.553 53.6421C101.74 53.5892 101.899 53.4647 101.995 53.2956C102.092 53.1265 102.117 52.9263 102.067 52.7383L100.462 47.2359C100.404 47.0509 100.274 46.8966 100.102 46.8067C99.9302 46.7168 99.7297 46.6985 99.5443 46.7558L93.8195 48.4258C93.6324 48.4771 93.4731 48.6004 93.3765 48.7686C93.2798 48.9369 93.2536 49.1366 93.3036 49.3241ZM99.5753 47.1931C99.6736 47.1643 99.7793 47.175 99.8698 47.2229C99.9604 47.2709 100.029 47.3522 100.06 47.4496L101.613 52.7742C101.627 52.8233 101.631 52.8746 101.624 52.9251C101.618 52.9757 101.602 53.0245 101.577 53.0688C101.552 53.1131 101.518 53.1521 101.478 53.1834C101.438 53.2147 101.392 53.2377 101.343 53.2512L95.7845 54.8725C95.7358 54.8883 95.6845 54.8942 95.6335 54.8898C95.5825 54.8854 95.533 54.8708 95.4877 54.8469C95.4425 54.8229 95.4025 54.7902 95.3702 54.7505C95.3379 54.7108 95.3139 54.6651 95.2996 54.616L93.7464 49.2914C93.7328 49.2423 93.7291 49.191 93.7354 49.1404C93.7417 49.0899 93.7579 49.0411 93.783 48.9967C93.8082 48.9524 93.8418 48.9135 93.882 48.8822C93.9222 48.8509 93.9682 48.8279 94.0173 48.8143L99.5753 47.1931Z" fill="#85583C"/>
<path fill-rule="evenodd" clip-rule="evenodd" d="M95.9664 51.5689C96.1286 52.1288 96.4755 52.6174 96.9507 52.9551C97.4259 53.2928 98.0014 53.4598 98.5836 53.4288C98.4474 53.3422 98.3496 53.2067 98.3103 53.0502C98.2325 52.7834 98.3026 52.5278 98.4629 52.4569C98.2961 52.5055 98.1042 52.3022 98.028 52.041C97.9518 51.7797 98.0147 51.5202 98.175 51.4493C98.0138 51.4963 97.8107 51.2962 97.7345 51.035C97.6583 50.7738 97.7268 50.5125 97.8871 50.4417C97.7259 50.4887 97.5284 50.287 97.4522 50.0257C97.376 49.7645 97.4429 49.4977 97.6048 49.4324C97.438 49.4811 97.2365 49.2865 97.1587 49.0198C97.1124 48.885 97.1121 48.7387 97.158 48.6038C96.6561 48.8933 96.266 49.3429 96.0499 49.8804C95.8338 50.418 95.8044 51.0126 95.9664 51.5689Z" fill="#85583C"/>
<path d="M95.8004 51.4545C95.7694 51.4635 95.7433 51.4845 95.7278 51.5127C95.7123 51.541 95.7087 51.5743 95.7177 51.6052C95.7268 51.6362 95.7477 51.6623 95.776 51.6778C95.8042 51.6933 95.8375 51.6969 95.8685 51.6879L100.043 50.4703C100.058 50.4659 100.072 50.4585 100.084 50.4485C100.096 50.4386 100.106 50.4262 100.113 50.4123C100.12 50.3983 100.125 50.3831 100.126 50.3674C100.127 50.3517 100.125 50.336 100.12 50.3212C100.111 50.2911 100.091 50.2656 100.064 50.2499C100.037 50.2342 100.005 50.2296 99.9744 50.2369L95.8004 51.4545Z" fill="#85583C"/>
<path d="M99.941 51.1751C99.9144 51.1673 99.886 51.1689 99.8604 51.1795C99.8348 51.1901 99.8136 51.2091 99.8003 51.2334C99.787 51.2576 99.7823 51.2857 99.7872 51.313C99.792 51.3402 99.806 51.3651 99.8268 51.3833C99.8977 51.4237 99.9759 51.4495 100.057 51.459C100.138 51.4686 100.22 51.4617 100.298 51.4389C100.377 51.4161 100.45 51.3777 100.513 51.3261C100.576 51.2745 100.628 51.2107 100.666 51.1385C100.743 50.9933 100.76 50.8238 100.714 50.666C100.668 50.5083 100.563 50.3747 100.42 50.2937C100.345 50.2551 100.264 50.2297 100.181 50.2187C100.098 50.2112 100.014 50.2192 99.9342 50.2423C99.9033 50.2513 99.8772 50.2723 99.8617 50.3005C99.8462 50.3288 99.8425 50.3621 99.8516 50.393C99.8606 50.424 99.8815 50.4501 99.9098 50.4656C99.9381 50.4811 99.9714 50.4847 100.002 50.4757C100.049 50.4574 100.1 50.453 100.149 50.463C100.2 50.4669 100.249 50.4812 100.294 50.5051C100.338 50.5296 100.377 50.5626 100.408 50.6022C100.439 50.6417 100.463 50.687 100.476 50.7355C100.501 50.8322 100.488 50.9349 100.439 51.0221C100.391 51.1093 100.31 51.1744 100.215 51.2038C100.116 51.2314 100.011 51.2188 99.9211 51.1689L99.941 51.1751Z" fill="#85583C"/>
</svg>
