<svg width="114" height="97" viewBox="0 0 114 97" fill="none" xmlns="http://www.w3.org/2000/svg">
<path d="M20.2087 0.906736L0.0576782 68.7256L8.62661 71.2717L28.7776 3.45282L20.2087 0.906736Z" fill="#ED8945"/>
<path d="M104.838 26.0527L84.687 93.8716L93.2559 96.4177L113.407 28.5988L104.838 26.0527Z" fill="#ED8945"/>
<path d="M24.4934 2.17969L4.34235 69.9985L88.5942 95.0323L108.745 27.2134L24.4934 2.17969Z" fill="#FFAD6E"/>
<path d="M81.7409 47.8062L77.216 63.0349L96.4129 68.7389L100.938 53.5102L81.7409 47.8062Z" fill="#FFC59E"/>
<path d="M16.6804 28.4749L12.1555 43.7036L31.3524 49.4076L35.8773 34.1789L16.6804 28.4749Z" fill="#FFC59E"/>
<path fill-rule="evenodd" clip-rule="evenodd" d="M87.1939 78.3814L87.2004 78.3592L87.1939 78.3814ZM88.4952 79.5714L88.5298 79.4548C88.5751 79.3091 88.566 79.1519 88.5042 79.0124L88.2678 78.7307C88.2282 78.6702 88.1787 78.6168 88.1216 78.5725C88.0985 78.5536 88.0718 78.5396 88.0432 78.5311C88.0147 78.5226 87.9847 78.5199 87.9551 78.523L87.3193 78.63L87.23 78.6458L87.2071 78.5605L87.1618 78.4081L86.6266 79.457L87.54 80.1029L87.4986 79.9577L87.4678 79.858L87.5659 79.8328L88.4952 79.5714ZM88.0912 80.931L88.421 79.8211L87.7588 80.0169L87.8125 80.202L87.7927 80.2686C87.7771 80.3017 87.75 80.328 87.7164 80.3426C87.6993 80.3506 87.6808 80.355 87.6619 80.3557C87.643 80.3563 87.6242 80.3531 87.6066 80.3462C87.5578 80.3435 87.5103 80.3294 87.4679 80.3049L86.4717 79.5922L86.394 79.5691L86.4187 79.4859L86.9887 78.3808C87.0576 78.2503 87.1241 78.2096 87.1901 78.2111C87.2561 78.2126 87.3095 78.2768 87.3357 78.3511L87.371 78.4763L87.8898 78.3768C87.9471 78.3702 88.0052 78.3753 88.0605 78.3918C88.1158 78.4082 88.1672 78.4356 88.2117 78.4724C88.283 78.5283 88.3447 78.5956 88.3941 78.6716L89.5588 79.9961C89.6457 80.0665 89.7088 80.1619 89.7395 80.2693C89.7703 80.3768 89.7672 80.4911 89.7306 80.5968L89.4256 81.6235L88.2324 81.269C88.0746 81.1496 88.0571 81.0659 88.0862 80.9477L88.0912 80.931Z" fill="#85583C"/>
<path d="M84.8987 82.344C84.8987 82.344 84.8965 82.3312 84.8987 82.344V82.344ZM85.3811 80.4157L86.0209 80.9863L86.1497 80.8373C86.174 80.8188 86.2036 80.8084 86.2342 80.8077C86.2648 80.807 86.2948 80.8161 86.3199 80.8335C86.3495 80.8553 86.3701 80.8872 86.3778 80.9232C86.3926 80.9716 86.398 81.0224 86.3938 81.0729L86.3322 82.3169L86.3074 82.4002L86.2215 82.4048L84.9779 82.5246C84.8371 82.531 84.7627 82.4968 84.7282 82.4504C84.7173 82.4169 84.7169 82.381 84.7269 82.3473C84.7369 82.3136 84.7569 82.2837 84.7842 82.2616L84.8672 82.1655L84.5029 81.7855C84.4642 81.7422 84.435 81.6913 84.4171 81.6361C84.3991 81.5808 84.393 81.5224 84.399 81.4647C84.4077 81.3755 84.4334 81.2889 84.4748 81.2094L84.9448 79.6277L84.9397 80.4174L84.6841 81.2776C84.6534 81.3404 84.6333 81.408 84.6247 81.4774C84.6207 81.5081 84.6231 81.5393 84.632 81.569C84.6409 81.5987 84.6559 81.6263 84.6762 81.6497L85.0993 82.0956L85.1639 82.1631L85.1019 82.2292L84.9997 82.3498L86.15 82.2387L86.1992 81.1178L86.0986 81.2328L86.0317 81.3156L85.9561 81.2448L85.2391 80.609L85.3811 80.4157Z" fill="#85583C"/>
<path fill-rule="evenodd" clip-rule="evenodd" d="M86.5865 80.2L85.1059 80.6298C85.0266 80.6506 84.9523 80.6873 84.8875 80.7376C84.8227 80.7879 84.7688 80.8508 84.729 80.9225L84.7219 80.3164L84.9409 79.4574C84.9501 79.3436 84.9953 79.2357 85.0698 79.1493C85.1443 79.0629 85.2444 79.0024 85.3555 78.9766L86.3917 78.6805L86.7387 79.8707C86.7852 80.0597 86.7321 80.1164 86.5981 80.1611L86.5865 80.2Z" fill="#85583C"/>
<path fill-rule="evenodd" clip-rule="evenodd" d="M87.7531 82.9021L87.8349 82.9929C87.9355 83.1076 88.0774 83.178 88.2297 83.1887L88.5905 83.1328C88.6616 83.1273 88.7314 83.1114 88.7978 83.0857C88.8265 83.0746 88.8526 83.0578 88.8746 83.0363C88.8966 83.0148 88.9139 82.989 88.9256 82.9606L89.1004 82.3723L89.1251 82.2891L89.3637 82.36L88.7489 81.38L87.7237 81.8424L87.9735 81.9166L87.9454 82.011L87.7531 82.9021ZM86.7866 81.866L87.5929 82.7095L87.7924 82.038L87.6037 81.982C87.5809 81.9776 87.5586 81.971 87.5371 81.9622C87.5179 81.9313 87.5095 81.8947 87.5136 81.8585C87.5107 81.8227 87.5213 81.7871 87.5432 81.7586C87.58 81.7231 87.6232 81.6949 87.6706 81.6757L88.7855 81.1553L88.8686 81.1196L88.9131 81.1933L89.578 82.2485C89.6499 82.3725 89.6562 82.4529 89.6159 82.5074C89.5755 82.5618 89.4991 82.5753 89.4236 82.565L89.296 82.5271L89.1459 83.0321C89.1244 83.0859 89.092 83.1347 89.0508 83.1754C89.0096 83.2162 88.9604 83.248 88.9064 83.269C88.8234 83.3027 88.7358 83.3235 88.6465 83.3306L86.9116 83.6607C86.8066 83.6969 86.6929 83.6994 86.5864 83.6677C86.4799 83.6361 86.386 83.572 86.3178 83.4843L85.5849 82.6988L86.4948 81.8518C86.6016 81.7567 86.6777 81.7853 86.7594 81.876L86.7866 81.866Z" fill="#85583C"/>
<path d="M84.5276 77.1903L82.8935 82.6902C82.8426 82.8774 82.8678 83.0772 82.9636 83.246C83.0594 83.4147 83.218 83.5388 83.4049 83.591L89.1213 85.2895C89.3064 85.3478 89.507 85.3305 89.6794 85.2414C89.8518 85.1524 89.982 84.9988 90.0416 84.8141L91.6758 79.3142C91.7009 79.2218 91.7076 79.1252 91.6954 79.0302C91.6832 78.9351 91.6524 78.8434 91.6048 78.7602C91.5571 78.6771 91.4936 78.6041 91.4177 78.5456C91.3419 78.487 91.2552 78.4439 91.1627 78.4189L85.4464 76.7204C85.3552 76.6909 85.2591 76.6796 85.1636 76.6873C85.0681 76.6949 84.975 76.7213 84.8897 76.765C84.8043 76.8086 84.7285 76.8686 84.6663 76.9416C84.6042 77.0146 84.5571 77.0991 84.5276 77.1903ZM90.9519 78.8032C91.0492 78.832 91.1316 78.8972 91.1819 78.9853C91.2323 79.0734 91.2467 79.1776 91.2221 79.276L89.6407 84.5983C89.6254 84.6469 89.6008 84.6921 89.5681 84.7312C89.5354 84.7702 89.4954 84.8025 89.4502 84.8261C89.4051 84.8497 89.3557 84.8642 89.305 84.8687C89.2542 84.8732 89.2031 84.8677 89.1545 84.8525L83.6046 83.2035C83.5552 83.1904 83.5088 83.1675 83.4684 83.1362C83.4279 83.1048 83.3942 83.0657 83.3691 83.0211C83.3441 82.9765 83.3282 82.9273 83.3226 82.8764C83.3169 82.8256 83.3215 82.7741 83.3361 82.725L84.9175 77.4028C84.9494 77.306 85.0181 77.2256 85.1088 77.1791C85.1995 77.1326 85.3048 77.1236 85.4021 77.1541L90.9519 78.8032Z" fill="#85583C"/>
<path d="M88.4256 87.185L87.362 90.7646C87.352 90.7984 87.3289 90.8269 87.2978 90.8438C87.2668 90.8606 87.2303 90.8644 87.1965 90.8543C87.1626 90.8443 87.1341 90.8212 87.1173 90.7901C87.1005 90.7591 87.0967 90.7226 87.1067 90.6887L88.1703 87.1091C88.1752 87.0926 88.1834 87.0772 88.1944 87.064C88.2054 87.0507 88.219 87.0398 88.2343 87.032C88.2496 87.0241 88.2664 87.0194 88.2836 87.0182C88.3008 87.017 88.318 87.0193 88.3343 87.0249C88.3672 87.0347 88.3951 87.0568 88.4121 87.0866C88.4291 87.1164 88.434 87.1516 88.4256 87.185Z" fill="#85583C"/>
<path fill-rule="evenodd" clip-rule="evenodd" d="M83.2118 88.1843L86.9468 89.2941L86.7225 90.0489L82.9819 88.9374L82.8714 89.3093L82.1444 88.2598L83.3305 87.7847L83.2118 88.1843Z" fill="#85583C"/>
<path fill-rule="evenodd" clip-rule="evenodd" d="M83.7656 86.3196L87.5062 87.4311L87.2803 88.1914L83.5397 87.08L83.4237 87.4501L82.6967 86.4007L83.8827 85.9256L83.7656 86.3196Z" fill="#85583C"/>
<path d="M82.4005 84.3499L80.7663 89.8498C80.7154 90.0371 80.7406 90.2369 80.8365 90.4056C80.9323 90.5744 81.0909 90.6984 81.2778 90.7507L86.9941 92.4492C87.1792 92.5075 87.3799 92.4902 87.5523 92.4011C87.7247 92.312 87.8549 92.1584 87.9145 91.9738L89.5487 86.4739C89.5996 86.2866 89.5744 86.0868 89.4786 85.9181C89.3828 85.7493 89.2241 85.6253 89.0373 85.573L83.3209 83.8745C83.1358 83.8162 82.9352 83.8335 82.7628 83.9226C82.5903 84.0117 82.4601 84.1653 82.4005 84.3499ZM88.8248 85.9628C88.9229 85.9903 89.0062 86.0554 89.0568 86.1439C89.1074 86.2324 89.1211 86.3372 89.095 86.4357L87.5135 91.758C87.4816 91.8548 87.4129 91.9351 87.3222 91.9816C87.2316 92.0281 87.1262 92.0371 87.029 92.0066L81.4792 90.3576C81.4301 90.3446 81.3842 90.322 81.344 90.2912C81.3038 90.2603 81.2702 90.2217 81.245 90.1777C81.2199 90.1337 81.2038 90.0851 81.1976 90.0348C81.1914 89.9845 81.1952 89.9335 81.209 89.8847L82.7904 84.5624C82.8055 84.5141 82.8301 84.4692 82.8628 84.4304C82.8955 84.3916 82.9355 84.3598 82.9806 84.3366C83.0257 84.3135 83.0749 84.2996 83.1255 84.2956C83.176 84.2917 83.2268 84.2979 83.2749 84.3138L88.8248 85.9628Z" fill="#85583C"/>
<path d="M86.6534 70.0368L85.0209 75.5311C84.9699 75.7189 84.9947 75.9192 85.0901 76.0888C85.1855 76.2584 85.3437 76.3836 85.5307 76.4376L91.247 78.136C91.4331 78.193 91.6341 78.1744 91.8066 78.0844C91.9791 77.9944 92.1093 77.8402 92.1691 77.655L93.8016 72.1607C93.8525 71.9735 93.8273 71.7737 93.7315 71.6049C93.6357 71.4362 93.477 71.3121 93.2902 71.2598L87.5738 69.5613C87.3887 69.5031 87.1881 69.5204 87.0157 69.6095C86.8432 69.6985 86.713 69.8521 86.6534 70.0368ZM93.0793 71.6441C93.1775 71.6733 93.2605 71.7395 93.3106 71.8288C93.3608 71.9182 93.3741 72.0235 93.3479 72.1225L91.7681 77.4393C91.7529 77.4879 91.7282 77.533 91.6955 77.5721C91.6628 77.6112 91.6228 77.6435 91.5777 77.6671C91.5325 77.6907 91.4831 77.7052 91.4324 77.7097C91.3817 77.7142 91.3305 77.7087 91.2819 77.6934L85.7321 76.0444C85.6826 76.0313 85.6362 76.0084 85.5958 75.9771C85.5553 75.9458 85.5216 75.9066 85.4965 75.862C85.4715 75.8174 85.4557 75.7682 85.45 75.7174C85.4443 75.6665 85.4489 75.615 85.4635 75.566L87.0433 70.2493C87.0585 70.2006 87.0832 70.1555 87.1158 70.1164C87.1485 70.0773 87.1886 70.0451 87.2337 70.0215C87.2789 69.9979 87.3283 69.9834 87.379 69.9789C87.4298 69.9743 87.4809 69.9799 87.5295 69.9951L93.0793 71.6441Z" fill="#85583C"/>
<path fill-rule="evenodd" clip-rule="evenodd" d="M87.675 73.3666C87.5079 73.9251 87.5347 74.5237 87.7511 75.0651C87.9675 75.6064 88.3607 76.0586 88.8668 76.348C88.7993 76.2014 88.7905 76.0346 88.8423 75.8817C88.9214 75.6153 89.1189 75.4385 89.292 75.4657C89.1255 75.4163 89.0743 75.1413 89.1518 74.8805C89.2293 74.6197 89.4229 74.4356 89.596 74.4629C89.4351 74.415 89.3728 74.1368 89.4503 73.876C89.5278 73.6151 89.727 73.4327 89.9 73.46C89.7391 73.4122 89.6824 73.1356 89.7599 72.8747C89.8374 72.6139 90.0382 72.426 90.2096 72.4588C90.0431 72.4093 89.9792 72.1366 90.0583 71.8702C90.0924 71.7319 90.1715 71.6088 90.2831 71.5203C89.7045 71.4917 89.1329 71.658 88.6601 71.9928C88.1872 72.3275 87.8403 72.8113 87.675 73.3666Z" fill="#85583C"/>
<path d="M87.5975 73.1804C87.5666 73.1713 87.5333 73.1747 87.5049 73.1901C87.4766 73.2055 87.4555 73.2315 87.4463 73.2624C87.4371 73.2933 87.4406 73.3265 87.4559 73.3549C87.4713 73.3832 87.4973 73.4043 87.5282 73.4135L91.6961 74.6519C91.7112 74.6564 91.727 74.6578 91.7426 74.656C91.7582 74.6542 91.7733 74.6492 91.7869 74.6414C91.8005 74.6336 91.8124 74.6231 91.8218 74.6106C91.8313 74.598 91.838 74.5837 91.8418 74.5684C91.8507 74.5384 91.8478 74.5062 91.8335 74.4783C91.8193 74.4505 91.7949 74.4292 91.7654 74.4189L87.5975 73.1804Z" fill="#85583C"/>
<path d="M91.2288 75.1892C91.2107 75.1682 91.186 75.1541 91.1587 75.1492C91.1315 75.1442 91.1034 75.1487 91.079 75.1619C91.0547 75.1751 91.0356 75.1962 91.0249 75.2217C91.0141 75.2472 91.0125 75.2757 91.0201 75.3023C91.0577 75.3747 91.1095 75.4387 91.1724 75.4907C91.2354 75.5426 91.3081 75.5813 91.3863 75.6045C91.4645 75.6278 91.5465 75.635 91.6276 75.6259C91.7087 75.6167 91.7871 75.5914 91.8581 75.5513C92.0015 75.471 92.1079 75.338 92.1547 75.1804C92.2015 75.0229 92.1851 74.8533 92.1088 74.7077C92.0669 74.6348 92.0126 74.5696 91.9485 74.5152C91.8829 74.464 91.8083 74.4254 91.7286 74.4015C91.6977 74.3923 91.6644 74.3958 91.6361 74.4112C91.6077 74.4265 91.5867 74.4525 91.5775 74.4834C91.5683 74.5144 91.5717 74.5476 91.5871 74.576C91.6025 74.6043 91.6285 74.6254 91.6594 74.6346C91.7086 74.6445 91.7539 74.6685 91.7899 74.7036C91.8303 74.7344 91.8641 74.7732 91.8889 74.8175C91.9126 74.862 91.9272 74.9107 91.932 74.9609C91.9368 75.011 91.9317 75.0616 91.9168 75.1097C91.8856 75.2046 91.8189 75.2837 91.7307 75.3307C91.6425 75.3776 91.5395 75.3887 91.4434 75.3616C91.3455 75.3313 91.2636 75.2636 91.2155 75.1731L91.2288 75.1892Z" fill="#85583C"/>
</svg>
