<svg width="92" height="77" viewBox="0 0 92 77" fill="none" xmlns="http://www.w3.org/2000/svg">
<path d="M0.0576023 20.2424L14.128 76.2256L21.2015 74.4478L7.13109 18.4646L0.0576023 20.2424Z" fill="#ED8945"/>
<path d="M69.9174 2.68455L83.9878 58.6677L91.0613 56.8899L76.9909 0.906753L69.9174 2.68455Z" fill="#ED8945"/>
<path d="M3.59441 19.3535L17.6648 75.3367L87.2131 57.8569L73.1427 1.87374L3.59441 19.3535Z" fill="#FFAD6E"/>
<path d="M62.7561 27.5616L65.9156 40.1326L81.7623 36.1498L78.6028 23.5788L62.7561 27.5616Z" fill="#FFC59E"/>
<path d="M9.04997 41.0596L12.2095 53.6306L28.0561 49.6478L24.8966 37.0768L9.04997 41.0596Z" fill="#FFC59E"/>
<path fill-rule="evenodd" clip-rule="evenodd" d="M79.3032 46.7525L79.2986 46.7342L79.3032 46.7525ZM80.7116 47.0464L80.6874 46.9501C80.6586 46.829 80.5868 46.7225 80.4854 46.6502L80.2023 46.5509C80.1493 46.525 80.0924 46.508 80.0338 46.5007C80.0098 46.4971 79.9853 46.4983 79.9617 46.5042C79.9381 46.5102 79.9159 46.5207 79.8964 46.5352L79.4947 46.8749L79.4386 46.9231L79.387 46.8727L79.2918 46.7846L79.3526 47.7435L80.2623 47.8168L80.1729 47.7321L80.1098 47.6749L80.1682 47.6164L80.7116 47.0464ZM80.9937 48.1687L80.7634 47.2525L80.3802 47.6654L80.4949 47.773L80.5087 47.828C80.5115 47.8577 80.5034 47.8874 80.4859 47.9116C80.4772 47.9244 80.466 47.9352 80.453 47.9435C80.4401 47.9518 80.4255 47.9573 80.4103 47.9598C80.3749 47.9782 80.3357 47.9881 80.2958 47.9886L79.3001 47.9028L79.2359 47.9189L79.2187 47.8502L79.159 46.8375C79.1531 46.7172 79.1828 46.661 79.2297 46.6346C79.2767 46.6082 79.3409 46.631 79.3902 46.6722L79.4671 46.7454L79.7898 46.4598C79.8273 46.4313 79.8702 46.4107 79.9158 46.3993C79.9615 46.3878 80.009 46.3857 80.0555 46.393C80.1288 46.4025 80.2001 46.4241 80.2664 46.4569L81.6349 46.902C81.7251 46.9152 81.8091 46.9559 81.8754 47.0186C81.9417 47.0812 81.987 47.1627 82.0053 47.2521L82.2184 48.0996L81.2334 48.3472C81.073 48.3291 81.0259 48.2776 80.9972 48.1825L80.9937 48.1687Z" fill="#85583C"/>
<path d="M79.3408 50.4886C79.3408 50.4886 79.3339 50.4806 79.3408 50.4886V50.4886ZM78.8771 48.9345L79.5635 49.0689L79.592 48.9107C79.6013 48.8876 79.6178 48.868 79.639 48.8548C79.6602 48.8416 79.685 48.8355 79.7099 48.8372C79.7397 48.8402 79.7675 48.854 79.7878 48.8761C79.8183 48.904 79.8433 48.9374 79.8613 48.9745L80.3356 49.8733L80.3529 49.942L80.2945 49.9811L79.4715 50.5824C79.3753 50.6456 79.3089 50.6525 79.2653 50.6342C79.2438 50.6153 79.2285 50.5902 79.2216 50.5624C79.2146 50.5346 79.2162 50.5053 79.2262 50.4785L79.2444 50.3765L78.8306 50.2613C78.7854 50.247 78.7437 50.2235 78.7082 50.1922C78.6726 50.1608 78.644 50.1224 78.6242 50.0794C78.5932 50.0132 78.5753 49.9416 78.5712 49.8686L78.2431 48.563L78.568 49.1194L78.7465 49.8294C78.7511 49.8863 78.7651 49.9421 78.7879 49.9944C78.7979 50.0176 78.8126 50.0385 78.8312 50.0557C78.8498 50.0728 78.8718 50.0859 78.8957 50.0939L79.3782 50.2308L79.4516 50.2513L79.4356 50.3235L79.414 50.4507L80.1752 49.8941L79.7434 49.087L79.7207 49.2096L79.7082 49.2955L79.6256 49.2773L78.8579 49.1293L78.8771 48.9345Z" fill="#85583C"/>
<path fill-rule="evenodd" clip-rule="evenodd" d="M79.6334 48.2817L78.773 49.1993C78.726 49.247 78.6891 49.3036 78.6646 49.3659C78.6401 49.4281 78.6284 49.4947 78.6303 49.5615L78.3731 49.1391L78.1694 48.4451C78.1286 48.3614 78.1154 48.2669 78.1318 48.1753C78.1482 48.0836 78.1932 47.9995 78.2605 47.9352L78.8646 47.2963L79.6033 47.9873C79.7145 48.1006 79.7009 48.1625 79.6254 48.2496L79.6334 48.2817Z" fill="#85583C"/>
<path fill-rule="evenodd" clip-rule="evenodd" d="M81.5764 49.6929L81.6715 49.7225C81.7899 49.7612 81.9188 49.7516 82.0301 49.6957L82.2601 49.5064C82.3077 49.473 82.3501 49.4328 82.386 49.3871C82.4015 49.3674 82.4129 49.3448 82.4194 49.3205C82.4259 49.2963 82.4273 49.271 82.4236 49.2461L82.3016 48.7605L82.2843 48.6918L82.4813 48.6423L81.6421 48.2103L81.1149 48.9614L81.3211 48.9095L81.3407 48.9874L81.5764 49.6929ZM80.467 49.3677L81.3838 49.6244L81.2445 49.0701L81.0888 49.1092C81.0709 49.1156 81.0525 49.1202 81.0338 49.123C81.0074 49.1093 80.9864 49.0871 80.9741 49.0601C80.9572 49.0361 80.9498 49.0067 80.9534 48.9776C80.9644 48.9374 80.983 48.8996 81.0082 48.8664L81.5743 48.0374L81.6178 47.9778L81.6797 48.0109L82.5853 48.4749C82.6874 48.5321 82.7253 48.5859 82.7196 48.6409C82.7139 48.6959 82.6659 48.7372 82.6086 48.7613L82.5033 48.7878L82.6081 49.2047C82.6153 49.2514 82.6129 49.2991 82.6009 49.3448C82.5889 49.3906 82.5677 49.4334 82.5385 49.4706C82.4943 49.5288 82.4414 49.5798 82.3817 49.622L81.3014 50.5754C81.2427 50.6445 81.1639 50.6935 81.076 50.7156C80.9881 50.7377 80.8956 50.7317 80.8112 50.6986L79.97 50.4522L80.2563 49.4792C80.2917 49.368 80.357 49.3564 80.4521 49.3861L80.467 49.3677Z" fill="#85583C"/>
<path d="M76.9364 47.0259L78.0774 51.5659C78.1196 51.7185 78.2204 51.8482 78.3579 51.9268C78.4953 52.0054 78.6583 52.0265 78.8112 51.9854L83.5299 50.7995C83.6841 50.7633 83.8177 50.6677 83.9016 50.5335C83.9856 50.3992 84.0131 50.2373 83.9781 50.0829L82.837 45.5428C82.8162 45.4675 82.7807 45.3969 82.7326 45.3353C82.6845 45.2736 82.6248 45.2221 82.5567 45.1835C82.4887 45.145 82.4137 45.1203 82.3361 45.1107C82.2585 45.1011 82.1798 45.107 82.1044 45.1278L77.3857 46.3138C77.3094 46.331 77.2373 46.3631 77.1735 46.4082C77.1096 46.4533 77.0552 46.5106 77.0135 46.5767C76.9718 46.6428 76.9435 46.7165 76.9303 46.7936C76.917 46.8707 76.9191 46.9496 76.9364 47.0259ZM82.1163 45.4853C82.1966 45.465 82.2816 45.4765 82.3536 45.5174C82.4256 45.5583 82.479 45.6254 82.5027 45.7048L83.6069 50.0982C83.6165 50.1387 83.6179 50.1806 83.6112 50.2216C83.6046 50.2627 83.5899 50.302 83.568 50.3373C83.5461 50.3727 83.5175 50.4034 83.4838 50.4276C83.45 50.4519 83.4118 50.4693 83.3714 50.4789L78.7901 51.6303C78.7499 51.6417 78.7079 51.6449 78.6665 51.6398C78.625 51.6346 78.5851 51.6212 78.5489 51.6003C78.5128 51.5794 78.4812 51.5514 78.4561 51.5181C78.4309 51.4848 78.4128 51.4467 78.4026 51.4062L77.2984 47.0128C77.2805 46.9316 77.2953 46.8466 77.3396 46.7762C77.3839 46.7058 77.4541 46.6557 77.5351 46.6367L82.1163 45.4853Z" fill="#85583C"/>
<path d="M83.8301 52.4192L84.5728 55.3741C84.5798 55.4021 84.5755 55.4317 84.5607 55.4564C84.5459 55.4811 84.5219 55.499 84.4939 55.506C84.466 55.513 84.4364 55.5086 84.4117 55.4938C84.3869 55.479 84.3691 55.455 84.3621 55.4271L83.6194 52.4722C83.616 52.4585 83.6153 52.4443 83.6175 52.4305C83.6197 52.4166 83.6247 52.4033 83.6322 52.3914C83.6397 52.3795 83.6495 52.3693 83.6611 52.3613C83.6726 52.3533 83.6857 52.3477 83.6995 52.3449C83.7266 52.338 83.7554 52.3419 83.7797 52.3558C83.8041 52.3696 83.8221 52.3923 83.8301 52.4192Z" fill="#85583C"/>
<path fill-rule="evenodd" clip-rule="evenodd" d="M80.5865 55.2895L83.6697 54.5146L83.8263 55.1377L80.7385 55.9137L80.8156 56.2207L79.8688 55.7865L80.5036 54.9597L80.5865 55.2895Z" fill="#85583C"/>
<path fill-rule="evenodd" clip-rule="evenodd" d="M80.1994 53.7505L83.2872 52.9745L83.4449 53.6021L80.3571 54.3781L80.4297 54.6862L79.4828 54.2521L80.1176 53.4252L80.1994 53.7505Z" fill="#85583C"/>
<path d="M78.4219 52.9357L79.563 57.4758C79.6051 57.6284 79.7059 57.7581 79.8434 57.8367C79.9808 57.9153 80.1438 57.9364 80.2967 57.8953L85.0154 56.7094C85.1696 56.6732 85.3032 56.5776 85.3872 56.4434C85.4711 56.3092 85.4986 56.1472 85.4636 55.9928L84.3226 51.4527C84.2804 51.3001 84.1796 51.1704 84.0421 51.0918C83.9047 51.0132 83.7417 50.9921 83.5888 51.0332L78.8701 52.2191C78.7159 52.2553 78.5823 52.3509 78.4984 52.4851C78.4144 52.6193 78.3869 52.7813 78.4219 52.9357ZM83.6019 51.3952C83.6822 51.3737 83.7678 51.3847 83.8401 51.4257C83.9124 51.4668 83.9656 51.5347 83.9882 51.6147L85.0924 56.0081C85.1103 56.0893 85.0955 56.1743 85.0512 56.2447C85.0069 56.315 84.9367 56.3652 84.8558 56.3842L80.2745 57.5356C80.2347 57.5469 80.1931 57.5502 80.152 57.5452C80.111 57.5403 80.0713 57.5272 80.0353 57.5068C79.9994 57.4864 79.9679 57.459 79.9426 57.4263C79.9173 57.3935 79.8988 57.3561 79.8881 57.3161L78.7839 52.9227C78.7744 52.8824 78.773 52.8407 78.7798 52.7999C78.7866 52.7591 78.8015 52.7201 78.8235 52.6851C78.8455 52.6501 78.8743 52.6198 78.9081 52.596C78.942 52.5723 78.9802 52.5555 79.0206 52.5466L83.6019 51.3952Z" fill="#85583C"/>
<path d="M75.4524 41.1206L76.5923 45.6561C76.6346 45.8091 76.7354 45.9394 76.8729 46.0187C77.0104 46.0981 77.1736 46.1202 77.3272 46.0802L82.046 44.8942C82.2002 44.8568 82.3336 44.7602 82.4172 44.6252C82.5009 44.4903 82.5281 44.3279 82.493 44.173L81.3531 39.6376C81.3109 39.485 81.2101 39.3553 81.0727 39.2767C80.9352 39.1981 80.7723 39.177 80.6194 39.2181L75.9006 40.404C75.7465 40.4402 75.6129 40.5358 75.5289 40.67C75.4449 40.8042 75.4175 40.9662 75.4524 41.1206ZM80.6313 39.5755C80.7123 39.5551 80.7981 39.5671 80.8705 39.6089C80.9428 39.6507 80.996 39.7191 81.0188 39.7996L82.1218 44.1884C82.1314 44.2289 82.1328 44.2708 82.1262 44.3118C82.1195 44.3529 82.1048 44.3922 82.0829 44.4275C82.0611 44.4629 82.0324 44.4936 81.9987 44.5179C81.965 44.5422 81.9268 44.5595 81.8863 44.5691L77.305 45.7205C77.2649 45.7319 77.2228 45.7351 77.1814 45.73C77.14 45.7248 77.1 45.7114 77.0638 45.6905C77.0277 45.6696 76.9961 45.6416 76.971 45.6083C76.9458 45.575 76.9277 45.5369 76.9175 45.4964L75.8144 41.1076C75.8049 41.0671 75.8034 41.0252 75.8101 40.9842C75.8168 40.9431 75.8315 40.9038 75.8534 40.8685C75.8752 40.8331 75.9039 40.8024 75.9376 40.7781C75.9713 40.7538 76.0095 40.7364 76.05 40.7269L80.6313 39.5755Z" fill="#85583C"/>
<path fill-rule="evenodd" clip-rule="evenodd" d="M77.5546 43.0325C77.6697 43.4941 77.9376 43.903 78.3147 44.193C78.6917 44.4829 79.1558 44.6367 79.6314 44.6293C79.5231 44.5545 79.4475 44.441 79.4202 44.3122C79.365 44.0923 79.43 43.886 79.5628 43.8332C79.4254 43.8677 79.2751 43.696 79.221 43.4807C79.1669 43.2654 79.2262 43.0557 79.359 43.0028C79.2262 43.0362 79.0667 42.8668 79.0126 42.6515C78.9585 42.4362 79.0224 42.2253 79.1552 42.1724C79.0223 42.2058 78.8674 42.0353 78.8133 41.82C78.7592 41.6047 78.822 41.3892 78.956 41.3409C78.8185 41.3755 78.6602 41.2107 78.6049 40.9908C78.5713 40.8795 78.5756 40.7602 78.6171 40.6516C78.199 40.8723 77.8671 41.2268 77.6745 41.6585C77.4819 42.0902 77.4397 42.574 77.5546 43.0325Z" fill="#85583C"/>
<path d="M77.4228 42.9343C77.3973 42.9407 77.3753 42.957 77.3618 42.9796C77.3483 43.0022 77.3444 43.0292 77.3508 43.0547C77.3572 43.0802 77.3734 43.1021 77.396 43.1156C77.4186 43.1291 77.4456 43.1331 77.4711 43.1267L80.9117 42.262C80.9241 42.2589 80.9358 42.2533 80.946 42.2455C80.9562 42.2378 80.9647 42.228 80.971 42.2168C80.9773 42.2057 80.9813 42.1934 80.9827 42.1806C80.9841 42.1679 80.9829 42.155 80.9791 42.1428C80.9729 42.118 80.9575 42.0966 80.9359 42.083C80.9143 42.0693 80.8883 42.0645 80.8633 42.0696L77.4228 42.9343Z" fill="#85583C"/>
<path d="M80.8073 42.8336C80.7859 42.8265 80.7626 42.8269 80.7415 42.8347C80.7203 42.8426 80.7024 42.8574 80.6908 42.8768C80.6792 42.8962 80.6746 42.9189 80.6777 42.9413C80.6808 42.9637 80.6914 42.9844 80.7078 42.9999C80.7644 43.035 80.8274 43.0584 80.8931 43.0687C80.9589 43.079 81.0261 43.0759 81.0906 43.0597C81.1552 43.0434 81.2158 43.0144 81.2689 42.9743C81.3219 42.9341 81.3664 42.8837 81.3996 42.826C81.4669 42.71 81.4862 42.5723 81.4535 42.4423C81.4208 42.3122 81.3387 42.2001 81.2246 42.1296C81.1648 42.0959 81.0997 42.0727 81.032 42.0612C80.9647 42.0525 80.8963 42.0565 80.8304 42.0729C80.8049 42.0793 80.783 42.0956 80.7695 42.1181C80.756 42.1407 80.752 42.1677 80.7584 42.1933C80.7648 42.2188 80.7811 42.2407 80.8037 42.2542C80.8262 42.2677 80.8532 42.2717 80.8788 42.2653C80.9175 42.2518 80.9592 42.2497 80.9991 42.2594C81.0403 42.2642 81.0801 42.2774 81.116 42.2982C81.1511 42.3195 81.1816 42.3476 81.2059 42.3808C81.2301 42.414 81.2475 42.4517 81.2571 42.4916C81.2747 42.5713 81.2608 42.6545 81.2184 42.7242C81.176 42.7938 81.1084 42.8444 81.0296 42.8654C80.9483 42.8849 80.8627 42.8714 80.7913 42.8279L80.8073 42.8336Z" fill="#85583C"/>
</svg>
