<svg width="658" height="472" viewBox="0 0 658 472" fill="none" xmlns="http://www.w3.org/2000/svg">
<g style="mix-blend-mode:multiply">
<path d="M456.51 471.238C567.79 471.238 658 467.532 658 462.961C658 458.39 567.79 454.684 456.51 454.684C345.23 454.684 255.019 458.39 255.019 462.961C255.019 467.532 345.23 471.238 456.51 471.238Z" fill="#E4E6E9"/>
</g>
<path d="M625.653 454.684H280.489V461.705H625.653V454.684Z" fill="#F8CE84"/>
<path d="M625.653 420.146H280.489V427.168H625.653V420.146Z" fill="#F8CE84"/>
<path d="M474.228 427.168H431.915V454.684H474.228V427.168Z" fill="#F09E5B"/>
<path d="M325.98 427.168H283.667V454.684H325.98V427.168Z" fill="#F09E5B"/>
<path d="M622.48 427.168H580.167V454.684H622.48V427.168Z" fill="#F09E5B"/>
<path d="M502.606 242.256H399.147V255.328H502.606V242.256Z" fill="#ED8945"/>
<path d="M502.606 162.822H399.147V248.238H502.606V162.822Z" fill="#FFAD6E"/>
<path d="M464.422 218.953H437.335V248.238H464.422V218.953Z" fill="#FFC59E"/>
<path d="M464.422 162.822H437.335V192.107H464.422V162.822Z" fill="#FFC59E"/>
<path fill-rule="evenodd" clip-rule="evenodd" d="M426.703 240.129C426.703 240.129 426.707 240.146 426.703 240.129V240.129ZM425.25 242.577H425.475C425.746 242.582 426.01 242.499 426.229 242.34L426.599 241.871C426.676 241.788 426.74 241.693 426.787 241.59C426.809 241.548 426.82 241.501 426.82 241.453C426.82 241.406 426.809 241.359 426.787 241.317L426.273 240.479L426.197 240.35L426.338 240.274L426.578 240.141L424.516 239.808L423.862 241.449L424.095 241.321L424.251 241.233L424.352 241.365L425.25 242.577ZM422.675 242.577H424.817L424.139 241.662L423.842 241.827C423.798 241.835 423.753 241.835 423.71 241.827C423.647 241.821 423.587 241.794 423.541 241.75C423.502 241.707 423.48 241.652 423.477 241.594C423.478 241.514 423.498 241.436 423.533 241.365L424.263 239.544L424.312 239.415L424.468 239.443L426.695 239.8C426.952 239.849 427.064 239.933 427.096 240.029C427.128 240.125 427.04 240.238 426.932 240.306L426.735 240.414L427.172 241.133C427.217 241.211 427.243 241.298 427.248 241.388C427.252 241.478 427.236 241.568 427.2 241.65C427.139 241.783 427.056 241.905 426.956 242.011L425.25 244.314C425.155 244.481 425.014 244.618 424.845 244.709C424.675 244.8 424.483 244.841 424.291 244.828H422.338V242.906C422.297 242.649 422.43 242.589 422.687 242.577H422.675Z" fill="#85583C"/>
<path d="M418.578 238.501C418.578 238.501 418.594 238.468 418.578 238.501V238.501ZM422.141 238.304L421.479 239.508L421.804 239.632C421.839 239.654 421.868 239.684 421.888 239.72C421.9 239.745 421.906 239.773 421.906 239.8C421.906 239.828 421.9 239.856 421.888 239.881C421.864 239.936 421.821 239.982 421.768 240.009C421.689 240.054 421.601 240.083 421.511 240.093L419.312 240.555L419.156 240.591L419.1 240.463L418.253 238.681C418.161 238.472 418.181 238.344 418.253 238.28C418.306 238.243 418.367 238.221 418.431 238.214C418.495 238.208 418.559 238.218 418.618 238.244L418.835 238.324L419.308 237.622C419.431 237.464 419.609 237.358 419.806 237.325C419.969 237.303 420.135 237.303 420.299 237.325H423.292L421.912 237.666L420.283 237.634C420.158 237.616 420.031 237.616 419.906 237.634C419.853 237.64 419.802 237.657 419.756 237.683C419.71 237.709 419.67 237.744 419.637 237.786L419.079 238.589L418.999 238.713L418.847 238.653L418.582 238.553L419.384 240.206L421.366 239.804L421.11 239.708L420.937 239.644L421.017 239.5L421.76 238.159L422.141 238.304Z" fill="#85583C"/>
<path fill-rule="evenodd" clip-rule="evenodd" d="M423.176 240.029L421.663 238.023C421.488 237.806 421.237 237.663 420.961 237.622L421.956 237.345L423.561 237.289C423.753 237.253 423.952 237.272 424.134 237.343C424.316 237.413 424.475 237.534 424.592 237.69L425.648 239.086L423.742 240.121C423.449 240.282 423.312 240.218 423.164 240.041L423.176 240.029Z" fill="#85583C"/>
<path fill-rule="evenodd" clip-rule="evenodd" d="M420.801 245.237C420.801 245.237 420.781 245.233 420.801 245.237V245.237ZM419.043 242.942L418.931 243.107C418.86 243.201 418.81 243.31 418.786 243.426C418.762 243.542 418.763 243.662 418.791 243.777L419.075 244.286C419.121 244.39 419.183 244.485 419.26 244.567C419.335 244.643 419.435 244.69 419.541 244.7L420.656 244.748H420.821V244.892V245.137L422.205 243.797L420.873 242.485V242.722V242.878H420.688L419.043 242.942ZM420.351 241.056L419.264 242.625L420.54 242.593V242.292V242.252C420.549 242.215 420.567 242.181 420.592 242.152C420.634 242.104 420.693 242.074 420.757 242.068C420.823 242.06 420.889 242.071 420.949 242.1C421.025 242.14 421.093 242.193 421.15 242.256L422.63 243.709L422.735 243.813L422.63 243.913L421.138 245.358C420.961 245.526 420.817 245.566 420.704 245.534C420.648 245.517 420.599 245.482 420.563 245.436C420.527 245.389 420.506 245.332 420.504 245.273V245.073L419.553 245.029C419.35 245.019 419.158 244.933 419.015 244.788C418.913 244.681 418.831 244.558 418.771 244.423L417.298 242.015C417.177 241.887 417.107 241.719 417.1 241.543C417.094 241.366 417.151 241.194 417.262 241.056L418.253 239.624L420.203 240.599C420.476 240.736 420.472 240.864 420.351 241.056Z" fill="#85583C"/>
<path d="M427.345 235.656H416.913C416.587 235.637 416.267 235.748 416.023 235.963C415.778 236.179 415.628 236.482 415.605 236.807V246.008C415.628 246.333 415.778 246.636 416.023 246.852C416.267 247.067 416.587 247.178 416.913 247.159H427.345C427.67 247.178 427.989 247.067 428.232 246.851C428.476 246.636 428.624 246.332 428.645 246.008V236.807C428.624 236.483 428.476 236.179 428.232 235.964C427.989 235.748 427.67 235.637 427.345 235.656ZM427.866 245.859C427.854 246.03 427.775 246.189 427.647 246.303C427.519 246.417 427.352 246.477 427.18 246.469H417.089C416.918 246.478 416.749 246.419 416.62 246.305C416.491 246.191 416.412 246.031 416.399 245.859V236.956C416.405 236.871 416.426 236.787 416.464 236.71C416.501 236.633 416.554 236.564 416.618 236.508C416.682 236.451 416.757 236.408 416.838 236.38C416.918 236.352 417.004 236.341 417.089 236.346H427.18C427.352 236.337 427.52 236.396 427.648 236.51C427.777 236.625 427.855 236.785 427.866 236.956V245.859Z" fill="#85583C"/>
<path d="M411.966 245.811H405.177C405.148 245.817 405.117 245.816 405.088 245.809C405.058 245.801 405.031 245.788 405.007 245.769C404.984 245.749 404.965 245.725 404.952 245.698C404.939 245.67 404.932 245.641 404.932 245.61C404.932 245.58 404.939 245.55 404.952 245.523C404.965 245.495 404.984 245.471 405.007 245.452C405.031 245.433 405.058 245.419 405.088 245.412C405.117 245.404 405.148 245.404 405.177 245.41H411.966C411.996 245.404 412.026 245.404 412.056 245.412C412.085 245.419 412.113 245.433 412.136 245.452C412.159 245.471 412.178 245.495 412.191 245.523C412.204 245.55 412.211 245.58 412.211 245.61C412.211 245.641 412.204 245.67 412.191 245.698C412.178 245.725 412.159 245.749 412.136 245.769C412.113 245.788 412.085 245.801 412.056 245.809C412.026 245.816 411.996 245.817 411.966 245.811Z" fill="#85583C"/>
<path fill-rule="evenodd" clip-rule="evenodd" d="M407.532 238.545V244.559H406.096V238.541L405.394 238.537L406.842 237L408.287 238.545H407.532Z" fill="#85583C"/>
<path fill-rule="evenodd" clip-rule="evenodd" d="M411.055 238.549V244.559H409.623V238.545L408.917 238.541L410.369 237.004L411.809 238.549H411.055Z" fill="#85583C"/>
<path d="M413.787 235.656H403.356C403.03 235.637 402.71 235.748 402.465 235.963C402.22 236.179 402.07 236.482 402.048 236.807V246.008C402.07 246.333 402.22 246.636 402.465 246.852C402.71 247.067 403.03 247.178 403.356 247.159H413.787C414.112 247.177 414.43 247.066 414.674 246.85C414.917 246.635 415.066 246.332 415.087 246.008V236.807C415.066 236.483 414.917 236.18 414.674 235.965C414.43 235.749 414.112 235.638 413.787 235.656ZM414.305 245.859C414.293 246.03 414.214 246.189 414.086 246.303C413.958 246.417 413.79 246.477 413.619 246.469H403.532C403.36 246.479 403.191 246.42 403.062 246.306C402.932 246.192 402.853 246.031 402.842 245.859V236.956C402.847 236.871 402.869 236.787 402.907 236.71C402.944 236.633 402.996 236.564 403.061 236.508C403.125 236.451 403.199 236.408 403.28 236.38C403.361 236.352 403.447 236.341 403.532 236.346H413.619C413.791 236.337 413.959 236.396 414.087 236.51C414.215 236.625 414.294 236.785 414.305 236.956V245.859Z" fill="#85583C"/>
<path d="M398.344 328.21H294.885V341.282H398.344V328.21Z" fill="#ED8945"/>
<path d="M502.61 328.21H399.151V341.282H502.61V328.21Z" fill="#ED8945"/>
<path d="M398.344 334.73H294.885V420.146H398.344V334.73Z" fill="#FFAD6E"/>
<path d="M360.16 390.865H333.073V420.15H360.16V390.865Z" fill="#FFC59E"/>
<path d="M360.16 334.73H333.073V364.015H360.16V334.73Z" fill="#FFC59E"/>
<path fill-rule="evenodd" clip-rule="evenodd" d="M322.441 412.038C322.441 412.038 322.445 412.054 322.441 412.038V412.038ZM320.993 414.485H321.217C321.486 414.49 321.75 414.407 321.968 414.248L322.341 413.779C322.42 413.698 322.485 413.604 322.533 413.502C322.555 413.459 322.566 413.412 322.566 413.364C322.566 413.315 322.555 413.268 322.533 413.225L322.02 412.387L321.943 412.262L322.084 412.182L322.325 412.05L320.262 411.717L319.604 413.358L319.841 413.229L319.998 413.141L320.094 413.273L320.993 414.485ZM318.413 414.485H320.559L319.881 413.57L319.584 413.735H319.56C319.516 413.743 319.472 413.743 319.428 413.735C319.365 413.729 319.305 413.702 319.259 413.659C319.218 413.617 319.195 413.561 319.195 413.502C319.195 413.423 319.213 413.345 319.247 413.273L319.977 411.452L320.03 411.323L320.186 411.351L322.409 411.709C322.67 411.757 322.782 411.841 322.81 411.937C322.838 412.034 322.758 412.146 322.65 412.214L322.449 412.322L322.89 413.041C322.934 413.119 322.959 413.207 322.964 413.297C322.968 413.386 322.951 413.476 322.914 413.558C322.855 413.692 322.773 413.815 322.67 413.919L320.968 416.222C320.873 416.389 320.733 416.526 320.563 416.617C320.393 416.708 320.201 416.749 320.01 416.736H318.056V414.818C318.036 414.557 318.168 414.497 318.421 414.485H318.413Z" fill="#85583C"/>
<path d="M314.316 410.409C314.316 410.409 314.328 410.381 314.316 410.393V410.409ZM317.875 410.212L317.213 411.416L317.538 411.536H317.562C317.596 411.559 317.625 411.589 317.646 411.624C317.659 411.649 317.666 411.677 317.666 411.705C317.666 411.733 317.659 411.76 317.646 411.785C317.624 411.842 317.581 411.89 317.526 411.917C317.447 411.959 317.362 411.986 317.273 411.998L315.075 412.463L314.918 412.495L314.858 412.367L314.015 410.585C313.919 410.377 313.943 410.252 314.015 410.184C314.067 410.147 314.128 410.125 314.192 410.119C314.255 410.114 314.319 410.125 314.376 410.152L314.589 410.232L315.066 409.53C315.19 409.373 315.367 409.267 315.564 409.233C315.728 409.212 315.894 409.212 316.058 409.233H319.051L317.67 409.574L316.037 409.542C315.904 409.522 315.769 409.522 315.636 409.542C315.531 409.556 315.436 409.611 315.371 409.695L314.814 410.497L314.729 410.617L314.577 410.557L314.316 410.457L315.099 412.11L317.081 411.709L316.824 411.612L316.655 411.548L316.736 411.404L317.478 410.064L317.875 410.212Z" fill="#85583C"/>
<path fill-rule="evenodd" clip-rule="evenodd" d="M318.914 411.937L317.401 409.931C317.226 409.712 316.973 409.568 316.695 409.53L317.694 409.249L319.299 409.193C319.491 409.157 319.689 409.175 319.87 409.246C320.052 409.317 320.21 409.438 320.326 409.594L321.382 410.99L319.48 412.026C319.183 412.186 319.05 412.122 318.902 411.945L318.914 411.937Z" fill="#85583C"/>
<path fill-rule="evenodd" clip-rule="evenodd" d="M316.539 417.125C316.539 417.125 316.519 417.141 316.539 417.145V417.125ZM314.782 414.83L314.665 414.995C314.596 415.09 314.548 415.199 314.524 415.315C314.499 415.43 314.5 415.549 314.525 415.665L314.814 416.174C314.86 416.277 314.923 416.371 314.998 416.455C315.074 416.533 315.175 416.58 315.283 416.587L316.394 416.64H316.563V416.78V417.025L317.947 415.685L316.611 414.373V414.609V414.766H316.423L314.782 414.83ZM316.09 412.944L314.998 414.513L316.274 414.481V414.18V414.14C316.283 414.103 316.301 414.068 316.326 414.04C316.369 413.992 316.428 413.962 316.491 413.955C316.555 413.947 316.621 413.958 316.679 413.987C316.757 414.026 316.826 414.079 316.884 414.144L318.365 415.6L318.469 415.701L318.365 415.805L316.872 417.249C316.691 417.414 316.551 417.454 316.435 417.422C316.378 417.405 316.329 417.37 316.294 417.324C316.258 417.277 316.239 417.22 316.238 417.161V416.961L315.283 416.92C315.081 416.907 314.891 416.82 314.749 416.676C314.647 416.57 314.565 416.448 314.505 416.315L313.028 413.907C312.909 413.778 312.84 413.61 312.834 413.434C312.828 413.258 312.886 413.085 312.996 412.948L313.987 411.52L315.937 412.491C316.206 412.631 316.206 412.772 316.09 412.964V412.944Z" fill="#85583C"/>
<path d="M323.091 407.564H312.659C312.334 407.546 312.015 407.657 311.771 407.872C311.527 408.088 311.378 408.391 311.355 408.715V417.915C311.378 418.24 311.527 418.543 311.771 418.758C312.015 418.974 312.334 419.085 312.659 419.067H323.091C323.415 419.085 323.734 418.974 323.977 418.758C324.221 418.542 324.369 418.24 324.391 417.915V408.715C324.369 408.391 324.221 408.088 323.977 407.873C323.734 407.657 323.415 407.546 323.091 407.564ZM323.612 417.767C323.6 417.939 323.521 418.099 323.392 418.213C323.263 418.327 323.094 418.386 322.922 418.377H312.836C312.664 418.386 312.495 418.327 312.366 418.213C312.237 418.099 312.158 417.939 312.146 417.767V408.864C312.157 408.692 312.236 408.531 312.365 408.417C312.494 408.303 312.663 408.244 312.836 408.254H322.922C323.094 408.245 323.263 408.304 323.392 408.418C323.521 408.532 323.6 408.692 323.612 408.864V417.767Z" fill="#85583C"/>
<path d="M307.7 417.719H300.915C300.886 417.725 300.855 417.724 300.826 417.717C300.796 417.709 300.769 417.696 300.745 417.677C300.722 417.657 300.703 417.633 300.69 417.606C300.677 417.578 300.67 417.549 300.67 417.518C300.67 417.488 300.677 417.458 300.69 417.431C300.703 417.403 300.722 417.379 300.745 417.36C300.769 417.341 300.796 417.327 300.826 417.32C300.855 417.312 300.886 417.312 300.915 417.318H307.7C307.73 417.312 307.76 417.312 307.79 417.32C307.819 417.327 307.847 417.341 307.87 417.36C307.893 417.379 307.912 417.403 307.925 417.431C307.938 417.458 307.945 417.488 307.945 417.518C307.945 417.549 307.938 417.578 307.925 417.606C307.912 417.633 307.893 417.657 307.87 417.677C307.847 417.696 307.819 417.709 307.79 417.717C307.76 417.724 307.73 417.725 307.7 417.719Z" fill="#85583C"/>
<path fill-rule="evenodd" clip-rule="evenodd" d="M303.27 410.453V416.467H301.834V410.449H301.128L302.58 408.908L304.021 410.457L303.27 410.453Z" fill="#85583C"/>
<path fill-rule="evenodd" clip-rule="evenodd" d="M306.793 410.457V416.471H305.357V410.453H304.651L306.103 408.912L307.548 410.457H306.793Z" fill="#85583C"/>
<path d="M309.522 407.564H299.09C298.764 407.545 298.444 407.656 298.199 407.871C297.954 408.087 297.804 408.39 297.782 408.715V417.916C297.804 418.241 297.954 418.544 298.199 418.76C298.444 418.975 298.764 419.086 299.09 419.067H309.522C309.846 419.085 310.165 418.974 310.408 418.758C310.651 418.543 310.8 418.24 310.822 417.916V408.715C310.8 408.391 310.651 408.088 310.408 407.873C310.165 407.657 309.846 407.546 309.522 407.564ZM310.043 417.767C310.031 417.939 309.952 418.099 309.823 418.213C309.694 418.327 309.525 418.386 309.353 418.377H299.266C299.094 418.386 298.926 418.327 298.797 418.213C298.668 418.099 298.589 417.939 298.576 417.767V408.864C298.588 408.692 298.666 408.531 298.796 408.417C298.925 408.303 299.094 408.244 299.266 408.254H309.353C309.525 408.245 309.694 408.304 309.823 408.418C309.952 408.532 310.031 408.692 310.043 408.864V417.767Z" fill="#85583C"/>
<path d="M398.344 248.78H294.885V334.196H398.344V248.78Z" fill="#FFAD6E"/>
<path d="M360.16 304.911H333.073V334.197H360.16V304.911Z" fill="#FFC59E"/>
<path d="M360.16 248.78H333.073V278.065H360.16V248.78Z" fill="#FFC59E"/>
<path fill-rule="evenodd" clip-rule="evenodd" d="M322.441 326.084C322.441 326.084 322.445 326.104 322.441 326.084V326.084ZM320.993 328.535H321.217C321.486 328.54 321.75 328.457 321.968 328.298L322.341 327.829C322.42 327.748 322.485 327.655 322.533 327.552C322.555 327.51 322.566 327.463 322.566 327.416C322.566 327.368 322.555 327.322 322.533 327.279L322.02 326.437L321.943 326.312L322.084 326.236L322.325 326.104L320.262 325.771L319.604 327.412L319.841 327.279L319.998 327.191L320.094 327.328L320.993 328.535ZM318.413 328.535H320.559L319.881 327.62L319.584 327.785H319.56C319.517 327.795 319.471 327.795 319.428 327.785C319.364 327.781 319.304 327.754 319.259 327.709C319.239 327.688 319.222 327.664 319.211 327.637C319.2 327.61 319.195 327.581 319.195 327.552C319.195 327.474 319.213 327.398 319.247 327.328L319.977 325.506L320.03 325.378L320.186 325.402L322.409 325.763C322.67 325.807 322.782 325.891 322.81 325.991C322.838 326.092 322.758 326.196 322.65 326.268L322.449 326.377L322.89 327.095C322.934 327.173 322.959 327.261 322.964 327.351C322.968 327.441 322.951 327.53 322.914 327.612C322.855 327.746 322.772 327.868 322.67 327.973L320.968 330.276C320.874 330.444 320.733 330.581 320.563 330.671C320.393 330.761 320.201 330.801 320.01 330.786H318.056V328.868C318.036 328.607 318.168 328.543 318.421 328.535H318.413Z" fill="#85583C"/>
<path d="M314.316 324.455C314.316 324.455 314.328 324.427 314.316 324.439V324.455ZM317.875 324.258L317.213 325.462L317.538 325.586H317.562C317.597 325.607 317.626 325.636 317.646 325.67C317.659 325.695 317.666 325.723 317.666 325.751C317.666 325.779 317.659 325.806 317.646 325.831C317.625 325.889 317.582 325.937 317.526 325.963C317.447 326.005 317.361 326.033 317.273 326.048L315.075 326.509L314.918 326.541L314.858 326.417L314.015 324.635C313.919 324.423 313.943 324.298 314.015 324.234C314.068 324.198 314.128 324.176 314.192 324.171C314.255 324.165 314.319 324.176 314.376 324.202L314.589 324.286L315.066 323.584C315.188 323.424 315.366 323.318 315.564 323.287C315.727 323.258 315.893 323.25 316.058 323.263H319.051L317.67 323.6L316.037 323.572C315.904 323.554 315.769 323.554 315.636 323.572C315.532 323.588 315.438 323.643 315.371 323.725L314.814 324.527L314.729 324.647L314.577 324.591L314.316 324.491L315.099 326.144L317.081 325.743L316.824 325.646L316.655 325.582L316.736 325.438L317.478 324.098L317.875 324.258Z" fill="#85583C"/>
<path fill-rule="evenodd" clip-rule="evenodd" d="M318.914 325.987L317.401 323.981C317.225 323.763 316.973 323.62 316.695 323.58L317.694 323.303L319.299 323.243C319.491 323.208 319.688 323.226 319.87 323.297C320.051 323.368 320.209 323.488 320.326 323.644L321.382 325.04L319.48 326.075C319.183 326.232 319.05 326.172 318.902 325.995L318.914 325.987Z" fill="#85583C"/>
<path fill-rule="evenodd" clip-rule="evenodd" d="M316.539 331.207C316.539 331.207 316.519 331.183 316.539 331.183V331.207ZM314.782 328.912L314.665 329.073C314.596 329.169 314.548 329.279 314.524 329.395C314.499 329.511 314.5 329.631 314.525 329.747L314.814 330.252C314.86 330.355 314.922 330.45 314.998 330.533C315.073 330.612 315.175 330.66 315.283 330.67L316.395 330.718H316.563V330.858V331.103L317.947 329.763L316.611 328.451V328.688V328.848H316.423L314.782 328.912ZM316.09 327.027L314.998 328.591L316.274 328.563V328.258V328.222C316.283 328.184 316.3 328.148 316.326 328.118C316.37 328.072 316.428 328.042 316.491 328.034C316.556 328.025 316.621 328.037 316.68 328.066C316.757 328.105 316.826 328.158 316.884 328.222L318.365 329.679L318.469 329.783L318.365 329.883L316.872 331.328C316.692 331.492 316.551 331.532 316.435 331.5C316.379 331.483 316.33 331.45 316.295 331.403C316.26 331.357 316.24 331.301 316.238 331.243V331.047L315.283 331.003C315.081 330.991 314.89 330.904 314.75 330.758C314.647 330.653 314.564 330.531 314.505 330.397L313.028 327.989C312.909 327.859 312.841 327.69 312.835 327.514C312.829 327.337 312.886 327.165 312.996 327.027L313.987 325.598L315.937 326.569C316.206 326.694 316.206 326.822 316.09 327.014V327.027Z" fill="#85583C"/>
<path d="M323.091 321.61H312.659C312.334 321.593 312.016 321.705 311.772 321.92C311.529 322.135 311.379 322.437 311.355 322.761V331.986C311.378 332.31 311.527 332.612 311.771 332.827C312.016 333.042 312.334 333.152 312.659 333.133H323.091C323.415 333.152 323.734 333.042 323.977 332.827C324.22 332.612 324.369 332.31 324.391 331.986V322.757C324.368 322.433 324.219 322.131 323.976 321.916C323.733 321.701 323.415 321.589 323.091 321.606V321.61ZM323.612 331.817C323.6 331.989 323.521 332.149 323.392 332.263C323.263 332.377 323.094 332.436 322.922 332.427H312.836C312.664 332.436 312.495 332.377 312.366 332.263C312.237 332.149 312.158 331.989 312.146 331.817V322.91C312.157 322.738 312.236 322.577 312.365 322.463C312.494 322.349 312.663 322.29 312.836 322.3H322.922C323.094 322.291 323.263 322.35 323.392 322.464C323.521 322.578 323.6 322.738 323.612 322.91V331.817Z" fill="#85583C"/>
<path d="M307.7 331.769H300.915C300.886 331.775 300.855 331.774 300.826 331.767C300.796 331.76 300.769 331.746 300.745 331.727C300.722 331.707 300.703 331.683 300.69 331.656C300.677 331.629 300.67 331.599 300.67 331.568C300.67 331.538 300.677 331.508 300.69 331.481C300.703 331.453 300.722 331.429 300.745 331.41C300.769 331.391 300.796 331.377 300.826 331.37C300.855 331.362 300.886 331.362 300.915 331.368H307.7C307.73 331.362 307.76 331.362 307.79 331.37C307.819 331.377 307.847 331.391 307.87 331.41C307.893 331.429 307.912 331.453 307.925 331.481C307.938 331.508 307.945 331.538 307.945 331.568C307.945 331.599 307.938 331.629 307.925 331.656C307.912 331.683 307.893 331.707 307.87 331.727C307.847 331.746 307.819 331.76 307.79 331.767C307.76 331.774 307.73 331.775 307.7 331.769Z" fill="#85583C"/>
<path fill-rule="evenodd" clip-rule="evenodd" d="M303.27 324.503V330.513H301.834V324.499L301.128 324.495L302.58 322.954L304.021 324.503H303.27Z" fill="#85583C"/>
<path fill-rule="evenodd" clip-rule="evenodd" d="M306.793 324.503V330.517H305.357V324.499H304.651L306.103 322.958L307.548 324.507L306.793 324.503Z" fill="#85583C"/>
<path d="M309.522 321.61H299.09C298.764 321.592 298.445 321.703 298.2 321.918C297.956 322.134 297.805 322.436 297.782 322.761V331.986C297.805 332.31 297.956 332.613 298.201 332.827C298.445 333.042 298.765 333.152 299.09 333.133H309.522C309.846 333.152 310.164 333.042 310.408 332.827C310.651 332.612 310.8 332.31 310.822 331.986V322.757C310.799 322.433 310.65 322.131 310.407 321.916C310.164 321.701 309.846 321.589 309.522 321.606V321.61ZM310.043 331.817C310.031 331.989 309.952 332.149 309.823 332.263C309.694 332.377 309.525 332.436 309.353 332.427H299.266C299.094 332.436 298.926 332.377 298.797 332.263C298.668 332.149 298.589 331.989 298.576 331.817V322.91C298.588 322.738 298.666 322.577 298.796 322.463C298.925 322.349 299.094 322.29 299.266 322.3H309.353C309.525 322.291 309.694 322.35 309.823 322.464C309.952 322.578 310.031 322.738 310.043 322.91V331.817Z" fill="#85583C"/>
<path d="M502.61 248.78H399.151V334.196H502.61V248.78Z" fill="#FFAD6E"/>
<path d="M464.426 304.911H437.339V334.197H464.426V304.911Z" fill="#FFC59E"/>
<path d="M464.426 248.78H437.339V278.065H464.426V248.78Z" fill="#FFC59E"/>
<path fill-rule="evenodd" clip-rule="evenodd" d="M426.707 326.084C426.707 326.084 426.711 326.104 426.707 326.084V326.084ZM425.258 328.535H425.479C425.75 328.54 426.014 328.457 426.233 328.298L426.607 327.829C426.685 327.747 426.749 327.654 426.799 327.552C426.821 327.51 426.832 327.463 426.832 327.416C426.832 327.368 426.821 327.322 426.799 327.279L426.286 326.437L426.209 326.312L426.346 326.236L426.59 326.104L424.528 325.771L423.87 327.412L424.103 327.279L424.259 327.191L424.36 327.328L425.258 328.535ZM422.679 328.535H424.825L424.147 327.62L423.85 327.785H423.826C423.784 327.795 423.74 327.795 423.698 327.785C423.634 327.782 423.574 327.754 423.529 327.709C423.508 327.688 423.492 327.664 423.481 327.637C423.47 327.61 423.465 327.581 423.465 327.552C423.465 327.474 423.483 327.398 423.517 327.328L424.247 325.506L424.3 325.378L424.456 325.402L426.679 325.763C426.94 325.807 427.052 325.891 427.08 325.991C427.108 326.092 427.024 326.196 426.915 326.268L426.719 326.377L427.16 327.095C427.204 327.173 427.229 327.261 427.233 327.351C427.238 327.441 427.221 327.53 427.184 327.612C427.123 327.745 427.04 327.867 426.94 327.973L425.234 330.276C425.141 330.444 425.001 330.581 424.831 330.671C424.662 330.761 424.471 330.801 424.279 330.786H422.325V328.868C422.297 328.607 422.434 328.543 422.687 328.535H422.679Z" fill="#85583C"/>
<path d="M418.578 324.455C418.578 324.455 418.594 324.427 418.578 324.439V324.455ZM422.141 324.258L421.479 325.462L421.804 325.586H421.828C421.862 325.608 421.89 325.637 421.912 325.67C421.924 325.695 421.93 325.723 421.93 325.751C421.93 325.778 421.924 325.806 421.912 325.831C421.89 325.888 421.847 325.936 421.792 325.963C421.712 326.004 421.627 326.033 421.539 326.048L419.336 326.509L419.184 326.541L419.124 326.417L418.277 324.635C418.185 324.423 418.209 324.298 418.277 324.234C418.329 324.198 418.39 324.176 418.453 324.171C418.517 324.165 418.58 324.176 418.638 324.202L418.851 324.286L419.328 323.584C419.449 323.423 419.627 323.317 419.826 323.287C419.987 323.258 420.152 323.25 420.315 323.263H423.308L421.932 323.6L420.299 323.572C420.174 323.556 420.047 323.556 419.922 323.572C419.817 323.589 419.722 323.643 419.653 323.724L419.1 324.527L419.015 324.647L418.863 324.591L418.602 324.491L419.404 326.144L421.387 325.743L421.13 325.646L420.961 325.582L421.037 325.438L421.78 324.098L422.141 324.258Z" fill="#85583C"/>
<path fill-rule="evenodd" clip-rule="evenodd" d="M423.18 325.987L421.667 323.981C421.49 323.764 421.238 323.621 420.961 323.58L421.96 323.303L423.565 323.243C423.757 323.207 423.956 323.226 424.138 323.297C424.32 323.368 424.479 323.488 424.596 323.644L425.652 325.04L423.75 326.075C423.453 326.232 423.321 326.172 423.172 325.995L423.18 325.987Z" fill="#85583C"/>
<path fill-rule="evenodd" clip-rule="evenodd" d="M420.805 331.207C420.805 331.207 420.785 331.183 420.805 331.183V331.207ZM419.047 328.912L418.931 329.073C418.862 329.169 418.813 329.279 418.789 329.395C418.765 329.511 418.766 329.631 418.791 329.747L419.08 330.252C419.125 330.355 419.188 330.45 419.264 330.533C419.338 330.612 419.438 330.66 419.545 330.67L420.66 330.718H420.829V330.858V331.103L422.213 329.763L420.881 328.451V328.688V328.848H420.692L419.047 328.912ZM420.351 327.027L419.264 328.591L420.54 328.563V328.258V328.222C420.55 328.183 420.569 328.147 420.596 328.118C420.638 328.072 420.695 328.042 420.757 328.034C420.823 328.025 420.89 328.036 420.949 328.066C421.027 328.105 421.096 328.158 421.154 328.222L422.634 329.679L422.735 329.783L422.63 329.883L421.142 331.328C420.961 331.492 420.817 331.532 420.704 331.5C420.649 331.483 420.6 331.45 420.565 331.403C420.53 331.357 420.51 331.301 420.508 331.243V331.047L419.553 331.003C419.35 330.99 419.158 330.903 419.015 330.758C418.915 330.651 418.832 330.529 418.771 330.397L417.298 327.989C417.178 327.859 417.109 327.691 417.103 327.514C417.097 327.337 417.155 327.164 417.266 327.027L418.257 325.598L420.203 326.569C420.476 326.694 420.472 326.822 420.351 327.014V327.027Z" fill="#85583C"/>
<path d="M427.345 321.61H416.913C416.588 321.593 416.269 321.704 416.025 321.919C415.78 322.135 415.63 322.437 415.605 322.761V331.986C415.629 332.31 415.779 332.613 416.024 332.827C416.269 333.042 416.588 333.152 416.913 333.133H427.345C427.669 333.152 427.987 333.042 428.231 332.827C428.474 332.612 428.623 332.31 428.645 331.986V322.757C428.622 322.433 428.473 322.131 428.23 321.916C427.987 321.701 427.669 321.589 427.345 321.606V321.61ZM427.866 331.817C427.854 331.989 427.775 332.149 427.646 332.263C427.517 332.377 427.348 332.436 427.176 332.427H417.089C416.917 332.437 416.748 332.378 416.619 332.264C416.49 332.15 416.411 331.989 416.399 331.817V322.91C416.405 322.824 416.426 322.741 416.464 322.664C416.501 322.587 416.554 322.518 416.618 322.462C416.682 322.405 416.757 322.361 416.838 322.334C416.918 322.306 417.004 322.295 417.089 322.3H427.176C427.348 322.291 427.517 322.35 427.646 322.464C427.775 322.578 427.854 322.738 427.866 322.91V331.817Z" fill="#85583C"/>
<path d="M411.966 331.769H405.177C405.148 331.775 405.117 331.774 405.088 331.767C405.058 331.76 405.031 331.746 405.007 331.727C404.984 331.707 404.965 331.683 404.952 331.656C404.939 331.629 404.932 331.599 404.932 331.568C404.932 331.538 404.939 331.508 404.952 331.481C404.965 331.453 404.984 331.429 405.007 331.41C405.031 331.391 405.058 331.377 405.088 331.37C405.117 331.362 405.148 331.362 405.177 331.368H411.966C411.996 331.362 412.026 331.362 412.056 331.37C412.085 331.377 412.113 331.391 412.136 331.41C412.159 331.429 412.178 331.453 412.191 331.481C412.204 331.508 412.211 331.538 412.211 331.568C412.211 331.599 412.204 331.629 412.191 331.656C412.178 331.683 412.159 331.707 412.136 331.727C412.113 331.746 412.085 331.76 412.056 331.767C412.026 331.774 411.996 331.775 411.966 331.769Z" fill="#85583C"/>
<path fill-rule="evenodd" clip-rule="evenodd" d="M407.532 324.503V330.513H406.1V324.499L405.394 324.495L406.846 322.954L408.287 324.503H407.532Z" fill="#85583C"/>
<path fill-rule="evenodd" clip-rule="evenodd" d="M411.059 324.503V330.517H409.623V324.499H408.917L410.369 322.958L411.809 324.507L411.059 324.503Z" fill="#85583C"/>
<path d="M413.787 321.61H403.356C403.034 321.598 402.721 321.71 402.48 321.924C402.24 322.138 402.092 322.437 402.068 322.757V331.986C402.09 332.31 402.24 332.612 402.484 332.827C402.728 333.042 403.047 333.152 403.372 333.133H413.804C414.128 333.152 414.446 333.042 414.69 332.827C414.933 332.612 415.082 332.31 415.103 331.986V322.757C415.081 322.433 414.932 322.131 414.689 321.916C414.446 321.701 414.128 321.589 413.804 321.606L413.787 321.61ZM414.309 331.817C414.297 331.989 414.217 332.149 414.088 332.263C413.959 332.377 413.791 332.436 413.619 332.427H403.532C403.36 332.436 403.192 332.377 403.063 332.263C402.934 332.149 402.855 331.989 402.842 331.817V322.91C402.853 322.738 402.932 322.577 403.062 322.463C403.191 322.349 403.36 322.29 403.532 322.3H413.619C413.791 322.291 413.959 322.35 414.088 322.464C414.217 322.578 414.297 322.738 414.309 322.91V331.817Z" fill="#85583C"/>
<path d="M607.069 328.21H503.609V341.282H607.069V328.21Z" fill="#ED8945"/>
<path d="M607.069 248.78H503.609V334.196H607.069V248.78Z" fill="#FFAD6E"/>
<path d="M568.884 304.911H541.798V334.197H568.884V304.911Z" fill="#FFC59E"/>
<path d="M568.884 248.78H541.798V278.065H568.884V248.78Z" fill="#FFC59E"/>
<path fill-rule="evenodd" clip-rule="evenodd" d="M531.165 326.084C531.165 326.084 531.169 326.104 531.165 326.084V326.084ZM529.717 328.535H529.942C530.211 328.54 530.474 328.457 530.692 328.298L531.065 327.829C531.143 327.747 531.208 327.654 531.258 327.552C531.279 327.51 531.291 327.463 531.291 327.416C531.291 327.368 531.279 327.322 531.258 327.279L530.744 326.437L530.668 326.312L530.808 326.236L531.049 326.104L528.987 325.771L528.329 327.412L528.561 327.279L528.718 327.191L528.818 327.328L529.717 328.535ZM527.137 328.535H529.284L528.605 327.62L528.309 327.785H528.284C528.242 327.795 528.198 327.795 528.156 327.785C528.093 327.781 528.033 327.754 527.988 327.709C527.967 327.688 527.951 327.664 527.94 327.637C527.929 327.61 527.923 327.581 527.923 327.552C527.924 327.474 527.942 327.398 527.976 327.328L528.706 325.506L528.758 325.378L528.914 325.402L531.137 325.763C531.398 325.807 531.51 325.891 531.538 325.991C531.566 326.092 531.486 326.196 531.374 326.268L531.177 326.377L531.619 327.095C531.663 327.173 531.688 327.261 531.692 327.351C531.696 327.441 531.679 327.53 531.643 327.612C531.583 327.746 531.5 327.868 531.398 327.973L529.697 330.276C529.602 330.444 529.461 330.581 529.292 330.671C529.122 330.761 528.93 330.801 528.738 330.786H526.784V328.868C526.756 328.607 526.892 328.543 527.145 328.535H527.137Z" fill="#85583C"/>
<path d="M523.045 324.455C523.045 324.455 523.053 324.427 523.037 324.439L523.045 324.455ZM526.607 324.258L525.945 325.462L526.27 325.586H526.295C526.328 325.608 526.357 325.637 526.379 325.67C526.391 325.695 526.397 325.723 526.397 325.751C526.397 325.778 526.391 325.806 526.379 325.831C526.357 325.889 526.314 325.937 526.258 325.963C526.179 326.004 526.094 326.033 526.006 326.048L523.803 326.509L523.65 326.541L523.59 326.417L522.744 324.635C522.651 324.423 522.675 324.298 522.744 324.234C522.796 324.198 522.857 324.176 522.92 324.171C522.983 324.165 523.047 324.176 523.105 324.202L523.317 324.286L523.795 323.584C523.916 323.424 524.094 323.318 524.292 323.287C524.454 323.258 524.618 323.25 524.782 323.263H527.775L526.399 323.6L524.766 323.572C524.633 323.554 524.498 323.554 524.365 323.572C524.26 323.589 524.164 323.643 524.096 323.724L523.542 324.527L523.458 324.647L523.305 324.591L523.045 324.491L523.847 326.144L525.829 325.743L525.572 325.646L525.404 325.582L525.484 325.438L526.226 324.098L526.607 324.258Z" fill="#85583C"/>
<path fill-rule="evenodd" clip-rule="evenodd" d="M527.651 325.987L526.138 323.981C525.962 323.763 525.709 323.62 525.432 323.58L526.431 323.303L528.036 323.243C528.227 323.208 528.425 323.226 528.606 323.297C528.788 323.368 528.946 323.488 529.063 323.644L530.118 325.04L528.216 326.075C527.919 326.232 527.787 326.172 527.638 325.995L527.651 325.987Z" fill="#85583C"/>
<path fill-rule="evenodd" clip-rule="evenodd" d="M525.264 331.207C525.264 331.207 525.243 331.183 525.264 331.183V331.207ZM523.506 328.912L523.39 329.073C523.32 329.169 523.272 329.279 523.248 329.395C523.224 329.511 523.224 329.631 523.249 329.747L523.538 330.252C523.584 330.355 523.646 330.45 523.723 330.533C523.796 330.612 523.896 330.66 524.004 330.67L525.119 330.718H525.288V330.858V331.103L526.668 329.763L525.336 328.451V328.688V328.848H525.147L523.506 328.912ZM524.814 327.027L523.723 328.591L524.999 328.563V328.258V328.222C525.008 328.183 525.028 328.147 525.055 328.118C525.097 328.072 525.154 328.042 525.215 328.034C525.281 328.025 525.348 328.036 525.408 328.066C525.485 328.105 525.555 328.158 525.613 328.222L527.093 329.679L527.197 329.783L527.089 329.883L525.601 331.328C525.42 331.492 525.276 331.532 525.163 331.5C525.108 331.483 525.059 331.45 525.023 331.403C524.988 331.357 524.968 331.301 524.967 331.243V331.047L524.012 331.003C523.808 330.99 523.617 330.903 523.474 330.758C523.374 330.652 523.292 330.53 523.233 330.397L521.757 327.989C521.638 327.859 521.569 327.69 521.563 327.514C521.557 327.337 521.615 327.165 521.725 327.027L522.716 325.598L524.662 326.569C524.935 326.694 524.931 326.822 524.814 327.014V327.027Z" fill="#85583C"/>
<path d="M531.815 321.61H521.383C521.058 321.593 520.74 321.704 520.495 321.919C520.251 322.135 520.1 322.437 520.076 322.761V331.986C520.099 332.31 520.25 332.613 520.494 332.827C520.739 333.042 521.058 333.152 521.383 333.133H531.815C532.139 333.152 532.458 333.042 532.701 332.827C532.945 332.612 533.094 332.31 533.115 331.986V322.757C533.093 322.433 532.944 322.131 532.701 321.916C532.457 321.701 532.14 321.589 531.815 321.606V321.61ZM532.337 331.817C532.325 331.989 532.245 332.149 532.116 332.263C531.987 332.377 531.819 332.436 531.647 332.427H521.56C521.388 332.437 521.219 332.378 521.089 332.264C520.96 332.15 520.881 331.989 520.87 331.817V322.91C520.875 322.824 520.897 322.741 520.934 322.664C520.972 322.587 521.024 322.518 521.088 322.462C521.152 322.405 521.227 322.361 521.308 322.334C521.389 322.306 521.475 322.295 521.56 322.3H531.663C531.835 322.291 532.003 322.35 532.132 322.464C532.261 322.578 532.341 322.738 532.353 322.91L532.337 331.817Z" fill="#85583C"/>
<path d="M516.416 331.769H509.632C509.602 331.775 509.571 331.774 509.542 331.767C509.513 331.76 509.485 331.746 509.462 331.727C509.438 331.707 509.419 331.683 509.406 331.656C509.393 331.629 509.387 331.599 509.387 331.568C509.387 331.538 509.393 331.508 509.406 331.481C509.419 331.453 509.438 331.429 509.462 331.41C509.485 331.391 509.513 331.377 509.542 331.37C509.571 331.362 509.602 331.362 509.632 331.368H516.416C516.446 331.362 516.477 331.362 516.506 331.37C516.535 331.377 516.563 331.391 516.586 331.41C516.61 331.429 516.629 331.453 516.642 331.481C516.655 331.508 516.661 331.538 516.661 331.568C516.661 331.599 516.655 331.629 516.642 331.656C516.629 331.683 516.61 331.707 516.586 331.727C516.563 331.746 516.535 331.76 516.506 331.767C516.477 331.774 516.446 331.775 516.416 331.769Z" fill="#85583C"/>
<path fill-rule="evenodd" clip-rule="evenodd" d="M511.995 324.503V330.513H510.559V324.499L509.852 324.495L511.305 322.954L512.745 324.503H511.995Z" fill="#85583C"/>
<path fill-rule="evenodd" clip-rule="evenodd" d="M515.518 324.503V330.517H514.081V324.499H513.375L514.827 322.958L516.272 324.507L515.518 324.503Z" fill="#85583C"/>
<path d="M518.246 321.61H507.814C507.489 321.593 507.171 321.705 506.927 321.92C506.684 322.135 506.534 322.437 506.51 322.761V331.986C506.533 332.31 506.682 332.612 506.926 332.827C507.171 333.042 507.49 333.152 507.814 333.133H518.246C518.57 333.152 518.889 333.042 519.132 332.827C519.375 332.612 519.524 332.31 519.546 331.986V322.757C519.523 322.433 519.374 322.131 519.131 321.916C518.888 321.701 518.57 321.589 518.246 321.606V321.61ZM518.767 331.817C518.755 331.989 518.676 332.149 518.547 332.263C518.418 332.377 518.249 332.436 518.077 332.427H507.991C507.819 332.436 507.65 332.377 507.521 332.263C507.392 332.149 507.313 331.989 507.301 331.817V322.91C507.312 322.738 507.391 322.577 507.52 322.463C507.649 322.349 507.818 322.29 507.991 322.3H518.077C518.249 322.291 518.418 322.35 518.547 322.464C518.676 322.578 518.755 322.738 518.767 322.91V331.817Z" fill="#85583C"/>
<path d="M502.61 334.73H399.151V420.146H502.61V334.73Z" fill="#FFAD6E"/>
<path d="M464.426 390.865H437.339V420.15H464.426V390.865Z" fill="#FFC59E"/>
<path d="M464.426 334.73H437.339V364.015H464.426V334.73Z" fill="#FFC59E"/>
<path fill-rule="evenodd" clip-rule="evenodd" d="M426.707 412.038C426.707 412.038 426.711 412.054 426.707 412.038V412.038ZM425.258 414.485H425.479C425.75 414.49 426.014 414.407 426.233 414.248L426.607 413.779C426.685 413.697 426.749 413.604 426.799 413.502C426.821 413.459 426.832 413.412 426.832 413.364C426.832 413.315 426.821 413.268 426.799 413.225L426.286 412.387L426.209 412.262L426.346 412.182L426.59 412.05L424.528 411.717L423.87 413.358L424.103 413.229L424.259 413.141L424.36 413.273L425.258 414.485ZM422.679 414.485H424.825L424.147 413.57L423.85 413.735H423.826C423.784 413.743 423.74 413.743 423.698 413.735C423.634 413.73 423.575 413.703 423.529 413.659C423.488 413.617 423.465 413.561 423.465 413.502C423.465 413.423 423.483 413.345 423.517 413.273L424.247 411.452L424.3 411.323L424.456 411.351L426.679 411.709C426.94 411.757 427.052 411.841 427.08 411.937C427.108 412.034 427.024 412.146 426.915 412.214L426.719 412.322L427.16 413.041C427.204 413.119 427.229 413.207 427.233 413.297C427.238 413.386 427.221 413.476 427.184 413.558C427.124 413.692 427.041 413.814 426.94 413.919L425.234 416.222C425.14 416.389 425 416.526 424.831 416.617C424.662 416.708 424.471 416.749 424.279 416.736H422.325V414.818C422.297 414.557 422.434 414.497 422.687 414.485H422.679Z" fill="#85583C"/>
<path d="M418.578 410.409C418.578 410.409 418.594 410.381 418.578 410.393V410.409ZM422.141 410.212L421.479 411.416L421.804 411.536H421.828C421.861 411.56 421.889 411.59 421.912 411.624C421.924 411.649 421.93 411.677 421.93 411.705C421.93 411.732 421.924 411.76 421.912 411.785C421.889 411.842 421.846 411.888 421.792 411.917C421.713 411.958 421.627 411.985 421.539 411.998L419.336 412.463L419.184 412.495L419.124 412.367L418.277 410.585C418.185 410.377 418.209 410.252 418.277 410.184C418.329 410.147 418.39 410.125 418.453 410.119C418.517 410.114 418.581 410.125 418.638 410.152L418.851 410.232L419.328 409.53C419.451 409.373 419.629 409.267 419.826 409.233C419.988 409.212 420.153 409.212 420.315 409.233H423.308L421.932 409.574L420.299 409.542C420.174 409.524 420.047 409.524 419.922 409.542C419.817 409.557 419.721 409.612 419.653 409.695L419.1 410.497L419.015 410.617L418.863 410.557L418.602 410.457L419.404 412.11L421.387 411.709L421.13 411.612L420.961 411.548L421.037 411.404L421.78 410.064L422.141 410.212Z" fill="#85583C"/>
<path fill-rule="evenodd" clip-rule="evenodd" d="M423.18 411.938L421.667 409.931C421.491 409.713 421.239 409.57 420.961 409.53L421.96 409.249L423.565 409.193C423.757 409.157 423.956 409.175 424.138 409.246C424.321 409.317 424.479 409.438 424.596 409.594L425.652 410.991L423.75 412.026C423.453 412.186 423.321 412.122 423.172 411.946L423.18 411.938Z" fill="#85583C"/>
<path fill-rule="evenodd" clip-rule="evenodd" d="M420.805 417.125C420.805 417.125 420.785 417.141 420.805 417.145V417.125ZM419.047 414.83L418.931 414.995C418.862 415.09 418.814 415.199 418.789 415.315C418.765 415.43 418.766 415.549 418.791 415.665L419.08 416.174C419.126 416.277 419.188 416.371 419.264 416.455C419.338 416.532 419.438 416.579 419.545 416.587L420.66 416.64H420.829V416.78V417.025L422.213 415.685L420.881 414.373V414.609V414.766H420.692L419.047 414.83ZM420.351 412.944L419.264 414.513L420.54 414.481V414.18V414.14C420.551 414.103 420.57 414.068 420.596 414.04C420.637 413.992 420.694 413.962 420.757 413.955C420.823 413.947 420.89 413.958 420.949 413.987C421.027 414.026 421.096 414.079 421.154 414.144L422.634 415.6L422.735 415.701L422.63 415.805L421.142 417.249C420.961 417.414 420.817 417.454 420.704 417.422C420.648 417.405 420.599 417.37 420.564 417.324C420.528 417.277 420.509 417.22 420.508 417.161V416.961L419.553 416.92C419.35 416.906 419.159 416.819 419.015 416.676C418.916 416.568 418.833 416.447 418.771 416.315L417.298 413.907C417.178 413.778 417.108 413.61 417.102 413.434C417.097 413.257 417.155 413.085 417.266 412.948L418.257 411.52L420.203 412.491C420.476 412.631 420.472 412.772 420.351 412.964V412.944Z" fill="#85583C"/>
<path d="M427.345 407.564H416.913C416.588 407.546 416.268 407.657 416.024 407.872C415.779 408.088 415.629 408.39 415.605 408.715V417.915C415.629 418.24 415.779 418.543 416.024 418.759C416.268 418.974 416.588 419.085 416.913 419.067H427.345C427.669 419.085 427.988 418.974 428.231 418.758C428.474 418.542 428.623 418.24 428.645 417.915V408.715C428.623 408.391 428.474 408.088 428.231 407.873C427.988 407.657 427.669 407.546 427.345 407.564ZM427.866 417.767C427.854 417.939 427.775 418.099 427.646 418.213C427.517 418.327 427.348 418.386 427.176 418.377H417.089C416.917 418.387 416.748 418.328 416.619 418.214C416.49 418.1 416.411 417.939 416.399 417.767V408.864C416.405 408.778 416.426 408.695 416.464 408.618C416.501 408.541 416.554 408.472 416.618 408.416C416.682 408.359 416.757 408.315 416.838 408.288C416.918 408.26 417.004 408.249 417.089 408.254H427.176C427.348 408.245 427.517 408.304 427.646 408.418C427.775 408.532 427.854 408.692 427.866 408.864V417.767Z" fill="#85583C"/>
<path d="M411.966 417.719H405.177C405.148 417.725 405.117 417.724 405.088 417.717C405.058 417.709 405.031 417.696 405.007 417.677C404.984 417.657 404.965 417.633 404.952 417.606C404.939 417.578 404.932 417.549 404.932 417.518C404.932 417.488 404.939 417.458 404.952 417.431C404.965 417.403 404.984 417.379 405.007 417.36C405.031 417.341 405.058 417.327 405.088 417.32C405.117 417.312 405.148 417.312 405.177 417.318H411.966C411.996 417.312 412.026 417.312 412.056 417.32C412.085 417.327 412.113 417.341 412.136 417.36C412.159 417.379 412.178 417.403 412.191 417.431C412.204 417.458 412.211 417.488 412.211 417.518C412.211 417.549 412.204 417.578 412.191 417.606C412.178 417.633 412.159 417.657 412.136 417.677C412.113 417.696 412.085 417.709 412.056 417.717C412.026 417.724 411.996 417.725 411.966 417.719Z" fill="#85583C"/>
<path fill-rule="evenodd" clip-rule="evenodd" d="M407.532 410.453V416.467H406.1V410.449H405.394L406.846 408.908L408.287 410.457L407.532 410.453Z" fill="#85583C"/>
<path fill-rule="evenodd" clip-rule="evenodd" d="M411.059 410.457V416.471H409.623V410.453H408.917L410.369 408.912L411.809 410.457H411.059Z" fill="#85583C"/>
<path d="M413.787 407.564H403.356C403.031 407.546 402.712 407.657 402.468 407.872C402.224 408.088 402.074 408.391 402.052 408.715V417.915C402.074 418.24 402.224 418.543 402.468 418.758C402.712 418.974 403.031 419.085 403.356 419.067H413.787C414.112 419.085 414.43 418.974 414.674 418.758C414.917 418.542 415.066 418.24 415.087 417.915V408.715C415.066 408.391 414.917 408.088 414.674 407.873C414.43 407.657 414.112 407.546 413.787 407.564ZM414.309 417.767C414.297 417.939 414.218 418.099 414.088 418.213C413.959 418.327 413.791 418.386 413.619 418.377H403.532C403.36 418.386 403.192 418.327 403.063 418.213C402.934 418.099 402.855 417.939 402.842 417.767V408.864C402.854 408.692 402.932 408.531 403.062 408.417C403.191 408.303 403.36 408.244 403.532 408.254H413.619C413.791 408.245 413.959 408.304 414.088 408.418C414.218 408.532 414.297 408.692 414.309 408.864V417.767Z" fill="#85583C"/>
<path d="M607.069 334.73H503.609V420.146H607.069V334.73Z" fill="#FFAD6E"/>
<path d="M568.884 390.865H541.798V420.15H568.884V390.865Z" fill="#FFC59E"/>
<path d="M568.884 334.73H541.798V364.015H568.884V334.73Z" fill="#FFC59E"/>
<path fill-rule="evenodd" clip-rule="evenodd" d="M531.165 412.038C531.165 412.038 531.169 412.054 531.165 412.038V412.038ZM529.717 414.485H529.942C530.211 414.49 530.474 414.407 530.692 414.248L531.065 413.779C531.143 413.697 531.208 413.604 531.258 413.502C531.279 413.459 531.291 413.412 531.291 413.364C531.291 413.315 531.279 413.268 531.258 413.225L530.744 412.387L530.668 412.262L530.808 412.182L531.049 412.05L528.987 411.717L528.329 413.358L528.561 413.229L528.718 413.141L528.818 413.273L529.717 414.485ZM527.137 414.485H529.284L528.605 413.57L528.309 413.735H528.284C528.242 413.743 528.198 413.743 528.156 413.735C528.093 413.729 528.034 413.702 527.988 413.659C527.947 413.617 527.924 413.561 527.923 413.502C527.923 413.423 527.941 413.345 527.976 413.273L528.706 411.452L528.758 411.323L528.914 411.351L531.137 411.709C531.398 411.757 531.51 411.841 531.538 411.937C531.566 412.034 531.486 412.146 531.374 412.214L531.177 412.322L531.619 413.041C531.663 413.119 531.688 413.207 531.692 413.297C531.696 413.386 531.679 413.476 531.643 413.558C531.584 413.692 531.501 413.815 531.398 413.919L529.697 416.222C529.601 416.389 529.461 416.526 529.291 416.617C529.122 416.708 528.93 416.749 528.738 416.736H526.784V414.818C526.756 414.557 526.892 414.497 527.145 414.485H527.137Z" fill="#85583C"/>
<path d="M523.045 410.409C523.045 410.409 523.053 410.381 523.037 410.393L523.045 410.409ZM526.607 410.212L525.945 411.416L526.27 411.536H526.295C526.327 411.56 526.356 411.59 526.379 411.624C526.391 411.649 526.397 411.677 526.397 411.705C526.397 411.732 526.391 411.76 526.379 411.785C526.356 411.842 526.314 411.89 526.258 411.917C526.179 411.958 526.094 411.985 526.006 411.998L523.803 412.463L523.65 412.495L523.59 412.367L522.744 410.585C522.651 410.377 522.675 410.252 522.744 410.184C522.796 410.147 522.856 410.125 522.92 410.119C522.983 410.114 523.047 410.125 523.105 410.152L523.317 410.232L523.795 409.53C523.918 409.373 524.095 409.267 524.292 409.233C524.455 409.212 524.619 409.212 524.782 409.233H527.775L526.399 409.574L524.766 409.542C524.633 409.522 524.498 409.522 524.365 409.542C524.259 409.557 524.163 409.612 524.096 409.695L523.542 410.497L523.458 410.617L523.305 410.557L523.045 410.457L523.847 412.11L525.829 411.709L525.572 411.612L525.404 411.548L525.484 411.404L526.226 410.064L526.607 410.212Z" fill="#85583C"/>
<path fill-rule="evenodd" clip-rule="evenodd" d="M527.651 411.937L526.138 409.931C525.963 409.712 525.71 409.568 525.432 409.53L526.431 409.249L528.036 409.193C528.227 409.157 528.425 409.175 528.607 409.246C528.789 409.317 528.947 409.438 529.063 409.594L530.118 410.99L528.216 412.026C527.919 412.186 527.787 412.122 527.638 411.945L527.651 411.937Z" fill="#85583C"/>
<path fill-rule="evenodd" clip-rule="evenodd" d="M525.264 417.125C525.264 417.125 525.243 417.141 525.264 417.145V417.125ZM523.506 414.83L523.39 414.995C523.321 415.09 523.272 415.199 523.248 415.315C523.224 415.43 523.224 415.549 523.249 415.665L523.538 416.174C523.585 416.277 523.647 416.371 523.723 416.455C523.797 416.532 523.897 416.579 524.004 416.587L525.119 416.64H525.288V416.78V417.025L526.668 415.685L525.336 414.373V414.609V414.766H525.147L523.506 414.83ZM524.814 412.944L523.723 414.513L524.999 414.481V414.18V414.14C525.009 414.103 525.029 414.068 525.055 414.04C525.096 413.992 525.153 413.962 525.215 413.955C525.281 413.947 525.348 413.958 525.408 413.987C525.485 414.026 525.555 414.079 525.613 414.144L527.093 415.6L527.197 415.701L527.089 415.805L525.601 417.249C525.42 417.414 525.276 417.454 525.163 417.422C525.107 417.405 525.058 417.37 525.022 417.324C524.987 417.277 524.967 417.22 524.967 417.161V416.961L524.012 416.92C523.809 416.906 523.618 416.819 523.474 416.676C523.374 416.569 523.293 416.447 523.233 416.315L521.757 413.907C521.637 413.778 521.568 413.61 521.562 413.434C521.557 413.258 521.614 413.085 521.725 412.948L522.716 411.52L524.662 412.491C524.935 412.631 524.931 412.772 524.814 412.964V412.944Z" fill="#85583C"/>
<path d="M531.815 407.564H521.383C521.058 407.546 520.739 407.657 520.494 407.872C520.25 408.088 520.099 408.39 520.076 408.715V417.915C520.099 418.24 520.25 418.543 520.494 418.759C520.739 418.974 521.058 419.085 521.383 419.067H531.815C532.14 419.085 532.458 418.974 532.702 418.758C532.945 418.542 533.094 418.24 533.115 417.915V408.715C533.094 408.391 532.945 408.088 532.702 407.873C532.458 407.657 532.14 407.546 531.815 407.564ZM532.337 417.767C532.325 417.939 532.245 418.099 532.116 418.213C531.987 418.327 531.819 418.386 531.647 418.377H521.56C521.388 418.387 521.219 418.328 521.089 418.214C520.96 418.1 520.881 417.939 520.87 417.767V408.864C520.875 408.778 520.897 408.695 520.934 408.618C520.972 408.541 521.024 408.472 521.088 408.416C521.152 408.359 521.227 408.315 521.308 408.288C521.389 408.26 521.475 408.249 521.56 408.254H531.663C531.835 408.245 532.003 408.304 532.132 408.418C532.261 408.532 532.341 408.692 532.353 408.864L532.337 417.767Z" fill="#85583C"/>
<path d="M516.416 417.719H509.632C509.602 417.725 509.571 417.724 509.542 417.717C509.513 417.709 509.485 417.696 509.462 417.677C509.438 417.657 509.419 417.633 509.406 417.606C509.393 417.578 509.387 417.549 509.387 417.518C509.387 417.488 509.393 417.458 509.406 417.431C509.419 417.403 509.438 417.379 509.462 417.36C509.485 417.341 509.513 417.327 509.542 417.32C509.571 417.312 509.602 417.312 509.632 417.318H516.416C516.446 417.312 516.477 417.312 516.506 417.32C516.535 417.327 516.563 417.341 516.586 417.36C516.61 417.379 516.629 417.403 516.642 417.431C516.655 417.458 516.661 417.488 516.661 417.518C516.661 417.549 516.655 417.578 516.642 417.606C516.629 417.633 516.61 417.657 516.586 417.677C516.563 417.696 516.535 417.709 516.506 417.717C516.477 417.724 516.446 417.725 516.416 417.719Z" fill="#85583C"/>
<path fill-rule="evenodd" clip-rule="evenodd" d="M511.995 410.453V416.467H510.559V410.449H509.852L511.305 408.908L512.745 410.457L511.995 410.453Z" fill="#85583C"/>
<path fill-rule="evenodd" clip-rule="evenodd" d="M515.518 410.457V416.471H514.081V410.453H513.375L514.827 408.912L516.272 410.457H515.518Z" fill="#85583C"/>
<path d="M518.246 407.564H507.814C507.489 407.546 507.17 407.657 506.926 407.872C506.682 408.088 506.533 408.391 506.51 408.715V417.915C506.533 418.24 506.682 418.543 506.926 418.758C507.17 418.974 507.489 419.085 507.814 419.067H518.246C518.57 419.085 518.889 418.974 519.132 418.758C519.376 418.542 519.524 418.24 519.546 417.915V408.715C519.524 408.391 519.376 408.088 519.132 407.873C518.889 407.657 518.57 407.546 518.246 407.564ZM518.767 417.767C518.755 417.939 518.676 418.099 518.547 418.213C518.418 418.327 518.249 418.386 518.077 418.377H507.991C507.819 418.386 507.65 418.327 507.521 418.213C507.392 418.099 507.313 417.939 507.301 417.767V408.864C507.312 408.692 507.391 408.531 507.52 408.417C507.649 408.303 507.818 408.244 507.991 408.254H518.077C518.249 408.245 518.418 408.304 518.547 408.418C518.676 408.532 518.755 408.692 518.767 408.864V417.767Z" fill="#85583C"/>
<g style="mix-blend-mode:multiply">
<path d="M107.718 469.593C167.157 469.593 215.342 463.886 215.342 456.846C215.342 449.806 167.157 444.099 107.718 444.099C48.2791 444.099 0.0941772 449.806 0.0941772 456.846C0.0941772 463.886 48.2791 469.593 107.718 469.593Z" fill="#E4E6E9"/>
</g>
<path d="M110.547 55.2534L77.5861 56.6118L79.3815 100.176L112.342 98.8174L110.547 55.2534Z" fill="#FAAF9E"/>
<path d="M126.451 44.5331C126.448 44.598 126.439 44.6625 126.423 44.7257C126.278 45.2677 126.053 45.7854 125.757 46.2624C125.204 47.2494 124.498 48.4009 124.265 49.7811C123.799 52.5897 125.067 57.5046 124.935 59.1135C124.405 66.4038 119.803 84.3465 113.773 84.4829C101.05 84.7678 94.1771 80.4065 88.4235 72.5385C86.4736 69.8703 85.5749 65.2523 84.327 62.1909C79.9778 51.5264 78.8383 40.5249 80.4552 29.1101C80.8083 26.6225 81.354 24.0506 82.9228 22.0927C90.1448 13.0892 108.364 18.4415 112.734 20.0264C119.683 22.5581 124.285 28.5845 125.204 34.4102C125.481 36.1716 126.873 40.0153 126.451 44.5331Z" fill="#FEBAA5"/>
<path d="M100.348 25.3868C98.0568 25.3106 95.3525 25.788 94.3294 27.8303C93.4307 29.6197 94.2452 31.7542 94.9674 33.6239C95.6896 35.4936 96.2593 37.7886 95.0075 39.3574C93.7557 40.9262 91.2119 40.9623 89.8478 42.4669C88.3472 44.1239 88.8527 46.8803 87.5166 48.6698C86.1806 50.4593 83.5044 50.6157 81.2054 50.5556C79.2274 50.4994 77.1932 50.4312 75.3997 49.5806C71.3273 47.6467 70.1357 42.9444 69.6341 38.5991C68.6792 30.358 69.6341 23.2042 75.5923 15.938C81.8393 8.31476 94.2532 6.78208 110.467 10.9949C116.565 12.5998 124.642 17.7836 125.348 24.0507C125.456 25.0016 124.253 29.2145 123.703 29.9969C121.697 26.8713 120.822 26.7389 119.338 26.755C117.396 26.755 116.93 28.2315 114.996 28.2515C113.44 28.2515 111.919 28.4722 110.479 27.8182C107.296 26.3458 103.852 25.5194 100.348 25.3868Z" fill="#294E95"/>
<path d="M82.4934 58.2869C82.5255 57.8657 82.5536 57.4203 82.5696 56.9589C82.7662 51.2776 81.5264 42.9562 75.9575 42.7596C72.6634 42.6432 71.3153 44.1238 71.215 47.0286C71.0706 51.1973 75.7328 62.568 79.8975 62.7164C81.8193 62.7847 82.3048 60.8949 82.361 58.977C82.4011 57.8416 82.2847 56.658 82.3289 55.4904C82.3289 55.2216 82.353 54.9528 82.3851 54.688L82.4934 58.2869Z" fill="#FEBAA5"/>
<path d="M104.902 68.6185L118.343 69.088C118.343 69.088 117.54 73.3249 112.461 73.7823C106.262 74.34 104.902 68.6185 104.902 68.6185Z" fill="white"/>
<path d="M113.54 53.7373C113.905 57.236 117.103 61.2322 113.965 64.133C113.688 64.4129 113.356 64.6326 112.99 64.7782C112.625 64.9239 112.233 64.9925 111.839 64.9796C111.682 64.9796 111.819 64.767 111.803 64.8231C115.354 62.484 112.641 56.6743 112.734 53.7654C112.806 51.7994 113.757 49.5084 114.01 49.6609C114.262 49.8134 113.231 51.1615 113.54 53.7373Z" fill="#FAAB9B"/>
<path d="M104.697 51.8756C104.629 52.9549 104.015 53.7975 103.329 53.7533C102.643 53.7092 102.125 52.7944 102.213 51.7151C102.302 50.6358 102.896 49.7933 103.582 49.8374C104.268 49.8815 104.761 50.7923 104.697 51.8756Z" fill="#251611"/>
<path d="M122.684 51.9317C122.612 53.011 122.002 53.8536 121.316 53.8094C120.63 53.7653 120.112 52.8505 120.196 51.7712C120.281 50.6919 120.878 49.8494 121.565 49.8935C122.251 49.9376 122.752 50.8484 122.684 51.9317Z" fill="#251611"/>
<path d="M126.427 44.7097C126.282 45.2517 126.057 45.7695 125.761 46.2464C123.925 46.1039 122.081 46.0784 120.241 46.1702C118.583 46.2344 118.391 44.5051 120.04 44.3807C122.174 44.2137 124.321 44.3243 126.427 44.7097Z" fill="#294E95"/>
<path d="M106.438 46.6156C107.622 46.6678 107.694 44.9385 106.515 44.8262C101.383 44.3367 97.6475 47.073 98.6466 47.8193C99.6456 48.5656 99.2364 46.3147 106.438 46.6156Z" fill="#294E95"/>
<path d="M120.886 123.398C133.356 145.22 171.364 195.297 171.364 195.297L188.998 174.834C188.998 174.834 159.015 111.232 148.667 98.7986C144.482 93.7712 134.223 90.9587 134.223 90.9587L120.886 123.398Z" fill="#F28D3F"/>
<path d="M64.0652 232.787L134.797 234.244C143.852 185.242 147.692 97.8919 144.884 95.7694C135.993 90.2646 123.25 86.6054 112.011 85.7749C112.011 85.7749 110.254 95.7092 98.5664 96.0021C81.0289 96.4394 79.5645 87.8212 79.5645 87.8212C64.659 93.5185 56.0648 100.929 51.3825 107.481C51.3825 107.481 65.8667 176.64 67.291 193.042C68.7154 209.444 64.0652 232.787 64.0652 232.787Z" fill="#FF9F55"/>
<path d="M70.4928 47.6065C67.5318 25.9404 69.6903 17.9962 76.804 12.0381C85.996 4.32255 86.0643 4.50711 97.0337 0.374512C99.9185 6.12404 94.0165 31.4332 87.0232 34.8476C80.5394 38.0092 74.83 40.22 70.4928 47.6065Z" fill="#E5483F"/>
<path d="M87.0233 34.8476C88.0464 9.34188 88.4035 1.74673 97.5554 0.278255C108.461 -1.47108 119.31 5.31361 122.977 12.6199C125.858 18.3694 125.525 29.6598 125.212 37.4355C112.027 20.865 87.0233 34.8476 87.0233 34.8476Z" fill="#B8292F"/>
<path d="M135.363 19.2442C137.284 19.5812 144.302 20.3676 143.291 30.017C142.272 39.7347 133.593 38.0656 126.865 39.6183C126.917 39.6183 122.909 33.4636 113.656 29.8927C113.957 28.9538 115.915 27.4853 116.638 26.8233C126.223 17.9242 129.545 18.2291 135.363 19.2442Z" fill="#B8292F"/>
<path d="M101.527 25.0498C107.004 22.5983 112.802 20.9533 118.587 19.3645C122.6 18.2571 128.57 17.3343 132.478 18.7987C128.064 18.6944 122.351 21.1018 119.161 24.2072C115.972 27.3127 113.207 30.9398 109.403 33.2548C106.13 35.2609 105.251 35.2609 101.419 35.2088C90.9873 35.1285 89.234 34.9961 87.0233 34.8316C87.0273 34.6029 92.7246 28.9938 101.527 25.0498Z" fill="#FF685D"/>
<path d="M78.108 441.347C71.9372 439.369 68.3703 438.787 62.0871 441.443C61.373 441.748 61.3128 442.743 61.06 443.738C61.06 444.139 61.4131 445.371 61.7983 445.371H78.5734C78.9746 445.371 79.9456 444.593 79.8774 444.212C79.5564 442.458 79.2274 441.708 78.108 441.347Z" fill="#2D3A64"/>
<path d="M78.9827 431.212H61.7422V448.236H78.9827V431.212Z" fill="white"/>
<path d="M61.1042 445.375C59.8524 448.429 58.3678 455.904 58.3678 457.516C58.3678 468.209 70.1036 468.321 76.9806 468.321C79.6969 468.321 86.7865 467.92 86.7865 465.24C86.8312 464.654 86.8312 464.065 86.7865 463.479C85.9559 459.246 81.3338 445.488 78.8423 445.488C74.8942 445.488 67.0463 445.339 61.1042 445.375Z" fill="#1A223B"/>
<path d="M61.1042 443.618C59.8524 446.671 58.3678 454.146 58.3678 455.755C58.3678 466.451 70.1036 466.56 76.9806 466.56C79.6969 466.56 86.7865 466.158 86.7865 463.478C86.7865 461.512 81.4983 443.016 78.8422 443.726C74.8862 444.809 68.2901 445.371 61.1042 443.618Z" fill="#2D3A64"/>
<path d="M71.2551 453.307C75.523 453.307 78.9827 450.266 78.9827 446.515C78.9827 442.763 75.523 439.722 71.2551 439.722C66.9873 439.722 63.5276 442.763 63.5276 446.515C63.5276 450.266 66.9873 453.307 71.2551 453.307Z" fill="#2D3A64"/>
<path d="M147.411 423.111H123.823V440.135H147.411V423.111Z" fill="white"/>
<path d="M123.486 437.832C123.567 440.075 123.486 445.054 123.486 449.781C139.884 453.689 146.2 462.327 166.389 462.327C168.05 462.327 179.834 461.657 179.834 457.913C179.834 447.562 149.177 440.661 147.411 440.661C139.957 440.633 132.594 437.977 123.486 437.832Z" fill="#1A223B"/>
<path d="M123.486 434.639C123.567 436.882 123.486 443.63 123.486 448.348C139.884 452.256 146.2 460.895 166.389 460.895C168.05 460.895 179.834 460.225 179.834 456.481C179.834 446.13 149.012 435.329 147.411 436.071C143.606 437.79 139.44 438.558 135.272 438.308C131.104 438.059 127.059 436.799 123.486 434.639Z" fill="#2D3A64"/>
<path d="M158.95 445.933C157.169 449.023 151.909 449.328 147.203 446.611C142.496 443.895 142.119 437.732 143.905 434.643C144.96 432.809 148.27 432.922 150.93 435.939C152.764 437.68 152.575 437.291 158.016 439.325C159.584 441.58 160.034 444.055 158.95 445.933Z" fill="#2D3A64"/>
<path d="M84.2988 134.331C82.5214 114.27 80.7159 99.9744 60.0449 97.8198C62.6448 95.9421 67.5839 93.5067 70.7937 91.5848C89.3422 98.847 94.0646 114.234 94.6584 134.327L84.2988 134.331Z" fill="#294E95"/>
<path d="M129.4 137.228L139.752 137.079C139.222 126.427 141.024 105.439 137.878 92.1021C134.985 90.9867 131.266 89.101 127.804 88.5914C131.515 103.689 129.697 124.681 129.4 137.228Z" fill="#294E95"/>
<path d="M61.3329 230.163C67.9932 198.065 57.4852 156.739 57.4852 156.739C57.4852 156.739 59.387 156.924 61.4132 156.988C62.7653 166.192 64.2217 188.44 71.5441 187.481C82.7783 186.037 81.9117 146.155 81.4382 134.74C81.422 134.35 81.4848 133.961 81.6229 133.597C81.7611 133.232 81.9716 132.899 82.242 132.618C82.5123 132.337 82.8367 132.113 83.1958 131.961C83.5548 131.808 83.941 131.73 84.331 131.731H143.913C144.114 131.73 144.312 131.771 144.497 131.851C144.681 131.931 144.847 132.048 144.984 132.195C145.121 132.342 145.226 132.515 145.293 132.705C145.36 132.894 145.387 133.095 145.373 133.296C144.715 142.335 143.299 188.865 137.413 230.416L61.3329 230.163Z" fill="#294E95"/>
<path d="M153.049 155.351C150.018 155.196 147.049 156.251 144.795 158.284C144.199 158.773 143.744 159.413 143.479 160.138C143.356 160.502 143.344 160.894 143.445 161.265C143.546 161.636 143.755 161.968 144.045 162.22C144.436 162.469 144.883 162.615 145.345 162.645C147.04 162.881 148.754 162.939 150.461 162.818C152.182 162.694 153.886 162.392 155.544 161.915C156.373 161.68 157.189 161.4 157.988 161.077C158.798 160.81 159.573 160.445 160.295 159.989C161.623 158.998 158.898 157.357 158.208 156.944C156.816 156.115 155.264 155.59 153.654 155.403C153.454 155.379 153.253 155.363 153.049 155.351Z" fill="#FAA48A"/>
<path d="M167.456 169.771L172.745 170.971L169.455 166.617L168.728 166.156L166.73 169.31L167.456 169.771Z" fill="#E6E6E6"/>
<path d="M167.456 169.771L168.427 168.234L169.455 166.629L139.503 147.64C137.18 146.167 135.182 149.317 137.497 150.789L167.456 169.771Z" fill="#1A305C"/>
<path d="M163.364 158.906C164.15 158.968 164.896 159.278 165.495 159.791C166.093 160.305 166.513 160.995 166.694 161.762C166.806 162.641 164.804 164.27 157.939 164.744C159.653 165.069 162.329 165.907 162.353 167.652C162.377 169.398 160.315 170.06 158.742 170.385C160.447 171.099 161.149 170.862 161.229 172.427C161.258 173.069 159.897 174.734 158.481 174.75C160.419 175.324 161.121 175.801 161.017 177.242C160.929 178.485 154.521 184.062 149.759 184.704C144.141 185.451 142.007 185.507 136.727 185.908C134.576 175.878 133.397 173.069 133.048 171.408C135.054 170.433 135.9 167.729 136.715 166.665C139.122 163.528 141.754 159.13 145.385 158.785C154.112 157.951 163.151 158.894 163.364 158.906Z" fill="#FEBAA5"/>
<path d="M47.6552 105.611C47.6552 105.611 33.6124 109.981 36.3166 129.492C38.431 144.715 54.6966 188.071 69.2771 196.613C78.9947 202.298 137.754 186.458 137.754 186.458L133.625 169.49C133.625 169.49 86.4815 173.177 84.8847 170.979C82.6499 167.905 79.4962 153.566 70.6894 129.958C69.4055 126.515 59.6477 94.3811 47.6552 105.611Z" fill="#FFAB6B"/>
<path d="M78.0599 230.44C78.0599 230.44 96.0628 276.031 105.985 306.761C109.323 317.092 111.743 325.738 112.26 330.433C114.322 349.033 112.826 360.809 114.018 379.482C115.209 398.155 118.19 434.795 118.19 434.795L149.57 435.413C149.57 435.413 148.952 357.058 145.907 319.459C142.918 282.631 137.413 230.444 137.413 230.444L78.0599 230.44Z" fill="#294E95"/>
<path d="M78.0599 230.44C78.0599 230.44 96.0628 276.031 105.985 306.761C112.549 288.06 119.627 266.113 121.809 230.163L78.0599 230.44Z" fill="#254787"/>
<path d="M61.4773 229.457C61.4773 229.457 54.8731 252.652 55.3426 272.175C55.6074 283.136 54.3676 291.125 52.6704 380.068C52.3133 398.793 60.402 442.719 60.402 442.719H79.5203C79.5203 442.719 90.1968 360.573 91.1557 347.978C93.8921 311.9 116.236 293.745 121.813 230.163C110.824 226.809 69.7144 230.677 61.4773 229.457Z" fill="#294E95"/>
<path d="M201.28 180.143C200.842 179.946 200.373 179.657 200.297 179.184C200.212 178.638 200.698 178.189 201.139 177.852L207.202 173.198C208.309 172.351 209.609 171.456 210.969 171.733C212.329 172.01 213.208 173.446 213.16 174.814C213.112 176.183 212.285 177.434 211.226 178.305C210.582 178.805 209.89 179.239 209.16 179.601C208.672 179.883 208.202 180.194 207.751 180.532C206.688 181.266 205.28 181.146 204.06 180.961C203.1 180.818 202.164 180.543 201.28 180.143Z" fill="#FAB099"/>
<path d="M208.959 144.47C212.429 144.47 215.242 142.911 215.242 140.987C215.242 139.064 212.429 137.505 208.959 137.505C205.489 137.505 202.676 139.064 202.676 140.987C202.676 142.911 205.489 144.47 208.959 144.47Z" fill="#CC2D25"/>
<path d="M193.135 145.954L195.542 141.541C195.63 141.376 195.761 141.238 195.922 141.142C196.082 141.046 196.266 140.995 196.453 140.995H219.896C220.012 140.996 220.125 141.026 220.225 141.083C220.325 141.14 220.409 141.222 220.468 141.321C220.527 141.419 220.56 141.532 220.563 141.647C220.567 141.762 220.54 141.876 220.486 141.978L218.307 145.954H193.135Z" fill="#E5483F"/>
<path d="M187.815 142.957H224.458C224.782 142.956 225.101 143.04 225.382 143.201C225.663 143.361 225.896 143.593 226.059 143.873C226.222 144.153 226.308 144.471 226.309 144.795C226.309 145.119 226.225 145.437 226.063 145.718L187.177 213.051C187.04 213.287 186.853 213.489 186.629 213.644C186.405 213.798 186.149 213.902 185.881 213.946L147.604 220.209C147.264 220.265 146.915 220.223 146.597 220.09C146.279 219.957 146.005 219.737 145.806 219.455C145.608 219.173 145.492 218.842 145.473 218.497C145.454 218.153 145.532 217.811 145.698 217.509L186.21 143.912C186.368 143.625 186.6 143.384 186.882 143.216C187.164 143.048 187.486 142.959 187.815 142.957Z" fill="#315EB3"/>
<path d="M189.367 187.469C188.87 186.667 188.537 185.198 189.107 184.432C189.223 184.256 189.374 184.107 189.552 183.994C189.729 183.881 189.929 183.807 190.137 183.776C190.345 183.745 190.557 183.758 190.76 183.814C190.962 183.87 191.151 183.969 191.313 184.103C190.912 183.3 190.511 181.992 190.912 181.053C191.099 180.617 191.412 180.247 191.809 179.987C192.207 179.728 192.672 179.592 193.147 179.597C192.039 178.686 191.381 176.945 191.895 176.102C192.633 174.899 194.11 174.963 195.241 175.42C195.02 175.148 194.899 174.808 194.899 174.457C194.899 174.106 195.02 173.766 195.241 173.494C195.671 173.061 198.17 173.117 199.041 173.522C211.025 179.095 211.314 179.469 212.654 180.973C213.706 182.153 214.227 183.958 213.457 185.351C212.686 186.743 210.432 187.16 209.525 185.864C210.58 187.971 210.588 190.318 209.834 191.301C209.336 191.951 208.016 192.3 206.343 191.983C206.764 193.443 206.909 194.502 205.741 195.734C204.574 196.966 202.576 197.291 201.328 195.586C201.328 197.592 201.163 198.796 199.546 199.534C197.653 200.416 196.228 198.069 195.133 196.557C193.632 194.49 192.493 192.569 189.367 187.469Z" fill="#FEBAA5"/>
</svg>
