<svg width="628" height="492" viewBox="0 0 628 492" fill="none" xmlns="http://www.w3.org/2000/svg">
<g style="mix-blend-mode:multiply">
<path d="M314.002 491.997C487.42 491.997 628.003 487.345 628.003 481.607C628.003 475.869 487.42 471.218 314.002 471.218C140.583 471.218 0 475.869 0 481.607C0 487.345 140.583 491.997 314.002 491.997Z" fill="#E4E6E9"/>
</g>
<path d="M477.972 334.677H149.792V381.711H477.972V334.677Z" fill="#404040"/>
<path d="M185.938 360.41H155.918C152.158 360.41 149.111 363.457 149.111 367.216V477.457C149.111 481.216 152.158 484.263 155.918 484.263H185.938C189.697 484.263 192.745 481.216 192.745 477.457V367.216C192.745 363.457 189.697 360.41 185.938 360.41Z" fill="#483E3F"/>
<path d="M231.913 360.41H201.893C198.134 360.41 195.086 363.457 195.086 367.216V477.457C195.086 481.216 198.134 484.263 201.893 484.263H231.913C235.672 484.263 238.72 481.216 238.72 477.457V367.216C238.72 363.457 235.672 360.41 231.913 360.41Z" fill="#483E3F"/>
<path d="M425.737 360.41H395.717C391.958 360.41 388.91 363.457 388.91 367.216V477.457C388.91 481.216 391.958 484.263 395.717 484.263H425.737C429.497 484.263 432.544 481.216 432.544 477.457V367.216C432.544 363.457 429.497 360.41 425.737 360.41Z" fill="#483E3F"/>
<path d="M471.713 360.41H441.693C437.933 360.41 434.886 363.457 434.886 367.216V477.457C434.886 481.216 437.933 484.263 441.693 484.263H471.713C475.472 484.263 478.52 481.216 478.52 477.457V367.216C478.52 363.457 475.472 360.41 471.713 360.41Z" fill="#483E3F"/>
<path d="M486.144 6.33289H141.623V339.113H486.144V6.33289Z" fill="#CFCFCF"/>
<path d="M475.247 20.5454H152.516V323.72H475.247V20.5454Z" fill="#5C5C5C"/>
<path d="M144.347 364.603H244.048V411.015C244.048 411.661 243.921 412.301 243.673 412.899C243.426 413.496 243.063 414.039 242.606 414.496C242.149 414.953 241.606 415.315 241.009 415.563C240.412 415.81 239.772 415.937 239.125 415.937H149.27C148.623 415.937 147.983 415.81 147.386 415.563C146.788 415.315 146.246 414.953 145.789 414.496C145.332 414.039 144.969 413.496 144.722 412.899C144.474 412.301 144.347 411.661 144.347 411.015V364.603Z" fill="#5C5C5C"/>
<path d="M384.367 364.603H483.42V411.031C483.42 412.332 482.903 413.58 481.983 414.5C481.062 415.42 479.814 415.937 478.513 415.937H389.274C387.972 415.937 386.724 415.42 385.804 414.5C384.884 413.58 384.367 412.332 384.367 411.031V364.603Z" fill="#5C5C5C"/>
<path d="M176.711 365.994H156.284V378.426H176.711V365.994Z" fill="#1D1F21"/>
<path d="M278.751 365.994H258.323V378.426H278.751V365.994Z" fill="#1D1F21"/>
<path d="M369.44 365.994H349.012V378.426H369.44V365.994Z" fill="#1D1F21"/>
<path d="M471.482 365.994H451.055V378.426H471.482V365.994Z" fill="#1D1F21"/>
<path d="M486.144 341.483H141.623V368.715H486.144V341.483Z" fill="#E7E7E7"/>
<path d="M483.42 365.994V344.207H144.347V365.994H483.42Z" fill="#CCCCCC"/>
<path d="M469.845 363.27H449.375V346.931H469.845C470.196 346.931 470.545 347 470.87 347.134C471.195 347.269 471.49 347.466 471.739 347.715C471.988 347.964 472.185 348.259 472.319 348.584C472.454 348.909 472.523 349.257 472.523 349.609V360.585C472.524 360.938 472.456 361.287 472.321 361.612C472.187 361.938 471.99 362.234 471.741 362.483C471.492 362.733 471.197 362.931 470.871 363.066C470.546 363.201 470.197 363.27 469.845 363.27Z" fill="#FFBB34"/>
<path d="M418.055 363.27H397.585C396.875 363.27 396.194 362.988 395.691 362.486C395.189 361.983 394.907 361.302 394.907 360.592V349.609C394.907 348.899 395.189 348.217 395.691 347.715C396.194 347.213 396.875 346.931 397.585 346.931H418.055V363.27Z" fill="#E72F2F"/>
<path d="M418.055 363.27H449.375V346.931H418.055V363.27Z" fill="#F2EFE8"/>
<path d="M368.499 346.931H259.264V364.337H368.499V346.931Z" fill="#5C5C5C"/>
<path d="M152.47 346.843H172.94V363.176H152.47C151.76 363.176 151.079 362.894 150.576 362.392C150.074 361.889 149.792 361.208 149.792 360.498V349.515C149.793 348.806 150.076 348.126 150.579 347.625C151.081 347.124 151.761 346.843 152.47 346.843Z" fill="#FFBB34"/>
<path d="M204.26 346.843H224.736C225.447 346.843 226.128 347.125 226.63 347.627C227.133 348.13 227.415 348.811 227.415 349.521V360.504C227.413 361.213 227.13 361.893 226.628 362.394C226.126 362.895 225.446 363.176 224.736 363.176H204.26V346.836V346.843Z" fill="#E72F2F"/>
<path d="M204.264 346.843H172.943V363.183H204.264V346.843Z" fill="#F2EFE8"/>
<path d="M486.144 378.426H141.623V393.245H486.144V378.426Z" fill="#2F3236"/>
<path d="M193.238 18.3502H180.091C179.549 18.3506 179.013 18.2443 178.512 18.0374C178.012 17.8304 177.557 17.5269 177.174 17.1442C176.791 16.7614 176.487 16.3069 176.28 15.8067C176.072 15.3065 175.966 14.7703 175.966 14.2288C175.966 13.6875 176.073 13.1517 176.281 12.6518C176.488 12.1519 176.792 11.6978 177.175 11.3154C177.558 10.933 178.013 10.6298 178.513 10.4231C179.013 10.2163 179.549 10.1102 180.091 10.1106H193.238C194.332 10.1106 195.381 10.5452 196.154 11.3187C196.928 12.0922 197.363 13.1413 197.363 14.2352C197.36 15.3275 196.924 16.3741 196.151 17.1455C195.378 17.9169 194.33 18.3502 193.238 18.3502Z" fill="#E72F2F"/>
<path d="M447.676 18.3502H434.529C433.987 18.3506 433.451 18.2443 432.951 18.0374C432.45 17.8304 431.995 17.5269 431.612 17.1442C431.229 16.7614 430.925 16.3069 430.718 15.8067C430.511 15.3065 430.404 14.7703 430.404 14.2288C430.404 13.6875 430.511 13.1517 430.719 12.6518C430.926 12.1519 431.23 11.6978 431.614 11.3154C431.997 10.933 432.451 10.6298 432.951 10.4231C433.452 10.2163 433.988 10.1102 434.529 10.1106H447.676C448.217 10.1106 448.754 10.2173 449.254 10.4246C449.754 10.632 450.209 10.9358 450.592 11.3189C450.974 11.7019 451.278 12.1566 451.485 12.6571C451.692 13.1575 451.798 13.6937 451.798 14.2352C451.796 15.3272 451.361 16.3738 450.588 17.1453C449.815 17.9168 448.768 18.3502 447.676 18.3502Z" fill="#E72F2F"/>
<path d="M486.945 28.3342H485.339C483.282 28.3342 481.613 30.0023 481.613 32.06V56.8436C481.613 58.9013 483.282 60.5694 485.339 60.5694H486.945C489.003 60.5694 490.671 58.9013 490.671 56.8436V32.06C490.671 30.0023 489.003 28.3342 486.945 28.3342Z" fill="#969696"/>
<path d="M484.561 113.849H487.72C488.502 113.849 489.253 114.16 489.807 114.714C490.36 115.267 490.671 116.018 490.671 116.8V143.137C490.671 143.919 490.36 144.668 489.807 145.221C489.255 145.774 488.505 146.084 487.723 146.084H484.564C483.782 146.084 483.031 145.774 482.478 145.22C481.924 144.667 481.613 143.916 481.613 143.134V116.8C481.613 116.018 481.924 115.268 482.477 114.715C483.029 114.161 483.779 113.85 484.561 113.849Z" fill="#969696"/>
<path d="M486.945 199.364H485.339C483.282 199.364 481.613 201.032 481.613 203.09V227.874C481.613 229.931 483.282 231.599 485.339 231.599H486.945C489.003 231.599 490.671 229.931 490.671 227.874V203.09C490.671 201.032 489.003 199.364 486.945 199.364Z" fill="#969696"/>
<path d="M486.945 284.879H485.339C483.282 284.879 481.613 286.548 481.613 288.605V313.389C481.613 315.446 483.282 317.115 485.339 317.115H486.945C489.003 317.115 490.671 315.446 490.671 313.389V288.605C490.671 286.548 489.003 284.879 486.945 284.879Z" fill="#969696"/>
<path d="M621.663 344.265H615.271L495.023 323.72V20.5454L615.271 0H621.663V344.265Z" fill="#CFCFCF"/>
<path d="M615.271 344.265L488.628 323.72V20.5454L615.271 0V344.265Z" fill="#B2B2B2"/>
<path d="M140.527 60.5693H143.513C144.708 60.5693 145.676 59.601 145.676 58.4065V30.4971C145.676 29.3025 144.708 28.3342 143.513 28.3342H140.527C139.332 28.3342 138.364 29.3025 138.364 30.4971V58.4065C138.364 59.601 139.332 60.5693 140.527 60.5693Z" fill="#969696"/>
<path d="M140.527 146.084H143.513C144.708 146.084 145.676 145.116 145.676 143.922V116.012C145.676 114.818 144.708 113.849 143.513 113.849H140.527C139.332 113.849 138.364 114.818 138.364 116.012V143.922C138.364 145.116 139.332 146.084 140.527 146.084Z" fill="#969696"/>
<path d="M140.527 231.599H143.513C144.708 231.599 145.676 230.631 145.676 229.437V201.527C145.676 200.333 144.708 199.364 143.513 199.364H140.527C139.332 199.364 138.364 200.333 138.364 201.527V229.437C138.364 230.631 139.332 231.599 140.527 231.599Z" fill="#969696"/>
<path d="M140.527 317.115H143.513C144.708 317.115 145.676 316.146 145.676 314.952V287.042C145.676 285.848 144.708 284.879 143.513 284.879H140.527C139.332 284.879 138.364 285.848 138.364 287.042V314.952C138.364 316.146 139.332 317.115 140.527 317.115Z" fill="#969696"/>
<path d="M6.33672 344.265H12.7318L132.977 323.72V20.5454L12.7318 0H6.33672V344.265Z" fill="#CFCFCF"/>
<path d="M12.7318 344.265L139.372 323.72V20.5454L12.7318 0V344.265Z" fill="#B2B2B2"/>
<path d="M452.041 120.328H350.867V190.989H452.041V120.328Z" fill="#FFA463"/>
<path d="M411.971 120.331H390.937V157.768H411.971V120.331Z" fill="#FFC59E"/>
<path fill-rule="evenodd" clip-rule="evenodd" d="M380.716 179.172C380.716 179.172 380.722 179.198 380.716 179.172V179.172ZM379.146 182.691H379.392C379.7 182.69 379.995 182.568 380.213 182.35L380.618 181.679C380.707 181.558 380.778 181.424 380.829 181.283C380.878 181.156 380.878 181.015 380.829 180.888L380.268 179.681L380.187 179.503L380.339 179.393L380.602 179.201L378.355 178.725L377.638 181.079L377.891 180.891L378.063 180.768L378.17 180.959L379.146 182.691ZM376.334 182.691H378.676L377.933 181.377L377.609 181.614L377.583 181.63H377.563C377.517 181.642 377.468 181.642 377.421 181.63C377.384 181.626 377.348 181.614 377.316 181.595C377.285 181.576 377.257 181.55 377.236 181.52C377.19 181.454 377.165 181.376 377.164 181.296C377.168 181.186 377.189 181.076 377.226 180.972L378.021 178.362L378.076 178.177L378.248 178.212L380.673 178.728C380.955 178.793 381.079 178.916 381.105 179.052C381.115 179.128 381.104 179.206 381.072 179.276C381.041 179.346 380.99 179.405 380.926 179.448L380.712 179.607L381.173 180.674C381.271 180.909 381.281 181.172 381.199 181.413C381.137 181.598 381.047 181.773 380.933 181.932L379.075 185.236C378.792 185.807 378.442 185.988 378.03 185.969H375.9V183.216C375.913 182.791 376.059 182.7 376.334 182.687V182.691Z" fill="#85583C"/>
<path d="M371.856 176.812C371.856 176.812 371.872 176.783 371.856 176.812V176.812ZM375.728 176.513L375.005 178.232L375.358 178.407H375.384H375.404C375.442 178.441 375.473 178.483 375.494 178.53C375.521 178.606 375.521 178.688 375.494 178.764C375.472 178.839 375.425 178.905 375.361 178.952C375.277 179.01 375.182 179.051 375.082 179.072L372.686 179.72L372.517 179.766L372.453 179.587L371.528 177.032C371.428 176.731 371.454 176.549 371.544 176.445C371.596 176.395 371.663 176.363 371.734 176.355C371.806 176.347 371.878 176.362 371.94 176.4H371.956L372.19 176.517L372.709 175.511C372.764 175.407 372.841 175.314 372.935 175.241C373.028 175.167 373.135 175.113 373.25 175.083C373.427 175.044 373.609 175.034 373.789 175.054H377.051L375.549 175.537L373.769 175.495C373.632 175.479 373.493 175.486 373.357 175.515C373.296 175.53 373.239 175.557 373.189 175.595C373.138 175.633 373.096 175.68 373.065 175.735L372.459 176.912L372.368 177.087L372.203 177.003L371.917 176.86L372.77 179.231L374.933 178.634L374.654 178.495L374.466 178.401L374.554 178.196L375.361 176.273L375.728 176.513Z" fill="#85583C"/>
<path fill-rule="evenodd" clip-rule="evenodd" d="M376.873 179.033L375.222 176.16C375.143 176.011 375.035 175.88 374.902 175.776C374.77 175.672 374.617 175.598 374.453 175.557L375.543 175.155L377.304 175.074C377.529 175.035 377.761 175.071 377.963 175.176C378.166 175.282 378.329 175.451 378.426 175.657L379.577 177.661L377.502 179.146C377.177 179.373 377.035 179.286 376.873 179.033Z" fill="#85583C"/>
<path fill-rule="evenodd" clip-rule="evenodd" d="M374.281 186.501C374.281 186.501 374.262 186.51 374.281 186.51V186.501ZM372.375 183.209L372.251 183.443C372.092 183.741 372.037 184.083 372.096 184.416L372.42 185.145C372.467 185.288 372.535 185.424 372.621 185.547C372.656 185.599 372.702 185.643 372.755 185.676C372.808 185.708 372.867 185.73 372.929 185.739L374.145 185.81H374.324V186.014V186.364L375.832 184.445L374.379 182.561L374.395 182.885V183.112H374.191L372.375 183.209ZM373.802 180.502L372.615 182.752L374.003 182.707L373.986 182.275V182.22C373.997 182.168 374.018 182.118 374.048 182.074C374.067 182.043 374.092 182.016 374.122 181.995C374.153 181.974 374.187 181.961 374.223 181.954C374.26 181.947 374.297 181.948 374.333 181.956C374.369 181.963 374.404 181.978 374.434 182C374.522 182.058 374.597 182.133 374.654 182.22L376.276 184.312L376.389 184.458L376.273 184.604L374.651 186.676C374.457 186.916 374.301 186.971 374.178 186.925C374.054 186.88 373.98 186.718 373.96 186.552V186.264L372.919 186.202C372.803 186.189 372.691 186.152 372.59 186.092C372.489 186.032 372.403 185.951 372.336 185.855C372.221 185.696 372.132 185.52 372.07 185.333L370.448 181.873C370.316 181.669 370.242 181.433 370.236 181.189C370.229 180.946 370.291 180.706 370.413 180.495L371.493 178.443L373.617 179.84C373.925 180.044 373.922 180.229 373.792 180.502H373.802Z" fill="#85583C"/>
<path d="M381.426 172.752H370.075C369.294 172.752 368.648 173.498 368.648 174.406V187.607C368.648 188.518 369.297 189.257 370.075 189.257H381.426C382.207 189.257 382.843 188.518 382.843 187.607V174.406C382.843 173.498 382.194 172.752 381.426 172.752ZM381.993 187.396C382.007 187.61 381.936 187.822 381.796 187.985C381.656 188.149 381.458 188.251 381.244 188.271H370.244C370.029 188.253 369.83 188.151 369.689 187.987C369.548 187.824 369.477 187.611 369.492 187.396V174.62C369.476 174.404 369.546 174.191 369.687 174.026C369.828 173.862 370.028 173.761 370.244 173.744H381.244C381.459 173.762 381.658 173.864 381.798 174.028C381.938 174.192 382.009 174.405 381.993 174.62V187.396Z" fill="#85583C"/>
<path d="M364.634 187.328H357.23C357.158 187.32 357.092 187.286 357.044 187.232C356.996 187.179 356.969 187.109 356.969 187.037C356.969 186.965 356.996 186.896 357.044 186.842C357.092 186.789 357.158 186.755 357.23 186.747H364.634C364.705 186.755 364.772 186.789 364.82 186.842C364.868 186.896 364.895 186.965 364.895 187.037C364.895 187.109 364.868 187.179 364.82 187.232C364.772 187.286 364.705 187.32 364.634 187.328Z" fill="#85583C"/>
<path fill-rule="evenodd" clip-rule="evenodd" d="M359.811 176.899V185.525H358.245V176.893L357.477 176.889L359.059 174.681L360.632 176.902L359.811 176.899Z" fill="#85583C"/>
<path fill-rule="evenodd" clip-rule="evenodd" d="M363.651 176.903V185.528H362.088V176.896L361.319 176.893L362.902 174.685L364.475 176.906L363.651 176.903Z" fill="#85583C"/>
<path d="M366.631 172.752H355.281C354.503 172.752 353.857 173.498 353.857 174.406V187.607C353.857 188.518 354.506 189.257 355.281 189.257H366.631C367.41 189.257 368.049 188.518 368.049 187.607V174.406C368.049 173.498 367.4 172.752 366.631 172.752ZM367.199 187.396C367.212 187.61 367.142 187.822 367.002 187.985C366.862 188.149 366.664 188.251 366.45 188.271H355.45C355.235 188.253 355.035 188.151 354.894 187.987C354.754 187.824 354.683 187.611 354.697 187.396V174.62C354.681 174.404 354.751 174.191 354.892 174.026C355.034 173.862 355.234 173.761 355.45 173.744H366.45C366.665 173.762 366.864 173.864 367.004 174.028C367.144 174.192 367.214 174.405 367.199 174.62V187.396Z" fill="#85583C"/>
<path d="M289.307 92.0491H188.133V162.71H289.307V92.0491Z" fill="#FFA463"/>
<path d="M249.237 92.0522H228.203V129.489H249.237V92.0522Z" fill="#FFC59E"/>
<path fill-rule="evenodd" clip-rule="evenodd" d="M217.981 150.89C217.981 150.89 217.988 150.916 217.981 150.89V150.89ZM216.405 154.408H216.648C216.954 154.413 217.249 154.296 217.469 154.084L217.874 153.41C217.964 153.288 218.034 153.154 218.082 153.011C218.129 152.884 218.129 152.745 218.082 152.618L217.521 151.412L217.436 151.234L217.589 151.123L217.855 150.932L215.604 150.455L214.887 152.806L215.144 152.622L215.316 152.495L215.423 152.69L216.405 154.408ZM213.593 154.408H215.932L215.192 153.092L214.868 153.332L214.845 153.348H214.823C214.777 153.366 214.728 153.373 214.68 153.367C214.644 153.362 214.609 153.349 214.578 153.33C214.547 153.312 214.52 153.287 214.498 153.257C214.452 153.192 214.427 153.114 214.427 153.033C214.428 152.923 214.448 152.813 214.485 152.709L215.283 150.115L215.338 149.93L215.507 149.966L217.933 150.481C218.215 150.546 218.338 150.67 218.367 150.806C218.377 150.882 218.366 150.96 218.335 151.03C218.303 151.101 218.253 151.161 218.189 151.205L217.971 151.36L218.451 152.391C218.551 152.627 218.561 152.891 218.481 153.134C218.417 153.319 218.328 153.493 218.215 153.653L216.356 156.954C216.071 157.524 215.708 157.709 215.312 157.69H213.188V154.937C213.188 154.512 213.321 154.408 213.6 154.408H213.593Z" fill="#85583C"/>
<path d="M209.134 148.533C209.131 148.523 209.138 148.513 209.121 148.533H209.134ZM213.007 148.231L212.283 149.95L212.637 150.125H212.663C212.702 150.158 212.734 150.2 212.754 150.248C212.782 150.322 212.782 150.404 212.754 150.478C212.733 150.554 212.687 150.62 212.624 150.666C212.541 150.727 212.446 150.768 212.345 150.786L209.945 151.435L209.777 151.48L209.712 151.302L208.791 148.743C208.69 148.442 208.713 148.263 208.791 148.16C208.842 148.109 208.909 148.076 208.98 148.067C209.052 148.059 209.124 148.074 209.186 148.111L209.42 148.228L209.939 147.219C209.995 147.115 210.073 147.023 210.167 146.95C210.26 146.877 210.368 146.824 210.484 146.795C210.659 146.752 210.84 146.742 211.019 146.765H214.284L212.78 147.252L210.999 147.21C210.862 147.194 210.723 147.2 210.587 147.229C210.526 147.243 210.468 147.27 210.418 147.308C210.367 147.346 210.326 147.394 210.295 147.45L209.686 148.627L209.598 148.802L209.433 148.717L209.144 148.575L210 150.945L212.16 150.345L211.881 150.209L211.696 150.115L211.781 149.911L212.591 147.988L213.007 148.231Z" fill="#85583C"/>
<path fill-rule="evenodd" clip-rule="evenodd" d="M214.138 150.751L212.488 147.881C212.409 147.732 212.3 147.601 212.167 147.496C212.035 147.392 211.882 147.316 211.719 147.274L212.805 146.876L214.57 146.791C214.795 146.753 215.027 146.789 215.23 146.895C215.432 147.001 215.595 147.171 215.692 147.378L216.843 149.379L214.767 150.867C214.443 151.094 214.297 151.004 214.138 150.751Z" fill="#85583C"/>
<path fill-rule="evenodd" clip-rule="evenodd" d="M211.544 158.222C211.544 158.222 211.524 158.212 211.547 158.222H211.544ZM209.637 154.914L209.511 155.151C209.354 155.449 209.3 155.791 209.358 156.124L209.682 156.853C209.731 156.997 209.8 157.134 209.887 157.259C209.922 157.309 209.967 157.352 210.02 157.385C210.072 157.418 210.131 157.44 210.192 157.45L211.408 157.521H211.589V157.726V158.076L213.097 156.153L211.644 154.272V154.613V154.84H211.443L209.637 154.914ZM211.061 152.21L209.874 154.46L211.265 154.415L211.246 153.984V153.928C211.255 153.875 211.275 153.825 211.304 153.779C211.346 153.718 211.41 153.675 211.482 153.659C211.556 153.65 211.63 153.666 211.693 153.705C211.778 153.767 211.853 153.842 211.914 153.928L213.535 156.02L213.649 156.166L213.535 156.312L211.914 158.384C211.716 158.621 211.56 158.679 211.437 158.634C211.369 158.598 211.313 158.544 211.275 158.478C211.237 158.412 211.219 158.337 211.223 158.261V158.241V157.956L210.182 157.894C210.065 157.881 209.953 157.843 209.851 157.783C209.75 157.723 209.663 157.643 209.595 157.547C209.483 157.386 209.393 157.21 209.329 157.025L207.708 153.562C207.573 153.36 207.498 153.123 207.491 152.88C207.484 152.637 207.546 152.397 207.669 152.187L208.752 150.135L210.876 151.532C210.94 151.559 210.996 151.6 211.042 151.652C211.087 151.704 211.119 151.766 211.137 151.833C211.154 151.9 211.156 151.97 211.141 152.038C211.127 152.105 211.097 152.169 211.054 152.223L211.061 152.21Z" fill="#85583C"/>
<path d="M218.701 144.473H207.351C206.569 144.473 205.924 145.219 205.924 146.123V159.327C205.924 160.235 206.573 160.978 207.351 160.978H218.701C219.479 160.978 220.118 160.235 220.118 159.327V146.123C220.118 145.219 219.47 144.473 218.701 144.473ZM219.269 159.117C219.281 159.331 219.21 159.542 219.071 159.704C218.931 159.867 218.733 159.969 218.52 159.989H207.519C207.305 159.971 207.106 159.869 206.965 159.706C206.825 159.543 206.754 159.332 206.767 159.117V146.337C206.752 146.122 206.822 145.91 206.963 145.746C207.104 145.583 207.304 145.482 207.519 145.465H218.52C218.734 145.483 218.932 145.585 219.072 145.748C219.213 145.911 219.283 146.123 219.269 146.337V159.117Z" fill="#85583C"/>
<path d="M201.909 159.045H194.509C194.44 159.035 194.377 159 194.331 158.947C194.285 158.894 194.26 158.826 194.26 158.757C194.26 158.687 194.285 158.619 194.331 158.566C194.377 158.513 194.44 158.478 194.509 158.468H201.909C201.978 158.478 202.041 158.513 202.087 158.566C202.133 158.619 202.158 158.687 202.158 158.757C202.158 158.826 202.133 158.894 202.087 158.947C202.041 159 201.978 159.035 201.909 159.045Z" fill="#85583C"/>
<path fill-rule="evenodd" clip-rule="evenodd" d="M197.074 148.617V157.246H195.511V148.614L194.739 148.61L196.325 146.402L197.898 148.62L197.074 148.617Z" fill="#85583C"/>
<path fill-rule="evenodd" clip-rule="evenodd" d="M200.917 148.623V157.249H199.35V148.617L198.582 148.614L200.164 146.406L201.737 148.627L200.917 148.623Z" fill="#85583C"/>
<path d="M203.897 144.473H192.547C191.765 144.473 191.12 145.219 191.12 146.123V159.327C191.12 160.235 191.768 160.978 192.547 160.978H203.897C204.675 160.978 205.314 160.235 205.314 159.327V146.123C205.314 145.219 204.666 144.473 203.897 144.473ZM204.465 159.117C204.476 159.331 204.405 159.542 204.264 159.705C204.124 159.867 203.926 159.969 203.712 159.989H192.712C192.498 159.971 192.299 159.869 192.158 159.706C192.018 159.543 191.946 159.332 191.96 159.117V146.337C191.945 146.122 192.015 145.91 192.156 145.746C192.297 145.583 192.497 145.482 192.712 145.465H203.712C203.927 145.483 204.126 145.585 204.266 145.748C204.407 145.911 204.478 146.123 204.465 146.337V159.117Z" fill="#85583C"/>
<path d="M401.435 257.563H328.715V323.716H401.435V257.563Z" fill="#FFAD6E"/>
<path d="M372.845 301.037H357.308V323.716H372.845V301.037Z" fill="#FFC59E"/>
<path d="M372.845 257.563H357.308V280.242H372.845V257.563Z" fill="#FFC59E"/>
<path fill-rule="evenodd" clip-rule="evenodd" d="M345.513 317.439C345.513 317.439 345.517 317.452 345.5 317.439H345.513ZM344.631 319.326H344.767C344.939 319.329 345.105 319.263 345.228 319.144L345.458 318.781C345.507 318.715 345.546 318.643 345.575 318.567C345.601 318.498 345.601 318.422 345.575 318.353L345.251 317.704L345.205 317.61L345.29 317.549L345.439 317.445L344.174 317.189L343.769 318.46L343.915 318.359L344.009 318.291L344.07 318.395L344.631 319.326ZM343.045 319.326H344.362L343.947 318.619L343.765 318.745C343.739 318.752 343.711 318.752 343.684 318.745C343.643 318.74 343.606 318.719 343.581 318.687C343.556 318.652 343.542 318.61 343.542 318.567C343.544 318.506 343.555 318.446 343.574 318.389L344.022 316.978L344.054 316.881L344.151 316.9L345.517 317.176C345.676 317.215 345.744 317.28 345.76 317.354C345.766 317.396 345.76 317.438 345.742 317.476C345.724 317.514 345.695 317.546 345.659 317.568L345.536 317.653L345.808 318.21C345.86 318.338 345.86 318.481 345.808 318.609C345.774 318.711 345.724 318.806 345.659 318.891L344.615 320.671C344.571 320.792 344.491 320.895 344.385 320.967C344.279 321.038 344.153 321.075 344.025 321.07H342.825V319.585C342.809 319.394 342.906 319.345 343.045 319.336V319.326Z" fill="#85583C"/>
<path d="M340.526 316.161C340.526 316.161 340.535 316.155 340.526 316.164V316.161ZM342.711 316.005L342.306 316.933L342.504 317.027C342.525 317.044 342.542 317.066 342.552 317.092C342.569 317.132 342.569 317.178 342.552 317.218C342.541 317.26 342.514 317.295 342.478 317.319C342.431 317.351 342.378 317.373 342.322 317.384L340.973 317.743L340.876 317.766L340.84 317.669L340.321 316.291C340.266 316.129 340.279 316.031 340.321 315.967C340.351 315.939 340.389 315.922 340.429 315.918C340.47 315.914 340.51 315.923 340.545 315.944L340.678 316.005L340.97 315.464C341.002 315.406 341.045 315.356 341.098 315.316C341.15 315.277 341.211 315.248 341.275 315.234C341.374 315.215 341.477 315.215 341.576 315.234H343.415L342.569 315.496L341.567 315.474C341.489 315.461 341.41 315.461 341.333 315.474C341.299 315.481 341.267 315.496 341.239 315.516C341.211 315.537 341.188 315.563 341.171 315.594L340.827 316.242L340.779 316.336L340.685 316.291L340.522 316.213L341.002 317.51L342.222 317.186L342.063 317.111L341.959 317.063L342.008 316.949L342.462 315.911L342.711 316.005Z" fill="#85583C"/>
<path fill-rule="evenodd" clip-rule="evenodd" d="M343.35 317.364L342.42 315.814C342.374 315.733 342.312 315.663 342.238 315.607C342.164 315.551 342.079 315.511 341.988 315.49L342.601 315.276L343.594 315.23C343.722 315.206 343.855 315.225 343.972 315.284C344.089 315.342 344.184 315.437 344.242 315.555L344.891 316.635L343.723 317.439C343.542 317.562 343.461 317.513 343.37 317.377L343.35 317.364Z" fill="#85583C"/>
<path fill-rule="evenodd" clip-rule="evenodd" d="M340.808 319.628L340.74 319.754C340.652 319.912 340.621 320.095 340.652 320.273L340.831 320.668C340.859 320.745 340.897 320.818 340.944 320.886C340.965 320.914 340.991 320.937 341.021 320.955C341.051 320.973 341.085 320.984 341.119 320.989L341.803 321.028H341.904V321.135V321.327L342.754 320.289L341.933 319.271V319.456V319.579H341.816L340.808 319.628ZM341.612 318.168L340.944 319.381L341.726 319.358V319.125V319.096C341.732 319.067 341.743 319.04 341.758 319.015C341.782 318.981 341.818 318.958 341.859 318.95C341.9 318.943 341.943 318.953 341.979 318.976C342.028 319.007 342.07 319.048 342.102 319.096L343.01 320.224L343.075 320.302L343.01 320.383L342.095 321.502C341.985 321.628 341.897 321.661 341.826 321.635C341.789 321.616 341.758 321.588 341.736 321.552C341.715 321.516 341.704 321.475 341.706 321.434V321.268L341.119 321.236C341.055 321.228 340.994 321.207 340.938 321.175C340.882 321.143 340.833 321.099 340.795 321.048C340.733 320.961 340.683 320.866 340.646 320.766L339.741 318.898C339.667 318.789 339.625 318.661 339.622 318.53C339.618 318.398 339.653 318.268 339.721 318.155L340.328 317.046L341.525 317.802C341.69 317.909 341.687 318.009 341.609 318.162L341.612 318.168Z" fill="#85583C"/>
<path d="M345.912 313.972H339.514C339.29 313.987 339.081 314.089 338.931 314.256C338.781 314.424 338.703 314.643 338.713 314.867V322.001C338.702 322.225 338.78 322.444 338.93 322.611C339.08 322.778 339.29 322.879 339.514 322.893H345.912C346.136 322.879 346.345 322.778 346.495 322.611C346.644 322.444 346.722 322.225 346.71 322.001V314.867C346.722 314.643 346.644 314.423 346.495 314.256C346.346 314.088 346.136 313.986 345.912 313.972ZM346.237 321.878C346.242 321.997 346.2 322.113 346.121 322.201C346.041 322.29 345.93 322.344 345.812 322.351H339.621C339.502 322.344 339.391 322.29 339.312 322.201C339.232 322.113 339.191 321.997 339.196 321.878V314.981C339.193 314.922 339.202 314.863 339.221 314.808C339.241 314.752 339.271 314.701 339.311 314.657C339.35 314.614 339.398 314.578 339.451 314.553C339.504 314.528 339.562 314.513 339.621 314.51H345.825C345.883 314.513 345.941 314.528 345.994 314.553C346.048 314.578 346.095 314.614 346.135 314.657C346.174 314.701 346.205 314.752 346.224 314.808C346.244 314.863 346.253 314.922 346.25 314.981L346.237 321.878Z" fill="#85583C"/>
<path d="M336.465 321.842H332.298C332.255 321.842 332.214 321.825 332.184 321.795C332.153 321.764 332.136 321.723 332.136 321.68C332.136 321.637 332.153 321.596 332.184 321.566C332.214 321.535 332.255 321.518 332.298 321.518H336.465C336.508 321.518 336.55 321.535 336.58 321.566C336.611 321.596 336.628 321.637 336.628 321.68C336.628 321.723 336.611 321.764 336.58 321.795C336.55 321.825 336.508 321.842 336.465 321.842Z" fill="#85583C"/>
<path fill-rule="evenodd" clip-rule="evenodd" d="M333.745 316.21V320.869H332.863V316.206H332.431L333.32 315.013L334.205 316.213L333.745 316.21Z" fill="#85583C"/>
<path fill-rule="evenodd" clip-rule="evenodd" d="M335.908 316.213V320.869H335.026V316.21H334.594L335.483 315.016L336.368 316.216L335.908 316.213Z" fill="#85583C"/>
<path d="M337.584 313.972H331.186C330.962 313.986 330.752 314.088 330.602 314.256C330.452 314.423 330.374 314.643 330.385 314.867V322.001C330.373 322.225 330.451 322.445 330.601 322.612C330.752 322.779 330.962 322.88 331.186 322.893H337.584C337.808 322.879 338.017 322.778 338.167 322.611C338.316 322.444 338.394 322.225 338.382 322.001V314.867C338.393 314.643 338.315 314.424 338.166 314.257C338.017 314.089 337.808 313.987 337.584 313.972ZM337.909 321.878C337.913 321.996 337.871 322.112 337.792 322.2C337.713 322.289 337.602 322.343 337.484 322.351H331.293C331.174 322.344 331.063 322.29 330.984 322.201C330.904 322.113 330.863 321.997 330.868 321.878V314.981C330.865 314.922 330.874 314.863 330.893 314.808C330.913 314.752 330.944 314.701 330.983 314.657C331.023 314.614 331.07 314.578 331.123 314.553C331.177 314.528 331.234 314.513 331.293 314.51H337.484C337.602 314.517 337.713 314.57 337.793 314.658C337.872 314.746 337.914 314.862 337.909 314.981V321.878Z" fill="#85583C"/>
<path d="M475.16 257.563H402.44V323.716H475.16V257.563Z" fill="#F5A262"/>
<path d="M446.57 301.037H431.033V323.716H446.57V301.037Z" fill="#FFC59E"/>
<path d="M446.57 257.563H431.033V280.242H446.57V257.563Z" fill="#FFC59E"/>
<path fill-rule="evenodd" clip-rule="evenodd" d="M419.238 317.439C419.238 317.439 419.242 317.452 419.238 317.439V317.439ZM418.356 319.326H418.493C418.664 319.329 418.83 319.263 418.953 319.144L419.183 318.781C419.232 318.715 419.271 318.643 419.3 318.567C419.326 318.498 419.326 318.422 419.3 318.353L418.976 317.704L418.93 317.61L419.015 317.549L419.164 317.445L417.899 317.189L417.494 318.46L417.64 318.359L417.734 318.291L417.795 318.395L418.356 319.326ZM416.771 319.326H418.091L417.672 318.619L417.491 318.745C417.464 318.752 417.436 318.752 417.409 318.745C417.369 318.74 417.331 318.719 417.306 318.687C417.281 318.652 417.267 318.61 417.267 318.567C417.269 318.506 417.281 318.446 417.302 318.389L417.75 316.978L417.779 316.881L417.876 316.9L419.242 317.176C419.401 317.215 419.469 317.28 419.485 317.354C419.491 317.396 419.485 317.438 419.467 317.476C419.449 317.514 419.42 317.546 419.384 317.568L419.261 317.653L419.534 318.21C419.585 318.338 419.585 318.481 419.534 318.609C419.499 318.711 419.449 318.806 419.384 318.891L418.34 320.671C418.297 320.792 418.216 320.895 418.11 320.967C418.004 321.038 417.878 321.075 417.75 321.07H416.521V319.585C416.521 319.394 416.615 319.345 416.771 319.336V319.326Z" fill="#85583C"/>
<path d="M414.251 316.161C414.251 316.161 414.251 316.155 414.251 316.164V316.161ZM416.437 316.005L416.031 316.933L416.229 317.027H416.245C416.267 317.044 416.283 317.066 416.294 317.092C416.31 317.132 416.31 317.178 416.294 317.218C416.282 317.259 416.257 317.294 416.223 317.319C416.175 317.351 416.121 317.373 416.064 317.384L414.715 317.743L414.621 317.766L414.582 317.669L414.063 316.291C414.008 316.129 414.021 316.031 414.063 315.967C414.093 315.939 414.131 315.922 414.171 315.918C414.211 315.914 414.252 315.923 414.287 315.944L414.419 316.005L414.711 315.464C414.743 315.406 414.787 315.356 414.839 315.316C414.892 315.277 414.952 315.248 415.016 315.234C415.116 315.215 415.218 315.215 415.318 315.234H417.157L416.31 315.496L415.308 315.474C415.231 315.461 415.152 315.461 415.075 315.474C415.041 315.482 415.009 315.496 414.981 315.517C414.953 315.538 414.93 315.564 414.912 315.594L414.569 316.242L414.52 316.336L414.426 316.291L414.264 316.213L414.744 317.51L415.963 317.186L415.804 317.111L415.7 317.063L415.749 316.949L416.203 315.911L416.437 316.005Z" fill="#85583C"/>
<path fill-rule="evenodd" clip-rule="evenodd" d="M417.075 317.364L416.145 315.814C416.099 315.733 416.037 315.663 415.963 315.607C415.889 315.551 415.804 315.511 415.713 315.49L416.326 315.276L417.319 315.23C417.445 315.21 417.575 315.23 417.688 315.288C417.802 315.347 417.894 315.44 417.951 315.555L418.6 316.635L417.432 317.439C417.251 317.562 417.169 317.513 417.079 317.377L417.075 317.364Z" fill="#85583C"/>
<path fill-rule="evenodd" clip-rule="evenodd" d="M414.523 319.628L414.455 319.754C414.368 319.912 414.337 320.095 414.368 320.273L414.546 320.668C414.575 320.745 414.613 320.818 414.659 320.886C414.68 320.914 414.707 320.937 414.737 320.955C414.767 320.973 414.8 320.985 414.835 320.989L415.519 321.028H415.619V321.135V321.327L416.469 320.289L415.649 319.271V319.456V319.579H415.532L414.523 319.628ZM415.328 318.168L414.659 319.381L415.441 319.358V319.125V319.096C415.447 319.067 415.458 319.04 415.473 319.015C415.498 318.981 415.534 318.958 415.574 318.95C415.616 318.943 415.659 318.953 415.694 318.976C415.743 319.007 415.785 319.048 415.817 319.096L416.725 320.224L416.79 320.302L416.725 320.383L415.811 321.502C415.7 321.628 415.613 321.661 415.542 321.635C415.504 321.617 415.473 321.588 415.452 321.552C415.43 321.516 415.42 321.475 415.422 321.434V321.278L414.835 321.246C414.771 321.238 414.709 321.217 414.653 321.185C414.597 321.152 414.549 321.109 414.51 321.058C414.449 320.97 414.399 320.876 414.361 320.775L413.456 318.908C413.382 318.799 413.341 318.671 413.337 318.539C413.334 318.408 413.368 318.278 413.437 318.165L414.043 317.056L415.24 317.812C415.415 317.909 415.412 318.01 415.341 318.162L415.328 318.168Z" fill="#85583C"/>
<path d="M419.637 313.972H413.239C413.015 313.987 412.806 314.089 412.656 314.256C412.507 314.424 412.428 314.643 412.438 314.867V322.001C412.427 322.225 412.506 322.444 412.655 322.611C412.805 322.778 413.015 322.879 413.239 322.893H419.637C419.861 322.879 420.07 322.778 420.22 322.611C420.369 322.444 420.447 322.225 420.435 322.001V314.867C420.447 314.643 420.369 314.423 420.22 314.256C420.071 314.088 419.861 313.986 419.637 313.972ZM419.962 321.878C419.967 321.996 419.926 322.112 419.847 322.2C419.768 322.289 419.658 322.343 419.54 322.351H413.346C413.227 322.344 413.116 322.29 413.037 322.201C412.957 322.113 412.916 321.997 412.921 321.878V314.981C412.918 314.922 412.927 314.863 412.946 314.808C412.966 314.752 412.997 314.701 413.036 314.657C413.076 314.614 413.123 314.578 413.176 314.553C413.23 314.528 413.287 314.513 413.346 314.51H419.54C419.658 314.517 419.769 314.57 419.848 314.658C419.927 314.747 419.968 314.862 419.962 314.981V321.878Z" fill="#85583C"/>
<path d="M410.191 321.842H406.023C405.98 321.842 405.939 321.825 405.909 321.795C405.878 321.764 405.861 321.723 405.861 321.68C405.861 321.637 405.878 321.596 405.909 321.566C405.939 321.535 405.98 321.518 406.023 321.518H410.191C410.234 321.518 410.275 321.535 410.305 321.566C410.336 321.596 410.353 321.637 410.353 321.68C410.353 321.723 410.336 321.764 410.305 321.795C410.275 321.825 410.234 321.842 410.191 321.842Z" fill="#85583C"/>
<path fill-rule="evenodd" clip-rule="evenodd" d="M407.47 316.21V320.869H406.588V316.206H406.156L407.045 315.013L407.93 316.213L407.47 316.21Z" fill="#85583C"/>
<path fill-rule="evenodd" clip-rule="evenodd" d="M409.633 316.213V320.869H408.751V316.21H408.319L409.208 315.016L410.093 316.216L409.633 316.213Z" fill="#85583C"/>
<path d="M411.309 313.972H404.911C404.687 313.986 404.477 314.088 404.327 314.256C404.177 314.423 404.099 314.643 404.11 314.867V322.001C404.099 322.225 404.177 322.445 404.327 322.612C404.477 322.779 404.687 322.88 404.911 322.893H411.309C411.533 322.879 411.743 322.778 411.892 322.611C412.041 322.444 412.119 322.225 412.107 322.001V314.867C412.118 314.643 412.04 314.424 411.891 314.257C411.742 314.089 411.533 313.987 411.309 313.972ZM411.634 321.878C411.638 321.996 411.597 322.112 411.517 322.2C411.438 322.289 411.327 322.343 411.209 322.351H405.018C404.899 322.344 404.788 322.29 404.709 322.201C404.63 322.113 404.588 321.997 404.593 321.878V314.981C404.59 314.922 404.599 314.863 404.619 314.808C404.638 314.752 404.669 314.701 404.708 314.657C404.748 314.614 404.795 314.578 404.849 314.553C404.902 314.528 404.959 314.513 405.018 314.51H411.209C411.327 314.517 411.438 314.57 411.518 314.658C411.597 314.746 411.639 314.862 411.634 314.981V321.878Z" fill="#85583C"/>
<path d="M401.435 191.141H328.715V257.294H401.435V191.141Z" fill="#F5A262"/>
<path d="M372.845 234.615H357.308V257.294H372.845V234.615Z" fill="#FFC59E"/>
<path d="M372.845 191.141H357.308V213.82H372.845V191.141Z" fill="#FFC59E"/>
<path fill-rule="evenodd" clip-rule="evenodd" d="M345.513 251.016C345.513 251.016 345.517 251.039 345.5 251.016H345.513ZM344.631 252.904H344.767C344.939 252.905 345.105 252.839 345.228 252.719L345.458 252.356C345.507 252.289 345.546 252.216 345.575 252.138C345.601 252.07 345.601 251.995 345.575 251.927L345.251 251.279L345.205 251.182L345.29 251.123L345.439 251.02L344.174 250.763L343.769 252.031L343.915 251.931L344.009 251.863L344.07 251.966L344.631 252.904ZM343.045 252.904H344.362L343.947 252.193L343.765 252.323C343.739 252.33 343.711 252.33 343.684 252.323C343.644 252.317 343.607 252.296 343.581 252.265C343.556 252.228 343.543 252.185 343.542 252.142C343.544 252.082 343.555 252.023 343.574 251.966L344.022 250.556L344.054 250.455L344.151 250.475L345.517 250.754C345.676 250.789 345.744 250.854 345.76 250.932C345.766 250.974 345.76 251.016 345.742 251.054C345.724 251.092 345.695 251.124 345.659 251.146L345.536 251.23L345.808 251.785C345.86 251.914 345.86 252.058 345.808 252.187C345.774 252.287 345.724 252.382 345.659 252.466L344.615 254.249C344.572 254.369 344.491 254.473 344.385 254.544C344.279 254.615 344.153 254.65 344.025 254.645H342.825V253.16C342.809 252.985 342.906 252.92 343.045 252.913V252.904Z" fill="#85583C"/>
<path d="M340.526 249.742C340.526 249.742 340.535 249.742 340.526 249.742V249.742ZM342.711 249.583L342.306 250.51L342.504 250.608C342.525 250.626 342.542 250.65 342.552 250.676C342.569 250.716 342.569 250.762 342.552 250.802C342.541 250.844 342.514 250.879 342.478 250.903C342.431 250.935 342.378 250.958 342.322 250.968L340.973 251.324L340.876 251.35L340.84 251.253L340.321 249.872C340.266 249.71 340.279 249.612 340.321 249.547C340.351 249.52 340.389 249.503 340.429 249.499C340.469 249.494 340.51 249.502 340.545 249.521L340.678 249.586L340.97 249.042C341.003 248.985 341.047 248.935 341.099 248.895C341.151 248.856 341.211 248.827 341.275 248.811C341.375 248.796 341.476 248.796 341.576 248.811H343.415L342.569 249.074L341.567 249.051C341.489 249.038 341.41 249.038 341.333 249.051C341.299 249.058 341.268 249.072 341.24 249.092C341.212 249.112 341.188 249.138 341.171 249.168L340.827 249.817L340.779 249.911L340.685 249.868L340.522 249.787L341.002 251.068L342.222 250.744L342.063 250.669L341.959 250.617L342.008 250.507L342.462 249.47L342.711 249.583Z" fill="#85583C"/>
<path fill-rule="evenodd" clip-rule="evenodd" d="M343.35 250.939L342.42 249.389C342.374 249.308 342.312 249.237 342.238 249.181C342.164 249.125 342.079 249.085 341.988 249.064L342.601 248.847L343.594 248.802C343.722 248.777 343.856 248.795 343.973 248.854C344.09 248.913 344.185 249.008 344.242 249.126L344.891 250.206L343.723 251.007C343.542 251.13 343.461 251.081 343.37 250.945L343.35 250.939Z" fill="#85583C"/>
<path fill-rule="evenodd" clip-rule="evenodd" d="M341.901 254.982C341.901 254.982 341.878 254.969 341.891 254.972L341.901 254.982ZM340.808 253.205L340.74 253.332C340.652 253.489 340.621 253.673 340.652 253.85L340.831 254.246C340.859 254.323 340.897 254.396 340.944 254.463C340.964 254.492 340.99 254.516 341.021 254.534C341.051 254.551 341.084 254.563 341.119 254.567L341.803 254.606H341.904V254.716V254.904L342.754 253.867L341.933 252.852V253.037V253.16H341.816L340.808 253.205ZM341.612 251.743L340.944 252.959L341.726 252.933V252.699V252.66C341.732 252.633 341.743 252.606 341.758 252.583C341.769 252.566 341.784 252.551 341.802 252.54C341.819 252.529 341.838 252.521 341.859 252.518C341.9 252.512 341.942 252.52 341.978 252.54C342.027 252.572 342.069 252.613 342.102 252.66L343.01 253.789L343.075 253.87L343.01 253.948L342.095 255.066C341.985 255.196 341.897 255.225 341.826 255.203C341.789 255.184 341.758 255.155 341.737 255.12C341.715 255.084 341.705 255.043 341.706 255.002V254.836L341.119 254.804C341.055 254.795 340.994 254.774 340.938 254.742C340.883 254.71 340.834 254.667 340.795 254.616C340.733 254.528 340.683 254.434 340.646 254.334L339.741 252.466C339.667 252.356 339.625 252.228 339.622 252.096C339.618 251.964 339.653 251.833 339.721 251.72L340.328 250.614L341.524 251.367C341.69 251.487 341.687 251.587 341.609 251.733L341.612 251.743Z" fill="#85583C"/>
<path d="M345.912 247.55H339.514C339.29 247.564 339.081 247.666 338.931 247.832C338.782 247.999 338.703 248.218 338.713 248.442V255.576C338.703 255.799 338.782 256.018 338.931 256.185C339.081 256.352 339.29 256.453 339.514 256.467H345.912C346.136 256.454 346.345 256.353 346.495 256.186C346.644 256.019 346.722 255.799 346.71 255.576V248.442C346.722 248.218 346.644 247.999 346.495 247.832C346.345 247.665 346.136 247.563 345.912 247.55ZM346.237 255.456C346.242 255.574 346.2 255.69 346.121 255.778C346.041 255.866 345.93 255.919 345.812 255.926H339.621C339.503 255.919 339.391 255.866 339.312 255.778C339.232 255.69 339.191 255.574 339.196 255.456V248.559C339.19 248.439 339.231 248.323 339.311 248.234C339.39 248.145 339.502 248.092 339.621 248.085H345.825C345.944 248.092 346.055 248.145 346.135 248.234C346.214 248.323 346.256 248.439 346.25 248.559L346.237 255.456Z" fill="#85583C"/>
<path d="M336.465 255.417H332.298C332.255 255.417 332.214 255.399 332.184 255.369C332.153 255.339 332.136 255.297 332.136 255.254C332.136 255.211 332.153 255.17 332.184 255.14C332.214 255.109 332.255 255.092 332.298 255.092H336.465C336.508 255.092 336.55 255.109 336.58 255.14C336.611 255.17 336.628 255.211 336.628 255.254C336.628 255.297 336.611 255.339 336.58 255.369C336.55 255.399 336.508 255.417 336.465 255.417Z" fill="#85583C"/>
<path fill-rule="evenodd" clip-rule="evenodd" d="M333.745 249.787V254.444H332.863V249.784H332.431L333.32 248.591L334.205 249.791L333.745 249.787Z" fill="#85583C"/>
<path fill-rule="evenodd" clip-rule="evenodd" d="M335.908 249.791V254.447H335.026V249.788L334.594 249.784L335.483 248.594L336.368 249.791H335.908Z" fill="#85583C"/>
<path d="M337.584 247.55H331.186C330.962 247.563 330.752 247.665 330.602 247.831C330.452 247.998 330.374 248.218 330.385 248.442V255.576C330.374 255.8 330.452 256.019 330.602 256.186C330.752 256.353 330.962 256.454 331.186 256.467H337.584C337.808 256.453 338.017 256.352 338.166 256.185C338.315 256.018 338.393 255.799 338.382 255.576V248.442C338.393 248.218 338.315 247.999 338.166 247.833C338.017 247.666 337.808 247.564 337.584 247.55ZM337.909 255.456C337.913 255.574 337.871 255.689 337.792 255.777C337.712 255.865 337.602 255.918 337.484 255.926H331.293C331.175 255.919 331.064 255.866 330.984 255.778C330.905 255.69 330.863 255.574 330.868 255.456V248.559C330.865 248.499 330.873 248.44 330.892 248.384C330.912 248.329 330.942 248.277 330.982 248.233C331.021 248.189 331.069 248.153 331.123 248.128C331.176 248.103 331.234 248.088 331.293 248.085H337.484C337.603 248.093 337.714 248.146 337.793 248.235C337.872 248.323 337.914 248.44 337.909 248.559V255.456Z" fill="#85583C"/>
<path d="M475.16 191.141H402.44V257.294H475.16V191.141Z" fill="#FFAD6E"/>
<path d="M446.57 234.615H431.033V257.294H446.57V234.615Z" fill="#FFC59E"/>
<path d="M446.57 191.141H431.033V213.82H446.57V191.141Z" fill="#FFC59E"/>
<path fill-rule="evenodd" clip-rule="evenodd" d="M419.238 251.016C419.238 251.016 419.242 251.039 419.238 251.016V251.016ZM418.356 252.904H418.493C418.665 252.905 418.83 252.839 418.953 252.719L419.183 252.356C419.232 252.289 419.271 252.216 419.3 252.138C419.326 252.07 419.326 251.995 419.3 251.927L418.976 251.279L418.93 251.182L419.015 251.123L419.164 251.02L417.899 250.763L417.494 252.031L417.64 251.931L417.734 251.863L417.795 251.966L418.356 252.904ZM416.771 252.904H418.091L417.672 252.193L417.491 252.323C417.464 252.33 417.436 252.33 417.409 252.323C417.369 252.317 417.332 252.296 417.306 252.265C417.281 252.228 417.268 252.185 417.267 252.142C417.269 252.082 417.281 252.022 417.302 251.966L417.75 250.556L417.779 250.455L417.876 250.475L419.242 250.754C419.401 250.789 419.469 250.854 419.485 250.932C419.491 250.974 419.485 251.016 419.467 251.054C419.449 251.092 419.42 251.124 419.384 251.146L419.261 251.23L419.534 251.785C419.585 251.914 419.585 252.058 419.534 252.187C419.499 252.287 419.449 252.382 419.384 252.466L418.34 254.249C418.297 254.369 418.216 254.473 418.11 254.544C418.004 254.615 417.878 254.65 417.75 254.645H416.521V253.16C416.521 252.985 416.615 252.92 416.771 252.913V252.904Z" fill="#85583C"/>
<path d="M416.437 249.583L416.031 250.51L416.229 250.608H416.245C416.267 250.626 416.283 250.65 416.294 250.676C416.311 250.716 416.311 250.762 416.294 250.802C416.282 250.843 416.257 250.878 416.223 250.903C416.175 250.935 416.121 250.957 416.064 250.968L414.715 251.324L414.621 251.35L414.582 251.253L414.063 249.872C414.008 249.71 414.021 249.612 414.063 249.547C414.093 249.52 414.13 249.503 414.17 249.499C414.211 249.494 414.251 249.502 414.287 249.521L414.419 249.586L414.711 249.042C414.744 248.985 414.788 248.935 414.84 248.895C414.893 248.856 414.953 248.827 415.016 248.811C415.116 248.796 415.218 248.796 415.318 248.811H417.157L416.31 249.074L415.308 249.051C415.231 249.038 415.152 249.038 415.075 249.051C415.041 249.059 415.009 249.073 414.981 249.093C414.953 249.113 414.93 249.138 414.912 249.168L414.569 249.817L414.52 249.911L414.426 249.868L414.264 249.787L414.744 251.068L415.963 250.744L415.804 250.669L415.7 250.617L415.749 250.507L416.203 249.47L416.437 249.583Z" fill="#85583C"/>
<path fill-rule="evenodd" clip-rule="evenodd" d="M417.075 250.938L416.145 249.389C416.099 249.307 416.038 249.237 415.963 249.181C415.889 249.125 415.804 249.085 415.713 249.064L416.326 248.847L417.319 248.802C417.445 248.78 417.575 248.8 417.689 248.859C417.803 248.917 417.895 249.011 417.951 249.126L418.6 250.206L417.432 251.007C417.251 251.13 417.169 251.081 417.079 250.945L417.075 250.938Z" fill="#85583C"/>
<path fill-rule="evenodd" clip-rule="evenodd" d="M415.616 254.982C415.616 254.982 415.603 254.969 415.616 254.972V254.982ZM414.523 253.205L414.455 253.332C414.367 253.489 414.336 253.673 414.368 253.85L414.546 254.246C414.574 254.323 414.612 254.396 414.659 254.463C414.68 254.492 414.706 254.516 414.736 254.534C414.766 254.551 414.8 254.563 414.835 254.567L415.519 254.606H415.619V254.716V254.904L416.469 253.867L415.649 252.852V253.037V253.16H415.532L414.523 253.205ZM415.328 251.743L414.659 252.959L415.441 252.933V252.699V252.66C415.447 252.633 415.458 252.606 415.473 252.583C415.485 252.566 415.5 252.551 415.517 252.54C415.534 252.529 415.554 252.521 415.574 252.518C415.615 252.512 415.658 252.519 415.694 252.54C415.742 252.572 415.784 252.613 415.817 252.66L416.725 253.789L416.79 253.87L416.725 253.948L415.811 255.066C415.7 255.196 415.613 255.225 415.542 255.203C415.504 255.184 415.473 255.155 415.452 255.12C415.431 255.084 415.42 255.043 415.422 255.002V254.846L414.835 254.814C414.771 254.805 414.709 254.784 414.654 254.752C414.598 254.719 414.549 254.677 414.51 254.625C414.449 254.538 414.399 254.443 414.361 254.343L413.456 252.476C413.382 252.366 413.341 252.238 413.337 252.106C413.334 251.973 413.368 251.843 413.437 251.73L414.043 250.624L415.224 251.363C415.415 251.487 415.412 251.587 415.341 251.733L415.328 251.743Z" fill="#85583C"/>
<path d="M419.637 247.55H413.239C413.015 247.564 412.806 247.666 412.656 247.832C412.507 247.999 412.428 248.218 412.438 248.442V255.576C412.428 255.799 412.507 256.018 412.656 256.185C412.806 256.352 413.015 256.453 413.239 256.467H419.637C419.861 256.454 420.07 256.353 420.22 256.186C420.369 256.019 420.447 255.799 420.435 255.576V248.442C420.447 248.218 420.369 247.999 420.22 247.832C420.07 247.665 419.861 247.563 419.637 247.55ZM419.962 255.456C419.967 255.574 419.926 255.689 419.847 255.777C419.768 255.865 419.658 255.918 419.54 255.926H413.346C413.228 255.919 413.117 255.866 413.037 255.778C412.958 255.69 412.916 255.574 412.921 255.456V248.559C412.915 248.439 412.956 248.323 413.036 248.234C413.115 248.145 413.227 248.092 413.346 248.085H419.54C419.659 248.093 419.769 248.147 419.848 248.235C419.927 248.324 419.968 248.44 419.962 248.559V255.456Z" fill="#85583C"/>
<path d="M410.191 255.417H406.023C405.98 255.417 405.939 255.399 405.909 255.369C405.878 255.339 405.861 255.297 405.861 255.254C405.861 255.211 405.878 255.17 405.909 255.14C405.939 255.109 405.98 255.092 406.023 255.092H410.191C410.234 255.092 410.275 255.109 410.305 255.14C410.336 255.17 410.353 255.211 410.353 255.254C410.353 255.297 410.336 255.339 410.305 255.369C410.275 255.399 410.234 255.417 410.191 255.417Z" fill="#85583C"/>
<path fill-rule="evenodd" clip-rule="evenodd" d="M407.47 249.787V254.444H406.588V249.784H406.156L407.045 248.591L407.93 249.791L407.47 249.787Z" fill="#85583C"/>
<path fill-rule="evenodd" clip-rule="evenodd" d="M409.633 249.791V254.447H408.751V249.788L408.319 249.784L409.208 248.594L410.093 249.791H409.633Z" fill="#85583C"/>
<path d="M411.31 247.55H404.911C404.687 247.563 404.478 247.665 404.328 247.831C404.178 247.998 404.1 248.218 404.11 248.442V255.576C404.1 255.8 404.178 256.019 404.328 256.186C404.478 256.353 404.687 256.454 404.911 256.467H411.31C411.533 256.453 411.742 256.352 411.891 256.185C412.04 256.018 412.118 255.799 412.107 255.576V248.442C412.118 248.218 412.04 247.999 411.891 247.833C411.742 247.666 411.533 247.564 411.31 247.55ZM411.634 255.456C411.638 255.574 411.596 255.689 411.517 255.777C411.438 255.865 411.327 255.918 411.209 255.926H405.018C404.9 255.919 404.789 255.866 404.709 255.778C404.63 255.69 404.588 255.574 404.593 255.456V248.559C404.59 248.499 404.598 248.44 404.618 248.384C404.637 248.329 404.668 248.277 404.707 248.233C404.747 248.189 404.794 248.153 404.848 248.128C404.901 248.103 404.959 248.088 405.018 248.085H411.209C411.328 248.093 411.439 248.146 411.518 248.235C411.598 248.323 411.639 248.44 411.634 248.559V255.456Z" fill="#85583C"/>
<path d="M236.609 254.736H156.187V323.72H236.609V254.736Z" fill="#F79156"/>
<g style="mix-blend-mode:multiply">
<path d="M236.612 244.016H156.187V259.746H236.612V244.016Z" fill="#B2B2B2"/>
</g>
<path d="M240.283 243.215H152.516V258.945H240.283V243.215Z" fill="#FFB47D"/>
<path fill-rule="evenodd" clip-rule="evenodd" d="M182.293 314.368C182.293 314.368 182.296 314.387 182.293 314.368V314.368ZM180.898 317.166H181.112C181.381 317.169 181.641 317.072 181.842 316.894L182.202 316.359C182.28 316.261 182.343 316.152 182.387 316.035C182.409 315.984 182.421 315.928 182.421 315.873C182.421 315.817 182.409 315.761 182.387 315.71L181.887 314.738L181.813 314.595L181.949 314.507L182.186 314.352L180.185 313.972L179.536 315.847L179.763 315.697L179.916 315.597L180.01 315.753L180.898 317.166ZM178.398 317.166H180.477L179.828 316.119L179.543 316.31H179.52H179.5C179.459 316.32 179.415 316.32 179.374 316.31C179.342 316.307 179.312 316.298 179.284 316.283C179.256 316.268 179.232 316.247 179.212 316.223C179.17 316.173 179.149 316.109 179.15 316.044C179.149 315.955 179.167 315.867 179.202 315.785L179.909 313.706L179.958 313.561L180.11 313.59L182.263 313.998C182.516 314.05 182.623 314.147 182.649 314.261C182.658 314.325 182.647 314.39 182.619 314.447C182.591 314.505 182.546 314.553 182.49 314.585L182.299 314.708L182.704 315.568C182.748 315.659 182.772 315.759 182.777 315.86C182.781 315.962 182.765 316.063 182.73 316.158C182.673 316.307 182.593 316.447 182.494 316.573L180.84 319.199C180.762 319.379 180.632 319.532 180.467 319.636C180.301 319.741 180.108 319.793 179.912 319.786H178.018V317.594C178.022 317.247 178.164 317.189 178.398 317.166Z" fill="#85583C"/>
<path d="M174.419 312.49C174.419 312.49 174.432 312.474 174.419 312.49V312.49ZM177.869 312.26L177.221 313.625L177.545 313.765H177.568C177.602 313.791 177.63 313.826 177.649 313.865C177.661 313.895 177.667 313.926 177.667 313.958C177.667 313.989 177.661 314.021 177.649 314.05C177.628 314.112 177.587 314.164 177.532 314.199C177.456 314.245 177.373 314.277 177.285 314.293L175.155 314.822L175.006 314.858L174.947 314.715L174.127 312.682C174.036 312.442 174.059 312.296 174.127 312.215C174.176 312.175 174.235 312.151 174.298 312.144C174.361 312.138 174.424 312.15 174.48 312.179L174.688 312.273L175.148 311.472C175.204 311.389 175.275 311.318 175.358 311.262C175.441 311.206 175.534 311.168 175.632 311.148C175.788 311.117 175.949 311.109 176.108 311.125H179.007L177.671 311.511L176.092 311.476C175.971 311.458 175.847 311.458 175.726 311.476C175.673 311.485 175.622 311.505 175.577 311.536C175.533 311.566 175.495 311.605 175.466 311.651L174.925 312.588L174.847 312.727L174.698 312.662L174.445 312.546L175.203 314.433L177.123 313.956L176.877 313.846L176.711 313.771L176.786 313.609L177.506 312.079L177.869 312.26Z" fill="#85583C"/>
<path fill-rule="evenodd" clip-rule="evenodd" d="M178.874 314.271L177.409 312.001C177.334 311.879 177.235 311.773 177.118 311.69C177.001 311.608 176.868 311.55 176.728 311.521L177.701 311.197L179.267 311.132C179.46 311.097 179.66 311.123 179.838 311.206C180.016 311.289 180.165 311.425 180.262 311.595L181.287 313.191L179.442 314.374C179.153 314.556 179.024 314.485 178.881 314.284L178.874 314.271Z" fill="#85583C"/>
<path fill-rule="evenodd" clip-rule="evenodd" d="M176.575 320.202C176.575 320.202 176.543 320.195 176.575 320.202V320.202ZM174.873 317.581L174.762 317.77C174.625 317.999 174.576 318.272 174.626 318.535L174.905 319.115C174.947 319.232 175.007 319.342 175.083 319.439C175.151 319.524 175.249 319.578 175.356 319.592L176.436 319.647H176.598V319.809V320.088L177.937 318.557L176.64 317.059V317.332V317.51H176.458L174.873 317.581ZM176.141 315.428L175.087 317.218L176.322 317.183L176.303 316.839V316.793C176.313 316.752 176.331 316.712 176.355 316.677C176.374 316.651 176.397 316.63 176.425 316.614C176.452 316.598 176.482 316.587 176.514 316.583C176.577 316.573 176.643 316.586 176.698 316.618C176.775 316.665 176.842 316.726 176.896 316.797L178.33 318.46L178.43 318.577L178.33 318.694L176.883 320.341C176.711 320.532 176.559 320.578 176.462 320.542C176.404 320.516 176.356 320.474 176.322 320.421C176.288 320.368 176.27 320.307 176.27 320.244V320.013L175.346 319.965C175.245 319.956 175.146 319.927 175.057 319.879C174.967 319.831 174.888 319.765 174.824 319.686C174.725 319.561 174.645 319.423 174.587 319.274L173.16 316.518C173.045 316.36 172.981 316.17 172.975 315.975C172.969 315.779 173.023 315.587 173.128 315.422L174.101 313.801L175.988 314.909C176.257 315.062 176.251 315.211 176.137 315.428H176.141Z" fill="#85583C"/>
<path d="M182.922 309.258H172.823C172.481 309.266 172.157 309.409 171.92 309.656C171.683 309.902 171.553 310.232 171.558 310.574V321.08C171.558 321.419 171.69 321.744 171.927 321.986C172.163 322.228 172.485 322.369 172.823 322.377H182.922C183.26 322.368 183.58 322.227 183.816 321.985C184.052 321.743 184.183 321.418 184.183 321.08V310.574C184.188 310.233 184.059 309.903 183.823 309.657C183.587 309.41 183.263 309.267 182.922 309.258ZM183.428 320.931C183.429 321.111 183.36 321.285 183.235 321.415C183.11 321.544 182.94 321.62 182.76 321.625H172.976C172.795 321.621 172.624 321.545 172.499 321.416C172.374 321.286 172.305 321.111 172.307 320.931V310.762C172.304 310.672 172.319 310.581 172.351 310.497C172.382 310.412 172.431 310.334 172.493 310.268C172.555 310.203 172.63 310.15 172.713 310.113C172.796 310.077 172.885 310.057 172.976 310.055H182.75C182.93 310.06 183.102 310.136 183.227 310.267C183.352 310.397 183.42 310.572 183.418 310.752L183.428 320.931Z" fill="#85583C"/>
<path d="M168.011 320.86H161.434C161.373 320.86 161.314 320.835 161.271 320.792C161.228 320.749 161.204 320.69 161.204 320.629C161.204 320.568 161.228 320.51 161.271 320.467C161.314 320.423 161.373 320.399 161.434 320.399H168.011C168.072 320.399 168.13 320.423 168.173 320.467C168.217 320.51 168.241 320.568 168.241 320.629C168.241 320.69 168.217 320.749 168.173 320.792C168.13 320.835 168.072 320.86 168.011 320.86Z" fill="#85583C"/>
<path fill-rule="evenodd" clip-rule="evenodd" d="M163.714 312.558V319.426H162.322V312.555L161.641 312.552L163.046 310.794L164.443 312.562L163.714 312.558Z" fill="#85583C"/>
<path fill-rule="evenodd" clip-rule="evenodd" d="M167.129 312.562V319.43H165.737V312.559L165.053 312.555L166.46 310.798L167.858 312.565L167.129 312.562Z" fill="#85583C"/>
<path d="M169.775 309.258H159.679C159.337 309.265 159.012 309.408 158.774 309.655C158.537 309.901 158.406 310.232 158.411 310.574V321.08C158.411 321.419 158.544 321.745 158.781 321.987C159.018 322.23 159.341 322.37 159.679 322.377H169.778C170.116 322.368 170.437 322.227 170.672 321.985C170.908 321.743 171.04 321.418 171.04 321.08V310.574C171.045 310.233 170.915 309.903 170.679 309.657C170.443 309.41 170.119 309.267 169.778 309.258H169.775ZM170.281 320.931C170.282 321.111 170.213 321.285 170.089 321.415C169.964 321.544 169.793 321.62 169.613 321.625H159.838C159.658 321.621 159.487 321.545 159.362 321.416C159.236 321.286 159.168 321.111 159.17 320.931V310.762C159.168 310.672 159.184 310.583 159.216 310.5C159.249 310.416 159.297 310.339 159.359 310.275C159.422 310.21 159.496 310.158 159.578 310.122C159.66 310.086 159.749 310.067 159.838 310.065H169.613C169.793 310.07 169.965 310.146 170.09 310.277C170.215 310.407 170.283 310.581 170.281 310.762V320.931Z" fill="#85583C"/>
<path d="M205.045 266.069H187.75C186.285 266.069 185.098 267.256 185.098 268.721V270.502C185.098 271.966 186.285 273.154 187.75 273.154H205.045C206.51 273.154 207.698 271.966 207.698 270.502V268.721C207.698 267.256 206.51 266.069 205.045 266.069Z" fill="#85583C"/>
<path d="M324.376 254.736H243.954V323.72H324.376V254.736Z" fill="#FFA15E"/>
<g style="mix-blend-mode:multiply">
<path d="M324.379 244.016H243.954V259.746H324.379V244.016Z" fill="#B2B2B2"/>
</g>
<path d="M328.05 243.215H240.283V258.945H328.05V243.215Z" fill="#FFB47D"/>
<path fill-rule="evenodd" clip-rule="evenodd" d="M270.063 314.368C270.063 314.368 270.063 314.387 270.056 314.368H270.063ZM268.668 317.166H268.886C269.154 317.169 269.414 317.072 269.615 316.894L269.975 316.359C270.053 316.26 270.115 316.151 270.16 316.035C270.182 315.983 270.193 315.928 270.193 315.873C270.193 315.817 270.182 315.762 270.16 315.71L269.661 314.738L269.586 314.595L269.722 314.507L269.956 314.352L267.958 313.972L267.31 315.847L267.537 315.697L267.686 315.597L267.783 315.753L268.668 317.166ZM266.171 317.166H268.25L267.602 316.119L267.313 316.31H267.293H267.274C267.232 316.32 267.189 316.32 267.148 316.31C267.116 316.307 267.086 316.298 267.058 316.283C267.03 316.268 267.005 316.247 266.985 316.223C266.943 316.173 266.92 316.11 266.92 316.044C266.923 315.955 266.941 315.867 266.976 315.785L267.679 313.706L267.731 313.561L267.884 313.59L270.037 313.998C270.287 314.05 270.397 314.147 270.423 314.261C270.432 314.325 270.421 314.39 270.393 314.447C270.364 314.505 270.32 314.553 270.264 314.585L270.073 314.708L270.501 315.529C270.544 315.621 270.569 315.72 270.572 315.822C270.576 315.923 270.56 316.024 270.523 316.119C270.467 316.269 270.387 316.409 270.287 316.534L268.636 319.161C268.562 319.354 268.428 319.518 268.255 319.63C268.081 319.742 267.876 319.796 267.67 319.783H265.776V317.591C265.789 317.247 265.918 317.189 266.165 317.166H266.171Z" fill="#85583C"/>
<path d="M262.186 312.49C262.186 312.49 262.199 312.474 262.186 312.49V312.49ZM265.636 312.26L264.988 313.625L265.312 313.765H265.335C265.367 313.793 265.395 313.827 265.416 313.865C265.439 313.925 265.439 313.991 265.416 314.05C265.394 314.111 265.353 314.163 265.299 314.199C265.223 314.245 265.14 314.276 265.053 314.293L262.922 314.822L262.77 314.858L262.714 314.715L261.894 312.682C261.803 312.442 261.826 312.296 261.894 312.215C261.943 312.176 262.002 312.152 262.064 312.145C262.126 312.139 262.189 312.151 262.244 312.179L262.452 312.273L262.912 311.472C262.967 311.389 263.039 311.318 263.121 311.262C263.204 311.206 263.297 311.168 263.395 311.148C263.552 311.117 263.713 311.109 263.872 311.125H266.771L265.435 311.511L263.853 311.476C263.731 311.458 263.608 311.458 263.486 311.476C263.433 311.486 263.383 311.507 263.339 311.537C263.294 311.567 263.256 311.606 263.227 311.651L262.688 312.588L262.607 312.727L262.461 312.662L262.205 312.546L262.964 314.433L264.887 313.956L264.637 313.846L264.472 313.771L264.55 313.609L265.27 312.079L265.636 312.26Z" fill="#85583C"/>
<path fill-rule="evenodd" clip-rule="evenodd" d="M266.642 314.271L265.176 312.001C265.101 311.878 265.001 311.772 264.883 311.69C264.766 311.607 264.632 311.55 264.492 311.521L265.464 311.197L267.031 311.132C267.225 311.099 267.424 311.126 267.602 311.209C267.78 311.291 267.929 311.426 268.03 311.595L269.051 313.191L267.209 314.374C266.921 314.556 266.791 314.485 266.648 314.284L266.642 314.271Z" fill="#85583C"/>
<path fill-rule="evenodd" clip-rule="evenodd" d="M264.339 320.202C264.339 320.202 264.32 320.195 264.339 320.202V320.202ZM262.637 317.581L262.526 317.77C262.387 317.999 262.339 318.272 262.39 318.535L262.669 319.115C262.713 319.231 262.773 319.34 262.847 319.439C262.916 319.524 263.015 319.579 263.123 319.592L264.203 319.647H264.362V319.809V320.088L265.704 318.557L264.407 317.059V317.332V317.51H264.226L262.637 317.581ZM263.905 315.428L262.847 317.218L264.083 317.183V316.839V316.793C264.092 316.752 264.11 316.712 264.135 316.677C264.154 316.651 264.178 316.63 264.205 316.614C264.232 316.598 264.262 316.587 264.294 316.583C264.358 316.573 264.423 316.586 264.479 316.618C264.555 316.665 264.622 316.726 264.676 316.797L266.11 318.46L266.21 318.577L266.11 318.694L264.663 320.341C264.492 320.532 264.339 320.578 264.242 320.542C264.184 320.516 264.136 320.474 264.102 320.421C264.068 320.368 264.05 320.307 264.051 320.244V320.013L263.126 319.965C263.025 319.956 262.927 319.926 262.838 319.878C262.749 319.831 262.671 319.765 262.607 319.686C262.506 319.563 262.426 319.424 262.371 319.274L260.944 316.518C260.825 316.361 260.758 316.172 260.752 315.976C260.745 315.779 260.8 315.586 260.908 315.422L261.881 313.801L263.768 314.909C264.021 315.062 264.018 315.211 263.905 315.428Z" fill="#85583C"/>
<path d="M270.689 309.258H260.59C260.248 309.265 259.923 309.408 259.685 309.655C259.447 309.901 259.317 310.232 259.322 310.574V321.08C259.322 321.419 259.455 321.745 259.692 321.987C259.929 322.23 260.251 322.37 260.59 322.377H270.689C271.026 322.367 271.346 322.226 271.581 321.984C271.816 321.742 271.947 321.418 271.947 321.08V310.574C271.952 310.233 271.823 309.904 271.588 309.658C271.352 309.412 271.029 309.268 270.689 309.258ZM271.195 320.931C271.197 321.111 271.127 321.285 271.003 321.415C270.878 321.544 270.707 321.62 270.527 321.625H260.752C260.663 321.623 260.575 321.604 260.493 321.568C260.411 321.532 260.337 321.481 260.275 321.416C260.213 321.352 260.164 321.276 260.131 321.193C260.099 321.109 260.083 321.021 260.084 320.931V310.762C260.082 310.672 260.098 310.583 260.13 310.5C260.163 310.416 260.211 310.339 260.273 310.275C260.336 310.21 260.41 310.158 260.492 310.122C260.574 310.086 260.663 310.067 260.752 310.065H270.527C270.707 310.07 270.879 310.146 271.004 310.277C271.129 310.407 271.197 310.581 271.195 310.762V320.931Z" fill="#85583C"/>
<path d="M255.778 320.86H249.201C249.14 320.86 249.081 320.835 249.038 320.792C248.995 320.749 248.971 320.69 248.971 320.629C248.971 320.568 248.995 320.51 249.038 320.467C249.081 320.423 249.14 320.399 249.201 320.399H255.778C255.839 320.399 255.897 320.423 255.941 320.467C255.984 320.51 256.008 320.568 256.008 320.629C256.008 320.69 255.984 320.749 255.941 320.792C255.897 320.835 255.839 320.86 255.778 320.86Z" fill="#85583C"/>
<path fill-rule="evenodd" clip-rule="evenodd" d="M251.481 312.558V319.426H250.09V312.555L249.405 312.552L250.813 310.794L252.21 312.562L251.481 312.558Z" fill="#85583C"/>
<path fill-rule="evenodd" clip-rule="evenodd" d="M254.896 312.562V319.43H253.504V312.559L252.82 312.555L254.228 310.798L255.625 312.565L254.896 312.562Z" fill="#85583C"/>
<path d="M257.542 309.258H247.443C247.101 309.265 246.776 309.408 246.538 309.655C246.301 309.901 246.17 310.232 246.175 310.574V321.08C246.175 321.419 246.308 321.745 246.545 321.987C246.782 322.23 247.104 322.37 247.443 322.377H257.542C257.879 322.367 258.199 322.226 258.434 321.984C258.669 321.742 258.8 321.418 258.8 321.08V310.574C258.805 310.233 258.676 309.904 258.441 309.658C258.205 309.412 257.883 309.268 257.542 309.258ZM258.045 320.931C258.047 321.108 257.981 321.279 257.86 321.409C257.739 321.538 257.573 321.616 257.396 321.625H247.622C247.441 321.622 247.269 321.547 247.143 321.417C247.017 321.287 246.948 321.112 246.95 320.931V310.762C246.949 310.672 246.965 310.583 246.998 310.499C247.03 310.416 247.079 310.339 247.142 310.274C247.204 310.21 247.278 310.158 247.361 310.122C247.443 310.086 247.532 310.067 247.622 310.065H257.396C257.573 310.074 257.74 310.152 257.861 310.282C257.983 310.412 258.048 310.584 258.045 310.762V320.931Z" fill="#85583C"/>
<path d="M292.812 266.069H275.518C274.052 266.069 272.865 267.256 272.865 268.721V270.502C272.865 271.966 274.052 273.154 275.518 273.154H292.812C294.277 273.154 295.465 271.966 295.465 270.502V268.721C295.465 267.256 294.277 266.069 292.812 266.069Z" fill="#85583C"/>
<path d="M236.609 174.23H156.187V243.214H236.609V174.23Z" fill="#FFA15E"/>
<g style="mix-blend-mode:multiply">
<path d="M236.612 163.51H156.187V179.24H236.612V163.51Z" fill="#B2B2B2"/>
</g>
<path d="M240.283 162.709H152.516V178.44H240.283V162.709Z" fill="#FFB47D"/>
<path fill-rule="evenodd" clip-rule="evenodd" d="M182.293 233.863C182.293 233.876 182.296 233.886 182.293 233.853V233.863ZM180.898 236.661H181.112C181.38 236.664 181.64 236.568 181.842 236.392L182.202 235.857C182.28 235.759 182.343 235.65 182.387 235.533C182.409 235.482 182.421 235.427 182.421 235.371C182.421 235.315 182.409 235.26 182.387 235.209L181.887 234.236L181.813 234.093L181.949 234.006L182.186 233.853L180.185 233.474L179.536 235.345L179.763 235.196L179.915 235.098L180.009 235.251L180.898 236.661ZM178.398 236.661H180.476L179.828 235.617L179.543 235.805H179.52H179.5C179.459 235.814 179.416 235.814 179.374 235.805C179.311 235.796 179.254 235.765 179.212 235.718C179.171 235.666 179.149 235.602 179.15 235.536C179.149 235.447 179.167 235.359 179.202 235.277L179.909 233.198L179.958 233.052L180.11 233.081L182.263 233.49C182.516 233.545 182.623 233.639 182.649 233.753C182.658 233.816 182.647 233.881 182.619 233.939C182.591 233.997 182.546 234.045 182.49 234.077L182.299 234.203L182.724 235.024C182.767 235.116 182.792 235.215 182.796 235.316C182.801 235.418 182.785 235.519 182.75 235.614C182.692 235.762 182.613 235.901 182.513 236.026L180.859 238.656C180.784 238.837 180.654 238.99 180.488 239.095C180.322 239.199 180.128 239.25 179.932 239.239H178.038V237.096C178.022 236.746 178.164 236.674 178.398 236.661Z" fill="#85583C"/>
<path d="M174.419 231.985C174.419 231.985 174.432 231.972 174.419 231.985V231.985ZM177.869 231.755L177.221 233.12L177.545 233.26H177.568C177.601 233.287 177.629 233.321 177.649 233.36C177.661 233.389 177.667 233.421 177.667 233.452C177.667 233.484 177.661 233.516 177.649 233.545C177.629 233.607 177.587 233.66 177.532 233.694C177.457 233.741 177.373 233.773 177.285 233.788L175.155 234.317L175.006 234.352L174.947 234.21L174.127 232.176C174.036 231.937 174.059 231.794 174.127 231.71C174.176 231.67 174.235 231.645 174.298 231.639C174.361 231.633 174.424 231.645 174.48 231.674L174.688 231.768L175.148 230.967C175.203 230.883 175.274 230.811 175.357 230.756C175.44 230.7 175.533 230.661 175.632 230.643C175.788 230.609 175.949 230.6 176.108 230.617H179.007L177.671 231.003L176.092 230.97C175.971 230.951 175.847 230.951 175.726 230.97C175.673 230.98 175.623 231.001 175.578 231.031C175.533 231.061 175.495 231.1 175.466 231.145L174.925 232.082L174.847 232.222L174.698 232.157L174.445 232.04L175.203 233.928L177.123 233.451L176.877 233.341L176.711 233.269L176.786 233.104L177.506 231.573L177.869 231.755Z" fill="#85583C"/>
<path fill-rule="evenodd" clip-rule="evenodd" d="M178.874 233.753L177.409 231.467C177.333 231.345 177.234 231.24 177.117 231.157C177 231.075 176.868 231.017 176.728 230.987L177.701 230.662L179.267 230.594C179.461 230.563 179.659 230.59 179.837 230.674C180.015 230.757 180.163 230.892 180.262 231.061L181.287 232.653L179.442 233.837C179.153 234.019 179.024 233.947 178.881 233.746L178.874 233.753Z" fill="#85583C"/>
<path fill-rule="evenodd" clip-rule="evenodd" d="M176.575 239.7C176.575 239.7 176.543 239.69 176.575 239.69V239.7ZM174.873 237.076L174.762 237.264C174.625 237.494 174.577 237.767 174.626 238.03L174.905 238.61C174.947 238.727 175.007 238.836 175.083 238.934C175.151 239.018 175.249 239.073 175.356 239.087L176.436 239.145H176.598V239.307V239.586L177.937 238.056L176.64 236.558V236.83V237.011H176.458L174.873 237.076ZM176.141 234.923L175.087 236.716L176.322 236.677L176.303 236.334V236.292C176.312 236.25 176.33 236.21 176.355 236.175C176.374 236.149 176.397 236.127 176.424 236.11C176.452 236.094 176.482 236.083 176.514 236.078C176.577 236.068 176.643 236.081 176.698 236.113C176.775 236.16 176.842 236.22 176.896 236.292L178.33 237.955L178.43 238.072L178.33 238.189L176.883 239.839C176.711 240.027 176.559 240.073 176.462 240.037C176.404 240.011 176.356 239.969 176.322 239.916C176.288 239.863 176.27 239.801 176.27 239.739V239.512L175.346 239.46C175.245 239.451 175.147 239.422 175.057 239.374C174.968 239.327 174.888 239.262 174.824 239.184C174.725 239.058 174.646 238.918 174.587 238.769L173.16 236.013C173.045 235.854 172.981 235.665 172.975 235.47C172.969 235.274 173.023 235.082 173.128 234.917L174.101 233.295L175.988 234.404C176.257 234.557 176.251 234.706 176.137 234.923H176.141Z" fill="#85583C"/>
<path d="M182.922 228.756H172.823C172.482 228.764 172.158 228.907 171.921 229.153C171.684 229.398 171.554 229.728 171.558 230.069V240.578C171.558 240.917 171.69 241.242 171.927 241.484C172.163 241.726 172.485 241.867 172.823 241.875H182.922C183.26 241.866 183.58 241.725 183.816 241.483C184.052 241.241 184.183 240.916 184.183 240.578V230.069C184.188 229.728 184.058 229.399 183.822 229.154C183.586 228.908 183.262 228.765 182.922 228.756ZM183.428 240.41C183.429 240.59 183.36 240.764 183.236 240.894C183.111 241.025 182.94 241.101 182.76 241.107H172.976C172.795 241.102 172.624 241.026 172.499 240.895C172.374 240.765 172.305 240.59 172.307 240.41V230.241C172.305 230.151 172.321 230.062 172.353 229.978C172.386 229.895 172.435 229.818 172.497 229.753C172.559 229.689 172.633 229.637 172.715 229.601C172.797 229.565 172.886 229.545 172.976 229.544H182.75C182.93 229.549 183.102 229.625 183.227 229.755C183.352 229.886 183.42 230.06 183.418 230.241L183.428 240.41Z" fill="#85583C"/>
<path d="M168.011 240.354H161.434C161.373 240.354 161.314 240.33 161.271 240.287C161.228 240.244 161.204 240.185 161.204 240.124C161.204 240.063 161.228 240.005 161.271 239.961C161.314 239.918 161.373 239.894 161.434 239.894H168.011C168.072 239.894 168.13 239.918 168.173 239.961C168.217 240.005 168.241 240.063 168.241 240.124C168.241 240.185 168.217 240.244 168.173 240.287C168.13 240.33 168.072 240.354 168.011 240.354Z" fill="#85583C"/>
<path fill-rule="evenodd" clip-rule="evenodd" d="M163.714 232.053V238.921H162.322V232.05L161.641 232.047L163.046 230.289L164.443 232.057L163.714 232.053Z" fill="#85583C"/>
<path fill-rule="evenodd" clip-rule="evenodd" d="M167.129 232.057V238.925H165.737V232.053L165.053 232.05L166.46 230.293L167.858 232.06L167.129 232.057Z" fill="#85583C"/>
<path d="M169.775 228.756H159.679C159.338 228.763 159.013 228.906 158.775 229.151C158.538 229.397 158.407 229.727 158.411 230.069V240.578C158.411 240.917 158.544 241.243 158.781 241.485C159.018 241.728 159.341 241.868 159.679 241.875H169.778C170.116 241.866 170.437 241.725 170.672 241.483C170.908 241.241 171.04 240.916 171.04 240.578V230.069C171.044 229.728 170.914 229.399 170.678 229.154C170.442 228.908 170.119 228.765 169.778 228.756H169.775ZM170.281 240.41C170.282 240.59 170.214 240.764 170.089 240.894C169.964 241.025 169.793 241.101 169.613 241.107H159.838C159.658 241.102 159.486 241.026 159.361 240.895C159.236 240.765 159.168 240.59 159.17 240.41V230.241C159.168 230.151 159.184 230.062 159.216 229.978C159.249 229.895 159.297 229.818 159.359 229.753C159.421 229.689 159.496 229.637 159.578 229.601C159.66 229.565 159.749 229.545 159.838 229.544H169.613C169.793 229.549 169.965 229.625 170.09 229.755C170.215 229.886 170.283 230.06 170.281 230.241V240.41Z" fill="#85583C"/>
<path d="M205.045 185.563H187.75C186.285 185.563 185.098 186.751 185.098 188.216V189.996C185.098 191.461 186.285 192.649 187.75 192.649H205.045C206.51 192.649 207.698 191.461 207.698 189.996V188.216C207.698 186.751 206.51 185.563 205.045 185.563Z" fill="#85583C"/>
<path d="M324.376 174.23H243.954V243.214H324.376V174.23Z" fill="#F79156"/>
<g style="mix-blend-mode:multiply">
<path d="M324.379 163.51H243.954V179.24H324.379V163.51Z" fill="#B2B2B2"/>
</g>
<path d="M328.05 162.709H240.283V178.44H328.05V162.709Z" fill="#FFB47D"/>
<path fill-rule="evenodd" clip-rule="evenodd" d="M270.063 233.863C270.056 233.876 270.063 233.886 270.056 233.853L270.063 233.863ZM268.668 236.661H268.886C269.154 236.663 269.413 236.568 269.615 236.392L269.975 235.857C270.053 235.759 270.115 235.649 270.16 235.533C270.182 235.482 270.193 235.426 270.193 235.371C270.193 235.315 270.182 235.26 270.16 235.209L269.661 234.236L269.586 234.093L269.722 234.006L269.956 233.853L267.958 233.474L267.31 235.345L267.537 235.196L267.686 235.098L267.783 235.251L268.668 236.661ZM266.171 236.661H268.25L267.602 235.617L267.313 235.805H267.293H267.274C267.232 235.814 267.189 235.814 267.148 235.805C267.085 235.796 267.027 235.765 266.985 235.718C266.943 235.667 266.92 235.602 266.92 235.536C266.923 235.447 266.941 235.359 266.976 235.277L267.679 233.198L267.731 233.052L267.884 233.081L270.037 233.49C270.287 233.545 270.397 233.639 270.423 233.753C270.432 233.816 270.421 233.881 270.393 233.939C270.364 233.997 270.32 234.045 270.264 234.077L270.073 234.203L270.501 235.024C270.544 235.116 270.569 235.215 270.572 235.317C270.576 235.418 270.56 235.519 270.523 235.614C270.467 235.763 270.387 235.902 270.287 236.026L268.636 238.656C268.56 238.836 268.431 238.989 268.265 239.094C268.099 239.198 267.904 239.249 267.709 239.239H265.815V237.096C265.789 236.746 265.918 236.674 266.165 236.661H266.171Z" fill="#85583C"/>
<path d="M262.186 231.985C262.186 231.985 262.199 231.972 262.186 231.985V231.985ZM265.636 231.755L264.988 233.12L265.312 233.26H265.335C265.367 233.289 265.394 233.323 265.416 233.36C265.439 233.42 265.439 233.485 265.416 233.545C265.395 233.606 265.353 233.659 265.299 233.694C265.224 233.741 265.14 233.773 265.053 233.788L262.922 234.317L262.77 234.352L262.714 234.21L261.894 232.176C261.803 231.937 261.826 231.794 261.894 231.71C261.943 231.671 262.002 231.646 262.064 231.64C262.126 231.634 262.189 231.645 262.244 231.674L262.452 231.768L262.912 230.967C262.967 230.883 263.038 230.811 263.121 230.756C263.204 230.7 263.297 230.661 263.395 230.643C263.552 230.609 263.713 230.6 263.872 230.617H266.771L265.435 231.003L263.853 230.97C263.731 230.951 263.608 230.951 263.486 230.97C263.38 230.992 263.287 231.055 263.227 231.145L262.688 232.082L262.607 232.222L262.461 232.157L262.205 232.04L262.964 233.928L264.887 233.451L264.637 233.341L264.472 233.269L264.55 233.104L265.27 231.573L265.636 231.755Z" fill="#85583C"/>
<path fill-rule="evenodd" clip-rule="evenodd" d="M266.642 233.753L265.176 231.466C265.1 231.344 265.001 231.239 264.883 231.156C264.765 231.074 264.632 231.016 264.492 230.987L265.464 230.662L267.021 230.61C267.215 230.578 267.415 230.605 267.593 230.689C267.771 230.772 267.92 230.908 268.02 231.077L269.041 232.669L267.199 233.853C266.911 234.035 266.781 233.963 266.638 233.762L266.642 233.753Z" fill="#85583C"/>
<path fill-rule="evenodd" clip-rule="evenodd" d="M264.339 239.7C264.339 239.7 264.32 239.69 264.339 239.69V239.7ZM262.637 237.076L262.526 237.264C262.388 237.494 262.339 237.767 262.39 238.03L262.669 238.61C262.713 238.726 262.773 238.835 262.847 238.934C262.916 239.019 263.015 239.074 263.123 239.087L264.203 239.145H264.362V239.307V239.586L265.724 238.069L264.427 236.57V236.843V237.024H264.245L262.637 237.076ZM263.905 234.923L262.847 236.716L264.083 236.677V236.334V236.292C264.091 236.249 264.109 236.209 264.135 236.175C264.154 236.149 264.177 236.127 264.205 236.11C264.232 236.094 264.262 236.083 264.294 236.078C264.358 236.068 264.423 236.081 264.479 236.113C264.555 236.16 264.622 236.22 264.676 236.292L266.11 237.955L266.21 238.072L266.11 238.189L264.663 239.839C264.492 240.027 264.339 240.073 264.242 240.037C264.184 240.011 264.136 239.969 264.102 239.916C264.068 239.863 264.05 239.801 264.051 239.739V239.512L263.126 239.46C263.026 239.451 262.928 239.421 262.839 239.374C262.75 239.327 262.671 239.262 262.607 239.184C262.506 239.06 262.426 238.919 262.371 238.769L260.944 236.013C260.825 235.856 260.758 235.667 260.752 235.47C260.745 235.274 260.8 235.081 260.908 234.917L261.881 233.295L263.768 234.404C264.021 234.557 264.018 234.706 263.905 234.923Z" fill="#85583C"/>
<path d="M270.689 228.756H260.59C260.249 228.763 259.924 228.906 259.686 229.151C259.449 229.397 259.318 229.727 259.322 230.069V240.578C259.322 240.917 259.455 241.243 259.692 241.485C259.929 241.728 260.251 241.868 260.59 241.875H270.689C271.026 241.865 271.346 241.724 271.581 241.482C271.816 241.24 271.947 240.916 271.947 240.578V230.069C271.951 229.729 271.822 229.4 271.587 229.155C271.351 228.909 271.029 228.766 270.689 228.756ZM271.195 240.41C271.197 240.59 271.128 240.764 271.003 240.894C270.878 241.025 270.707 241.101 270.527 241.107H260.752C260.572 241.103 260.4 241.027 260.274 240.896C260.149 240.766 260.081 240.591 260.084 240.41V230.241C260.082 230.151 260.098 230.062 260.13 229.978C260.163 229.895 260.211 229.818 260.273 229.753C260.336 229.689 260.41 229.637 260.492 229.601C260.574 229.565 260.663 229.545 260.752 229.544H270.527C270.707 229.549 270.879 229.625 271.004 229.755C271.129 229.886 271.197 230.06 271.195 230.241V240.41Z" fill="#85583C"/>
<path d="M255.778 240.354H249.201C249.14 240.354 249.081 240.33 249.038 240.287C248.995 240.244 248.971 240.185 248.971 240.124C248.971 240.063 248.995 240.005 249.038 239.961C249.081 239.918 249.14 239.894 249.201 239.894H255.778C255.839 239.894 255.897 239.918 255.941 239.961C255.984 240.005 256.008 240.063 256.008 240.124C256.008 240.185 255.984 240.244 255.941 240.287C255.897 240.33 255.839 240.354 255.778 240.354Z" fill="#85583C"/>
<path fill-rule="evenodd" clip-rule="evenodd" d="M251.481 232.053V238.921H250.09V232.05L249.405 232.047L250.813 230.289L252.21 232.057L251.481 232.053Z" fill="#85583C"/>
<path fill-rule="evenodd" clip-rule="evenodd" d="M254.896 232.057V238.925H253.504V232.053L252.82 232.05L254.228 230.293L255.625 232.06L254.896 232.057Z" fill="#85583C"/>
<path d="M257.542 228.756H247.443C247.102 228.763 246.777 228.906 246.539 229.151C246.302 229.397 246.171 229.727 246.175 230.069V240.578C246.175 240.917 246.308 241.243 246.545 241.485C246.782 241.728 247.104 241.868 247.443 241.875H257.542C257.879 241.865 258.199 241.724 258.434 241.482C258.669 241.24 258.8 240.916 258.8 240.578V230.069C258.805 229.729 258.675 229.4 258.44 229.155C258.204 228.909 257.882 228.766 257.542 228.756ZM258.045 240.41C258.047 240.587 257.981 240.759 257.86 240.889C257.74 241.019 257.573 241.097 257.396 241.107H247.622C247.441 241.103 247.268 241.027 247.143 240.896C247.017 240.766 246.948 240.591 246.95 240.41V230.241C246.949 230.151 246.965 230.062 246.998 229.978C247.03 229.894 247.079 229.818 247.142 229.753C247.204 229.688 247.278 229.637 247.361 229.601C247.443 229.565 247.532 229.545 247.622 229.544H257.396C257.573 229.553 257.74 229.631 257.861 229.761C257.982 229.891 258.048 230.063 258.045 230.241V240.41Z" fill="#85583C"/>
<path d="M292.812 185.563H275.518C274.052 185.563 272.865 186.751 272.865 188.216V189.996C272.865 191.461 274.052 192.649 275.518 192.649H292.812C294.277 192.649 295.465 191.461 295.465 189.996V188.216C295.465 186.751 294.277 185.563 292.812 185.563Z" fill="#85583C"/>
</svg>
