<svg width="116" height="77" viewBox="0 0 116 77" fill="none" xmlns="http://www.w3.org/2000/svg">
<g style="mix-blend-mode:multiply">
<path d="M89.3393 76.0852C104.061 76.0852 115.996 75.5369 115.996 74.8606C115.996 74.1843 104.061 73.6361 89.3393 73.6361C74.6172 73.6361 62.6826 74.1843 62.6826 74.8606C62.6826 75.5369 74.6172 76.0852 89.3393 76.0852Z" fill="#E5E7EB"/>
</g>
<path d="M114.587 73.8466H64.75V74.8606H114.587V73.8466Z" fill="#FFCFA8"/>
<path d="M114.587 68.8598H64.75V69.8739H114.587V68.8598Z" fill="#FFCFA8"/>
<path d="M92.7234 69.8738H86.6138V73.8466H92.7234V69.8738Z" fill="#F09E5B"/>
<path d="M71.3173 69.8738H65.2078V73.8466H71.3173V69.8738Z" fill="#F09E5B"/>
<path d="M114.128 69.8738H108.019V73.8466H114.128V69.8738Z" fill="#F09E5B"/>
<path d="M102.885 31.5909H77.2163V34.3093H102.885V31.5909Z" fill="#F7934F"/>
<path d="M102.884 15.0692H81.3706V32.8313H102.884V15.0692Z" fill="#FFB778"/>
<path d="M94.5433 26.7419H89.7126V32.8313H94.5433V26.7419Z" fill="#FFCFA8"/>
<path d="M94.5433 15.0692H89.7126V21.1586H94.5433V15.0692Z" fill="#FFCFA8"/>
<path fill-rule="evenodd" clip-rule="evenodd" d="M86.1088 30.9795C86.1088 30.9795 86.1088 30.9787 86.1079 30.9795C86.1088 30.9822 86.1097 30.9839 86.1088 30.9795ZM85.8685 31.462H85.9062C85.9579 31.4593 85.9992 31.4462 86.0325 31.4155L86.0948 31.3234C86.1062 31.3076 86.1211 31.2874 86.1281 31.2672C86.1342 31.2506 86.1351 31.2313 86.1272 31.2129L86.0413 31.0471L86.0281 31.0225L86.0518 31.0076L86.0921 30.9813L85.7474 30.9155L85.6378 31.2392L85.6772 31.2137L85.7035 31.1962L85.7202 31.2225L85.8711 31.462H85.8685ZM85.4369 31.462H85.7957L85.6825 31.2813L85.6325 31.3137L85.629 31.3164H85.6255C85.6193 31.3199 85.6114 31.3208 85.6035 31.3199C85.593 31.319 85.5834 31.3137 85.5755 31.305C85.5693 31.2971 85.565 31.2874 85.565 31.2743C85.565 31.2629 85.5667 31.2479 85.5737 31.2295L85.6957 30.8708L85.7044 30.8453L85.7307 30.8506L86.1027 30.9216C86.1456 30.9304 86.1649 30.9471 86.1693 30.9673C86.1746 30.9901 86.1606 31.0076 86.1421 31.0216L86.1404 31.0234L86.1071 31.0444L86.1807 31.1865C86.1974 31.2225 86.1956 31.2576 86.1851 31.2883C86.1755 31.3164 86.1588 31.3409 86.1439 31.3602L85.8588 31.8137C85.8149 31.8918 85.7614 31.9172 85.6983 31.9146H85.3711V31.5365C85.3711 31.4778 85.3939 31.4655 85.4369 31.4637V31.462Z" fill="#6E4125"/>
<path d="M84.7492 30.6558C84.7492 30.6558 84.7492 30.6567 84.7492 30.6576C84.751 30.655 84.7519 30.6541 84.7492 30.6558ZM85.3457 30.6164L85.2352 30.8523L85.2896 30.8769L85.2931 30.8787L85.2957 30.8804C85.301 30.8848 85.3062 30.8909 85.3098 30.8971C85.3141 30.9067 85.3159 30.9172 85.3124 30.9287C85.3098 30.9383 85.3027 30.9471 85.2922 30.9541C85.2826 30.9602 85.2694 30.9664 85.2492 30.9708L84.8808 31.062L84.8545 31.0681L84.8449 31.0436L84.7036 30.6918C84.6878 30.6506 84.6922 30.6251 84.7063 30.6111C84.7229 30.5944 84.7457 30.5971 84.7668 30.605H84.7694L84.8054 30.6225L84.8852 30.4839C84.9063 30.4506 84.937 30.433 84.9685 30.4251C84.9975 30.4181 85.0264 30.419 85.051 30.4208H85.5519L85.3212 30.4874L85.0484 30.4813H85.0466C85.0273 30.4795 85.0036 30.4787 84.9834 30.4839C84.9659 30.4883 84.9492 30.4971 84.9387 30.5137L84.8457 30.676L84.8317 30.6997L84.8063 30.6883L84.7624 30.6681L84.894 30.9936L85.2256 30.9111L85.1826 30.8918L85.1536 30.8787L85.1668 30.8506L85.2913 30.5866L85.3466 30.6129L85.3457 30.6164Z" fill="#6E4125"/>
<path fill-rule="evenodd" clip-rule="evenodd" d="M85.5194 30.9611L85.2659 30.5664C85.2334 30.5208 85.1966 30.4918 85.1475 30.483L85.3141 30.4278L85.5843 30.4164C85.6746 30.4102 85.7246 30.4418 85.7562 30.4971L85.9325 30.7725L85.6141 30.9769C85.5641 31.0085 85.5422 30.9962 85.5176 30.9611H85.5194Z" fill="#6E4125"/>
<path fill-rule="evenodd" clip-rule="evenodd" d="M85.1221 31.9874H85.1229C85.1203 31.9874 85.1186 31.9874 85.1221 31.9874ZM84.8273 31.5348L84.808 31.5672C84.7844 31.6129 84.7747 31.6558 84.7844 31.6997L84.8326 31.7997V31.8014C84.8405 31.8199 84.851 31.8409 84.8642 31.8567C84.8756 31.8707 84.8914 31.8813 84.9115 31.883L85.0984 31.8927L85.1265 31.8944V31.9225L85.13 31.9707L85.3615 31.7067L85.1387 31.4479L85.1414 31.4944L85.1431 31.526H85.1115L84.8282 31.5357L84.8273 31.5348ZM85.0458 31.1629L84.8633 31.4725L85.0765 31.4664L85.0738 31.4067V31.4023V31.3988C85.0756 31.3918 85.0782 31.3848 85.0826 31.3786C85.0887 31.3708 85.0975 31.3637 85.1098 31.362C85.1194 31.3602 85.13 31.362 85.1422 31.3681C85.1519 31.3734 85.1633 31.383 85.1765 31.3988L85.4238 31.6857L85.4414 31.7058L85.4238 31.726L85.1738 32.0111C85.144 32.0436 85.1203 32.0514 85.101 32.0453C85.0782 32.0383 85.0703 32.0164 85.0677 31.9944V31.9918L85.0659 31.9523L84.9063 31.9436C84.8668 31.94 84.8379 31.9207 84.8168 31.8953C84.7975 31.8725 84.7852 31.8462 84.7756 31.8234L84.5291 31.3471C84.4835 31.2699 84.4887 31.2111 84.523 31.1576L84.6887 30.876L85.0151 31.0681C85.0651 31.0979 85.0642 31.1243 85.0449 31.1611L85.0458 31.1629Z" fill="#6E4125"/>
<path d="M86.2176 30.098H84.4738C84.3536 30.098 84.2554 30.2006 84.2554 30.3252V32.14C84.2554 32.2655 84.3545 32.3672 84.4738 32.3672H86.2176C86.3369 32.3672 86.4352 32.2655 86.4352 32.14V30.3252C86.4352 30.2006 86.3369 30.098 86.2176 30.098ZM86.3045 32.1111C86.3045 32.1769 86.2518 32.2313 86.1896 32.2313H84.5019C84.4378 32.2313 84.3861 32.1769 84.3861 32.1111V30.355C84.3861 30.2883 84.4378 30.2348 84.5019 30.2348H86.1896C86.2527 30.2348 86.3045 30.2883 86.3045 30.355V32.1111Z" fill="#6E4125"/>
<path d="M83.6432 32.1014H82.5072C82.4853 32.1014 82.4678 32.0839 82.4678 32.062C82.4678 32.04 82.4853 32.0225 82.5072 32.0225H83.6432C83.6651 32.0225 83.6827 32.04 83.6827 32.062C83.6827 32.0839 83.6651 32.1014 83.6432 32.1014Z" fill="#6E4125"/>
<path fill-rule="evenodd" clip-rule="evenodd" d="M82.9011 30.6681V31.8532H82.6608V30.6673L82.5432 30.6664L82.7853 30.3629L83.0274 30.6681H82.9011Z" fill="#6E4125"/>
<path fill-rule="evenodd" clip-rule="evenodd" d="M83.4907 30.6681V31.8541H83.2504V30.6673H83.1328L83.3758 30.3638L83.617 30.669L83.4907 30.6681Z" fill="#6E4125"/>
<path d="M83.9476 30.098H82.2038C82.0836 30.098 81.9854 30.2006 81.9854 30.3252V32.14C81.9854 32.2655 82.0845 32.3672 82.2038 32.3672H83.9476C84.0669 32.3672 84.1651 32.2655 84.1651 32.14V30.3252C84.1651 30.2006 84.0669 30.098 83.9476 30.098ZM84.0344 32.1111C84.0344 32.1769 83.9818 32.2313 83.9195 32.2313H82.2318C82.1678 32.2313 82.1161 32.1769 82.1161 32.1111V30.355C82.1161 30.2883 82.1678 30.2348 82.2318 30.2348H83.9195C83.9827 30.2348 84.0344 30.2883 84.0344 30.355V32.1111Z" fill="#6E4125"/>
<path d="M88.4886 30.098H86.7448C86.6246 30.098 86.5264 30.2006 86.5264 30.3252V32.14C86.5264 32.2655 86.6255 32.3672 86.7448 32.3672H88.4886C88.6079 32.3672 88.7062 32.2655 88.7062 32.14V30.3252C88.7062 30.2006 88.6079 30.098 88.4886 30.098ZM88.5755 32.1111C88.5755 32.1769 88.5228 32.2313 88.4606 32.2313H86.7729C86.7088 32.2313 86.6571 32.1769 86.6571 32.1111V30.355C86.6571 30.2883 86.7088 30.2348 86.7729 30.2348H88.4606C88.5237 30.2348 88.5755 30.2883 88.5755 30.355V32.1111Z" fill="#6E4125"/>
<path fill-rule="evenodd" clip-rule="evenodd" d="M87.6063 30.6874C87.2343 30.6874 86.9221 30.9462 86.8396 31.2935C86.8677 31.2646 86.9177 31.2462 86.9747 31.2462C87.0589 31.2462 87.1273 31.2874 87.1343 31.34C87.1422 31.2883 87.2106 31.2479 87.2931 31.2479C87.3756 31.2479 87.4457 31.2892 87.4527 31.3418C87.4606 31.29 87.5291 31.2497 87.6115 31.2497C87.694 31.2497 87.7641 31.2909 87.7712 31.3435C87.7791 31.2918 87.8475 31.2514 87.9299 31.2514C88.0124 31.2514 88.0843 31.2935 88.0896 31.347C88.0948 31.2935 88.1641 31.2514 88.2492 31.2514C88.2975 31.2514 88.3413 31.2655 88.3703 31.2874C88.2861 30.9435 87.9755 30.6883 87.6054 30.6883L87.6063 30.6874Z" fill="#6E4125"/>
<path d="M87.6526 30.6471C87.6526 30.6269 87.6359 30.6102 87.6157 30.6102C87.5956 30.6102 87.5789 30.6269 87.5789 30.6471L87.5771 31.9699C87.5771 31.99 87.5938 32.0067 87.614 32.0067C87.6342 32.0067 87.6508 31.99 87.6508 31.9699L87.6526 30.6471Z" fill="#6E4125"/>
<path d="M87.3816 31.8804C87.3956 31.8663 87.3965 31.8435 87.3816 31.8286C87.3675 31.8146 87.3447 31.8137 87.3298 31.8286C87.293 31.8655 87.2737 31.9137 87.2737 31.962C87.2737 32.0102 87.2912 32.0584 87.3281 32.0962C87.3649 32.133 87.4132 32.1523 87.4614 32.1523C87.5096 32.1523 87.5579 32.1348 87.5956 32.0979C87.614 32.0804 87.6281 32.0584 87.6377 32.0356C87.6474 32.0128 87.6526 31.9874 87.6517 31.962C87.6517 31.9418 87.6351 31.926 87.6149 31.926C87.5947 31.926 87.5789 31.9427 87.5789 31.9628C87.5789 31.9786 87.5763 31.9935 87.5702 32.0084C87.564 32.0225 87.5553 32.0356 87.5447 32.047C87.5219 32.069 87.4921 32.0804 87.4623 32.0804C87.4325 32.0804 87.4035 32.0681 87.3807 32.0453C87.3588 32.0225 87.3474 31.9927 87.3474 31.9628C87.3474 31.933 87.3588 31.9041 87.3825 31.8813L87.3816 31.8804Z" fill="#6E4125"/>
<path d="M81.3706 15.0692H77.2163V32.8313H81.3706V15.0692Z" fill="#F59153"/>
<path d="M113.471 49.6408H87.8022V52.3591H113.471V49.6408Z" fill="#F7934F"/>
<path d="M113.47 33.1199H91.9565V50.882H113.47V33.1199Z" fill="#FFB778"/>
<path d="M105.129 44.7917H100.299V50.8811H105.129V44.7917Z" fill="#FFCFA8"/>
<path d="M105.129 33.1199H100.299V39.2093H105.129V33.1199Z" fill="#FFCFA8"/>
<path fill-rule="evenodd" clip-rule="evenodd" d="M96.6955 49.0303C96.6955 49.0303 96.6955 49.0294 96.6946 49.0303C96.6955 49.0329 96.6963 49.0347 96.6955 49.0303ZM96.4551 49.5127H96.4928C96.5446 49.5101 96.5858 49.4969 96.6192 49.4662L96.6814 49.3741C96.6928 49.3583 96.7078 49.3382 96.7148 49.318C96.7209 49.3013 96.7218 49.282 96.7139 49.2636L96.6279 49.0978L96.6157 49.0732L96.6393 49.0583L96.6797 49.032L96.3349 48.9662L96.2253 49.2899L96.2648 49.2645L96.2911 49.2469L96.3078 49.2732L96.4586 49.5127H96.4551ZM96.0236 49.5127H96.3823L96.2692 49.332L96.2192 49.3645L96.2157 49.3671H96.2121C96.206 49.3706 96.1981 49.3715 96.1902 49.3706C96.1797 49.3697 96.17 49.3645 96.1621 49.3557C96.156 49.3478 96.1516 49.3382 96.1516 49.325C96.1516 49.3136 96.1534 49.2987 96.1604 49.2803L96.2823 48.9215L96.2911 48.8961L96.3174 48.9013L96.6893 48.9724C96.7323 48.9811 96.7516 48.9978 96.756 49.018C96.7613 49.0408 96.7472 49.0583 96.7288 49.0724L96.727 49.0741L96.6937 49.0952L96.7674 49.2373C96.7841 49.2732 96.7823 49.3083 96.7718 49.339C96.7621 49.3671 96.7455 49.3917 96.7306 49.411L96.4455 49.8645C96.4016 49.9425 96.3481 49.968 96.285 49.9653H95.9578V49.5873C95.9578 49.5285 95.9806 49.5162 96.0236 49.5145V49.5127Z" fill="#6E4125"/>
<path d="M95.3359 48.7057C95.3359 48.7057 95.3359 48.7066 95.3359 48.7075C95.3377 48.7048 95.3385 48.704 95.3359 48.7057ZM95.9324 48.6662L95.8219 48.9022L95.8763 48.9268L95.8798 48.9285L95.8824 48.9303C95.8877 48.9347 95.8929 48.9408 95.8964 48.9469C95.9008 48.9566 95.9026 48.9671 95.8991 48.9785C95.8964 48.9882 95.8894 48.9969 95.8789 49.004C95.8692 49.0101 95.8561 49.0162 95.8359 49.0206L95.4675 49.1118L95.4412 49.118L95.4315 49.0934L95.2903 48.7417C95.2745 48.7004 95.2789 48.675 95.2929 48.661C95.3096 48.6443 95.3324 48.6469 95.3535 48.6548H95.3561L95.392 48.6724L95.4719 48.5338C95.4929 48.5004 95.5236 48.4829 95.5552 48.475C95.5842 48.468 95.6131 48.4689 95.6377 48.4706H96.1385L95.9078 48.5382L95.635 48.532H95.6333C95.614 48.5303 95.5903 48.5294 95.5701 48.5347C95.5526 48.539 95.5359 48.5478 95.5254 48.5645L95.4324 48.7268L95.4184 48.7504L95.3929 48.739L95.3491 48.7189L95.4806 49.0443L95.8122 48.9618L95.7692 48.9426L95.7403 48.9294L95.7534 48.9013L95.878 48.6373L95.9333 48.6636L95.9324 48.6662Z" fill="#6E4125"/>
<path fill-rule="evenodd" clip-rule="evenodd" d="M96.1061 49.011L95.8525 48.6162C95.8201 48.5706 95.7833 48.5417 95.7341 48.5329L95.9008 48.4776L96.171 48.4662C96.2613 48.4601 96.3113 48.4917 96.3429 48.5469L96.5192 48.8224L96.2008 49.0268C96.1508 49.0583 96.1289 49.0461 96.1043 49.011H96.1061Z" fill="#6E4125"/>
<path fill-rule="evenodd" clip-rule="evenodd" d="M95.7085 50.0373H95.7094C95.7067 50.0373 95.705 50.0373 95.7085 50.0373ZM95.4138 49.5846L95.3945 49.6171C95.3708 49.6627 95.3611 49.7057 95.3708 49.7496L95.419 49.8496V49.8513C95.4269 49.8697 95.4375 49.8908 95.4506 49.9066C95.462 49.9206 95.4778 49.9311 95.498 49.9329L95.6848 49.9425L95.7129 49.9443V49.9724L95.7164 50.0206L95.948 49.7566L95.7252 49.4978L95.7278 49.5443L95.7295 49.5759H95.698L95.4146 49.5855L95.4138 49.5846ZM95.6322 49.2127L95.4497 49.5224L95.6629 49.5162L95.6603 49.4566V49.4522V49.4487C95.662 49.4417 95.6646 49.4347 95.669 49.4285C95.6752 49.4206 95.6839 49.4136 95.6962 49.4118C95.7059 49.4101 95.7164 49.4118 95.7287 49.418C95.7383 49.4232 95.7497 49.4329 95.7629 49.4487L96.0103 49.7355L96.0278 49.7557L96.0103 49.7759L95.7603 50.061C95.7304 50.0934 95.7067 50.1013 95.6874 50.0952C95.6646 50.0882 95.6567 50.0662 95.6541 50.0443V50.0417L95.6524 50.0022L95.4927 49.9934C95.4532 49.9899 95.4243 49.9706 95.4032 49.9452C95.3839 49.9224 95.3717 49.8961 95.362 49.8732L95.1155 49.3969C95.0699 49.3197 95.0752 49.261 95.1094 49.2075L95.2752 48.9259L95.6015 49.118C95.6515 49.1478 95.6506 49.1741 95.6313 49.211L95.6322 49.2127Z" fill="#6E4125"/>
<path d="M96.8041 48.1478H95.0602C94.94 48.1478 94.8418 48.2505 94.8418 48.375V50.1899C94.8418 50.3153 94.9409 50.4171 95.0602 50.4171H96.8041C96.9233 50.4171 97.0216 50.3153 97.0216 50.1899V48.375C97.0216 48.2505 96.9233 48.1478 96.8041 48.1478ZM96.8909 50.161C96.8909 50.2267 96.8383 50.2811 96.776 50.2811H95.0883C95.0243 50.2811 94.9725 50.2267 94.9725 50.161V48.4048C94.9725 48.3382 95.0243 48.2847 95.0883 48.2847H96.776C96.8391 48.2847 96.8909 48.3382 96.8909 48.4048V50.161Z" fill="#6E4125"/>
<path d="M94.2294 50.1513H93.0934C93.0715 50.1513 93.054 50.1338 93.054 50.1118C93.054 50.0899 93.0715 50.0724 93.0934 50.0724H94.2294C94.2513 50.0724 94.2689 50.0899 94.2689 50.1118C94.2689 50.1338 94.2513 50.1513 94.2294 50.1513Z" fill="#6E4125"/>
<path fill-rule="evenodd" clip-rule="evenodd" d="M93.4872 48.718V49.9039H93.2468V48.7171H93.1284L93.3714 48.4136L93.6126 48.7189L93.4872 48.718Z" fill="#6E4125"/>
<path fill-rule="evenodd" clip-rule="evenodd" d="M94.0769 48.7189V49.9048H93.8365V48.718L93.719 48.7171L93.9611 48.4136L94.2032 48.7189H94.0769Z" fill="#6E4125"/>
<path d="M94.5338 48.1478H92.79C92.6698 48.1478 92.5715 48.2504 92.5715 48.375V50.1899C92.5715 50.3153 92.6707 50.4171 92.79 50.4171H94.5338C94.6531 50.4171 94.7513 50.3153 94.7513 50.1899V48.375C94.7513 48.2504 94.6531 48.1478 94.5338 48.1478ZM94.6206 50.1609C94.6206 50.2267 94.568 50.2811 94.5057 50.2811H92.818C92.754 50.2811 92.7022 50.2267 92.7022 50.1609V48.4048C92.7022 48.3381 92.754 48.2846 92.818 48.2846H94.5057C94.5689 48.2846 94.6206 48.3381 94.6206 48.4048V50.1609Z" fill="#6E4125"/>
<path d="M99.075 48.1478H97.3312C97.211 48.1478 97.1128 48.2505 97.1128 48.375V50.1899C97.1128 50.3153 97.2119 50.4171 97.3312 50.4171H99.075C99.1943 50.4171 99.2926 50.3153 99.2926 50.1899V48.375C99.2926 48.2505 99.1943 48.1478 99.075 48.1478ZM99.1619 50.161C99.1619 50.2267 99.1093 50.2811 99.047 50.2811H97.3593C97.2953 50.2811 97.2435 50.2267 97.2435 50.161V48.4048C97.2435 48.3382 97.2953 48.2847 97.3593 48.2847H99.047C99.1101 48.2847 99.1619 48.3382 99.1619 48.4048V50.161Z" fill="#6E4125"/>
<path fill-rule="evenodd" clip-rule="evenodd" d="M98.1917 48.7373C97.8198 48.7373 97.5075 48.9961 97.425 49.3434C97.4531 49.3145 97.5031 49.2961 97.5601 49.2961C97.6443 49.2961 97.7128 49.3373 97.7198 49.3899C97.7277 49.3382 97.7961 49.2978 97.8785 49.2978C97.961 49.2978 98.0312 49.3391 98.0382 49.3917C98.0461 49.3399 98.1145 49.2996 98.197 49.2996C98.2794 49.2996 98.3496 49.3408 98.3566 49.3934C98.3645 49.3417 98.4329 49.3013 98.5154 49.3013C98.5978 49.3013 98.6698 49.3434 98.675 49.3969C98.6803 49.3434 98.7496 49.3013 98.8347 49.3013C98.8829 49.3013 98.9268 49.3154 98.9557 49.3373C98.8715 48.9934 98.561 48.7382 98.1908 48.7382L98.1917 48.7373Z" fill="#6E4125"/>
<path d="M98.2393 48.697C98.2393 48.6768 98.2226 48.6601 98.2024 48.6601C98.1822 48.6601 98.1656 48.6768 98.1656 48.697L98.1638 50.0198C98.1638 50.0399 98.1805 50.0566 98.2007 50.0566C98.2208 50.0566 98.2375 50.0399 98.2375 50.0198L98.2393 48.697Z" fill="#6E4125"/>
<path d="M97.9682 49.9312C97.9823 49.9171 97.9832 49.8934 97.9682 49.8794C97.9542 49.8654 97.9314 49.8645 97.9165 49.8794C97.8797 49.9162 97.8604 49.9645 97.8604 50.0127C97.8604 50.061 97.8779 50.1092 97.9147 50.1469C97.9516 50.1838 97.9998 50.2031 98.0481 50.2031C98.0963 50.2031 98.1446 50.1855 98.1823 50.1487C98.2007 50.1312 98.2147 50.1092 98.2244 50.0864C98.234 50.0636 98.2393 50.0382 98.2384 50.0127C98.2384 49.9926 98.2218 49.9768 98.2016 49.9768C98.1814 49.9768 98.1656 49.9934 98.1656 50.0136C98.1656 50.0294 98.163 50.0443 98.1568 50.0592C98.1507 50.0733 98.1419 50.0864 98.1314 50.0978C98.1086 50.1198 98.0788 50.1312 98.0489 50.1312C98.0191 50.1312 97.9902 50.1189 97.9674 50.0961C97.9454 50.0733 97.934 50.0434 97.934 50.0136C97.934 49.9838 97.9463 49.9548 97.9691 49.932L97.9682 49.9312Z" fill="#6E4125"/>
<path d="M91.9566 33.1199H87.8022V50.882H91.9566V33.1199Z" fill="#F59153"/>
<path d="M113.47 51.0977H91.9565V68.8598H113.47V51.0977Z" fill="#FFB778"/>
<path d="M105.129 62.7704H100.299V68.8598H105.129V62.7704Z" fill="#FFCFA8"/>
<path d="M105.129 51.0977H100.299V57.1872H105.129V51.0977Z" fill="#FFCFA8"/>
<path fill-rule="evenodd" clip-rule="evenodd" d="M96.6955 67.009C96.6955 67.009 96.6955 67.0081 96.6946 67.009C96.6955 67.0116 96.6963 67.0134 96.6955 67.009ZM96.4551 67.4914H96.4928C96.5446 67.4888 96.5858 67.4757 96.6192 67.445L96.6814 67.3529C96.6928 67.3371 96.7078 67.3169 96.7148 67.2967C96.7209 67.28 96.7218 67.2607 96.7139 67.2423L96.6279 67.0765L96.6157 67.052L96.6393 67.0371L96.6797 67.0107L96.3349 66.945L96.2253 67.2686L96.2648 67.2432L96.2911 67.2257L96.3078 67.252L96.4586 67.4914H96.4551ZM96.0236 67.4914H96.3823L96.2692 67.3107L96.2192 67.3432L96.2157 67.3458H96.2121C96.206 67.3493 96.1981 67.3502 96.1902 67.3493C96.1797 67.3485 96.17 67.3432 96.1621 67.3344C96.156 67.3265 96.1516 67.3169 96.1516 67.3037C96.1516 67.2923 96.1534 67.2774 96.1604 67.259L96.2823 66.9002L96.2911 66.8748L96.3174 66.88L96.6893 66.9511C96.7323 66.9599 96.7516 66.9765 96.756 66.9967C96.7613 67.0195 96.7472 67.0371 96.7288 67.0511L96.727 67.0529L96.6937 67.0739L96.7674 67.216C96.7841 67.252 96.7823 67.2871 96.7718 67.3178C96.7621 67.3458 96.7455 67.3704 96.7306 67.3897L96.4455 67.8432C96.4016 67.9213 96.3481 67.9467 96.285 67.9441H95.9578V67.566C95.9578 67.5072 95.9806 67.495 96.0236 67.4932V67.4914Z" fill="#6E4125"/>
<path d="M95.3359 66.6844C95.3359 66.6844 95.3359 66.6853 95.3359 66.6862C95.3377 66.6835 95.3385 66.6827 95.3359 66.6844ZM95.9324 66.6449L95.8219 66.8809L95.8763 66.9055L95.8798 66.9072L95.8824 66.909C95.8877 66.9134 95.8929 66.9195 95.8964 66.9256C95.9008 66.9353 95.9026 66.9458 95.8991 66.9572C95.8964 66.9669 95.8894 66.9756 95.8789 66.9827C95.8692 66.9888 95.8561 66.9949 95.8359 66.9993L95.4675 67.0905L95.4412 67.0967L95.4315 67.0721L95.2903 66.7204C95.2745 66.6791 95.2789 66.6537 95.2929 66.6397C95.3096 66.623 95.3324 66.6256 95.3535 66.6335H95.3561L95.392 66.6511L95.4719 66.5125C95.4929 66.4792 95.5236 66.4616 95.5552 66.4537C95.5842 66.4467 95.6131 66.4476 95.6377 66.4493H96.1385L95.9078 66.5169L95.635 66.5107H95.6333C95.614 66.509 95.5903 66.5081 95.5701 66.5134C95.5526 66.5177 95.5359 66.5265 95.5254 66.5432L95.4324 66.7055L95.4184 66.7291L95.3929 66.7177L95.3491 66.6976L95.4806 67.023L95.8122 66.9405L95.7692 66.9212L95.7403 66.9081L95.7534 66.88L95.878 66.616L95.9333 66.6423L95.9324 66.6449Z" fill="#6E4125"/>
<path fill-rule="evenodd" clip-rule="evenodd" d="M96.1061 66.9897L95.8525 66.595C95.8201 66.5494 95.7833 66.5204 95.7341 66.5116L95.9008 66.4564L96.171 66.445C96.2613 66.4388 96.3113 66.4704 96.3429 66.5257L96.5192 66.8011L96.2008 67.0055C96.1508 67.0371 96.1289 67.0248 96.1043 66.9897H96.1061Z" fill="#6E4125"/>
<path fill-rule="evenodd" clip-rule="evenodd" d="M95.7085 68.016H95.7094C95.7067 68.016 95.705 68.016 95.7085 68.016ZM95.4138 67.5634L95.3945 67.5958C95.3708 67.6414 95.3611 67.6844 95.3708 67.7283L95.419 67.8283V67.83C95.4269 67.8484 95.4375 67.8695 95.4506 67.8853C95.462 67.8993 95.4778 67.9099 95.498 67.9116L95.6848 67.9213L95.7129 67.923V67.9511L95.7164 67.9993L95.948 67.7353L95.7252 67.4765L95.7278 67.523L95.7295 67.5546H95.698L95.4146 67.5642L95.4138 67.5634ZM95.6322 67.1914L95.4497 67.5011L95.6629 67.4949L95.6603 67.4353V67.4309V67.4274C95.662 67.4204 95.6646 67.4134 95.669 67.4072C95.6752 67.3993 95.6839 67.3923 95.6962 67.3906C95.7059 67.3888 95.7164 67.3906 95.7287 67.3967C95.7383 67.402 95.7497 67.4116 95.7629 67.4274L96.0103 67.7142L96.0278 67.7344L96.0103 67.7546L95.7603 68.0397C95.7304 68.0721 95.7067 68.08 95.6874 68.0739C95.6646 68.0669 95.6567 68.0458 95.6541 68.023V68.0204L95.6524 67.9809L95.4927 67.9721C95.4532 67.9686 95.4243 67.9493 95.4032 67.9239C95.3839 67.9011 95.3717 67.8748 95.362 67.852L95.1155 67.3756C95.0699 67.2985 95.0752 67.2388 95.1094 67.1862L95.2752 66.9046L95.6015 67.0967C95.6515 67.1265 95.6506 67.1528 95.6313 67.1897L95.6322 67.1914Z" fill="#6E4125"/>
<path d="M96.8041 66.1265H95.0602C94.94 66.1265 94.8418 66.2292 94.8418 66.3537V68.1686C94.8418 68.294 94.9409 68.3958 95.0602 68.3958H96.8041C96.9233 68.3958 97.0216 68.294 97.0216 68.1686V66.3537C97.0216 66.2292 96.9233 66.1265 96.8041 66.1265ZM96.8909 68.1397C96.8909 68.2054 96.8383 68.2598 96.776 68.2598H95.0883C95.0243 68.2598 94.9725 68.2054 94.9725 68.1397V66.3835C94.9725 66.3169 95.0243 66.2634 95.0883 66.2634H96.776C96.8391 66.2634 96.8909 66.3169 96.8909 66.3835V68.1397Z" fill="#6E4125"/>
<path d="M94.2294 68.13H93.0934C93.0715 68.13 93.054 68.1125 93.054 68.0906C93.054 68.0686 93.0715 68.0511 93.0934 68.0511H94.2294C94.2513 68.0511 94.2689 68.0686 94.2689 68.0906C94.2689 68.1125 94.2513 68.13 94.2294 68.13Z" fill="#6E4125"/>
<path fill-rule="evenodd" clip-rule="evenodd" d="M93.4872 66.6967V67.8827H93.2468V66.6958H93.1284L93.3714 66.3923L93.6126 66.6967H93.4872Z" fill="#6E4125"/>
<path fill-rule="evenodd" clip-rule="evenodd" d="M94.0769 66.6976V67.8835H93.8365V66.6967L93.719 66.6958L93.9611 66.3923L94.2032 66.6976H94.0769Z" fill="#6E4125"/>
<path d="M94.5338 66.1265H92.79C92.6698 66.1265 92.5715 66.2292 92.5715 66.3537V68.1686C92.5715 68.294 92.6707 68.3958 92.79 68.3958H94.5338C94.6531 68.3958 94.7513 68.294 94.7513 68.1686V66.3537C94.7513 66.2292 94.6531 66.1265 94.5338 66.1265ZM94.6206 68.1397C94.6206 68.2054 94.568 68.2598 94.5057 68.2598H92.818C92.754 68.2598 92.7022 68.2054 92.7022 68.1397V66.3835C92.7022 66.3169 92.754 66.2634 92.818 66.2634H94.5057C94.5689 66.2634 94.6206 66.3169 94.6206 66.3835V68.1397Z" fill="#6E4125"/>
<path d="M99.075 66.1265H97.3312C97.211 66.1265 97.1128 66.2292 97.1128 66.3537V68.1686C97.1128 68.294 97.2119 68.3958 97.3312 68.3958H99.075C99.1943 68.3958 99.2926 68.294 99.2926 68.1686V66.3537C99.2926 66.2292 99.1943 66.1265 99.075 66.1265ZM99.1619 68.1397C99.1619 68.2054 99.1093 68.2598 99.047 68.2598H97.3593C97.2953 68.2598 97.2435 68.2054 97.2435 68.1397V66.3835C97.2435 66.3169 97.2953 66.2634 97.3593 66.2634H99.047C99.1101 66.2634 99.1619 66.3169 99.1619 66.3835V68.1397Z" fill="#6E4125"/>
<path fill-rule="evenodd" clip-rule="evenodd" d="M98.1917 66.716C97.8198 66.716 97.5075 66.9748 97.425 67.3221C97.4531 67.2932 97.5031 67.2748 97.5601 67.2748C97.6443 67.2748 97.7128 67.316 97.7198 67.3686C97.7277 67.3169 97.7961 67.2765 97.8785 67.2765C97.961 67.2765 98.0312 67.3177 98.0382 67.3704C98.0461 67.3186 98.1145 67.2783 98.197 67.2783C98.2794 67.2783 98.3496 67.3195 98.3566 67.3721C98.3645 67.3204 98.4329 67.28 98.5154 67.28C98.5978 67.28 98.6698 67.3221 98.675 67.3756C98.6803 67.3221 98.7496 67.28 98.8347 67.28C98.8829 67.28 98.9268 67.2941 98.9557 67.316C98.8715 66.9721 98.561 66.7169 98.1908 66.7169L98.1917 66.716Z" fill="#6E4125"/>
<path d="M98.2393 66.6757C98.2393 66.6555 98.2226 66.6388 98.2024 66.6388C98.1822 66.6388 98.1656 66.6555 98.1656 66.6757L98.1638 67.9985C98.1638 68.0186 98.1805 68.0353 98.2007 68.0353C98.2208 68.0353 98.2375 68.0186 98.2375 67.9985L98.2393 66.6757Z" fill="#6E4125"/>
<path d="M97.9682 67.9098C97.9823 67.8958 97.9832 67.873 97.9682 67.8581C97.9542 67.8441 97.9314 67.8432 97.9165 67.8581C97.8797 67.8949 97.8604 67.9432 97.8604 67.9914C97.8604 68.0397 97.8779 68.0879 97.9147 68.1256C97.9516 68.1625 97.9998 68.1818 98.0481 68.1818C98.0963 68.1818 98.1446 68.1642 98.1823 68.1274C98.2007 68.1098 98.2147 68.0879 98.2244 68.0651C98.234 68.0423 98.2393 68.0169 98.2384 67.9914C98.2384 67.9712 98.2218 67.9555 98.2016 67.9555C98.1814 67.9555 98.1656 67.9721 98.1656 67.9923C98.1656 68.0081 98.163 68.023 98.1568 68.0379C98.1507 68.0519 98.1419 68.0651 98.1314 68.0765C98.1086 68.0984 98.0788 68.1098 98.0489 68.1098C98.0191 68.1098 97.9902 68.0984 97.9674 68.0748C97.9454 68.0519 97.934 68.0221 97.934 67.9923C97.934 67.9625 97.9463 67.9335 97.9691 67.9107L97.9682 67.9098Z" fill="#6E4125"/>
<path d="M91.9566 51.0977H87.8022V68.8598H91.9566V51.0977Z" fill="#F59153"/>
<path d="M91.5181 49.6408H65.8491V52.3591H91.5181V49.6408Z" fill="#F7934F"/>
<path d="M91.5172 33.1199H70.0034V50.882H91.5172V33.1199Z" fill="#FFB778"/>
<path d="M83.1761 44.7917H78.3455V50.8811H83.1761V44.7917Z" fill="#FFCFA8"/>
<path d="M83.1761 33.1199H78.3455V39.2093H83.1761V33.1199Z" fill="#FFCFA8"/>
<path fill-rule="evenodd" clip-rule="evenodd" d="M74.7414 49.0303C74.7414 49.0303 74.7414 49.0294 74.7405 49.0303C74.7414 49.0329 74.7422 49.0347 74.7414 49.0303ZM74.501 49.5127H74.5387C74.5905 49.5101 74.6317 49.4969 74.6651 49.4662L74.7273 49.3741C74.7387 49.3583 74.7537 49.3382 74.7607 49.318C74.7668 49.3013 74.7677 49.282 74.7598 49.2636L74.6738 49.0978L74.6607 49.0732L74.6844 49.0583L74.7247 49.032L74.38 48.9662L74.2703 49.2899L74.3098 49.2645L74.3361 49.2469L74.3528 49.2732L74.5037 49.5127H74.501ZM74.0695 49.5127H74.4282L74.3151 49.332L74.2651 49.3645L74.2616 49.3671H74.258C74.2519 49.3706 74.244 49.3715 74.2361 49.3706C74.2256 49.3697 74.2159 49.3645 74.208 49.3557C74.2019 49.3478 74.1975 49.3382 74.1975 49.325C74.1975 49.3136 74.1993 49.2987 74.2063 49.2803L74.3282 48.9215L74.337 48.8961L74.3633 48.9013L74.7352 48.9724C74.7782 48.9811 74.7975 48.9978 74.8019 49.018C74.8072 49.0408 74.7931 49.0583 74.7747 49.0724L74.7729 49.0741L74.7396 49.0952L74.8133 49.2373C74.83 49.2732 74.8282 49.3083 74.8177 49.339C74.808 49.3671 74.7914 49.3917 74.7765 49.411L74.4914 49.8645C74.4475 49.9425 74.394 49.968 74.3308 49.9653H74.0037V49.5873C74.0037 49.5285 74.0265 49.5162 74.0695 49.5145V49.5127Z" fill="#6E4125"/>
<path d="M73.3825 48.7057C73.3825 48.7057 73.3825 48.7066 73.3825 48.7075C73.3843 48.7048 73.3852 48.704 73.3825 48.7057ZM73.979 48.6662L73.8685 48.9022L73.9229 48.9268L73.9264 48.9285L73.929 48.9303C73.9343 48.9347 73.9396 48.9408 73.9431 48.9469C73.9474 48.9566 73.9492 48.9671 73.9457 48.9785C73.9431 48.9882 73.9369 48.9969 73.9255 49.004C73.9159 49.0101 73.9027 49.0162 73.8825 49.0206L73.5141 49.1118L73.4878 49.118L73.4781 49.0934L73.3369 48.7417C73.3211 48.7004 73.3255 48.675 73.3396 48.661C73.3562 48.6443 73.379 48.6469 73.4001 48.6548H73.4027L73.4387 48.6724L73.5185 48.5338C73.5396 48.5004 73.5703 48.4829 73.6018 48.475C73.6308 48.468 73.6597 48.4689 73.6843 48.4706H74.1852L73.9545 48.5382L73.6817 48.532H73.6799C73.6606 48.5303 73.6369 48.5294 73.6167 48.5347C73.5992 48.539 73.5825 48.5478 73.572 48.5645L73.479 48.7268L73.465 48.7504L73.4396 48.739L73.3957 48.7189L73.5273 49.0443L73.8588 48.9618L73.8159 48.9426L73.7869 48.9294L73.8001 48.9013L73.9246 48.6373L73.9799 48.6636L73.979 48.6662Z" fill="#6E4125"/>
<path fill-rule="evenodd" clip-rule="evenodd" d="M74.1517 49.011L73.8982 48.6162C73.8658 48.5706 73.8289 48.5417 73.7798 48.5329L73.9465 48.4776L74.2166 48.4662C74.307 48.4601 74.357 48.4917 74.3885 48.5469L74.5649 48.8224L74.2464 49.0268C74.1964 49.0583 74.1745 49.0461 74.15 49.011H74.1517Z" fill="#6E4125"/>
<path fill-rule="evenodd" clip-rule="evenodd" d="M73.7545 50.0373H73.7554C73.7528 50.0373 73.751 50.0373 73.7545 50.0373ZM73.4598 49.5846L73.4405 49.6171C73.4168 49.6627 73.4072 49.7057 73.4168 49.7496L73.4651 49.8496V49.8513C73.473 49.8697 73.4835 49.8908 73.4967 49.9066C73.5081 49.9206 73.5238 49.9311 73.544 49.9329L73.7309 49.9425L73.7589 49.9443V49.9724L73.7624 50.0206L73.994 49.7566L73.7712 49.4978L73.7738 49.5443L73.7756 49.5759H73.744L73.4607 49.5855L73.4598 49.5846ZM73.6782 49.2127L73.4958 49.5224L73.7089 49.5162L73.7063 49.4566V49.4522V49.4487C73.7081 49.4417 73.7107 49.4347 73.7151 49.4285C73.7212 49.4206 73.73 49.4136 73.7423 49.4118C73.7519 49.4101 73.7624 49.4118 73.7747 49.418C73.7844 49.4232 73.7958 49.4329 73.8089 49.4487L74.0563 49.7355L74.0738 49.7557L74.0563 49.7759L73.8063 50.061C73.7765 50.0934 73.7528 50.1013 73.7335 50.0952C73.7107 50.0882 73.7028 50.0662 73.7002 50.0443V50.0417L73.6984 50.0022L73.5388 49.9934C73.4993 49.9899 73.4703 49.9706 73.4484 49.9452C73.4291 49.9224 73.4168 49.8961 73.4072 49.8732L73.1607 49.3969C73.1151 49.3197 73.1203 49.261 73.1545 49.2075L73.3203 48.9259L73.6467 49.118C73.6967 49.1478 73.6958 49.1741 73.6765 49.211L73.6782 49.2127Z" fill="#6E4125"/>
<path d="M74.8509 48.1478H73.1071C72.9869 48.1478 72.8887 48.2505 72.8887 48.375V50.1899C72.8887 50.3153 72.9878 50.4171 73.1071 50.4171H74.8509C74.9702 50.4171 75.0685 50.3153 75.0685 50.1899V48.375C75.0685 48.2505 74.9702 48.1478 74.8509 48.1478ZM74.9378 50.161C74.9378 50.2267 74.8851 50.2811 74.8229 50.2811H73.1352C73.0711 50.2811 73.0194 50.2267 73.0194 50.161V48.4048C73.0194 48.3382 73.0711 48.2847 73.1352 48.2847H74.8229C74.886 48.2847 74.9378 48.3382 74.9378 48.4048V50.161Z" fill="#6E4125"/>
<path d="M72.2755 50.1513H71.1396C71.1176 50.1513 71.1001 50.1338 71.1001 50.1118C71.1001 50.0899 71.1176 50.0724 71.1396 50.0724H72.2755C72.2975 50.0724 72.315 50.0899 72.315 50.1118C72.315 50.1338 72.2975 50.1513 72.2755 50.1513Z" fill="#6E4125"/>
<path fill-rule="evenodd" clip-rule="evenodd" d="M71.5332 48.718V49.9039H71.2937V48.7171H71.1753L71.4183 48.4136L71.6595 48.7188L71.5332 48.718Z" fill="#6E4125"/>
<path fill-rule="evenodd" clip-rule="evenodd" d="M72.1237 48.7189V49.9048H71.8833V48.718L71.7649 48.7171L72.0079 48.4136L72.2491 48.7189H72.1237Z" fill="#6E4125"/>
<path d="M72.5807 48.1478H70.8368C70.7167 48.1478 70.6184 48.2504 70.6184 48.375V50.1899C70.6184 50.3153 70.7175 50.4171 70.8368 50.4171H72.5807C72.7 50.4171 72.7982 50.3153 72.7982 50.1899V48.375C72.7982 48.2504 72.7 48.1478 72.5807 48.1478ZM72.6675 50.1609C72.6675 50.2267 72.6149 50.2811 72.5526 50.2811H70.8649C70.8009 50.2811 70.7491 50.2267 70.7491 50.1609V48.4048C70.7491 48.3381 70.8009 48.2846 70.8649 48.2846H72.5526C72.6158 48.2846 72.6675 48.3381 72.6675 48.4048V50.1609Z" fill="#6E4125"/>
<path d="M77.1209 48.1478H75.3771C75.2569 48.1478 75.1587 48.2505 75.1587 48.375V50.1899C75.1587 50.3153 75.2578 50.4171 75.3771 50.4171H77.1209C77.2402 50.4171 77.3385 50.3153 77.3385 50.1899V48.375C77.3385 48.2505 77.2402 48.1478 77.1209 48.1478ZM77.2078 50.161C77.2078 50.2267 77.1552 50.2811 77.0929 50.2811H75.4052C75.3411 50.2811 75.2894 50.2267 75.2894 50.161V48.4048C75.2894 48.3382 75.3411 48.2847 75.4052 48.2847H77.0929C77.156 48.2847 77.2078 48.3382 77.2078 48.4048V50.161Z" fill="#6E4125"/>
<path fill-rule="evenodd" clip-rule="evenodd" d="M76.2386 48.7373C75.8667 48.7373 75.5544 48.9961 75.4719 49.3434C75.5 49.3145 75.55 49.2961 75.607 49.2961C75.6912 49.2961 75.7596 49.3373 75.7667 49.3899C75.7746 49.3382 75.843 49.2978 75.9254 49.2978C76.0079 49.2978 76.0781 49.3391 76.0851 49.3917C76.093 49.3399 76.1614 49.2996 76.2438 49.2996C76.3263 49.2996 76.3965 49.3408 76.4035 49.3934C76.4114 49.3417 76.4798 49.3013 76.5623 49.3013C76.6447 49.3013 76.7166 49.3434 76.7219 49.3969C76.7272 49.3434 76.7965 49.3013 76.8816 49.3013C76.9298 49.3013 76.9737 49.3154 77.0026 49.3373C76.9184 48.9934 76.6079 48.7382 76.2377 48.7382L76.2386 48.7373Z" fill="#6E4125"/>
<path d="M76.2859 48.697C76.2859 48.6768 76.2692 48.6601 76.249 48.6601C76.2289 48.6601 76.2122 48.6768 76.2122 48.697L76.2104 50.0198C76.2104 50.0399 76.2271 50.0566 76.2473 50.0566C76.2675 50.0566 76.2841 50.0399 76.2841 50.0198L76.2859 48.697Z" fill="#6E4125"/>
<path d="M76.0149 49.9312C76.0289 49.9171 76.0298 49.8934 76.0149 49.8794C76.0008 49.8654 75.978 49.8645 75.9631 49.8794C75.9263 49.9162 75.907 49.9645 75.907 50.0127C75.907 50.061 75.9245 50.1092 75.9614 50.1469C75.9982 50.1838 76.0465 50.2031 76.0947 50.2031C76.1429 50.2031 76.1912 50.1855 76.2289 50.1487C76.2473 50.1312 76.2614 50.1092 76.271 50.0864C76.2807 50.0636 76.2859 50.0382 76.285 50.0127C76.285 49.9926 76.2684 49.9768 76.2482 49.9768C76.228 49.9768 76.2122 49.9934 76.2122 50.0136C76.2122 50.0294 76.2096 50.0443 76.2035 50.0592C76.1973 50.0733 76.1886 50.0864 76.178 50.0978C76.1552 50.1198 76.1254 50.1312 76.0956 50.1312C76.0658 50.1312 76.0368 50.1189 76.014 50.0961C75.9921 50.0733 75.9807 50.0434 75.9807 50.0136C75.9807 49.9838 75.9921 49.9548 76.0158 49.932L76.0149 49.9312Z" fill="#6E4125"/>
<path d="M70.0035 33.1199H65.8491V50.882H70.0035V33.1199Z" fill="#F59153"/>
<path d="M91.5172 51.0977H70.0034V68.8598H91.5172V51.0977Z" fill="#FFB778"/>
<path d="M83.1761 62.7704H78.3455V68.8598H83.1761V62.7704Z" fill="#FFCFA8"/>
<path d="M83.1761 51.0977H78.3455V57.1872H83.1761V51.0977Z" fill="#FFCFA8"/>
<path fill-rule="evenodd" clip-rule="evenodd" d="M74.7414 67.009C74.7414 67.009 74.7414 67.0081 74.7405 67.009C74.7414 67.0116 74.7422 67.0134 74.7414 67.009ZM74.501 67.4914H74.5387C74.5905 67.4888 74.6317 67.4757 74.6651 67.445L74.7273 67.3529C74.7387 67.3371 74.7537 67.3169 74.7607 67.2967C74.7668 67.28 74.7677 67.2607 74.7598 67.2423L74.6738 67.0765L74.6607 67.052L74.6844 67.0371L74.7247 67.0107L74.38 66.945L74.2703 67.2686L74.3098 67.2432L74.3361 67.2257L74.3528 67.252L74.5037 67.4914H74.501ZM74.0695 67.4914H74.4282L74.3151 67.3107L74.2651 67.3432L74.2616 67.3458H74.258C74.2519 67.3493 74.244 67.3502 74.2361 67.3493C74.2256 67.3485 74.2159 67.3432 74.208 67.3344C74.2019 67.3265 74.1975 67.3169 74.1975 67.3037C74.1975 67.2923 74.1993 67.2774 74.2063 67.259L74.3282 66.9002L74.337 66.8748L74.3633 66.88L74.7352 66.9511C74.7782 66.9599 74.7975 66.9765 74.8019 66.9967C74.8072 67.0195 74.7931 67.0371 74.7747 67.0511L74.7729 67.0529L74.7396 67.0739L74.8133 67.216C74.83 67.252 74.8282 67.2871 74.8177 67.3178C74.808 67.3458 74.7914 67.3704 74.7765 67.3897L74.4914 67.8432C74.4475 67.9213 74.394 67.9467 74.3308 67.9441H74.0037V67.566C74.0037 67.5072 74.0265 67.495 74.0695 67.4932V67.4914Z" fill="#6E4125"/>
<path d="M73.3825 66.6844C73.3825 66.6844 73.3825 66.6853 73.3825 66.6862C73.3843 66.6835 73.3852 66.6827 73.3825 66.6844ZM73.979 66.6449L73.8685 66.8809L73.9229 66.9055L73.9264 66.9072L73.929 66.909C73.9343 66.9134 73.9396 66.9195 73.9431 66.9256C73.9474 66.9353 73.9492 66.9458 73.9457 66.9572C73.9431 66.9669 73.9369 66.9756 73.9255 66.9827C73.9159 66.9888 73.9027 66.9949 73.8825 66.9993L73.5141 67.0905L73.4878 67.0967L73.4781 67.0721L73.3369 66.7204C73.3211 66.6791 73.3255 66.6537 73.3396 66.6397C73.3562 66.623 73.379 66.6256 73.4001 66.6335H73.4027L73.4387 66.6511L73.5185 66.5125C73.5396 66.4792 73.5703 66.4616 73.6018 66.4537C73.6308 66.4467 73.6597 66.4476 73.6843 66.4493H74.1852L73.9545 66.5169L73.6817 66.5107H73.6799C73.6606 66.509 73.6369 66.5081 73.6167 66.5134C73.5992 66.5177 73.5825 66.5265 73.572 66.5432L73.479 66.7055L73.465 66.7291L73.4396 66.7177L73.3957 66.6976L73.5273 67.023L73.8588 66.9405L73.8159 66.9212L73.7869 66.9081L73.8001 66.88L73.9246 66.616L73.9799 66.6423L73.979 66.6449Z" fill="#6E4125"/>
<path fill-rule="evenodd" clip-rule="evenodd" d="M74.1517 66.9897L73.8982 66.595C73.8658 66.5494 73.8289 66.5204 73.7798 66.5116L73.9465 66.4564L74.2166 66.445C74.307 66.4388 74.357 66.4704 74.3885 66.5257L74.5649 66.8011L74.2464 67.0055C74.1964 67.0371 74.1745 67.0248 74.15 66.9897H74.1517Z" fill="#6E4125"/>
<path fill-rule="evenodd" clip-rule="evenodd" d="M73.7545 68.016H73.7554C73.7528 68.016 73.751 68.016 73.7545 68.016ZM73.4598 67.5634L73.4405 67.5958C73.4168 67.6414 73.4072 67.6844 73.4168 67.7283L73.4651 67.8283V67.83C73.473 67.8484 73.4835 67.8695 73.4967 67.8853C73.5081 67.8993 73.5238 67.9099 73.544 67.9116L73.7309 67.9213L73.7589 67.923V67.9511L73.7624 67.9993L73.994 67.7353L73.7712 67.4765L73.7738 67.523L73.7756 67.5546H73.744L73.4607 67.5642L73.4598 67.5634ZM73.6782 67.1914L73.4958 67.5011L73.7089 67.4949L73.7063 67.4353V67.4309V67.4274C73.7081 67.4204 73.7107 67.4134 73.7151 67.4072C73.7212 67.3993 73.73 67.3923 73.7423 67.3906C73.7519 67.3888 73.7624 67.3906 73.7747 67.3967C73.7844 67.402 73.7958 67.4116 73.8089 67.4274L74.0563 67.7142L74.0738 67.7344L74.0563 67.7546L73.8063 68.0397C73.7765 68.0721 73.7528 68.08 73.7335 68.0739C73.7107 68.0669 73.7028 68.0458 73.7002 68.023V68.0204L73.6984 67.9809L73.5388 67.9721C73.4993 67.9686 73.4703 67.9493 73.4484 67.9239C73.4291 67.9011 73.4168 67.8748 73.4072 67.852L73.1607 67.3756C73.1151 67.2985 73.1203 67.2388 73.1545 67.1862L73.3203 66.9046L73.6467 67.0967C73.6967 67.1265 73.6958 67.1528 73.6765 67.1897L73.6782 67.1914Z" fill="#6E4125"/>
<path d="M74.8509 66.1265H73.1071C72.9869 66.1265 72.8887 66.2292 72.8887 66.3537V68.1686C72.8887 68.294 72.9878 68.3958 73.1071 68.3958H74.8509C74.9702 68.3958 75.0685 68.294 75.0685 68.1686V66.3537C75.0685 66.2292 74.9702 66.1265 74.8509 66.1265ZM74.9378 68.1397C74.9378 68.2054 74.8851 68.2598 74.8229 68.2598H73.1352C73.0711 68.2598 73.0194 68.2054 73.0194 68.1397V66.3835C73.0194 66.3169 73.0711 66.2634 73.1352 66.2634H74.8229C74.886 66.2634 74.9378 66.3169 74.9378 66.3835V68.1397Z" fill="#6E4125"/>
<path d="M72.2755 68.13H71.1396C71.1176 68.13 71.1001 68.1125 71.1001 68.0906C71.1001 68.0686 71.1176 68.0511 71.1396 68.0511H72.2755C72.2975 68.0511 72.315 68.0686 72.315 68.0906C72.315 68.1125 72.2975 68.13 72.2755 68.13Z" fill="#6E4125"/>
<path fill-rule="evenodd" clip-rule="evenodd" d="M71.5332 66.6967V67.8827H71.2937V66.6958H71.1753L71.4183 66.3923L71.6595 66.6967H71.5332Z" fill="#6E4125"/>
<path fill-rule="evenodd" clip-rule="evenodd" d="M72.1237 66.6976V67.8835H71.8833V66.6967L71.7649 66.6958L72.0079 66.3923L72.2491 66.6976H72.1237Z" fill="#6E4125"/>
<path d="M72.5807 66.1265H70.8368C70.7167 66.1265 70.6184 66.2292 70.6184 66.3537V68.1686C70.6184 68.294 70.7175 68.3958 70.8368 68.3958H72.5807C72.7 68.3958 72.7982 68.294 72.7982 68.1686V66.3537C72.7982 66.2292 72.7 66.1265 72.5807 66.1265ZM72.6675 68.1397C72.6675 68.2054 72.6149 68.2598 72.5526 68.2598H70.8649C70.8009 68.2598 70.7491 68.2054 70.7491 68.1397V66.3835C70.7491 66.3169 70.8009 66.2634 70.8649 66.2634H72.5526C72.6158 66.2634 72.6675 66.3169 72.6675 66.3835V68.1397Z" fill="#6E4125"/>
<path d="M77.1209 66.1265H75.3771C75.2569 66.1265 75.1587 66.2292 75.1587 66.3537V68.1686C75.1587 68.294 75.2578 68.3958 75.3771 68.3958H77.1209C77.2402 68.3958 77.3385 68.294 77.3385 68.1686V66.3537C77.3385 66.2292 77.2402 66.1265 77.1209 66.1265ZM77.2078 68.1397C77.2078 68.2054 77.1552 68.2598 77.0929 68.2598H75.4052C75.3411 68.2598 75.2894 68.2054 75.2894 68.1397V66.3835C75.2894 66.3169 75.3411 66.2634 75.4052 66.2634H77.0929C77.156 66.2634 77.2078 66.3169 77.2078 66.3835V68.1397Z" fill="#6E4125"/>
<path fill-rule="evenodd" clip-rule="evenodd" d="M76.2386 66.716C75.8667 66.716 75.5544 66.9748 75.4719 67.3221C75.5 67.2932 75.55 67.2748 75.607 67.2748C75.6912 67.2748 75.7596 67.316 75.7667 67.3686C75.7746 67.3169 75.843 67.2765 75.9254 67.2765C76.0079 67.2765 76.0781 67.3177 76.0851 67.3704C76.093 67.3186 76.1614 67.2783 76.2438 67.2783C76.3263 67.2783 76.3965 67.3195 76.4035 67.3721C76.4114 67.3204 76.4798 67.28 76.5623 67.28C76.6447 67.28 76.7166 67.3221 76.7219 67.3756C76.7272 67.3221 76.7965 67.28 76.8816 67.28C76.9298 67.28 76.9737 67.2941 77.0026 67.316C76.9184 66.9721 76.6079 66.7169 76.2377 66.7169L76.2386 66.716Z" fill="#6E4125"/>
<path d="M76.2859 66.6757C76.2859 66.6555 76.2692 66.6388 76.249 66.6388C76.2289 66.6388 76.2122 66.6555 76.2122 66.6757L76.2104 67.9985C76.2104 68.0186 76.2271 68.0353 76.2473 68.0353C76.2675 68.0353 76.2841 68.0186 76.2841 67.9985L76.2859 66.6757Z" fill="#6E4125"/>
<path d="M76.0149 67.9098C76.0289 67.8958 76.0298 67.873 76.0149 67.8581C76.0008 67.8441 75.978 67.8432 75.9631 67.8581C75.9263 67.8949 75.907 67.9432 75.907 67.9914C75.907 68.0397 75.9245 68.0879 75.9614 68.1256C75.9982 68.1625 76.0465 68.1818 76.0947 68.1818C76.1429 68.1818 76.1912 68.1642 76.2289 68.1274C76.2473 68.1098 76.2614 68.0879 76.271 68.0651C76.2807 68.0423 76.2859 68.0169 76.285 67.9914C76.285 67.9712 76.2684 67.9555 76.2482 67.9555C76.228 67.9555 76.2122 67.9721 76.2122 67.9923C76.2122 68.0081 76.2096 68.023 76.2035 68.0379C76.1973 68.0519 76.1886 68.0651 76.178 68.0765C76.1552 68.0984 76.1254 68.1098 76.0956 68.1098C76.0658 68.1098 76.0368 68.0984 76.014 68.0748C75.9921 68.0519 75.9807 68.0221 75.9807 67.9923C75.9807 67.9625 75.9921 67.9335 76.0158 67.9107L76.0149 67.9098Z" fill="#6E4125"/>
<path d="M70.0035 51.0977H65.8491V68.8598H70.0035V51.0977Z" fill="#F59153"/>
<g style="mix-blend-mode:multiply">
<path d="M21.3471 75.8431C33.1368 75.8431 42.6942 75.2948 42.6942 74.6185C42.6942 73.9422 33.1368 73.394 21.3471 73.394C9.55743 73.394 0 73.9422 0 74.6185C0 75.2948 9.55743 75.8431 21.3471 75.8431Z" fill="#E5E7EB"/>
</g>
<path d="M18.3059 15.607L19.0164 16.7359L19.7357 17.8683C20.2181 18.621 20.6988 19.3762 21.1866 20.1236C21.6725 20.8718 22.1664 21.6139 22.6593 22.3507C23.1532 23.0858 23.6532 23.8148 24.1593 24.5104C24.2856 24.684 24.412 24.8551 24.5383 25.0218C24.6646 25.1884 24.79 25.3507 24.9128 25.5016C25.0339 25.6516 25.1567 25.7954 25.2444 25.8928C25.2681 25.92 25.2812 25.934 25.2962 25.9525C25.2962 25.9542 25.2848 25.9481 25.2839 25.9498C25.2874 25.9533 25.2865 25.956 25.2926 25.9621C25.3155 25.9867 25.3742 26.0305 25.44 26.0744C25.5049 26.1191 25.5812 26.1665 25.6619 26.2147C25.7418 26.263 25.8286 26.3112 25.9154 26.3603C26.0909 26.4577 26.276 26.5542 26.4654 26.6507C26.8444 26.8428 27.2374 27.0296 27.6356 27.2138C28.433 27.5814 29.2479 27.9445 30.0689 28.2954L31.304 28.8217L32.5399 29.3384L32.5557 29.3445C33.1759 29.6042 33.468 30.3164 33.2092 30.9366C32.9759 31.4954 32.3733 31.7875 31.8031 31.6506L31.1329 31.4901L30.468 31.3243C30.025 31.2129 29.5829 31.0998 29.1408 30.9805C28.6987 30.862 28.2575 30.741 27.8154 30.6156C27.3733 30.4901 26.9303 30.3621 26.4865 30.2235C26.0426 30.0857 25.597 29.9419 25.1444 29.784C24.9181 29.705 24.69 29.6217 24.4558 29.5305C24.3383 29.484 24.2207 29.4375 24.0988 29.3849C23.9769 29.3331 23.8532 29.2779 23.7207 29.2138C23.5883 29.1498 23.4514 29.0805 23.2865 28.9805C23.2453 28.9559 23.1988 28.9252 23.1558 28.8972C23.1093 28.8656 23.0541 28.8252 23.0093 28.7928C22.9383 28.7384 22.8637 28.6814 22.805 28.6322C22.5567 28.4287 22.3637 28.2507 22.176 28.0726C21.9892 27.8954 21.8155 27.7217 21.6444 27.548C21.4743 27.3752 21.3076 27.2024 21.1453 27.0305C20.4953 26.3419 19.8804 25.6533 19.2725 24.9604C18.6647 24.2691 18.0743 23.5692 17.4848 22.87C16.898 22.1692 16.3138 21.4683 15.7384 20.7613L14.877 19.6981L14.4489 19.1639L14.02 18.6227C13.1191 17.4868 13.3103 15.8359 14.4472 14.935C15.5831 14.0342 17.234 14.2254 18.1348 15.3622C18.1936 15.4368 18.248 15.5131 18.2971 15.5912L18.3059 15.6052V15.607Z" fill="#FECDAC"/>
<path d="M38.9409 31.9287C38.2733 31.6006 37.0979 31.319 35.9944 30.4927C35.826 30.3664 35.655 30.077 35.7778 30.0243C36.0199 29.9191 36.3076 29.9998 36.5664 29.9515C36.9409 29.8822 37.6172 29.4901 37.5523 29.0507C37.5163 28.8086 37.3356 28.834 37.1093 28.9156C36.0655 29.2928 35.733 29.0191 34.9725 29.0103C34.5997 29.0059 34.7295 29.1173 33.7181 29.2805C33.5287 29.3112 33.2927 29.4085 33.1067 29.3761C33.0041 29.3585 32.3717 29.2682 32.1515 29.1892C31.6006 30.1726 31.5945 31.6024 31.5945 31.6024C31.9585 31.7208 32.1708 31.6515 32.4787 31.9699C32.7252 32.2252 32.7445 32.3225 33.0243 32.5445C33.4103 32.8497 34.1936 33.3927 35.1602 33.6883C35.6523 33.8392 35.9427 33.3085 35.4532 33.1164C35.3392 33.0717 35.2383 33.0269 35.1567 32.9717C35.2322 33.0094 35.4225 33.0831 36.3567 33.3734C36.7234 33.4874 37.1093 32.9734 36.6155 32.7848C36.3567 32.6866 36.1576 32.5804 35.9567 32.4568C36.1164 32.5611 36.8286 32.8462 37.4339 33.0181C37.919 33.1567 38.2891 32.5322 37.8725 32.3725C37.462 32.2155 37.0839 32.0454 36.6664 31.7866C36.6664 31.7866 36.6663 31.7857 36.6681 31.7848C36.8479 31.8971 37.726 32.3182 38.5479 32.5831C38.9207 32.7032 39.4154 32.1611 38.94 31.9278L38.9409 31.9287Z" fill="#FECDAC"/>
<path d="M6.86599 65.2657L5.21558 67.4599L7.76094 69.3745L9.41136 67.1803L6.86599 65.2657Z" fill="white"/>
<path d="M12.1368 74.4957C11.9377 74.6045 11.6727 74.6299 11.4263 74.6141C11.1271 74.5931 8.89734 73.008 7.57631 72.2615C7.13596 72.0115 6.82807 71.9422 6.77719 71.8519C6.70088 71.7159 6.55527 71.3159 6.20264 71.108C5.84738 70.8993 5.48861 70.9817 5.48861 70.9817C5.48861 70.9817 2.90443 69.4466 2.9211 68.8098C2.92899 68.5449 2.74742 68.5642 3.06145 68.2203C3.15092 68.1221 3.24741 68.0247 3.3439 67.9326C3.9553 67.3563 5.10265 66.1976 5.7237 66.537C5.94036 66.6537 6.41492 67.9089 7.44034 68.073C8.04297 68.1695 8.28156 67.8133 9.00787 67.7993C9.80172 67.7879 9.7254 68.3572 9.72102 69.2291C9.72102 69.2817 9.72102 69.3352 9.72102 69.3905C9.72277 69.6326 9.73418 69.8958 9.77189 70.1738C9.77891 70.2256 9.78681 70.2782 9.79645 70.3317C9.83242 70.5422 9.88593 70.7607 9.96224 70.9843C9.96487 70.9922 9.96838 71.001 9.97101 71.008C9.98856 71.058 10.0087 71.1072 10.0324 71.1563C10.1245 71.3545 10.257 71.5484 10.4122 71.7378C10.4464 71.78 10.4815 71.8212 10.5175 71.8624C10.9105 72.3098 11.4149 72.7282 11.8087 73.1054C12.2368 73.5159 12.535 73.8799 12.4192 74.1808C12.364 74.3255 12.2631 74.4264 12.1368 74.4948V74.4957Z" fill="#2D3A64"/>
<path d="M12.1366 74.4957C11.9191 74.7176 11.2972 75.2834 10.691 74.865C8.74105 73.5185 6.83054 72.2782 5.2674 71.1247C5.2674 71.1247 2.56656 69.401 2.6034 69.0879C2.64287 68.7493 2.90603 68.3484 3.34374 67.9326C3.50953 68.0028 3.67356 68.1151 3.82268 68.2651C4.48671 68.9326 5.14547 69.5984 5.85424 70.2194C7.25598 71.4484 8.76824 72.5519 10.3673 73.5124C10.9463 73.8597 11.5366 74.1878 12.1375 74.4948L12.1366 74.4957Z" fill="#1A223B"/>
<path d="M19.6031 52.9627C18.5681 55.2188 14.312 62.5362 10.462 68.8581C8.64011 68.2098 6.99189 67.6458 5.22437 66.4064C5.35507 66.1107 5.49191 65.8099 5.63576 65.5046C8.32696 59.7468 12.7059 52.2153 12.9857 51.1697C13.469 49.3618 12.7673 38.4242 12.9488 35.3506C17.2207 34.1857 21.0259 35.7611 23.7013 35.0032C22.754 40.9663 21.3172 49.2285 19.604 52.9635L19.6031 52.9627Z" fill="#1E4795"/>
<path d="M22.7461 8.73775C22.725 9.05879 22.7338 9.41054 22.7513 9.62107C22.7592 9.71054 22.768 9.7737 22.7777 9.80001C22.8821 10.093 23.0347 10.5737 22.9557 10.7702C22.8926 10.9254 22.7917 11.0386 22.6619 11.1219C22.2136 11.4123 21.4452 11.3535 20.9189 11.5649C20.4558 11.7526 19.9531 12.2035 20.1391 13.4377C20.2259 14.0105 20.3514 15.571 20.4479 16.3736C20.261 16.3289 18.7575 16.5341 18.5654 16.4052C11.9436 16.3736 13.9058 15.1868 13.9085 15.1824C14.1857 14.6008 15.9356 11.0377 15.8646 10.4316C15.8628 10.4228 15.8611 10.414 15.8602 10.4053C15.6672 9.03774 14.176 8.23687 13.6488 6.9597C13.1339 5.71498 13.6804 4.20622 14.7023 3.32816C15.7251 2.4501 17.1207 2.12028 18.4672 2.10011C19.2146 2.0887 19.9865 2.17116 20.64 2.53168C21.3522 2.92554 21.7189 3.60711 21.9531 4.34394C21.997 4.48253 22.0364 4.62201 22.0724 4.76236C22.2119 5.30709 22.1671 5.47463 22.2373 6.00532C22.3391 6.78163 23.2856 7.25355 23.3513 7.60355C23.4426 8.07986 22.8619 8.08688 22.8233 8.21319C22.7821 8.3474 22.7575 8.53687 22.7452 8.73775H22.7461Z" fill="#F3AE84"/>
<path d="M21.296 6.52724C21.3197 6.65268 21.4417 6.73513 21.5671 6.71145C21.6925 6.68777 21.775 6.56584 21.7513 6.4404C21.7276 6.31496 21.6057 6.23251 21.4803 6.25619C21.3548 6.27988 21.2724 6.4018 21.296 6.52724Z" fill="#5A392A"/>
<path d="M20.6223 5.8097C20.4293 5.93952 20.2495 6.37987 20.296 6.39215C20.296 6.39215 20.6065 6.12549 20.9995 6.01672C21.2337 5.9518 21.4767 5.92461 21.7161 5.88602C21.8223 5.86935 21.9486 5.84566 22.0126 5.7483C22.0626 5.67286 22.0661 5.56497 21.9793 5.52111C21.8425 5.45181 20.9214 5.60795 20.6223 5.8097V5.8097Z" fill="#294E95"/>
<g style="mix-blend-mode:multiply">
<path d="M18.2354 9.38861C18.5196 10.0842 19.1328 10.5912 19.7687 10.9912C20.131 11.2184 20.5152 11.4237 20.9178 11.5658C21.4433 11.3544 22.2125 11.4131 22.6608 11.1228C22.559 11.1219 22.388 11.1719 22.3125 11.1763C22.1757 11.186 22.0389 11.1877 21.9011 11.1842C21.3476 11.1684 20.7985 11.0474 20.2854 10.8395C19.5029 10.5228 18.8064 10.0097 18.2336 9.38949L18.2354 9.38861Z" fill="#F2E9E6"/>
</g>
<path d="M20.1653 4.02463C19.796 3.97376 19.4021 3.92639 19.0636 4.0834C18.532 4.32989 18.3302 4.98778 18.3215 5.57374C18.3127 6.15969 18.4372 6.7553 18.3039 7.32547C18.2846 7.40792 18.2451 7.50354 18.1618 7.51845C18.0636 7.53599 17.9916 7.43161 17.9495 7.34126C17.8013 7.01582 17.6829 6.66232 17.4267 6.41408C17.1697 6.16583 16.7127 6.07461 16.468 6.33513C16.2504 6.56583 16.3074 6.94565 16.4592 7.22372C16.611 7.50178 16.8408 7.73687 16.9583 8.0316C17.132 8.46931 17.025 8.97808 16.789 9.38509C16.5531 9.79211 16.2022 10.1184 15.8566 10.4377C15.1996 9.54913 13.8733 8.20704 13.5443 7.11582C13.225 6.05794 13.3768 5.50619 13.5961 4.42287C13.6873 3.972 13.9303 3.47289 14.3829 3.38955C14.2092 2.93079 14.4338 2.39395 14.8057 2.07378C15.1776 1.75361 15.668 1.60975 16.1487 1.50887C17.3452 1.258 18.6118 1.22905 19.7741 1.60975C20.3372 1.79396 20.6565 2.29746 21.1776 2.57904C21.4688 2.73693 21.6293 2.6764 21.8574 2.91763C22.0854 3.15798 22.2012 3.49832 22.1486 3.82551C22.0749 4.28077 22.096 4.44393 21.7083 4.2913C21.2328 4.10358 20.6697 4.09393 20.1653 4.02463V4.02463Z" fill="#294E95"/>
<path d="M22.7513 9.62193C22.6995 9.60439 21.6583 9.23509 21.3469 8.53247C21.7294 8.72984 22.4785 8.74299 22.746 8.73773C22.7434 8.7737 22.7416 8.81054 22.7399 8.84738C22.7294 9.07545 22.7329 9.30878 22.7425 9.4886C22.7452 9.53772 22.7478 9.58158 22.7513 9.62193Z" fill="#ED9D6D"/>
<path d="M22.7426 9.48861C22.6268 9.45001 21.9672 9.20966 21.5566 8.66318C21.9321 8.85616 22.4917 8.85528 22.74 8.84826C22.7294 9.07633 22.7329 9.30966 22.7426 9.48948V9.48861Z" fill="white"/>
<path d="M17.8549 0.722034L17.376 0.745718C17.269 0.750981 17.1769 0.667649 17.1716 0.56151C17.1664 0.454494 17.2497 0.363267 17.3558 0.357126L17.8357 0.333442C17.9427 0.328179 18.0339 0.411512 18.04 0.517651C18.0453 0.624667 17.962 0.715894 17.8558 0.722034H17.8549Z" fill="#41396B"/>
<path d="M22.9698 5.04041C22.5084 2.73342 20.1979 0.393102 17.7374 0.515908C15.1945 0.642222 13.2296 3.23517 13.1121 5.68514C13.1121 5.68514 22.8962 5.05708 22.9698 5.04041Z" fill="#FC5126"/>
<path d="M22.3697 3.52639C23.1627 3.45622 26.4863 3.42552 26.0004 4.11323C25.7416 4.47901 25.167 4.90357 24.5618 5.02637C23.6802 5.2062 19.082 5.29918 19.082 5.29918C19.082 5.29918 21.9741 4.71147 22.3697 3.52639V3.52639Z" fill="#173E8A"/>
<path d="M23.1129 34.0909C23.1752 34.7471 23.7577 35.4137 23.691 35.6146C21.5752 36.3497 14.9358 36.7128 13.2297 36.5418C12.949 36.0699 12.7096 32.3988 12.8034 31.4997C13.299 26.8629 10.492 23.1981 11.6034 17.4929C11.8876 16.0447 12.7815 13.8043 14.413 12.9982C16.8121 11.8096 21.7077 15.7657 22.3059 18.5674C22.6094 19.992 22.3691 24.3384 23.0068 26.813C23.1673 27.4428 23.3208 28.0612 23.4568 28.6603C23.4568 28.6603 23.4568 28.6629 23.4603 28.6629C23.9752 30.8962 22.9928 32.848 23.1129 34.0909V34.0909Z" fill="#FC5126"/>
<path d="M14.862 12.2395L14.6287 12.8965C14.6287 12.8965 19.0198 13.5868 20.6795 15.985C20.6795 15.985 20.8619 14.5131 18.8733 13.0447C18.1348 12.4991 16.3558 12.0965 15.4918 11.9263C15.2216 11.8728 14.9436 12.0114 14.862 12.2395Z" fill="#FFC194"/>
<path d="M28.9775 69.5175L29.0547 72.262L32.2385 72.1725L32.1613 69.428L28.9775 69.5175Z" fill="white"/>
<path d="M38.854 73.451C38.7662 73.6598 38.575 73.8457 38.3715 73.9861C38.1241 74.1563 35.3926 74.3063 33.8952 74.5466C33.3944 74.6256 33.111 74.7633 33.0154 74.7247C32.8716 74.6659 32.5084 74.444 32.1023 74.501C31.6944 74.5589 31.4646 74.8475 31.4646 74.8475C31.4646 74.8475 28.4865 75.258 28.1032 74.7492C27.9444 74.537 27.8137 74.6659 27.8453 74.201C27.855 74.0685 27.869 73.9326 27.8874 73.7992C28.0067 72.9677 28.1813 71.3466 28.8786 71.2247C29.1207 71.1809 30.2742 71.8659 31.1777 71.3554C31.7084 71.0554 31.6733 70.6282 32.233 70.1642C32.8461 69.6607 33.1417 70.1528 33.6821 70.8379C33.7145 70.8791 33.7479 70.9212 33.7821 70.9642C33.9347 71.1519 34.1075 71.351 34.3102 71.5449C34.3479 71.5809 34.3873 71.6177 34.4277 71.6528C34.5865 71.7949 34.7645 71.9326 34.9645 72.0598C34.9715 72.0651 34.9794 72.0686 34.9865 72.073C35.0312 72.101 35.0777 72.1265 35.1268 72.1501C35.3224 72.2475 35.547 72.3168 35.7864 72.3686C35.8391 72.38 35.8926 72.3905 35.947 72.4001C36.5329 72.5054 37.1882 72.5186 37.732 72.5677C38.3224 72.6221 38.7829 72.7203 38.8794 73.0282C38.9268 73.1764 38.9101 73.3177 38.8548 73.4501L38.854 73.451Z" fill="#2D3A64"/>
<path d="M38.8532 73.451C38.8216 73.7606 38.6874 74.5904 37.9532 74.6404C35.5892 74.8027 33.3225 75.0247 31.3804 75.0966C31.3804 75.0966 28.1936 75.4325 28.0278 75.165C27.848 74.8755 27.8033 74.3983 27.8866 73.8001C28.0603 73.7519 28.2577 73.7369 28.4682 73.7624C29.4033 73.8703 30.334 73.9799 31.2752 74.0247C33.1374 74.1115 35.0076 74.0326 36.8567 73.787C37.526 73.6975 38.1918 73.5861 38.8532 73.4519V73.451Z" fill="#1A223B"/>
<path d="M30.7671 51.4583C31.3443 53.6565 32.6425 62.909 33.6557 70.2414C31.8347 70.8914 30.2005 71.4966 28.0479 71.6536C27.9619 71.3414 27.8777 71.023 27.7961 70.6949C26.2409 64.5318 24.4093 54.6916 24.1927 53.6319C23.447 49.989 12.8796 42.9549 12.5182 34.6804C12.4674 33.5269 12.0726 29.8436 11.7332 24.3498C12.1507 24.3472 13.1261 24.3218 13.3323 24.3498C14.7094 31.4796 14.8638 33.2164 18.4454 33.1103C23.4856 32.9603 18.9743 21.1411 20.0392 21.1227C20.7988 21.1095 21.3497 21.1797 22.5567 21.1244C23.4313 26.463 23.933 31.6901 23.7023 35.183C23.6093 36.5927 29.8987 48.1513 30.768 51.46L30.7671 51.4583Z" fill="#294E95"/>
<path d="M45.545 19.6745H24.2146V37.6023H45.545V19.6745Z" fill="#FFB680"/>
<path d="M37.2364 31.4559H32.5242V37.6023H37.2364V31.4559Z" fill="#FFC59E"/>
<path d="M37.2364 19.6744H32.5242V25.8209H37.2364V19.6744Z" fill="#FFC59E"/>
<path fill-rule="evenodd" clip-rule="evenodd" d="M40.5468 35.8401C40.5468 35.8401 40.5459 35.8401 40.5459 35.8409C40.5451 35.8444 40.5459 35.8427 40.5468 35.8401ZM40.9784 36.112L40.9968 36.0822L41.0258 36.1015L41.0687 36.1304L40.9468 35.7708L40.5652 35.8436L40.61 35.8725L40.6354 35.8892L40.6214 35.9164L40.5266 36.1006C40.517 36.1208 40.5188 36.1418 40.5249 36.1611C40.5328 36.183 40.5477 36.205 40.56 36.2216V36.2234L40.6293 36.326C40.6652 36.3602 40.7117 36.3751 40.7687 36.3778H40.81L40.9766 36.1111L40.9784 36.112ZM41.3608 36.4602V36.8813H40.9994C40.9301 36.8839 40.8705 36.8558 40.8223 36.769L40.5073 36.2637C40.4916 36.2427 40.4731 36.2155 40.4617 36.1839C40.4495 36.1497 40.4477 36.1102 40.4661 36.0708L40.5477 35.9129L40.5109 35.8892L40.5082 35.8874C40.488 35.8716 40.4723 35.8523 40.4784 35.8269C40.4828 35.805 40.5038 35.7865 40.5521 35.7769L40.9635 35.698L40.9924 35.6927L41.0021 35.7208L41.1372 36.1199C41.1451 36.1409 41.1477 36.1576 41.1468 36.1699C41.1468 36.1848 41.1416 36.1962 41.1345 36.2041C41.1258 36.2146 41.1152 36.2199 41.1038 36.2208C41.0951 36.2216 41.0872 36.2208 41.0793 36.2181H41.0758L41.0714 36.2146L41.0161 36.1786L40.8907 36.3795H41.2872C41.3345 36.3813 41.3591 36.3953 41.36 36.4602H41.3608Z" fill="#85583C"/>
<path d="M42.0485 35.4813C42.0485 35.4813 42.0485 35.4813 42.0485 35.4795C42.0459 35.4769 42.0468 35.4787 42.0485 35.4813ZM41.4511 35.4058L41.5889 35.6997L41.6038 35.7313L41.5722 35.7453L41.5248 35.7664L41.8915 35.8576L42.0362 35.4953L41.988 35.5173L41.9599 35.5304L41.945 35.5041L41.8424 35.3243C41.8301 35.305 41.8125 35.2953 41.7932 35.2909C41.7704 35.2857 41.745 35.2866 41.7231 35.2883H41.7213L41.4196 35.2944L41.1643 35.2199H41.7178C41.7441 35.2173 41.7766 35.2164 41.809 35.2243C41.8441 35.233 41.8783 35.2523 41.9011 35.2892L41.9889 35.4436L42.0283 35.4251H42.031C42.0546 35.4155 42.0792 35.4129 42.0985 35.4313C42.1143 35.4471 42.1187 35.4743 42.1011 35.5208L41.945 35.912L41.9336 35.9392L41.9046 35.9322L41.4976 35.8304C41.4757 35.826 41.4608 35.819 41.4503 35.812C41.438 35.8041 41.431 35.7936 41.4283 35.783C41.424 35.7699 41.4257 35.7576 41.431 35.748C41.4345 35.7401 41.4406 35.7339 41.4468 35.7287L41.4494 35.726L41.4538 35.7243L41.5134 35.6971L41.3906 35.4348L41.452 35.4058H41.4511Z" fill="#85583C"/>
<path fill-rule="evenodd" clip-rule="evenodd" d="M41.1977 35.819L41.4775 35.3795C41.5135 35.3295 41.5538 35.2971 41.6082 35.2874L41.4231 35.226L41.124 35.2138C41.0249 35.2067 40.9687 35.2427 40.9336 35.3032L40.738 35.6094L41.0898 35.8366C41.145 35.8716 41.1696 35.8576 41.1968 35.819H41.1977Z" fill="#85583C"/>
<path fill-rule="evenodd" clip-rule="evenodd" d="M41.6355 36.9611C41.6355 36.9611 41.6355 36.9611 41.6372 36.9611C41.6408 36.9602 41.639 36.9602 41.6355 36.9611ZM41.6486 36.4488H41.6144L41.6162 36.4129L41.6188 36.3611L41.3723 36.6488L41.6285 36.9427L41.6311 36.8892L41.6329 36.8585L41.6636 36.8567L41.8697 36.8453C41.8925 36.8436 41.9092 36.8313 41.9223 36.8164C41.9372 36.7988 41.9486 36.7751 41.9565 36.755V36.7532L42.0109 36.6418C42.0223 36.5927 42.0109 36.5453 41.9846 36.4944L41.9636 36.4585L41.6504 36.4488H41.6486ZM41.7522 35.9409L42.1127 35.7278L42.296 36.0418C42.3337 36.1006 42.3399 36.1664 42.2899 36.2523L42.0171 36.7822C42.0065 36.8067 41.9934 36.8365 41.9723 36.862C41.9486 36.89 41.9162 36.9111 41.8732 36.9155L41.6969 36.9251L41.6951 36.969V36.9716C41.6916 36.9971 41.6829 37.0207 41.6583 37.0286C41.6372 37.0357 41.6109 37.0269 41.5776 36.99L41.3013 36.6734L41.282 36.6515L41.3013 36.6286L41.575 36.3094C41.589 36.2918 41.6013 36.2813 41.6127 36.2751C41.6258 36.2681 41.6372 36.2664 41.6478 36.2681C41.6609 36.2708 41.6715 36.2778 41.6776 36.2865C41.6829 36.2936 41.6864 36.3015 41.6872 36.3094V36.3129V36.3172L41.6837 36.383L41.9197 36.3901L41.7179 36.0462C41.696 36.0041 41.6951 35.976 41.7504 35.9427L41.7522 35.9409Z" fill="#85583C"/>
<path d="M40.4249 34.8585C40.2925 34.8585 40.1846 34.9725 40.1846 35.1111V37.1295C40.1846 37.269 40.2925 37.3821 40.4249 37.3821H42.353C42.4854 37.3821 42.5951 37.269 42.5951 37.1295V35.1111C42.5951 34.9725 42.4854 34.8585 42.353 34.8585H40.4249ZM40.3284 35.1436C40.3284 35.069 40.3863 35.0102 40.4556 35.0102H42.3214C42.3924 35.0102 42.4495 35.0699 42.4495 35.1436V37.097C42.4495 37.1698 42.3924 37.2304 42.3214 37.2304H40.4556C40.3863 37.2304 40.3284 37.1698 40.3284 37.097V35.1436Z" fill="#85583C"/>
<path d="M43.2724 37.0874H44.5276C44.5522 37.0874 44.5715 37.0672 44.5715 37.0427C44.5715 37.0181 44.5513 36.9988 44.5276 36.9988H43.2724C43.2478 36.9988 43.2285 37.019 43.2285 37.0427C43.2285 37.0664 43.2487 37.0874 43.2724 37.0874Z" fill="#85583C"/>
<path fill-rule="evenodd" clip-rule="evenodd" d="M44.0924 35.4927V36.812H44.3573V35.4918H44.488L44.2195 35.1541L43.9529 35.4936L44.0924 35.4927Z" fill="#85583C"/>
<path fill-rule="evenodd" clip-rule="evenodd" d="M43.4407 35.4936V36.8129H43.7056V35.4927L43.8363 35.4918L43.5679 35.1541L43.3013 35.4936H43.4407Z" fill="#85583C"/>
<path d="M42.9354 34.8585C42.803 34.8585 42.6951 34.9725 42.6951 35.1111V37.1295C42.6951 37.269 42.803 37.3821 42.9354 37.3821H44.8635C44.9959 37.3821 45.1056 37.269 45.1056 37.1295V35.1111C45.1056 34.9725 44.9959 34.8585 44.8635 34.8585H42.9354ZM42.8389 35.1436C42.8389 35.069 42.8968 35.0102 42.9661 35.0102H44.8319C44.9029 35.0102 44.96 35.0699 44.96 35.1436V37.0971C44.96 37.1699 44.9029 37.2304 44.8319 37.2304H42.9661C42.8968 37.2304 42.8389 37.1699 42.8389 37.0971V35.1436Z" fill="#85583C"/>
<path d="M18.3489 17.1982L18.4857 17.8183L18.6287 18.4464L18.9226 19.7025C19.1217 20.5393 19.3208 21.3762 19.5304 22.206C19.7401 23.0367 19.9576 23.8621 20.1831 24.677C20.2962 25.084 20.4129 25.4875 20.5339 25.884C20.655 26.2796 20.7804 26.67 20.9111 27.0375C20.976 27.2217 21.0427 27.3998 21.1085 27.5638C21.1734 27.7261 21.2418 27.8787 21.2848 27.9726C21.2971 27.9998 21.3015 28.0094 21.3067 28.0261C21.3032 28.0226 21.2945 28.0156 21.2927 28.0164C21.2945 28.0208 21.2927 28.0226 21.2971 28.0287C21.3111 28.0559 21.3576 28.1121 21.4067 28.1673C21.5085 28.2822 21.6427 28.4147 21.7822 28.5471C22.0646 28.8138 22.3778 29.0866 22.6971 29.3559C23.0172 29.6261 23.3462 29.8945 23.6795 30.1612C24.3444 30.698 25.0242 31.2296 25.7102 31.755L26.7418 32.5436L27.776 33.3243L27.7865 33.3322C28.3224 33.7374 28.4295 34.5006 28.0242 35.0365C27.6584 35.5216 26.9988 35.655 26.4795 35.376C24.9163 34.5409 23.3918 33.6804 21.8629 32.7576C21.4822 32.5252 21.1015 32.2883 20.7199 32.0418C20.3374 31.7945 19.9567 31.541 19.5638 31.2559C19.3664 31.112 19.1682 30.9629 18.9524 30.7796C18.8427 30.6857 18.7331 30.5892 18.6015 30.4541C18.5682 30.4199 18.5322 30.3805 18.4989 30.3436C18.462 30.3024 18.4208 30.2524 18.3831 30.2059C18.3261 30.134 18.2647 30.055 18.2191 29.991C18.0243 29.7199 17.884 29.4892 17.7515 29.2629C17.6208 29.0375 17.5033 28.8217 17.391 28.6068C17.1673 28.1787 16.9647 27.7612 16.7699 27.3445C16.5761 26.9287 16.3901 26.5147 16.2094 26.1007C15.8471 25.2744 15.5086 24.4481 15.1787 23.6218C14.8498 22.7946 14.527 21.9683 14.2173 21.1385L13.7577 19.8911L13.5314 19.2648L13.306 18.6297C12.82 17.2631 13.5349 15.7613 14.9015 15.2754C16.2682 14.7894 17.7699 15.5043 18.2559 16.871C18.291 16.9692 18.3199 17.0683 18.3427 17.1683L18.3489 17.1982V17.1982Z" fill="#FECDAC"/>
<path d="M15.2207 24.0674C16.9128 23.2534 20.218 21.8507 20.2242 21.8472C19.5891 19.5218 18.3637 13.7815 14.8067 15.1912C10.6681 16.8315 14.326 22.0148 15.2207 24.0674Z" fill="#FB7752"/>
<path d="M33.2558 37.3997C32.6926 36.9146 31.6251 36.3471 30.7646 35.2699C30.633 35.1058 30.54 34.7822 30.6725 34.762C30.933 34.7216 31.1918 34.8708 31.454 34.8901C31.8339 34.9172 32.5865 34.7067 32.6347 34.2655C32.661 34.0216 32.4786 34.0015 32.2391 34.0234C31.1339 34.126 30.8804 33.7787 30.147 33.5787C29.7874 33.4804 29.8856 33.6217 28.8655 33.5252C28.6742 33.5067 28.4216 33.5427 28.2497 33.4646C28.155 33.4217 27.5655 33.176 27.3725 33.0445C26.5927 33.8576 26.2278 35.2409 26.2278 35.2409C26.5506 35.4471 26.7734 35.433 26.9918 35.819C27.1664 36.1278 27.1602 36.2269 27.376 36.512C27.6725 36.9049 28.2944 37.626 29.1558 38.1558C29.5944 38.4251 30.0084 37.9848 29.583 37.6751C29.4839 37.6032 29.3979 37.5348 29.3321 37.4602C29.3953 37.5155 29.562 37.6348 30.3926 38.1505C30.719 38.3532 31.2216 37.9523 30.7909 37.6453C30.5654 37.4848 30.3988 37.333 30.2356 37.1628C30.3646 37.3041 30.9821 37.7584 31.5251 38.0777C31.9602 38.3339 32.4751 37.8216 32.1119 37.5628C31.754 37.3076 31.4312 37.0479 31.0918 36.6927C31.0918 36.6927 31.0926 36.6927 31.0935 36.6918C31.2391 36.8453 31.9839 37.4742 32.7128 37.9365C33.0435 38.147 33.6584 37.7462 33.2575 37.4006L33.2558 37.3997Z" fill="#FECDAC"/>
<path d="M12.1164 24.4226C11.7314 21.0341 10.8445 14.9903 14.5813 14.2631C19.0681 13.3894 21.6146 17.4639 21.7882 21.1981L20.9067 21.1481C20.7391 17.5429 18.2637 13.7903 14.6761 14.7938C11.0305 15.8131 12.912 21.6955 13.3454 24.4235H12.1164V24.4226Z" fill="#294E95"/>
</svg>
