<svg width="144" height="109" viewBox="0 0 144 109" fill="none" xmlns="http://www.w3.org/2000/svg">
<path d="M74.4967 38.0858H58.3469V56.1124H74.4967V38.0858Z" fill="#FFAD6E"/>
<path d="M85.4645 38.0858H74.4966V56.1124H85.4645V38.0858Z" fill="#ED8945"/>
<path fill-rule="evenodd" clip-rule="evenodd" d="M73.3034 53.9325C73.3034 53.9325 73.3068 53.937 73.3056 53.9325H73.3034ZM72.99 54.5604H73.0388C73.0988 54.5611 73.157 54.5397 73.2023 54.5002L73.284 54.3798C73.3012 54.3586 73.315 54.3349 73.3249 54.3095C73.3297 54.2983 73.3321 54.2864 73.3321 54.2743C73.3321 54.2622 73.3297 54.2502 73.3249 54.239L73.2114 54.0233L73.1955 53.9915L73.225 53.9711L73.2784 53.937L72.8299 53.8519L72.6868 54.2731L72.7379 54.239L72.772 54.2175L72.7936 54.2516L72.99 54.5604ZM72.4291 54.5604H72.8946L72.747 54.3265L72.6823 54.3685C72.673 54.3709 72.6632 54.3709 72.6539 54.3685C72.6397 54.3663 72.6267 54.359 72.6175 54.3479C72.6083 54.3368 72.6035 54.3227 72.6039 54.3083C72.6036 54.2884 72.6074 54.2687 72.6153 54.2504L72.7742 53.7838L72.7856 53.7509H72.8197L73.3034 53.8428C73.359 53.8553 73.384 53.8769 73.3896 53.9018C73.3914 53.9159 73.389 53.9302 73.3827 53.9429C73.3765 53.9556 73.3666 53.9662 73.3544 53.9734L73.3113 54.0018L73.4078 54.1857C73.4253 54.2282 73.4253 54.276 73.4078 54.3185C73.3943 54.3518 73.3763 54.3831 73.3544 54.4116L72.9832 55.0009C72.9662 55.0415 72.9372 55.0759 72.9 55.0995C72.8628 55.123 72.8193 55.1346 72.7754 55.1326H72.3496V54.641C72.3473 54.5797 72.3757 54.5604 72.4314 54.5604H72.4291Z" fill="#85583C"/>
<path d="M71.5378 53.5112C71.5378 53.5112 71.5412 53.5078 71.5378 53.5112V53.5112ZM72.3133 53.459L72.1691 53.7656L72.2395 53.7974C72.247 53.8036 72.2532 53.8113 72.2576 53.8201C72.2605 53.8265 72.2619 53.8335 72.2619 53.8405C72.2619 53.8475 72.2605 53.8545 72.2576 53.8609C72.2534 53.8751 72.2441 53.8872 72.2315 53.895C72.2145 53.9057 72.1956 53.913 72.1759 53.9166L71.6979 54.0301L71.6638 54.0392L71.6514 54.0063L71.4674 53.5521C71.447 53.4976 71.4515 53.4658 71.4674 53.4476C71.4779 53.4382 71.4911 53.4323 71.5051 53.4306C71.5192 53.429 71.5334 53.4318 71.5458 53.4386L71.5923 53.4601L71.6956 53.2796C71.7084 53.2599 71.7251 53.243 71.7446 53.2299C71.7641 53.2169 71.7861 53.2079 71.8092 53.2035C71.8449 53.1974 71.8813 53.1974 71.917 53.2035H72.5676L72.2679 53.2898L71.9125 53.283C71.8854 53.2785 71.8578 53.2785 71.8307 53.283C71.8069 53.2881 71.7859 53.3019 71.7717 53.3216L71.6514 53.5328L71.6332 53.5635L71.6003 53.5487L71.5435 53.5226L71.7138 53.9472L72.1441 53.8405L72.0896 53.8155L72.0522 53.7985L72.0692 53.7622L72.2304 53.4215L72.3133 53.459Z" fill="#85583C"/>
<path fill-rule="evenodd" clip-rule="evenodd" d="M72.5392 53.9074L72.21 53.3942C72.1931 53.3668 72.1708 53.343 72.1444 53.3245C72.1181 53.306 72.0882 53.293 72.0567 53.2864L72.2736 53.2148L72.6255 53.2001C72.6695 53.1914 72.7152 53.1968 72.756 53.2156C72.7967 53.2343 72.8305 53.2654 72.8526 53.3045L73.0797 53.6622L72.6653 53.9278C72.6017 53.9687 72.5721 53.9528 72.5404 53.9074H72.5392Z" fill="#85583C"/>
<path fill-rule="evenodd" clip-rule="evenodd" d="M72.0283 55.2426C72.0283 55.2426 72.0181 55.2415 72.0226 55.2415L72.0283 55.2426ZM71.6457 54.6545L71.6207 54.6954C71.5896 54.7472 71.5786 54.8086 71.59 54.868L71.6525 54.9985C71.6621 55.0242 71.6755 55.0483 71.6922 55.0701C71.6997 55.0795 71.7089 55.0874 71.7195 55.0933C71.73 55.0991 71.7416 55.1028 71.7535 55.1041L71.9965 55.1177H72.0328V55.1541V55.2165L72.3349 54.8759L72.0442 54.5353V54.5955V54.6363H72.0033L71.6457 54.6545ZM71.9295 54.1708L71.6933 54.5728L71.9704 54.5648V54.4876V54.4774C71.9725 54.4681 71.9763 54.4592 71.9817 54.4513C71.986 54.4454 71.9914 54.4404 71.9976 54.4366C72.0039 54.4329 72.0108 54.4306 72.0181 54.4297C72.0322 54.4275 72.0467 54.4303 72.0589 54.4376C72.0764 54.4475 72.0916 54.461 72.1032 54.4774L72.4257 54.8509L72.4484 54.8771L72.4257 54.9032L72.101 55.2733C72.0624 55.3164 72.0306 55.3267 72.0056 55.3187C71.9928 55.3127 71.982 55.3033 71.9744 55.2914C71.9667 55.2796 71.9626 55.2658 71.9624 55.2517V55.2006L71.7558 55.1893C71.7337 55.1869 71.7122 55.1802 71.6928 55.1694C71.6733 55.1587 71.6561 55.1442 71.6423 55.1268C71.6198 55.0992 71.6018 55.0681 71.5889 55.0349L71.2687 54.4161C71.2421 54.3809 71.227 54.3383 71.2256 54.2941C71.2242 54.25 71.2365 54.2066 71.2608 54.1697L71.4765 53.803L71.9 54.0528C71.9511 54.088 71.9499 54.1209 71.9238 54.1708H71.9295Z" fill="#85583C"/>
<path d="M73.4476 52.7856H71.1768C71.1 52.7874 71.027 52.8194 70.9736 52.8747C70.9203 52.9299 70.8909 53.004 70.8918 53.0808V55.4402C70.8909 55.517 70.9203 55.5911 70.9736 55.6463C71.027 55.7016 71.1 55.7336 71.1768 55.7354H73.4476C73.5242 55.7336 73.5969 55.7015 73.6499 55.6462C73.7029 55.5908 73.7318 55.5168 73.7303 55.4402V53.0842C73.7318 53.0076 73.7029 52.9336 73.6499 52.8782C73.5969 52.8229 73.5242 52.7908 73.4476 52.789V52.7856ZM73.5611 55.4027C73.5614 55.4431 73.5459 55.482 73.5179 55.511C73.4899 55.5401 73.4516 55.5571 73.4112 55.5583H71.2165C71.1761 55.5574 71.1376 55.5405 71.1095 55.5114C71.0814 55.4822 71.066 55.4432 71.0666 55.4027V53.1183C71.0662 53.0982 71.0697 53.0783 71.077 53.0596C71.0843 53.0409 71.0952 53.0238 71.1092 53.0093C71.1231 52.9949 71.1398 52.9833 71.1582 52.9753C71.1766 52.9673 71.1964 52.963 71.2165 52.9627H73.4112C73.4517 52.9636 73.4901 52.9805 73.5182 53.0096C73.5463 53.0388 73.5617 53.0778 73.5611 53.1183V55.4027Z" fill="#85583C"/>
<path d="M70.0992 55.3902H68.6232C68.6094 55.3902 68.5961 55.3847 68.5863 55.3749C68.5765 55.3651 68.571 55.3518 68.571 55.338C68.571 55.3312 68.5723 55.3244 68.575 55.3182C68.5776 55.3119 68.5815 55.3062 68.5864 55.3015C68.5912 55.2967 68.597 55.293 68.6033 55.2905C68.6097 55.288 68.6164 55.2867 68.6232 55.2869H70.0992C70.1129 55.2869 70.126 55.2922 70.1358 55.3018C70.1455 55.3113 70.1512 55.3243 70.1515 55.338C70.1512 55.3518 70.1456 55.3648 70.1358 55.3746C70.1261 55.3843 70.113 55.3899 70.0992 55.3902Z" fill="#85583C"/>
<path fill-rule="evenodd" clip-rule="evenodd" d="M69.1353 53.527V55.0677H68.8231V53.5259L68.6698 53.5248L68.9854 53.1296L69.2988 53.527H69.1353Z" fill="#85583C"/>
<path fill-rule="evenodd" clip-rule="evenodd" d="M69.9017 53.5271V55.069H69.5894V53.526H69.4362L69.7518 53.1309L70.0652 53.5282L69.9017 53.5271Z" fill="#85583C"/>
<path d="M70.4956 52.7856H68.2248C68.1481 52.7874 68.0752 52.8195 68.022 52.8748C67.9689 52.9301 67.9397 53.0041 67.941 53.0808V55.4402C67.9397 55.5169 67.9689 55.5909 68.022 55.6462C68.0752 55.7015 68.1481 55.7336 68.2248 55.7354H70.4956C70.5722 55.7336 70.6449 55.7015 70.6979 55.6462C70.7509 55.5908 70.7798 55.5168 70.7783 55.4402V53.0842C70.7798 53.0076 70.7509 52.9336 70.6979 52.8782C70.6449 52.8229 70.5722 52.7908 70.4956 52.789V52.7856ZM70.6091 55.4027C70.6094 55.4431 70.5939 55.482 70.5659 55.511C70.5379 55.5401 70.4996 55.5571 70.4592 55.5583H68.2645C68.2241 55.5574 68.1856 55.5405 68.1575 55.5114C68.1295 55.4822 68.114 55.4432 68.1146 55.4027V53.1183C68.1142 53.0982 68.1177 53.0783 68.125 53.0596C68.1323 53.0409 68.1433 53.0238 68.1572 53.0093C68.1711 52.9949 68.1878 52.9833 68.2062 52.9753C68.2246 52.9673 68.2444 52.963 68.2645 52.9627H70.4592C70.4997 52.9636 70.5382 52.9805 70.5662 53.0096C70.5943 53.0388 70.6097 53.0778 70.6091 53.1183V55.4027Z" fill="#85583C"/>
<path d="M68.0442 38.0858H64.8004V45.3182H68.0442V38.0858Z" fill="#FFC59E"/>
<path d="M81.6859 38.0858H79.2755V45.3182H81.6859V38.0858Z" fill="#D47130"/>
<path d="M76.5392 56.1124H53.2024V74.1833H76.5392V56.1124Z" fill="#FFA463"/>
<path d="M86.4364 56.1124H76.5403V74.1833H86.4364V56.1124Z" fill="#E8813C"/>
<path d="M67.5606 56.1124H62.1823V65.686H67.5606V56.1124Z" fill="#FFC59E"/>
<path d="M82.4489 56.1124H80.4813V65.686H82.4489V56.1124Z" fill="#D47130"/>
<path fill-rule="evenodd" clip-rule="evenodd" d="M59.8411 71.1597C59.8411 71.1597 59.8377 71.1665 59.8377 71.1597H59.8411ZM59.4982 72.059H59.5516C59.586 72.0582 59.6199 72.05 59.6509 72.0349C59.6818 72.0198 59.7092 71.9982 59.731 71.9715L59.8195 71.8001C59.8389 71.7685 59.8542 71.7345 59.8649 71.699C59.8752 71.6661 59.8752 71.6309 59.8649 71.598L59.7423 71.2892L59.7241 71.2437L59.7571 71.2153L59.815 71.1665L59.3234 71.045L59.1667 71.6468L59.2223 71.5991L59.2598 71.5662L59.2825 71.6161L59.4982 72.059ZM58.8828 72.059H59.3949L59.2325 71.7183L59.1621 71.7785H59.1565C59.1465 71.7819 59.1357 71.7819 59.1258 71.7785C59.1173 71.7771 59.1092 71.7738 59.1022 71.7689C59.0951 71.764 59.0892 71.7576 59.0849 71.7501C59.0746 71.733 59.0694 71.7133 59.0702 71.6933C59.0697 71.6648 59.0739 71.6364 59.0827 71.6093L59.2564 70.9417L59.2689 70.894L59.3063 70.9042L59.8365 71.0348C59.899 71.0519 59.9251 71.0837 59.9319 71.12C59.9343 71.1388 59.9319 71.1579 59.9249 71.1756C59.918 71.1932 59.9067 71.2088 59.8922 71.221L59.8445 71.2608L59.9501 71.5242C59.9712 71.5853 59.9731 71.6515 59.9558 71.7138C59.9423 71.7604 59.9229 71.8051 59.8979 71.8466L59.4914 72.6913C59.4289 72.8367 59.3529 72.8844 59.2643 72.8787H58.7977V72.1747C58.7897 72.085 58.8227 72.0624 58.8828 72.059Z" fill="#85583C"/>
<path d="M57.9029 70.5557C57.9029 70.5557 57.9075 70.5511 57.9075 70.5557H57.9029ZM58.7533 70.4819L58.5944 70.9213L58.6716 70.9656H58.6773C58.6861 70.9745 58.6927 70.9854 58.6966 70.9974C58.7029 71.0165 58.7029 71.0372 58.6966 71.0564C58.6928 71.0751 58.6828 71.0919 58.6682 71.1041C58.6507 71.1188 58.6302 71.1293 58.608 71.1347L58.0823 71.305L58.046 71.3164L58.0313 71.271L57.8303 70.617C57.8076 70.5398 57.8133 70.4933 57.8303 70.4671C57.8473 70.441 57.8859 70.441 57.9166 70.4546L57.9677 70.4853L58.0812 70.2276C58.0915 70.201 58.1075 70.1771 58.1281 70.1575C58.1487 70.1378 58.1734 70.123 58.2004 70.114C58.2373 70.1036 58.276 70.1009 58.314 70.1061H59.0429L58.7136 70.231L58.3242 70.2196C58.2942 70.2135 58.2633 70.2135 58.2334 70.2196C58.2193 70.2237 58.2064 70.2308 58.1954 70.2404C58.1844 70.25 58.1757 70.2619 58.1698 70.2752L58.0369 70.5761L58.0176 70.6215L57.9813 70.6L57.9188 70.5625L58.105 71.1688L58.5785 71.0166L58.5172 70.9814L58.4763 70.9576L58.4956 70.9042L58.6727 70.4126L58.7533 70.4819Z" fill="#85583C"/>
<path fill-rule="evenodd" clip-rule="evenodd" d="M59.0009 71.1233L58.6398 70.3898C58.6245 70.3534 58.6016 70.3207 58.5726 70.2939C58.5437 70.2671 58.5093 70.2468 58.4718 70.2343L58.7091 70.1321L59.0951 70.1117C59.1469 70.1045 59.1995 70.1153 59.2442 70.1424C59.2889 70.1695 59.3229 70.2112 59.3404 70.2604L59.5924 70.7736L59.1383 71.1528C59.0679 71.2107 59.0361 71.188 59.0009 71.1233Z" fill="#85583C"/>
<path fill-rule="evenodd" clip-rule="evenodd" d="M58.4343 73.0296C58.4343 73.0296 58.4286 73.0319 58.4343 73.0341V73.0296ZM58.0142 72.1871L57.987 72.2473C57.9524 72.3245 57.941 72.4101 57.954 72.4937L58.0222 72.6799C58.0326 72.716 58.0475 72.7507 58.0664 72.7832C58.0735 72.7957 58.0831 72.8065 58.0946 72.8149C58.1062 72.8233 58.1194 72.8292 58.1334 72.832L58.3991 72.8502H58.4388V72.9013V72.991L58.7693 72.4994L58.4514 72.018V72.1054V72.1633H58.4071L58.0142 72.1871ZM58.3264 71.4957L58.0664 72.0713L58.3707 72.0588V71.9453V71.9317C58.3727 71.9185 58.3769 71.9059 58.3832 71.8942C58.387 71.8866 58.3924 71.8799 58.3991 71.8746C58.4058 71.8693 58.4135 71.8655 58.4218 71.8635C58.4299 71.8617 58.4384 71.8617 58.4464 71.8637C58.4545 71.8657 58.462 71.8695 58.4684 71.8749C58.4878 71.8909 58.5043 71.9101 58.5172 71.9317L58.8692 72.4664L58.8941 72.5039L58.8692 72.5414L58.5138 73.0705C58.4707 73.1318 58.4366 73.1465 58.4093 73.1352C58.3821 73.1238 58.3662 73.0818 58.3628 73.0398V72.966L58.1357 72.9501C58.109 72.946 58.0836 72.9359 58.0614 72.9206C58.0391 72.9052 58.0207 72.8851 58.0074 72.8615C57.9822 72.8197 57.9627 72.7746 57.9495 72.7276L57.5975 71.8431C57.5683 71.7891 57.5523 71.7289 57.5509 71.6675C57.5496 71.6061 57.5628 71.5453 57.5896 71.49L57.8258 70.9655L58.2912 71.3231C58.3055 71.3321 58.3177 71.344 58.3273 71.3579C58.3368 71.3719 58.3434 71.3876 58.3467 71.4041C58.35 71.4207 58.3499 71.4377 58.3464 71.4543C58.3429 71.4708 58.3361 71.4864 58.3264 71.5002V71.4957Z" fill="#85583C"/>
<path d="M59.9966 69.5179H57.5101C57.3398 69.5179 57.199 69.7087 57.199 69.9403V73.3169C57.199 73.5497 57.3398 73.7393 57.5101 73.7393H59.9966C60.1669 73.7393 60.3066 73.5497 60.3066 73.3169V69.9403C60.3066 69.7132 60.1669 69.5179 59.9966 69.5179ZM60.1204 73.2647C60.1204 73.3873 60.0455 73.4918 59.9569 73.4918H57.551C57.4591 73.4918 57.3864 73.3908 57.3864 73.2647V70.0016C57.3864 69.8767 57.4591 69.7745 57.551 69.7745H59.9569C60.0455 69.7745 60.1204 69.8733 60.1204 70.0016V73.2647Z" fill="#85583C"/>
<path d="M56.3259 73.2454H54.7069C54.6897 73.2429 54.6741 73.2337 54.6636 73.22C54.653 73.2062 54.6481 73.1889 54.6501 73.1716C54.6501 73.1307 54.6762 73.0967 54.7069 73.0967H56.3259C56.3577 73.0967 56.3827 73.1307 56.3827 73.1716C56.3846 73.1889 56.3798 73.2062 56.3692 73.22C56.3586 73.2337 56.3431 73.2429 56.3259 73.2454Z" fill="#85583C"/>
<path fill-rule="evenodd" clip-rule="evenodd" d="M55.2689 70.5784V72.7845H54.926V70.5773L54.7579 70.5761L55.1042 70.0118L55.4483 70.5795L55.2689 70.5784Z" fill="#85583C"/>
<path fill-rule="evenodd" clip-rule="evenodd" d="M56.109 70.5795V72.7867H55.7661V70.5784L55.5981 70.5772L55.9444 70.0129L56.2884 70.5806L56.109 70.5795Z" fill="#85583C"/>
<path d="M56.7608 69.5179H54.2743C54.104 69.5179 53.962 69.7087 53.962 69.9403V73.3169C53.962 73.5497 54.104 73.7393 54.2743 73.7393H56.7608C56.9311 73.7393 57.0707 73.5497 57.0707 73.3169V69.9403C57.0707 69.7132 56.9311 69.5179 56.7608 69.5179ZM56.8845 73.2647C56.8845 73.3873 56.8096 73.4918 56.7199 73.4918H54.314C54.2232 73.4918 54.1494 73.3908 54.1494 73.2647V70.0016C54.1494 69.8767 54.2232 69.7745 54.314 69.7745H56.7199C56.8096 69.7745 56.8845 69.8733 56.8845 70.0016V73.2647Z" fill="#85583C"/>
<path d="M107.429 48.5507H83.9499V74.7248H107.429V48.5507Z" fill="#FFAD6E"/>
<path d="M121.926 48.5507H107.429V74.7248H121.926V48.5507Z" fill="#ED8945"/>
<path d="M98.7621 65.7518H92.6163V74.7259H98.7621V65.7518Z" fill="#FFC59E"/>
<path d="M98.7621 48.5507H92.6163V57.5248H98.7621V48.5507Z" fill="#FFC59E"/>
<path d="M116.697 65.7518H112.658V74.7259H116.697V65.7518Z" fill="#DE7B3A"/>
<path d="M116.697 48.5507H112.658V57.5248H116.697V48.5507Z" fill="#DE7B3A"/>
<path fill-rule="evenodd" clip-rule="evenodd" d="M90.5953 72.2406C90.5953 72.2406 90.5964 72.2451 90.5953 72.2406V72.2406ZM90.2468 72.9911H90.3001C90.3681 72.9911 90.4335 72.9651 90.4829 72.9184L90.5737 72.7742C90.5932 72.7486 90.6089 72.7203 90.6203 72.6902C90.6305 72.6631 90.6305 72.6332 90.6203 72.6062L90.4954 72.3484L90.4772 72.3098L90.5113 72.286L90.5703 72.2451L90.0696 72.1429L89.9096 72.6459L89.9663 72.6062L90.0038 72.5789L90.0287 72.6209L90.2468 72.9911ZM89.62 72.9911H90.1411L89.9765 72.7106L89.9039 72.7606C89.8935 72.7635 89.8825 72.7635 89.8721 72.7606C89.864 72.76 89.8562 72.7577 89.8491 72.7537C89.8421 72.7498 89.8359 72.7444 89.8312 72.7379C89.8211 72.7241 89.8159 72.7073 89.8164 72.6902C89.816 72.6661 89.8202 72.6422 89.8289 72.6198L90.006 72.0623L90.0185 72.0226L90.0571 72.0305L90.5964 72.1441C90.66 72.1577 90.6873 72.1838 90.693 72.2145C90.6955 72.2308 90.6931 72.2476 90.686 72.2626C90.6789 72.2775 90.6675 72.29 90.6532 72.2985L90.6044 72.3325L90.7111 72.5528C90.7336 72.6026 90.736 72.6591 90.7179 72.7106C90.7038 72.7511 90.684 72.7894 90.6589 72.8242L90.2445 73.5292C90.2277 73.5758 90.1968 73.6159 90.1561 73.644C90.1153 73.6721 90.0669 73.6867 90.0174 73.6859H89.5428V73.0989C89.5258 73.0126 89.5587 72.9945 89.62 72.9911Z" fill="#85583C"/>
<path d="M88.622 71.7364C88.622 71.7364 88.6265 71.7319 88.622 71.7364V71.7364ZM89.4872 71.674L89.3271 72.0407L89.4054 72.0782C89.4143 72.0855 89.4213 72.0948 89.4259 72.1054C89.4322 72.1211 89.4322 72.1386 89.4259 72.1542C89.4215 72.1708 89.4115 72.1853 89.3975 72.1951C89.3783 72.207 89.3571 72.2154 89.335 72.2201L88.8014 72.362L88.7639 72.3722L88.7491 72.3336L88.5437 71.7875C88.521 71.7228 88.5266 71.6842 88.5437 71.6626C88.5554 71.6516 88.5703 71.6447 88.5862 71.6429C88.6022 71.6411 88.6183 71.6444 88.6322 71.6524L88.6833 71.6785L88.7969 71.4628C88.8097 71.4401 88.8271 71.4203 88.8481 71.4046C88.869 71.389 88.8929 71.3779 88.9183 71.372C88.9556 71.3637 88.9939 71.3614 89.0319 71.3651H89.7585L89.4236 71.4685L89.0273 71.4594C88.9969 71.4543 88.9658 71.4543 88.9354 71.4594C88.9219 71.4621 88.9091 71.4676 88.898 71.4757C88.8868 71.4837 88.8775 71.494 88.8706 71.5059L88.7355 71.758L88.7151 71.7955L88.6776 71.7773L88.614 71.7466L88.8048 72.253L89.2862 72.1247L89.2238 72.0952L89.1829 72.0759L89.2022 72.0316L89.3816 71.6206L89.4872 71.674Z" fill="#85583C"/>
<path fill-rule="evenodd" clip-rule="evenodd" d="M89.7392 72.2099L89.3725 71.5968C89.3544 71.5646 89.3298 71.5365 89.3003 71.5142C89.2708 71.4919 89.237 71.476 89.201 71.4674L89.4429 71.3822L89.8357 71.3641C89.8852 71.3555 89.9362 71.3629 89.9812 71.3854C90.0261 71.4079 90.0627 71.4442 90.0855 71.489L90.3421 71.917L89.88 72.2349C89.8085 72.2826 89.7756 72.2644 89.7392 72.2099Z" fill="#85583C"/>
<path fill-rule="evenodd" clip-rule="evenodd" d="M89.1624 73.8051C89.1624 73.8051 89.1579 73.804 89.1624 73.8051V73.8051ZM88.7355 73.1023L88.7083 73.1523C88.6732 73.2147 88.6611 73.2874 88.6742 73.3578L88.7435 73.5145C88.7545 73.5449 88.7698 73.5735 88.7889 73.5996C88.7966 73.6109 88.8067 73.6205 88.8185 73.6275C88.8302 73.6346 88.8434 73.639 88.857 73.6405L89.1284 73.6564H89.1681V73.6996V73.7745L89.5087 73.3646L89.1851 72.9616V73.0342V73.083H89.1397L88.7355 73.1023ZM89.0534 72.5244L88.7889 73.0047L89.0988 72.9956V72.9025V72.8911C89.1005 72.8797 89.1048 72.8688 89.1113 72.8594C89.1209 72.8463 89.1351 72.8373 89.1511 72.8344C89.1672 72.8321 89.1836 72.8353 89.1976 72.8435C89.2168 72.8565 89.2337 72.8726 89.2476 72.8911L89.6063 73.3373L89.6313 73.3691L89.6063 73.4009L89.2442 73.8426C89.201 73.8937 89.1658 73.9062 89.1386 73.896C89.1237 73.8888 89.1111 73.8775 89.1025 73.8634C89.0938 73.8493 89.0894 73.833 89.0897 73.8165V73.7552L88.8627 73.7416C88.8369 73.7391 88.812 73.7313 88.7895 73.7186C88.767 73.7059 88.7475 73.6885 88.7321 73.6678C88.7064 73.6334 88.6864 73.595 88.6731 73.5542L88.3154 72.8151C88.2854 72.7721 88.2686 72.7213 88.267 72.6688C88.2654 72.6164 88.279 72.5647 88.3063 72.5199L88.5471 72.0828L89.0205 72.3802C89.0829 72.4268 89.0818 72.4654 89.0534 72.5244Z" fill="#85583C"/>
<path d="M90.7543 70.869H88.2224C88.134 70.8751 88.0515 70.9154 87.9924 70.9814C87.9333 71.0473 87.9021 71.1336 87.9056 71.2221V74.0413C87.9021 74.1298 87.9333 74.2161 87.9924 74.2821C88.0515 74.348 88.134 74.3883 88.2224 74.3944H90.7543C90.8424 74.388 90.9246 74.3476 90.9835 74.2817C91.0424 74.2158 91.0734 74.1296 91.0699 74.0413V71.2221C91.0734 71.1338 91.0424 71.0476 90.9835 70.9818C90.9246 70.9159 90.8424 70.8754 90.7543 70.869ZM90.8803 73.997C90.8822 74.0437 90.8658 74.0892 90.8347 74.124C90.8035 74.1588 90.76 74.18 90.7134 74.1832H88.2633C88.2166 74.1803 88.1729 74.1591 88.1417 74.1243C88.1105 74.0895 88.0942 74.0437 88.0963 73.997V71.2721C88.095 71.2489 88.0982 71.2256 88.1059 71.2037C88.1135 71.1817 88.1254 71.1615 88.141 71.1442C88.1565 71.1269 88.1753 71.1128 88.1963 71.1028C88.2173 71.0928 88.24 71.0871 88.2633 71.0859H90.7134C90.7601 71.0888 90.8038 71.11 90.835 71.1448C90.8662 71.1797 90.8825 71.2254 90.8803 71.2721V73.997Z" fill="#85583C"/>
<path d="M87.0166 73.9823H85.368C85.3601 73.982 85.3523 73.9802 85.3451 73.9769C85.338 73.9736 85.3315 73.9689 85.3261 73.9631C85.3207 73.9573 85.3165 73.9505 85.3138 73.943C85.311 73.9356 85.3098 73.9277 85.3101 73.9198C85.3098 73.9041 85.3157 73.8888 85.3265 73.8773C85.3373 73.8659 85.3522 73.8591 85.368 73.8585H87.0166C87.0323 73.8591 87.0472 73.8659 87.0581 73.8773C87.0689 73.8888 87.0748 73.9041 87.0745 73.9198C87.0748 73.9277 87.0735 73.9356 87.0708 73.943C87.068 73.9505 87.0639 73.9573 87.0585 73.9631C87.0531 73.9689 87.0466 73.9736 87.0394 73.9769C87.0322 73.9802 87.0245 73.982 87.0166 73.9823Z" fill="#85583C"/>
<path fill-rule="evenodd" clip-rule="evenodd" d="M85.9402 71.7546V73.5973H85.5916V71.7534H85.4202L85.7721 71.2811L86.123 71.7557L85.9402 71.7546Z" fill="#85583C"/>
<path fill-rule="evenodd" clip-rule="evenodd" d="M86.7951 71.7557V73.5984H86.4466V71.7545H86.2762L86.6282 71.2822L86.9791 71.7568L86.7951 71.7557Z" fill="#85583C"/>
<path d="M87.4583 70.869H84.9298C84.8414 70.8751 84.7589 70.9154 84.6998 70.9814C84.6407 71.0473 84.6095 71.1336 84.613 71.2221V74.0413C84.6095 74.1298 84.6407 74.2161 84.6998 74.2821C84.7589 74.348 84.8414 74.3883 84.9298 74.3944H87.4606C87.5487 74.388 87.6309 74.3476 87.6898 74.2817C87.7487 74.2158 87.7797 74.1296 87.7762 74.0413V71.2221C87.7797 71.1338 87.7487 71.0476 87.6898 70.9818C87.6309 70.9159 87.5487 70.8754 87.4606 70.869H87.4583ZM87.5854 73.997C87.5873 74.0437 87.5709 74.0892 87.5398 74.124C87.5086 74.1588 87.4651 74.18 87.4185 74.1832H84.9684C84.9215 74.1806 84.8775 74.1595 84.8461 74.1247C84.8146 74.0898 84.7982 74.0439 84.8003 73.997V71.2721C84.7991 71.2488 84.8025 71.2256 84.8103 71.2036C84.8181 71.1816 84.8301 71.1614 84.8457 71.1441C84.8613 71.1268 84.8802 71.1128 84.9012 71.1028C84.9223 71.0928 84.9451 71.0871 84.9684 71.0859H87.4185C87.4652 71.0888 87.5089 71.11 87.5401 71.1448C87.5713 71.1797 87.5876 71.2254 87.5854 71.2721V73.997Z" fill="#85583C"/>
<path d="M85.0853 74.1139H57.3535V106.329H85.0853V74.1139Z" fill="#ED8136"/>
<path d="M57.3534 74.1139H40.636V106.329H57.3534V74.1139Z" fill="#FFAD6E"/>
<path d="M74.8157 95.2844H67.6218V106.329H74.8157V95.2844Z" fill="#DE7B3A"/>
<path d="M74.8157 74.1139H67.6218V85.1589H74.8157V74.1139Z" fill="#D4702F"/>
<path d="M50.3095 95.2844H47.6788V106.329H50.3095V95.2844Z" fill="#FFC59E"/>
<path d="M50.3095 74.1139H47.6788V85.1589H50.3095V74.1139Z" fill="#FFC59E"/>
<path fill-rule="evenodd" clip-rule="evenodd" d="M75.9113 102.968C75.9113 102.968 75.9079 102.973 75.909 102.968H75.9113ZM76.6243 103.469L76.6539 103.415L76.7015 103.45L76.7731 103.503L76.5732 102.839L75.9431 102.973L76.018 103.028L76.06 103.058L76.0373 103.109L75.8795 103.45C75.8657 103.487 75.8657 103.527 75.8795 103.564C75.8936 103.604 75.9135 103.642 75.9386 103.677L76.0521 103.867C76.1122 103.928 76.1937 103.962 76.2792 103.963H76.3484L76.6243 103.469ZM77.2556 104.111V104.887H76.6584C76.5448 104.887 76.4461 104.842 76.3666 104.681L75.8466 103.749C75.8149 103.704 75.7897 103.654 75.7717 103.602C75.7495 103.534 75.7523 103.46 75.7796 103.393L75.9136 103.102L75.8534 103.058C75.835 103.046 75.8204 103.029 75.8116 103.009C75.8027 102.989 75.7999 102.967 75.8035 102.945C75.8114 102.905 75.8455 102.871 75.9249 102.852L76.6062 102.706L76.6539 102.696L76.6686 102.748L76.8957 103.485C76.9072 103.515 76.9129 103.547 76.9127 103.578C76.9125 103.601 76.9058 103.622 76.8934 103.641C76.8874 103.649 76.8796 103.657 76.8706 103.662C76.8616 103.668 76.8516 103.671 76.8412 103.673C76.8277 103.674 76.8141 103.672 76.8014 103.667H76.7958H76.789L76.6981 103.6L76.4915 103.971H77.1466C77.2091 103.966 77.2522 103.991 77.2533 104.111H77.2556Z" fill="#85583C"/>
<path d="M78.3876 102.307C78.3876 102.307 78.3842 102.301 78.3876 102.307V102.307ZM77.4044 102.168L77.6314 102.711L77.6553 102.769L77.6031 102.795L77.5259 102.834L78.1299 103.003L78.3694 102.334L78.2888 102.375L78.2423 102.398L78.2173 102.349L78.0481 102.016C78.0393 102.001 78.0276 101.987 78.0136 101.977C77.9995 101.966 77.9835 101.958 77.9664 101.954C77.9288 101.947 77.8904 101.947 77.8528 101.954L77.3544 101.965L76.9343 101.828H77.8426C77.893 101.821 77.9441 101.824 77.9936 101.836C78.0258 101.844 78.0559 101.859 78.082 101.88C78.1082 101.901 78.1299 101.927 78.1458 101.956L78.29 102.241L78.3558 102.207C78.3733 102.196 78.3941 102.191 78.4148 102.193C78.4355 102.195 78.4547 102.205 78.4694 102.219C78.4955 102.249 78.5023 102.3 78.4694 102.385L78.2116 103.106L78.1935 103.157L78.1458 103.144L77.4748 102.956C77.4466 102.951 77.4199 102.94 77.3964 102.923C77.3794 102.909 77.3668 102.891 77.3601 102.87C77.3526 102.849 77.3526 102.825 77.3601 102.804C77.3665 102.791 77.375 102.779 77.3851 102.769H77.3908H77.3975L77.4963 102.72L77.2942 102.235L77.4044 102.168Z" fill="#85583C"/>
<path fill-rule="evenodd" clip-rule="evenodd" d="M76.982 102.928L77.4441 102.117C77.4662 102.075 77.4966 102.039 77.5336 102.009C77.5705 101.98 77.6131 101.959 77.6587 101.947L77.3544 101.833L76.8617 101.811C76.7984 101.799 76.7333 101.81 76.6764 101.839C76.6195 101.869 76.574 101.917 76.5472 101.975L76.2247 102.543L76.806 102.962C76.8969 103.027 76.9377 103.002 76.982 102.93V102.928Z" fill="#85583C"/>
<path fill-rule="evenodd" clip-rule="evenodd" d="M77.7063 105.037C77.7063 105.037 77.7109 105.036 77.7063 105.037V105.037ZM77.7291 104.092H77.6712V104.028V103.931L77.2636 104.463L77.6859 105.006V104.907V104.85H77.737L78.0776 104.83C78.0948 104.827 78.1113 104.821 78.126 104.811C78.1407 104.802 78.1532 104.79 78.1628 104.775C78.187 104.74 78.2062 104.702 78.2195 104.662L78.3081 104.456C78.3238 104.363 78.3087 104.268 78.265 104.185L78.2298 104.118L77.7291 104.092ZM77.8994 103.154L78.4943 102.76L78.7975 103.339C78.8314 103.398 78.8482 103.466 78.8462 103.535C78.8442 103.603 78.8234 103.67 78.7861 103.727L78.3319 104.705C78.3146 104.757 78.2897 104.806 78.2582 104.851C78.2391 104.878 78.2146 104.901 78.1863 104.918C78.1579 104.935 78.1263 104.946 78.0935 104.95L77.8029 104.967V105.048C77.8029 105.094 77.7836 105.137 77.7427 105.152C77.7018 105.167 77.6643 105.152 77.6099 105.082L77.1557 104.497L77.1239 104.456L77.1546 104.414L77.6087 103.825C77.6252 103.8 77.6465 103.779 77.6712 103.762C77.6794 103.756 77.6888 103.752 77.6987 103.75C77.7087 103.747 77.719 103.747 77.7291 103.749C77.7393 103.751 77.749 103.755 77.7576 103.761C77.7662 103.766 77.7735 103.774 77.779 103.783C77.7875 103.795 77.7932 103.81 77.796 103.825V103.84V103.962L78.1844 103.975L77.8528 103.34C77.8426 103.325 77.8357 103.308 77.8325 103.29C77.8293 103.273 77.8299 103.254 77.8343 103.237C77.8387 103.219 77.8468 103.203 77.858 103.189C77.8692 103.175 77.8833 103.163 77.8994 103.155V103.154Z" fill="#85583C"/>
<path d="M75.7092 101.158C75.4912 101.158 75.3118 101.368 75.3118 101.624V105.35C75.3118 105.607 75.4912 105.816 75.7092 105.816H78.8883C79.1074 105.816 79.2868 105.607 79.2868 105.35V101.624C79.2868 101.368 79.1074 101.158 78.8883 101.158H75.7092ZM75.5502 101.685C75.5476 101.655 75.551 101.624 75.5601 101.596C75.5693 101.567 75.5841 101.54 75.6037 101.517C75.6232 101.494 75.6471 101.476 75.674 101.462C75.7009 101.448 75.7302 101.44 75.7603 101.438H78.8384C78.8685 101.44 78.898 101.448 78.925 101.462C78.952 101.475 78.976 101.494 78.9957 101.517C79.0154 101.54 79.0303 101.567 79.0395 101.595C79.0488 101.624 79.0522 101.654 79.0495 101.685V105.291C79.0522 105.321 79.0488 105.351 79.0395 105.38C79.0303 105.409 79.0154 105.435 78.9957 105.458C78.976 105.481 78.952 105.5 78.925 105.513C78.898 105.527 78.8685 105.535 78.8384 105.537H75.7603C75.7302 105.535 75.7009 105.527 75.674 105.513C75.6471 105.499 75.6232 105.481 75.6037 105.458C75.5841 105.435 75.5693 105.408 75.5601 105.379C75.551 105.351 75.5476 105.321 75.5502 105.291V101.685Z" fill="#85583C"/>
<path d="M80.4052 105.271H82.4773C82.4966 105.268 82.5142 105.258 82.5269 105.243C82.5395 105.228 82.5465 105.209 82.5465 105.19C82.5465 105.17 82.5395 105.151 82.5269 105.136C82.5142 105.121 82.4966 105.111 82.4773 105.108H80.4052C80.3858 105.111 80.3683 105.121 80.3556 105.136C80.343 105.151 80.336 105.17 80.336 105.19C80.336 105.209 80.343 105.228 80.3556 105.243C80.3683 105.258 80.3858 105.268 80.4052 105.271Z" fill="#85583C"/>
<path fill-rule="evenodd" clip-rule="evenodd" d="M81.7586 102.328V104.764H82.1969V102.327L82.4115 102.326L81.9687 101.703L81.5293 102.329L81.7586 102.328Z" fill="#85583C"/>
<path fill-rule="evenodd" clip-rule="evenodd" d="M80.6834 102.329V104.765H81.1216V102.328L81.3362 102.327L80.8934 101.704L80.4529 102.331L80.6834 102.329Z" fill="#85583C"/>
<path d="M79.85 101.158C79.632 101.158 79.4526 101.368 79.4526 101.624V105.35C79.4526 105.607 79.632 105.816 79.85 105.816H83.0291C83.2482 105.816 83.4276 105.607 83.4276 105.35V101.624C83.4276 101.368 83.2482 101.158 83.0291 101.158H79.85ZM79.6911 101.685C79.6884 101.655 79.6918 101.624 79.7009 101.596C79.7101 101.567 79.7249 101.54 79.7445 101.517C79.764 101.494 79.7879 101.476 79.8148 101.462C79.8417 101.448 79.8711 101.44 79.9011 101.438H82.9792C83.0093 101.44 83.0388 101.448 83.0658 101.462C83.0928 101.475 83.1169 101.494 83.1365 101.517C83.1562 101.54 83.1711 101.567 83.1803 101.595C83.1896 101.624 83.193 101.654 83.1903 101.685V105.291C83.193 105.321 83.1896 105.351 83.1803 105.38C83.1711 105.409 83.1562 105.435 83.1365 105.458C83.1169 105.481 83.0928 105.5 83.0658 105.513C83.0388 105.527 83.0093 105.535 82.9792 105.537H79.9011C79.8711 105.535 79.8417 105.527 79.8148 105.513C79.7879 105.499 79.764 105.481 79.7445 105.458C79.7249 105.435 79.7101 105.408 79.7009 105.379C79.6918 105.351 79.6884 105.321 79.6911 105.291V101.685Z" fill="#85583C"/>
<path d="M108.076 75.7354H80.6345V106.331H108.076V75.7354Z" fill="#FFA15E"/>
<path d="M126.656 75.7354H108.076V106.33H126.656V75.7354Z" fill="#EB843F"/>
<g style="mix-blend-mode:multiply">
<path d="M108.076 70.9814H80.6334V77.9573H108.076V70.9814Z" fill="#B2B2B2"/>
</g>
<g style="mix-blend-mode:multiply">
<path d="M126.656 70.9814H108.076V77.9573H126.656V70.9814Z" fill="#B2B2B2"/>
</g>
<path d="M109.703 70.6261H79.0052V77.6019H109.703V70.6261Z" fill="#FFB47D"/>
<path d="M128.352 70.6261H108.076V77.6019H128.352V70.6261Z" fill="#F59D5B"/>
<path fill-rule="evenodd" clip-rule="evenodd" d="M92.2098 102.181C92.2098 102.181 92.2121 102.192 92.2098 102.183V102.181ZM91.5899 103.424H91.6864C91.8054 103.425 91.9207 103.382 92.01 103.304L92.1689 103.066C92.2025 103.023 92.23 102.976 92.2507 102.926C92.2599 102.904 92.2647 102.88 92.2647 102.856C92.2647 102.833 92.2599 102.809 92.2507 102.787L92.0304 102.361L91.9975 102.298L92.0577 102.259L92.161 102.191L91.2754 102.023L90.9927 102.853L91.0937 102.787L91.1607 102.743L91.2027 102.811L91.5899 103.424ZM90.4817 103.424H91.4014L91.1096 102.96L90.9825 103.044L90.9734 103.049H90.9654C90.9471 103.055 90.9278 103.057 90.9086 103.055C90.8947 103.054 90.8812 103.05 90.8689 103.043C90.8566 103.036 90.8458 103.027 90.8371 103.016C90.8186 102.994 90.8085 102.966 90.8087 102.937C90.8094 102.898 90.8175 102.859 90.8326 102.823L91.146 101.902L91.1675 101.837L91.2345 101.849L92.1905 102.031C92.304 102.055 92.3506 102.097 92.3608 102.145C92.3648 102.172 92.3601 102.201 92.3476 102.226C92.335 102.251 92.3151 102.272 92.2904 102.285L92.2053 102.341L92.3937 102.704C92.4134 102.745 92.4245 102.789 92.4265 102.834C92.4284 102.879 92.4212 102.924 92.4051 102.967C92.3797 103.032 92.3444 103.094 92.3006 103.149L91.5683 104.315C91.5344 104.396 91.4767 104.463 91.403 104.51C91.3293 104.556 91.2431 104.579 91.1562 104.574H90.316V103.609C90.3171 103.46 90.3796 103.429 90.4829 103.424H90.4817Z" fill="#85583C"/>
<path d="M88.7185 101.35C88.722 101.347 88.7254 101.338 88.7185 101.35V101.35ZM90.249 101.251L89.9641 101.856L90.1037 101.918H90.1139L90.1207 101.924C90.1357 101.936 90.1481 101.951 90.1571 101.968C90.1634 101.981 90.1672 101.995 90.1682 102.009C90.1691 102.023 90.1673 102.037 90.1628 102.05C90.1534 102.077 90.1354 102.1 90.1116 102.116C90.0772 102.138 90.0385 102.152 89.9981 102.158L89.0535 102.392L88.9865 102.409L88.9615 102.345L88.5982 101.437C88.5573 101.331 88.5675 101.267 88.5982 101.23C88.6195 101.212 88.6457 101.201 88.6735 101.198C88.7013 101.196 88.7292 101.201 88.7537 101.215L88.8468 101.257L89.0512 100.901C89.0748 100.863 89.1058 100.83 89.1425 100.804C89.1792 100.778 89.2207 100.76 89.2646 100.75C89.334 100.735 89.4054 100.732 89.4758 100.74H90.7622L90.1695 100.911L89.469 100.897C89.4149 100.891 89.3602 100.893 89.3067 100.903C89.2602 100.913 89.2194 100.941 89.1931 100.981L88.9547 101.397L88.9183 101.459L88.8536 101.429L88.7401 101.378L89.0807 102.215L89.9323 102.004L89.8187 101.955L89.746 101.922L89.7801 101.849L90.098 101.168L90.249 101.251Z" fill="#85583C"/>
<path fill-rule="evenodd" clip-rule="evenodd" d="M90.6952 102.133L90.0446 101.119C90.0112 101.065 89.9671 101.018 89.915 100.982C89.8628 100.945 89.8038 100.92 89.7415 100.907L90.1706 100.765L90.8655 100.735C90.9514 100.72 91.0399 100.732 91.1189 100.769C91.198 100.806 91.2637 100.866 91.3072 100.942L91.7613 101.649L90.9438 102.174C90.8155 102.253 90.7588 102.223 90.6952 102.133Z" fill="#85583C"/>
<path fill-rule="evenodd" clip-rule="evenodd" d="M89.6757 104.771C89.6757 104.771 89.6655 104.767 89.6746 104.771H89.6757ZM88.9195 103.608L88.8707 103.691C88.8095 103.793 88.7881 103.914 88.8105 104.031L88.9343 104.289C88.9538 104.34 88.9806 104.388 89.0137 104.431C89.0284 104.45 89.0468 104.465 89.0677 104.477C89.0885 104.489 89.1115 104.496 89.1352 104.498L89.6132 104.524H89.6848V104.596V104.72L90.2786 104.038L89.7109 103.373L89.7165 103.493V103.574H89.6371L88.9195 103.608ZM89.4815 102.653L89.0137 103.448L89.5621 103.432L89.5542 103.28V103.261C89.5583 103.242 89.5665 103.224 89.578 103.208C89.5861 103.197 89.5964 103.187 89.6083 103.18C89.6202 103.173 89.6335 103.168 89.6473 103.166C89.6759 103.161 89.7054 103.167 89.7302 103.182C89.7639 103.203 89.7935 103.229 89.8176 103.261L90.4534 103.999L90.4977 104.05L90.4534 104.102L89.8119 104.833C89.7347 104.917 89.6734 104.938 89.6246 104.922C89.599 104.91 89.5773 104.892 89.5622 104.869C89.547 104.845 89.5391 104.818 89.5394 104.79V104.783V104.682L89.1296 104.66C89.0407 104.651 88.9592 104.607 88.9025 104.538C88.8581 104.482 88.8225 104.42 88.7969 104.354L88.1645 103.131C88.1121 103.062 88.0825 102.978 88.0799 102.89C88.0773 102.803 88.1017 102.718 88.1497 102.645L88.5755 101.921L89.4123 102.414C89.5338 102.491 89.5315 102.555 89.4804 102.653H89.4815Z" fill="#85583C"/>
<path d="M92.4903 99.9167H88.0112C87.8596 99.9206 87.7156 99.984 87.6105 100.093C87.5053 100.202 87.4473 100.349 87.4492 100.5V105.155C87.447 105.307 87.5049 105.453 87.6102 105.562C87.7155 105.672 87.8596 105.735 88.0112 105.738H92.4903C92.5653 105.737 92.6394 105.721 92.7082 105.691C92.777 105.661 92.8392 105.617 92.8911 105.563C92.9431 105.509 92.9838 105.445 93.0108 105.375C93.0379 105.305 93.0509 105.23 93.0489 105.155V100.5C93.0513 100.349 92.9941 100.203 92.8895 100.094C92.7849 99.9845 92.6415 99.9209 92.4903 99.9167ZM92.7174 105.086C92.718 105.166 92.6874 105.243 92.632 105.301C92.5767 105.359 92.5009 105.392 92.421 105.395H88.0861C88.006 105.393 87.93 105.359 87.8745 105.301C87.819 105.244 87.7885 105.166 87.7898 105.086V100.575C87.7889 100.536 87.7958 100.496 87.8103 100.459C87.8247 100.422 87.8463 100.388 87.8738 100.359C87.9013 100.331 87.9343 100.308 87.9707 100.292C88.0071 100.276 88.0464 100.267 88.0861 100.266H92.4233C92.5034 100.269 92.5795 100.302 92.6349 100.36C92.6904 100.418 92.7209 100.495 92.7196 100.575L92.7174 105.086Z" fill="#85583C"/>
<path d="M85.8766 105.061H82.9598C82.9327 105.061 82.9067 105.05 82.8875 105.031C82.8684 105.012 82.8576 104.986 82.8576 104.959C82.8576 104.932 82.8684 104.906 82.8875 104.887C82.9067 104.868 82.9327 104.857 82.9598 104.857H85.8766C85.9037 104.857 85.9297 104.868 85.9488 104.887C85.968 104.906 85.9788 104.932 85.9788 104.959C85.9788 104.986 85.968 105.012 85.9488 105.031C85.9297 105.05 85.9037 105.061 85.8766 105.061Z" fill="#85583C"/>
<path fill-rule="evenodd" clip-rule="evenodd" d="M83.9715 101.38V104.427H83.355V101.379L83.0518 101.378L83.6763 100.598L84.2951 101.381L83.9715 101.38Z" fill="#85583C"/>
<path fill-rule="evenodd" clip-rule="evenodd" d="M85.4861 101.383V104.428H84.8696V101.38L84.5664 101.379L85.1897 100.599L85.8097 101.384L85.4861 101.383Z" fill="#85583C"/>
<path d="M86.6589 99.9167H82.181C82.0294 99.9206 81.8854 99.984 81.7802 100.093C81.675 100.202 81.6171 100.349 81.619 100.5V105.155C81.6168 105.307 81.6747 105.453 81.78 105.562C81.8853 105.672 82.0294 105.735 82.181 105.738H86.6589C86.734 105.737 86.808 105.721 86.8768 105.691C86.9456 105.661 87.0078 105.617 87.0598 105.563C87.1117 105.509 87.1524 105.445 87.1795 105.375C87.2066 105.305 87.2195 105.23 87.2175 105.155V100.5C87.2203 100.349 87.1631 100.203 87.0585 100.093C86.9538 99.9841 86.8102 99.9206 86.6589 99.9167ZM86.886 105.086C86.8866 105.166 86.856 105.243 86.8007 105.301C86.7453 105.359 86.6696 105.392 86.5897 105.395H82.2548C82.1746 105.393 82.0986 105.359 82.0431 105.301C81.9876 105.244 81.9572 105.166 81.9584 105.086V100.575C81.9575 100.536 81.9645 100.496 81.9789 100.459C81.9933 100.422 82.0149 100.388 82.0425 100.359C82.07 100.331 82.1029 100.308 82.1393 100.292C82.1758 100.276 82.215 100.267 82.2548 100.266H86.5897C86.6698 100.269 86.7458 100.302 86.8013 100.36C86.8568 100.418 86.8872 100.495 86.886 100.575V105.086Z" fill="#85583C"/>
<path d="M134.37 91.641H113.948V106.331H134.37V91.641Z" fill="#FFAD6E"/>
<path d="M143.98 91.641H134.369V106.331H143.98V91.641Z" fill="#ED8945"/>
<path d="M127.012 91.641H121.305V99.4229H127.012V91.641Z" fill="#FFC59E"/>
<path d="M140.194 91.641H138.107V99.4229H140.194V91.641Z" fill="#DE7B3A"/>
<path fill-rule="evenodd" clip-rule="evenodd" d="M120.991 103.871C120.991 103.871 120.992 103.877 120.991 103.871V103.871ZM120.626 104.603H120.683C120.753 104.603 120.821 104.577 120.874 104.531L120.967 104.391C120.988 104.367 121.004 104.339 121.016 104.31C121.021 104.297 121.024 104.283 121.024 104.269C121.024 104.255 121.021 104.241 121.016 104.228L120.886 103.977L120.867 103.939L120.902 103.917L120.964 103.877L120.441 103.777L120.276 104.266L120.335 104.228L120.374 104.202L120.399 104.241L120.626 104.603ZM119.973 104.603H120.516L120.345 104.329L120.27 104.379H120.264C120.253 104.381 120.241 104.381 120.23 104.379C120.214 104.377 120.198 104.368 120.188 104.355C120.177 104.342 120.172 104.325 120.172 104.308C120.172 104.285 120.176 104.263 120.186 104.241L120.37 103.698L120.383 103.66L120.423 103.667L120.985 103.775C121.051 103.788 121.079 103.813 121.086 103.843C121.088 103.859 121.086 103.876 121.078 103.891C121.071 103.906 121.059 103.918 121.044 103.926L120.994 103.958L121.108 104.172C121.119 104.196 121.125 104.222 121.126 104.249C121.127 104.275 121.123 104.302 121.113 104.327C121.098 104.365 121.078 104.402 121.052 104.434L120.621 105.116C120.601 105.163 120.567 105.203 120.524 105.231C120.481 105.258 120.43 105.272 120.379 105.269H119.884V104.701C119.876 104.624 119.909 104.606 119.973 104.603Z" fill="#85583C"/>
<path d="M118.935 103.381C118.935 103.381 118.938 103.382 118.935 103.382V103.381ZM119.836 103.321L119.668 103.677L119.75 103.715H119.757C119.766 103.721 119.773 103.73 119.778 103.74C119.785 103.755 119.785 103.773 119.778 103.788C119.773 103.804 119.762 103.818 119.748 103.827C119.728 103.84 119.706 103.849 119.683 103.852L119.126 103.991L119.087 104L119.072 103.962L118.859 103.431C118.835 103.368 118.84 103.331 118.859 103.309C118.871 103.299 118.887 103.292 118.903 103.29C118.919 103.289 118.936 103.292 118.95 103.299L119.005 103.323L119.125 103.114C119.139 103.091 119.158 103.072 119.179 103.057C119.201 103.041 119.225 103.031 119.251 103.025C119.292 103.017 119.334 103.015 119.375 103.019H120.132L119.784 103.12L119.371 103.111C119.339 103.106 119.307 103.106 119.275 103.111C119.247 103.117 119.223 103.134 119.207 103.157L119.066 103.401L119.046 103.438L119.007 103.421L118.94 103.391L119.139 103.884L119.641 103.759L119.576 103.731L119.533 103.711L119.552 103.668L119.741 103.268L119.836 103.321Z" fill="#85583C"/>
<path fill-rule="evenodd" clip-rule="evenodd" d="M120.098 103.843L119.716 103.246C119.696 103.214 119.67 103.187 119.639 103.165C119.609 103.143 119.574 103.128 119.537 103.12L119.79 103.037L120.198 103.02C120.249 103.011 120.301 103.018 120.348 103.039C120.395 103.061 120.434 103.097 120.459 103.141L120.726 103.557L120.245 103.867C120.17 103.913 120.131 103.895 120.098 103.843Z" fill="#85583C"/>
<path fill-rule="evenodd" clip-rule="evenodd" d="M119.498 105.395C119.498 105.395 119.492 105.394 119.498 105.395V105.395ZM119.053 104.71L119.023 104.759C118.988 104.82 118.975 104.891 118.988 104.96L119.061 105.111C119.072 105.141 119.088 105.17 119.107 105.195C119.125 105.217 119.151 105.231 119.179 105.235L119.461 105.25H119.503V105.292V105.365L119.853 104.966L119.513 104.574V104.645V104.692H119.466L119.053 104.71ZM119.383 104.148L119.108 104.616L119.431 104.607V104.517V104.505C119.433 104.494 119.438 104.483 119.444 104.474C119.455 104.461 119.47 104.453 119.486 104.45C119.503 104.447 119.521 104.45 119.535 104.459C119.555 104.472 119.572 104.487 119.586 104.506L119.96 104.94L119.987 104.97L119.96 105.001L119.583 105.431C119.537 105.481 119.501 105.493 119.469 105.484C119.454 105.477 119.442 105.466 119.433 105.453C119.424 105.439 119.419 105.423 119.419 105.406V105.347L119.179 105.335C119.152 105.332 119.127 105.325 119.103 105.312C119.08 105.3 119.059 105.283 119.042 105.262C119.016 105.229 118.995 105.193 118.98 105.154L118.608 104.434C118.577 104.393 118.56 104.344 118.558 104.293C118.556 104.242 118.571 104.191 118.599 104.148L118.849 103.721L119.343 104.012C119.415 104.053 119.414 104.092 119.383 104.148Z" fill="#85583C"/>
<path d="M121.155 102.537H118.518C118.429 102.54 118.345 102.577 118.284 102.641C118.222 102.704 118.187 102.789 118.188 102.878V105.623C118.187 105.712 118.222 105.797 118.284 105.861C118.345 105.924 118.429 105.961 118.518 105.964H121.155C121.244 105.961 121.327 105.923 121.388 105.86C121.449 105.796 121.484 105.711 121.484 105.623V102.878C121.484 102.79 121.449 102.705 121.388 102.641C121.327 102.578 121.244 102.54 121.155 102.537ZM121.287 105.581C121.287 105.628 121.269 105.674 121.237 105.708C121.204 105.742 121.159 105.761 121.112 105.763H118.56C118.513 105.762 118.468 105.742 118.435 105.708C118.402 105.674 118.384 105.628 118.385 105.581V102.928C118.385 102.904 118.389 102.881 118.397 102.859C118.406 102.838 118.419 102.818 118.435 102.801C118.451 102.784 118.47 102.77 118.492 102.761C118.513 102.752 118.537 102.747 118.56 102.746H121.112C121.136 102.747 121.159 102.752 121.18 102.761C121.202 102.77 121.221 102.784 121.237 102.801C121.254 102.818 121.266 102.838 121.275 102.859C121.283 102.881 121.288 102.904 121.287 102.928V105.581Z" fill="#85583C"/>
<path d="M117.261 105.567H115.543C115.527 105.567 115.512 105.56 115.501 105.549C115.489 105.538 115.483 105.522 115.483 105.506C115.483 105.49 115.489 105.475 115.501 105.464C115.512 105.453 115.527 105.446 115.543 105.446H117.261C117.277 105.446 117.292 105.453 117.304 105.464C117.315 105.475 117.321 105.49 117.321 105.506C117.321 105.522 117.315 105.538 117.304 105.549C117.292 105.56 117.277 105.567 117.261 105.567Z" fill="#85583C"/>
<path fill-rule="evenodd" clip-rule="evenodd" d="M116.139 103.399V105.193H115.776V103.398H115.598L115.964 102.938L116.33 103.4L116.139 103.399Z" fill="#85583C"/>
<path fill-rule="evenodd" clip-rule="evenodd" d="M117.031 103.4V105.194H116.667V103.399H116.489L116.857 102.939L117.221 103.401L117.031 103.4Z" fill="#85583C"/>
<path d="M117.722 102.537H115.085C114.996 102.54 114.912 102.577 114.85 102.641C114.789 102.704 114.754 102.789 114.754 102.878V105.623C114.754 105.712 114.789 105.797 114.85 105.861C114.912 105.924 114.996 105.961 115.085 105.964H117.722C117.81 105.961 117.894 105.923 117.955 105.86C118.016 105.796 118.05 105.711 118.05 105.623V102.878C118.05 102.79 118.016 102.705 117.955 102.641C117.894 102.578 117.81 102.54 117.722 102.537ZM117.854 105.581C117.854 105.628 117.836 105.674 117.803 105.708C117.771 105.742 117.726 105.761 117.679 105.763H115.131C115.084 105.762 115.039 105.742 115.006 105.708C114.974 105.674 114.956 105.628 114.956 105.581V102.928C114.956 102.904 114.96 102.881 114.969 102.859C114.977 102.838 114.99 102.818 115.006 102.801C115.022 102.784 115.042 102.77 115.063 102.761C115.085 102.752 115.108 102.747 115.131 102.746H117.683C117.707 102.747 117.73 102.752 117.751 102.761C117.773 102.77 117.792 102.784 117.809 102.801C117.825 102.818 117.838 102.838 117.846 102.859C117.855 102.881 117.859 102.904 117.858 102.928L117.854 105.581Z" fill="#85583C"/>
<g style="mix-blend-mode:multiply">
<path d="M100.993 81.6746L112.109 90.4806V106.33H100.999L100.993 81.6746Z" fill="#F0E2DA"/>
</g>
<path d="M89.3237 81.6621H63.8921V106.33H89.3237V81.6621Z" fill="#FFAD6E"/>
<path d="M100.999 81.6621H89.3237V106.33H100.999V81.6621Z" fill="#ED8945"/>
<path d="M78.8463 81.6746H74.3695V89.4565H78.8463V81.6746Z" fill="#FFC59E"/>
<path d="M78.8463 98.5293H74.3695V106.311H78.8463V98.5293Z" fill="#FFC59E"/>
<path d="M97.419 81.6746H94.1707V89.4565H97.419V81.6746Z" fill="#DE7B3A"/>
<path d="M97.419 98.5192H94.1707V106.301H97.419V98.5192Z" fill="#DE7B3A"/>
<path fill-rule="evenodd" clip-rule="evenodd" d="M71.4425 103.549C71.4425 103.549 71.4436 103.553 71.4425 103.549V103.549ZM71.078 104.279H71.1348C71.2049 104.28 71.2729 104.255 71.3255 104.209L71.4198 104.069C71.44 104.044 71.4564 104.016 71.4686 103.986C71.4787 103.96 71.4787 103.931 71.4686 103.904L71.338 103.653L71.3187 103.617L71.3539 103.593L71.4152 103.553L70.8941 103.455L70.7272 103.944L70.7873 103.905L70.826 103.879L70.8521 103.919L71.078 104.279ZM70.4263 104.279H70.9645L70.7919 104.006L70.717 104.055H70.7113C70.7004 104.058 70.6892 104.058 70.6783 104.055C70.6701 104.055 70.6621 104.052 70.6548 104.049C70.6476 104.045 70.6413 104.039 70.6364 104.033C70.6253 104.02 70.6193 104.003 70.6193 103.986C70.6199 103.963 70.6245 103.94 70.6329 103.918L70.818 103.375L70.8305 103.337L70.8702 103.344L71.4379 103.451C71.5026 103.465 71.5322 103.49 71.5378 103.519C71.5402 103.536 71.5375 103.552 71.5302 103.567C71.523 103.582 71.5113 103.594 71.497 103.602L71.447 103.635L71.5605 103.849C71.5719 103.873 71.5784 103.899 71.5796 103.925C71.5808 103.952 71.5766 103.978 71.5674 104.003C71.5529 104.042 71.5318 104.079 71.5049 104.111L71.0746 104.798C71.0546 104.845 71.0206 104.885 70.9771 104.912C70.9336 104.939 70.8829 104.953 70.8316 104.95H70.3366V104.382C70.3275 104.3 70.3616 104.282 70.4263 104.279Z" fill="#85583C"/>
<path d="M69.3874 103.055C69.3874 103.055 69.3908 103.054 69.3863 103.058L69.3874 103.055ZM70.2889 102.995L70.1209 103.351L70.2038 103.388H70.2095C70.2181 103.395 70.225 103.404 70.2299 103.414C70.2362 103.429 70.2362 103.446 70.2299 103.462C70.2248 103.478 70.2144 103.492 70.2004 103.501C70.1803 103.513 70.1584 103.521 70.1356 103.526L69.5782 103.664L69.5396 103.674L69.5248 103.636L69.3102 103.105C69.2875 103.043 69.2932 103.004 69.3102 102.984C69.3227 102.973 69.3382 102.966 69.3546 102.964C69.371 102.962 69.3876 102.965 69.4022 102.973L69.4567 102.998L69.577 102.788C69.606 102.743 69.6511 102.712 69.703 102.7C69.7444 102.693 69.7866 102.693 69.8279 102.7H70.5852L70.2367 102.801L69.8234 102.793C69.7914 102.788 69.7589 102.788 69.7269 102.793C69.7133 102.796 69.7003 102.801 69.6888 102.809C69.6773 102.817 69.6675 102.827 69.6599 102.838L69.5191 103.083L69.4976 103.12L69.4589 103.103L69.3931 103.072L69.5906 103.565L70.0925 103.441L70.0278 103.412L69.9846 103.392L70.0051 103.35L70.1924 102.951L70.2889 102.995Z" fill="#85583C"/>
<path fill-rule="evenodd" clip-rule="evenodd" d="M70.5501 103.519L70.1697 102.928C70.1501 102.896 70.1241 102.868 70.0935 102.847C70.0628 102.826 70.0281 102.811 69.9915 102.803L70.2446 102.72L70.6534 102.702C70.704 102.693 70.7561 102.7 70.8026 102.722C70.8491 102.743 70.8878 102.779 70.9134 102.823L71.1802 103.24L70.6988 103.549C70.6239 103.597 70.5853 103.577 70.5524 103.525L70.5501 103.519Z" fill="#85583C"/>
<path fill-rule="evenodd" clip-rule="evenodd" d="M69.9494 105.073C69.9494 105.073 69.9426 105.07 69.9494 105.073V105.073ZM69.5043 104.388L69.476 104.437C69.4397 104.497 69.4268 104.568 69.4397 104.637L69.5134 104.789C69.5249 104.819 69.5406 104.847 69.56 104.873C69.5781 104.894 69.6036 104.909 69.6315 104.913L69.9131 104.927H69.9551V104.969V105.042L70.3059 104.642L69.9653 104.252V104.322V104.37H69.9176L69.5043 104.388ZM69.8359 103.82L69.56 104.289L69.8824 104.279V104.189V104.178C69.8848 104.167 69.8895 104.156 69.8961 104.147C69.9059 104.134 69.9206 104.125 69.9369 104.122C69.9538 104.12 69.9709 104.123 69.9858 104.131C70.0054 104.144 70.0227 104.16 70.0369 104.178L70.4115 104.613L70.4377 104.643L70.4115 104.673L70.0335 105.104C69.9892 105.153 69.9528 105.166 69.9199 105.157C69.9047 105.15 69.8918 105.139 69.8829 105.125C69.874 105.111 69.8695 105.095 69.87 105.078V105.019L69.6281 105.006C69.6017 105.003 69.5759 104.996 69.5525 104.983C69.5291 104.971 69.5085 104.954 69.4919 104.933C69.4655 104.899 69.4447 104.86 69.4306 104.819L69.0581 104.1C69.0272 104.059 69.0097 104.009 69.0081 103.958C69.0064 103.907 69.0207 103.856 69.0491 103.813L69.3 103.388L69.7927 103.677C69.8665 103.729 69.8654 103.768 69.8359 103.825V103.82Z" fill="#85583C"/>
<path d="M71.6071 102.214H68.9695C68.881 102.216 68.797 102.253 68.7353 102.317C68.6736 102.381 68.6391 102.466 68.6392 102.554V105.298C68.6391 105.387 68.6736 105.472 68.7353 105.536C68.797 105.599 68.881 105.636 68.9695 105.639H71.6071C71.6954 105.636 71.7792 105.599 71.8406 105.535C71.9021 105.472 71.9364 105.387 71.9363 105.298V102.554C71.9364 102.466 71.9021 102.381 71.8406 102.317C71.7792 102.254 71.6954 102.217 71.6071 102.214ZM71.7388 105.258C71.7397 105.305 71.722 105.35 71.6895 105.385C71.6569 105.419 71.6122 105.439 71.5651 105.44H69.0127C68.9653 105.439 68.9203 105.419 68.8876 105.385C68.8548 105.351 68.8369 105.305 68.8379 105.258V102.602C68.8372 102.578 68.8413 102.555 68.8498 102.533C68.8583 102.511 68.871 102.491 68.8873 102.475C68.9036 102.458 68.923 102.444 68.9445 102.435C68.9661 102.426 68.9893 102.421 69.0127 102.42H71.5651C71.6121 102.421 71.6568 102.441 71.6894 102.475C71.7219 102.509 71.7397 102.555 71.7388 102.602V105.258Z" fill="#85583C"/>
<path d="M67.7127 105.244H65.996C65.98 105.244 65.9647 105.238 65.9534 105.226C65.9421 105.215 65.9358 105.2 65.9358 105.184C65.9356 105.176 65.9371 105.168 65.9401 105.161C65.943 105.153 65.9475 105.147 65.9531 105.141C65.9587 105.135 65.9654 105.131 65.9728 105.128C65.9802 105.125 65.988 105.124 65.996 105.124H67.7127C67.7206 105.124 67.7285 105.125 67.7359 105.128C67.7433 105.131 67.75 105.135 67.7556 105.141C67.7612 105.147 67.7656 105.153 67.7686 105.161C67.7716 105.168 67.773 105.176 67.7729 105.184C67.7729 105.2 67.7665 105.215 67.7553 105.226C67.744 105.238 67.7287 105.244 67.7127 105.244Z" fill="#85583C"/>
<path fill-rule="evenodd" clip-rule="evenodd" d="M66.5909 103.077V104.869H66.2276V103.075L66.0493 103.074L66.4172 102.616L66.7816 103.077H66.5909Z" fill="#85583C"/>
<path fill-rule="evenodd" clip-rule="evenodd" d="M67.4834 103.078V104.87H67.12V103.077L66.9418 103.075L67.3085 102.617L67.6741 103.078H67.4834Z" fill="#85583C"/>
<path d="M68.1736 102.214H65.5361C65.4476 102.216 65.3636 102.253 65.3019 102.317C65.2402 102.381 65.2057 102.466 65.2057 102.554V105.298C65.2057 105.387 65.2402 105.472 65.3019 105.536C65.3636 105.599 65.4476 105.636 65.5361 105.639H68.1736C68.262 105.636 68.3458 105.599 68.4072 105.535C68.4686 105.472 68.503 105.387 68.5029 105.298V102.554C68.503 102.466 68.4686 102.381 68.4072 102.317C68.3458 102.254 68.262 102.217 68.1736 102.214ZM68.3054 105.258C68.306 105.305 68.2882 105.35 68.2557 105.384C68.2233 105.419 68.1787 105.439 68.1316 105.44H65.5793C65.5319 105.439 65.4869 105.419 65.4542 105.385C65.4214 105.351 65.4035 105.305 65.4044 105.258V102.602C65.4038 102.578 65.4079 102.555 65.4164 102.533C65.4249 102.511 65.4376 102.491 65.4539 102.475C65.4702 102.458 65.4896 102.444 65.5111 102.435C65.5327 102.426 65.5558 102.421 65.5793 102.42H68.1316C68.1787 102.421 68.2234 102.441 68.256 102.475C68.2885 102.509 68.3063 102.555 68.3054 102.602V105.258Z" fill="#85583C"/>
<path d="M36.6576 8.87913C36.6576 8.93931 36.6508 9.05286 36.6485 9.12553C36.6156 10.2745 37.307 11.419 35.8912 14.1587L35.5687 16.9643L31.8219 16.4533L32.2863 14.044C32.1047 13.5263 31.2202 12.6316 30.942 12.014C30.7149 11.5201 30.3301 9.97024 30.3312 9.07669C30.3312 8.81782 30.1484 8.33415 30.2687 8.08891C30.2812 8.06393 30.3482 8.05145 30.3743 8.0435C30.7252 7.94132 31.0124 8.08209 31.2066 8.36593C31.5529 8.83826 31.4132 9.2436 31.5279 9.53653C31.5676 9.66255 31.6641 9.83854 31.7027 9.9305C31.7051 9.9384 31.7101 9.9453 31.7167 9.95021C31.7233 9.95512 31.7314 9.95778 31.7396 9.95778C31.7479 9.95778 31.7559 9.95512 31.7626 9.95021C31.7692 9.9453 31.7741 9.9384 31.7765 9.9305C31.9764 9.13573 32.2965 7.80167 32.4419 6.99668C32.6258 5.97483 33.1333 4.6589 33.2923 4.48859C33.6045 4.15479 33.9792 4.11277 34.1291 4.68047C34.1291 4.68047 34.2335 4.06851 34.3732 3.93567C34.6979 3.63139 35.3428 3.80055 35.1679 4.57034C35.1679 4.57034 35.4484 4.39775 35.6221 4.45112C35.7153 4.47692 35.7991 4.52912 35.8634 4.60144C35.9276 4.67376 35.9696 4.76311 35.9843 4.85873C36.0172 5.09149 35.9922 6.07246 35.9922 6.10766C36.0297 6.0353 36.0881 5.97585 36.1597 5.93699C36.2314 5.89813 36.313 5.88166 36.3942 5.88967C36.8597 5.94304 36.7722 7.0012 36.6576 8.87913Z" fill="#FECDAC"/>
<path d="M34.3153 25.4001C35.118 22.9545 36.8268 10.614 36.4248 9.82146C35.1146 9.93499 33.114 8.50101 31.8833 9.20495C33.2083 11.1113 30.7252 19.1191 28.87 21.0868C26.5992 23.4904 16.5487 21.4092 15.6324 26.2903C15.1976 28.6042 17.8817 29.0697 19.9674 29.0799C20.6225 29.0799 22.002 28.5622 23.2702 28.4918C24.5384 28.4214 33.6976 27.2815 34.3153 25.4001Z" fill="#F28D3F"/>
<path d="M9.14753 1.57989L5.85345 20.4347L31.4055 24.8988L34.6996 6.04404L9.14753 1.57989Z" fill="#FFB882"/>
<path d="M40.3521 5.65796L37.0583 24.5122L31.403 24.8948L34.6967 6.04058L40.3521 5.65796Z" fill="#ED9558"/>
<path d="M17.1776 15.7515L16.0482 22.2161L21.0901 23.0969L22.2195 16.6323L17.1776 15.7515Z" fill="#FFC59E"/>
<path d="M19.3428 3.3602L18.2134 9.82483L23.2553 10.7057L24.3847 4.24106L19.3428 3.3602Z" fill="#FFC59E"/>
<path d="M9.14709 1.57623L14.8025 1.1936L40.2181 5.66703L34.6967 6.04058L9.14709 1.57623Z" fill="#FFC494"/>
<path d="M19.3406 3.35767L24.9517 2.97278L30.0371 3.85384L24.3828 4.23647L19.3406 3.35767Z" fill="#FFCEAD"/>
<path d="M6.21892 101.889C4.80423 101.435 3.98675 101.302 2.54595 101.911C2.38245 101.98 2.36882 102.209 2.31091 102.437C2.31091 102.525 2.39152 102.811 2.48008 102.811H6.32564C6.41307 102.811 6.64015 102.633 6.62425 102.546C6.55045 102.143 6.47439 101.972 6.21892 101.889Z" fill="#2D3A64"/>
<path d="M15.5882 13.0448H7.60187V23.0396H15.5882V13.0448Z" fill="#FAAF9E"/>
<path d="M18.8956 10.2131C18.8947 10.2276 18.8928 10.242 18.8899 10.2562C18.8614 10.3817 18.8143 10.5023 18.7502 10.6139C18.5983 10.8663 18.4919 11.1433 18.4357 11.4325C18.3529 12.0751 18.6787 13.1958 18.6628 13.5648C18.6004 15.2395 17.6909 19.387 16.3103 19.4688C13.3969 19.6368 11.788 18.6922 10.4063 16.9357C9.93848 16.3408 9.69551 15.2906 9.38441 14.5991C8.30239 12.1909 7.95269 9.67833 8.23199 7.05218C8.29217 6.48449 8.39662 5.88613 8.74064 5.42402C10.3234 3.30312 14.5391 4.38287 15.553 4.711C17.1652 5.23555 18.2688 6.57873 18.5254 7.90599C18.6049 8.30565 18.9546 9.1742 18.8956 10.2131Z" fill="#FEBAA5"/>
<path d="M12.7576 6.03715C12.232 6.03715 11.6166 6.1666 11.3952 6.6446C11.2033 7.06242 11.4077 7.54381 11.5882 7.96731C11.7687 8.39081 11.9163 8.91083 11.6427 9.27983C11.3691 9.64883 10.7866 9.67836 10.4857 10.0337C10.1565 10.4254 10.2927 11.0556 10.002 11.4745C9.71138 11.8935 9.09373 11.9525 8.57032 11.9559C8.11616 11.9559 7.64952 11.9559 7.23396 11.78C6.28478 11.3701 5.97369 10.304 5.82382 9.31049C5.53884 7.43028 5.69892 5.78398 7.00689 4.07068C8.37616 2.27677 11.2078 1.82375 14.9546 2.65826C16.3659 2.97277 18.2574 4.09905 18.4743 5.5285C18.5061 5.74649 18.2643 6.72067 18.1451 6.9046C17.6557 6.2052 17.4638 6.18136 17.1232 6.19726C16.6781 6.2177 16.5862 6.55378 16.1411 6.57422C15.7846 6.59125 15.4372 6.65028 15.1022 6.51176C14.3598 6.19978 13.5629 6.03844 12.7576 6.03715Z" fill="#294E95"/>
<path d="M8.93477 13.717C8.93477 13.6204 8.94158 13.5183 8.94158 13.4127C8.94158 12.1093 8.59074 10.2131 7.3123 10.2131C6.55726 10.2131 6.26093 10.5629 6.26093 11.2282C6.26093 12.1853 7.42129 14.7479 8.37615 14.7479C8.81668 14.7479 8.91092 14.3119 8.91092 13.8725C8.91092 13.6113 8.87459 13.3411 8.87459 13.0777C8.87459 13.0164 8.87685 12.9551 8.8814 12.8938L8.93477 13.717Z" fill="#FEBAA5"/>
<path d="M14.1519 15.9037H17.2356C17.2356 15.9037 17.0846 16.8812 15.9254 17.0266C14.5095 17.206 14.1519 15.9037 14.1519 15.9037Z" fill="white"/>
<path d="M16.0117 12.4249C16.1252 13.2197 16.8882 14.1133 16.1933 14.8093C16.1321 14.8755 16.0578 14.9285 15.9752 14.9648C15.8926 15.0012 15.8033 15.0201 15.7131 15.0205C15.6767 15.0205 15.7063 14.9716 15.704 14.9841C16.4988 14.4164 15.83 13.1107 15.8277 12.4443C15.8277 11.9901 16.0276 11.4599 16.0866 11.4928C16.1456 11.5257 15.9197 11.8379 16.0117 12.4249Z" fill="#FAAB9B"/>
<path d="M13.968 12.0695C13.9612 12.3181 13.8272 12.5157 13.6694 12.51C13.5116 12.5043 13.3901 12.3011 13.398 12.0558C13.406 11.8106 13.5388 11.6108 13.6955 11.6153C13.8522 11.6199 13.9782 11.8208 13.968 12.0695Z" fill="#251611"/>
<path d="M18.0916 11.9379C18.0837 12.1854 17.9508 12.3829 17.793 12.3784C17.6352 12.3738 17.5137 12.1695 17.5205 11.9242C17.5273 11.679 17.6613 11.4792 17.8191 11.4837C17.9769 11.4883 18.0985 11.6892 18.0916 11.9379Z" fill="#251611"/>
<path d="M18.8899 10.2563C18.8613 10.3818 18.8143 10.5023 18.7502 10.6139C18.3281 10.596 17.9052 10.6051 17.4843 10.6412C17.105 10.6696 17.0471 10.2745 17.4241 10.2325C17.9117 10.1778 18.4043 10.1858 18.8899 10.2563Z" fill="#294E95"/>
<path d="M14.3278 10.8478C14.3795 10.8439 14.4279 10.8207 14.4632 10.7827C14.4984 10.7446 14.5181 10.6947 14.5181 10.6428C14.5181 10.591 14.4984 10.541 14.4632 10.503C14.4279 10.465 14.3795 10.4417 14.3278 10.4379C13.1481 10.3675 12.3148 11.0238 12.5498 11.1872C12.7848 11.3507 12.6747 10.8375 14.3278 10.8478Z" fill="#294E95"/>
<path d="M5.92936 11.1884C5.05284 6.25516 5.47522 4.41356 7.04773 2.98297C9.08235 1.13115 9.09936 1.17317 11.5734 0.126343C12.2875 1.41614 11.1681 7.26792 9.59781 8.11378C8.14224 8.89947 6.85471 9.45809 5.92936 11.1884Z" fill="#E5483F"/>
<path d="M6.41878 99.5659H2.46649V103.468H6.41878V99.5659Z" fill="white"/>
<path d="M21.3979 56.8208C13.6307 57.8904 8.92228 58.1367 1.64217 56.0113C1.81134 52.6574 1.22776 42.7431 0.799717 36.6472C0.494298 32.2964 -0.551395 25.6272 0.373947 23.7402C0.769062 22.9352 6.59247 19.1986 7.59729 19.1986C7.97764 19.6948 11.5711 23.034 13.5603 23.034C15.3032 23.034 15.5632 21.0663 15.5836 20.4135C15.7244 20.4135 16.4771 20.8267 17.1641 21.2082C17.6648 21.4853 18.3733 21.8668 19.3747 22.3561L19.8356 22.5832C20.9335 23.1066 20.7666 22.9545 20.8007 23.2145C21.8021 31.1031 21.3605 28.4452 21.3605 39.949C21.365 48.059 21.9917 56.6846 21.3979 56.8208Z" fill="#FF9F55"/>
<path d="M19.8062 97.6141H14.3983V101.516H19.8062V97.6141Z" fill="white"/>
<path d="M1.23004 53.1206C-0.700116 60.5983 -0.00413267 81.7551 2.04297 101.401H7.04209C7.60184 88.2302 10.4482 63.1188 11.8277 63.2153C12.2978 63.2494 13.7579 78.1094 13.7329 82.2603C13.7034 86.4408 13.8919 91.7715 13.6342 99.9542L20.3625 99.5659C20.8268 94.3113 21.9316 88.1076 22.0008 81.2181C22.145 66.9122 21.6489 53.2058 21.6489 53.2058L1.23004 53.1206Z" fill="#294E95"/>
<path d="M2.32003 102.814C2.03392 103.515 1.6933 105.228 1.6933 105.597C1.6933 108.048 4.38416 108.075 5.96008 108.075C6.58228 108.075 8.20816 107.983 8.20816 107.368C8.2185 107.234 8.2185 107.099 8.20816 106.964C8.01741 105.995 6.95923 102.839 6.39154 102.839C5.48209 102.837 3.68477 102.803 2.32003 102.814Z" fill="#1A223B"/>
<path d="M2.32003 102.409C2.03392 103.108 1.6933 104.823 1.6933 105.192C1.6933 107.643 4.38416 107.669 5.96008 107.669C6.58228 107.669 8.20816 107.577 8.20816 106.962C8.20816 106.508 6.99556 102.268 6.39154 102.434C5.48095 102.683 3.96862 102.814 2.32003 102.409Z" fill="#2D3A64"/>
<path d="M14.321 100.989C14.3392 101.502 14.321 102.645 14.321 103.727C18.0792 104.623 19.5279 106.603 24.1558 106.603C24.5373 106.603 27.2383 106.45 27.2383 105.59C27.2383 103.217 20.2103 101.63 19.8049 101.63C18.0962 101.63 16.4079 101.021 14.321 100.989Z" fill="#1A223B"/>
<path d="M14.321 100.256C14.3392 100.771 14.321 102.317 14.321 103.399C18.0792 104.295 19.5279 106.275 24.1558 106.275C24.5373 106.275 27.2383 106.122 27.2383 105.262C27.2383 102.889 20.1728 100.413 19.8049 100.583C18.9328 100.977 17.978 101.153 17.0226 101.096C16.0673 101.039 15.1402 100.751 14.321 100.256Z" fill="#2D3A64"/>
<path d="M9.59784 8.11494C9.59784 2.26315 9.61032 0.52035 11.6926 0.100256C14.1746 -0.40045 16.7224 1.05396 17.6284 2.69347C18.3415 3.98327 18.3687 6.57197 18.3687 8.3568C15.1964 4.68268 9.59784 8.11494 9.59784 8.11494Z" fill="#B8292F"/>
<path d="M20.5271 4.09673C20.9699 4.15691 22.5844 4.27156 22.4414 6.49125C22.2983 8.71093 20.2944 8.42143 18.7684 8.84152C18.7797 8.84152 17.8045 7.4677 15.6529 6.73537C15.7131 6.51738 16.1479 6.16769 16.3069 6.00419C18.421 3.87874 19.1908 3.91393 20.5271 4.09673Z" fill="#B8292F"/>
<path d="M12.8326 5.73857C14.0644 5.12773 15.377 4.6974 16.6929 4.27958C17.6012 3.99006 18.9636 3.72324 19.872 4.02298C18.8592 4.03888 17.5739 4.64404 16.8723 5.38545C16.1706 6.12686 15.57 6.98294 14.7207 7.54837C13.9895 8.03431 13.7874 8.04114 12.9098 8.06952C10.5186 8.14673 10.1167 8.13196 9.60805 8.11493C9.59669 8.05929 10.8536 6.72181 12.8326 5.73857Z" fill="#FF685D"/>
<path d="M4.64755 104.63C5.62576 104.63 6.41875 103.933 6.41875 103.073C6.41875 102.213 5.62576 101.516 4.64755 101.516C3.66934 101.516 2.87634 102.213 2.87634 103.073C2.87634 103.933 3.66934 104.63 4.64755 104.63Z" fill="#2D3A64"/>
<path d="M22.4504 102.845C22.0417 103.553 20.8359 103.623 19.7573 102.999C18.6787 102.376 18.5924 100.965 19.0011 100.256C19.2441 99.8362 20.0025 99.8623 20.6111 100.554C21.0323 100.953 20.9892 100.864 22.2359 101.329C22.5969 101.848 22.6991 102.415 22.4504 102.845Z" fill="#2D3A64"/>
<path d="M6.95465 31.5119C7.09317 26.4708 6.5391 22.825 1.79999 22.3334C2.39607 21.902 3.12158 21.4331 3.85731 20.9926C8.38751 22.0712 9.19364 26.9056 9.32875 31.5119H6.95465Z" fill="#294E95"/>
<path d="M19.663 32.141L17.2889 32.175C17.3616 29.1628 18.1882 24.6565 17.1686 21.2106C17.6693 21.4876 18.3778 21.8691 19.3792 22.3584C20.1115 25.4092 19.5404 29.6953 19.663 32.141Z" fill="#294E95"/>
<path d="M1.23003 53.1206C1.82043 47.7366 0.80426 36.6473 0.80426 36.6473C0.80426 36.6473 0.925742 36.6632 1.01203 36.6654C1.32313 38.7761 2.35292 43.9149 4.02648 43.7048C7.02958 43.3188 6.26093 30.9249 6.26093 30.9249H21.4615L21.6488 53.6066L1.23003 53.1206Z" fill="#294E95"/>
<path d="M34.9102 13.9805C34.0019 14.5754 33.1526 15.5178 31.3019 16.2921C31.0192 16.4056 30.5299 16.4113 30.5537 16.2172C30.6003 15.8357 30.9136 15.5359 31.0453 15.1749C31.2338 14.6537 31.2418 13.5161 30.6423 13.2731C30.3119 13.1391 30.2108 13.3867 30.1461 13.7273C29.8475 15.3168 29.2594 15.5303 28.686 16.4772C28.4056 16.9416 28.6417 16.8609 28.099 18.2495C27.998 18.5095 27.9457 18.8785 27.7686 19.0874C27.6698 19.201 27.0874 19.9299 26.8297 20.1467C27.6551 21.5637 29.441 22.6276 29.441 22.6276C29.8577 22.2586 29.9281 21.9463 30.5549 21.7897C31.0578 21.6693 31.1941 21.717 31.6789 21.5297C32.3476 21.2719 34.9954 19.6279 36.0808 18.6344C36.6337 18.128 36.1807 17.373 35.579 17.8396C35.4382 17.9532 33.919 19.1033 33.7885 19.1658C33.8906 19.0988 35.3462 18.0304 36.3998 17.0687C36.8143 16.6929 36.4543 15.8289 35.8526 16.3091C35.5381 16.5601 34.036 17.6217 33.734 17.7851C33.9826 17.6614 35.5699 16.4522 36.2318 15.8198C36.7632 15.3134 36.2534 14.3881 35.7447 14.7922C35.2361 15.1964 34.0416 16.0673 33.4149 16.4C34.1423 15.9981 34.8209 15.5134 35.437 14.9557C35.8696 14.5777 35.5551 13.557 34.9102 13.9805Z" fill="#FEBAA5"/>
<path d="M16.6225 35.2337C21.8294 34.2436 29.5182 24.5519 30.3402 22.3538C29.0357 21.1049 28.468 20.3919 27.0226 19.2451C24.3352 21.7555 16.7122 28.8721 14.9115 28.5689C10.8854 27.8934 1.71028 19.0884 0.368251 24.8948C-0.636568 29.2411 12.8007 35.9614 16.6225 35.2337Z" fill="#FFAB6B"/>
</svg>
