<svg width="136" height="108" viewBox="0 0 136 108" fill="none" xmlns="http://www.w3.org/2000/svg">
<mask id="mask0_28_1029" style="mask-type:alpha" maskUnits="userSpaceOnUse" x="0" y="0" width="136" height="108">
<rect width="136" height="107.893" fill="#D9D9D9"/>
</mask>
<g mask="url(#mask0_28_1029)">
<g style="mix-blend-mode:multiply">
<path d="M69.7782 91.667C105.856 91.667 135.103 90.4442 135.103 88.9358C135.103 87.4273 105.856 86.2045 69.7782 86.2045C33.7002 86.2045 4.45325 87.4273 4.45325 88.9358C4.45325 90.4442 33.7002 91.667 69.7782 91.667Z" fill="#E4E6E9"/>
</g>
<path d="M89.7549 89.2892H85.4262L85.357 72.3987H89.7017L89.7549 89.2892Z" fill="#483E3F"/>
<path d="M85.4262 89.2892C88.3365 89.2892 90.6957 85.5081 90.6957 80.8439C90.6957 76.1798 88.3365 72.3987 85.4262 72.3987C82.516 72.3987 80.1568 76.1798 80.1568 80.8439C80.1568 85.5081 82.516 89.2892 85.4262 89.2892Z" fill="#483E3F"/>
<path d="M89.588 89.2892C92.4982 89.2892 94.8574 85.5081 94.8574 80.8439C94.8574 76.1798 92.4982 72.3987 89.588 72.3987C86.6778 72.3987 84.3185 76.1798 84.3185 80.8439C84.3185 85.5081 86.6778 89.2892 89.588 89.2892Z" fill="#2A2A2A"/>
<path d="M89.588 88.9359C92.3763 88.9359 94.6366 85.313 94.6366 80.844C94.6366 76.375 92.3763 72.7522 89.588 72.7522C86.7997 72.7522 84.5393 76.375 84.5393 80.844C84.5393 85.313 86.7997 88.9359 89.588 88.9359Z" fill="#2A2A2A"/>
<path d="M90.4165 74.9719C89.9392 74.9719 89.486 75.1825 89.0815 75.5549C88.0314 76.5278 87.3049 78.6119 87.3049 81.0262C87.3049 83.7619 88.2355 86.0741 89.5151 86.8262C89.7869 86.9919 90.0983 87.0812 90.4165 87.0849C92.1349 87.0849 93.5282 84.3726 93.5282 81.0262C93.5282 77.6799 92.1349 74.9719 90.4165 74.9719Z" fill="#181A19"/>
<path d="M41.4844 89.2892H37.1558L37.0873 72.3987H41.4312L41.4844 89.2892Z" fill="#483E3F"/>
<path d="M37.1558 89.2892C40.066 89.2892 42.4252 85.5081 42.4252 80.8439C42.4252 76.1798 40.066 72.3987 37.1558 72.3987C34.2456 72.3987 31.8863 76.1798 31.8863 80.8439C31.8863 85.5081 34.2456 89.2892 37.1558 89.2892Z" fill="#483E3F"/>
<path d="M41.3176 89.2892C44.2278 89.2892 46.587 85.5081 46.587 80.8439C46.587 76.1798 44.2278 72.3987 41.3176 72.3987C38.4073 72.3987 36.0481 76.1798 36.0481 80.8439C36.0481 85.5081 38.4073 89.2892 41.3176 89.2892Z" fill="#2A2A2A"/>
<path d="M41.3176 88.9359C44.1059 88.9359 46.3662 85.313 46.3662 80.844C46.3662 76.375 44.1059 72.7522 41.3176 72.7522C38.5293 72.7522 36.2689 76.375 36.2689 80.844C36.2689 85.313 38.5293 88.9359 41.3176 88.9359Z" fill="#2A2A2A"/>
<path d="M42.1461 74.9719C41.6688 74.9719 41.2155 75.1825 40.8111 75.5549C39.761 76.5278 39.0345 78.6119 39.0345 81.0262C39.0345 83.7619 39.965 86.0741 41.2447 86.8262C41.5164 86.992 41.8278 87.0813 42.1461 87.0849C43.8645 87.0849 45.2578 84.3726 45.2578 81.0262C45.2578 77.6799 43.8645 74.9719 42.1461 74.9719Z" fill="#181A19"/>
<path d="M61.0327 83.1664H51.0592C51.0592 80.6596 51.3172 73.0247 46.4566 72.1626H57.7038C59.538 72.1648 61.0327 76.1969 61.0327 83.1664Z" fill="#1F1F1F"/>
<path d="M46.3713 89.2892H42.0434L41.9742 72.3987H46.3181L46.3713 89.2892Z" fill="#483E3F"/>
<path d="M42.0427 89.2892C44.9529 89.2892 47.3121 85.5081 47.3121 80.8439C47.3121 76.1798 44.9529 72.3987 42.0427 72.3987C39.1324 72.3987 36.7732 76.1798 36.7732 80.8439C36.7732 85.5081 39.1324 89.2892 42.0427 89.2892Z" fill="#483E3F"/>
<path d="M46.2052 89.2892C49.1154 89.2892 51.4746 85.5081 51.4746 80.8439C51.4746 76.1798 49.1154 72.3987 46.2052 72.3987C43.2949 72.3987 40.9357 76.1798 40.9357 80.8439C40.9357 85.5081 43.2949 89.2892 46.2052 89.2892Z" fill="#2A2A2A"/>
<path d="M46.2052 88.9359C48.9935 88.9359 51.2538 85.313 51.2538 80.844C51.2538 76.375 48.9935 72.7522 46.2052 72.7522C43.4169 72.7522 41.1565 76.375 41.1565 80.844C41.1565 85.313 43.4169 88.9359 46.2052 88.9359Z" fill="#2A2A2A"/>
<path d="M47.033 74.9719C46.5564 74.9719 46.1024 75.1825 45.698 75.5549C44.6479 76.5278 43.9213 78.6119 43.9213 81.0262C43.9213 83.7619 44.8519 86.0741 46.1316 86.8262C46.4033 86.9919 46.7147 87.0812 47.033 87.0849C48.7521 87.0849 50.1454 84.3726 50.1454 81.0262C50.1454 77.6799 48.7521 74.9719 47.033 74.9719Z" fill="#181A19"/>
<path d="M119.193 66.1971H88.9307V80.32H119.193V66.1971Z" fill="#171717"/>
<path d="M123.183 74.2613V74.4282C123.177 77.9705 123.102 80.3192 123.102 80.3192H117.23C116.964 78.0558 116.169 72.285 114.315 71.9148C112.07 71.4695 108.364 71.8499 108.364 71.8499L108.011 39.9752C108.011 39.9752 114.542 40.3556 117.909 41.6994C121.955 43.3143 122.953 58.5418 123.144 69.3861C123.144 69.4436 123.144 69.4983 123.144 69.5559C123.177 71.2589 123.186 72.8497 123.183 74.2613Z" fill="#ECB703"/>
<path d="M114.892 71.3399C112.647 70.8444 108.942 71.267 108.942 71.267L108.629 40.0191C108.237 39.9892 108.009 39.9761 108.009 39.9761L108.364 71.85C108.364 71.85 112.069 71.4696 114.314 71.9149C116.169 72.2793 116.962 78.0559 117.229 80.3193H117.768C117.469 77.6063 116.667 71.7305 114.892 71.3399Z" fill="#AB8402"/>
<path d="M123.939 80.2975L122.364 80.3201V75.5549L123.513 75.7444C124.107 75.8421 124.534 76.2705 124.534 76.769V79.4114C124.534 79.7714 124.309 80.1059 123.939 80.2975Z" fill="#222536"/>
<path d="M109.692 43.9089H114.682C116.3 43.9089 118.784 44.8505 119.078 46.1614L121.549 60.3061C121.643 60.7244 120.671 61.1077 120.261 60.8476C118.091 59.4703 113.437 56.215 112.032 56.223C111.033 56.2289 109.64 56.2121 109.64 56.2121L109.692 43.9089Z" fill="#97580D"/>
<path d="M121.151 60.3527C121.14 60.4351 120.867 60.5991 120.606 60.5991C120.573 60.6016 120.539 60.5963 120.508 60.5837C120.149 60.3564 119.712 60.0736 119.247 59.7654C119.207 59.7384 119.164 59.7122 119.123 59.6838C118.767 59.452 118.418 59.2232 118.076 59.0017C117.678 58.743 117.288 58.4916 116.91 58.2555C116.086 57.7351 115.322 57.2724 114.639 56.8971C113.708 56.387 112.929 56.0328 112.367 55.9264C112.258 55.9026 112.147 55.8901 112.036 55.8893C111.88 55.8893 111.724 55.8893 111.565 55.8893C111.258 55.8893 110.938 55.8893 110.651 55.8893C110.421 55.8893 110.213 55.8893 110.043 55.8842L110.049 54.4566L110.065 50.4486L110.084 46.0536L110.092 44.2434H114.683C115.098 44.2481 115.511 44.3009 115.913 44.4008C116.249 44.4803 116.577 44.5855 116.896 44.7156C117.804 45.0873 118.551 45.6375 118.683 46.2248L119.504 50.9251L120.11 54.3946L121.151 60.3527Z" fill="#64AFE0"/>
<g opacity="0.3">
<path d="M112.368 55.9262C112.259 55.9024 112.149 55.8899 112.037 55.8891C111.881 55.8891 111.725 55.8891 111.567 55.8891C111.26 55.8891 110.94 55.8891 110.652 55.8891L110.051 54.4564L110.067 50.4484L112.368 55.9262Z" fill="white"/>
<path d="M116.911 58.2553C116.088 57.735 115.323 57.2722 114.64 56.8969L110.083 46.0498L110.091 44.2396H111.03L116.911 58.2553Z" fill="white"/>
<path d="M119.247 59.7652C119.207 59.7383 119.164 59.712 119.123 59.6836C118.767 59.4519 118.418 59.2231 118.076 59.0015L111.881 44.2396H112.732L119.247 59.7652Z" fill="white"/>
<path d="M120.109 54.3909L115.913 44.3971C116.248 44.4765 116.577 44.5818 116.896 44.7119L119.503 50.9214L120.109 54.3909Z" fill="white"/>
</g>
<path d="M109.941 62.4282H110.859C111.119 62.4282 111.369 62.5316 111.552 62.7155C111.736 62.8995 111.84 63.1489 111.84 63.4091V66.4188C111.84 66.5476 111.814 66.6751 111.765 66.7941C111.716 66.9131 111.644 67.0213 111.552 67.1123C111.461 67.2034 111.353 67.2757 111.234 67.325C111.115 67.3743 110.988 67.3996 110.859 67.3996H109.941V62.4282Z" fill="#97580D"/>
<path d="M122.412 65.0276H121.606V62.3145C121.606 61.4401 122.828 61.1843 124.011 60.9299C125.231 60.672 126.094 60.4504 126.094 59.9549C126.094 59.1533 126.149 56.3244 126.208 53.3234C126.273 50.0121 126.34 46.5878 126.34 45.526C126.34 44.3703 122.906 43.9061 121.723 43.8762C121.251 43.8674 120.163 44.2733 119.581 44.532L119.196 43.9491C119.369 43.8718 120.913 43.1948 121.746 43.2109C121.8 43.2109 127.145 43.4411 127.145 45.5246C127.145 46.5914 127.078 50.0187 127.013 53.3322C126.954 56.328 126.898 59.1569 126.898 59.9505C126.898 60.9992 125.471 61.3023 124.211 61.569C123.368 61.7476 122.412 61.9502 122.412 62.3065V65.0276Z" fill="#222536"/>
<path d="M121.481 61.9515H121.302C120.814 61.9515 120.418 62.347 120.418 62.8348V65.3139C120.418 65.8017 120.814 66.1971 121.302 66.1971H121.481C121.969 66.1971 122.364 65.8017 122.364 65.3139V62.8348C122.364 62.347 121.969 61.9515 121.481 61.9515Z" fill="#222536"/>
<path d="M119.848 45.8074C119.504 45.9021 119.131 45.7498 119.016 45.4663L118.326 43.7735C118.21 43.49 118.398 43.1825 118.74 43.0877C119.084 42.9923 119.457 43.1453 119.572 43.4288L120.262 45.1216C120.373 45.4051 120.188 45.7119 119.848 45.8074Z" fill="#222536"/>
<path d="M122.417 63.334H122.312C122.024 63.334 121.791 63.5673 121.791 63.855V65.3169C121.791 65.6046 122.024 65.8379 122.312 65.8379H122.417C122.704 65.8379 122.938 65.6046 122.938 65.3169V63.855C122.938 63.5673 122.704 63.334 122.417 63.334Z" fill="#222536"/>
<path d="M124.635 55.8601L128.274 56.1421C128.353 56.1459 128.432 56.1333 128.505 56.1052C128.579 56.077 128.646 56.034 128.703 55.9787C128.759 55.9234 128.803 55.8571 128.833 55.7839C128.862 55.7107 128.876 55.6322 128.874 55.5533V46.5433C128.876 46.4608 128.861 46.3787 128.829 46.3028C128.797 46.2268 128.748 46.1588 128.687 46.1033C128.626 46.0479 128.554 46.0064 128.475 45.9817C128.396 45.957 128.313 45.9497 128.231 45.9603L124.593 46.5433C124.457 46.5686 124.335 46.641 124.248 46.7477C124.161 46.8544 124.114 46.9885 124.117 47.1263V55.2756C124.114 55.4202 124.166 55.5605 124.262 55.6687C124.358 55.7769 124.491 55.8452 124.635 55.8601Z" fill="#222536"/>
<path d="M128.56 46.5434V55.5541C128.562 55.6207 128.537 55.6852 128.491 55.7336C128.445 55.782 128.382 55.8102 128.316 55.8121H128.297L128.106 55.7975L127.954 55.7859L127.046 55.713L126.463 55.6678L125.984 55.6314L125.719 55.611L124.976 55.5519L124.657 55.5286C124.593 55.5219 124.535 55.4917 124.493 55.4439C124.451 55.3961 124.428 55.3343 124.429 55.2707V47.1234C124.428 47.063 124.448 47.0041 124.486 46.9573C124.525 46.9105 124.578 46.879 124.638 46.8684L125.047 46.8043L125.15 46.7875L127.942 46.3422L127.999 46.3335L128.276 46.289C128.289 46.2862 128.301 46.2847 128.313 46.2847C128.347 46.2853 128.379 46.2926 128.41 46.3059C128.44 46.3193 128.468 46.3386 128.491 46.3627C128.513 46.3867 128.531 46.4151 128.543 46.4461C128.555 46.4771 128.561 46.5102 128.56 46.5434Z" fill="#64AFE0"/>
<g opacity="0.3">
<path d="M125.987 55.6336L125.721 55.6132L124.978 55.5542L124.659 55.5308C124.596 55.5241 124.537 55.4939 124.495 55.4461C124.453 55.3983 124.43 55.3365 124.432 55.2729V50.8917L125.987 55.6336Z" fill="white"/>
<path d="M128.106 55.7975L127.954 55.7858L127.046 55.713L124.432 47.7385V47.1212C124.43 47.0608 124.45 47.0019 124.489 46.9551C124.527 46.9083 124.58 46.8768 124.64 46.8662L125.049 46.802L125.152 46.7853L128.106 55.7975Z" fill="white"/>
<path d="M128.56 46.5432V47.9898L127.944 46.3399L128.001 46.3312L128.279 46.2867C128.291 46.2839 128.303 46.2824 128.316 46.2823C128.349 46.2833 128.382 46.2908 128.412 46.3045C128.442 46.3181 128.469 46.3376 128.492 46.3619C128.515 46.3861 128.533 46.4147 128.544 46.4458C128.556 46.4769 128.561 46.51 128.56 46.5432Z" fill="white"/>
</g>
<path d="M118.836 77.365H121.113C121.178 77.365 121.232 77.3118 121.232 77.2462V76.4176C121.232 76.352 121.178 76.2988 121.113 76.2988H118.836C118.77 76.2988 118.717 76.352 118.717 76.4176V77.2462C118.717 77.3118 118.77 77.365 118.836 77.365Z" fill="#353535"/>
<path d="M118.817 76.5372V77.1275C118.815 77.159 118.826 77.1899 118.847 77.2135C118.868 77.2371 118.897 77.2515 118.929 77.2536H121.02C121.047 77.2541 121.074 77.2439 121.093 77.2251C121.107 77.2127 121.117 77.1976 121.125 77.1808C121.132 77.164 121.136 77.1458 121.135 77.1275V76.5372C121.137 76.5058 121.126 76.4749 121.105 76.4515C121.084 76.428 121.055 76.4138 121.023 76.4119H118.932C118.919 76.4116 118.907 76.4141 118.896 76.4192C118.872 76.4283 118.852 76.4445 118.838 76.4657C118.824 76.4868 118.816 76.5118 118.817 76.5372Z" fill="#B3490F"/>
<path opacity="0.2" d="M118.893 76.4192L121.09 77.2251C121.104 77.2127 121.114 77.1976 121.122 77.1808C121.129 77.164 121.133 77.1458 121.133 77.1275V76.5372C121.134 76.5058 121.123 76.4749 121.102 76.4515C121.081 76.428 121.052 76.4138 121.02 76.4119H118.929C118.917 76.4116 118.904 76.4141 118.893 76.4192Z" fill="white"/>
<path d="M123.147 69.5559C123.147 69.4983 123.147 69.4437 123.147 69.3861H121.517C121.47 69.3844 121.424 69.3917 121.381 69.4078C121.338 69.4239 121.298 69.4484 121.264 69.4799C121.23 69.5114 121.203 69.5492 121.184 69.5913C121.165 69.6334 121.154 69.6788 121.152 69.725L121.761 74.0923C121.765 74.1851 121.805 74.2725 121.874 74.3354C121.942 74.3984 122.032 74.4318 122.125 74.4282H123.185V74.2613L123.147 69.5559Z" fill="#9FA9AB"/>
<path d="M123.183 74.2613H122.097C122.048 74.2594 122.002 74.2381 121.968 74.2021C121.935 74.1661 121.917 74.1182 121.918 74.069L121.309 69.7454C121.309 69.7323 121.309 69.7199 121.309 69.709C121.317 69.6675 121.338 69.6299 121.371 69.6025C121.403 69.575 121.443 69.5594 121.485 69.5581H123.144C123.177 71.259 123.186 72.8498 123.183 74.2613Z" fill="#F0F0F0"/>
<path d="M46.4909 79.2576H64.7026V82.84H46.4909C44.8308 82.84 44.8308 79.2576 46.4909 79.2576Z" fill="black"/>
<path d="M90.418 79.2576H108.63V82.84H90.418C88.758 82.84 88.758 79.2576 90.418 79.2576Z" fill="black"/>
<path d="M110.492 89.2892H106.163L106.094 72.3987H110.438L110.492 89.2892Z" fill="#483E3F"/>
<path d="M106.163 89.2892C109.073 89.2892 111.432 85.5081 111.432 80.8439C111.432 76.1798 109.073 72.3987 106.163 72.3987C103.253 72.3987 100.894 76.1798 100.894 80.8439C100.894 85.5081 103.253 89.2892 106.163 89.2892Z" fill="#483E3F"/>
<path d="M110.325 89.2892C113.235 89.2892 115.594 85.5081 115.594 80.8439C115.594 76.1798 113.235 72.3987 110.325 72.3987C107.415 72.3987 105.055 76.1798 105.055 80.8439C105.055 85.5081 107.415 89.2892 110.325 89.2892Z" fill="#2A2A2A"/>
<path d="M110.325 88.9359C113.113 88.9359 115.373 85.313 115.373 80.844C115.373 76.375 113.113 72.7522 110.325 72.7522C107.536 72.7522 105.276 76.375 105.276 80.844C105.276 85.313 107.536 88.9359 110.325 88.9359Z" fill="#2A2A2A"/>
<path d="M114.265 81.029C114.265 84.3754 112.872 87.0877 111.153 87.0877C110.835 87.084 110.524 86.9947 110.252 86.829C108.972 86.0769 108.042 83.7683 108.042 81.029C108.042 78.6147 108.77 76.5306 109.818 75.5577C110.223 75.1824 110.677 74.9747 111.153 74.9747C112.872 74.9718 114.265 77.6841 114.265 81.029Z" fill="#DDDEE2"/>
<path d="M113.508 81.1471C113.508 84.2879 112.115 86.8349 110.396 86.8349C110.349 86.8349 110.3 86.8348 110.25 86.829C108.971 86.077 108.04 83.7683 108.04 81.029C108.04 78.6148 108.769 76.5306 109.817 75.5577C110.002 75.4935 110.197 75.4605 110.393 75.4601C112.113 75.463 113.508 78.0055 113.508 81.1471Z" fill="#8E8F93"/>
<path d="M111.283 84.6487C112.338 84.6487 113.192 83.0666 113.192 81.115C113.192 79.1635 112.338 77.5814 111.283 77.5814C110.229 77.5814 109.374 79.1635 109.374 81.115C109.374 83.0666 110.229 84.6487 111.283 84.6487Z" fill="#D9D9DB"/>
<path d="M112.214 81.0495C112.214 82.0384 111.797 82.84 111.284 82.84C110.946 82.84 110.65 82.4953 110.487 81.9786C110.394 81.6777 110.348 81.3643 110.351 81.0495C110.347 80.6838 110.41 80.3204 110.538 79.9775C110.705 79.5403 110.978 79.2576 111.284 79.2576C111.797 79.2576 112.214 80.0592 112.214 81.0495Z" fill="#565251"/>
<path d="M111.284 80.9824C111.284 81.5399 110.975 81.9917 110.594 81.9917C110.558 81.9918 110.522 81.9874 110.487 81.9786C110.394 81.6777 110.348 81.3643 110.351 81.0495C110.347 80.6837 110.41 80.3204 110.538 79.9775C110.556 79.9746 110.575 79.9732 110.594 79.9731C110.975 79.9731 111.284 80.4242 111.284 80.9824Z" fill="#6F7573"/>
<path d="M65.9982 89.2892H61.6696L61.6011 72.3987H65.9451L65.9982 89.2892Z" fill="#483E3F"/>
<path d="M61.6696 89.2892C64.5798 89.2892 66.939 85.5081 66.939 80.8439C66.939 76.1798 64.5798 72.3987 61.6696 72.3987C58.7593 72.3987 56.4001 76.1798 56.4001 80.8439C56.4001 85.5081 58.7593 89.2892 61.6696 89.2892Z" fill="#483E3F"/>
<path d="M65.8321 89.2892C68.7423 89.2892 71.1015 85.5081 71.1015 80.8439C71.1015 76.1798 68.7423 72.3987 65.8321 72.3987C62.9218 72.3987 60.5626 76.1798 60.5626 80.8439C60.5626 85.5081 62.9218 89.2892 65.8321 89.2892Z" fill="#2A2A2A"/>
<path d="M65.8321 88.9359C68.6204 88.9359 70.8808 85.313 70.8808 80.844C70.8808 76.375 68.6204 72.7522 65.8321 72.7522C63.0438 72.7522 60.7835 76.375 60.7835 80.844C60.7835 85.313 63.0438 88.9359 65.8321 88.9359Z" fill="#2A2A2A"/>
<path d="M69.7723 81.029C69.7723 84.3754 68.379 87.0877 66.6606 87.0877C66.3421 87.0842 66.0305 86.9948 65.7585 86.829C64.4788 86.0769 63.5482 83.7683 63.5482 81.029C63.5482 78.6147 64.277 76.5306 65.3249 75.5577C65.7293 75.1824 66.1833 74.9747 66.6606 74.9747C68.379 74.9718 69.7723 77.6841 69.7723 81.029Z" fill="#DDDEE2"/>
<path d="M69.013 81.1471C69.013 84.2879 67.6196 86.8349 65.9013 86.8349C65.8546 86.8349 65.8058 86.8348 65.7555 86.829C64.4759 86.077 63.5453 83.7683 63.5453 81.029C63.5453 78.6148 64.274 76.5306 65.3219 75.5577C65.5074 75.4935 65.7022 75.4605 65.8984 75.4601C67.6196 75.463 69.013 78.0055 69.013 81.1471Z" fill="#8E8F93"/>
<path d="M66.7896 84.6487C67.8441 84.6487 68.6989 83.0666 68.6989 81.115C68.6989 79.1635 67.8441 77.5814 66.7896 77.5814C65.7352 77.5814 64.8804 79.1635 64.8804 81.115C64.8804 83.0666 65.7352 84.6487 66.7896 84.6487Z" fill="#D9D9DB"/>
<path d="M67.721 81.0495C67.721 82.0384 67.3034 82.84 66.7904 82.84C66.4522 82.84 66.1564 82.4953 65.9931 81.9786C65.9007 81.6777 65.855 81.3643 65.8576 81.0495C65.8535 80.6838 65.9167 80.3204 66.0442 79.9775C66.2125 79.5403 66.4814 79.2576 66.7904 79.2576C67.3063 79.2576 67.721 80.0592 67.721 81.0495Z" fill="#565251"/>
<path d="M66.7904 80.9824C66.7904 81.5399 66.4814 81.9917 66.1003 81.9917C66.0642 81.9918 66.0282 81.9874 65.9931 81.9786C65.9007 81.6777 65.855 81.3643 65.8576 81.0495C65.8535 80.6837 65.9167 80.3204 66.0442 79.9775C66.0627 79.9746 66.0815 79.9732 66.1003 79.9731C66.4814 79.9731 66.7904 80.4242 66.7904 80.9824Z" fill="#6F7573"/>
<path d="M98.2336 83.1665H104.634C104.634 80.32 104.26 72.2136 109.237 72.2136H101.206C99.8857 72.2136 98.2336 76.1969 98.2336 83.1665Z" fill="#1F1F1F"/>
<path d="M77.6543 83.1424H84.1765C83.9979 80.32 83.8376 72.1896 88.3572 72.1896H80.3565C79.157 72.1896 77.0604 76.4621 77.6543 83.1424Z" fill="#1F1F1F"/>
<path d="M100.286 69.3074H56.841V75.5541H100.286V69.3074Z" fill="#1F1F1F"/>
<path d="M109.237 22.9236H53.859V71.9082H109.237V22.9236Z" fill="#F59D00"/>
<path d="M104.226 72.7522H48.0139V77.5815H104.226V72.7522Z" fill="#2E2E2E"/>
<path d="M77.0604 83.1664H67.0877C67.0877 80.6596 67.3464 73.0247 62.485 72.1626H73.733C75.5658 72.1648 77.0604 76.1969 77.0604 83.1664Z" fill="#1F1F1F"/>
<path d="M71.2415 89.2892H66.9135L66.8443 72.3987H71.1883L71.2415 89.2892Z" fill="#483E3F"/>
<path d="M66.9135 89.2892C69.8238 89.2892 72.183 85.5081 72.183 80.8439C72.183 76.1798 69.8238 72.3987 66.9135 72.3987C64.0033 72.3987 61.6441 76.1798 61.6441 80.8439C61.6441 85.5081 64.0033 89.2892 66.9135 89.2892Z" fill="#483E3F"/>
<path d="M71.0753 89.2892C73.9855 89.2892 76.3448 85.5081 76.3448 80.8439C76.3448 76.1798 73.9855 72.3987 71.0753 72.3987C68.1651 72.3987 65.8058 76.1798 65.8058 80.8439C65.8058 85.5081 68.1651 89.2892 71.0753 89.2892Z" fill="#2A2A2A"/>
<path d="M71.0753 88.9359C73.8636 88.9359 76.1239 85.313 76.1239 80.844C76.1239 76.375 73.8636 72.7522 71.0753 72.7522C68.287 72.7522 66.0266 76.375 66.0266 80.844C66.0266 85.313 68.287 88.9359 71.0753 88.9359Z" fill="#2A2A2A"/>
<path d="M75.0156 81.029C75.0156 84.3754 73.6222 87.0877 71.9039 87.0877C71.5854 87.0841 71.2737 86.9947 71.0017 86.829C69.7228 86.0769 68.7922 83.7683 68.7922 81.029C68.7922 78.6147 69.5209 76.5306 70.5681 75.5577C70.9733 75.1824 71.4266 74.9747 71.9039 74.9747C73.6222 74.9718 75.0156 77.6841 75.0156 81.029Z" fill="#DDDEE2"/>
<path d="M74.2562 81.1471C74.2562 84.2879 72.8629 86.8349 71.1445 86.8349C71.0979 86.8349 71.0491 86.8348 70.9988 86.829C69.7199 86.077 68.7893 83.7683 68.7893 81.029C68.7893 78.6148 69.518 76.5306 70.5652 75.5577C70.7506 75.4935 70.9454 75.4605 71.1416 75.4601C72.8629 75.463 74.2562 78.0055 74.2562 81.1471Z" fill="#8E8F93"/>
<path d="M72.0329 84.6487C73.0873 84.6487 73.9421 83.0666 73.9421 81.115C73.9421 79.1635 73.0873 77.5814 72.0329 77.5814C70.9784 77.5814 70.1236 79.1635 70.1236 81.115C70.1236 83.0666 70.9784 84.6487 72.0329 84.6487Z" fill="#D9D9DB"/>
<path d="M72.9642 81.0495C72.9642 82.0384 72.5473 82.84 72.0336 82.84C71.6962 82.84 71.3996 82.4953 71.2371 81.9786C71.1446 81.6777 71.0989 81.3643 71.1015 81.0495C71.0972 80.6838 71.1602 80.3204 71.2874 79.9775C71.4557 79.5403 71.7246 79.2576 72.0336 79.2576C72.5473 79.2576 72.9642 80.0592 72.9642 81.0495Z" fill="#565251"/>
<path d="M72.0336 80.9824C72.0336 81.5399 71.7246 81.9917 71.3435 81.9917C71.3076 81.9918 71.2719 81.9874 71.2371 81.9786C71.1446 81.6777 71.0989 81.3643 71.1015 81.0495C71.0972 80.6838 71.1602 80.3204 71.2874 79.9775C71.3059 79.9746 71.3247 79.9732 71.3435 79.9731C71.7246 79.9731 72.0336 80.4242 72.0336 80.9824Z" fill="#6F7573"/>
<path d="M55.5475 83.1664H65.5209C65.5209 80.6596 65.2629 73.0903 70.1236 72.2311H58.8763C57.0421 72.2311 55.5475 76.1968 55.5475 83.1664Z" fill="#1F1F1F"/>
<path d="M31.6291 83.1664H41.6025C41.6025 80.6596 41.3438 73.0903 46.2052 72.2311H34.9579C33.1237 72.2311 31.6291 76.1968 31.6291 83.1664Z" fill="#1F1F1F"/>
<path d="M60.1181 71.2233H24.5414V78.1593H60.1181V71.2233Z" fill="#12100D"/>
<path d="M59.7231 71.2233H24.1465V78.1593H59.7231V71.2233Z" fill="#332E25"/>
<path d="M60.6093 22.8005H23.2611V71.8777H60.6093V22.8005Z" fill="#EFB601"/>
<path d="M59.428 24.8964H24.4416V69.6069H59.428V24.8964Z" fill="#633200"/>
<path d="M61.1296 72.2267H23.7814V76.2427H61.1296V72.2267Z" fill="#D1610C"/>
<path d="M60.6093 72.2267H23.2611V76.2427H60.6093V72.2267Z" fill="#EFB601"/>
<path d="M60.3134 75.8411V72.6282H23.5555V75.8411H60.3134Z" fill="#F59D00"/>
<path d="M58.794 75.4397H56.6231V73.0298H58.794C58.8385 73.0298 58.8826 73.0386 58.9237 73.0556C58.9648 73.0726 59.0021 73.0976 59.0336 73.129C59.0651 73.1605 59.09 73.1979 59.1071 73.239C59.1241 73.2801 59.1329 73.3241 59.1329 73.3686V75.1008C59.1329 75.1453 59.1241 75.1894 59.1071 75.2305C59.09 75.2716 59.0651 75.309 59.0336 75.3405C59.0021 75.3719 58.9648 75.3969 58.9237 75.4139C58.8826 75.4309 58.8385 75.4397 58.794 75.4397Z" fill="#FFBB34"/>
<path d="M53.228 75.4397H51.0571C50.9672 75.4397 50.881 75.404 50.8175 75.3405C50.7539 75.2769 50.7182 75.1907 50.7182 75.1009V73.3716C50.7182 73.2817 50.7539 73.1955 50.8175 73.132C50.881 73.0684 50.9672 73.0327 51.0571 73.0327H53.228V75.4426V75.4397Z" fill="#E72F2F"/>
<path d="M53.228 75.4397H56.6231V73.0298H53.228V75.4397Z" fill="#F2EFE8"/>
<path d="M47.8558 73.0298H36.0139V75.5964H47.8558V73.0298Z" fill="#633200"/>
<path d="M24.4854 73.0175H26.6562V75.4274H24.4854C24.3955 75.4274 24.3093 75.3917 24.2457 75.3281C24.1822 75.2646 24.1465 75.1784 24.1465 75.0885V73.3563C24.1465 73.2664 24.1822 73.1803 24.2457 73.1167C24.3093 73.0532 24.3955 73.0175 24.4854 73.0175Z" fill="#FFBB34"/>
<path d="M30.0492 73.0175H32.2201C32.31 73.0175 32.3962 73.0532 32.4597 73.1167C32.5233 73.1803 32.559 73.2664 32.559 73.3563V75.0885C32.559 75.1784 32.5233 75.2646 32.4597 75.3281C32.3962 75.3917 32.31 75.4274 32.2201 75.4274H30.0492V73.0175Z" fill="#E72F2F"/>
<path d="M30.0514 73.0175H26.6562V75.4274H30.0514V73.0175Z" fill="#F2EFE8"/>
<path d="M28.8563 24.5728H27.4309C27.1846 24.5728 26.9842 24.3003 26.9842 23.9643C26.9842 23.6291 27.1846 23.3566 27.4309 23.3566H28.8563C29.1033 23.3566 29.3037 23.6291 29.3037 23.9643C29.3037 24.3003 29.1033 24.5728 28.8563 24.5728Z" fill="#E72F2F"/>
<path d="M56.4395 24.5728H55.0141C54.767 24.5728 54.5666 24.3003 54.5666 23.9643C54.5666 23.6291 54.767 23.3566 55.0141 23.3566H56.4395C56.6865 23.3566 56.8862 23.6291 56.8862 23.9643C56.8855 24.3003 56.6865 24.5728 56.4395 24.5728Z" fill="#E72F2F"/>
<path d="M60.6399 26.0449H60.5786C60.3243 26.0449 60.1181 26.2511 60.1181 26.5055V30.3379C60.1181 30.5922 60.3243 30.7984 60.5786 30.7984H60.6399C60.8942 30.7984 61.1004 30.5922 61.1004 30.3379V26.5055C61.1004 26.2511 60.8942 26.0449 60.6399 26.0449Z" fill="#EB7600"/>
<path d="M60.7273 38.6562H60.4912C60.2851 38.6562 60.1181 38.8233 60.1181 39.0294V43.0367C60.1181 43.2427 60.2851 43.4098 60.4912 43.4098H60.7273C60.9334 43.4098 61.1004 43.2427 61.1004 43.0367V39.0294C61.1004 38.8233 60.9334 38.6562 60.7273 38.6562Z" fill="#EB7600"/>
<path d="M60.6399 51.2676H60.5786C60.3243 51.2676 60.1181 51.4738 60.1181 51.7281V55.5605C60.1181 55.8149 60.3243 56.0211 60.5786 56.0211H60.6399C60.8942 56.0211 61.1004 55.8149 61.1004 55.5605V51.7281C61.1004 51.4738 60.8942 51.2676 60.6399 51.2676Z" fill="#EB7600"/>
<path d="M60.6399 63.879H60.5786C60.3243 63.879 60.1181 64.0852 60.1181 64.3396V68.172C60.1181 68.4263 60.3243 68.6325 60.5786 68.6325H60.6399C60.8942 68.6325 61.1004 68.4263 61.1004 68.172V64.3396C61.1004 64.0852 60.8942 63.879 60.6399 63.879Z" fill="#EB7600"/>
<path d="M75.6561 72.6369H74.6074L61.9275 69.6068V24.8963L74.6074 21.8662H75.6561V72.6369Z" fill="#EFC130"/>
<path d="M74.6075 72.6369L60.8789 69.6068V24.8963L74.6075 21.8662V72.6369Z" fill="#EFB601"/>
<path d="M23.4265 26.0449H23.1816C23.0303 26.0449 22.9076 26.1676 22.9076 26.3189V30.5244C22.9076 30.6758 23.0303 30.7984 23.1816 30.7984H23.4265C23.5778 30.7984 23.7005 30.6758 23.7005 30.5244V26.3189C23.7005 26.1676 23.5778 26.0449 23.4265 26.0449Z" fill="#EB7600"/>
<path d="M23.4265 38.6562H23.1816C23.0303 38.6562 22.9076 38.7789 22.9076 38.9303V43.1358C22.9076 43.2871 23.0303 43.4098 23.1816 43.4098H23.4265C23.5778 43.4098 23.7005 43.2871 23.7005 43.1358V38.9303C23.7005 38.7789 23.5778 38.6562 23.4265 38.6562Z" fill="#EB7600"/>
<path d="M23.4265 51.2676H23.1816C23.0303 51.2676 22.9076 51.3903 22.9076 51.5416V55.7471C22.9076 55.8984 23.0303 56.0211 23.1816 56.0211H23.4265C23.5778 56.0211 23.7005 55.8984 23.7005 55.7471V51.5416C23.7005 51.3903 23.5778 51.2676 23.4265 51.2676Z" fill="#EB7600"/>
<path d="M23.4265 63.879H23.1816C23.0303 63.879 22.9076 64.0017 22.9076 64.153V68.3585C22.9076 68.5099 23.0303 68.6325 23.1816 68.6325H23.4265C23.5778 68.6325 23.7005 68.5099 23.7005 68.3585V64.153C23.7005 64.0017 23.5778 63.879 23.4265 63.879Z" fill="#EB7600"/>
<path d="M5.03771 72.6369L23.017 69.6068V24.8963L5.03771 21.8662V72.6369Z" fill="#EFB601"/>
<path d="M38.3444 56.9751H27.0148V69.6069H38.3444V56.9751Z" fill="#FFA15E"/>
<path d="M46.0157 56.9758H38.3444V69.6069H46.0157V56.9758Z" fill="#EB843F"/>
<g style="mix-blend-mode:multiply">
<path d="M38.3444 55.0127H27.0148V57.8926H38.3444V55.0127Z" fill="#B2B2B2"/>
</g>
<g style="mix-blend-mode:multiply">
<path d="M46.0157 55.0127H38.3444V57.8926H46.0157V55.0127Z" fill="#B2B2B2"/>
</g>
<path d="M39.017 54.8655H26.3429V57.7454H39.017V54.8655Z" fill="#FFB47D"/>
<path d="M46.7153 54.8655H38.3444V57.7454H46.7153V54.8655Z" fill="#F59D5B"/>
<path fill-rule="evenodd" clip-rule="evenodd" d="M31.7945 67.8951C31.7945 67.8951 31.7953 67.8988 31.7945 67.8951V67.8951ZM31.5395 68.4074H31.5788C31.6279 68.408 31.6754 68.3903 31.7122 68.3579L31.7785 68.2595C31.7925 68.2417 31.804 68.2221 31.8128 68.2012C31.82 68.1829 31.82 68.1626 31.8128 68.1443L31.7217 67.968L31.7078 67.9425L31.7326 67.9265L31.7756 67.898L31.4112 67.8252L31.2946 68.1684L31.3362 68.1407L31.3639 68.1225L31.3814 68.1509L31.5395 68.4074ZM31.0819 68.4074H31.4622L31.342 68.2158L31.2888 68.25C31.2814 68.2519 31.2736 68.2519 31.2662 68.25C31.2604 68.2495 31.2548 68.2478 31.2497 68.245C31.2445 68.2423 31.24 68.2385 31.2363 68.234C31.2287 68.2248 31.2246 68.2131 31.2247 68.2012C31.2247 68.1849 31.2279 68.1688 31.2342 68.1538L31.3639 67.7727L31.3726 67.7465L31.4003 67.7516L31.7953 67.8244C31.8412 67.8339 31.8609 67.8514 31.8681 67.8725C31.8698 67.8839 31.8679 67.8954 31.8628 67.9057C31.8578 67.916 31.8497 67.9245 31.8397 67.9301L31.8047 67.9527L31.8827 68.1035C31.8906 68.1203 31.895 68.1385 31.8958 68.157C31.8965 68.1755 31.8936 68.194 31.8871 68.2114C31.8766 68.2379 31.8618 68.2625 31.8434 68.2843L31.5417 68.7652C31.5277 68.7984 31.5038 68.8265 31.4733 68.8457C31.4428 68.8648 31.4071 68.8741 31.3712 68.8724H31.0155V68.4716C31.0155 68.422 31.0367 68.4089 31.0819 68.4074Z" fill="#85583C"/>
<path d="M30.3531 67.5497C30.3531 67.5497 30.3553 67.5482 30.3531 67.5511V67.5497ZM30.9849 67.5074L30.8676 67.7573L30.9252 67.7829C30.9317 67.7875 30.937 67.7938 30.9405 67.8011C30.9427 67.8064 30.9438 67.8121 30.9438 67.8178C30.9438 67.8236 30.9427 67.8293 30.9405 67.8346C30.9371 67.8459 30.9296 67.8556 30.9193 67.8616C30.9056 67.8705 30.8903 67.8767 30.8742 67.8798L30.4836 67.976L30.4566 67.9825L30.4457 67.9563L30.2955 67.5839C30.2795 67.5402 30.2832 67.511 30.2955 67.4986C30.3043 67.4912 30.3151 67.4866 30.3266 67.4854C30.338 67.4842 30.3496 67.4866 30.3597 67.4921L30.3983 67.5096L30.4821 67.3638C30.4921 67.3482 30.5051 67.3346 30.5204 67.324C30.5356 67.3134 30.5528 67.3059 30.571 67.3019C30.5995 67.2958 30.6288 67.2944 30.6577 67.2975H31.189L30.9448 67.3704L30.6534 67.3638C30.6311 67.3606 30.6085 67.3606 30.5863 67.3638C30.5765 67.3656 30.5672 67.3694 30.5589 67.3749C30.5507 67.3804 30.5436 67.3876 30.5382 67.3959L30.4398 67.5679L30.4253 67.5934L30.3983 67.581L30.3517 67.5599L30.4908 67.9053L30.8421 67.8178L30.7969 67.7982L30.7663 67.7843L30.7809 67.7544L30.912 67.4746L30.9849 67.5074Z" fill="#85583C"/>
<path fill-rule="evenodd" clip-rule="evenodd" d="M31.1693 67.874L30.9004 67.4557C30.8867 67.4334 30.8685 67.414 30.8471 67.3989C30.8257 67.3837 30.8014 67.373 30.7758 67.3676L30.9528 67.3092L31.2392 67.2976C31.2748 67.2912 31.3115 67.2959 31.3442 67.3112C31.377 67.3264 31.4042 67.3515 31.4221 67.3829L31.6094 67.6743L31.2713 67.893C31.2188 67.9265 31.1984 67.9134 31.1693 67.8762V67.874Z" fill="#85583C"/>
<path fill-rule="evenodd" clip-rule="evenodd" d="M30.7466 68.9635C30.7466 68.9635 30.7444 68.962 30.7473 68.9635H30.7466ZM30.4347 68.4847L30.415 68.5189C30.3896 68.5608 30.3806 68.6107 30.3895 68.6588L30.4405 68.7652C30.4482 68.7862 30.459 68.8059 30.4726 68.8235C30.4787 68.8313 30.4862 68.8378 30.4949 68.8425C30.5035 68.8473 30.5131 68.8503 30.5229 68.8512L30.7211 68.8622H30.7502V68.892V68.943L30.9958 68.6625L30.759 68.3885V68.438V68.4708H30.7255L30.4347 68.4847ZM30.6672 68.0904L30.474 68.4184L30.7 68.4118V68.3484V68.344C30.7014 68.3363 30.7047 68.3291 30.7094 68.3229C30.7163 68.3136 30.7265 68.3073 30.7378 68.3054C30.7497 68.3038 30.7617 68.3061 30.7721 68.312C30.786 68.3205 30.7981 68.3316 30.8078 68.3448L31.0709 68.6486L31.0891 68.6705L31.0702 68.6916L30.8056 68.9941C30.7743 69.0283 30.7488 69.0363 30.7284 69.0298C30.7178 69.0253 30.7089 69.0177 30.7027 69.0081C30.6964 68.9985 30.6932 68.9873 30.6934 68.9758V68.9343L30.5243 68.9256C30.5058 68.9238 30.4879 68.9184 30.4715 68.9096C30.4551 68.9008 30.4406 68.8889 30.4289 68.8745C30.4109 68.8526 30.3964 68.828 30.3859 68.8017L30.1243 68.2967C30.1028 68.2679 30.0907 68.2333 30.0896 68.1974C30.0886 68.1615 30.0986 68.1262 30.1184 68.0963L30.2941 67.7975L30.6402 68.0008C30.6898 68.0219 30.689 68.0489 30.6679 68.089L30.6672 68.0904Z" fill="#85583C"/>
<path d="M31.9097 66.9596H30.0609C29.9984 66.9611 29.939 66.9872 29.8956 67.0322C29.8523 67.0773 29.8284 67.1376 29.8292 67.2001V69.1232C29.8282 69.1858 29.852 69.2462 29.8954 69.2912C29.9389 69.3363 29.9983 69.3623 30.0609 69.3637H31.9097C31.9721 69.3621 32.0314 69.336 32.0747 69.291C32.118 69.2459 32.1417 69.1856 32.1407 69.1232V67.1993C32.1417 67.1369 32.118 67.0766 32.0747 67.0316C32.0314 66.9865 31.9721 66.9604 31.9097 66.9589V66.9596ZM32.0022 69.0933C32.0026 69.1263 31.9901 69.158 31.9674 69.1819C31.9446 69.2057 31.9135 69.2197 31.8805 69.2208H30.0908C30.0577 69.2199 30.0264 69.206 30.0035 69.1821C29.9806 69.1583 29.968 69.1264 29.9684 69.0933V67.2285C29.968 67.2121 29.9708 67.1957 29.9768 67.1804C29.9827 67.1651 29.9917 67.1511 30.003 67.1393C30.0144 67.1274 30.028 67.1179 30.0431 67.1113C30.0581 67.1048 30.0744 67.1012 30.0908 67.101H31.8805C31.9135 67.1019 31.9448 67.1158 31.9676 67.1397C31.9904 67.1636 32.0028 67.1955 32.0022 67.2285V69.0933Z" fill="#85583C"/>
<path d="M29.1798 69.0838H27.9752C27.964 69.0838 27.9533 69.0793 27.9454 69.0714C27.9374 69.0635 27.933 69.0527 27.933 69.0415C27.933 69.0303 27.9374 69.0196 27.9454 69.0116C27.9533 69.0037 27.964 68.9993 27.9752 68.9993H29.1798C29.191 68.9993 29.2018 69.0037 29.2097 69.0116C29.2176 69.0196 29.2221 69.0303 29.2221 69.0415C29.2221 69.0527 29.2176 69.0635 29.2097 69.0714C29.2018 69.0793 29.191 69.0838 29.1798 69.0838Z" fill="#85583C"/>
<path fill-rule="evenodd" clip-rule="evenodd" d="M28.3928 67.5637V68.8207H28.1385V67.5629L28.0132 67.5622L28.2704 67.2401L28.5269 67.5637H28.3928Z" fill="#85583C"/>
<path fill-rule="evenodd" clip-rule="evenodd" d="M29.0181 67.5644V68.8215H28.7637V67.5637L28.6384 67.5629L28.8956 67.2408L29.1514 67.5644H29.0181Z" fill="#85583C"/>
<path d="M29.5027 66.9596H27.6539C27.5913 66.9609 27.5318 66.987 27.4884 67.032C27.445 67.0771 27.4212 67.1375 27.4221 67.2001V69.1232C27.4212 69.1858 27.445 69.2462 27.4884 69.2912C27.5318 69.3363 27.5913 69.3623 27.6539 69.3637H29.5027C29.5651 69.3621 29.6244 69.336 29.6677 69.291C29.7109 69.2459 29.7347 69.1856 29.7337 69.1232V67.1993C29.7347 67.1369 29.7109 67.0766 29.6677 67.0316C29.6244 66.9865 29.5651 66.9604 29.5027 66.9589V66.9596ZM29.5952 69.0933C29.5956 69.1264 29.583 69.1583 29.5601 69.1821C29.5372 69.206 29.5058 69.2199 29.4728 69.2208H27.6838C27.6506 69.2201 27.6192 69.2062 27.5962 69.1823C27.5733 69.1584 27.5607 69.1264 27.5613 69.0933V67.2285C27.5609 67.2121 27.5638 67.1957 27.5698 67.1804C27.5757 67.1651 27.5846 67.1511 27.596 67.1393C27.6074 67.1274 27.621 67.1179 27.6361 67.1113C27.6511 67.1048 27.6673 67.1012 27.6838 67.101H29.4728C29.5059 67.1017 29.5374 67.1156 29.5603 67.1395C29.5832 67.1634 29.5958 67.1954 29.5952 67.2285V69.0933Z" fill="#85583C"/>
<path d="M55.4288 56.9751H44.0992V69.6069H55.4288V56.9751Z" fill="#FFA15E"/>
<path d="M63.1001 56.9758H55.4287V69.6069H63.1001V56.9758Z" fill="#EB843F"/>
<g style="mix-blend-mode:multiply">
<path d="M55.428 55.0127H44.0984V57.8926H55.428V55.0127Z" fill="#B2B2B2"/>
</g>
<g style="mix-blend-mode:multiply">
<path d="M63.1001 55.0127H55.4287V57.8926H63.1001V55.0127Z" fill="#B2B2B2"/>
</g>
<path d="M56.1006 54.8655H43.4265V57.7454H56.1006V54.8655Z" fill="#FFB47D"/>
<path d="M63.7997 54.8655H55.4287V57.7454H63.7997V54.8655Z" fill="#F59D5B"/>
<path fill-rule="evenodd" clip-rule="evenodd" d="M48.6231 68.4074H48.6625C48.7117 68.4078 48.7594 68.3902 48.7966 68.3579L48.8621 68.2595C48.8766 68.242 48.8882 68.2223 48.8964 68.2012C48.9002 68.1922 48.9022 68.1825 48.9022 68.1728C48.9022 68.163 48.9002 68.1533 48.8964 68.1443L48.8053 67.968L48.7915 67.9425L48.8162 67.9265L48.8592 67.898L48.4949 67.8252L48.3783 68.1684L48.4198 68.1407L48.4475 68.1225L48.4657 68.1509L48.6231 68.4074ZM48.1655 68.4074H48.5459L48.4256 68.2158L48.3732 68.25H48.3695C48.3619 68.2518 48.3539 68.2518 48.3462 68.25C48.3345 68.2488 48.3238 68.243 48.3163 68.234C48.309 68.2246 48.3049 68.2131 48.3047 68.2012C48.305 68.1849 48.3084 68.1688 48.3149 68.1538L48.4439 67.7727L48.4533 67.7465L48.481 67.7516L48.8753 67.8244C48.9212 67.8339 48.9416 67.8514 48.9481 67.8725C48.9496 67.8839 48.9476 67.8955 48.9424 67.9058C48.9372 67.916 48.929 67.9245 48.919 67.9301L48.884 67.9527L48.962 68.1035C48.97 68.1203 48.9745 68.1385 48.9753 68.157C48.9761 68.1756 48.973 68.1941 48.9663 68.2114C48.9558 68.2377 48.9413 68.2623 48.9234 68.2843L48.6209 68.7652C48.6071 68.7984 48.5834 68.8265 48.553 68.8457C48.5226 68.8649 48.487 68.8742 48.4511 68.8724H48.1043V68.4716C48.097 68.422 48.1203 68.4089 48.1655 68.4074Z" fill="#85583C"/>
<path d="M47.4368 67.5497C47.4368 67.5497 47.4397 67.5482 47.4368 67.5511V67.5497ZM48.0693 67.5074L47.9512 67.7574L48.0088 67.7829H48.0132C48.0195 67.7876 48.0245 67.7938 48.0278 67.8011C48.03 67.8064 48.0311 67.8121 48.0311 67.8178C48.0311 67.8236 48.03 67.8293 48.0278 67.8346C48.0238 67.8459 48.0161 67.8554 48.0059 67.8616C47.9922 67.8706 47.9768 67.8768 47.9607 67.8798L47.5708 67.976L47.5432 67.9825L47.5329 67.9563L47.3828 67.5839C47.3661 67.5402 47.3704 67.511 47.3828 67.4986C47.3916 67.4912 47.4024 67.4866 47.4139 67.4854C47.4253 67.4842 47.4369 67.4866 47.447 67.4921L47.4848 67.5096L47.5694 67.3638C47.5793 67.3482 47.5921 67.3347 47.6073 67.324C47.6224 67.3134 47.6395 67.3059 47.6576 67.3019C47.6863 67.2958 47.7158 67.2944 47.745 67.2975H48.2865L48.0416 67.3704L47.7501 67.3638C47.7279 67.3606 47.7053 67.3606 47.6831 67.3638C47.6734 67.3657 47.6642 67.3695 47.6561 67.375C47.648 67.3805 47.641 67.3876 47.6357 67.3959L47.5366 67.5679L47.522 67.5934L47.4951 67.581L47.4484 67.5599L47.5876 67.9053L47.9388 67.8178L47.8937 67.7982L47.8638 67.7843L47.8776 67.7544L48.0095 67.4746L48.0693 67.5074Z" fill="#85583C"/>
<path fill-rule="evenodd" clip-rule="evenodd" d="M48.2529 67.8741L47.9848 67.4558C47.971 67.4333 47.9527 67.4139 47.9312 67.3988C47.9096 67.3836 47.8852 67.373 47.8594 67.3676L48.0365 67.3093L48.3236 67.2976C48.3591 67.2911 48.3957 67.2959 48.4283 67.3112C48.461 67.3264 48.4881 67.3515 48.5058 67.3829L48.6931 67.6744L48.3557 67.893C48.3032 67.9265 48.2828 67.9134 48.2529 67.8762V67.8741Z" fill="#85583C"/>
<path fill-rule="evenodd" clip-rule="evenodd" d="M47.8303 68.9634C47.8303 68.9634 47.8281 68.962 47.8317 68.9634H47.8303ZM47.5184 68.4847L47.498 68.5189C47.4728 68.5609 47.4639 68.6107 47.4732 68.6588L47.5242 68.7652C47.5321 68.7862 47.5431 68.8059 47.557 68.8235C47.5631 68.8313 47.5706 68.8378 47.5793 68.8425C47.5879 68.8473 47.5975 68.8502 47.6073 68.8512L47.8048 68.8621H47.8339V68.892V68.943L48.0795 68.6625L47.8492 68.3943V68.4439V68.4766H47.8164L47.5184 68.4847ZM47.7501 68.0904L47.557 68.4183L47.7836 68.4118V68.3484V68.3404C47.7851 68.3327 47.7883 68.3254 47.7931 68.3192C47.8001 68.3098 47.8106 68.3035 47.8222 68.3017C47.8341 68.3002 47.8461 68.3025 47.8565 68.3083C47.8702 68.317 47.8823 68.3281 47.8922 68.3411L48.1545 68.645L48.1728 68.6668L48.1545 68.688L47.89 68.9904C47.858 69.0247 47.8324 69.0327 47.8128 69.0261C47.7931 69.0196 47.7807 68.9962 47.7778 68.9722V68.9306L47.6087 68.9219C47.5902 68.9201 47.5723 68.9147 47.5559 68.9059C47.5395 68.8972 47.525 68.8853 47.5133 68.8709C47.4953 68.8488 47.4806 68.8242 47.4695 68.798L47.2086 68.293C47.1872 68.2643 47.1751 68.2297 47.174 68.1938C47.1728 68.158 47.1826 68.1227 47.2021 68.0926L47.3784 67.7938L47.7239 67.9971C47.7763 68.0219 47.7763 68.0489 47.7516 68.089L47.7501 68.0904Z" fill="#85583C"/>
<path d="M48.9941 66.9596H47.1453C47.0826 66.9609 47.0231 66.9869 46.9795 67.032C46.936 67.077 46.912 67.1374 46.9128 67.2001V69.1232C46.912 69.1858 46.936 69.2462 46.9795 69.2913C47.0231 69.3363 47.0826 69.3623 47.1453 69.3637H48.9941C49.0564 69.3621 49.1157 69.336 49.1588 69.2909C49.2019 69.2459 49.2255 69.1856 49.2243 69.1232V67.1993C49.2255 67.137 49.2019 67.0767 49.1588 67.0316C49.1157 66.9865 49.0564 66.9604 48.9941 66.9589V66.9596ZM49.0866 69.0933C49.0868 69.1263 49.0741 69.1581 49.0513 69.1819C49.0284 69.2057 48.9972 69.2197 48.9642 69.2208H47.1744C47.1414 69.2199 47.11 69.206 47.0871 69.1821C47.0642 69.1583 47.0516 69.1264 47.052 69.0933V67.2285C47.0516 67.2121 47.0545 67.1957 47.0604 67.1804C47.0664 67.1651 47.0753 67.1511 47.0867 67.1393C47.0981 67.1274 47.1117 67.1179 47.1267 67.1113C47.1418 67.1048 47.158 67.1012 47.1744 67.101H48.9642C48.9975 67.1015 49.0292 67.1153 49.0524 67.1392C49.0756 67.1631 49.0885 67.1952 49.0881 67.2285L49.0866 69.0933Z" fill="#85583C"/>
<path d="M46.2635 69.0838H45.0596C45.0484 69.0838 45.0377 69.0793 45.0297 69.0714C45.0218 69.0635 45.0173 69.0527 45.0173 69.0415C45.0173 69.0303 45.0218 69.0196 45.0297 69.0116C45.0377 69.0037 45.0484 68.9993 45.0596 68.9993H46.2635C46.2747 68.9993 46.2854 69.0037 46.2934 69.0116C46.3013 69.0196 46.3057 69.0303 46.3057 69.0415C46.3057 69.0527 46.3013 69.0635 46.2934 69.0714C46.2854 69.0793 46.2747 69.0838 46.2635 69.0838Z" fill="#85583C"/>
<path fill-rule="evenodd" clip-rule="evenodd" d="M45.4772 67.5637V68.8207H45.2221V67.5629L45.0975 67.5622L45.3548 67.2401L45.6106 67.5637H45.4772Z" fill="#85583C"/>
<path fill-rule="evenodd" clip-rule="evenodd" d="M46.1017 67.5644V68.8215H45.8474V67.5637L45.722 67.5629L45.98 67.2408L46.2358 67.5644H46.1017Z" fill="#85583C"/>
<path d="M46.587 66.9596H44.7375C44.675 66.9611 44.6156 66.9872 44.5723 67.0322C44.5289 67.0773 44.505 67.1376 44.5058 67.2001V69.1232C44.5048 69.1858 44.5286 69.2462 44.572 69.2912C44.6155 69.3363 44.675 69.3623 44.7375 69.3637H46.587C46.6494 69.3621 46.7086 69.336 46.7518 69.2909C46.7949 69.2459 46.8185 69.1856 46.8173 69.1232V67.1993C46.8185 67.137 46.7949 67.0767 46.7518 67.0316C46.7086 66.9865 46.6494 66.9604 46.587 66.9589V66.9596ZM46.6789 69.0933C46.6793 69.1263 46.6667 69.158 46.644 69.1819C46.6213 69.2057 46.5901 69.2197 46.5572 69.2208H44.7674C44.7343 69.2199 44.703 69.206 44.6801 69.1821C44.6572 69.1583 44.6446 69.1264 44.645 69.0933V67.2285C44.6446 67.2121 44.6475 67.1957 44.6534 67.1804C44.6594 67.1651 44.6683 67.1511 44.6797 67.1393C44.691 67.1274 44.7046 67.1179 44.7197 67.1113C44.7348 67.1048 44.751 67.1012 44.7674 67.101H46.5572C46.5902 67.1019 46.6214 67.1158 46.6442 67.1397C46.667 67.1636 46.6794 67.1955 46.6789 67.2285V69.0933Z" fill="#85583C"/>
<path d="M38.6067 42.1549H27.2771V54.7867H38.6067V42.1549Z" fill="#FFA15E"/>
<path d="M46.2781 42.1549H38.6067V54.786H46.2781V42.1549Z" fill="#EB843F"/>
<g style="mix-blend-mode:multiply">
<path d="M38.6067 40.1917H27.2771V43.0716H38.6067V40.1917Z" fill="#B2B2B2"/>
</g>
<g style="mix-blend-mode:multiply">
<path d="M46.2781 40.1917H38.6067V43.0716H46.2781V40.1917Z" fill="#B2B2B2"/>
</g>
<path d="M39.2786 40.0453H26.6045V42.9252H39.2786V40.0453Z" fill="#FFB47D"/>
<path d="M46.9776 40.0453H38.6067V42.9252H46.9776V40.0453Z" fill="#F59D5B"/>
<path fill-rule="evenodd" clip-rule="evenodd" d="M32.0569 53.0743C32.0569 53.0743 32.0576 53.078 32.0569 53.0743V53.0743ZM31.8011 53.5866H31.8412C31.8902 53.587 31.9377 53.5694 31.9745 53.5371L32.0401 53.4387C32.0542 53.4214 32.0655 53.4019 32.0736 53.3811C32.0775 53.372 32.0796 53.3622 32.0796 53.3523C32.0796 53.3424 32.0775 53.3326 32.0736 53.3235L31.9825 53.1479L31.9694 53.1217L31.9942 53.1057L32.0372 53.078L31.6728 53.0051L31.5562 53.3483L31.5978 53.3206L31.6255 53.3024L31.6429 53.3308L31.8011 53.5866ZM31.3434 53.5866H31.7246L31.6036 53.395L31.5511 53.4292C31.5434 53.4308 31.5355 53.4308 31.5278 53.4292C31.5161 53.428 31.5054 53.4222 31.4979 53.4132C31.4905 53.4039 31.4867 53.3923 31.487 53.3804C31.487 53.3641 31.4903 53.348 31.4965 53.333L31.6255 52.9526L31.6349 52.9257L31.6626 52.9308L32.0569 53.0036C32.1028 53.0131 32.1232 53.0313 32.1297 53.0517C32.1314 53.0632 32.1295 53.0748 32.1243 53.0851C32.1191 53.0954 32.1108 53.1039 32.1006 53.1093L32.0656 53.1326L32.1436 53.2827C32.1515 53.2995 32.1561 53.3176 32.157 53.3361C32.1578 53.3547 32.155 53.3732 32.1487 53.3906C32.1376 53.4168 32.1229 53.4414 32.105 53.4635L31.8025 53.9444C31.7888 53.9776 31.765 54.0057 31.7346 54.0249C31.7042 54.0441 31.6686 54.0534 31.6327 54.0516H31.2859V53.6508C31.2749 53.6012 31.299 53.5888 31.3434 53.5866Z" fill="#85583C"/>
<path d="M30.6154 52.7303C30.6154 52.7303 30.6176 52.7267 30.6154 52.7303V52.7303ZM31.2472 52.688L31.1292 52.938L31.1867 52.9635H31.1911C31.1973 52.9684 31.2023 52.9746 31.2057 52.9817C31.2079 52.987 31.209 52.9927 31.209 52.9985C31.209 53.0042 31.2079 53.0099 31.2057 53.0152C31.2019 53.0266 31.1945 53.0363 31.1846 53.0429C31.1705 53.0511 31.1553 53.057 31.1394 53.0604L30.7488 53.1566L30.7211 53.1639L30.7109 53.1377L30.5608 52.7646C30.544 52.7208 30.5484 52.6917 30.5608 52.6793C30.5698 52.672 30.5807 52.6676 30.5922 52.6664C30.6037 52.6652 30.6153 52.6674 30.6256 52.6727L30.6635 52.6902L30.748 52.5445C30.7578 52.5287 30.7707 52.515 30.7858 52.5043C30.801 52.4935 30.8181 52.4859 30.8362 52.4818C30.865 52.4761 30.8945 52.4747 30.9237 52.4774H31.4549L31.2101 52.5503L30.9186 52.5445C30.8963 52.5412 30.8738 52.5412 30.8515 52.5445C30.8419 52.5464 30.8327 52.5502 30.8246 52.5557C30.8164 52.5612 30.8095 52.5683 30.8042 52.5765L30.7058 52.7485L30.6905 52.774L30.6635 52.7616L30.6169 52.7405L30.7561 53.0859L31.108 52.9992L31.0629 52.9788L31.0323 52.965L31.0461 52.9351L31.178 52.6553L31.2472 52.688Z" fill="#85583C"/>
<path fill-rule="evenodd" clip-rule="evenodd" d="M31.4309 53.0537L31.1627 52.6347C31.1489 52.6124 31.1307 52.5931 31.1091 52.578C31.0876 52.563 31.0631 52.5525 31.0374 52.5473L31.2145 52.489L31.5016 52.4766C31.5371 52.4701 31.5737 52.4748 31.6063 52.4901C31.639 52.5054 31.666 52.5305 31.6838 52.5618L31.8711 52.8533L31.5337 53.072C31.4812 53.1048 31.4608 53.0916 31.4309 53.0552V53.0537Z" fill="#85583C"/>
<path fill-rule="evenodd" clip-rule="evenodd" d="M31.009 54.1426C31.009 54.1426 31.006 54.1412 31.0097 54.1426H31.009ZM30.6971 53.6646L30.6767 53.6988C30.6515 53.7411 30.6427 53.7912 30.6519 53.8395L30.7029 53.9459C30.7108 53.9669 30.7218 53.9865 30.7357 54.0042C30.7417 54.0121 30.7492 54.0187 30.7579 54.0236C30.7665 54.0285 30.7761 54.0315 30.786 54.0326L30.9835 54.0428H31.0133V54.0727V54.1237L31.2582 53.8439L31.0221 53.5691V53.6187V53.6522H30.9893L30.6971 53.6646ZM30.9288 53.2703L30.7357 53.5983L30.9623 53.5917V53.529V53.5203C30.9639 53.5127 30.9671 53.5054 30.9718 53.4992C30.9788 53.4897 30.9893 53.4834 31.0009 53.4817C31.0128 53.4801 31.0248 53.4824 31.0352 53.4882C31.0491 53.4968 31.0612 53.5079 31.0709 53.521L31.3332 53.8256L31.3522 53.8468L31.3332 53.8679L31.0687 54.1703C31.0374 54.2046 31.0119 54.2133 30.9915 54.2068C30.9809 54.2022 30.9719 54.1945 30.9657 54.1848C30.9594 54.175 30.9562 54.1637 30.9565 54.1521V54.1106L30.7874 54.1018C30.7689 54.1001 30.751 54.0946 30.7346 54.0859C30.7182 54.0771 30.7037 54.0652 30.692 54.0508C30.6739 54.029 30.6593 54.0044 30.649 53.9779L30.3874 53.4737C30.3659 53.4448 30.3538 53.41 30.3528 53.374C30.3517 53.338 30.3618 53.3026 30.3815 53.2725L30.5571 52.9738L30.9026 53.1771C30.9514 53.2011 30.9507 53.2281 30.9295 53.2682L30.9288 53.2703Z" fill="#85583C"/>
<path d="M32.172 52.1385H30.3232C30.2607 52.1399 30.2012 52.1659 30.1577 52.211C30.1143 52.256 30.0905 52.3165 30.0915 52.379V54.3036C30.0905 54.3662 30.1143 54.4266 30.1577 54.4716C30.2012 54.5167 30.2607 54.5427 30.3232 54.5441H32.172C32.2344 54.5426 32.2937 54.5164 32.337 54.4714C32.3803 54.4263 32.404 54.3661 32.403 54.3036V52.379C32.404 52.3166 32.3803 52.2563 32.337 52.2112C32.2937 52.1662 32.2344 52.1401 32.172 52.1385ZM32.2646 54.2723C32.265 54.3053 32.2523 54.3372 32.2294 54.3611C32.2065 54.3849 32.1752 54.3988 32.1421 54.3998H30.3531C30.3367 54.3995 30.3205 54.396 30.3054 54.3894C30.2903 54.3828 30.2767 54.3734 30.2653 54.3615C30.254 54.3496 30.2451 54.3357 30.2391 54.3203C30.2331 54.305 30.2303 54.2887 30.2307 54.2723V52.4104C30.2303 52.3939 30.2331 52.3776 30.2391 52.3623C30.2451 52.347 30.254 52.333 30.2653 52.3211C30.2767 52.3093 30.2903 52.2998 30.3054 52.2932C30.3205 52.2866 30.3367 52.2831 30.3531 52.2828H32.1421C32.1752 52.2836 32.2067 52.2974 32.2296 52.3213C32.2526 52.3452 32.2651 52.3772 32.2646 52.4104V54.2723Z" fill="#85583C"/>
<path d="M29.4422 54.2629H28.2376C28.2264 54.2629 28.2156 54.2584 28.2077 54.2505C28.1998 54.2426 28.1953 54.2318 28.1953 54.2206C28.1953 54.2094 28.1998 54.1986 28.2077 54.1907C28.2156 54.1828 28.2264 54.1783 28.2376 54.1783H29.4422C29.4534 54.1783 29.4641 54.1828 29.4721 54.1907C29.48 54.1986 29.4844 54.2094 29.4844 54.2206C29.4844 54.2318 29.48 54.2426 29.4721 54.2505C29.4641 54.2584 29.4534 54.2629 29.4422 54.2629Z" fill="#85583C"/>
<path fill-rule="evenodd" clip-rule="evenodd" d="M28.6552 52.7426V53.9997H28.4001V52.7419L28.2755 52.7412L28.5328 52.4198L28.7885 52.7434L28.6552 52.7426Z" fill="#85583C"/>
<path fill-rule="evenodd" clip-rule="evenodd" d="M29.2804 52.7435V54.0005H29.0253V52.7427L28.9007 52.742L29.158 52.4207L29.4138 52.7442L29.2804 52.7435Z" fill="#85583C"/>
<path d="M29.765 52.1385H27.9162C27.8536 52.1399 27.794 52.1659 27.7505 52.2109C27.707 52.256 27.683 52.3164 27.6838 52.379V54.3036C27.683 54.3662 27.707 54.4267 27.7505 54.4717C27.794 54.5167 27.8536 54.5427 27.9162 54.5441H29.765C29.8274 54.5426 29.8866 54.5164 29.9298 54.4713C29.9729 54.4263 29.9965 54.366 29.9953 54.3036V52.379C29.9965 52.3166 29.9729 52.2563 29.9298 52.2113C29.8866 52.1662 29.8274 52.1401 29.765 52.1385ZM29.8576 54.2723C29.858 54.3053 29.8453 54.3372 29.8224 54.3611C29.7995 54.3849 29.7682 54.3988 29.7351 54.3998H27.9454C27.9123 54.399 27.8808 54.3852 27.8578 54.3613C27.8349 54.3374 27.8224 54.3054 27.8229 54.2723V52.4104C27.8226 52.3939 27.8254 52.3776 27.8314 52.3623C27.8373 52.347 27.8462 52.333 27.8576 52.3211C27.869 52.3093 27.8826 52.2998 27.8977 52.2932C27.9127 52.2866 27.9289 52.2831 27.9454 52.2828H29.7351C29.7682 52.2838 29.7995 52.2977 29.8224 52.3215C29.8453 52.3454 29.858 52.3773 29.8576 52.4104V54.2723Z" fill="#85583C"/>
<path d="M55.6903 42.1549H44.3608V54.7867H55.6903V42.1549Z" fill="#FFA15E"/>
<path d="M63.3617 42.1549H55.6904V54.786H63.3617V42.1549Z" fill="#EB843F"/>
<g style="mix-blend-mode:multiply">
<path d="M55.6903 40.1917H44.3608V43.0716H55.6903V40.1917Z" fill="#B2B2B2"/>
</g>
<g style="mix-blend-mode:multiply">
<path d="M63.3617 40.1917H55.6904V43.0716H63.3617V40.1917Z" fill="#B2B2B2"/>
</g>
<path d="M56.363 40.0453H43.6889V42.9252H56.363V40.0453Z" fill="#FFB47D"/>
<path d="M64.0613 40.0453H55.6904V42.9252H64.0613V40.0453Z" fill="#F59D5B"/>
<path fill-rule="evenodd" clip-rule="evenodd" d="M49.1405 53.0743C49.1405 53.0743 49.1412 53.078 49.1405 53.0743V53.0743ZM48.8854 53.5866H48.9248C48.974 53.587 49.0217 53.5694 49.0589 53.5371L49.1245 53.4387C49.1388 53.4214 49.1503 53.402 49.1587 53.3811C49.1626 53.372 49.1646 53.3622 49.1646 53.3523C49.1646 53.3424 49.1626 53.3326 49.1587 53.3235L49.0676 53.1479L49.0538 53.1217L49.0786 53.1057L49.1216 53.078L48.7572 53.0051L48.6406 53.3483L48.6821 53.3206L48.7098 53.3024L48.7273 53.3308L48.8854 53.5866ZM48.4278 53.5866H48.8082L48.688 53.395L48.6355 53.4292H48.6311C48.6234 53.4307 48.6155 53.4307 48.6078 53.4292C48.602 53.4287 48.5964 53.427 48.5913 53.4242C48.5861 53.4215 48.5816 53.4177 48.5779 53.4132C48.5706 53.4038 48.5665 53.3923 48.5663 53.3804C48.5667 53.3642 48.5699 53.3481 48.5757 53.333L48.7055 52.9526L48.7142 52.9257L48.7419 52.9308L49.1369 53.0036C49.1828 53.0131 49.2025 53.0313 49.2097 53.0517C49.2111 53.0631 49.209 53.0747 49.2038 53.0849C49.1987 53.0952 49.1906 53.1036 49.1806 53.1093L49.1456 53.1326L49.2236 53.2827C49.2315 53.2995 49.2359 53.3177 49.2366 53.3362C49.2374 53.3547 49.2344 53.3732 49.228 53.3906C49.2174 53.4169 49.2029 53.4415 49.185 53.4635L48.8825 53.9444C48.8686 53.9775 48.8448 54.0055 48.8145 54.0246C48.7841 54.0438 48.7486 54.0532 48.7127 54.0516H48.3593V53.6508C48.3593 53.6012 48.3826 53.5888 48.4278 53.5866Z" fill="#85583C"/>
<path d="M47.6991 52.7303C47.6991 52.7303 47.7034 52.7267 47.6991 52.7303V52.7303ZM48.3309 52.6881L48.2136 52.938L48.2711 52.9635H48.2755C48.2815 52.9686 48.2864 52.9748 48.2901 52.9817C48.2923 52.987 48.2934 52.9927 48.2934 52.9985C48.2934 53.0042 48.2923 53.0099 48.2901 53.0152C48.2866 53.0267 48.2791 53.0365 48.2689 53.0429C48.255 53.0514 48.2397 53.0573 48.2238 53.0604L47.8332 53.1566L47.8062 53.1639L47.7953 53.1377L47.6495 52.7646C47.6328 52.7208 47.6364 52.6917 47.6495 52.6793C47.6584 52.672 47.6692 52.6675 47.6806 52.6664C47.692 52.6652 47.7035 52.6674 47.7137 52.6727L47.7516 52.6902L47.8361 52.5445C47.8458 52.5287 47.8586 52.515 47.8738 52.5042C47.8889 52.4934 47.9061 52.4858 47.9243 52.4818C47.953 52.4761 47.9825 52.4747 48.0117 52.4774H48.5422L48.2981 52.5503L48.0066 52.5445C47.9844 52.5413 47.9618 52.5413 47.9396 52.5445C47.9298 52.5463 47.9205 52.55 47.9122 52.5555C47.9039 52.5611 47.8969 52.5682 47.8915 52.5766L47.7931 52.7485L47.7785 52.774L47.7516 52.7617L47.7049 52.7405L47.8492 53.091L48.2004 53.0043L48.1553 52.9839L48.1247 52.9701L48.1392 52.9402L48.2704 52.6604L48.3309 52.6881Z" fill="#85583C"/>
<path fill-rule="evenodd" clip-rule="evenodd" d="M48.5152 53.0538L48.2471 52.6348C48.2331 52.6125 48.2148 52.5933 48.1933 52.5783C48.1717 52.5633 48.1474 52.5528 48.1217 52.5473L48.2988 52.489L48.5852 52.4766C48.6208 52.4701 48.6575 52.4748 48.6903 52.4901C48.723 52.5053 48.7502 52.5304 48.7681 52.5619L48.9554 52.8534L48.618 53.072C48.5648 53.1048 48.5451 53.0917 48.5152 53.0552V53.0538Z" fill="#85583C"/>
<path fill-rule="evenodd" clip-rule="evenodd" d="M48.0926 54.1426C48.0926 54.1426 48.0904 54.1412 48.0941 54.1426H48.0926ZM47.78 53.6646L47.7603 53.6988C47.7348 53.741 47.726 53.7912 47.7355 53.8395L47.7865 53.9459C47.7944 53.9669 47.8055 53.9865 47.8193 54.0042C47.8253 54.012 47.8327 54.0186 47.8412 54.0234C47.8497 54.0283 47.8591 54.0314 47.8689 54.0326L48.0671 54.0428H48.0963V54.0727V54.1237L48.3418 53.8439L48.105 53.5691V53.6187V53.6522H48.0715L47.78 53.6646ZM48.0124 53.2703L47.8193 53.5983L48.0452 53.5917V53.529V53.5203C48.0468 53.5127 48.0501 53.5054 48.0547 53.4992C48.0616 53.4899 48.0717 53.4836 48.0831 53.4817C48.095 53.4801 48.107 53.4824 48.1174 53.4882C48.1315 53.4967 48.1439 53.5079 48.1538 53.521L48.4162 53.8256L48.4344 53.8468L48.4162 53.8679L48.1509 54.1703C48.1196 54.2046 48.0941 54.2133 48.0744 54.2068C48.0637 54.2023 48.0545 54.1946 48.0482 54.1849C48.0418 54.1752 48.0385 54.1637 48.0387 54.1521V54.1106L47.8689 54.1018C47.8505 54.1002 47.8326 54.0948 47.8163 54.086C47.8 54.0772 47.7857 54.0653 47.7742 54.0508C47.7561 54.0288 47.7414 54.0042 47.7304 53.9779L47.4688 53.4737C47.4474 53.4448 47.4353 53.41 47.4342 53.374C47.4332 53.338 47.4432 53.3026 47.463 53.2725L47.6386 52.9738L47.9848 53.1771C48.0358 53.2011 48.035 53.2281 48.0139 53.2682L48.0124 53.2703Z" fill="#85583C"/>
<path d="M49.2564 52.1385H47.4069C47.3444 52.1401 47.285 52.1662 47.2416 52.2112C47.1982 52.2562 47.1743 52.3165 47.1751 52.379V54.3036C47.1742 54.3662 47.198 54.4266 47.2414 54.4716C47.2848 54.5167 47.3443 54.5427 47.4069 54.5441H49.2564C49.3188 54.5426 49.378 54.5164 49.4211 54.4713C49.4643 54.4263 49.4878 54.366 49.4867 54.3036V52.379C49.4878 52.3166 49.4643 52.2563 49.4211 52.2113C49.378 52.1662 49.3188 52.1401 49.2564 52.1385ZM49.3482 54.2723C49.3488 54.3053 49.3363 54.3372 49.3136 54.361C49.2908 54.3849 49.2595 54.3988 49.2265 54.3998H47.4367C47.4036 54.399 47.3722 54.3852 47.3492 54.3613C47.3263 54.3374 47.3137 54.3054 47.3143 54.2723V52.4104C47.3139 52.3939 47.3168 52.3776 47.3227 52.3623C47.3287 52.347 47.3376 52.333 47.349 52.3211C47.3604 52.3093 47.374 52.2998 47.389 52.2932C47.4041 52.2866 47.4203 52.2831 47.4367 52.2828H49.2265C49.2595 52.2838 49.2908 52.2977 49.3136 52.3216C49.3363 52.3455 49.3488 52.3774 49.3482 52.4104V54.2723Z" fill="#85583C"/>
<path d="M46.5258 54.2629H45.322C45.3108 54.2629 45.3 54.2584 45.2921 54.2505C45.2842 54.2426 45.2797 54.2318 45.2797 54.2206C45.2797 54.2094 45.2842 54.1986 45.2921 54.1907C45.3 54.1828 45.3108 54.1783 45.322 54.1783H46.5258C46.537 54.1783 46.5478 54.1828 46.5557 54.1907C46.5636 54.1986 46.5681 54.2094 46.5681 54.2206C46.5681 54.2318 46.5636 54.2426 46.5557 54.2505C46.5478 54.2584 46.537 54.2629 46.5258 54.2629Z" fill="#85583C"/>
<path fill-rule="evenodd" clip-rule="evenodd" d="M45.7388 52.7426V53.9997H45.4845V52.7419L45.3591 52.7412L45.6171 52.4198L45.8729 52.7434L45.7388 52.7426Z" fill="#85583C"/>
<path fill-rule="evenodd" clip-rule="evenodd" d="M46.3641 52.7435V54.0005H46.1097V52.7427L45.9844 52.742L46.2416 52.4207L46.4981 52.7442L46.3641 52.7435Z" fill="#85583C"/>
<path d="M46.8487 52.1385H44.9999C44.9374 52.1401 44.878 52.1662 44.8346 52.2112C44.7912 52.2562 44.7674 52.3165 44.7681 52.379V54.3036C44.7672 54.3662 44.791 54.4266 44.8344 54.4716C44.8778 54.5167 44.9373 54.5427 44.9999 54.5441H46.8487C46.9111 54.5426 46.9704 54.5164 47.0137 54.4714C47.0569 54.4263 47.0807 54.3661 47.0797 54.3036V52.379C47.0807 52.3166 47.0569 52.2563 47.0137 52.2112C46.9704 52.1662 46.9111 52.1401 46.8487 52.1385ZM46.9412 54.2723C46.9418 54.3053 46.9294 54.3372 46.9066 54.361C46.8838 54.3849 46.8525 54.3988 46.8195 54.3998H45.0298C44.9966 54.399 44.9652 54.3852 44.9422 54.3613C44.9193 54.3374 44.9067 54.3054 44.9073 54.2723V52.4104C44.9069 52.3939 44.9098 52.3776 44.9158 52.3623C44.9217 52.347 44.9306 52.333 44.942 52.3211C44.9534 52.3093 44.967 52.2998 44.9821 52.2932C44.9971 52.2866 45.0133 52.2831 45.0298 52.2828H46.8195C46.8525 52.2838 46.8838 52.2977 46.9066 52.3216C46.9294 52.3455 46.9418 52.3774 46.9412 52.4104V54.2723Z" fill="#85583C"/>
<g style="mix-blend-mode:multiply">
<path d="M90.1958 106.182C99.1092 106.182 106.335 104.066 106.335 101.457C106.335 98.8472 99.1092 96.7317 90.1958 96.7317C81.2823 96.7317 74.0566 98.8472 74.0566 101.457C74.0566 104.066 81.2823 106.182 90.1958 106.182Z" fill="#E4E6E9"/>
</g>
<path d="M100.043 38.4726C100.179 39.2341 100.858 40.7921 101.05 42.3013C101.099 42.7109 101.144 43.0995 101.186 43.4673C101.28 44.3418 101.344 45.115 101.394 45.808L104.609 45.8699C104.755 45.6076 104.86 45.1412 104.93 44.5582C105.246 41.9115 104.89 36.7491 104.79 36.1436C104.754 35.9151 104.705 35.6889 104.644 35.4658C104.453 34.8165 104.229 34.1228 103.67 33.7417C103.111 33.3605 102.358 33.4145 101.746 33.6805C100.553 34.2081 100.025 34.8588 99.8515 35.6342C99.662 36.4423 99.8485 37.3853 100.043 38.4726Z" fill="#FFBD78"/>
<path d="M79.5796 38.4726C79.4433 39.2341 78.7649 40.7921 78.5725 42.3013C78.5205 42.7109 78.4751 43.0995 78.4362 43.4673C78.3422 44.3418 78.2788 45.115 78.2285 45.808L75.0134 45.8699C74.8676 45.6076 74.7627 45.1412 74.692 44.5582C74.3757 41.9115 74.7328 36.7491 74.8327 36.1436C74.8682 35.915 74.9169 35.6888 74.9784 35.4658C75.1693 34.8165 75.3938 34.1228 75.952 33.7417C76.5102 33.3605 77.2637 33.4145 77.8758 33.6805C79.0702 34.2081 79.5978 34.8588 79.7705 35.6342C79.9607 36.4423 79.7734 37.3853 79.5796 38.4726Z" fill="#FFBD78"/>
<path d="M98.1557 99.1053C97.9437 99.4026 97.5509 99.4981 97.1901 99.5563C96.7249 99.6324 96.2559 99.683 95.7851 99.7079C95.4798 99.7247 95.1548 99.7254 94.8946 99.5622C94.6476 99.4099 94.5018 99.1388 94.3794 98.875C94.23 98.5536 94.0945 98.1878 94.2096 97.8548C94.3073 97.5684 94.574 97.3651 94.8655 97.2761C95.157 97.1872 95.4645 97.1945 95.7655 97.22C96.4942 97.2805 97.2718 97.4153 97.9517 97.6937C98.2432 97.8125 98.2862 97.8941 98.2978 98.1878C98.3117 98.5048 98.3503 98.8298 98.1557 99.1053Z" fill="white"/>
<path d="M95.1584 101.436C96.6363 101.963 102.227 103.779 103.947 103.209C104.676 102.968 105.143 101.987 104.991 101.23C104.933 100.929 104.355 100.468 103.625 99.9907C103.359 99.7247 100.418 98.1849 100.305 98.0734C99.5927 97.5582 99.1854 96.8812 98.5222 96.3397C97.7694 96.4468 97.5275 96.6932 97.0079 96.9351C97.2098 97.2754 97.604 98.0151 97.8095 98.351C96.6487 99.1351 94.5616 98.5565 94.0689 97.7061C93.9421 100.351 93.3154 100.783 95.1584 101.436Z" fill="#212E61"/>
<path d="M95.1584 101.436C96.6363 101.963 102.227 103.779 103.947 103.21C104.676 102.968 105.143 101.987 104.991 101.23C104.933 100.929 104.355 100.468 103.625 99.9908L103.62 99.9951C103.498 99.7503 103.024 99.7663 102.832 100.04C102.379 100.685 103.172 101.187 102.957 101.635C102.441 102.694 97.8999 101.24 96.8156 100.882C94.4107 100.091 94.5725 99.3633 94.1994 98.9144C94.1401 98.8412 94.058 98.79 93.9662 98.7687C93.7316 100.803 93.8482 100.969 95.1584 101.436Z" fill="#E6EBF0"/>
<path d="M101.551 100.338L101.775 100.334C101.766 99.9257 102.169 99.4521 102.684 99.4105C102.59 99.353 102.492 99.299 102.398 99.2451C101.884 99.412 101.544 99.8988 101.551 100.338Z" fill="white"/>
<path d="M101.017 100.047L101.242 100.042C101.232 99.6191 101.667 99.149 102.173 99.1199C102.075 99.0616 101.976 99.0077 101.882 98.9537C101.338 99.1264 101.011 99.6176 101.017 100.047Z" fill="white"/>
<path d="M100.489 99.7604L100.713 99.7561C100.704 99.3137 101.15 98.848 101.66 98.8284C101.549 98.7752 101.445 98.7169 101.351 98.663C100.86 98.816 100.474 99.2853 100.489 99.7604Z" fill="white"/>
<path d="M99.9535 99.4689L100.178 99.4646C100.168 99.0375 100.592 98.5718 101.125 98.542C101.013 98.4793 100.91 98.4254 100.821 98.3715C100.291 98.5354 99.9491 99.0273 99.9535 99.4689Z" fill="white"/>
<path d="M99.423 99.1825L99.6467 99.1781C99.6379 98.7591 100.058 98.2811 100.594 98.2505C100.493 98.2016 100.397 98.1432 100.308 98.0763C99.8281 98.2206 99.4149 98.6841 99.423 99.1825Z" fill="white"/>
<path d="M82.1651 99.1053C82.3772 99.4026 82.77 99.4981 83.1307 99.5563C83.5962 99.6324 84.0654 99.6829 84.5364 99.7079C84.841 99.7247 85.166 99.7254 85.4262 99.5622C85.674 99.4099 85.819 99.1388 85.9414 98.875C86.0908 98.5536 86.2263 98.1878 86.1112 97.8548C86.0136 97.5684 85.7468 97.3651 85.4553 97.2761C85.1639 97.1872 84.8571 97.1945 84.5554 97.22C83.8266 97.2805 83.0498 97.4153 82.3692 97.6937C82.0777 97.8125 82.0347 97.8941 82.023 98.1878C82.0092 98.5048 81.9684 98.8298 82.1651 99.1053Z" fill="white"/>
<path d="M85.1602 101.436C83.6816 101.963 78.0879 103.779 76.371 103.209C75.6423 102.968 75.1744 101.987 75.3267 101.23C75.385 100.929 75.9629 100.468 76.6931 99.9907C76.9591 99.7247 79.8995 98.1849 80.0125 98.0734C80.7252 97.5582 81.1325 96.8812 81.7957 96.3397C82.5485 96.4468 82.7904 96.6932 83.31 96.9351C83.1081 97.2754 82.7139 98.0151 82.5127 98.351C83.6729 99.1351 85.76 98.5565 86.2533 97.7061C86.3787 100.351 87.0054 100.783 85.1602 101.436Z" fill="#212E61"/>
<path d="M85.1602 101.436C83.6816 101.963 78.0879 103.779 76.371 103.21C75.6423 102.968 75.1744 101.987 75.3267 101.23C75.385 100.929 75.9629 100.468 76.6931 99.9908L76.6975 99.9951C76.8206 99.7503 77.2936 99.7663 77.486 100.04C77.9392 100.685 77.1456 101.187 77.3606 101.635C77.8766 102.694 82.418 101.24 83.5024 100.882C85.9108 100.091 85.7454 99.3633 86.1185 98.9144C86.1778 98.8412 86.2599 98.79 86.3517 98.7687C86.59 100.803 86.4719 100.969 85.1602 101.436Z" fill="#E6EBF0"/>
<path d="M78.7707 100.338L78.5463 100.334C78.555 99.9257 78.152 99.4521 77.6368 99.4105C77.7308 99.353 77.8299 99.299 77.9239 99.2451C78.437 99.412 78.7773 99.8988 78.7707 100.338Z" fill="white"/>
<path d="M79.3034 100.047L79.0797 100.042C79.0885 99.6191 78.6541 99.149 78.1477 99.1199C78.246 99.0616 78.3451 99.0077 78.4392 98.9537C78.9821 99.1264 79.3107 99.6176 79.3034 100.047Z" fill="white"/>
<path d="M79.8317 99.7604L79.608 99.7561C79.6175 99.3137 79.1708 98.848 78.6607 98.8284C78.7729 98.7752 78.8757 98.7169 78.9697 98.663C79.4608 98.816 79.8478 99.2853 79.8317 99.7604Z" fill="white"/>
<path d="M80.3652 99.4689L80.1414 99.4646C80.1502 99.0375 79.7275 98.5718 79.1941 98.542C79.3056 98.4793 79.4127 98.4254 79.4987 98.3715C80.0299 98.5354 80.3724 99.0273 80.3652 99.4689Z" fill="white"/>
<path d="M80.8979 99.1825L80.6742 99.1781C80.6829 98.7591 80.2639 98.2811 79.7268 98.2505C79.8276 98.2017 79.9236 98.1434 80.0132 98.0763C80.4964 98.2206 80.9066 98.6841 80.8979 99.1825Z" fill="white"/>
<path d="M99.079 73.5035C98.8888 88.1146 99.662 92.4884 99.0936 97.717C98.1294 98.0042 97.1508 98.0552 96.2093 98.0202C96.1225 98.0166 96.0365 98.0129 95.9505 98.0071C95.2779 97.9699 94.6286 97.8912 94.0216 97.8336C93.5326 96.4286 93.0167 92.75 92.5226 88.3353C91.5905 79.9433 89.7979 61.2127 89.7498 60.5015C89.7235 60.1451 89.7097 59.8099 89.7068 59.4893C89.6849 57.1945 90.1739 55.6824 90.0136 53.1894C90.0733 53.1819 90.1334 53.179 90.1936 53.1806C90.6461 53.1631 92.081 53.0721 97.991 52.8622C98.1367 53.2265 98.2781 53.8095 98.4326 55.2845C98.8283 58.9726 99.1708 66.4159 99.079 73.5035Z" fill="#294E95"/>
<path d="M90.1965 53.1806C90.0391 55.6335 89.9779 57.1514 89.8321 59.3507C89.8073 59.7151 89.7811 60.094 89.7512 60.5014C89.7512 60.5087 87.7567 86.6279 87.729 87.036C87.7254 87.0493 87.7239 87.063 87.7246 87.0768C87.2539 93.3621 87.1686 93.1595 86.2439 97.8124C86.2439 97.8175 86.2395 97.8277 86.2395 97.8336H86.2169C86.0908 97.843 85.9655 97.8583 85.8445 97.8729L85.5588 97.9094C85.3235 97.94 85.0895 97.9713 84.852 97.9997L84.5823 98.0303C84.4432 98.0449 84.304 98.0609 84.1655 98.0704C84.1517 98.0704 84.1385 98.0755 84.1203 98.0755C84.0937 98.0781 84.0668 98.0781 84.0402 98.0755C83.2165 98.1471 82.3868 98.0651 81.5931 97.8336C80.9831 93.518 80.481 87.2706 80.5845 73.5034C80.6384 66.4158 80.5466 58.9164 81.1325 55.2545C81.3876 53.6586 81.5064 53.1609 81.6711 52.8956C89.6033 53.1871 90.1054 53.1682 90.1972 53.1806H90.1965Z" fill="#294E95"/>
<path d="M94.7882 21.3445L94.359 22.3698L92.8607 25.9647L85.8897 24.36L84.7689 21.2862L86.1593 20.6712L86.3444 20.5874L86.3626 17.3241H93.1806V20.6092L94.7882 21.3445Z" fill="#FFBD78"/>
<g style="mix-blend-mode:multiply">
<path d="M94.789 21.3445L94.3597 22.3706C93.8751 22.1684 93.3545 22.0668 92.8294 22.0718C91.5891 22.0757 90.3474 22.0805 89.1041 22.0864C88.4563 22.0864 87.78 22.0864 87.2051 21.7847C86.7467 21.5442 86.4035 21.1368 86.1608 20.6712L86.3466 20.5874L86.3641 17.3241H93.1821V20.6092L94.789 21.3445Z" fill="#F5F5F5"/>
</g>
<path d="M104.663 34.3392C103.39 35.7967 100.963 35.7967 99.4608 35.7179V35.6378C99.4645 34.5644 99.5082 33.3241 99.3879 33.3241C99.2422 34.1716 99.0425 35.0883 98.8239 36.0524V36.067C98.3138 38.3662 97.7075 40.9349 97.4779 43.4527C97.3103 45.2534 97.365 47.6655 97.7549 49.4334C98.0675 50.8413 98.1192 52.4642 98.4311 53.8721C97.921 53.945 97.3613 53.9953 96.7798 54.0353C94.4909 54.1957 91.8244 54.1629 89.8379 54.1374C87.3493 54.1702 83.7807 54.2139 81.2389 53.8721C81.5479 52.4642 81.6033 50.8413 81.9159 49.4334C82.305 47.6655 82.3597 45.2534 82.1957 43.4527C81.8649 39.8724 80.7842 36.1909 80.2857 33.3233C80.1582 33.3233 80.2129 34.6256 80.2129 35.7172C78.7102 35.7937 76.2872 35.7937 75.0141 34.3385C75.0214 32.9845 75.5708 31.9264 75.651 30.9732C75.8616 28.3643 75.651 27.6662 77.0443 25.7307C77.5501 25.0282 81.4357 22.9797 84.9146 21.2191C86.2897 24.1515 87.4725 24.8497 89.8372 24.8497C91.9075 24.8497 93.0713 24.3155 94.254 22.2124C94.4173 21.9146 94.5846 21.5835 94.7561 21.2191C98.2373 22.9797 102.127 25.0282 102.626 25.7307C104.02 27.6662 103.809 28.3643 104.023 30.9732C104.103 31.9271 104.656 32.9852 104.663 34.3392Z" fill="#3979C4"/>
<path d="M89.7111 21.0435C86.8786 21.0435 84.9678 17.0355 85.0655 13.9464C85.072 13.7365 85.0771 13.5259 85.0837 13.3146C85.1675 10.4062 85.3504 7.43298 89.7111 7.43298C94.0988 7.43298 94.257 10.4419 94.3408 13.367C94.3466 13.5609 94.351 13.754 94.3575 13.9464C94.4552 17.0391 92.5444 21.0435 89.7111 21.0435Z" fill="#FFBD78"/>
<path d="M88.7609 18.2889C89.083 18.3829 89.3949 18.4944 89.7148 18.5003C90.0347 18.5061 90.3459 18.4012 90.6621 18.2889C90.5262 18.3897 90.3771 18.4713 90.2191 18.5316C90.0575 18.5934 89.8856 18.6241 89.7126 18.622C89.5409 18.6152 89.3715 18.58 89.2112 18.5178C89.0531 18.4585 88.902 18.3817 88.7609 18.2889Z" fill="#8E613F"/>
<path d="M89.7112 16.986C88.9343 16.986 87.7217 16.9226 87.7217 16.9226C87.7764 17.3241 88.5663 17.9006 89.7112 17.9006C90.856 17.9006 91.4863 17.3693 91.7006 16.9226C91.7006 16.9226 90.4887 16.986 89.7112 16.986Z" fill="#911E20"/>
<path d="M89.7111 16.9824H87.9972C88.0919 17.2535 88.1137 17.3927 88.3214 17.5158C88.6734 17.7257 89.3111 17.8015 89.7111 17.8015C90.1374 17.8015 90.7401 17.7432 91.1074 17.4976C91.2888 17.3767 91.3194 17.2375 91.4258 16.9824H89.7111Z" fill="#FDFCFA"/>
<path d="M89.7112 16.951C89.7112 16.951 88.39 16.9605 87.7217 16.9226C88.2005 17.0494 89.0713 17.1143 89.7112 17.1143C90.351 17.1143 91.2218 17.0494 91.7006 16.9226C91.0331 16.9605 89.7112 16.951 89.7112 16.951Z" fill="#F09C8A"/>
<path d="M91.5658 17.142C91.5264 17.5005 90.5645 18.3378 89.69 18.3378C88.8155 18.3378 87.8558 17.5012 87.8142 17.1427C87.9753 17.3803 88.3331 17.6324 88.8272 17.7782C89.1141 17.8606 89.4112 17.9018 89.7097 17.9006C90.668 17.9006 91.2663 17.5282 91.5607 17.1442L91.5658 17.142Z" fill="#F09C8A"/>
<path d="M85.6149 10.1264C85.6878 9.30658 85.8911 9.21112 86.5623 8.787C87.2684 8.33956 88.0431 8.42263 88.8665 8.44668C89.741 8.46927 90.5907 8.7593 91.4659 8.78262C91.9316 8.79501 93.0094 8.83728 93.3672 9.15282C93.7498 9.49095 93.9057 9.68844 93.8824 10.2146C93.8299 11.3864 94.0391 12.4102 94.3328 13.4771C94.9711 11.9395 94.9267 12.1807 95.0221 11.1648C95.1176 10.149 95.4732 9.15501 95.122 8.20401C94.6599 6.95424 93.9618 5.61118 92.79 5.09306C92.3047 4.87881 91.7632 4.47801 90.7991 5.14844C90.0536 4.75711 89.5275 4.68424 88.7266 4.75565C86.7467 4.93055 84.8199 6.05279 84.4672 8.1151C84.156 9.93693 84.5867 11.7077 85.1187 13.4348C85.3271 12.8344 85.5195 11.1816 85.6149 10.1264Z" fill="#52372C"/>
<path d="M95.1103 13.8123C95.0878 13.9231 94.6687 15.2188 94.3437 15.0512L94.3335 15.0454C94.2668 14.9917 94.2203 14.9169 94.2016 14.8333C94.1831 14.7736 94.1685 14.7127 94.1579 14.6511C94.1506 14.6074 94.144 14.5607 94.1397 14.5126C94.1106 14.195 94.113 13.8752 94.147 13.558C94.163 13.3897 94.1856 13.2213 94.2155 13.0581C94.2337 12.9517 94.2555 12.8475 94.2796 12.7484C94.4377 12.0998 94.6097 11.6866 94.9631 11.7376C95.2408 11.7777 95.2648 13.0734 95.1103 13.8123Z" fill="#FFBD78"/>
<path d="M94.9121 12.0904C94.8115 12.0314 94.6935 12.1291 94.6257 12.2252C94.5603 12.3237 94.5217 12.4375 94.5135 12.5554C94.4486 13.0582 94.5222 13.2112 94.6192 13.991C94.7613 13.9363 94.9106 13.6091 94.9609 13.3898C95.0338 13.0473 95.2109 12.2668 94.9121 12.0904Z" fill="#D9B28F"/>
<path d="M85.2797 14.5104C85.2706 14.6158 85.2508 14.7201 85.2207 14.8216C85.2207 14.8216 85.2207 14.8216 85.2207 14.8259C85.2025 14.9121 85.1552 14.9893 85.0866 15.0446L85.0786 15.0497C84.7543 15.2253 84.3338 13.9252 84.3098 13.8108C84.1553 13.0704 84.1793 11.7747 84.4555 11.7332C84.7995 11.6829 84.9715 12.0764 85.1267 12.6995L85.1376 12.7439C85.1689 12.8715 85.1966 13.0077 85.2185 13.1477C85.2964 13.5975 85.317 14.0554 85.2797 14.5104Z" fill="#FFBD78"/>
<path d="M84.5044 12.0904C84.6049 12.0314 84.723 12.1291 84.7915 12.2252C84.8562 12.324 84.8949 12.4376 84.9037 12.5554C84.9678 13.0582 84.895 13.2112 84.7981 13.991C84.6523 13.9363 84.5022 13.6091 84.4556 13.3898C84.3856 13.0473 84.2085 12.2668 84.5044 12.0904Z" fill="#D9B28F"/>
<path d="M87.7188 16.4591L91.009 16.473C91.009 16.473 90.8428 17.515 89.6047 17.6652C88.0933 17.8473 87.7188 16.4591 87.7188 16.4591Z" fill="white"/>
<path d="M89.795 13.0515C89.9043 13.84 90.6571 14.7174 89.9699 15.3966C89.9096 15.4619 89.8365 15.5141 89.7551 15.5498C89.6737 15.5856 89.5858 15.6041 89.4969 15.6043C89.4612 15.6043 89.4904 15.5562 89.4867 15.5686C90.2716 15.0133 89.615 13.7227 89.6135 13.0646C89.6135 12.6201 89.8117 12.0954 89.8707 12.1275C89.9298 12.1596 89.7061 12.4729 89.795 13.0515Z" fill="#EBB194"/>
<path d="M87.4011 13.1039C87.3931 13.3488 87.2612 13.5412 87.1059 13.5412C86.9507 13.5412 86.8312 13.3342 86.8385 13.0901C86.8458 12.8459 86.9777 12.6528 87.13 12.6528C87.2823 12.6528 87.4084 12.8598 87.4011 13.1039Z" fill="#251611"/>
<path d="M92.4206 13.1237C92.4133 13.3678 92.2814 13.5609 92.1291 13.5609C91.9768 13.5609 91.8536 13.354 91.8609 13.1091C91.8682 12.8643 92.0008 12.6719 92.1561 12.6719C92.3113 12.6719 92.4279 12.8788 92.4206 13.1237Z" fill="#251611"/>
<path d="M91.5607 11.433C91.2692 11.4491 91.2488 11.0271 91.5366 10.9958C92.7908 10.8588 93.7126 11.5161 93.4714 11.7019C93.2302 11.8878 93.322 11.3347 91.5607 11.433Z" fill="#704B3C"/>
<path d="M87.8616 11.433C88.1531 11.4491 88.1735 11.0271 87.8864 10.9958C86.6323 10.8588 85.7097 11.5161 85.9516 11.7019C86.1805 11.879 86.101 11.3347 87.8616 11.433Z" fill="#704B3C"/>
<path d="M94.4151 14.4682C94.4121 14.5814 94.3989 14.694 94.3758 14.8049L94.1994 14.8296L94.1491 14.8369L94.1557 14.6474L94.1615 14.5017L94.2133 13.0508C94.2315 12.9444 94.2534 12.8402 94.2774 12.7411C94.3423 13.147 94.445 13.9158 94.4151 14.4682Z" fill="#D0EDFD"/>
<path d="M85.2207 13.1507V14.8268L85.0458 14.8013C85.0458 14.7889 85.0415 14.7765 85.04 14.7634C85.0298 14.7044 85.0225 14.6424 85.0167 14.5768C85.0167 14.5666 85.0167 14.5572 85.0167 14.5492C85.0167 14.5244 85.013 14.4989 85.0116 14.4763C84.9788 13.9093 85.0619 13.193 85.1325 12.7098L85.1435 12.7543C85.1712 12.8745 85.1989 13.0108 85.2207 13.1507Z" fill="#D0EDFD"/>
<path d="M88.1524 14.8655C88.6326 14.8655 88.8972 14.1426 89.7112 14.1426C90.5251 14.1426 90.7904 14.8655 91.2699 14.8655C91.8529 14.8655 94.418 14.4698 94.418 14.4698C94.418 14.4698 94.1214 17.5304 93.1573 18.8793C92.1932 20.2282 91.3231 21.22 89.7112 21.22C88.0992 21.22 87.2291 20.2297 86.265 18.8793C85.3009 17.529 85.005 14.4698 85.005 14.4698C85.005 14.4698 87.5731 14.8655 88.1524 14.8655Z" fill="#D0EDFD"/>
<path d="M89.6995 16.352C91.4302 16.352 92.2923 16.121 93.4321 15.4812C91.7181 15.7916 91.4783 15.6765 90.9981 15.5038C90.625 15.3704 90.378 14.9733 89.6995 14.9733C89.0211 14.9733 88.7609 15.3376 88.4016 15.5038C88.0016 15.6852 87.1205 15.8987 85.991 15.3209C86.6038 16.352 87.925 16.352 89.6995 16.352Z" fill="#C1DBE8"/>
<path d="M89.7112 19.5992C88.2763 19.5992 87.3508 19.0089 86.4916 18.1184C87.3712 19.307 88.2267 20.1479 89.7112 20.1479C91.1956 20.1479 92.0518 19.307 92.9307 18.1184C92.0722 19.0089 91.146 19.5992 89.7112 19.5992Z" fill="#C1DBE8"/>
<path d="M89.7112 17.7518C88.2763 17.7518 87.3508 17.5485 86.4916 16.9706C87.3712 17.7423 88.2267 18.2881 89.7112 18.2881C91.1956 18.2881 92.0518 17.7423 92.9307 16.9706C92.0722 17.5485 91.146 17.7518 89.7112 17.7518Z" fill="#C1DBE8"/>
<path d="M99.9425 30.9171H79.4725V49.5406H99.9425V30.9171Z" fill="#F5A262"/>
<path d="M91.8937 43.1561H87.5206V49.5405H91.8937V43.1561Z" fill="#FFC59E"/>
<path d="M91.8937 30.9171H87.5206V37.3023H91.8937V30.9171Z" fill="#FFC59E"/>
<path fill-rule="evenodd" clip-rule="evenodd" d="M84.2012 47.7727C84.2012 47.7727 84.202 47.7763 84.2012 47.7712V47.7727ZM83.9527 48.3068H83.9913C84.0397 48.3072 84.0862 48.2886 84.1211 48.2551L84.1852 48.153C84.1992 48.1346 84.2105 48.1142 84.2187 48.0926C84.226 48.0733 84.226 48.0521 84.2187 48.0328L84.1298 47.8492L84.1167 47.8222L84.1407 47.8054L84.183 47.7763L83.8266 47.7034L83.713 48.0612L83.753 48.0328L83.78 48.0139L83.7975 48.043L83.9527 48.3068ZM83.5067 48.3068H83.8777L83.7603 48.1071L83.7086 48.1428C83.7011 48.1443 83.6935 48.1443 83.686 48.1428C83.6803 48.1422 83.6747 48.1403 83.6697 48.1374C83.6647 48.1346 83.6604 48.1307 83.6569 48.1261C83.6495 48.1161 83.6455 48.1042 83.6452 48.0918C83.6454 48.0749 83.6487 48.0581 83.6547 48.0423L83.7807 47.6451L83.7895 47.6174L83.8165 47.6225L84.2012 47.7005C84.2457 47.7107 84.2654 47.7297 84.2697 47.7508C84.2713 47.7625 84.2694 47.7745 84.2644 47.7852C84.2593 47.7959 84.2513 47.805 84.2413 47.8113L84.2078 47.8353L84.2806 47.992C84.2961 48.0275 84.2977 48.0676 84.285 48.1042C84.2751 48.1327 84.2609 48.1595 84.2428 48.1837L83.9513 48.685C83.9392 48.7188 83.9166 48.7479 83.8869 48.7679C83.8571 48.788 83.8217 48.798 83.7858 48.7965H83.4477V48.379C83.4397 48.3228 83.463 48.309 83.5067 48.3068Z" fill="#85583C"/>
<path d="M82.7969 47.4142C82.7969 47.4142 82.7999 47.4113 82.7969 47.4142V47.4142ZM83.4127 47.3698L83.2983 47.6307L83.3544 47.6576H83.3581C83.3644 47.6626 83.3694 47.6691 83.3726 47.6766C83.3767 47.6879 83.3767 47.7002 83.3726 47.7115C83.3692 47.723 83.362 47.733 83.3522 47.74C83.3389 47.7492 83.3238 47.7554 83.3078 47.7582L82.9281 47.8587L82.9012 47.866L82.891 47.8391L82.7452 47.4507C82.7292 47.4047 82.7336 47.3778 82.7452 47.3618C82.7535 47.3539 82.764 47.349 82.7753 47.3476C82.7866 47.3463 82.7981 47.3487 82.8079 47.3545L82.845 47.3727L82.9274 47.2197C82.9365 47.2035 82.9489 47.1895 82.9637 47.1783C82.9785 47.1672 82.9954 47.1592 83.0134 47.1548C83.0411 47.1484 83.0697 47.1469 83.0979 47.1504H83.6153L83.377 47.2233L83.095 47.2175C83.0733 47.2135 83.0511 47.2135 83.0294 47.2175C83.02 47.2196 83.011 47.2236 83.0032 47.2292C82.9953 47.2349 82.9886 47.242 82.9835 47.2503L82.8873 47.4295L82.8727 47.4565L82.8465 47.4434L82.8013 47.4215L82.9361 47.7815L83.2786 47.6911L83.2349 47.67L83.205 47.6554L83.2189 47.6248L83.3471 47.3333L83.4127 47.3698Z" fill="#85583C"/>
<path fill-rule="evenodd" clip-rule="evenodd" d="M83.592 47.7516L83.3304 47.3144C83.3177 47.2914 83.3003 47.2713 83.2793 47.2555C83.2583 47.2397 83.2343 47.2285 83.2087 47.2225L83.3814 47.1613L83.6605 47.1489C83.6957 47.1428 83.732 47.1482 83.764 47.1642C83.796 47.1802 83.822 47.206 83.8383 47.2378L84.0205 47.5425L83.6918 47.7684C83.6408 47.8026 83.619 47.7888 83.592 47.7509V47.7516Z" fill="#85583C"/>
<path fill-rule="evenodd" clip-rule="evenodd" d="M82.8778 48.3862L82.8582 48.4219C82.8332 48.4662 82.8245 48.5177 82.8334 48.5677L82.8837 48.6792C82.891 48.7012 82.9018 48.7219 82.9157 48.7404C82.9214 48.7482 82.9286 48.7548 82.9368 48.7598C82.9451 48.7648 82.9543 48.7681 82.9638 48.7695L83.1569 48.7805H83.1854V48.8111V48.865L83.4244 48.5735L83.1941 48.2871V48.3389V48.3738H83.162L82.8778 48.3862ZM83.1037 47.9752L82.9157 48.317L83.1343 48.3097V48.2441V48.2361C83.1357 48.2281 83.1387 48.2204 83.1431 48.2135C83.1499 48.204 83.16 48.1975 83.1715 48.1953C83.1829 48.1937 83.1944 48.196 83.2043 48.2019C83.2182 48.211 83.2303 48.2226 83.24 48.2361L83.4951 48.5538L83.5133 48.5757L83.4951 48.5983L83.2378 48.9131C83.2065 48.9495 83.1817 48.9583 83.165 48.951C83.1482 48.9437 83.1336 48.9197 83.1307 48.8942V48.8504L82.966 48.841C82.9476 48.8391 82.9298 48.8334 82.9138 48.8242C82.8977 48.8151 82.8837 48.8026 82.8727 48.7878C82.8548 48.7638 82.8405 48.7373 82.8305 48.7091L82.5761 48.1829C82.5549 48.1524 82.5431 48.1164 82.542 48.0792C82.541 48.0421 82.5508 48.0054 82.5703 47.9738L82.7416 47.6619L83.0782 47.8739C83.1249 47.9053 83.1241 47.933 83.1037 47.9752Z" fill="#85583C"/>
<path d="M84.3134 46.7969H82.5127C82.4497 46.8008 82.3906 46.8294 82.3484 46.8764C82.3062 46.9234 82.284 46.9851 82.2868 47.0483V49.0545C82.2839 49.1176 82.3059 49.1794 82.3482 49.2263C82.3905 49.2732 82.4496 49.3016 82.5127 49.3052H84.3134C84.3763 49.3014 84.4352 49.273 84.4773 49.226C84.5193 49.1791 84.5411 49.1174 84.5379 49.0545V47.0483C84.5411 46.9853 84.5193 46.9236 84.4773 46.8765C84.4353 46.8294 84.3764 46.8008 84.3134 46.7969ZM84.4038 49.0224C84.4052 49.0556 84.3937 49.0881 84.3717 49.1129C84.3497 49.1378 84.3189 49.1532 84.2857 49.1558H82.5434C82.51 49.1539 82.4787 49.1389 82.4563 49.1141C82.4339 49.0892 82.4222 49.0566 82.4238 49.0232V47.0811C82.423 47.0645 82.4253 47.0479 82.4309 47.0323C82.4364 47.0167 82.445 47.0023 82.4561 46.99C82.4672 46.9776 82.4806 46.9676 82.4956 46.9605C82.5105 46.9534 82.5268 46.9493 82.5434 46.9484H84.2857C84.3191 46.9503 84.3504 46.9653 84.3728 46.9902C84.3952 47.015 84.4068 47.0477 84.4053 47.0811L84.4038 49.0224Z" fill="#85583C"/>
<path d="M81.6543 49.01H80.4818C80.471 49.0087 80.4612 49.0034 80.4541 48.9953C80.4469 48.9872 80.443 48.9768 80.443 48.966C80.443 48.9552 80.4469 48.9447 80.4541 48.9366C80.4612 48.9285 80.471 48.9233 80.4818 48.9219H81.6543C81.665 48.9233 81.6748 48.9285 81.682 48.9366C81.6891 48.9447 81.6931 48.9552 81.6931 48.966C81.6931 48.9768 81.6891 48.9872 81.682 48.9953C81.6748 49.0034 81.665 49.0087 81.6543 49.01Z" fill="#85583C"/>
<path fill-rule="evenodd" clip-rule="evenodd" d="M80.8877 47.4274V48.7384H80.6399V47.4266L80.5182 47.4259L80.7689 47.09L81.0181 47.4274H80.8877Z" fill="#85583C"/>
<path fill-rule="evenodd" clip-rule="evenodd" d="M81.4969 47.428V48.739H81.2491V47.4272L81.1267 47.4265L81.3781 47.0906L81.6273 47.428H81.4969Z" fill="#85583C"/>
<path d="M81.9691 46.7969H80.1684C80.1053 46.8008 80.0463 46.8294 80.0041 46.8764C79.9618 46.9234 79.9397 46.9851 79.9425 47.0483V49.0545C79.9395 49.1176 79.9616 49.1794 80.0039 49.2263C80.0462 49.2732 80.1053 49.3016 80.1684 49.3052H81.9691C82.032 49.3014 82.0909 49.273 82.1329 49.226C82.1749 49.1791 82.1968 49.1174 82.1936 49.0545V47.0483C82.1966 46.9853 82.1747 46.9237 82.1328 46.8767C82.0908 46.8297 82.032 46.801 81.9691 46.7969ZM82.0595 49.0224C82.0607 49.0557 82.0489 49.0882 82.0266 49.1129C82.0043 49.1377 81.9732 49.1528 81.94 49.155H80.1968C80.1636 49.153 80.1325 49.1379 80.1103 49.1131C80.088 49.0883 80.0765 49.0557 80.0781 49.0224V47.0804C80.0763 47.047 80.0878 47.0143 80.11 46.9895C80.1323 46.9646 80.1635 46.9496 80.1968 46.9477H81.94C81.9734 46.9496 82.0046 46.9646 82.027 46.9894C82.0494 47.0143 82.0611 47.047 82.0595 47.0804V49.0224Z" fill="#85583C"/>
<path d="M79.1657 44.6792C78.9988 43.7953 77.3439 42.3203 76.1109 42.3203C74.9092 42.3203 74.6804 44.4963 74.7802 45.2666C75.0382 47.2553 78.5842 48.739 78.8917 48.739C79.7224 48.739 79.7239 47.4921 79.7239 46.6759C79.7239 45.9895 79.2408 45.0749 79.1657 44.6792Z" fill="#FFBD78"/>
<path d="M78.7248 45.0997C78.3466 45.115 78.3167 45.0363 78.1353 45.0363C77.5523 45.0363 77.0677 45.8758 77.0873 46.485C77.1318 47.8696 78.2766 48.293 78.6293 48.978C78.9361 49.5763 79.5235 50.8997 80.6931 50.8407C80.6967 50.8407 85.2659 49.9407 85.2659 49.2375C85.2659 48.9839 84.8513 48.8483 84.5656 48.8636C83.3996 48.9263 83.3209 49.3781 83.1912 49.5668C83.2786 49.3847 83.3581 49.3147 83.3501 49.1464C83.3377 48.9052 83.1795 48.8447 82.9398 48.8447C82.4974 48.8447 82.0245 49.158 81.1427 49.158C80.7347 49.158 79.995 49.2498 79.995 48.8301C79.995 47.6721 79.9797 47.5125 79.9629 46.3196C79.9629 46.1965 79.9629 46.1484 79.9629 46.0704C79.9629 45.8416 80.2799 45.4524 80.6188 45.2994C80.9372 45.1536 81.2746 44.8541 81.0611 44.4555C80.962 44.2682 80.5277 44.3309 79.9192 44.6494C79.7997 44.7062 79.1577 45.0822 78.7248 45.0997Z" fill="#ACC2FE"/>
<path d="M100.457 44.6792C100.623 43.7953 102.279 42.3203 103.511 42.3203C104.714 42.3203 104.942 44.4963 104.842 45.2666C104.584 47.2553 101.038 48.739 100.731 48.739C99.8995 48.739 99.8988 47.4921 99.8988 46.6759C99.8988 45.9895 100.382 45.0749 100.457 44.6792Z" fill="#FFBD78"/>
<path d="M100.901 45.0997C101.279 45.115 101.309 45.0363 101.49 45.0363C102.073 45.0363 102.558 45.8758 102.538 46.485C102.494 47.8696 101.349 48.293 100.996 48.978C100.689 49.5763 100.102 50.8997 98.9325 50.8407C98.9325 50.8407 94.359 49.9407 94.359 49.2375C94.359 48.9839 94.7744 48.8483 95.06 48.8636C96.226 48.9263 96.3047 49.3781 96.4337 49.5668C96.347 49.3847 96.2676 49.3147 96.2756 49.1464C96.2872 48.9052 96.4461 48.8447 96.6858 48.8447C97.1282 48.8447 97.6011 49.158 98.4829 49.158C98.891 49.158 99.6306 49.2498 99.6306 48.8301C99.6306 47.6721 99.6459 47.5125 99.662 46.3196C99.662 46.1965 99.662 46.1484 99.662 46.0704C99.662 45.8416 99.3443 45.4524 99.0061 45.2994C98.6877 45.1536 98.3503 44.8541 98.5645 44.4555C98.6636 44.2682 99.0979 44.3309 99.7064 44.6494C99.8223 44.7062 100.464 45.0822 100.901 45.0997Z" fill="#ACC2FE"/>
<path d="M89.7432 4.32715C83.5592 4.32715 84.2777 8.79354 84.2362 10.7844L89.7432 7.72376L95.2495 10.7844C95.3326 8.87443 95.9265 4.32715 89.7432 4.32715Z" fill="#1958A7"/>
<path d="M94.488 9.19727C93.7694 8.66748 91.7407 7.43374 89.7629 7.36597C87.7844 7.43374 85.7549 8.66748 85.0378 9.19727C84.8075 9.36706 84.5058 11.2508 84.766 11.4469C85.4612 11.9708 87.1402 10.0564 89.7629 10.1541C92.3863 10.0564 94.0624 11.9708 94.7591 11.4469C95.0221 11.2508 94.7204 9.36706 94.488 9.19727Z" fill="#1F6DCF"/>
</g>
</svg>
