<svg width="17" height="17" viewBox="0 0 17 17" fill="none" xmlns="http://www.w3.org/2000/svg">
<g clip-path="url(#clip0_716_10582)">
<path d="M11.9915 5.92444C12.2356 6.16858 12.2356 6.56433 11.9915 6.80835L7.79858 11.0013C7.55444 11.2454 7.15881 11.2454 6.91467 11.0013L4.9187 9.00525C4.67456 8.76123 4.67456 8.36548 4.9187 8.12146C5.16272 7.87732 5.55847 7.87732 5.80249 8.12146L7.35657 9.67554L11.1075 5.92444C11.3517 5.68042 11.7474 5.68042 11.9915 5.92444ZM16.4551 8.46289C16.4551 12.8849 12.8765 16.4629 8.45508 16.4629C4.03308 16.4629 0.455078 12.8843 0.455078 8.46289C0.455078 4.04089 4.03369 0.462891 8.45508 0.462891C12.8771 0.462891 16.4551 4.0415 16.4551 8.46289ZM15.2051 8.46289C15.2051 4.73181 12.1857 1.71289 8.45508 1.71289C4.724 1.71289 1.70508 4.7323 1.70508 8.46289C1.70508 12.194 4.72449 15.2129 8.45508 15.2129C12.1862 15.2129 15.2051 12.1935 15.2051 8.46289Z" fill="#27AE60"/>
</g>
<defs>
<clipPath id="clip0_716_10582">
<rect width="16" height="16" fill="white" transform="translate(0.455078 0.462891)"/>
</clipPath>
</defs>
</svg>
