<svg width="17" height="17" viewBox="0 0 17 17" fill="none" xmlns="http://www.w3.org/2000/svg">
<g clip-path="url(#clip0_716_12218)">
<path d="M8.57031 0.652344C4.15884 0.652344 0.570312 4.24087 0.570312 8.65234C0.570312 13.0638 4.15884 16.6523 8.57031 16.6523C12.9818 16.6523 16.5703 13.0632 16.5703 8.65234C16.5703 4.2415 12.9818 0.652344 8.57031 0.652344ZM8.57031 15.413C4.84297 15.413 1.80966 12.3803 1.80966 8.65234C1.80966 4.92438 4.84297 1.89169 8.57031 1.89169C12.2977 1.89169 15.331 4.92438 15.331 8.65234C15.331 12.3803 12.2983 15.413 8.57031 15.413Z" fill="white"/>
<path d="M11.669 7.97728H9.19029V5.49859C9.19029 5.15653 8.91329 4.87891 8.5706 4.87891C8.22791 4.87891 7.95091 5.15653 7.95091 5.49859V7.97728H5.47223C5.12954 7.97728 4.85254 8.25491 4.85254 8.59697C4.85254 8.93903 5.12954 9.21666 5.47223 9.21666H7.95091V11.6953C7.95091 12.0374 8.22791 12.315 8.5706 12.315C8.91329 12.315 9.19029 12.0374 9.19029 11.6953V9.21666H11.669C12.0117 9.21666 12.2887 8.93903 12.2887 8.59697C12.2887 8.25491 12.0117 7.97728 11.669 7.97728Z" fill="white"/>
</g>
<defs>
<clipPath id="clip0_716_12218">
<rect width="16" height="16" fill="white" transform="translate(0.570312 0.652344)"/>
</clipPath>
</defs>
</svg>
