<svg width="20" height="21" viewBox="0 0 20 21" fill="none" xmlns="http://www.w3.org/2000/svg">
<g clip-path="url(#clip0_136_40)">
<path d="M9.0469 16.0527C9.32752 16.2708 9.66377 16.3796 10 16.3796C10.3363 16.3796 10.6725 16.2708 10.9525 16.0527C12.6613 14.7258 16.6356 11.2258 16.6356 7.3827C16.6363 3.72395 13.6588 0.74707 10 0.74707C6.34127 0.74707 3.36377 3.72395 3.36377 7.38332C3.36377 11.2264 7.33814 14.7264 9.0469 16.0527ZM10 1.87207C13.0388 1.87207 15.5113 4.34457 15.5113 7.38332C15.5113 10.8227 11.4944 14.2083 10.2631 15.1646C10.1063 15.2864 9.89502 15.2864 9.73752 15.1646C8.50627 14.2089 4.48939 10.8233 4.48939 7.38332C4.48877 4.34395 6.96127 1.87207 10 1.87207Z" fill="#1E1E1E"/>
<path d="M12.9112 7.28039C12.9112 5.67539 11.6056 4.36914 10 4.36914C8.39437 4.36914 7.08875 5.67477 7.08875 7.28039C7.08875 8.88602 8.39437 10.1916 10 10.1916C11.6056 10.1916 12.9112 8.88539 12.9112 7.28039ZM8.21375 7.28039C8.21375 6.29539 9.015 5.49414 10 5.49414C10.985 5.49414 11.7862 6.29539 11.7862 7.28039C11.7862 8.26539 10.985 9.06664 10 9.06664C9.015 9.06664 8.21375 8.26539 8.21375 7.28039Z" fill="#1E1E1E"/>
<path d="M15.3763 13.3106C15.0838 13.2069 14.7619 13.3594 14.6575 13.6513C14.5531 13.9438 14.7063 14.2656 14.9981 14.37C16.225 14.8069 16.9875 15.4038 16.9875 15.9281C16.9875 16.8963 14.3294 18.2469 10 18.2469C5.67064 18.2469 3.01251 16.8963 3.01251 15.9281C3.01251 15.4044 3.77501 14.8075 5.00189 14.37C5.29439 14.2656 5.44689 13.9438 5.34251 13.6513C5.23876 13.3594 4.91814 13.2063 4.62376 13.3106C2.85939 13.9394 1.88751 14.8688 1.88751 15.9281C1.88751 18.165 6.06751 19.3719 10 19.3719C13.9325 19.3719 18.1125 18.165 18.1125 15.9281C18.1125 14.8688 17.1406 13.9394 15.3763 13.3106Z" fill="#991220"/>
</g>
<defs>
<clipPath id="clip0_136_40">
<rect width="20" height="20" fill="white" transform="translate(0 0.0595703)"/>
</clipPath>
</defs>
</svg>
