<svg width="21" height="25" viewBox="0 0 21 25" fill="none" xmlns="http://www.w3.org/2000/svg">
<path d="M13.408 4.75474C14.0138 4.14919 14.4609 3.48595 14.7494 2.76474C15.0283 2.04353 15.1677 1.38988 15.1677 0.803058C15.1677 0.764867 15.1653 0.716245 15.1605 0.658807C15.1554 0.601368 15.1533 0.553576 15.1533 0.514556C15.1437 0.485706 15.1317 0.432807 15.1172 0.355597C15.1028 0.278954 15.0908 0.226055 15.0812 0.197205C13.3888 0.591461 12.187 1.30307 11.4755 2.33198C10.7542 3.37028 10.3792 4.60595 10.3503 6.03873C10.9943 5.98076 11.4944 5.89958 11.8505 5.79378C12.3697 5.6202 12.8887 5.27426 13.408 4.75474Z" fill="white"/>
<path d="M18.3121 15.9041C17.6486 14.9526 17.3168 13.8804 17.3168 12.6875C17.3168 11.6011 17.6291 10.6061 18.2544 9.70193C18.591 9.21178 19.1391 8.64442 19.8987 7.99986C19.3987 7.38471 18.8987 6.90416 18.3987 6.55744C17.4947 5.93317 16.4706 5.61987 15.3265 5.61987C14.6438 5.61987 13.812 5.7839 12.8312 6.11059C11.8887 6.4378 11.2012 6.60073 10.7687 6.60073C10.4418 6.60073 9.77832 6.45648 8.77821 6.16803C7.76854 5.87952 6.91779 5.73527 6.22539 5.73527C4.57142 5.73527 3.20594 6.42763 2.12919 7.81261C1.04258 9.21658 0.499268 11.0145 0.499268 13.2067C0.499268 15.5336 1.20603 17.9518 2.61964 20.4618C4.0522 22.9522 5.49938 24.1972 6.96105 24.1972C7.45145 24.1972 8.08585 24.0337 8.86476 23.707C9.64367 23.3897 10.3261 23.2311 10.9127 23.2311C11.5378 23.2311 12.2635 23.3849 13.0908 23.6924C13.9656 24.0001 14.6387 24.1537 15.1099 24.1537C16.3405 24.1537 17.5762 23.2115 18.8167 21.327C19.6244 20.1253 20.2158 18.923 20.5908 17.7213C19.7351 17.4619 18.9756 16.8561 18.3121 15.9041Z" fill="white"/>
</svg>
