<svg width="16" height="11" viewBox="0 0 16 11" fill="none" xmlns="http://www.w3.org/2000/svg">
<path d="M0.414321 1.61776C0.409445 1.39606 0.473711 1.17836 0.598285 0.994905C0.722859 0.811454 0.901582 0.671374 1.10945 0.594141C1.31731 0.516909 1.54405 0.506361 1.75818 0.563964C1.97232 0.621566 2.16311 0.744458 2.30417 0.915552L7.89681 7.44378L13.4875 0.915552C13.5745 0.797198 13.6849 0.698078 13.812 0.624402C13.939 0.550725 14.08 0.504079 14.2259 0.487384C14.3719 0.470688 14.5196 0.484304 14.6601 0.527377C14.8005 0.57045 14.9305 0.642053 15.042 0.737703C15.1535 0.833353 15.2439 0.950988 15.3078 1.08324C15.3717 1.2155 15.4076 1.35952 15.4133 1.50629C15.4189 1.65307 15.3943 1.79943 15.3408 1.93621C15.2873 2.073 15.2061 2.19726 15.1023 2.30121L8.70736 9.77544C8.6072 9.89282 8.48287 9.98707 8.34276 10.0517C8.20264 10.1163 8.05013 10.1498 7.89583 10.1498C7.74152 10.1498 7.58902 10.1163 7.4489 10.0517C7.30878 9.98707 7.18433 9.89282 7.08417 9.77544L0.683069 2.30121C0.515362 2.1124 0.420016 1.87023 0.414075 1.61776H0.414321Z" fill="#991220"/>
</svg>
