<svg width="21" height="21" viewBox="0 0 21 21" fill="none" xmlns="http://www.w3.org/2000/svg">
<g clip-path="url(#clip0_819_2093)">
<path d="M15.0645 2.87305C13.0682 2.87305 11.3641 4.12961 10.6895 5.89148V9.2293C11.3641 10.9915 13.0682 12.248 15.0645 12.248C17.6491 12.248 19.752 10.1452 19.752 7.56055C19.752 4.97586 17.6491 2.87305 15.0645 2.87305Z" fill="#991220"/>
<path d="M6.00195 11.623V13.1855H2.25195V14.748H7.25195V13.1855H9.12695V11.623H6.00195Z" fill="white"/>
<path d="M4.75195 4.43555H6.62695V5.99805H4.75195V4.43555Z" fill="#991220"/>
<path d="M4.75195 9.12305H6.62695V10.6855H4.75195V9.12305Z" fill="#991220"/>
<path d="M16.3145 15.373H11.002V0.804844L8.85352 1.87922L7.25195 0.597656L5.68945 1.84766L4.12695 0.597656L2.52539 1.87891L0.376953 0.804844V14.123C0.376953 16.9155 1.69852 19.893 5.37695 20.0527V20.0605H15.377C16.9279 20.0605 18.1895 18.7986 18.1895 17.248C18.1895 16.2139 17.3485 15.373 16.3145 15.373ZM1.00195 14.123V1.81609L2.60352 2.61672L4.12695 1.39828L5.68945 2.64828L7.25195 1.39828L8.77539 2.61703L10.377 1.81609V15.373H6.62695C5.59289 15.373 4.75195 16.2139 4.75195 17.248V17.2855C4.75195 17.9542 5.2957 18.498 5.96445 18.498H6.00195H7.48195C7.08602 19.0639 6.4307 19.4355 5.68945 19.4355C2.75414 19.4355 1.00195 17.4495 1.00195 14.123ZM7.78477 17.873H7.07789C7.1857 17.6883 7.25195 17.4767 7.25195 17.248H7.87695C7.87695 17.4652 7.84414 17.6748 7.78477 17.873ZM7.70914 16.623H6.62695V17.248C6.62695 17.5927 6.34664 17.873 6.00195 17.873H5.96445C5.6407 17.873 5.37695 17.6092 5.37695 17.2855V17.248C5.37695 16.5586 5.93758 15.998 6.62695 15.998C7.08883 15.998 7.49289 16.2495 7.70914 16.623ZM15.377 19.4355H7.4532C8.09195 18.9195 8.50195 18.1311 8.50195 17.248C8.50195 16.7673 8.31883 16.3302 8.0207 15.998H16.3145C17.0038 15.998 17.5645 16.5586 17.5645 17.248C17.5645 18.4542 16.5829 19.4355 15.377 19.4355Z" fill="#1E1E1E"/>
<path d="M14.127 9.74805H14.752V10.373H15.377V9.74805H16.002C16.3466 9.74805 16.627 9.46773 16.627 9.12305V7.87305C16.627 7.52836 16.3466 7.24805 16.002 7.24805H14.127V5.99805H16.002V6.62305H16.627V5.99805C16.627 5.65336 16.3466 5.37305 16.002 5.37305H15.377V4.74805H14.752V5.37305H14.127C13.7823 5.37305 13.502 5.65336 13.502 5.99805V7.24805C13.502 7.59273 13.7823 7.87305 14.127 7.87305H16.002V9.12305H14.127V8.49805H13.502V9.12305C13.502 9.46773 13.7823 9.74805 14.127 9.74805Z" fill="white"/>
<path d="M7.87695 11.623H9.12695V12.248H7.87695V11.623Z" fill="#991220"/>
<path d="M2.25195 12.873H9.12695V13.498H2.25195V12.873Z" fill="#991220"/>
<path d="M2.25195 14.123H3.50195V14.748H2.25195V14.123Z" fill="#991220"/>
<path d="M4.12695 14.123H4.75195V14.748H4.12695V14.123Z" fill="#991220"/>
<path d="M5.37695 14.123H6.00195V14.748H5.37695V14.123Z" fill="#991220"/>
<path d="M6.62695 14.123H7.25195V14.748H6.62695V14.123Z" fill="#991220"/>
<path d="M3.18945 10.998H8.18945C8.70633 10.998 9.12695 10.5774 9.12695 10.0605V5.06055C9.12695 4.54367 8.70633 4.12305 8.18945 4.12305H3.18945C2.67258 4.12305 2.25195 4.54367 2.25195 5.06055V10.0605C2.25195 10.5774 2.67258 10.998 3.18945 10.998ZM2.87695 5.06055C2.87695 4.88836 3.01695 4.74805 3.18945 4.74805H8.18945C8.36195 4.74805 8.50195 4.88836 8.50195 5.06055V10.0605C8.50195 10.2327 8.36195 10.373 8.18945 10.373H3.18945C3.01695 10.373 2.87695 10.2327 2.87695 10.0605V5.06055Z" fill="#1E1E1E"/>
<path d="M6.00195 11.623H7.25195V12.248H6.00195V11.623Z" fill="#991220"/>
</g>
<defs>
<clipPath id="clip0_819_2093">
<rect width="20" height="20" fill="white" transform="translate(0.0644531 0.373047)"/>
</clipPath>
</defs>
</svg>
