<svg width="6" height="9" viewBox="0 0 6 9" fill="none" xmlns="http://www.w3.org/2000/svg">
<path d="M4.59142 0.597835L4.09858 0.882392L3.80727 1.05049L3.1728 1.41698L2.24633 1.95165L1.27648 2.51155L0.38017 3.02915C0.35309 3.04478 0.330604 3.06726 0.314974 3.09434C0.299345 3.12142 0.291123 3.15214 0.291138 3.18341V8.4081C0.291135 8.43937 0.299364 8.47008 0.314997 8.49716C0.330631 8.52423 0.353116 8.54671 0.380195 8.56234C0.407273 8.57797 0.43799 8.58619 0.469254 8.58618C0.500519 8.58617 0.53123 8.57793 0.558299 8.56229L1.27648 8.14756L2.24633 7.58766L3.1728 7.053L4.09885 6.5184L4.75768 6.13806C4.8128 6.1062 5.02491 5.69871 5.02491 5.63506V0.909544C5.02491 0.772485 4.70863 0.530294 4.59169 0.597835H4.59142ZM4.09858 5.26809C4.09858 5.29936 4.09035 5.33008 4.0747 5.35715C4.05906 5.38423 4.03657 5.40671 4.00948 5.42234L3.17252 5.90556L2.24606 6.44022L1.54337 6.84587C1.51629 6.86152 1.48557 6.86976 1.4543 6.86977C1.42303 6.86977 1.39231 6.86155 1.36523 6.84591C1.33815 6.83027 1.31567 6.80778 1.30004 6.7807C1.28441 6.75361 1.27619 6.72289 1.27621 6.69162V3.76187C1.27617 3.73064 1.28435 3.69995 1.29991 3.67287C1.31548 3.6458 1.33789 3.6233 1.3649 3.60761L2.24572 3.09908L3.17218 2.56449L3.83108 2.18408C3.85815 2.16845 3.88887 2.16023 3.92013 2.16023C3.95139 2.16024 3.9821 2.16847 4.00918 2.1841C4.03625 2.19973 4.05873 2.22221 4.07437 2.24929C4.09 2.27636 4.09823 2.30707 4.09824 2.33833L4.09858 5.26809Z" fill="#991220"/>
</svg>
