<svg width="20" height="21" viewBox="0 0 20 21" fill="none" xmlns="http://www.w3.org/2000/svg">
<g clip-path="url(#clip0_272_1784)">
<path d="M3.02222 20.2031H16.9778C18.4407 20.2031 19.6296 19.0142 19.6296 17.5513V4.33644C19.6296 2.87348 18.4407 1.68458 16.9778 1.68458H15.9259V0.943852C15.9259 0.53644 15.5926 0.203125 15.1851 0.203125C14.7777 0.203125 14.4444 0.53644 14.4444 0.943852V1.68458H5.55557V0.943852C5.55557 0.53644 5.2222 0.203125 4.81479 0.203125C4.40737 0.203125 4.07406 0.53644 4.07406 0.943852V1.68458H3.02222C1.55926 1.68458 0.370361 2.87348 0.370361 4.33644V17.5513C0.370361 19.0142 1.55926 20.2031 3.02222 20.2031ZM1.85188 4.33644C1.85188 3.69201 2.3778 3.16609 3.02222 3.16609H4.07406V3.90682C4.07406 4.31423 4.40737 4.64755 4.81479 4.64755C5.2222 4.64755 5.55551 4.31423 5.55551 3.90682V3.16609H14.4444V3.90682C14.4444 4.31423 14.7777 4.64755 15.1851 4.64755C15.5926 4.64755 15.9259 4.31423 15.9259 3.90682V3.16609H16.9777C17.6221 3.16609 18.1481 3.69201 18.1481 4.33644V17.5513C18.1481 18.1957 17.6221 18.7216 16.9777 18.7216H3.02222C2.3778 18.7216 1.85188 18.1957 1.85188 17.5513V4.33644Z" fill="#991220"/>
<path d="M5.74085 8.72096C6.25222 8.72096 6.66676 8.30641 6.66676 7.79505C6.66676 7.28368 6.25222 6.86914 5.74085 6.86914C5.22948 6.86914 4.81494 7.28368 4.81494 7.79505C4.81494 8.30641 5.22948 8.72096 5.74085 8.72096Z" fill="#991220"/>
<path d="M9.81482 8.72096C10.3262 8.72096 10.7407 8.30641 10.7407 7.79505C10.7407 7.28368 10.3262 6.86914 9.81482 6.86914C9.30346 6.86914 8.88892 7.28368 8.88892 7.79505C8.88892 8.30641 9.30346 8.72096 9.81482 8.72096Z" fill="#991220"/>
<path d="M13.8888 8.72096C14.4002 8.72096 14.8147 8.30641 14.8147 7.79505C14.8147 7.28368 14.4002 6.86914 13.8888 6.86914C13.3774 6.86914 12.9629 7.28368 12.9629 7.79505C12.9629 8.30641 13.3774 8.72096 13.8888 8.72096Z" fill="#991220"/>
<path d="M5.74085 12.426C6.25222 12.426 6.66676 12.0115 6.66676 11.5001C6.66676 10.9888 6.25222 10.5742 5.74085 10.5742C5.22948 10.5742 4.81494 10.9888 4.81494 11.5001C4.81494 12.0115 5.22948 12.426 5.74085 12.426Z" fill="#991220"/>
<path d="M9.81482 12.426C10.3262 12.426 10.7407 12.0115 10.7407 11.5001C10.7407 10.9888 10.3262 10.5742 9.81482 10.5742C9.30346 10.5742 8.88892 10.9888 8.88892 11.5001C8.88892 12.0115 9.30346 12.426 9.81482 12.426Z" fill="#991220"/>
<path d="M13.8888 12.426C14.4002 12.426 14.8147 12.0115 14.8147 11.5001C14.8147 10.9888 14.4002 10.5742 13.8888 10.5742C13.3774 10.5742 12.9629 10.9888 12.9629 11.5001C12.9629 12.0115 13.3774 12.426 13.8888 12.426Z" fill="#991220"/>
<path d="M5.74085 16.1292C6.25222 16.1292 6.66676 15.7146 6.66676 15.2033C6.66676 14.6919 6.25222 14.2773 5.74085 14.2773C5.22948 14.2773 4.81494 14.6919 4.81494 15.2033C4.81494 15.7146 5.22948 16.1292 5.74085 16.1292Z" fill="#991220"/>
<path d="M9.81482 16.1292C10.3262 16.1292 10.7407 15.7146 10.7407 15.2033C10.7407 14.6919 10.3262 14.2773 9.81482 14.2773C9.30346 14.2773 8.88892 14.6919 8.88892 15.2033C8.88892 15.7146 9.30346 16.1292 9.81482 16.1292Z" fill="#991220"/>
<path d="M13.8888 16.1292C14.4002 16.1292 14.8147 15.7146 14.8147 15.2033C14.8147 14.6919 14.4002 14.2773 13.8888 14.2773C13.3774 14.2773 12.9629 14.6919 12.9629 15.2033C12.9629 15.7146 13.3774 16.1292 13.8888 16.1292Z" fill="#991220"/>
</g>
<defs>
<clipPath id="clip0_272_1784">
<rect width="20" height="20" fill="white" transform="translate(0 0.203125)"/>
</clipPath>
</defs>
</svg>
