<svg width="72" height="73" viewBox="0 0 72 73" fill="none" xmlns="http://www.w3.org/2000/svg">
<path d="M35.9998 72.0234C55.8466 72.0234 71.9356 55.9057 71.9356 36.0234C71.9356 16.1412 55.8466 0.0234375 35.9998 0.0234375C16.153 0.0234375 0.0639648 16.1412 0.0639648 36.0234C0.0639648 55.9057 16.153 72.0234 35.9998 72.0234Z" fill="#00B777"/>
<path d="M26.6632 50.7044L15.7803 40.4837C13.4473 38.2926 13.4473 34.5821 15.7803 32.391C17.9099 30.3911 21.224 30.3911 23.3536 32.391L29.2329 37.913C29.917 38.5559 30.9818 38.5559 31.6659 37.913L48.5361 22.0703C50.6657 20.0703 53.9798 20.0703 56.1094 22.0703C58.4424 24.2614 58.4424 27.9718 56.1094 30.1629L34.2365 50.7044C32.1069 52.7043 28.7928 52.7043 26.6632 50.7044Z" fill="white"/>
</svg>
