<svg width="13" height="13" viewBox="0 0 13 13" fill="none" xmlns="http://www.w3.org/2000/svg">
<path d="M7.32654 6.1168L11.8132 1.62997C11.9366 1.50646 12.0047 1.34168 12.0049 1.16597C12.0049 0.990163 11.9368 0.825188 11.8132 0.70187L11.42 0.308797C11.2964 0.184992 11.1316 0.117188 10.9557 0.117188C10.7801 0.117188 10.6153 0.184992 10.4917 0.308797L6.00508 4.79533L1.51825 0.308797C1.39483 0.184992 1.22996 0.117188 1.05415 0.117188C0.878541 0.117188 0.713663 0.184992 0.590249 0.308797L0.196883 0.70187C-0.0591172 0.95787 -0.0591172 1.37426 0.196883 1.62997L4.68361 6.1168L0.196883 10.6034C0.0733706 10.7271 0.00537062 10.8919 0.00537062 11.0676C0.00537062 11.2433 0.0733706 11.4081 0.196883 11.5317L0.590151 11.9248C0.713566 12.0485 0.878541 12.1164 1.05405 12.1164C1.22986 12.1164 1.39474 12.0485 1.51815 11.9248L6.00498 7.43816L10.4916 11.9248C10.6152 12.0485 10.78 12.1164 10.9556 12.1164H10.9558C11.1315 12.1164 11.2963 12.0485 11.4199 11.9248L11.8131 11.5317C11.9365 11.4082 12.0046 11.2433 12.0046 11.0676C12.0046 10.8919 11.9365 10.7271 11.8131 10.6035L7.32654 6.1168Z" fill="#991220"/>
</svg>
