<svg width="33" height="33" viewBox="0 0 33 33" fill="none" xmlns="http://www.w3.org/2000/svg">
<path fill-rule="evenodd" clip-rule="evenodd" d="M29.7123 25.0734H20.4109C20.1687 25.0734 19.9721 24.8769 19.9721 24.6346C19.9721 24.3923 20.1687 24.1957 20.4109 24.1957H29.2734V6.75345H10.8947V17.3485C10.8947 17.5908 10.6982 17.7874 10.4559 17.7874C10.2136 17.7874 10.017 17.5908 10.017 17.3485V6.31459C10.017 6.0723 10.2136 5.87573 10.4559 5.87573H29.7123C29.9546 5.87573 30.1511 6.0723 30.1511 6.31459V24.6346C30.1511 24.8769 29.9546 25.0734 29.7123 25.0734Z" fill="#991220"/>
<path fill-rule="evenodd" clip-rule="evenodd" d="M17.6376 12.0761C17.5744 12.0761 17.5111 12.0624 17.4517 12.035C17.2978 11.9626 17.1987 11.8079 17.1987 11.638V6.31459C17.1987 6.0723 17.3953 5.87573 17.6376 5.87573C17.8799 5.87573 18.0765 6.0723 18.0765 6.31459V10.7016L19.8029 9.26469C19.966 9.12907 20.2014 9.12907 20.3645 9.26469L22.0909 10.7016V6.31459C22.0909 6.0723 22.2875 5.87573 22.5298 5.87573C22.7721 5.87573 22.9687 6.0723 22.9687 6.31459V11.638C22.9687 11.8079 22.8704 11.9634 22.7157 12.035C22.5618 12.1074 22.3797 12.0837 22.2486 11.9748L20.0833 10.1721L17.918 11.9748C17.838 12.0418 17.7382 12.0761 17.6376 12.0761Z" fill="#991220"/>
<path fill-rule="evenodd" clip-rule="evenodd" d="M6.62122 28.0563C6.6197 28.0563 6.61818 28.0563 6.61741 28.0563L2.49932 28.0198C2.25703 28.0175 2.06199 27.8194 2.06427 27.5771L2.15875 17.0384C2.16103 16.7977 2.35684 16.6034 2.5976 16.6034H2.60141L6.71951 16.64C6.83608 16.6407 6.94732 16.688 7.02884 16.771C7.11037 16.8541 7.15532 16.9661 7.15456 17.0826L7.06008 27.6213C7.05932 27.7379 7.01208 27.8491 6.92903 27.9306C6.84675 28.0114 6.73627 28.0563 6.62122 28.0563ZM2.94579 27.1459L6.18618 27.1748L6.27227 17.5146L3.03189 17.4857L2.94579 27.1459Z" fill="#1E1E1E"/>
<path fill-rule="evenodd" clip-rule="evenodd" d="M22.1085 22.7686H15.5652C15.3229 22.7686 15.1264 22.5721 15.1264 22.3298C15.1264 22.0875 15.3229 21.8909 15.5652 21.8909H22.1085C22.5016 21.8909 22.8216 21.5709 22.8216 21.1778C22.8216 20.7846 22.5016 20.4646 22.1085 20.4646H19.1767C18.9344 20.4646 18.7378 20.2681 18.7378 20.0258C18.7378 19.7835 18.9344 19.5869 19.1767 19.5869H22.1092C22.9869 19.5869 23.7008 20.3008 23.7008 21.1785C23.7001 22.0547 22.9862 22.7686 22.1085 22.7686Z" fill="#1E1E1E"/>
<path fill-rule="evenodd" clip-rule="evenodd" d="M19.6422 20.4639H15.5652C15.3229 20.4639 15.1264 20.2674 15.1264 20.0251C15.1264 19.7828 15.3229 19.5862 15.5652 19.5862H19.6422C20.0353 19.5862 20.3553 19.2662 20.3553 18.8731C20.3553 18.4799 20.0353 18.1599 19.6422 18.1599H14.2852C14.0429 18.1599 13.8464 17.9634 13.8464 17.7211C13.8464 17.4788 14.0429 17.2822 14.2852 17.2822H19.6422C20.5199 17.2822 21.2338 17.9961 21.2338 18.8731C21.2338 19.75 20.5199 20.4639 19.6422 20.4639Z" fill="#1E1E1E"/>
<path fill-rule="evenodd" clip-rule="evenodd" d="M20.4109 25.0734H14.4262C14.1839 25.0734 13.9873 24.8769 13.9873 24.6346C13.9873 24.3923 14.1839 24.1957 14.4262 24.1957H20.4109C20.8041 24.1957 21.1241 23.8757 21.1241 23.4826C21.1241 23.0894 20.8041 22.7694 20.4109 22.7694C20.1687 22.7694 19.9721 22.5729 19.9721 22.3306C19.9721 22.0883 20.1687 21.8917 20.4109 21.8917C21.2887 21.8917 22.0026 22.6056 22.0026 23.4833C22.0018 24.3595 21.2879 25.0734 20.4109 25.0734Z" fill="#1E1E1E"/>
<path fill-rule="evenodd" clip-rule="evenodd" d="M6.68294 21.1314C6.44065 21.1314 6.24408 20.9348 6.24408 20.6925C6.24408 19.9649 6.55189 19.2693 7.13398 18.6819C7.6277 18.1836 8.31646 17.7638 9.12636 17.4666H9.12713C10.0826 17.0948 11.1576 16.5112 12.3241 15.7325L14.9984 13.9474C15.2612 13.7722 15.566 13.6792 15.8807 13.6792C16.414 13.6792 16.9092 13.9436 17.2056 14.387C17.6925 15.1169 17.4951 16.1066 16.7652 16.5935L14.5321 18.0845C14.3302 18.2194 14.0582 18.1645 13.9233 17.9634C13.7885 17.7615 13.8433 17.4895 14.0445 17.3546L16.2776 15.8636C16.6052 15.6449 16.6936 15.2015 16.4749 14.8739C16.3424 14.675 16.1199 14.5562 15.8807 14.5562C15.7405 14.5562 15.6033 14.5981 15.486 14.6765L12.8109 16.4617C11.5896 17.2762 10.4559 17.8895 9.44027 18.2849C9.43722 18.2864 9.43341 18.2872 9.43037 18.2887C7.98427 18.8182 7.12103 19.7165 7.12103 20.6918C7.12179 20.9348 6.92522 21.1314 6.68294 21.1314Z" fill="#1E1E1E"/>
<path fill-rule="evenodd" clip-rule="evenodd" d="M18.0292 27.3782H10.497C9.39075 27.3782 8.33246 27.0208 7.51875 26.3717C7.11722 26.0517 6.80027 25.6799 6.57551 25.2654C6.33703 24.8258 6.21589 24.3618 6.21589 23.8864C6.21589 23.6441 6.41246 23.4475 6.65475 23.4475C6.89703 23.4475 7.0936 23.6441 7.0936 23.8864C7.0936 24.5462 7.43875 25.1847 8.06656 25.6845C8.7157 26.2026 9.60179 26.4989 10.497 26.4989H18.0292C18.4224 26.4989 18.7424 26.1789 18.7424 25.785C18.7424 25.5946 18.6685 25.4155 18.5336 25.2807C18.3987 25.1458 18.2197 25.0719 18.0292 25.0719C17.7869 25.0719 17.5904 24.8753 17.5904 24.633C17.5904 24.3907 17.7869 24.1942 18.0292 24.1942C18.4544 24.1942 18.8536 24.3595 19.1546 24.6605C19.4555 24.9614 19.6208 25.3607 19.6208 25.7858C19.6201 26.6643 18.9062 27.3782 18.0292 27.3782Z" fill="#1E1E1E"/>
<path fill-rule="evenodd" clip-rule="evenodd" d="M14.2875 18.1592H14.2852C14.0429 18.1592 13.8464 17.9626 13.8464 17.7204C13.8464 17.4781 14.0429 17.2815 14.2852 17.2815H14.2875C14.5298 17.2815 14.7264 17.4781 14.7264 17.7204C14.7264 17.9626 14.5298 18.1592 14.2875 18.1592Z" fill="#1E1E1E"/>
</svg>
