<svg width="33" height="23" viewBox="0 0 33 23" fill="none" xmlns="http://www.w3.org/2000/svg">
<path d="M26.6897 11.9264C26.2852 11.9264 25.9152 11.76 25.647 11.4947C25.3786 11.2258 25.217 10.8606 25.217 10.4536C25.217 9.64167 25.8734 8.98413 26.6897 8.98413H29.7177C30.9341 10.7532 31.7114 12.442 31.6807 14.0941L30.2367 12.6501C29.773 12.1864 29.1409 11.9264 28.4877 11.9264H26.6897Z" fill="white" stroke="#991220"/>
<path d="M32.1605 11.5341L29.9952 7.45778C29.5748 6.66621 28.7568 6.17459 27.8605 6.17459H23.473V2.00576C23.473 1.12062 22.7529 0.400391 21.8679 0.400391H2.15631C1.27129 0.400391 0.551256 1.12062 0.551256 2.00576V15.0098C0.55081 15.0185 0.548706 15.0266 0.548706 15.0354V17.4807C0.548706 18.6677 1.51456 19.6335 2.70174 19.6335H30.5532C31.6534 19.6335 32.5487 18.7384 32.5487 17.6382V13.0917C32.5487 12.5488 32.4185 12.0256 32.1605 11.5341ZM1.54101 2.00576C1.54101 1.66637 1.81711 1.39008 2.15637 1.39008H21.868C22.2073 1.39008 22.4834 1.66637 22.4834 2.00576V14.5405H1.54101V2.00576ZM31.559 17.6382C31.559 18.1926 31.1077 18.6438 30.5532 18.6438H2.70174C2.06031 18.6438 1.5384 18.1221 1.5384 17.4807V15.5303H22.9781C23.2513 15.5303 23.4729 15.3088 23.4729 15.0355V7.16428H27.8605C28.3898 7.16428 28.8727 7.45452 29.1211 7.92199L31.2854 11.9961C31.4668 12.3421 31.559 12.7106 31.559 13.0916V17.6382H31.559Z" fill="#1E1E1E"/>
<path d="M8.9923 22.0315C10.4337 22.0315 11.6053 20.8605 11.6053 19.4154C11.6053 17.9737 10.434 16.8024 8.9923 16.8024V22.0315ZM8.9923 22.0315C7.5475 22.0315 6.37622 20.8601 6.37622 19.4154M8.9923 22.0315L6.37622 19.4154M6.37622 19.4154C6.37622 17.974 7.54722 16.8024 8.99228 16.8024L6.37622 19.4154Z" fill="#F2F2F2" stroke="#991220"/>
<path d="M26.5868 22.0315C28.0282 22.0315 29.1999 20.8605 29.1999 19.4154C29.1999 17.9737 28.0285 16.8024 26.5868 16.8024V22.0315ZM26.5868 22.0315C25.142 22.0315 23.9708 20.8601 23.9708 19.4154M26.5868 22.0315L23.9708 19.4154M23.9708 19.4154C23.9708 17.974 25.1418 16.8024 26.5868 16.8024L23.9708 19.4154Z" fill="#F2F2F2" stroke="#991220"/>
</svg>
