<svg width="25" height="17" viewBox="0 0 25 17" fill="none" xmlns="http://www.w3.org/2000/svg">
<path d="M20.4155 5.55064C19.4571 2.62646 16.2872 0.541016 12.7178 0.541016C9.14838 0.541016 5.97844 2.62646 5.02006 5.55064C2.46623 6.29411 0.717773 8.3623 0.717773 10.7025C0.717773 13.7095 3.572 16.156 7.08019 16.156H7.92583C8.3261 16.156 8.65066 15.8778 8.65066 15.5347C8.65066 15.1916 8.3261 14.9134 7.92583 14.9134H7.08019C4.37173 14.9134 2.16744 13.0247 2.16744 10.7025C2.16744 8.79996 3.66381 7.13078 5.80851 6.64341C6.07026 6.58405 6.2716 6.40456 6.33039 6.17814C6.9916 3.63156 9.67831 1.78359 12.7178 1.78359C15.7572 1.78359 18.4439 3.63156 19.1052 6.17814C19.1639 6.40456 19.3653 6.58405 19.627 6.64341C21.7709 7.13078 23.2681 8.79996 23.2681 10.7025C23.2681 13.0247 21.0646 14.9134 18.3554 14.9134H17.5097C17.1095 14.9134 16.7849 15.1916 16.7849 15.5347C16.7849 15.8778 17.1095 16.156 17.5097 16.156H18.3554C21.8635 16.156 24.7178 13.7095 24.7178 10.7025C24.7178 8.3623 22.9693 6.29411 20.4155 5.55064Z" fill="#1E1E1E"/>
<path d="M14.735 12.9238L13.4432 14.0303V7.91621C13.4432 7.57312 13.1186 7.29492 12.7184 7.29492C12.3181 7.29492 11.9935 7.57312 11.9935 7.91621V14.0303L10.7017 12.9231C10.4182 12.6801 9.95917 12.6801 9.67648 12.9231C9.39299 13.1654 9.39299 13.5589 9.67648 13.8012L12.2061 15.9694C12.3479 16.0909 12.5331 16.1517 12.7192 16.1517C12.9052 16.1517 13.0904 16.0909 13.2322 15.9694L15.7619 13.8012C16.0453 13.5589 16.0453 13.1654 15.7619 12.9231C15.4776 12.6808 15.0177 12.6808 14.735 12.9238Z" fill="#991220"/>
</svg>
