<svg width="20" height="21" viewBox="0 0 20 21" fill="none" xmlns="http://www.w3.org/2000/svg">
<path d="M16.85 2.65088H3.15C1.79187 2.65088 0.6875 3.75588 0.6875 5.11338V12.8759C0.6875 14.234 1.7925 15.3384 3.15 15.3384H4.175C4.48562 15.3384 4.7375 15.0865 4.7375 14.7759C4.7375 14.4653 4.48562 14.2134 4.175 14.2134H3.15C2.4125 14.2134 1.8125 13.6134 1.8125 12.8759V5.11338C1.8125 4.88025 1.87812 4.664 1.98312 4.47275L8.51562 9.39963C8.9525 9.7315 9.47625 9.89775 10 9.89775C10.5231 9.89775 11.0462 9.7315 11.4819 9.40088L18.0156 4.47275C18.1219 4.664 18.1875 4.88025 18.1875 5.11338V12.8759C18.1875 13.6134 17.5875 14.2134 16.85 14.2134H15.8125C15.5019 14.2134 15.25 14.4653 15.25 14.7759C15.25 15.0865 15.5019 15.3384 15.8125 15.3384H16.85C18.2081 15.3384 19.3125 14.2334 19.3125 12.8759V5.11338C19.3125 3.75525 18.2081 2.65088 16.85 2.65088ZM10.8037 8.504C10.3287 8.86338 9.66875 8.86338 9.195 8.50275L2.95438 3.79588C3.01875 3.7865 3.08312 3.77588 3.15 3.77588H16.85C16.9169 3.77588 16.9812 3.78588 17.0456 3.79588L10.8037 8.504Z" fill="#1E1E1E"/>
<path d="M11.5056 10.9524C10.5662 10.6267 8.58373 10.4474 7.11748 11.8399C5.94498 12.9517 5.50373 14.6992 6.01873 16.1874C6.12685 16.4986 6.75123 18.0811 8.4506 18.6424C8.8656 18.7799 9.26185 18.8305 9.62185 18.8305C10.0662 18.8305 10.4544 18.753 10.7525 18.6649C11.0506 18.5761 11.22 18.2636 11.1319 17.9655C11.0437 17.6686 10.7362 17.4967 10.4325 17.5861C10.0494 17.7005 9.45435 17.7886 8.80435 17.5742C7.60685 17.1786 7.15998 16.043 7.08248 15.8186C6.70873 14.7405 7.03435 13.4692 7.89185 12.6555C9.23873 11.3774 11.1206 12.0086 11.1375 12.0149C11.8737 12.2711 12.4337 12.7236 12.7587 13.323C12.8875 13.5617 13.1719 14.1955 13.0369 14.9305C12.9981 15.1386 12.9456 15.4242 12.7287 15.6599C12.5144 15.8917 12.1844 16.0892 12.0431 16.0267C11.935 15.9774 11.8219 15.7749 11.8231 15.4967C11.8231 15.488 11.8187 15.4811 11.8181 15.4724C11.8181 15.4636 11.8219 15.4567 11.8212 15.448C11.7994 15.1805 11.8387 14.8249 11.9306 14.4486C11.9881 14.2186 12.07 13.9636 12.1731 13.6892C12.2825 13.398 12.135 13.0742 11.845 12.9642C11.5881 12.8686 11.3137 12.9786 11.1756 13.2036C10.7981 12.9199 10.3481 12.7542 9.88248 12.7542C9.2231 12.7505 8.5831 13.0486 8.23248 13.5286C7.78123 14.1005 7.67873 14.9486 7.96373 15.7424C8.2081 16.4205 8.69873 16.8999 9.26498 17.0217C9.37748 17.0486 9.49435 17.0617 9.61435 17.0617C10.0694 17.0617 10.565 16.8717 11.01 16.5392C11.1569 16.7586 11.3419 16.9417 11.5725 17.048C12.2975 17.3824 13.0706 16.9436 13.555 16.4236C13.9937 15.9467 14.0906 15.4174 14.1425 15.1336C14.3419 14.048 13.9331 13.1324 13.7481 12.7886C13.2944 11.9492 12.4981 11.2974 11.5056 10.9524ZM9.51498 15.9255C9.32123 15.8842 9.1331 15.668 9.02248 15.3624C8.87248 14.9442 8.90998 14.488 9.12873 14.2086C9.2481 14.0449 9.5156 13.8805 9.85435 13.8799C10.2156 13.8892 10.5744 14.0986 10.7944 14.433C10.7356 14.7336 10.7062 15.0142 10.705 15.2736C10.3019 15.7536 9.79185 15.9936 9.51498 15.9255Z" fill="#991220"/>
</svg>
