<svg width="17" height="17" viewBox="0 0 17 17" fill="none" xmlns="http://www.w3.org/2000/svg">
<g clip-path="url(#clip0_706_8476)">
<path d="M13.7123 4.04155L10.7158 1.04455C10.5008 0.829555 10.2033 0.706055 9.8988 0.706055H5.3603C4.7233 0.706055 4.2053 1.22405 4.2053 1.86105V2.63105H3.4343C2.7973 2.63105 2.2793 3.14905 2.2793 3.78605V14.4511C2.2793 15.0881 2.7973 15.6061 3.4343 15.6061H10.9693C11.6063 15.6061 12.1243 15.0881 12.1243 14.4511V13.6776H12.8958C13.5328 13.6776 14.0508 13.1596 14.0508 12.5226V4.85805C14.0508 4.54955 13.9308 4.25955 13.7123 4.04155ZM12.5148 4.11605H10.8958C10.7553 4.11605 10.6408 4.00155 10.6408 3.86105V2.24205L12.5148 4.11605ZM11.2243 14.4511C11.2243 14.5916 11.1098 14.7061 10.9693 14.7061H3.4343C3.2938 14.7061 3.1793 14.5916 3.1793 14.4511V3.78605C3.1793 3.64555 3.2938 3.53105 3.4343 3.53105H4.2053V12.5221C4.2053 13.1591 4.7233 13.6771 5.3603 13.6771H11.2243V14.4511ZM12.8958 12.7776H5.3603C5.2198 12.7776 5.1053 12.6631 5.1053 12.5226V1.86105C5.1053 1.72055 5.2198 1.60605 5.3603 1.60605H9.7408V3.86105C9.7408 4.49805 10.2588 5.01605 10.8958 5.01605H13.1508V12.5221C13.1508 12.6631 13.0363 12.7776 12.8958 12.7776Z" fill="#1E1E1E"/>
<path d="M11.8762 6.0957H6.37969C6.13119 6.0957 5.92969 6.2972 5.92969 6.5457C5.92969 6.7942 6.13119 6.9957 6.37969 6.9957H11.8767C12.1252 6.9957 12.3267 6.7942 12.3267 6.5457C12.3267 6.2972 12.1247 6.0957 11.8762 6.0957Z" fill="#991220"/>
<path d="M6.37969 4.76816H8.58369C8.83219 4.76816 9.03369 4.56666 9.03369 4.31816C9.03369 4.06966 8.83219 3.86816 8.58369 3.86816H6.37969C6.13119 3.86816 5.92969 4.06966 5.92969 4.31816C5.92969 4.56666 6.13119 4.76816 6.37969 4.76816Z" fill="#991220"/>
<path d="M11.8762 8.32324H6.37969C6.13119 8.32324 5.92969 8.52474 5.92969 8.77324C5.92969 9.02174 6.13119 9.22324 6.37969 9.22324H11.8767C12.1252 9.22324 12.3267 9.02174 12.3267 8.77324C12.3267 8.52474 12.1247 8.32324 11.8762 8.32324Z" fill="#991220"/>
<path d="M11.8762 10.5508H6.37969C6.13119 10.5508 5.92969 10.7523 5.92969 11.0008C5.92969 11.2493 6.13119 11.4508 6.37969 11.4508H11.8767C12.1252 11.4508 12.3267 11.2493 12.3267 11.0008C12.3267 10.7523 12.1247 10.5508 11.8762 10.5508Z" fill="#991220"/>
</g>
<defs>
<clipPath id="clip0_706_8476">
<rect width="16" height="16" fill="white" transform="translate(0.164062 0.15625)"/>
</clipPath>
</defs>
</svg>
