<svg width="21" height="25" viewBox="0 0 21 25" fill="none" xmlns="http://www.w3.org/2000/svg">
<path d="M1.59262 8.47116C1.1791 8.47116 0.828243 8.61536 0.539834 8.90377C0.251425 9.19218 0.107178 9.53826 0.107178 9.94219V16.1441C0.107178 16.5581 0.251382 16.9087 0.539834 17.1971C0.828243 17.4855 1.1791 17.6298 1.59262 17.6298C2.00583 17.6298 2.35456 17.4856 2.6385 17.1971C2.92187 16.9087 3.06395 16.5581 3.06395 16.1441V9.94219C3.06395 9.53822 2.91975 9.19218 2.6313 8.90377C2.34284 8.61536 1.99654 8.47116 1.59262 8.47116Z" fill="white"/>
<path d="M13.5351 2.90374L14.5591 1.01464C14.6263 0.889569 14.6024 0.793664 14.4872 0.726227C14.3621 0.668076 14.2659 0.697542 14.1988 0.812541L13.1604 2.71675C12.2467 2.31278 11.2803 2.11042 10.2612 2.11042C9.24196 2.11042 8.27549 2.31282 7.36214 2.71675L6.32372 0.812541C6.25624 0.697542 6.16012 0.668337 6.03532 0.726227C5.9198 0.793968 5.89589 0.889569 5.96337 1.01464L6.98746 2.90374C5.94905 3.4333 5.12201 4.17081 4.50665 5.11788C3.8913 6.06547 3.5835 7.10098 3.5835 8.22624H16.9245C16.9245 7.10124 16.6166 6.06569 16.0013 5.11788C15.3859 4.17081 14.5637 3.4333 13.5351 2.90374ZM7.61445 5.65148C7.5037 5.76248 7.37143 5.81773 7.21768 5.81773C7.06362 5.81773 6.93404 5.76248 6.82833 5.65148C6.72262 5.54099 6.66976 5.40924 6.66976 5.25497C6.66976 5.10122 6.72262 4.96921 6.82833 4.85846C6.93404 4.74798 7.06393 4.69273 7.21768 4.69273C7.37143 4.69273 7.5037 4.74798 7.61445 4.85846C7.72493 4.96947 7.78044 5.10122 7.78044 5.25497C7.78013 5.40898 7.72467 5.54099 7.61445 5.65148ZM13.6936 5.65148C13.5877 5.76248 13.4578 5.81773 13.3043 5.81773C13.1502 5.81773 13.018 5.76248 12.9074 5.65148C12.7967 5.54099 12.7415 5.40924 12.7415 5.25497C12.7415 5.10122 12.7967 4.96921 12.9074 4.85846C13.018 4.74798 13.1502 4.69273 13.3043 4.69273C13.458 4.69273 13.5876 4.74798 13.6936 4.85846C13.7994 4.96947 13.8522 5.10122 13.8522 5.25497C13.8522 5.40898 13.7993 5.54099 13.6936 5.65148Z" fill="white"/>
<path d="M3.64087 18.3508C3.64087 18.7935 3.79462 19.1683 4.10217 19.4758C4.40997 19.7834 4.78474 19.9371 5.22716 19.9371H6.29452L6.30915 23.2115C6.30915 23.625 6.45335 23.9761 6.74176 24.2645C7.03017 24.553 7.37651 24.6972 7.78018 24.6972C8.19344 24.6972 8.54451 24.553 8.83296 24.2645C9.12141 23.9761 9.26562 23.625 9.26562 23.2115V19.9374H11.2559V23.2115C11.2559 23.625 11.4001 23.9761 11.6885 24.2645C11.977 24.553 12.3278 24.6972 12.7413 24.6972C13.1546 24.6972 13.5056 24.553 13.7941 24.2645C14.0826 23.9761 14.2267 23.625 14.2267 23.2115V19.9374H15.3085C15.7411 19.9374 16.111 19.7836 16.4192 19.4761C16.7267 19.1685 16.8805 18.7938 16.8805 18.3511V8.74493H3.64087V18.3508Z" fill="white"/>
<path d="M18.9293 8.47116C18.5254 8.47116 18.1793 8.61324 17.8909 8.89661C17.6025 9.18051 17.4583 9.52924 17.4583 9.94219V16.1441C17.4583 16.5581 17.6024 16.9087 17.8909 17.1971C18.1793 17.4856 18.5256 17.6298 18.9293 17.6298C19.3426 17.6298 19.6937 17.4856 19.9821 17.1971C20.2706 16.9087 20.4147 16.5581 20.4147 16.1441V9.94219C20.4147 9.52919 20.2706 9.18051 19.9821 8.89661C19.6937 8.61324 19.3426 8.47116 18.9293 8.47116Z" fill="white"/>
</svg>
