<svg width="33" height="33" viewBox="0 0 33 33" fill="none" xmlns="http://www.w3.org/2000/svg">
<path fill-rule="evenodd" clip-rule="evenodd" d="M11.3263 30.1169H1.80309C1.54869 30.1169 1.34229 29.9105 1.34229 29.6561V21.3401C1.34229 21.0857 1.54869 20.8793 1.80309 20.8793H11.3263C11.5807 20.8793 11.7871 21.0857 11.7871 21.3401V29.6561C11.7871 29.9105 11.5807 30.1169 11.3263 30.1169ZM2.26389 29.1953H10.8655V21.8009H2.26389V29.1953Z" fill="#1E1E1E"/>
<path fill-rule="evenodd" clip-rule="evenodd" d="M7.80549 24.2817H5.32389C5.06949 24.2817 4.86309 24.0753 4.86309 23.8209V21.3393C4.86309 21.0849 5.06949 20.8785 5.32389 20.8785H7.80549C8.05989 20.8785 8.26629 21.0849 8.26629 21.3393V23.8209C8.26629 24.0761 8.05989 24.2817 7.80549 24.2817ZM5.78469 23.3601H7.34469V21.8001H5.78469V23.3601Z" fill="#1E1E1E"/>
<path fill-rule="evenodd" clip-rule="evenodd" d="M20.8495 30.1169H11.3263C11.0719 30.1169 10.8655 29.9105 10.8655 29.6561V21.3401C10.8655 21.0857 11.0719 20.8793 11.3263 20.8793H20.8495C21.1039 20.8793 21.3103 21.0857 21.3103 21.3401V29.6561C21.3103 29.9105 21.1039 30.1169 20.8495 30.1169ZM11.7871 29.1953H20.3887V21.8009H11.7871V29.1953Z" fill="#1E1E1E"/>
<path fill-rule="evenodd" clip-rule="evenodd" d="M17.3287 24.2817H14.8471C14.5927 24.2817 14.3863 24.0753 14.3863 23.8209V21.3393C14.3863 21.0849 14.5927 20.8785 14.8471 20.8785H17.3287C17.5831 20.8785 17.7895 21.0849 17.7895 21.3393V23.8209C17.7895 24.0761 17.5831 24.2817 17.3287 24.2817ZM15.3079 23.3601H16.8679V21.8001H15.3079V23.3601Z" fill="#1E1E1E"/>
<path fill-rule="evenodd" clip-rule="evenodd" d="M30.3727 30.1169H20.8495C20.5951 30.1169 20.3887 29.9105 20.3887 29.6561V21.3401C20.3887 21.0857 20.5951 20.8793 20.8495 20.8793H30.3727C30.6271 20.8793 30.8335 21.0857 30.8335 21.3401V29.6561C30.8335 29.9105 30.6271 30.1169 30.3727 30.1169ZM21.3103 29.1953H29.9119V21.8009H21.3103V29.1953Z" fill="#1E1E1E"/>
<path fill-rule="evenodd" clip-rule="evenodd" d="M26.8519 24.2817H24.3703C24.1159 24.2817 23.9095 24.0753 23.9095 23.8209V21.3393C23.9095 21.0849 24.1159 20.8785 24.3703 20.8785H26.8519C27.1063 20.8785 27.3127 21.0849 27.3127 21.3393V23.8209C27.3127 24.0761 27.1063 24.2817 26.8519 24.2817ZM24.8311 23.3601H26.3911V21.8001H24.8311V23.3601Z" fill="#1E1E1E"/>
<path fill-rule="evenodd" clip-rule="evenodd" d="M16.0879 21.801H6.56469C6.31029 21.801 6.10389 21.5946 6.10389 21.3402V18.8986C6.10389 18.6442 6.31029 18.4378 6.56469 18.4378C6.81909 18.4378 7.02549 18.6442 7.02549 18.8986V20.8794H15.6271V13.485H13.9263C13.6719 13.485 13.4655 13.2786 13.4655 13.0242C13.4655 12.7698 13.6719 12.5634 13.9263 12.5634H16.0879C16.3423 12.5634 16.5487 12.7698 16.5487 13.0242V21.3402C16.5487 21.5946 16.3423 21.801 16.0879 21.801Z" fill="#1E1E1E"/>
<path fill-rule="evenodd" clip-rule="evenodd" d="M25.6111 21.801H16.0879C15.8335 21.801 15.6271 21.5946 15.6271 21.3402V13.0242C15.6271 12.7698 15.8335 12.5634 16.0879 12.5634H25.6111C25.8655 12.5634 26.0719 12.7698 26.0719 13.0242V21.3402C26.0719 21.5946 25.8655 21.801 25.6111 21.801ZM16.5487 20.8794H25.1503V13.485H16.5487V20.8794Z" fill="#1E1E1E"/>
<path fill-rule="evenodd" clip-rule="evenodd" d="M22.0903 15.9657H19.6087C19.3543 15.9657 19.1479 15.7593 19.1479 15.5049V13.0233C19.1479 12.7689 19.3543 12.5625 19.6087 12.5625H22.0903C22.3447 12.5625 22.5511 12.7689 22.5511 13.0233V15.5049C22.5511 15.7593 22.3447 15.9657 22.0903 15.9657ZM20.0695 15.0441H21.6295V13.4841H20.0695V15.0441Z" fill="#1E1E1E"/>
<path fill-rule="evenodd" clip-rule="evenodd" d="M11.3367 7.71612H6.25189C5.99749 7.71612 5.79109 7.50972 5.79109 7.25532V5.58252C5.79109 5.08092 6.19909 4.67212 6.70149 4.67212H7.44069C7.69509 4.67212 7.90149 4.87852 7.90149 5.13292C7.90149 5.38732 7.69509 5.59372 7.44069 5.59372H6.71349V6.79452H10.8759V5.59372H10.1487C9.89429 5.59372 9.68789 5.38732 9.68789 5.13292C9.68789 4.87852 9.89429 4.67212 10.1487 4.67212H10.8879C11.3895 4.67212 11.7983 5.08012 11.7983 5.58252V7.25532C11.7975 7.50972 11.5911 7.71612 11.3367 7.71612Z" fill="#991220"/>
<path fill-rule="evenodd" clip-rule="evenodd" d="M13.9263 19.2809H3.66229C3.40789 19.2809 3.20149 19.0745 3.20149 18.8201V5.95213C3.20149 5.69773 3.40789 5.49133 3.66229 5.49133H6.25189C6.50629 5.49133 6.71269 5.69773 6.71269 5.95213C6.71269 6.20653 6.50629 6.41293 6.25189 6.41293H4.12309V18.3593H13.4647V6.41293H11.3359C11.0815 6.41293 10.8751 6.20653 10.8751 5.95213C10.8751 5.69773 11.0815 5.49133 11.3359 5.49133H13.9255C14.1799 5.49133 14.3863 5.69773 14.3863 5.95213V18.8201C14.3871 19.0753 14.1807 19.2809 13.9263 19.2809Z" fill="#991220"/>
<path fill-rule="evenodd" clip-rule="evenodd" d="M10.1479 6.24491H7.43989C7.18549 6.24491 6.97909 6.03851 6.97909 5.78411V4.16331C6.97909 3.90891 7.18549 3.70251 7.43989 3.70251H10.1479C10.4023 3.70251 10.6087 3.90891 10.6087 4.16331V5.78411C10.6087 6.03851 10.4023 6.24491 10.1479 6.24491ZM7.90069 5.32331H9.68709V4.62411H7.90069V5.32331Z" fill="#991220"/>
<path fill-rule="evenodd" clip-rule="evenodd" d="M11.9551 9.96335H8.11349C7.85909 9.96335 7.65269 9.75695 7.65269 9.50255C7.65269 9.24815 7.85909 9.04175 8.11349 9.04175H11.9551C12.2095 9.04175 12.4159 9.24815 12.4159 9.50255C12.4159 9.75695 12.2095 9.96335 11.9551 9.96335Z" fill="#991220"/>
<path fill-rule="evenodd" clip-rule="evenodd" d="M5.95349 10.1489C5.83589 10.1489 5.71749 10.1041 5.62789 10.0137L5.30789 9.69371C5.12789 9.51371 5.12789 9.22171 5.30789 9.04171C5.48549 8.86331 5.77349 8.86171 5.95429 9.03611L6.37029 8.62011C6.55029 8.44011 6.84229 8.44011 7.02229 8.62011C7.20229 8.80011 7.20229 9.09211 7.02229 9.27211L6.28069 10.0137C6.18949 10.1041 6.07189 10.1489 5.95349 10.1489Z" fill="#991220"/>
<path fill-rule="evenodd" clip-rule="evenodd" d="M11.9551 12.4441H8.11349C7.85909 12.4441 7.65269 12.2377 7.65269 11.9833C7.65269 11.7289 7.85909 11.5225 8.11349 11.5225H11.9551C12.2095 11.5225 12.4159 11.7289 12.4159 11.9833C12.4159 12.2377 12.2095 12.4441 11.9551 12.4441Z" fill="#991220"/>
<path fill-rule="evenodd" clip-rule="evenodd" d="M5.95349 12.6289C5.83109 12.6289 5.71429 12.5801 5.62789 12.4937L5.30789 12.1737C5.12789 11.9937 5.12789 11.7017 5.30789 11.5217C5.48629 11.3433 5.77349 11.3417 5.95349 11.5161L6.36949 11.1001C6.54949 10.9201 6.84149 10.9201 7.02149 11.1001C7.20149 11.2801 7.20149 11.5721 7.02149 11.7521L6.27989 12.4937C6.19269 12.5809 6.07589 12.6289 5.95349 12.6289Z" fill="#991220"/>
<path fill-rule="evenodd" clip-rule="evenodd" d="M11.9551 14.9242H8.11349C7.85909 14.9242 7.65269 14.7178 7.65269 14.4634C7.65269 14.209 7.85909 14.0026 8.11349 14.0026H11.9551C12.2095 14.0026 12.4159 14.209 12.4159 14.4634C12.4159 14.7178 12.2095 14.9242 11.9551 14.9242Z" fill="#991220"/>
<path fill-rule="evenodd" clip-rule="evenodd" d="M5.95349 15.1097C5.83109 15.1097 5.71429 15.0609 5.62789 14.9745L5.30789 14.6545C5.12789 14.4745 5.12789 14.1825 5.30789 14.0025C5.48629 13.8241 5.77349 13.8225 5.95349 13.9969L6.36949 13.5809C6.54949 13.4009 6.84149 13.4009 7.02149 13.5809C7.20149 13.7609 7.20149 14.0529 7.02149 14.2329L6.27989 14.9745C6.19269 15.0609 6.07589 15.1097 5.95349 15.1097Z" fill="#991220"/>
<path fill-rule="evenodd" clip-rule="evenodd" d="M11.9551 17.4049H8.11349C7.85909 17.4049 7.65269 17.1985 7.65269 16.9441C7.65269 16.6897 7.85909 16.4833 8.11349 16.4833H11.9551C12.2095 16.4833 12.4159 16.6897 12.4159 16.9441C12.4159 17.1985 12.2095 17.4049 11.9551 17.4049Z" fill="#991220"/>
<path fill-rule="evenodd" clip-rule="evenodd" d="M5.95349 17.5897C5.83589 17.5897 5.71749 17.5449 5.62789 17.4545L5.30789 17.1345C5.12789 16.9545 5.12789 16.6625 5.30789 16.4825C5.48629 16.3041 5.77349 16.3025 5.95429 16.4769L6.37029 16.0609C6.55029 15.8809 6.84229 15.8809 7.02229 16.0609C7.20229 16.2409 7.20229 16.5329 7.02229 16.7129L6.28069 17.4545C6.18949 17.5449 6.07189 17.5897 5.95349 17.5897Z" fill="#991220"/>
</svg>
