<svg width="17" height="17" viewBox="0 0 17 17" fill="none" xmlns="http://www.w3.org/2000/svg">
<g clip-path="url(#clip0_475_4885)">
<path d="M6.48216 9.21669C6.4565 9.08825 5.57269 4.66919 5.54466 4.52916C5.50087 4.31006 5.30847 4.15234 5.08503 4.15234H4.14753C3.92409 4.15234 3.73169 4.31006 3.68791 4.52916C3.65944 4.67156 2.77472 9.09513 2.75041 9.21666C2.69963 9.47053 2.86428 9.71747 3.11813 9.76822C3.37197 9.819 3.61894 9.65434 3.66969 9.4005L3.96931 7.90234H5.26325L5.56288 9.40053C5.61366 9.6545 5.86072 9.81903 6.11444 9.76825C6.36828 9.71747 6.53294 9.47053 6.48216 9.21669ZM4.15681 6.96484L4.53181 5.08984H4.70075L5.07575 6.96484H4.15681Z" fill="#991220"/>
<path d="M13.9913 7.90234H12.5851V7.43359C12.5851 7.17472 12.3752 6.96484 12.1163 6.96484C11.8575 6.96484 11.6476 7.17472 11.6476 7.43359V7.90234H10.2413C9.98246 7.90234 9.77258 8.11222 9.77258 8.37109C9.77258 8.62997 9.98246 8.83984 10.2413 8.83984H10.3548C10.6219 9.70272 11.024 10.365 11.4665 10.8958C11.1063 11.2252 10.7419 11.4954 10.4173 11.7551C10.2151 11.9168 10.1823 12.2118 10.3441 12.4139C10.5059 12.6162 10.8009 12.6488 11.0029 12.4871C11.3294 12.2259 11.7206 11.9357 12.1163 11.5726C12.5123 11.936 12.9043 12.2267 13.2297 12.4871C13.4319 12.6488 13.7269 12.616 13.8886 12.4139C14.0503 12.2118 14.0175 11.9167 13.8154 11.7551C13.4916 11.496 13.1267 11.2255 12.7662 10.8958C13.2087 10.365 13.6108 9.70272 13.8779 8.83984H13.9913C14.2502 8.83984 14.4601 8.62997 14.4601 8.37109C14.4601 8.11222 14.2502 7.90234 13.9913 7.90234ZM12.1163 10.2069C11.8171 9.83125 11.5479 9.38291 11.345 8.83672H12.8876C12.6847 9.38291 12.4156 9.83125 12.1163 10.2069Z" fill="#991220"/>
<path d="M14.9601 3.68359H8.19755L7.99661 2.07166C7.90883 1.36941 7.30896 0.839844 6.60124 0.839844H1.77258C0.997177 0.839844 0.366333 1.47069 0.366333 2.24609V12.5898C0.366333 13.3652 0.997177 13.9961 1.77258 13.9961H5.72518L5.92355 15.608C6.01118 16.3089 6.61105 16.8398 7.31896 16.8398H14.9601C15.7355 16.8398 16.3663 16.209 16.3663 15.4336V5.08984C16.3663 4.31444 15.7355 3.68359 14.9601 3.68359ZM1.77258 13.0586C1.51411 13.0586 1.30383 12.8483 1.30383 12.5898V2.24609C1.30383 1.98763 1.51411 1.77734 1.77258 1.77734H6.60124C6.83715 1.77734 7.03711 1.95384 7.06633 2.18778C7.13427 2.73266 8.35408 12.5181 8.42146 13.0586H1.77258ZM6.82646 15.2695L6.66974 13.9961H7.92736L6.82646 15.2695ZM15.4288 15.4336C15.4288 15.6921 15.2186 15.9023 14.9601 15.9023H7.51865L9.30315 13.8382C9.39449 13.7352 9.43543 13.5984 9.41655 13.4624L8.31443 4.62109H14.9601C15.2186 4.62109 15.4288 4.83138 15.4288 5.08984V15.4336Z" fill="#1E1E1E"/>
</g>
<defs>
<clipPath id="clip0_475_4885">
<rect width="16" height="16" fill="white" transform="translate(0.366333 0.839844)"/>
</clipPath>
</defs>
</svg>
