<svg width="33" height="33" viewBox="0 0 33 33" fill="none" xmlns="http://www.w3.org/2000/svg">
<path fill-rule="evenodd" clip-rule="evenodd" d="M28.405 30.9008H17.1593C16.917 30.9008 16.7205 30.7043 16.7205 30.462V24.8391C16.7205 24.5968 16.917 24.4003 17.1593 24.4003H28.4043C28.6466 24.4003 28.8431 24.5968 28.8431 24.8391V30.462C28.8439 30.7043 28.6473 30.9008 28.405 30.9008ZM17.5982 30.0231H27.9654V25.278H17.5982V30.0231Z" fill="#1E1E1E"/>
<path fill-rule="evenodd" clip-rule="evenodd" d="M22.7822 30.7728C22.5399 30.7728 22.3433 30.5762 22.3433 30.3339V24.9671C22.3433 24.7248 22.5399 24.5282 22.7822 24.5282C23.0244 24.5282 23.221 24.7248 23.221 24.9671V30.3339C23.221 30.5762 23.0244 30.7728 22.7822 30.7728Z" fill="#1E1E1E"/>
<path fill-rule="evenodd" clip-rule="evenodd" d="M24.4759 27.761C24.4111 27.761 24.3456 27.7465 24.2846 27.7168C24.133 27.6437 24.037 27.4898 24.037 27.3222V25.0159C24.037 24.7736 24.2336 24.577 24.4759 24.577C24.7182 24.577 24.9147 24.7736 24.9147 25.0159V26.417L25.3208 26.0963C25.4801 25.9706 25.7056 25.9706 25.8648 26.0963L26.2709 26.417V25.0159C26.2709 24.7736 26.4675 24.577 26.7098 24.577C26.9521 24.577 27.1486 24.7736 27.1486 25.0159V27.3222C27.1486 27.4906 27.0526 27.6437 26.901 27.7168C26.7494 27.79 26.5696 27.7702 26.4378 27.6665L25.5921 26.9991L24.7464 27.6665C24.6694 27.729 24.5726 27.761 24.4759 27.761Z" fill="#1E1E1E"/>
<path fill-rule="evenodd" clip-rule="evenodd" d="M21.0884 27.761C20.9917 27.761 20.8957 27.729 20.8164 27.6665L19.9707 26.9991L19.125 27.6665C18.9932 27.7709 18.8126 27.7907 18.6618 27.7168C18.5102 27.6437 18.4142 27.4898 18.4142 27.3222V25.0159C18.4142 24.7736 18.6107 24.577 18.853 24.577C19.0953 24.577 19.2919 24.7736 19.2919 25.0159V26.417L19.698 26.0963C19.8572 25.9706 20.0827 25.9706 20.242 26.0963L20.6481 26.417V25.0159C20.6481 24.7736 20.8446 24.577 21.0869 24.577C21.3292 24.577 21.5258 24.7736 21.5258 25.0159V27.3222C21.5258 27.4906 21.4298 27.6437 21.2782 27.7168C21.2187 27.7473 21.1532 27.761 21.0884 27.761Z" fill="#1E1E1E"/>
<path fill-rule="evenodd" clip-rule="evenodd" d="M25.5936 25.1142C25.3513 25.1142 25.1547 24.9176 25.1547 24.6753V19.6559H20.4096V24.6753C20.4096 24.9176 20.213 25.1142 19.9707 25.1142C19.7285 25.1142 19.5319 24.9176 19.5319 24.6753V19.2171C19.5319 18.9748 19.7285 18.7782 19.9707 18.7782H25.5936C25.8359 18.7782 26.0325 18.9748 26.0325 19.2171V24.6753C26.0325 24.9176 25.8359 25.1142 25.5936 25.1142Z" fill="#1E1E1E"/>
<path fill-rule="evenodd" clip-rule="evenodd" d="M21.6644 22.139C21.5997 22.139 21.5342 22.1245 21.4732 22.0948C21.3216 22.0216 21.2256 21.8677 21.2256 21.7001V19.3938C21.2256 19.1515 21.4222 18.955 21.6644 18.955C21.9067 18.955 22.1033 19.1515 22.1033 19.3938V20.795L22.5094 20.4742C22.6686 20.3485 22.8942 20.3485 23.0534 20.4742L23.4595 20.795V19.3938C23.4595 19.1515 23.6561 18.955 23.8983 18.955C24.1406 18.955 24.3372 19.1515 24.3372 19.3938V21.7001C24.3372 21.8685 24.2412 22.0216 24.0896 22.0948C23.938 22.1679 23.7582 22.1481 23.6263 22.0445L22.7806 21.3771L21.9349 22.0445C21.858 22.107 21.762 22.139 21.6644 22.139Z" fill="#1E1E1E"/>
<path fill-rule="evenodd" clip-rule="evenodd" d="M23.4961 19.4105C23.2538 19.4105 23.0572 19.214 23.0572 18.9717V4.64407H17.9136C17.6713 4.64407 17.4747 4.4475 17.4747 4.20521C17.4747 3.96293 17.6713 3.76636 17.9136 3.76636H23.4961C23.7384 3.76636 23.9349 3.96293 23.9349 4.20521V18.9717C23.9357 19.214 23.7391 19.4105 23.4961 19.4105Z" fill="#1E1E1E"/>
<path fill-rule="evenodd" clip-rule="evenodd" d="M17.1593 30.9008H4.2755C4.03321 30.9008 3.83664 30.7043 3.83664 30.462V4.20521C3.83664 3.96293 4.03321 3.76636 4.2755 3.76636H9.83359C10.0759 3.76636 10.2724 3.96293 10.2724 4.20521C10.2724 4.4475 10.0759 4.64407 9.83359 4.64407H4.71435V30.0231H17.1593C17.4016 30.0231 17.5982 30.2197 17.5982 30.462C17.5982 30.7043 17.4024 30.9008 17.1593 30.9008Z" fill="#1E1E1E"/>
<path fill-rule="evenodd" clip-rule="evenodd" d="M21.9083 19.4105C21.666 19.4105 21.4694 19.2139 21.4694 18.9716V6.23257H17.9136C17.6713 6.23257 17.4747 6.036 17.4747 5.79372C17.4747 5.55143 17.6713 5.35486 17.9136 5.35486H21.9083C22.1505 5.35486 22.3471 5.55143 22.3471 5.79372V18.9716C22.3471 19.2139 22.1505 19.4105 21.9083 19.4105Z" fill="#1E1E1E"/>
<path fill-rule="evenodd" clip-rule="evenodd" d="M17.0382 29.313H5.86406C5.62177 29.313 5.4252 29.1164 5.4252 28.8741V5.79372C5.4252 5.55143 5.62177 5.35486 5.86406 5.35486H9.85873C10.101 5.35486 10.2976 5.55143 10.2976 5.79372C10.2976 6.036 10.101 6.23257 9.85873 6.23257H6.30292V28.4352H17.0382C17.2804 28.4352 17.477 28.6318 17.477 28.8741C17.477 29.1164 17.2804 29.313 17.0382 29.313Z" fill="#1E1E1E"/>
<path fill-rule="evenodd" clip-rule="evenodd" d="M17.8145 7.23073H9.95778C9.71549 7.23073 9.51892 7.03416 9.51892 6.79187V3.25282C9.51892 3.01054 9.71549 2.81396 9.95778 2.81396H17.8153C18.0576 2.81396 18.2542 3.01054 18.2542 3.25282V6.79187C18.2534 7.03416 18.0568 7.23073 17.8145 7.23073ZM10.3966 6.35301H17.3764V3.69168H10.3966V6.35301Z" fill="#1E1E1E"/>
<path fill-rule="evenodd" clip-rule="evenodd" d="M10.7143 12.2547H8.53682C8.29453 12.2547 8.09796 12.0581 8.09796 11.8158V9.63832C8.09796 9.39603 8.29453 9.19946 8.53682 9.19946H10.7143C10.9566 9.19946 11.1532 9.39603 11.1532 9.63832V11.8158C11.1532 12.0589 10.9566 12.2547 10.7143 12.2547ZM8.97568 11.377H10.2755V10.0772H8.97568V11.377Z" fill="#991220"/>
<path fill-rule="evenodd" clip-rule="evenodd" d="M19.2355 11.1659H13.554C13.3117 11.1659 13.1151 10.9694 13.1151 10.7271C13.1151 10.4848 13.3117 10.2882 13.554 10.2882H19.2355C19.4778 10.2882 19.6744 10.4848 19.6744 10.7271C19.6744 10.9694 19.4778 11.1659 19.2355 11.1659Z" fill="#991220"/>
<path fill-rule="evenodd" clip-rule="evenodd" d="M10.7143 16.913H8.53682C8.29453 16.913 8.09796 16.7165 8.09796 16.4742V14.2966C8.09796 14.0544 8.29453 13.8578 8.53682 13.8578H10.7143C10.9566 13.8578 11.1532 14.0544 11.1532 14.2966V16.4742C11.1532 16.7172 10.9566 16.913 10.7143 16.913ZM8.97568 16.0353H10.2755V14.7355H8.97568V16.0353Z" fill="#991220"/>
<path fill-rule="evenodd" clip-rule="evenodd" d="M19.2355 15.8242H13.554C13.3117 15.8242 13.1151 15.6277 13.1151 15.3854C13.1151 15.1431 13.3117 14.9465 13.554 14.9465H19.2355C19.4778 14.9465 19.6744 15.1431 19.6744 15.3854C19.6744 15.6284 19.4778 15.8242 19.2355 15.8242Z" fill="#991220"/>
<path fill-rule="evenodd" clip-rule="evenodd" d="M10.7143 21.5714H8.53682C8.29453 21.5714 8.09796 21.3748 8.09796 21.1325V18.955C8.09796 18.7127 8.29453 18.5161 8.53682 18.5161H10.7143C10.9566 18.5161 11.1532 18.7127 11.1532 18.955V21.1325C11.1532 21.3755 10.9566 21.5714 10.7143 21.5714ZM8.97568 20.6944H10.2755V19.3946H8.97568V20.6944Z" fill="#991220"/>
<path fill-rule="evenodd" clip-rule="evenodd" d="M17.2431 20.4826H13.554C13.3117 20.4826 13.1151 20.286 13.1151 20.0437C13.1151 19.8014 13.3117 19.6049 13.554 19.6049H17.2431C17.4854 19.6049 17.682 19.8014 17.682 20.0437C17.682 20.2868 17.4854 20.4826 17.2431 20.4826Z" fill="#991220"/>
<path fill-rule="evenodd" clip-rule="evenodd" d="M10.7143 26.2303H8.53682C8.29453 26.2303 8.09796 26.0337 8.09796 25.7914V23.6139C8.09796 23.3716 8.29453 23.175 8.53682 23.175H10.7143C10.9566 23.175 11.1532 23.3716 11.1532 23.6139V25.7914C11.1532 26.0337 10.9566 26.2303 10.7143 26.2303ZM8.97568 25.3518H10.2755V24.052H8.97568V25.3518Z" fill="#991220"/>
<path fill-rule="evenodd" clip-rule="evenodd" d="M14.4332 25.1408H13.5547C13.3124 25.1408 13.1159 24.9442 13.1159 24.7019C13.1159 24.4596 13.3124 24.2631 13.5547 24.2631H14.4332C14.6755 24.2631 14.8721 24.4596 14.8721 24.7019C14.8721 24.9442 14.6755 25.1408 14.4332 25.1408Z" fill="#991220"/>
</svg>
