<svg width="19" height="17" viewBox="0 0 19 17" fill="none" xmlns="http://www.w3.org/2000/svg">
<path d="M6.17407 9.104C5.32775 9.104 4.50044 8.85303 3.79676 8.38285C3.09307 7.91266 2.54462 7.24436 2.22074 6.46247C1.89687 5.68058 1.81213 4.8202 1.97724 3.99015C2.14235 3.16009 2.54989 2.39764 3.14833 1.7992C3.74676 1.20077 4.50921 0.793229 5.33927 0.628121C6.16932 0.463013 7.0297 0.547752 7.81159 0.871623C8.59348 1.19549 9.26178 1.74395 9.73197 2.44764C10.2022 3.15132 10.4531 3.97863 10.4531 4.82495C10.4517 5.9594 10.0005 7.04699 9.19829 7.84917C8.39611 8.65135 7.30852 9.10262 6.17407 9.104V9.104ZM6.17407 1.66217C5.54853 1.66217 4.93704 1.84767 4.41693 2.1952C3.89681 2.54273 3.49143 3.03669 3.25205 3.61461C3.01266 4.19253 2.95003 4.82846 3.07207 5.44197C3.1941 6.05549 3.49533 6.61905 3.93765 7.06137C4.37997 7.50369 4.94352 7.80491 5.55704 7.92695C6.17056 8.04899 6.80649 7.98635 7.38441 7.74697C7.96233 7.50759 8.45629 7.10221 8.80382 6.58209C9.15135 6.06198 9.33684 5.45049 9.33684 4.82495C9.33586 3.98643 9.00232 3.18254 8.4094 2.58962C7.81648 1.99669 7.01259 1.66316 6.17407 1.66217Z" fill="#1E1E1E"/>
<path d="M6.17417 16.5459C4.22728 16.5738 2.28699 16.3132 0.416433 15.7727C0.30534 15.7357 0.208697 15.6647 0.140184 15.5697C0.0716703 15.4748 0.0347569 15.3607 0.034668 15.2436V14.1273C0.0364408 12.4995 0.683849 10.939 1.83484 9.78797C2.98584 8.63697 4.54642 7.98957 6.17417 7.98779C6.3222 7.98779 6.46416 8.0466 6.56883 8.15127C6.6735 8.25594 6.73231 8.3979 6.73231 8.54593C6.73231 8.69396 6.6735 8.83592 6.56883 8.94059C6.46416 9.04526 6.3222 9.10407 6.17417 9.10407C4.84241 9.10564 3.56565 9.63538 2.62395 10.5771C1.68225 11.5188 1.15252 12.7955 1.15094 14.1273V14.8231C2.79333 15.2349 4.48096 15.4387 6.17417 15.4296C7.86738 15.4387 9.55502 15.2349 11.1974 14.8231V14.1273C11.2003 13.347 11.02 12.5768 10.671 11.8789C10.3221 11.1809 9.81413 10.5746 9.18811 10.1087C9.12947 10.0647 9.08007 10.0096 9.04273 9.94657C9.00539 9.8835 8.98083 9.81369 8.97046 9.74114C8.9601 9.66858 8.96413 9.59469 8.98232 9.52368C9.00051 9.45268 9.0325 9.38596 9.07648 9.32732C9.12046 9.26868 9.17556 9.21928 9.23862 9.18194C9.30169 9.1446 9.3715 9.12004 9.44406 9.10968C9.51662 9.09931 9.59051 9.10334 9.66151 9.12153C9.73251 9.13972 9.79924 9.17172 9.85787 9.21569C10.6231 9.78498 11.244 10.526 11.6706 11.3791C12.0971 12.2322 12.3174 13.1735 12.3137 14.1273V15.2436C12.3136 15.3607 12.2767 15.4748 12.2082 15.5697C12.1396 15.6647 12.043 15.7357 11.9319 15.7727C10.0614 16.3132 8.12106 16.5738 6.17417 16.5459V16.5459Z" fill="#1E1E1E"/>
<path d="M15.0813 10.9643C14.3453 10.9643 13.6259 10.7461 13.014 10.3372C12.4021 9.92834 11.9252 9.34721 11.6436 8.6673C11.362 7.9874 11.2883 7.23925 11.4318 6.51746C11.5754 5.79567 11.9298 5.13267 12.4502 4.61229C12.9706 4.09191 13.6336 3.73753 14.3554 3.59396C15.0771 3.45039 15.8253 3.52407 16.5052 3.8057C17.1851 4.08733 17.7662 4.56425 18.1751 5.17615C18.5839 5.78805 18.8022 6.50745 18.8022 7.24337C18.8011 8.22989 18.4087 9.17569 17.7111 9.87326C17.0136 10.5708 16.0678 10.9632 15.0813 10.9643V10.9643ZM15.0813 4.26664C14.4925 4.26664 13.917 4.44123 13.4275 4.76831C12.938 5.0954 12.5564 5.5603 12.3311 6.10423C12.1058 6.64815 12.0469 7.24668 12.1617 7.8241C12.2766 8.40153 12.5601 8.93194 12.9764 9.34824C13.3927 9.76454 13.9231 10.048 14.5005 10.1629C15.078 10.2778 15.6765 10.2188 16.2204 9.99351C16.7643 9.76821 17.2292 9.38668 17.5563 8.89716C17.8834 8.40763 18.058 7.83212 18.058 7.24337C18.0571 6.45417 17.7432 5.69754 17.1852 5.13949C16.6271 4.58143 15.8705 4.26753 15.0813 4.26664V4.26664Z" fill="#991220"/>
<path d="M14.7094 8.73166C14.6107 8.73164 14.5161 8.69242 14.4463 8.62263L13.33 7.50636C13.2623 7.43618 13.2248 7.34219 13.2256 7.24463C13.2264 7.14707 13.2656 7.05375 13.3346 6.98476C13.4036 6.91577 13.4969 6.87664 13.5944 6.87579C13.692 6.87494 13.786 6.91244 13.8562 6.98022L14.7094 7.83343L16.3068 6.23604C16.3769 6.16826 16.4709 6.13076 16.5685 6.13161C16.6661 6.13245 16.7594 6.17159 16.8284 6.24058C16.8974 6.30956 16.9365 6.40289 16.9373 6.50045C16.9382 6.59801 16.9007 6.692 16.8329 6.76218L14.9724 8.62263C14.9027 8.69242 14.8081 8.73164 14.7094 8.73166Z" fill="#991220"/>
</svg>
