<svg width="20" height="20" viewBox="0 0 20 20" fill="none" xmlns="http://www.w3.org/2000/svg">
<path d="M17.6063 10.9707H6.52295C6.36548 10.9707 6.21445 10.9081 6.1031 10.7968C5.99175 10.6854 5.9292 10.5344 5.9292 10.377C5.9292 10.2195 5.99175 10.0685 6.1031 9.95711C6.21445 9.84576 6.36548 9.7832 6.52295 9.7832H17.6063C17.7638 9.7832 17.9148 9.84576 18.0261 9.95711C18.1375 10.0685 18.2 10.2195 18.2 10.377C18.2 10.5344 18.1375 10.6854 18.0261 10.7968C17.9148 10.9081 17.7638 10.9707 17.6063 10.9707Z" fill="#991220"/>
<path d="M14.4397 14.1382C14.3223 14.1382 14.2075 14.1034 14.1098 14.0383C14.0122 13.9731 13.936 13.8804 13.891 13.7719C13.846 13.6635 13.8342 13.5441 13.857 13.4289C13.8799 13.3137 13.9364 13.2079 14.0193 13.1248L16.7593 10.3777L14.0193 7.63065C13.9113 7.51852 13.8517 7.36845 13.8533 7.21277C13.8548 7.05708 13.9175 6.90825 14.0277 6.79831C14.138 6.68838 14.287 6.62614 14.4427 6.62502C14.5984 6.62389 14.7483 6.68396 14.8601 6.79228L18.0188 9.95895C18.1298 10.0704 18.1922 10.2213 18.1922 10.3785C18.1922 10.5358 18.1298 10.6867 18.0188 10.7981L14.8601 13.9648C14.8049 14.02 14.7394 14.0637 14.6672 14.0934C14.5951 14.1232 14.5178 14.1384 14.4397 14.1382Z" fill="#991220"/>
<path d="M10.4813 18.8874H3.35628C2.77901 18.887 2.22551 18.6574 1.81732 18.2493C1.40912 17.8411 1.17962 17.2876 1.1792 16.7103V4.83529C1.17962 4.25802 1.40912 3.70451 1.81732 3.29632C2.22551 2.88813 2.77901 2.65862 3.35628 2.6582H10.4813C11.0586 2.65862 11.6121 2.88813 12.0202 3.29632C12.4284 3.70451 12.6579 4.25802 12.6584 4.83529V6.41862C12.6584 6.57609 12.5958 6.72712 12.4845 6.83846C12.3731 6.94981 12.2221 7.01237 12.0646 7.01237C11.9071 7.01237 11.7561 6.94981 11.6448 6.83846C11.5334 6.72712 11.4709 6.57609 11.4709 6.41862V4.83529C11.4704 4.57296 11.3661 4.3215 11.1806 4.13601C10.9951 3.95052 10.7436 3.84612 10.4813 3.8457H3.35628C3.09396 3.84612 2.8425 3.95052 2.657 4.13601C2.47151 4.3215 2.36712 4.57296 2.3667 4.83529V16.7103C2.36712 16.9726 2.47151 17.2241 2.657 17.4096C2.8425 17.5951 3.09396 17.6995 3.35628 17.6999H10.4813C10.7436 17.6995 10.9951 17.5951 11.1806 17.4096C11.3661 17.2241 11.4704 16.9726 11.4709 16.7103V14.3353C11.4709 14.1778 11.5334 14.0268 11.6448 13.9154C11.7561 13.8041 11.9071 13.7415 12.0646 13.7415C12.2221 13.7415 12.3731 13.8041 12.4845 13.9154C12.5958 14.0268 12.6584 14.1778 12.6584 14.3353V16.7103C12.6579 17.2876 12.4284 17.8411 12.0202 18.2493C11.6121 18.6574 11.0586 18.887 10.4813 18.8874Z" fill="#1E1E1E"/>
</svg>
