<svg width="49" height="48" viewBox="0 0 49 48" fill="none" xmlns="http://www.w3.org/2000/svg">
<path fill-rule="evenodd" clip-rule="evenodd" d="M47.9091 48.0007H4.62001C4.20595 48.0007 3.87001 47.6648 3.87001 47.2507V43.4408C3.87001 43.0267 4.20595 42.6908 4.62001 42.6908H47.9091C48.3231 42.6908 48.6591 43.0267 48.6591 43.4408V47.2507C48.6591 47.6648 48.3231 48.0007 47.9091 48.0007ZM5.37001 46.5007H47.1591V44.1908H5.37001V46.5007Z" fill="#1E1E1E"/>
<path fill-rule="evenodd" clip-rule="evenodd" d="M6.34783 7.27676C6.0822 7.27676 5.82439 7.13483 5.68897 6.88613C5.49106 6.52285 5.62517 6.06712 5.98845 5.8679L7.87126 4.84056C8.23455 4.64264 8.69028 4.77676 8.88949 5.14004C9.08871 5.50332 8.9533 5.95905 8.59001 6.15827L6.7072 7.18561C6.59262 7.24811 6.46892 7.27676 6.34783 7.27676Z" fill="#991220"/>
<path fill-rule="evenodd" clip-rule="evenodd" d="M6.34659 43.8093C5.93253 43.8093 5.59659 43.4734 5.59659 43.0593V11.9851C5.59659 11.571 5.93253 11.2351 6.34659 11.2351C6.76065 11.2351 7.09659 11.571 7.09659 11.9851V43.0593C7.09659 43.4734 6.76195 43.8093 6.34659 43.8093Z" fill="#1E1E1E"/>
<path fill-rule="evenodd" clip-rule="evenodd" d="M45.4442 44.1922H9.56269C9.14862 44.1922 8.81269 43.8562 8.81269 43.4422V40.7963C8.81269 40.3823 9.14862 40.0463 9.56269 40.0463H45.4442C45.8583 40.0463 46.1942 40.3823 46.1942 40.7963V43.4422C46.1942 43.8562 45.8583 44.1922 45.4442 44.1922ZM10.3127 42.6922H44.6942V41.5463H10.3127V42.6922Z" fill="#1E1E1E"/>
<path fill-rule="evenodd" clip-rule="evenodd" d="M38.8075 41.1804C38.3934 41.1804 38.0575 40.8445 38.0575 40.4304V18.5606H16.5718V40.4304C16.5718 40.8445 16.2359 41.1804 15.8218 41.1804C15.4077 41.1804 15.0718 40.8445 15.0718 40.4304V17.8106C15.0718 17.3965 15.4077 17.0606 15.8218 17.0606H38.8075C39.2215 17.0606 39.5575 17.3965 39.5575 17.8106V40.4304C39.5575 40.8445 39.2215 41.1804 38.8075 41.1804Z" fill="#1E1E1E"/>
<path fill-rule="evenodd" clip-rule="evenodd" d="M31.8817 27.9903C31.7203 27.9903 31.5601 27.9382 31.426 27.8367L27.314 24.696L23.2021 27.8367C22.9755 28.0098 22.6695 28.0398 22.4143 27.9122C22.1591 27.7859 21.9963 27.5255 21.9963 27.2403V18.1218C21.9963 17.7078 22.3323 17.3718 22.7463 17.3718C23.1604 17.3718 23.4963 17.7078 23.4963 18.1218V25.7247L26.8583 23.157C27.1265 22.9513 27.5002 22.9513 27.7685 23.157L31.1304 25.7247V18.1218C31.1304 17.7078 31.4664 17.3718 31.8804 17.3718C32.2945 17.3718 32.6304 17.7078 32.6304 18.1218V27.2416C32.6304 27.5268 32.469 27.7872 32.2125 27.9135C32.1096 27.9643 31.995 27.9903 31.8817 27.9903Z" fill="#1E1E1E"/>
<path fill-rule="evenodd" clip-rule="evenodd" d="M35.4116 38.3406H32.1317C31.7176 38.3406 31.3817 38.0046 31.3817 37.5906C31.3817 37.1765 31.7176 36.8406 32.1317 36.8406H35.4116C35.8257 36.8406 36.1616 37.1765 36.1616 37.5906C36.1616 38.0046 35.8257 38.3406 35.4116 38.3406Z" fill="#991220"/>
<path fill-rule="evenodd" clip-rule="evenodd" d="M35.4117 35.5359H28.6395C28.2255 35.5359 27.8895 35.2 27.8895 34.7859C27.8895 34.3718 28.2255 34.0359 28.6395 34.0359H35.4117C35.8257 34.0359 36.1617 34.3718 36.1617 34.7859C36.1617 35.2 35.8257 35.5359 35.4117 35.5359Z" fill="#991220"/>
<path fill-rule="evenodd" clip-rule="evenodd" d="M6.34656 12.2156C3.20984 12.2156 0.659058 9.66349 0.659058 6.52808C0.659058 3.39266 3.21114 0.840576 6.34656 0.840576C9.48198 0.840576 12.0341 3.39266 12.0341 6.52808C12.0354 9.66349 9.48328 12.2156 6.34656 12.2156ZM6.34656 2.33927C4.03666 2.33927 2.15906 4.21818 2.15906 6.52677C2.15906 8.83537 4.03796 10.7143 6.34656 10.7143C8.65515 10.7143 10.5341 8.83537 10.5341 6.52677C10.5354 4.21818 8.65646 2.33927 6.34656 2.33927Z" fill="#991220"/>
</svg>
