<svg width="16" height="17" viewBox="0 0 16 17" fill="none" xmlns="http://www.w3.org/2000/svg">
<path d="M3.53475 15.293C3.46166 15.2934 3.38921 15.2794 3.32156 15.2517C3.25391 15.224 3.19239 15.1833 3.14053 15.1318C3.08867 15.0803 3.0475 15.019 3.01937 14.9515C2.99124 14.8841 2.97671 14.8117 2.97661 14.7386V14.7312C2.97365 14.085 3.10017 13.4448 3.34871 12.8484C3.72527 11.9234 4.36872 11.1314 5.19706 10.5734C6.02541 10.0154 7.00113 9.71674 7.99987 9.71538C9.00271 9.71117 9.98351 10.0095 10.8142 10.5713C11.6449 11.1332 12.2868 11.9324 12.6562 12.8648C12.711 13.0029 12.7087 13.1572 12.6497 13.2936C12.5907 13.43 12.48 13.5374 12.3418 13.5922C12.2037 13.647 12.0494 13.6446 11.913 13.5857C11.7766 13.5267 11.6692 13.416 11.6144 13.2778C11.374 12.6791 10.9889 12.1495 10.4935 11.7363C9.99813 11.3231 9.40795 11.0393 8.77589 10.9103C8.14383 10.7813 7.48964 10.8112 6.87196 10.9972C6.25427 11.1832 5.6924 11.5196 5.23671 11.9762C4.86409 12.3441 4.57147 12.7849 4.37717 13.2711C4.18577 13.7339 4.0891 14.2304 4.09289 14.7312C4.0929 14.8796 4.03421 15.0219 3.92964 15.1272C3.82508 15.2324 3.68312 15.2921 3.53475 15.293V15.293Z" fill="#991220"/>
<path d="M12.4649 15.293C12.3918 15.2934 12.3193 15.2794 12.2517 15.2517C12.184 15.224 12.1225 15.1833 12.0707 15.1318C12.0188 15.0802 11.9776 15.019 11.9495 14.9515C11.9214 14.8841 11.9068 14.8117 11.9067 14.7386V14.7312C11.9075 14.6209 11.9408 14.5134 12.0026 14.4221C12.0644 14.3308 12.1518 14.2599 12.2539 14.2182C12.3559 14.1765 12.468 14.166 12.576 14.1879C12.6841 14.2099 12.7832 14.2633 12.8608 14.3415C12.9385 14.4198 12.9913 14.5192 13.0125 14.6274C13.0338 14.7355 13.0225 14.8476 12.9802 14.9493C12.9378 15.0511 12.8663 15.1381 12.7746 15.1992C12.6829 15.2604 12.5751 15.293 12.4649 15.293V15.293Z" fill="#991220"/>
<path d="M8.00022 10.8316C7.30108 10.8316 6.61765 10.6243 6.03634 10.2359C5.45503 9.84746 5.00196 9.29538 4.73441 8.64947C4.46686 8.00355 4.39686 7.2928 4.53326 6.6071C4.66965 5.9214 5.00631 5.29155 5.50068 4.79719C5.99504 4.30282 6.6249 3.96616 7.3106 3.82976C7.9963 3.69337 8.70704 3.76337 9.35296 4.03092C9.99887 4.29847 10.5509 4.75154 10.9394 5.33285C11.3278 5.91416 11.5351 6.59759 11.5351 7.29673C11.5339 8.23387 11.1611 9.1323 10.4985 9.79496C9.83579 10.4576 8.93736 10.8304 8.00022 10.8316ZM8.00022 4.87812C7.52186 4.87812 7.05425 5.01997 6.65651 5.28573C6.25877 5.55149 5.94878 5.92922 5.76572 6.37117C5.58266 6.81311 5.53476 7.29941 5.62809 7.76857C5.72141 8.23773 5.95176 8.66869 6.29001 9.00694C6.62825 9.34518 7.05921 9.57553 7.52837 9.66886C7.99753 9.76218 8.48383 9.71428 8.92578 9.53122C9.36772 9.34817 9.74545 9.03817 10.0112 8.64043C10.277 8.24269 10.4188 7.77508 10.4188 7.29673C10.418 6.65551 10.163 6.04079 9.70956 5.58738C9.25615 5.13398 8.64143 4.87891 8.00022 4.87812V4.87812Z" fill="#991220"/>
<path d="M8 16.7852C6.41775 16.7852 4.87103 16.316 3.55544 15.4369C2.23985 14.5579 1.21447 13.3084 0.608967 11.8466C0.00346627 10.3848 -0.15496 8.77628 0.153721 7.22444C0.462403 5.67259 1.22433 4.24712 2.34315 3.1283C3.46197 2.00949 4.88743 1.24756 6.43928 0.938878C7.99113 0.630196 9.59966 0.788623 11.0615 1.39412C12.5233 1.99962 13.7727 3.025 14.6518 4.3406C15.5308 5.65619 16 7.20291 16 8.78516C15.9976 10.9062 15.154 12.9396 13.6542 14.4394C12.1545 15.9392 10.121 16.7828 8 16.7852ZM8 1.90144C6.63853 1.90144 5.30763 2.30516 4.17561 3.06155C3.04359 3.81795 2.16129 4.89304 1.64027 6.15087C1.11926 7.40871 0.982941 8.79279 1.24855 10.1281C1.51416 11.4634 2.16977 12.69 3.13248 13.6527C4.09518 14.6154 5.32174 15.271 6.65705 15.5366C7.99237 15.8022 9.37645 15.6659 10.6343 15.1449C11.8921 14.6239 12.9672 13.7416 13.7236 12.6095C14.48 11.4775 14.8837 10.1466 14.8837 8.78516C14.8818 6.96009 14.1559 5.21033 12.8654 3.91981C11.5748 2.62929 9.82507 1.90341 8 1.90144V1.90144Z" fill="#1E1E1E"/>
</svg>
