<svg width="16" height="17" viewBox="0 0 16 17" fill="none" xmlns="http://www.w3.org/2000/svg">
<path d="M6.13942 9.10404C5.2931 9.10404 4.46579 8.85308 3.7621 8.38289C3.05841 7.9127 2.50995 7.2444 2.18608 6.4625C1.86221 5.6806 1.77747 4.82022 1.94257 3.99016C2.10768 3.16011 2.51523 2.39765 3.11366 1.79921C3.7121 1.20077 4.47456 0.79323 5.30462 0.628121C6.13468 0.463013 6.99505 0.547752 7.77695 0.871625C8.55885 1.1955 9.22715 1.74396 9.69734 2.44765C10.1675 3.15134 10.4185 3.97865 10.4185 4.82497C10.4171 5.95943 9.96584 7.04702 9.16366 7.84921C8.36148 8.65139 7.27388 9.10266 6.13942 9.10404V9.10404ZM6.13942 1.66218C5.51388 1.66218 4.90239 1.84767 4.38227 2.19521C3.86215 2.54274 3.45677 3.0367 3.21739 3.61462C2.978 4.19255 2.91537 4.82848 3.0374 5.442C3.15944 6.05552 3.46067 6.61908 3.90299 7.0614C4.34532 7.50373 4.90887 7.80495 5.52239 7.92699C6.13591 8.04903 6.77185 7.98639 7.34977 7.74701C7.9277 7.50762 8.42166 7.10224 8.76919 6.58212C9.11672 6.062 9.30221 5.45051 9.30221 4.82497C9.30123 3.98645 8.96769 3.18255 8.37477 2.58963C7.78184 1.9967 6.97795 1.66316 6.13942 1.66218Z" fill="#1E1E1E"/>
<path d="M6.13953 16.5459C4.19263 16.5738 2.25233 16.3133 0.381767 15.7727C0.270673 15.7357 0.17403 15.6647 0.105516 15.5698C0.0370025 15.4748 8.8908e-05 15.3607 0 15.2436V14.1273C0.00177284 12.4996 0.649184 10.939 1.80019 9.78798C2.95119 8.63698 4.51177 7.98957 6.13953 7.98779C6.28756 7.98779 6.42953 8.0466 6.5342 8.15127C6.63887 8.25594 6.69767 8.3979 6.69767 8.54593C6.69767 8.69396 6.63887 8.83592 6.5342 8.9406C6.42953 9.04527 6.28756 9.10407 6.13953 9.10407C4.80777 9.10565 3.531 9.63539 2.5893 10.5771C1.6476 11.5188 1.11785 12.7956 1.11628 14.1273V14.8231C2.75867 15.235 4.44632 15.4387 6.13953 15.4297C7.83275 15.4387 9.5204 15.235 11.1628 14.8231V14.1273C11.1657 13.347 10.9854 12.5768 10.6364 11.8789C10.2875 11.1809 9.77951 10.5746 9.15349 10.1087C9.09485 10.0647 9.04545 10.0096 9.00811 9.94658C8.97076 9.88351 8.94621 9.8137 8.93584 9.74114C8.92548 9.66858 8.9295 9.5947 8.94769 9.52369C8.96589 9.45269 8.99788 9.38596 9.04186 9.32733C9.08584 9.26869 9.14093 9.21929 9.204 9.18195C9.26707 9.1446 9.33688 9.12005 9.40944 9.10968C9.482 9.09932 9.55589 9.10334 9.62689 9.12153C9.69789 9.13973 9.76462 9.17172 9.82326 9.2157C10.5885 9.78499 11.2094 10.526 11.636 11.3791C12.0625 12.2322 12.2828 13.1735 12.2791 14.1273V15.2436C12.279 15.3607 12.2421 15.4748 12.1736 15.5698C12.105 15.6647 12.0084 15.7357 11.8973 15.7727C10.0267 16.3133 8.08644 16.5738 6.13953 16.5459V16.5459Z" fill="#1E1E1E"/>
<path d="M13.5813 9.10405C13.4333 9.10405 13.2913 9.04525 13.1867 8.94058C13.082 8.83591 13.0232 8.69394 13.0232 8.54592V4.82499C13.0232 4.67696 13.082 4.53499 13.1867 4.43032C13.2913 4.32565 13.4333 4.26685 13.5813 4.26685C13.7294 4.26685 13.8713 4.32565 13.976 4.43032C14.0807 4.53499 14.1395 4.67696 14.1395 4.82499V8.54592C14.1395 8.69394 14.0807 8.83591 13.976 8.94058C13.8713 9.04525 13.7294 9.10405 13.5813 9.10405Z" fill="#991220"/>
<path d="M15.4419 7.24348H11.721C11.573 7.24348 11.431 7.18467 11.3263 7.08C11.2216 6.97533 11.1628 6.83336 11.1628 6.68534C11.1628 6.53731 11.2216 6.39534 11.3263 6.29067C11.431 6.186 11.573 6.1272 11.721 6.1272H15.4419C15.5899 6.1272 15.7319 6.186 15.8366 6.29067C15.9412 6.39534 16.0001 6.53731 16.0001 6.68534C16.0001 6.83336 15.9412 6.97533 15.8366 7.08C15.7319 7.18467 15.5899 7.24348 15.4419 7.24348Z" fill="#991220"/>
</svg>
