<svg width="155" height="163" viewBox="0 0 155 163" fill="none" xmlns="http://www.w3.org/2000/svg">
<g opacity="0.04">
<path d="M142.131 82.1698C142.335 81.2708 142.421 80.349 142.386 79.4277C142.345 78.0869 142.052 76.7656 141.522 75.5335L130.499 51.1144L135.916 29.1334C136.132 28.2568 135.991 27.3302 135.524 26.5576C135.057 25.7849 134.302 25.2295 133.425 25.0135L54.0951 5.46522C53.2184 5.2492 52.2919 5.39028 51.5192 5.85741C50.7466 6.32455 50.1912 7.07948 49.9751 7.95613L44.5586 29.9371L23.4525 46.4391C22.4103 47.2838 21.537 48.3176 20.8784 49.4863C20.4193 50.2857 20.0669 51.1419 19.8302 52.0329L2.47294 122.471C1.82487 125.101 2.24809 127.881 3.6495 130.199C5.0509 132.517 7.31569 134.183 9.94565 134.831L112.414 160.081C115.027 160.722 117.788 160.307 120.097 158.924C120.243 158.835 120.376 158.726 120.492 158.6C122.572 157.188 124.059 155.057 124.666 152.617L142.131 82.1698ZM25.4392 57.7275L55.276 91.1654L9.60505 121.985L25.4392 57.7275ZM59.7683 96.2694L66.034 103.283C67.42 104.788 69.2187 105.852 71.2056 106.342C73.1925 106.832 75.2796 106.725 77.2063 106.036L86.2117 102.785L113.348 153.299L12.2688 128.391L59.7683 96.2694ZM92.4619 100.329L134.518 84.6064L118.684 148.864L92.4619 100.329ZM134.699 77.1831L122.973 81.6565L127.86 61.824L134.699 77.1831ZM128.491 30.8098L115.247 84.5559L74.9555 99.6612C74.3076 99.9087 73.5996 99.9524 72.9262 99.7864C72.2528 99.6205 71.6461 99.2528 71.1874 98.7326L42.5275 66.6366L55.7715 12.8906L128.491 30.8098ZM37.0325 60.4792L28.6285 51.0454L41.9196 40.6467L37.0325 60.4792Z" fill="#991220"/>
<path d="M65.7823 43.4064L105.447 53.1805C106.324 53.3965 107.251 53.2554 108.023 52.7883C108.796 52.3212 109.351 51.5662 109.567 50.6896C109.783 49.8129 109.642 48.8864 109.175 48.1138C108.708 47.3411 107.953 46.7857 107.076 46.5697L67.4114 36.7955C66.5347 36.5795 65.6082 36.7206 64.8355 37.1877C64.0629 37.6549 63.5075 38.4098 63.2914 39.2864C63.0754 40.1631 63.2165 41.0896 63.6836 41.8623C64.1508 42.6349 64.9057 43.1903 65.7823 43.4064Z" fill="#991220"/>
<path d="M60.8951 63.2389L100.56 73.013C101.437 73.229 102.363 73.088 103.136 72.6208C103.909 72.1537 104.464 71.3988 104.68 70.5221C104.896 69.6455 104.755 68.7189 104.288 67.9463C103.821 67.1736 103.066 66.6182 102.189 66.4022L62.5242 56.628C61.6475 56.412 60.721 56.5531 59.9483 57.0202C59.1757 57.4874 58.6203 58.2423 58.4042 59.119C58.1882 59.9956 58.3293 60.9222 58.7964 61.6948C59.2636 62.4674 60.0185 63.0229 60.8951 63.2389Z" fill="#991220"/>
</g>
</svg>
