<svg width="121" height="122" viewBox="0 0 121 122" fill="none" xmlns="http://www.w3.org/2000/svg">
<path d="M91.3342 14.8438C78.9235 14.8438 68.3293 22.6558 64.1348 33.6094V54.3606C68.3293 65.3162 78.9235 73.1282 91.3342 73.1282C107.403 73.1282 120.476 60.055 120.476 43.986C120.476 27.917 107.403 14.8438 91.3342 14.8438Z" fill="#991220"/>
<path d="M34.9935 69.2422V78.9563H11.6797V88.6704H42.7647V78.9563H54.4216V69.2422H34.9935Z" fill="white"/>
<path d="M27.2227 24.5586H38.8796V34.2727H27.2227V24.5586Z" fill="#991220"/>
<path d="M27.2227 53.6992H38.8796V63.4133H27.2227V53.6992Z" fill="#991220"/>
<path d="M99.1071 92.5536H66.0792V1.9834L52.7223 8.6628L42.7654 0.695312L33.0513 8.46658L23.3372 0.695312L13.3803 8.66086L0.0234375 1.9834V84.7823C0.0234375 102.143 8.23961 120.655 31.1085 121.647V121.696H93.2786C102.921 121.696 110.764 113.851 110.764 104.211C110.764 97.7817 105.536 92.5536 99.1071 92.5536ZM3.90907 84.7823V8.27035L13.866 13.2478L23.3372 5.67281L33.0513 13.4441L42.7654 5.67281L52.2366 13.2498L62.1936 8.27035V92.5536H38.8798C32.451 92.5536 27.2229 97.7817 27.2229 104.211V104.444C27.2229 108.601 30.6034 111.982 34.761 111.982H34.9941H44.1953C41.7338 115.5 37.6597 117.81 33.0513 117.81C14.8024 117.81 3.90907 105.464 3.90907 84.7823ZM46.0779 108.096H41.6833C42.3535 106.948 42.7654 105.633 42.7654 104.211H46.651C46.651 105.561 46.447 106.864 46.0779 108.096ZM45.6077 100.325H38.8798V104.211C38.8798 106.353 37.1371 108.096 34.9941 108.096H34.761C32.7482 108.096 31.1085 106.456 31.1085 104.444V104.211C31.1085 99.9247 34.5939 96.4392 38.8798 96.4392C41.7512 96.4392 44.2633 98.0032 45.6077 100.325ZM93.2786 117.81H44.0166C47.9877 114.603 50.5367 109.701 50.5367 104.211C50.5367 101.222 49.3982 98.5045 47.5447 96.4392H99.1071C103.393 96.4392 106.878 99.9247 106.878 104.211C106.878 111.71 100.776 117.81 93.2786 117.81Z" fill="#1E1E1E"/>
<path d="M85.5067 57.5851H89.3924V61.4707H93.278V57.5851H97.1636C99.3066 57.5851 101.049 55.8424 101.049 53.6994V45.9282C101.049 43.7852 99.3066 42.0425 97.1636 42.0425H85.5067V34.2713H97.1636V38.1569H101.049V34.2713C101.049 32.1283 99.3066 30.3856 97.1636 30.3856H93.278V26.5H89.3924V30.3856H85.5067C83.3638 30.3856 81.6211 32.1283 81.6211 34.2713V42.0425C81.6211 44.1855 83.3638 45.9282 85.5067 45.9282H97.1636V53.6994H85.5067V49.8138H81.6211V53.6994C81.6211 55.8424 83.3638 57.5851 85.5067 57.5851Z" fill="white"/>
<path d="M46.6504 69.2383H54.4217V73.1239H46.6504V69.2383Z" fill="#991220"/>
<path d="M11.6797 77.0078H54.4216V80.8934H11.6797V77.0078Z" fill="#991220"/>
<path d="M11.6797 84.7812H19.451V88.6669H11.6797V84.7812Z" fill="#991220"/>
<path d="M23.3379 84.7812H27.2235V88.6669H23.3379V84.7812Z" fill="#991220"/>
<path d="M31.1094 84.7812H34.995V88.6669H31.1094V84.7812Z" fill="#991220"/>
<path d="M38.8789 84.7812H42.7645V88.6669H38.8789V84.7812Z" fill="#991220"/>
<path d="M17.5081 65.3513H48.5932C51.8066 65.3513 54.4216 62.7363 54.4216 59.5229V28.4378C54.4216 25.2244 51.8066 22.6094 48.5932 22.6094H17.5081C14.2947 22.6094 11.6797 25.2244 11.6797 28.4378V59.5229C11.6797 62.7363 14.2947 65.3513 17.5081 65.3513ZM15.5653 28.4378C15.5653 27.3673 16.4357 26.495 17.5081 26.495H48.5932C49.6656 26.495 50.536 27.3673 50.536 28.4378V59.5229C50.536 60.5934 49.6656 61.4657 48.5932 61.4657H17.5081C16.4357 61.4657 15.5653 60.5934 15.5653 59.5229V28.4378Z" fill="#1E1E1E"/>
<path d="M34.9941 69.2383H42.7654V73.1239H34.9941V69.2383Z" fill="#991220"/>
</svg>
