<svg width="121" height="122" viewBox="0 0 121 122" fill="none" xmlns="http://www.w3.org/2000/svg">
<path d="M24.5781 4.19922H43.4844V11.7617H24.5781V4.19922Z" fill="#991220"/>
<path d="M24.5781 34.4492H43.4844V42.0117H24.5781V34.4492Z" fill="#991220"/>
<path d="M81.2969 76.043H100.203V83.6055H81.2969V76.043Z" fill="#991220"/>
<path d="M92.6406 102.512H111.547V111.965H92.6406V102.512Z" fill="#991220"/>
<path d="M77.5156 4.19922H96.4219V11.7617H77.5156V4.19922Z" fill="#991220"/>
<path d="M77.5156 34.4492H96.4219V42.0117H77.5156V34.4492Z" fill="#991220"/>
<path d="M62.3906 119.527H119.109V74.1523H62.3906V119.527ZM66.1719 77.9336H115.328V115.746H66.1719V77.9336Z" fill="#1E1E1E"/>
<path d="M107.766 108.184H111.547V111.965H107.766V108.184Z" fill="#1E1E1E"/>
<path d="M100.203 108.184H103.984V111.965H100.203V108.184Z" fill="#1E1E1E"/>
<path d="M92.6406 108.184H96.4219V111.965H92.6406V108.184Z" fill="#1E1E1E"/>
<path d="M115.328 40.1211H111.547V2.30859H62.3906V40.1211H58.6094V2.30859H9.45312V40.1211H5.67188C3.58652 40.1211 1.89062 41.817 1.89062 43.9023V47.6836C1.89062 49.769 3.58652 51.4648 5.67188 51.4648H15.6222C15.3084 52.6767 15.125 53.9378 15.125 55.2461C15.125 60.502 17.8229 65.136 21.9029 67.8471C10.3266 71.4204 1.89062 82.2159 1.89062 94.9492C1.89062 98.8155 4.22933 102.137 7.5625 103.601V119.527H58.6094V94.9492C58.6094 82.2159 50.1734 71.4204 38.5971 67.8471C42.6771 65.136 45.375 60.502 45.375 55.2461C45.375 53.9378 45.1916 52.6767 44.8778 51.4648H115.328C117.413 51.4648 119.109 49.769 119.109 47.6836V43.9023C119.109 41.817 117.413 40.1211 115.328 40.1211ZM66.1719 6.08984H107.766V40.1211H66.1719V6.08984ZM13.2344 6.08984H54.8281V40.1211H13.2344V6.08984ZM5.67188 47.6836V43.9023H20.2788C19.0499 44.9838 17.9987 46.26 17.1707 47.6836H5.67188ZM11.3438 104.402H18.9062V115.746H11.3438V104.402ZM29.3047 91.168H22.6875V81.7148H35.9219V91.168H45.375V115.746H22.6875V104.402H29.3047C32.9536 104.402 35.9219 101.434 35.9219 97.7852C35.9219 94.1363 32.9536 91.168 29.3047 91.168ZM39.7031 84.3882L42.7017 87.3867H39.7031V84.3882ZM54.8281 94.9492V115.746H49.1562V88.4946L38.5952 77.9336H18.9062V91.168H13.2344V94.9492H29.3047C30.8682 94.9492 32.1406 96.2216 32.1406 97.7852C32.1406 99.3487 30.8682 100.621 29.3047 100.621H11.3438C8.21666 100.621 5.67188 98.0763 5.67188 94.9492C5.67188 81.3972 16.698 70.3711 30.25 70.3711C43.802 70.3711 54.8281 81.3972 54.8281 94.9492ZM30.25 66.5898C23.9939 66.5898 18.9062 61.5022 18.9062 55.2461C18.9062 48.99 23.9939 43.9023 30.25 43.9023C36.5061 43.9023 41.5938 48.99 41.5938 55.2461C41.5938 61.5022 36.5061 66.5898 30.25 66.5898ZM115.328 47.6836H43.3293C42.5031 46.26 41.4501 44.9838 40.2212 43.9023H115.328V47.6836Z" fill="#1E1E1E"/>
<path d="M92.6406 100.621H111.547V104.402H92.6406V100.621Z" fill="#1E1E1E"/>
</svg>
