<svg width="122" height="120" viewBox="0 0 122 120" fill="none" xmlns="http://www.w3.org/2000/svg">
<path d="M103.353 77.0246H87.9517V63.5547H103.353V77.0246Z" fill="#991220"/>
<path d="M68.7016 77.0246H53.3008V63.5547H68.7016V77.0246Z" fill="#991220"/>
<path d="M34.05 77.0246H18.6492V63.5547H34.05V77.0246Z" fill="#991220"/>
<path d="M86.028 46.2356H70.6272V32.7656H86.028V46.2356Z" fill="#991220"/>
<path d="M68.6999 15.4153H53.2991V1.94531H68.6999V15.4153Z" fill="#991220"/>
<path d="M51.3767 46.2356H35.9758V32.7656H51.3767V46.2356Z" fill="#991220"/>
<path d="M114.903 61.621H97.5768V30.8193H80.2508V0.0234375H41.7487V30.8193H24.4228V61.621H7.09685V92.4227H1.32153V102.054C1.32153 105.238 3.91272 107.829 7.09685 107.829H10.9471V113.605C10.9471 116.789 13.5383 119.38 16.7224 119.38H35.9734C39.1576 119.38 41.7487 116.789 41.7487 113.605V107.829H80.2508V113.605C80.2508 116.789 82.842 119.38 86.0262 119.38H105.277C108.461 119.38 111.053 116.789 111.053 113.605V107.829H114.903C118.087 107.829 120.678 105.238 120.678 102.054V92.4227H114.903V61.621ZM111.053 65.4712V92.4227H80.2508V65.4712H97.5768H111.053ZM45.599 65.4712H59.0747H62.9249H76.4006V92.4227H45.599V65.4712ZM93.7266 34.6696V61.621H80.2508H76.4006H62.9249V34.6753H80.2508V34.6696H93.7266ZM45.599 3.87365H76.4006V30.8193H62.9249H59.0747H45.599V3.87365ZM28.273 34.6696H41.7487V34.6753H59.0747V61.621H45.599H41.7487H28.273V34.6696ZM10.9471 65.4712H24.4228H41.7487V92.4227H10.9471V65.4712ZM37.8985 113.605C37.8985 114.665 37.0342 115.53 35.9734 115.53H16.7224C15.6616 115.53 14.7973 114.665 14.7973 113.605V107.829H37.8985V113.605ZM107.202 113.605C107.202 114.665 106.338 115.53 105.277 115.53H86.0262C84.9654 115.53 84.1011 114.665 84.1011 113.605V107.829H107.202V113.605ZM116.828 96.2729V102.054C116.828 103.115 115.963 103.979 114.903 103.979H7.09685C6.03612 103.979 5.17174 103.115 5.17174 102.054V96.2729H7.09685H41.7487H45.599H76.4006H80.2508H114.903H116.828Z" fill="#1E1E1E"/>
<path d="M101.427 34.6768H105.278V13.5006H102.224L107.203 8.52232L112.181 13.5006H109.128V34.6768H112.978V17.3509H121.475L107.203 3.07812L92.9299 17.3509H101.427V34.6768Z" fill="#1E1E1E"/>
<path d="M9.02256 34.6768H12.8728V13.5006H9.81955L14.7979 8.52232L19.7762 13.5006H16.723V34.6768H20.5732V17.3509H29.0706L14.7979 3.07812L0.525146 17.3509H9.02256V34.6768Z" fill="#1E1E1E"/>
</svg>
