<svg width="109" height="120" viewBox="0 0 109 120" fill="none" xmlns="http://www.w3.org/2000/svg">
<path d="M108.32 11.1579V17.4203C108.32 18.4394 107.485 19.2621 106.479 19.2621H88.1699C87.151 19.2621 86.3281 18.4394 86.3281 17.4203V11.1579C86.3281 5.09204 91.2522 0.167969 97.3181 0.167969C103.384 0.167969 108.32 5.09204 108.32 11.1579Z" fill="#991220"/>
<path d="M79.0133 119.277H13.4665C12.4495 119.277 11.6248 118.452 11.6248 117.436V11.1582C11.6248 5.09774 16.5545 0.167969 22.6149 0.167969H97.3101C98.3271 0.167969 99.1519 0.992998 99.1519 2.00975C99.1519 3.0265 98.3269 3.85153 97.3101 3.85153C93.2811 3.85153 90.0037 7.12887 90.0037 11.1579V108.287C90.0035 114.348 85.0737 119.277 79.0133 119.277ZM15.3083 115.594H79.0133C83.0424 115.594 86.3197 112.316 86.3197 108.287V11.1582C86.3197 8.35586 87.3737 5.79559 89.1066 3.85177H22.6147C18.5857 3.85177 15.3083 7.12911 15.3083 11.1582V115.594Z" fill="#1E1E1E"/>
<path d="M80.8501 117.43C80.8501 118.449 80.0151 119.272 79.0083 119.272H11.6687C5.61489 119.272 0.678711 114.348 0.678711 108.282V102.02C0.678711 101 1.51371 100.178 2.52049 100.178H69.8481C70.8674 100.178 71.6899 101 71.6899 102.02V109.068C71.7513 109.19 71.7881 109.326 71.8125 109.473C72.3652 112.96 75.4472 115.588 79.0081 115.588C80.0151 115.588 80.8501 116.411 80.8501 117.43Z" fill="#991220"/>
<path d="M31.142 32.8253C29.3026 32.8253 27.5638 31.9343 26.4917 30.4414C25.898 29.6152 26.0864 28.4653 26.9127 27.8716C27.7389 27.2791 28.8902 27.4651 29.4824 28.2925C29.8708 28.8321 30.4752 29.1415 31.142 29.1415C32.2705 29.1415 33.1878 28.2159 33.1878 27.0791C33.1878 25.9506 32.2705 25.0332 31.142 25.0332C27.9823 25.0332 25.4111 22.4587 25.4111 19.2953C25.4111 16.1356 27.9821 13.5645 31.142 13.5645C32.9444 13.5645 34.6639 14.4315 35.7419 15.8825C36.3486 16.6992 36.1785 17.8538 35.3618 18.4593C34.5477 19.0684 33.3916 18.8971 32.7849 18.0792C32.3927 17.5503 31.7945 17.2483 31.142 17.2483C30.0135 17.2483 29.0949 18.1668 29.0949 19.2953C29.0949 20.4285 30.0135 21.3494 31.142 21.3494C34.3016 21.3494 36.8716 23.9192 36.8716 27.0791C36.8716 30.247 34.3018 32.8253 31.142 32.8253Z" fill="#1E1E1E"/>
<path d="M31.1411 34.7986C30.1241 34.7986 29.2993 33.9736 29.2993 32.9568V30.9902C29.2993 29.9732 30.1243 29.1484 31.1411 29.1484C32.1579 29.1484 32.9829 29.9735 32.9829 30.9902V32.9568C32.9831 33.9736 32.1581 34.7986 31.1411 34.7986Z" fill="#1E1E1E"/>
<path d="M31.1438 17.2979C30.1268 17.2979 29.302 16.4729 29.302 15.4561V13.4824C29.302 12.4654 30.127 11.6406 31.1438 11.6406C32.1605 11.6406 32.9856 12.4657 32.9856 13.4824V15.4561C32.9858 16.4729 32.1608 17.2979 31.1438 17.2979Z" fill="#1E1E1E"/>
<path d="M63.2952 20.8476H43.5068C42.4898 20.8476 41.665 20.0226 41.665 19.0058C41.665 17.9889 42.4901 17.1641 43.5068 17.1641H63.2952C64.3122 17.1641 65.137 17.9891 65.137 19.0058C65.137 20.0226 64.3119 20.8476 63.2952 20.8476Z" fill="#1E1E1E"/>
<path d="M74.3765 29.2929H43.5068C42.4898 29.2929 41.665 28.4679 41.665 27.4512C41.665 26.4342 42.4901 25.6094 43.5068 25.6094H74.3765C75.3935 25.6094 76.2183 26.4344 76.2183 27.4512C76.2185 28.4679 75.3935 29.2929 74.3765 29.2929Z" fill="#1E1E1E"/>
<path d="M31.1422 61.6191C29.3016 61.6191 27.5628 60.7281 26.492 59.2363C25.8983 58.4101 26.0867 57.2602 26.9129 56.6665C27.7391 56.074 28.8904 56.2601 29.4827 57.0875C29.8699 57.6259 30.4754 57.9353 31.1422 57.9353C32.2707 57.9353 33.1881 57.0108 33.1881 55.874C33.1881 54.7455 32.2707 53.827 31.1422 53.827C27.9826 53.827 25.4114 51.2525 25.4114 48.089C25.4114 44.9294 27.9823 42.3594 31.1422 42.3594C32.9446 42.3594 34.6642 43.2252 35.7422 44.6762C36.3489 45.4917 36.1788 46.6464 35.362 47.2531C34.5479 47.8574 33.3931 47.6909 32.7852 46.873C32.3929 46.3452 31.7947 46.0432 31.1422 46.0432C30.0137 46.0432 29.0952 46.9605 29.0952 48.089C29.0952 49.2223 30.0137 50.1432 31.1422 50.1432C34.3019 50.1432 36.8719 52.7141 36.8719 55.874C36.8719 59.0422 34.3021 61.6191 31.1422 61.6191Z" fill="#1E1E1E"/>
<path d="M31.1411 63.6611C30.1241 63.6611 29.2993 62.8361 29.2993 61.8193V59.8516C29.2993 58.8346 30.1243 58.0098 31.1411 58.0098C32.1579 58.0098 32.9829 58.8348 32.9829 59.8516V61.8193C32.9831 62.8363 32.1581 63.6611 31.1411 63.6611Z" fill="#1E1E1E"/>
<path d="M31.1411 46.0862C30.1241 46.0862 29.2993 45.2612 29.2993 44.2444V42.2695C29.2993 41.2525 30.1243 40.4277 31.1411 40.4277C32.1579 40.4277 32.9829 41.2528 32.9829 42.2695V44.2444C32.9831 45.2612 32.1581 46.0862 31.1411 46.0862Z" fill="#1E1E1E"/>
<path d="M63.2952 49.6699H43.5068C42.4898 49.6699 41.665 48.8449 41.665 47.8281C41.665 46.8114 42.4901 45.9863 43.5068 45.9863H63.2952C64.3122 45.9863 65.137 46.8114 65.137 47.8281C65.137 48.8449 64.3119 49.6699 63.2952 49.6699Z" fill="#1E1E1E"/>
<path d="M74.3765 58.0664H43.5068C42.4898 58.0664 41.665 57.2413 41.665 56.2246C41.665 55.2076 42.4901 54.3828 43.5068 54.3828H74.3765C75.3935 54.3828 76.2183 55.2078 76.2183 56.2246C76.2185 57.2413 75.3935 58.0664 74.3765 58.0664Z" fill="#1E1E1E"/>
<path d="M31.142 90.4687C29.3026 90.4687 27.5649 89.5789 26.4917 88.0871C25.898 87.2609 26.0853 86.1096 26.9115 85.5161C27.7365 84.9251 28.889 85.1097 29.4824 85.9359C29.8708 86.4755 30.4752 86.7849 31.142 86.7849C32.2705 86.7849 33.1878 85.8604 33.1878 84.7236C33.1878 83.5951 32.2705 82.6766 31.142 82.6766C27.9823 82.6766 25.4111 80.1021 25.4111 76.9386C25.4111 73.779 27.9821 71.209 31.142 71.209C32.9455 71.209 34.6651 72.0748 35.7419 73.5258C36.3486 74.3425 36.1785 75.4971 35.3618 76.1027C34.5477 76.7118 33.3916 76.5405 32.7849 75.7226C32.3927 75.1948 31.7945 74.8928 31.142 74.8928C30.0135 74.8928 29.0949 75.8101 29.0949 76.9386C29.0949 78.0719 30.0135 78.9928 31.142 78.9928C34.3016 78.9928 36.8716 81.5637 36.8716 84.7236C36.8716 87.8918 34.3018 90.4687 31.142 90.4687Z" fill="#1E1E1E"/>
<path d="M31.1411 92.4568C30.1241 92.4568 29.2993 91.6318 29.2993 90.615V88.6484C29.2993 87.6314 30.1243 86.8066 31.1411 86.8066C32.1579 86.8066 32.9829 87.6317 32.9829 88.6484V90.615C32.9831 91.6318 32.1581 92.4568 31.1411 92.4568Z" fill="#1E1E1E"/>
<path d="M31.1409 74.8948C30.1239 74.8948 29.2991 74.0698 29.2991 73.053V71.0781C29.2991 70.0611 30.1241 69.2363 31.1409 69.2363C32.1576 69.2363 32.9826 70.0614 32.9826 71.0781V73.053C32.9829 74.0698 32.1578 74.8948 31.1409 74.8948Z" fill="#1E1E1E"/>
<path d="M63.2957 78.4297H43.5073C42.4903 78.4297 41.6655 77.6046 41.6655 76.5879C41.6655 75.5709 42.4906 74.7461 43.5073 74.7461H63.2957C64.3127 74.7461 65.1375 75.5711 65.1375 76.5879C65.1375 77.6046 64.3124 78.4297 63.2957 78.4297Z" fill="#1E1E1E"/>
<path d="M74.3765 86.83H43.5068C42.4898 86.83 41.665 86.005 41.665 84.9883C41.665 83.9715 42.4901 83.1465 43.5068 83.1465H74.3765C75.3935 83.1465 76.2183 83.9715 76.2183 84.9883C76.2183 86.005 75.3935 86.83 74.3765 86.83Z" fill="#1E1E1E"/>
</svg>
