<svg width="120" height="120" viewBox="0 0 120 120" fill="none" xmlns="http://www.w3.org/2000/svg">
<path d="M67.6504 119.672C60.2682 119.672 54.2595 113.664 54.2595 106.281C54.2595 98.8993 60.2682 92.8906 67.6504 92.8906C75.0326 92.8906 81.0412 98.8993 81.0412 106.281C81.0412 113.664 75.0326 119.672 67.6504 119.672ZM67.6504 102.456C65.5404 102.456 63.8244 104.171 63.8244 106.281C63.8244 108.392 65.5404 110.107 67.6504 110.107C69.7604 110.107 71.4763 108.392 71.4763 106.281C71.4763 104.171 69.7604 102.456 67.6504 102.456Z" fill="#991220"/>
<path d="M25.5644 119.672C18.1823 119.672 12.1736 113.664 12.1736 106.281C12.1736 98.8993 18.1823 92.8906 25.5644 92.8906C32.9466 92.8906 38.9553 98.8993 38.9553 106.281C38.9553 113.664 32.9466 119.672 25.5644 119.672ZM25.5644 102.456C23.4544 102.456 21.7385 104.171 21.7385 106.281C21.7385 108.392 23.4544 110.107 25.5644 110.107C27.6745 110.107 29.3904 108.392 29.3904 106.281C29.3904 104.171 27.6745 102.456 25.5644 102.456Z" fill="#991220"/>
<path d="M90.6072 119.672C83.225 119.672 77.2163 113.664 77.2163 106.281C77.2163 98.8993 83.225 92.8906 90.6072 92.8906C97.9894 92.8906 103.998 98.8993 103.998 106.281C103.998 113.664 97.9894 119.672 90.6072 119.672ZM90.6072 102.456C88.4972 102.456 86.7812 104.171 86.7812 106.281C86.7812 108.392 88.4972 110.107 90.6072 110.107C92.7172 110.107 94.4331 108.392 94.4331 106.281C94.4331 104.171 92.7172 102.456 90.6072 102.456Z" fill="#991220"/>
<path d="M38.8036 108.189C38.6085 109.54 38.2144 110.826 37.6462 112.015H55.5709C55.0027 110.826 54.6086 109.54 54.4135 108.189H38.8036Z" fill="#1E1E1E"/>
<path d="M96.3451 54.6328H58.0855C55.9755 54.6328 54.2595 56.3488 54.2595 58.4588V85.2405C54.2595 87.3505 55.9755 89.0665 58.0855 89.0665H96.3451C98.4551 89.0665 100.171 87.3505 100.171 85.2405V58.4588C100.171 56.3488 98.4551 54.6328 96.3451 54.6328ZM73.3893 58.4588H81.0412V66.1107H73.3893V58.4588ZM58.0855 85.2405V58.4588H69.5634V66.1107C69.5634 68.2207 71.2793 69.9367 73.3893 69.9367H81.0412C83.1513 69.9367 84.8672 68.2207 84.8672 66.1107V58.4588H96.3451L96.3489 85.2405H58.0855Z" fill="#1E1E1E"/>
<path d="M67.6516 77.5801H71.4776V81.406H67.6516V77.5801Z" fill="#1E1E1E"/>
<path d="M75.301 77.5801H79.127V81.406H75.301V77.5801Z" fill="#1E1E1E"/>
<path d="M82.9563 77.5801H86.7823V81.406H82.9563V77.5801Z" fill="#1E1E1E"/>
<path d="M67.6508 100.541C64.4867 100.541 61.9119 103.116 61.9119 106.28C61.9119 109.444 64.4867 112.019 67.6508 112.019C70.8149 112.019 73.3897 109.444 73.3897 106.28C73.3897 103.116 70.8149 100.541 67.6508 100.541ZM67.6508 108.193C66.5948 108.193 65.7378 107.336 65.7378 106.28C65.7378 105.224 66.5948 104.367 67.6508 104.367C68.7068 104.367 69.5638 105.224 69.5638 106.28C69.5638 107.336 68.7068 108.193 67.6508 108.193Z" fill="white"/>
<path d="M25.5646 100.541C22.4006 100.541 19.8257 103.116 19.8257 106.28C19.8257 109.444 22.4006 112.019 25.5646 112.019C28.7287 112.019 31.3036 109.444 31.3036 106.28C31.3036 103.116 28.7287 100.541 25.5646 100.541ZM25.5646 108.193C24.5087 108.193 23.6516 107.336 23.6516 106.28C23.6516 105.224 24.5087 104.367 25.5646 104.367C26.6206 104.367 27.4776 105.224 27.4776 106.28C27.4776 107.336 26.6206 108.193 25.5646 108.193Z" fill="white"/>
<path d="M90.6061 100.541C87.4421 100.541 84.8672 103.116 84.8672 106.28C84.8672 109.444 87.4421 112.019 90.6061 112.019C93.7702 112.019 96.3451 109.444 96.3451 106.28C96.3451 103.116 93.7702 100.541 90.6061 100.541ZM90.6061 108.193C89.5502 108.193 88.6931 107.336 88.6931 106.28C88.6931 105.224 89.5502 104.367 90.6061 104.367C91.6621 104.367 92.5191 105.224 92.5191 106.28C92.5191 107.336 91.6621 108.193 90.6061 108.193Z" fill="white"/>
<path d="M29.8093 73.7617H18.6605C16.2157 73.7617 14.0923 75.4184 13.5012 77.7885L12.3324 82.4562C12.2252 82.8771 12.1736 83.3113 12.1736 83.7456C12.1736 86.6782 14.561 89.0656 17.4936 89.0656H29.8093C32.7419 89.0656 35.1293 86.6782 35.1293 83.7456V79.0817C35.1293 76.1491 32.7419 73.7617 29.8093 73.7617ZM31.3034 83.7456C31.3034 84.5701 30.6319 85.2396 29.8093 85.2396H17.4936C16.671 85.2396 15.9995 84.5681 15.9995 83.7456C15.9995 83.6231 16.0148 83.4988 16.0416 83.3859L17.2085 78.7202C17.3769 78.0545 17.9699 77.5896 18.6586 77.5896H29.8074C30.6319 77.5896 31.3015 78.2611 31.3015 79.0836V83.7456H31.3034Z" fill="#1E1E1E"/>
<path d="M111.986 42.5613C112.707 42.9458 113.518 43.1505 114.331 43.1505C117.073 43.1505 119.303 40.92 119.303 38.1787V35.4201C119.303 33.5779 118.295 31.8983 116.671 31.0337L59.9989 0.808594L3.33071 31.0337C1.70467 31.8983 0.696533 33.5779 0.696533 35.4201V38.1787C0.696533 40.92 2.92707 43.1505 5.66837 43.1505C6.48139 43.1505 7.29249 42.9477 8.01751 42.5613L16.0004 38.2839V66.1063H14.8641C11.2504 66.1063 8.18011 68.5702 7.39388 72.0996L0.878266 101.429C0.757749 101.977 0.696533 102.531 0.696533 103.082V108.192C0.696533 110.302 2.41248 112.018 4.52249 112.018H13.4848C12.9167 110.828 12.5226 109.542 12.3275 108.192H4.52249V104.366H12.3275C12.5226 103.015 12.9167 101.73 13.4848 100.54H4.995L11.1299 72.9299C11.5221 71.1642 13.0582 69.9322 14.8641 69.9322H38.9561V100.54H37.6457C38.2139 101.73 38.608 103.015 38.8031 104.366H54.413C54.6081 103.015 55.0022 101.73 55.5704 100.54H42.7821V50.8024H111.649V100.54H102.687C103.255 101.73 103.649 103.015 103.844 104.366H115.475V108.192H103.844C103.649 109.542 103.255 110.828 102.687 112.018H115.475C117.585 112.018 119.301 110.302 119.301 108.192V104.366C119.301 102.256 117.585 100.54 115.475 100.54V50.8024C115.475 48.6924 113.759 46.9765 111.649 46.9765H103.997V38.2839L111.986 42.5613ZM6.21166 39.1887C5.47324 39.579 4.52249 38.9974 4.52249 38.1787V35.4201C4.52249 34.9955 4.75396 34.609 5.12891 34.412L59.9989 5.14723L114.871 34.412C115.244 34.609 115.475 34.9955 115.475 35.4201V38.1787C115.475 38.9974 114.513 39.5809 113.79 39.1868L59.9989 10.3716L6.21166 39.1887ZM20.251 66.1063C22.0645 59.4338 28.1574 54.6284 35.243 54.6284H38.9561V66.1063H20.251ZM38.9561 50.8024V35.4986H81.0417V46.9765H42.7821C40.6721 46.9765 38.9561 48.6924 38.9561 50.8024ZM100.172 46.9765H84.8677V35.4986C84.8677 33.3886 83.1517 31.6726 81.0417 31.6726H38.9561C36.8461 31.6726 35.1302 33.3886 35.1302 35.4986V50.8082C28.9398 50.8445 23.3692 53.8249 19.8263 58.4773V36.2351L59.9989 14.714L100.172 36.2332V46.9765Z" fill="#1E1E1E"/>
</svg>
