<svg width="21" height="21" viewBox="0 0 21 21" fill="none" xmlns="http://www.w3.org/2000/svg">
<g clip-path="url(#clip0_475_4897)">
<path d="M18.2824 16.0298C17.4262 15.5073 16.8943 14.5586 16.8943 13.5555V8.28734C16.8943 4.55984 13.8618 1.52734 10.1343 1.52734C6.40682 1.52734 3.37432 4.55984 3.37432 8.28734V13.5555C3.37432 14.5586 2.84244 15.5073 1.98619 16.0298C1.77119 16.1611 1.66994 16.4198 1.73807 16.6623C1.80619 16.9048 2.02744 17.0723 2.27932 17.0723H17.9887C18.2406 17.0723 18.4618 16.9048 18.5299 16.6623C18.5987 16.4198 18.4968 16.1611 18.2824 16.0298ZM3.70744 15.9473C4.21182 15.263 4.49932 14.4236 4.49932 13.5555V8.28734C4.49932 5.17984 7.02682 2.65234 10.1343 2.65234C13.2418 2.65234 15.7693 5.17984 15.7693 8.28734V13.5555C15.7693 14.4242 16.0562 15.263 16.5612 15.9473H3.70744Z" fill="#1E1E1E"/>
<path d="M11.4906 18.4915C11.2425 18.8165 10.7106 19.0265 10.1343 19.0265C9.55809 19.0265 9.02621 18.8165 8.77809 18.4915C8.58871 18.244 8.23559 18.1965 7.98996 18.3852C7.74246 18.5734 7.69496 18.9265 7.88371 19.1734C8.34309 19.7765 9.20559 20.1515 10.1343 20.1515C11.0631 20.1515 11.9256 19.7765 12.3856 19.1734C12.5737 18.9265 12.5262 18.5734 12.2793 18.3852C12.0325 18.1965 11.6793 18.2434 11.4906 18.4915Z" fill="#991220"/>
</g>
<defs>
<clipPath id="clip0_475_4897">
<rect width="20" height="20" fill="white" transform="translate(0.134277 0.839844)"/>
</clipPath>
</defs>
</svg>
