<svg width="41" height="36" viewBox="0 0 41 36" fill="none" xmlns="http://www.w3.org/2000/svg">
<g clip-path="url(#clip0_1089_1675)">
<path d="M40.9124 35.0234H0.912354V35.8372H40.9124V35.0234Z" fill="#F8CE84"/>
<path d="M40.9124 31.0234H0.912354V31.8372H40.9124V31.0234Z" fill="#F8CE84"/>
<path d="M23.364 31.8359H18.4604V35.0244H23.364V31.8359Z" fill="#F09E5B"/>
<path d="M6.18404 31.8359H1.28052V35.0244H6.18404V31.8359Z" fill="#F09E5B"/>
<path d="M40.5444 31.8359H35.6409V35.0244H40.5444V31.8359Z" fill="#F09E5B"/>
<path d="M38.8164 0.492188H2.52075V31.0253H38.8164V0.492188Z" fill="#FFAD6E"/>
<path d="M23.3644 23.5859H17.9729V31.026H23.3644V23.5859Z" fill="#FFC59E"/>
<path d="M23.3641 0.492188H17.9727V8.49483H23.3641V0.492188Z" fill="#FFC59E"/>
<path fill-rule="evenodd" clip-rule="evenodd" d="M6.55568 29.4496C6.55568 29.4496 6.55531 29.4488 6.55494 29.4488C6.55604 29.451 6.55641 29.4525 6.55568 29.4496ZM6.35049 29.861H6.38248C6.42624 29.8588 6.46191 29.8474 6.48985 29.8213L6.54281 29.7426C6.55273 29.7294 6.56487 29.7117 6.57075 29.6948C6.5759 29.6805 6.577 29.6647 6.56965 29.6489L6.49647 29.5077L6.48581 29.4867L6.50567 29.4738L6.54023 29.4514L6.24643 29.3955L6.15266 29.6709L6.18612 29.6492L6.20855 29.6345L6.22289 29.657L6.35122 29.861H6.35049ZM5.98314 29.861H6.28871L6.192 29.7073L6.14972 29.7353L6.14677 29.7375L6.14383 29.7386C6.13832 29.7404 6.1317 29.7415 6.12508 29.7408C6.11625 29.7397 6.1078 29.736 6.10118 29.7279C6.09566 29.7217 6.09235 29.7128 6.09198 29.7014C6.09198 29.6919 6.09382 29.6794 6.09971 29.6632L6.20377 29.3576L6.21112 29.3359L6.23356 29.3403L6.55053 29.4007C6.5873 29.4084 6.60348 29.4227 6.60716 29.4393C6.61157 29.4591 6.59943 29.4738 6.58399 29.4856L6.58215 29.4867L6.55384 29.5051L6.61635 29.6257C6.63069 29.6559 6.62922 29.686 6.62003 29.7125C6.61157 29.7364 6.5976 29.757 6.58509 29.7735L6.3424 30.16C6.30526 30.2269 6.25966 30.2482 6.20598 30.246H5.92725V29.9239C5.92761 29.8739 5.94673 29.8636 5.98314 29.8618V29.861Z" fill="#85583C"/>
<path d="M5.39776 29.173C5.39776 29.173 5.39739 29.1737 5.39776 29.1741C5.39923 29.1723 5.39996 29.1708 5.39776 29.173ZM5.90521 29.1388L5.8107 29.3399L5.85703 29.3605L5.86034 29.362L5.86255 29.3638C5.86733 29.3675 5.87138 29.3723 5.87432 29.3786C5.87836 29.3866 5.87947 29.3958 5.87652 29.4058C5.87395 29.4139 5.8688 29.4216 5.85924 29.4278C5.85115 29.4333 5.83975 29.4381 5.82284 29.4418L5.50954 29.5194L5.48748 29.5249L5.47902 29.5039L5.35841 29.2046C5.34517 29.1693 5.34848 29.148 5.36025 29.1362C5.37459 29.1219 5.39371 29.1241 5.4121 29.1307L5.41393 29.1314L5.44446 29.1454L5.51212 29.0274C5.52977 28.9991 5.55587 28.984 5.58308 28.9774C5.60772 28.9715 5.63273 28.9722 5.65332 28.9737H6.07987L5.88351 29.0307L5.65075 29.0259H5.64927C5.63273 29.0244 5.61287 29.0237 5.59522 29.0281C5.58014 29.0318 5.56617 29.0391 5.55698 29.0539L5.47755 29.1917L5.46578 29.2123L5.44409 29.2024L5.40658 29.1855L5.51837 29.4631L5.80077 29.3933L5.76437 29.3771L5.7401 29.366L5.7515 29.3421L5.8574 29.1171L5.90484 29.1392L5.90521 29.1388Z" fill="#85583C"/>
<path fill-rule="evenodd" clip-rule="evenodd" d="M6.05342 29.4323L5.83794 29.0962C5.81036 29.0576 5.7791 29.033 5.73755 29.0256L5.87986 28.9789L6.11005 28.9694C6.18653 28.9642 6.22956 28.9914 6.25677 29.0378L6.40716 29.2724L6.13616 29.4463C6.09387 29.4728 6.07475 29.4625 6.05379 29.4331L6.05342 29.4323Z" fill="#85583C"/>
<path fill-rule="evenodd" clip-rule="evenodd" d="M5.71466 30.3051C5.71466 30.3051 5.71576 30.3051 5.71576 30.3048C5.71319 30.3048 5.71172 30.3044 5.71466 30.3051ZM5.46388 29.9194L5.4477 29.947C5.42747 29.986 5.41901 30.0224 5.42784 30.0599L5.46866 30.1452L5.46939 30.1467C5.47564 30.1621 5.4841 30.1801 5.49587 30.1937C5.5058 30.2055 5.51867 30.2147 5.53595 30.2162L5.6948 30.2246L5.71834 30.2257L5.71944 30.2493L5.72128 30.2904L5.91838 30.0654L5.72826 29.8451L5.7301 29.8848L5.73157 29.9113L5.7051 29.9121L5.46388 29.919V29.9194ZM5.65031 29.6028L5.49513 29.8665L5.67678 29.8609L5.67421 29.8102V29.8065L5.67458 29.8036C5.67568 29.7977 5.67826 29.7918 5.6823 29.7863C5.68745 29.7793 5.69517 29.7738 5.70547 29.7723C5.71356 29.7709 5.72275 29.7723 5.73268 29.7778C5.74113 29.7822 5.7507 29.7907 5.76173 29.8039L5.97243 30.0485L5.98714 30.0658L5.97206 30.0827L5.75952 30.3254C5.73415 30.3533 5.71356 30.3599 5.69738 30.3544C5.67826 30.3482 5.67164 30.3302 5.66906 30.3107V30.3085L5.66759 30.275L5.5319 30.2676C5.49844 30.2647 5.47344 30.2481 5.45542 30.2268C5.43887 30.2073 5.42857 30.1849 5.42048 30.1658L5.21052 29.7606C5.17191 29.6947 5.17632 29.6444 5.20574 29.5995L5.34694 29.3594L5.62457 29.5226C5.66722 29.5484 5.66686 29.5701 5.64994 29.6021L5.65031 29.6028Z" fill="#85583C"/>
<path d="M6.64821 28.6953H5.163C5.06077 28.6953 4.97656 28.7828 4.97656 28.8887V30.4343C4.97656 30.5409 5.06077 30.6273 5.163 30.6273H6.64821C6.75007 30.6273 6.83354 30.5405 6.83354 30.4343V28.8887C6.83354 28.7828 6.75007 28.6953 6.64821 28.6953ZM6.72249 30.4092C6.72249 30.4651 6.67799 30.5115 6.62431 30.5115H5.1869C5.13247 30.5115 5.08872 30.4648 5.08872 30.4092V28.9137C5.08872 28.8571 5.13247 28.8115 5.1869 28.8115H6.62431C6.67763 28.8115 6.72249 28.8571 6.72249 28.9137V30.4092Z" fill="#85583C"/>
<path d="M4.45527 30.4036H3.48818C3.46942 30.4036 3.45435 30.3885 3.45435 30.3698C3.45435 30.351 3.46942 30.3359 3.48818 30.3359H4.45527C4.47403 30.3359 4.4891 30.351 4.4891 30.3698C4.4891 30.3885 4.47403 30.4036 4.45527 30.4036Z" fill="#85583C"/>
<path fill-rule="evenodd" clip-rule="evenodd" d="M3.82364 29.1815V30.1912H3.61919V29.1807L3.5188 29.1804L3.72546 28.9219L3.93101 29.1819L3.82364 29.1815Z" fill="#85583C"/>
<path fill-rule="evenodd" clip-rule="evenodd" d="M4.32571 29.1815V30.1912H4.12089V29.1807L4.02051 29.1804L4.22753 28.9219L4.43309 29.1819L4.32571 29.1815Z" fill="#85583C"/>
<path d="M4.71486 28.6953H3.22965C3.12742 28.6953 3.04321 28.7828 3.04321 28.8887V30.4343C3.04321 30.5409 3.12742 30.6273 3.22965 30.6273H4.71486C4.81672 30.6273 4.90019 30.5405 4.90019 30.4343V28.8887C4.90019 28.7828 4.81672 28.6953 4.71486 28.6953ZM4.78914 30.4092C4.78914 30.4651 4.74464 30.5115 4.69096 30.5115H3.25355C3.19913 30.5115 3.15537 30.4648 3.15537 30.4092V28.9137C3.15537 28.8571 3.19913 28.8115 3.25355 28.8115H4.69096C4.74428 28.8115 4.78914 28.8571 4.78914 28.9137V30.4092Z" fill="#85583C"/>
<path d="M8.5818 28.6953H7.09659C6.99436 28.6953 6.91016 28.7828 6.91016 28.8887V30.4343C6.91016 30.5409 6.99436 30.6273 7.09659 30.6273H8.5818C8.68366 30.6273 8.76713 30.5405 8.76713 30.4343V28.8887C8.76713 28.7828 8.68366 28.6953 8.5818 28.6953ZM8.65608 30.4092C8.65608 30.4651 8.61159 30.5115 8.5579 30.5115H7.12049C7.06607 30.5115 7.02231 30.4648 7.02231 30.4092V28.9137C7.02231 28.8571 7.06607 28.8115 7.12049 28.8115H8.5579C8.61122 28.8115 8.65608 28.8571 8.65608 28.9137V30.4092Z" fill="#85583C"/>
<path fill-rule="evenodd" clip-rule="evenodd" d="M7.83019 29.1953C7.51322 29.1953 7.24736 29.4156 7.17749 29.7112C7.20176 29.687 7.24405 29.6708 7.29259 29.6708C7.36392 29.6708 7.42276 29.7061 7.42827 29.7509C7.43526 29.7068 7.49336 29.6722 7.56396 29.6722C7.63456 29.6722 7.69413 29.7075 7.69965 29.7524C7.70627 29.7083 7.76437 29.6737 7.83534 29.6737C7.90631 29.6737 7.96551 29.709 7.97103 29.7539C7.97764 29.7098 8.03574 29.6752 8.10671 29.6752C8.17768 29.6752 8.23799 29.7112 8.24277 29.7568C8.24718 29.7112 8.30638 29.6752 8.37882 29.6752C8.42001 29.6752 8.45715 29.687 8.48215 29.7057C8.41045 29.4126 8.14606 29.1953 7.83092 29.1953H7.83019Z" fill="#85583C"/>
<path d="M7.87038 29.1637C7.87038 29.1464 7.8564 29.1328 7.83949 29.1328C7.82257 29.1328 7.8086 29.1468 7.8086 29.1637L7.80713 30.2897C7.80713 30.3069 7.8211 30.3205 7.83802 30.3205C7.85493 30.3205 7.86891 30.3066 7.86891 30.2897L7.87038 29.1637Z" fill="#85583C"/>
<path d="M7.63942 30.2132C7.65155 30.2011 7.65192 30.1816 7.63942 30.1694C7.62728 30.1573 7.60779 30.1569 7.59529 30.1691C7.56367 30.2003 7.54749 30.2411 7.54712 30.2823C7.54712 30.3235 7.5622 30.3647 7.59308 30.3963C7.62397 30.4279 7.66516 30.4441 7.70634 30.4445C7.74753 30.4445 7.78871 30.4294 7.82033 30.3985C7.83578 30.3835 7.84791 30.3651 7.85637 30.3452C7.86446 30.3254 7.86887 30.304 7.8685 30.2823C7.8685 30.2651 7.85453 30.2514 7.83725 30.2514C7.81997 30.2514 7.80636 30.2654 7.80636 30.2827C7.80636 30.2959 7.80379 30.3092 7.79864 30.3213C7.79349 30.3334 7.78614 30.3445 7.77658 30.3537C7.75709 30.3724 7.73171 30.382 7.70671 30.382C7.6817 30.382 7.65633 30.3721 7.63721 30.3526C7.61809 30.3331 7.60853 30.3077 7.6089 30.2827C7.6089 30.2577 7.61882 30.2323 7.63831 30.2132H7.63942Z" fill="#85583C"/>
</g>
<defs>
<clipPath id="clip0_1089_1675">
<rect width="40" height="35.3491" fill="white" transform="translate(0.912354 0.492188)"/>
</clipPath>
</defs>
</svg>
