<svg width="21" height="21" viewBox="0 0 21 21" fill="none" xmlns="http://www.w3.org/2000/svg">
<g clip-path="url(#clip0_819_2077)">
<path d="M4.12695 0.998047H7.25195V2.24805H4.12695V0.998047Z" fill="#991220"/>
<path d="M4.12695 5.99805H7.25195V7.24805H4.12695V5.99805Z" fill="#991220"/>
<path d="M13.502 12.873H16.627V14.123H13.502V12.873Z" fill="#991220"/>
<path d="M15.377 17.248H18.502V18.8105H15.377V17.248Z" fill="#991220"/>
<path d="M12.877 0.998047H16.002V2.24805H12.877V0.998047Z" fill="#991220"/>
<path d="M12.877 5.99805H16.002V7.24805H12.877V5.99805Z" fill="#991220"/>
<path d="M10.377 20.0605H19.752V12.5605H10.377V20.0605ZM11.002 13.1855H19.127V19.4355H11.002V13.1855Z" fill="#1E1E1E"/>
<path d="M17.877 18.1855H18.502V18.8105H17.877V18.1855Z" fill="#1E1E1E"/>
<path d="M16.627 18.1855H17.252V18.8105H16.627V18.1855Z" fill="#1E1E1E"/>
<path d="M15.377 18.1855H16.002V18.8105H15.377V18.1855Z" fill="#1E1E1E"/>
<path d="M19.127 6.93555H18.502V0.685547H10.377V6.93555H9.75195V0.685547H1.62695V6.93555H1.00195C0.657266 6.93555 0.376953 7.21586 0.376953 7.56055V8.18555C0.376953 8.53023 0.657266 8.81055 1.00195 8.81055H2.64664C2.59477 9.01086 2.56445 9.2193 2.56445 9.43555C2.56445 10.3043 3.01039 11.0702 3.68477 11.5184C1.77133 12.109 0.376953 13.8934 0.376953 15.998C0.376953 16.6371 0.763516 17.1862 1.31445 17.428V20.0605H9.75195V15.998C9.75195 13.8934 8.35758 12.109 6.44414 11.5184C7.11852 11.0702 7.56445 10.3043 7.56445 9.43555C7.56445 9.2193 7.53414 9.01086 7.48227 8.81055H19.127C19.4716 8.81055 19.752 8.53023 19.752 8.18555V7.56055C19.752 7.21586 19.4716 6.93555 19.127 6.93555ZM11.002 1.31055H17.877V6.93555H11.002V1.31055ZM2.25195 1.31055H9.12695V6.93555H2.25195V1.31055ZM1.00195 8.18555V7.56055H3.41633C3.2132 7.7393 3.03945 7.95023 2.90258 8.18555H1.00195ZM1.93945 17.5605H3.18945V19.4355H1.93945V17.5605ZM4.9082 15.373H3.81445V13.8105H6.00195V15.373H7.56445V19.4355H3.81445V17.5605H4.9082C5.51133 17.5605 6.00195 17.0699 6.00195 16.4668C6.00195 15.8637 5.51133 15.373 4.9082 15.373ZM6.62695 14.2524L7.12258 14.748H6.62695V14.2524ZM9.12695 15.998V19.4355H8.18945V14.9312L6.44383 13.1855H3.18945V15.373H2.25195V15.998H4.9082C5.16664 15.998 5.37695 16.2084 5.37695 16.4668C5.37695 16.7252 5.16664 16.9355 4.9082 16.9355H1.93945C1.42258 16.9355 1.00195 16.5149 1.00195 15.998C1.00195 13.758 2.82445 11.9355 5.06445 11.9355C7.30445 11.9355 9.12695 13.758 9.12695 15.998ZM5.06445 11.3105C4.03039 11.3105 3.18945 10.4696 3.18945 9.43555C3.18945 8.40148 4.03039 7.56055 5.06445 7.56055C6.09852 7.56055 6.93945 8.40148 6.93945 9.43555C6.93945 10.4696 6.09852 11.3105 5.06445 11.3105ZM19.127 8.18555H7.22633C7.08977 7.95023 6.9157 7.7393 6.71258 7.56055H19.127V8.18555Z" fill="#1E1E1E"/>
<path d="M15.377 16.9355H18.502V17.5605H15.377V16.9355Z" fill="#1E1E1E"/>
</g>
<defs>
<clipPath id="clip0_819_2077">
<rect width="20" height="20" fill="white" transform="translate(0.0644531 0.373047)"/>
</clipPath>
</defs>
</svg>
