<svg width="16" height="21" viewBox="0 0 16 21" fill="none" xmlns="http://www.w3.org/2000/svg">
<path d="M12.302 0.496582H3.69798C2.19932 0.496582 0.979858 1.71605 0.979858 3.2147V17.7785C0.979858 19.2771 2.19932 20.4966 3.69798 20.4966H12.302C13.8007 20.4966 15.0201 19.2771 15.0201 17.7785V3.2147C15.0201 1.71605 13.8007 0.496582 12.302 0.496582ZM9.82482 1.70464C9.78858 1.80061 9.75838 1.90061 9.73825 2.00396L9.64429 2.48182C9.58389 2.78987 9.31207 3.01336 8.99798 3.01336H7.00201C6.68791 3.01336 6.4161 2.78987 6.3557 2.48182L6.26174 2.00396C6.2416 1.90061 6.2114 1.80061 6.17516 1.70464H9.82482ZM13.8121 17.7785C13.8121 18.6113 13.1349 19.2885 12.302 19.2885H3.69798C2.86509 19.2885 2.18791 18.6113 2.18791 17.7785V3.2147C2.18791 2.38182 2.86509 1.70464 3.69798 1.70464H4.43019C4.74429 1.70464 5.0161 1.92813 5.0765 2.23618L5.17046 2.71403C5.34227 3.58719 6.11274 4.22141 7.00201 4.22141H8.99798C9.88791 4.22141 10.6584 3.58786 10.8295 2.71403L10.9235 2.23618C10.9839 1.92813 11.2557 1.70464 11.5698 1.70464H12.302C13.1349 1.70464 13.8121 2.38182 13.8121 3.2147V17.7785Z" fill="#1E1E1E"/>
<path d="M9.00661 16.604H6.99319C6.65963 16.604 6.38916 16.8745 6.38916 17.208C6.38916 17.5416 6.65963 17.8121 6.99319 17.8121H9.00661C9.34017 17.8121 9.61064 17.5416 9.61064 17.208C9.61064 16.8745 9.34017 16.604 9.00661 16.604Z" fill="#991220"/>
</svg>
