<svg width="18" height="20" viewBox="0 0 18 20" fill="none" xmlns="http://www.w3.org/2000/svg">
<path d="M17.4959 2.29215V3.2911C17.4959 3.45367 17.3627 3.5849 17.2021 3.5849H14.2816C14.1191 3.5849 13.9878 3.45367 13.9878 3.2911V2.29215C13.9878 1.32454 14.7733 0.539062 15.7409 0.539062C16.7085 0.539062 17.4959 1.32454 17.4959 2.29215Z" fill="#991220"/>
<path d="M12.8209 19.5391H2.36509C2.20286 19.5391 2.07129 19.4075 2.07129 19.2453V2.29219C2.07129 1.32545 2.85767 0.539062 3.82441 0.539062H15.7396C15.9018 0.539062 16.0334 0.670669 16.0334 0.832859C16.0334 0.995048 15.9018 1.12665 15.7396 1.12665C15.0969 1.12665 14.5741 1.64945 14.5741 2.29215V17.7859C14.5741 18.7527 13.7877 19.5391 12.8209 19.5391ZM2.65888 18.9514H12.8209C13.4636 18.9514 13.9864 18.4286 13.9864 17.7859V2.29219C13.9864 1.84517 14.1546 1.43676 14.431 1.12669H3.82438C3.18167 1.12669 2.65888 1.64948 2.65888 2.29219V18.9514Z" fill="#1E1E1E"/>
<path d="M13.1139 19.2442C13.1139 19.4068 12.9807 19.538 12.8201 19.538H2.07828C1.1126 19.538 0.325195 18.7525 0.325195 17.7849V16.786C0.325195 16.6234 0.458392 16.4922 0.618991 16.4922H11.3589C11.5215 16.4922 11.6527 16.6234 11.6527 16.786V17.9103C11.6625 17.9299 11.6684 17.9514 11.6723 17.9749C11.7604 18.5312 12.2521 18.9504 12.8201 18.9504C12.9807 18.9504 13.1139 19.0817 13.1139 19.2442Z" fill="#991220"/>
<path d="M5.18467 5.74823C4.89126 5.74823 4.61389 5.6061 4.44288 5.36794C4.34818 5.23615 4.37823 5.05272 4.51003 4.95802C4.64182 4.86351 4.82547 4.89318 4.91995 5.02517C4.98191 5.11124 5.07831 5.1606 5.18467 5.1606C5.36469 5.1606 5.51102 5.01294 5.51102 4.8316C5.51102 4.65158 5.36469 4.50525 5.18467 4.50525C4.68066 4.50525 4.27051 4.09457 4.27051 3.58995C4.27051 3.08593 4.68062 2.67578 5.18467 2.67578C5.47219 2.67578 5.74649 2.81409 5.91845 3.04554C6.01523 3.17583 5.98809 3.36001 5.85781 3.4566C5.72794 3.55376 5.54354 3.52643 5.44675 3.39596C5.38419 3.3116 5.28876 3.26341 5.18467 3.26341C5.00466 3.26341 4.85814 3.40993 4.85814 3.58995C4.85814 3.77072 5.00466 3.91762 5.18467 3.91762C5.68869 3.91762 6.09865 4.32754 6.09865 4.8316C6.09865 5.33694 5.68873 5.74823 5.18467 5.74823Z" fill="#1E1E1E"/>
<path d="M5.18442 6.06536C5.02219 6.06536 4.89062 5.93375 4.89062 5.77156V5.45786C4.89062 5.29563 5.02223 5.16406 5.18442 5.16406C5.34661 5.16406 5.47822 5.29567 5.47822 5.45786V5.77156C5.47826 5.93375 5.34665 6.06536 5.18442 6.06536Z" fill="#1E1E1E"/>
<path d="M5.18491 3.27157C5.02268 3.27157 4.89111 3.13997 4.89111 2.97778V2.66294C4.89111 2.50071 5.02272 2.36914 5.18491 2.36914C5.3471 2.36914 5.47871 2.50075 5.47871 2.66294V2.97778C5.47874 3.13997 5.34714 3.27157 5.18491 3.27157Z" fill="#1E1E1E"/>
<path d="M10.3137 3.83759H7.15708C6.99485 3.83759 6.86328 3.70599 6.86328 3.5438C6.86328 3.38157 6.99489 3.25 7.15708 3.25H10.3137C10.4759 3.25 10.6075 3.38161 10.6075 3.5438C10.6075 3.70599 10.4759 3.83759 10.3137 3.83759Z" fill="#1E1E1E"/>
<path d="M12.0813 5.18525H7.15708C6.99485 5.18525 6.86328 5.05364 6.86328 4.89145C6.86328 4.72922 6.99489 4.59766 7.15708 4.59766H12.0813C12.2436 4.59766 12.3751 4.72926 12.3751 4.89145C12.3752 5.05364 12.2436 5.18525 12.0813 5.18525Z" fill="#1E1E1E"/>
<path d="M5.18467 10.3418C4.89107 10.3418 4.6137 10.1997 4.44288 9.96169C4.34818 9.8299 4.37823 9.64647 4.51003 9.55177C4.64182 9.45726 4.82547 9.48693 4.91995 9.61892C4.98172 9.7048 5.07831 9.75416 5.18467 9.75416C5.36469 9.75416 5.51102 9.60669 5.51102 9.42535C5.51102 9.24533 5.36469 9.09881 5.18467 9.09881C4.68066 9.09881 4.27051 8.68813 4.27051 8.18351C4.27051 7.67949 4.68062 7.26953 5.18467 7.26953C5.47219 7.26953 5.74649 7.40765 5.91845 7.6391C6.01523 7.7692 5.98809 7.95338 5.85781 8.05016C5.72794 8.14657 5.54373 8.12 5.44675 7.98952C5.38419 7.90535 5.28876 7.85716 5.18467 7.85716C5.00466 7.85716 4.85814 8.00349 4.85814 8.18351C4.85814 8.36428 5.00466 8.51118 5.18467 8.51118C5.68869 8.51118 6.09865 8.92129 6.09865 9.42535C6.09865 9.93073 5.68873 10.3418 5.18467 10.3418Z" fill="#1E1E1E"/>
<path d="M5.18442 10.6671C5.02219 10.6671 4.89062 10.5355 4.89062 10.3733V10.0594C4.89062 9.89719 5.02223 9.76562 5.18442 9.76562C5.34661 9.76562 5.47822 9.89723 5.47822 10.0594V10.3733C5.47826 10.5355 5.34665 10.6671 5.18442 10.6671Z" fill="#1E1E1E"/>
<path d="M5.18442 7.86356C5.02219 7.86356 4.89062 7.73195 4.89062 7.56976V7.25473C4.89062 7.09251 5.02223 6.96094 5.18442 6.96094C5.34661 6.96094 5.47822 7.09254 5.47822 7.25473V7.56976C5.47826 7.73195 5.34665 7.86356 5.18442 7.86356Z" fill="#1E1E1E"/>
<path d="M10.3137 8.43525H7.15708C6.99485 8.43525 6.86328 8.30364 6.86328 8.14145C6.86328 7.97926 6.99489 7.84766 7.15708 7.84766H10.3137C10.4759 7.84766 10.6075 7.97926 10.6075 8.14145C10.6075 8.30364 10.4759 8.43525 10.3137 8.43525Z" fill="#1E1E1E"/>
<path d="M12.0813 9.77509H7.15708C6.99485 9.77509 6.86328 9.64349 6.86328 9.4813C6.86328 9.31907 6.99489 9.1875 7.15708 9.1875H12.0813C12.2436 9.1875 12.3751 9.31911 12.3751 9.4813C12.3752 9.64349 12.2436 9.77509 12.0813 9.77509Z" fill="#1E1E1E"/>
<path d="M5.18467 14.9433C4.89126 14.9433 4.61408 14.8014 4.44288 14.5634C4.34818 14.4316 4.37804 14.248 4.50984 14.1533C4.64144 14.059 4.82528 14.0885 4.91995 14.2203C4.98191 14.3064 5.07831 14.3557 5.18467 14.3557C5.36469 14.3557 5.51102 14.2083 5.51102 14.0269C5.51102 13.8469 5.36469 13.7004 5.18467 13.7004C4.68066 13.7004 4.27051 13.2897 4.27051 12.7851C4.27051 12.2811 4.68062 11.8711 5.18467 11.8711C5.47238 11.8711 5.74668 12.0092 5.91845 12.2407C6.01523 12.3709 5.98809 12.5551 5.85781 12.6517C5.72794 12.7489 5.54354 12.7216 5.44675 12.5911C5.38419 12.5069 5.28876 12.4587 5.18467 12.4587C5.00466 12.4587 4.85814 12.6051 4.85814 12.7851C4.85814 12.9658 5.00466 13.1127 5.18467 13.1127C5.68869 13.1127 6.09865 13.5229 6.09865 14.0269C6.09865 14.5323 5.68873 14.9433 5.18467 14.9433Z" fill="#1E1E1E"/>
<path d="M5.18442 15.2607C5.02219 15.2607 4.89062 15.1291 4.89062 14.9669V14.6532C4.89062 14.4909 5.02223 14.3594 5.18442 14.3594C5.34661 14.3594 5.47822 14.491 5.47822 14.6532V14.9669C5.47826 15.1291 5.34665 15.2607 5.18442 15.2607Z" fill="#1E1E1E"/>
<path d="M5.18442 12.4593C5.02219 12.4593 4.89062 12.3277 4.89062 12.1655V11.8504C4.89062 11.6882 5.02223 11.5566 5.18442 11.5566C5.34661 11.5566 5.47822 11.6882 5.47822 11.8504V12.1655C5.47826 12.3277 5.34665 12.4593 5.18442 12.4593Z" fill="#1E1E1E"/>
<path d="M10.3137 13.0251H7.15708C6.99485 13.0251 6.86328 12.8935 6.86328 12.7313C6.86328 12.5691 6.99489 12.4375 7.15708 12.4375H10.3137C10.4759 12.4375 10.6075 12.5691 10.6075 12.7313C10.6075 12.8935 10.4759 13.0251 10.3137 13.0251Z" fill="#1E1E1E"/>
<path d="M12.0813 14.363H7.15708C6.99485 14.363 6.86328 14.2314 6.86328 14.0692C6.86328 13.907 6.99489 13.7754 7.15708 13.7754H12.0813C12.2436 13.7754 12.3751 13.907 12.3751 14.0692C12.3751 14.2314 12.2436 14.363 12.0813 14.363Z" fill="#1E1E1E"/>
</svg>
