<svg width="28" height="28" viewBox="0 0 28 28" fill="none" xmlns="http://www.w3.org/2000/svg">
<path d="M14.5099 7.58352L12.4724 5.61973H13.0561H13.5561V5.11973V1.0376H15.4637V5.11973V5.61973H15.9637H16.5473L14.5099 7.58352Z" fill="white" stroke="#991220"/>
<path d="M6.3967 24.4826V23.3208H8.72521V24.4826H6.3967Z" fill="white" stroke="#991220"/>
<path d="M27.6766 19.3919L25.3375 15.5096L27.5923 12.0263C28.0317 11.3487 27.5435 10.4509 26.7355 10.4509H16.0912L15.9673 10.2595C15.7839 9.97652 15.4729 9.80774 15.1359 9.80774H1.81215C1.02791 9.80774 0.554705 10.6781 0.980685 11.3364L3.76026 15.6303V25.5556C3.76026 26.4177 4.46157 27.119 5.32358 27.119H23.7024C24.5645 27.119 25.2659 26.4177 25.2659 25.5556V20.8934H26.8283C27.599 20.8934 28.0748 20.0522 27.6766 19.3919ZM26.7355 11.2859C26.8819 11.2859 26.9725 11.4476 26.8916 11.5724L24.6151 15.0894C23.3485 15.0894 20.4059 15.0894 19.0935 15.0894L16.6316 11.2859H26.7355V11.2859ZM1.81215 10.6428H15.1359C15.1888 10.6428 15.2378 10.6694 15.2666 10.7137L18.0989 15.0894C15.2001 15.0894 7.32596 15.0894 4.40488 15.0894L1.68172 10.8825C1.61417 10.7785 1.68872 10.6428 1.81215 10.6428ZM4.59528 25.5556V15.9244H18.449V26.284H5.32358C4.92197 26.2841 4.59528 25.9573 4.59528 25.5556ZM24.4308 25.5556C24.4308 25.9573 24.1041 26.2841 23.7024 26.2841H19.284V17.0113L21.3294 20.4134C21.5074 20.7094 21.8325 20.8934 22.1783 20.8934H24.4308V25.5556ZM26.8282 20.0584H22.1782C22.1231 20.0584 22.0733 20.0304 22.0451 19.9831L19.6047 15.9244H24.6124L26.9614 19.823C27.0236 19.9265 26.9501 20.0584 26.8282 20.0584Z" fill="#1E1E1E"/>
</svg>
