<svg width="28" height="28" viewBox="0 0 28 28" fill="none" xmlns="http://www.w3.org/2000/svg">
<g clip-path="url(#clip0_988_19109)">
<path d="M23.0832 27.2732H5.50147C4.4954 27.2732 3.67686 26.4547 3.67686 25.4486V11.5635C3.67686 11.3374 3.86006 11.1542 4.08618 11.1542H24.4986C24.7246 11.1542 24.9079 11.3374 24.9079 11.5635V25.4486C24.908 26.4546 24.0893 27.2732 23.0832 27.2732ZM4.49556 11.9728V25.4486C4.49556 26.0033 4.94676 26.4545 5.50147 26.4545H23.0832C23.6381 26.4545 24.0893 26.0033 24.0893 25.4486V11.9728H4.49556Z" fill="#1E1E1E"/>
<path d="M26.1904 8.13913V11.2906C26.1904 11.6007 25.939 11.8521 25.6289 11.8521H2.95582C2.64572 11.8521 2.39433 11.6007 2.39433 11.2906V8.13913C2.39433 7.82902 2.64572 7.57764 2.95582 7.57764H25.6289C25.939 7.57764 26.1904 7.82902 26.1904 8.13913Z" fill="white" stroke="#991220"/>
<path d="M17.6526 15.673C17.6526 16.1136 17.2954 16.4708 16.8548 16.4708H11.7299C11.2892 16.4708 10.932 16.1136 10.932 15.673C10.932 15.2323 11.2892 14.8751 11.7299 14.8751H16.8548C17.2954 14.8751 17.6526 15.2323 17.6526 15.673Z" fill="white" stroke="#991220"/>
<path d="M6.24566 2.23369H2.88252L3.61542 1.50079C3.77531 1.341 3.77531 1.08171 3.61542 0.92192C3.45553 0.762029 3.1965 0.762029 3.03656 0.92192L1.60545 2.35308C1.44203 2.51587 1.44894 2.77706 1.60545 2.93295L3.03661 4.3641C3.11656 4.44405 3.22129 4.48402 3.32602 4.48402C3.43075 4.48402 3.53548 4.44405 3.61542 4.3641C3.77531 4.20432 3.77531 3.94502 3.61542 3.78524L2.88252 3.05239H6.24566C7.32086 3.05239 8.19551 3.9272 8.19551 5.0024C8.19551 5.22853 8.37871 5.41173 8.60483 5.41173C8.83096 5.41173 9.01416 5.22853 9.01416 5.0024C9.01426 3.47569 7.77221 2.23369 6.24566 2.23369Z" fill="#1E1E1E"/>
</g>
<defs>
<clipPath id="clip0_988_19109">
<rect width="27" height="27" fill="white" transform="translate(0.587891 0.537598)"/>
</clipPath>
</defs>
</svg>
