<svg width="17" height="17" viewBox="0 0 17 17" fill="none" xmlns="http://www.w3.org/2000/svg">
<path d="M5.69973 11.8108C5.59599 11.8108 5.4916 11.7782 5.40445 11.711C5.20123 11.5542 5.16881 11.269 5.33206 11.0739L10.8413 4.48968C11.0046 4.29459 11.3017 4.26346 11.5049 4.42018C11.7081 4.5769 11.7405 4.86212 11.5773 5.05721L6.06803 11.6415C5.97477 11.7529 5.83785 11.8108 5.69973 11.8108Z" fill="#F54233"/>
<path d="M11.2096 11.8108C11.0715 11.8108 10.9346 11.7529 10.8413 11.6415L5.33206 5.05721C5.16881 4.86212 5.20123 4.5769 5.40445 4.42018C5.60768 4.26346 5.90475 4.29459 6.06803 4.48968L11.5773 11.0739C11.7405 11.269 11.7081 11.5542 11.5049 11.711C11.4177 11.7782 11.3133 11.8108 11.2096 11.8108Z" fill="#F54233"/>
<path d="M8.45467 0.972656C9.45266 0.972656 10.4203 1.16009 11.3307 1.52975C12.2104 1.887 13.0008 2.39859 13.6797 3.05037C14.3586 3.70216 14.8916 4.46087 15.2637 5.30547C15.6488 6.17944 15.844 7.10834 15.844 8.06641C15.844 9.02447 15.6488 9.95337 15.2637 10.8273C14.8916 11.6719 14.3586 12.4307 13.6797 13.0824C13.0008 13.7342 12.2104 14.2458 11.3307 14.6031C10.4203 14.9727 9.45266 15.1602 8.45467 15.1602C7.45669 15.1602 6.48908 14.9727 5.5787 14.6031C4.69891 14.2458 3.90855 13.7342 3.22964 13.0824C2.5507 12.4307 2.01779 11.6719 1.64565 10.8273C1.2606 9.95337 1.06535 9.02447 1.06535 8.06641C1.06535 7.10834 1.2606 6.17944 1.64565 5.30547C2.01779 4.46087 2.5507 3.70213 3.22964 3.05037C3.90858 2.39859 4.69891 1.887 5.5787 1.52975C6.48908 1.16009 7.45669 0.972656 8.45467 0.972656ZM8.45467 0.0664063C3.8523 0.0664063 0.121338 3.64813 0.121338 8.06641C0.121338 12.4847 3.8523 16.0664 8.45467 16.0664C13.0571 16.0664 16.788 12.4847 16.788 8.06641C16.788 3.64813 13.0571 0.0664062 8.45467 0.0664062V0.0664063Z" fill="#F54233"/>
</svg>
