<svg width="16" height="16" viewBox="0 0 16 16" fill="none" xmlns="http://www.w3.org/2000/svg">
<path d="M15.029 0.921692C14.6565 0.549192 14.1125 0.412192 13.608 0.562192L1.85603 4.06719C1.26653 4.24269 0.865529 4.75319 0.834529 5.36719C0.803529 5.98169 1.15053 6.53019 1.71953 6.76419L6.80303 8.85869C6.93303 8.91219 7.03803 9.01719 7.09153 9.14719L9.18803 14.2347C9.41203 14.7792 9.92503 15.1207 10.5075 15.1207C10.5325 15.1207 10.558 15.1202 10.583 15.1187C11.197 15.0877 11.7065 14.6872 11.882 14.0982L15.388 2.34169C15.5385 1.83819 15.401 1.29369 15.029 0.921692ZM14.526 2.08519L11.02 13.8417C10.9205 14.1757 10.6255 14.2162 10.538 14.2202C10.453 14.2262 10.153 14.2142 10.0205 13.8922L7.92403 8.80469C7.91103 8.77269 7.89053 8.74419 7.87503 8.71319L10.2515 6.33669C10.4275 6.16119 10.4275 5.87619 10.2515 5.70069C10.0755 5.52469 9.79103 5.52469 9.61553 5.70069L7.23903 8.07719C7.20753 8.06119 7.17853 8.04069 7.14603 8.02719L2.06253 5.93219C1.73953 5.79919 1.72903 5.50069 1.73353 5.41269C1.73803 5.32469 1.77853 5.02919 2.11353 4.92919L13.8655 1.42419C13.917 1.40869 13.9695 1.40119 14.0205 1.40119C14.158 1.40119 14.2905 1.45519 14.3925 1.55769C14.5325 1.69819 14.5825 1.89519 14.526 2.08519Z" fill="#1E1E1E"/>
<path d="M2.75003 8.36393C2.57403 8.18793 2.28953 8.18793 2.11403 8.36393L0.683025 9.79493C0.507025 9.97043 0.507025 10.2554 0.683025 10.4309C0.771025 10.5189 0.886025 10.5629 1.00103 10.5629C1.11603 10.5629 1.23103 10.5189 1.31903 10.4309L2.75003 9.00043C2.92553 8.82493 2.92553 8.53943 2.75003 8.36393Z" fill="#991220"/>
<path d="M4.53253 10.7834L1.84053 13.4754C1.66453 13.6509 1.66453 13.9359 1.84053 14.1114C1.92853 14.1994 2.04353 14.2434 2.15853 14.2434C2.27353 14.2434 2.38853 14.1994 2.47653 14.1114L5.16853 11.4194C5.34453 11.2439 5.34453 10.9589 5.16853 10.7834C4.99303 10.6074 4.70853 10.6074 4.53253 10.7834Z" fill="#991220"/>
<path d="M6.95204 13.2023L5.52104 14.6333C5.34504 14.8088 5.34504 15.0938 5.52104 15.2693C5.60904 15.3573 5.72404 15.4013 5.83904 15.4013C5.95404 15.4013 6.06904 15.3573 6.15704 15.2693L7.58804 13.8383C7.76404 13.6628 7.76404 13.3778 7.58804 13.2023C7.41254 13.0263 7.12754 13.0263 6.95204 13.2023Z" fill="#991220"/>
</svg>
