<svg width="92" height="126" viewBox="0 0 92 126" fill="none" xmlns="http://www.w3.org/2000/svg">
<path d="M83.7889 107.24C83.7889 108.146 83.0582 108.88 82.1566 108.88H2.36526C1.46366 108.88 0.73291 108.146 0.73291 107.24V1.69072C0.73291 0.784927 1.46366 0.0507812 2.36526 0.0507812H61.5201L83.7889 22.4232V107.24Z" fill="#BF6F77" fill-opacity="0.06"/>
<path opacity="0.4" d="M61.521 0.0507812L83.7838 22.4172H63.1533C62.2517 22.4172 61.521 21.683 61.521 20.7772V0.0507812Z" fill="#9B9B9B"/>
<path opacity="0.4" d="M53.0661 24.6789H30.0897C29.2579 24.6789 28.5835 24.0014 28.5835 23.1656C28.5835 22.3299 29.2579 21.6523 30.0897 21.6523H53.0661C53.898 21.6523 54.5724 22.3299 54.5724 23.1656C54.5724 24.0014 53.898 24.6789 53.0661 24.6789Z" fill="#9B9B9B"/>
<path opacity="0.4" d="M72.4752 44.0832H12.7924C11.9605 44.0832 11.2861 43.4056 11.2861 42.5699C11.2861 41.7341 11.9605 41.0566 12.7924 41.0566H72.4752C73.3071 41.0566 73.9815 41.7341 73.9815 42.5699C73.9815 43.4056 73.3071 44.0832 72.4752 44.0832Z" fill="#9B9B9B"/>
<path opacity="0.4" d="M72.4323 35.8449H12.7494C11.9175 35.8449 11.2432 35.1674 11.2432 34.3316C11.2432 33.4959 11.9175 32.8184 12.7494 32.8184H72.4323C73.2642 32.8184 73.9385 33.4959 73.9385 34.3316C73.9385 35.1674 73.2642 35.8449 72.4323 35.8449Z" fill="#9B9B9B"/>
<path opacity="0.4" d="M72.4752 60.7199H12.7924C11.9605 60.7199 11.2861 60.0424 11.2861 59.2066C11.2861 58.3709 11.9605 57.6934 12.7924 57.6934H72.4752C73.3071 57.6934 73.9815 58.3709 73.9815 59.2066C73.9815 60.0424 73.3071 60.7199 72.4752 60.7199Z" fill="#9B9B9B"/>
<path opacity="0.4" d="M72.4323 52.4835H12.7494C11.9175 52.4835 11.2432 51.806 11.2432 50.9703C11.2432 50.1345 11.9175 49.457 12.7494 49.457H72.4323C73.2642 49.457 73.9385 50.1345 73.9385 50.9703C73.9385 51.806 73.2642 52.4835 72.4323 52.4835Z" fill="#9B9B9B"/>
<path opacity="0.4" d="M72.4967 77.7375H12.8139C11.982 77.7375 11.3076 77.0599 11.3076 76.2242C11.3076 75.3884 11.982 74.7109 12.8139 74.7109H72.4967C73.3286 74.7109 74.003 75.3884 74.003 76.2242C74.003 77.0599 73.3286 77.7375 72.4967 77.7375Z" fill="#9B9B9B"/>
<path opacity="0.4" d="M72.4538 69.4992H12.7709C11.939 69.4992 11.2646 68.8217 11.2646 67.9859C11.2646 67.1502 11.939 66.4727 12.7709 66.4727H72.4538C73.2856 66.4727 73.96 67.1502 73.96 67.9859C73.96 68.8217 73.2856 69.4992 72.4538 69.4992Z" fill="#9B9B9B"/>
<path opacity="0.4" d="M72.4538 86.1378H12.7709C11.939 86.1378 11.2646 85.4603 11.2646 84.6246C11.2646 83.7888 11.939 83.1113 12.7709 83.1113H72.4538C73.2856 83.1113 73.96 83.7888 73.96 84.6246C73.96 85.4603 73.2856 86.1378 72.4538 86.1378Z" fill="#9B9B9B"/>
<path opacity="0.4" d="M35.7902 94.1398H12.8139C11.982 94.1398 11.3076 93.4623 11.3076 92.6265C11.3076 91.7908 11.982 91.1133 12.8139 91.1133H35.7902C36.6221 91.1133 37.2965 91.7908 37.2965 92.6265C37.2965 93.4623 36.6221 94.1398 35.7902 94.1398Z" fill="#9B9B9B"/>
<path d="M75.0027 125.05C83.9157 125.05 91.1411 117.791 91.1411 108.837C91.1411 99.8821 83.9157 92.623 75.0027 92.623C66.0897 92.623 58.8643 99.8821 58.8643 108.837C58.8643 117.791 66.0897 125.05 75.0027 125.05Z" fill="#00B777"/>
<path d="M71.894 118.367L63.1233 109.691C62.6998 109.272 62.6946 108.588 63.1117 108.163L65.3762 105.852C65.7932 105.427 66.4745 105.422 66.8975 105.841L71.894 110.783C72.3127 111.197 72.9849 111.197 73.4037 110.783L83.1078 101.184C83.5313 100.765 84.2125 100.77 84.6291 101.195L86.8936 103.506C87.3107 103.931 87.3051 104.616 86.882 105.034L73.4037 118.367C72.9849 118.781 72.3127 118.781 71.894 118.367Z" fill="white"/>
</svg>
