<svg width="24" height="23" viewBox="0 0 24 23" fill="none" xmlns="http://www.w3.org/2000/svg">
<path d="M9.23158 3.68215C9.17046 3.68219 9.11054 3.66515 9.05859 3.63294C9.00664 3.60074 8.96473 3.55466 8.93757 3.4999C8.73903 3.09566 8.43088 2.75535 8.04827 2.51778C7.66566 2.28021 7.22399 2.15495 6.77362 2.15627C6.6866 2.15627 6.60314 2.1217 6.5416 2.06016C6.48007 1.99863 6.4455 1.91517 6.4455 1.82814C6.4455 1.74112 6.48007 1.65766 6.5416 1.59612C6.60314 1.53459 6.6866 1.50002 6.77362 1.50002C7.34627 1.49821 7.90789 1.6574 8.39441 1.95942C8.88093 2.26145 9.27277 2.69415 9.5252 3.20815C9.55002 3.25816 9.56167 3.31367 9.55905 3.36943C9.55643 3.42519 9.53963 3.47936 9.51023 3.52682C9.48083 3.57428 9.43981 3.61345 9.39105 3.64063C9.34229 3.66781 9.2874 3.6821 9.23158 3.68215Z" fill="#991220"/>
<path d="M17.1494 8.44639C17.0953 8.44639 17.0422 8.43306 16.9945 8.40758C16.9469 8.3821 16.9063 8.34526 16.8764 8.30033L16.1264 7.17532C16.0904 7.12142 16.0712 7.05806 16.0712 6.99325V5.11149C16.0728 4.5569 16.2175 4.0121 16.4911 3.5297C16.7647 3.04731 17.1581 2.64363 17.6333 2.35766L19.4391 1.27803C19.4761 1.25584 19.517 1.24115 19.5596 1.23479C19.6022 1.22843 19.6457 1.23054 19.6874 1.24099C19.7292 1.25144 19.7686 1.27002 19.8032 1.29568C19.8378 1.32134 19.867 1.35357 19.8891 1.39053L20.659 2.6781C20.7037 2.75272 20.7169 2.84201 20.6958 2.92637C20.6747 3.01074 20.621 3.08329 20.5465 3.12811L18.7407 4.20774C18.5848 4.30143 18.4557 4.43377 18.3659 4.59197C18.2761 4.75016 18.2287 4.92885 18.2282 5.11074V6.99325C18.2283 7.05806 18.2091 7.12142 18.1731 7.17532L17.4231 8.30033C17.3931 8.34538 17.3524 8.3823 17.3046 8.40778C17.2568 8.43327 17.2035 8.44653 17.1494 8.44639ZM16.7275 6.89388L17.1494 7.5267L17.5712 6.89388V5.11149C17.572 4.81616 17.649 4.52604 17.7948 4.26917C17.9405 4.01231 18.1501 3.7974 18.4032 3.64523L19.9274 2.73379L19.4942 2.00966L17.9701 2.92092C17.592 3.14831 17.279 3.46941 17.0613 3.85315C16.8436 4.2369 16.7287 4.67031 16.7275 5.11149V6.89388Z" fill="#991220"/>
<path d="M22.0231 9.70376C22.0002 9.70374 21.9775 9.70142 21.9552 9.69682C21.87 9.67889 21.7955 9.6279 21.7479 9.55506C21.7004 9.48222 21.6837 9.39347 21.7015 9.30832L21.7877 8.8975C21.8268 8.71149 21.824 8.5191 21.7793 8.33435C21.7346 8.1496 21.6493 7.97715 21.5295 7.82957C21.4097 7.68199 21.2585 7.563 21.0869 7.48128C20.9152 7.39955 20.7276 7.35716 20.5375 7.35718C20.4505 7.35718 20.367 7.32261 20.3055 7.26108C20.2439 7.19954 20.2094 7.11608 20.2094 7.02905C20.2094 6.94203 20.2439 6.85857 20.3055 6.79703C20.367 6.7355 20.4505 6.70093 20.5375 6.70093C20.8252 6.70088 21.1093 6.76504 21.369 6.88872C21.6288 7.01241 21.8577 7.19251 22.039 7.41588C22.2203 7.63926 22.3495 7.90028 22.4171 8.17992C22.4848 8.45956 22.4891 8.75077 22.4299 9.03232L22.3439 9.44313C22.3284 9.51677 22.2881 9.58286 22.2297 9.63031C22.1712 9.67776 22.0983 9.70369 22.0231 9.70376Z" fill="#991220"/>
<path d="M9.59003 17.2273C9.503 17.2273 9.41954 17.1928 9.35801 17.1312C9.29647 17.0697 9.2619 16.9862 9.2619 16.8992V14.6694C9.2619 14.5824 9.29647 14.499 9.35801 14.4374C9.41954 14.3759 9.503 14.3413 9.59003 14.3413C9.67705 14.3413 9.76051 14.3759 9.82205 14.4374C9.88359 14.499 9.91816 14.5824 9.91816 14.6694V16.8992C9.91818 16.9423 9.90971 16.985 9.89323 17.0248C9.87675 17.0646 9.85258 17.1008 9.82211 17.1313C9.79163 17.1617 9.75545 17.1859 9.71563 17.2024C9.67581 17.2189 9.63313 17.2274 9.59003 17.2273Z" fill="#1E1E1E"/>
<path d="M11.508 17.8367C11.421 17.8367 11.3375 17.8021 11.276 17.7406C11.2144 17.679 11.1799 17.5956 11.1799 17.5086V16.6648C11.1799 16.5778 11.2144 16.4943 11.276 16.4328C11.3375 16.3712 11.421 16.3367 11.508 16.3367C11.595 16.3367 11.6785 16.3712 11.74 16.4328C11.8016 16.4943 11.8361 16.5778 11.8361 16.6648V17.5086C11.8361 17.5956 11.8016 17.679 11.74 17.7406C11.6785 17.8021 11.595 17.8367 11.508 17.8367Z" fill="#1E1E1E"/>
<path d="M15.7267 20.1645C15.6397 20.1645 15.5563 20.1299 15.4947 20.0684C15.4332 20.0069 15.3986 19.9234 15.3986 19.8364V17.5085C15.3986 17.4215 15.4332 17.3381 15.4947 17.2765C15.5563 17.215 15.6397 17.1804 15.7267 17.1804C15.8138 17.1804 15.8972 17.215 15.9588 17.2765C16.0203 17.3381 16.0549 17.4215 16.0549 17.5085V19.8364C16.0549 19.9234 16.0203 20.0069 15.9588 20.0684C15.8972 20.1299 15.8138 20.1645 15.7267 20.1645Z" fill="#1E1E1E"/>
<path d="M17.2971 18.5867C17.21 18.5867 17.1266 18.5521 17.065 18.4906C17.0035 18.429 16.9689 18.3456 16.9689 18.2586V17.5085C16.9689 17.4215 17.0035 17.3381 17.065 17.2765C17.1266 17.215 17.21 17.1804 17.2971 17.1804C17.3841 17.1804 17.4675 17.215 17.5291 17.2765C17.5906 17.3381 17.6252 17.4215 17.6252 17.5085V18.2586C17.6252 18.3456 17.5906 18.429 17.5291 18.4906C17.4675 18.5521 17.3841 18.5867 17.2971 18.5867Z" fill="#1E1E1E"/>
<path d="M6.47846 15.3236C6.42846 15.3236 6.37913 15.3121 6.33428 15.29L5.90302 15.0783C5.85298 15.0538 5.80999 15.017 5.77811 14.9713C5.74622 14.9256 5.72649 14.8725 5.72077 14.8171C5.50027 12.6539 4.41951 10.6681 3.55176 9.38296C3.52419 9.34219 3.50616 9.29574 3.49898 9.24706C3.49181 9.19837 3.49569 9.14869 3.51033 9.10171C3.52497 9.05472 3.55 9.01163 3.58356 8.97564C3.61712 8.93964 3.65835 8.91166 3.7042 8.89377C4.08045 8.74713 4.4103 8.50192 4.65914 8.18389C4.70529 8.12449 4.77045 8.08275 4.84371 8.06568C4.91697 8.04861 4.99387 8.05725 5.06152 8.09014C5.33045 8.22103 5.61357 8.3205 5.90527 8.38658C5.96492 8.4001 6.01956 8.43012 6.06296 8.47321C6.85834 9.25809 7.34697 10.0242 7.60047 10.8841C7.60886 10.9029 7.62251 10.9188 7.63976 10.93C7.65701 10.9412 7.67713 10.9471 7.69769 10.9471C7.71825 10.9471 7.73837 10.9412 7.75562 10.93C7.77287 10.9188 7.78652 10.9029 7.79491 10.8841C8.08085 9.91472 8.67992 9.0449 9.67967 8.14658C9.72333 8.10734 9.77673 8.08055 9.83429 8.06901C9.89184 8.05746 9.95144 8.06159 10.0069 8.08095C10.4609 8.24015 10.9502 8.26963 11.4201 8.16608C11.4776 8.15335 11.5375 8.15646 11.5935 8.17508C11.6494 8.1937 11.6992 8.22714 11.7377 8.27183C11.8297 8.37714 11.9313 8.47362 12.0412 8.56002C12.107 8.61235 12.1502 8.68795 12.1619 8.77121C12.1735 8.85446 12.1528 8.93901 12.1039 9.0074C11.1521 10.3387 9.96055 12.4027 9.68886 14.6737C9.68365 14.7173 9.66973 14.7595 9.6479 14.7977C9.62608 14.8358 9.59681 14.8692 9.56182 14.8958C9.52684 14.9224 9.48686 14.9418 9.44426 14.9526C9.40166 14.9635 9.35732 14.9657 9.31386 14.9591L7.84947 14.7395C7.64085 14.7085 7.42772 14.7342 7.23248 14.814C7.03723 14.8938 6.86706 15.0246 6.73984 15.1929C6.70936 15.2334 6.66989 15.2663 6.62453 15.289C6.57918 15.3117 6.52917 15.3235 6.47846 15.3236ZM6.35265 14.5683L6.39896 14.591C6.60096 14.3939 6.84584 14.2462 7.11443 14.1594C7.38301 14.0727 7.66803 14.0493 7.94716 14.0911L9.08361 14.2616C9.41998 12.1218 10.4837 10.1962 11.4002 8.86921L11.3736 8.84277C10.9092 8.91737 10.4342 8.88946 9.98174 8.76102C9.15861 9.52977 8.66229 10.2663 8.42548 11.0703C8.37899 11.227 8.28312 11.3644 8.15216 11.4622C8.02119 11.5599 7.86214 11.6127 7.69872 11.6127C7.5353 11.6127 7.37625 11.5599 7.24529 11.4622C7.11432 11.3644 7.01845 11.227 6.97197 11.0703C6.71983 10.282 6.27072 9.57117 5.66715 9.00496C5.44166 8.94881 5.22077 8.8756 5.00639 8.78596C4.80214 9.00353 4.56562 9.18839 4.30514 9.33402C5.14646 10.6417 6.10009 12.5146 6.35265 14.5683Z" fill="#1E1E1E"/>
<path d="M21.5721 16.795C21.5559 16.795 21.5396 16.7938 21.5236 16.7914L11.8948 15.3476C11.833 15.3384 11.7751 15.3117 11.728 15.2706C11.6809 15.2295 11.6465 15.1758 11.6289 15.1159C11.5937 14.9963 11.5661 14.8888 11.5448 14.7872L10.6033 10.3046C10.587 10.2258 10.6004 10.1437 10.6408 10.0742C10.9221 9.58272 11.2354 9.09559 11.5708 8.62628C11.5967 8.59004 11.6296 8.55945 11.6677 8.53637C11.7058 8.5133 11.7482 8.49822 11.7923 8.49206C11.8364 8.4859 11.8812 8.48879 11.9242 8.50055C11.9671 8.51231 12.0072 8.5327 12.042 8.56046C12.4353 8.87667 12.9249 9.04871 13.4295 9.04797C14.0229 9.04712 14.5917 8.81097 15.0112 8.39131C15.4306 7.97165 15.6666 7.40275 15.6672 6.80939C15.6662 6.70424 15.6578 6.59928 15.642 6.49532C15.6324 6.42705 15.6446 6.35749 15.6768 6.29652C15.709 6.23555 15.7596 6.18627 15.8214 6.15568C15.8832 6.12509 15.953 6.11474 16.021 6.12609C16.089 6.13745 16.1517 6.16994 16.2002 6.21895C16.3559 6.37576 16.4962 6.54724 16.6189 6.73101L17.1497 7.52733L17.6807 6.73101C18.1234 6.06756 18.7833 5.57891 19.547 5.34895C20.3108 5.11898 21.1307 5.16206 21.8662 5.47077C22.6016 5.77948 23.2066 6.33457 23.5774 7.04076C23.9482 7.74694 24.0616 8.56017 23.8981 9.34084L22.7543 14.7863C22.6065 15.4855 22.286 16.1365 21.8219 16.68C21.7911 16.7161 21.7528 16.7451 21.7096 16.7649C21.6665 16.7848 21.6196 16.795 21.5721 16.795ZM12.2046 14.7298L21.4356 16.1147C21.7681 15.6842 21.9992 15.1843 22.1119 14.6522L23.2557 9.20678C23.3885 8.57515 23.2972 7.91699 22.9975 7.34536C22.6977 6.77374 22.2083 6.32434 21.6132 6.07437C21.0182 5.8244 20.3546 5.78947 19.7366 5.97557C19.1186 6.16168 18.5846 6.55721 18.2265 7.0942L17.4224 8.30021C17.3924 8.34516 17.3518 8.38201 17.3042 8.40749C17.2565 8.43297 17.2034 8.44629 17.1493 8.44627C17.0953 8.44628 17.0422 8.43295 16.9945 8.40747C16.9469 8.38199 16.9063 8.34515 16.8763 8.30021L16.2658 7.38446C16.1323 8.03862 15.7771 8.62666 15.2602 9.04924C14.7433 9.47182 14.0964 9.70304 13.4288 9.70384C12.8947 9.70543 12.3709 9.55691 11.9171 9.27522C11.6884 9.60859 11.4722 9.95022 11.2714 10.2935L12.1877 14.6514C12.1926 14.6777 12.1984 14.7038 12.2046 14.7298Z" fill="#1E1E1E"/>
<path d="M6.17602 17.9666H2.92981C2.84279 17.9666 2.75933 17.932 2.69779 17.8705C2.63625 17.8089 2.60168 17.7255 2.60168 17.6384C2.60168 17.5514 2.63625 17.4679 2.69779 17.4064C2.75933 17.3449 2.84279 17.3103 2.92981 17.3103H6.17602C6.26304 17.3103 6.3465 17.3449 6.40804 17.4064C6.46958 17.4679 6.50415 17.5514 6.50415 17.6384C6.50415 17.7255 6.46958 17.8089 6.40804 17.8705C6.3465 17.932 6.26304 17.9666 6.17602 17.9666Z" fill="#1E1E1E"/>
<path d="M7.67604 21.2056C7.1912 21.2056 6.72624 21.013 6.3834 20.6701C6.04057 20.3273 5.84795 19.8623 5.8479 19.3775V15.8988C5.84786 15.6357 5.9046 15.3757 6.01425 15.1366C6.1239 14.8975 6.28387 14.6848 6.48324 14.5132C6.68261 14.3416 6.91668 14.215 7.16946 14.1421C7.42224 14.0692 7.68777 14.0518 7.94791 14.0909L22.7176 16.3064C23.0769 16.3604 23.4047 16.5425 23.6404 16.8192C23.876 17.0958 24.0037 17.4483 23.9999 17.8117C23.9961 18.1751 23.861 18.5249 23.6196 18.7965C23.3782 19.0681 23.0467 19.2433 22.6863 19.2898L7.9091 21.1906C7.83182 21.2007 7.75397 21.2057 7.67604 21.2056ZM7.67604 14.7267C7.36528 14.7269 7.06731 14.8504 6.84762 15.0702C6.62794 15.29 6.50453 15.588 6.50453 15.8988V19.3775C6.50453 19.544 6.54002 19.7086 6.60862 19.8604C6.67723 20.0121 6.77737 20.1475 6.90239 20.2575C7.02741 20.3675 7.17444 20.4495 7.33367 20.4983C7.4929 20.547 7.66069 20.5612 7.82585 20.54L22.6028 18.6397C22.8063 18.6136 22.9934 18.5148 23.1297 18.3615C23.266 18.2082 23.3423 18.0108 23.3445 17.8057C23.3467 17.6005 23.2746 17.4016 23.1415 17.2454C23.0085 17.0893 22.8235 16.9865 22.6206 16.9561L7.84985 14.7399C7.79219 14.7312 7.73397 14.7268 7.67566 14.7267H7.67604Z" fill="#991220"/>
<path d="M2.82389 22.2994C2.58256 22.2997 2.34659 22.2283 2.14602 22.0941C1.94546 21.9598 1.78939 21.769 1.6977 21.5457C1.60602 21.3225 1.58286 21.077 1.63119 20.8406C1.67952 20.6041 1.79714 20.3874 1.96907 20.2181L2.42283 19.7709L1.34226 19.4448C0.954134 19.3277 0.614026 19.0888 0.37228 18.7634C0.130534 18.4379 0 18.0433 0 17.6379C0 17.2325 0.130534 16.8379 0.37228 16.5124C0.614026 16.187 0.954134 15.948 1.34226 15.8309L2.42283 15.5051L1.96889 15.0579C1.83879 14.9296 1.73927 14.7736 1.67772 14.6016C1.61617 14.4296 1.59417 14.2459 1.61336 14.0642C1.63254 13.8825 1.69242 13.7075 1.78854 13.5521C1.88466 13.3967 2.01456 13.265 2.16858 13.1667C2.3447 13.0553 2.54637 12.9907 2.75448 12.979C2.96258 12.9673 3.17021 13.0089 3.35771 13.1L6.62285 14.7007C6.6663 14.722 6.70449 14.7526 6.7347 14.7904C6.7649 14.8282 6.78638 14.8723 6.79758 14.9193C6.80878 14.9664 6.80943 15.0154 6.79948 15.0627C6.78953 15.1101 6.76923 15.1547 6.74004 15.1932C6.58597 15.3961 6.50301 15.6441 6.50398 15.8988V19.3775C6.50311 19.6322 6.58606 19.8802 6.74004 20.0831C6.76923 20.1217 6.78953 20.1662 6.79948 20.2136C6.80943 20.261 6.80878 20.3099 6.79758 20.357C6.78638 20.4041 6.7649 20.4481 6.7347 20.4859C6.70449 20.5237 6.6663 20.5543 6.62285 20.5757L3.3579 22.1762C3.19161 22.2574 3.00896 22.2995 2.82389 22.2994ZM2.82389 13.6327C2.71281 13.6325 2.60419 13.6654 2.51186 13.7271C2.41953 13.7889 2.34767 13.8767 2.30544 13.9795C2.26321 14.0822 2.25252 14.1952 2.27473 14.304C2.29693 14.4129 2.35104 14.5126 2.43014 14.5906L3.27783 15.4261C3.31839 15.4661 3.34784 15.5159 3.3633 15.5708C3.37875 15.6256 3.37968 15.6834 3.36598 15.7387C3.35229 15.794 3.32444 15.8448 3.28518 15.886C3.24593 15.9273 3.19661 15.9576 3.14208 15.974L1.53182 16.4594C1.27867 16.5358 1.05685 16.6917 0.899181 16.904C0.741512 17.1163 0.656377 17.3737 0.656377 17.6381C0.656377 17.9025 0.741512 18.1599 0.899181 18.3722C1.05685 18.5844 1.27867 18.7403 1.53182 18.8167L3.14171 19.3025C3.19623 19.3189 3.24556 19.3492 3.28482 19.3904C3.32408 19.4317 3.35193 19.4824 3.36563 19.5377C3.37933 19.593 3.3784 19.6508 3.36294 19.7056C3.34748 19.7604 3.31802 19.8103 3.27746 19.8502L2.42976 20.6855C2.33504 20.7788 2.2766 20.9027 2.26489 21.0351C2.25318 21.1675 2.28898 21.2997 2.36586 21.4082C2.44275 21.5166 2.55572 21.5941 2.68454 21.6268C2.81336 21.6596 2.94963 21.6454 3.06896 21.5869L6.01497 20.1431C5.90423 19.9032 5.84722 19.642 5.84791 19.3777V15.8988C5.84724 15.6345 5.90425 15.3732 6.01497 15.1332L3.06914 13.6895C2.99261 13.6521 2.90853 13.6326 2.82333 13.6327H2.82389Z" fill="#991220"/>
<path d="M13.4288 9.70384C13.046 9.70368 12.667 9.62748 12.314 9.47968C11.9609 9.33188 11.6406 9.11541 11.3719 8.84284C10.6264 8.96323 9.8622 8.81916 9.21168 8.43559C8.59041 8.82744 7.88389 9.06388 7.1519 9.12492C6.41991 9.18595 5.68399 9.06977 5.0064 8.78621C4.61001 9.21052 4.09509 9.5057 3.52863 9.63336C2.96218 9.76102 2.37042 9.71524 1.83034 9.50198C1.29026 9.28872 0.826862 8.91785 0.500442 8.43762C0.174022 7.9574 -0.000311382 7.39005 0.00012288 6.80939C0.00248908 6.15625 0.224922 5.52297 0.631505 5.01181C1.03809 4.50064 1.60509 4.14143 2.24095 3.99218C2.36256 3.03745 2.78252 2.1455 3.44094 1.44351C4.09935 0.741517 4.9626 0.265339 5.90759 0.082875C6.85258 -0.0995885 7.83106 0.0209794 8.70349 0.427386C9.57592 0.833792 10.2978 1.50529 10.7661 2.34611C10.7989 2.34499 10.8315 2.34442 10.8636 2.34442C11.4269 2.34386 11.9808 2.48923 12.4712 2.76637C12.9617 3.0435 13.372 3.44296 13.6622 3.92581C14.4071 3.98592 15.0999 4.33191 15.5955 4.89133C16.0911 5.45075 16.351 6.18021 16.3208 6.92695C16.2906 7.6737 15.9727 8.37981 15.4336 8.89743C14.8946 9.41505 14.1761 9.70402 13.4288 9.70384ZM11.4894 8.15902C11.5364 8.15892 11.5829 8.16891 11.6257 8.18832C11.6685 8.20772 11.7066 8.2361 11.7375 8.27152C11.9817 8.55413 12.2927 8.77112 12.6423 8.90268C12.9918 9.03424 13.3687 9.07619 13.7387 9.02471C14.1086 8.97323 14.4597 8.82995 14.7601 8.60794C15.0604 8.38594 15.3004 8.09227 15.4581 7.75372C15.6158 7.41518 15.6863 7.04253 15.663 6.66977C15.6398 6.29701 15.5236 5.936 15.325 5.61967C15.1265 5.30334 14.8519 5.04176 14.5263 4.85878C14.2007 4.6758 13.8345 4.57725 13.461 4.57212C13.4021 4.57127 13.3445 4.55456 13.2942 4.52375C13.244 4.49293 13.2029 4.44915 13.1755 4.397C12.9543 3.97533 12.6219 3.62222 12.2144 3.37596C11.8069 3.12969 11.3397 2.99965 10.8636 2.99993C10.7814 2.99993 10.6948 3.00443 10.6071 3.01286C10.5408 3.01965 10.474 3.00601 10.4158 2.97377C10.3575 2.94153 10.3105 2.89223 10.281 2.83249C9.89976 2.06262 9.27578 1.43959 8.50533 1.05954C7.73488 0.679478 6.86077 0.563509 6.01787 0.729521C5.17497 0.895533 4.41012 1.3343 3.84133 1.97813C3.27254 2.62195 2.93141 3.43506 2.87058 4.292C2.86548 4.36733 2.83455 4.43859 2.783 4.49376C2.73146 4.54893 2.66245 4.58462 2.58764 4.59481C2.22434 4.64477 1.87891 4.78329 1.58174 4.99816C1.28457 5.21303 1.04478 5.49767 0.883492 5.82701C0.722203 6.15635 0.644357 6.52029 0.656809 6.88679C0.66926 7.25329 0.771627 7.61111 0.954896 7.92875C1.13816 8.24638 1.39671 8.51409 1.70778 8.7083C2.01885 8.9025 2.37289 9.01725 2.73874 9.04245C3.10459 9.06764 3.47102 9.0025 3.80577 8.85276C4.14052 8.70303 4.43332 8.47329 4.6584 8.18377C4.70458 8.12435 4.76978 8.08261 4.84307 8.06554C4.91636 8.04847 4.99329 8.05712 5.06097 8.09002C5.68882 8.39527 6.38689 8.52705 7.08283 8.4717C7.77876 8.41635 8.44722 8.17587 9.01893 7.77521C9.07354 7.73684 9.13856 7.71605 9.2053 7.71562C9.27204 7.71518 9.33732 7.73512 9.39243 7.77277C9.68533 7.97402 10.0165 8.11284 10.3654 8.18058C10.7142 8.24832 11.0733 8.24354 11.4203 8.16652C11.443 8.16154 11.4662 8.15903 11.4894 8.15902Z" fill="#1E1E1E"/>
</svg>
