<svg width="21" height="21" viewBox="0 0 21 21" fill="none" xmlns="http://www.w3.org/2000/svg">
<path d="M12.198 20.0396C10.9559 20.0396 9.94482 19.0286 9.94482 17.7864C9.94482 16.5442 10.9559 15.5332 12.198 15.5332C13.4402 15.5332 14.4512 16.5442 14.4512 17.7864C14.4512 19.0286 13.4402 20.0396 12.198 20.0396ZM12.198 17.1426C11.843 17.1426 11.5542 17.4314 11.5542 17.7864C11.5542 18.1414 11.843 18.4302 12.198 18.4302C12.5531 18.4302 12.8418 18.1414 12.8418 17.7864C12.8418 17.4314 12.5531 17.1426 12.198 17.1426Z" fill="#991220"/>
<path d="M5.11648 20.0396C3.87432 20.0396 2.86328 19.0286 2.86328 17.7864C2.86328 16.5442 3.87432 15.5332 5.11648 15.5332C6.35863 15.5332 7.36967 16.5442 7.36967 17.7864C7.36967 19.0286 6.35863 20.0396 5.11648 20.0396ZM5.11648 17.1426C4.76144 17.1426 4.47271 17.4314 4.47271 17.7864C4.47271 18.1414 4.76144 18.4302 5.11648 18.4302C5.47152 18.4302 5.76025 18.1414 5.76025 17.7864C5.76025 17.4314 5.47152 17.1426 5.11648 17.1426Z" fill="#991220"/>
<path d="M16.0608 20.0396C14.8187 20.0396 13.8076 19.0286 13.8076 17.7864C13.8076 16.5442 14.8187 15.5332 16.0608 15.5332C17.303 15.5332 18.314 16.5442 18.314 17.7864C18.314 19.0286 17.303 20.0396 16.0608 20.0396ZM16.0608 17.1426C15.7058 17.1426 15.417 17.4314 15.417 17.7864C15.417 18.1414 15.7058 18.4302 16.0608 18.4302C16.4159 18.4302 16.7046 18.1414 16.7046 17.7864C16.7046 17.4314 16.4159 17.1426 16.0608 17.1426Z" fill="#991220"/>
<path d="M7.34415 18.1074C7.31132 18.3347 7.24501 18.551 7.14941 18.7512H10.1655C10.0699 18.551 10.0036 18.3347 9.97074 18.1074H7.34415Z" fill="#1E1E1E"/>
<path d="M17.0263 9.0957H10.5886C10.2336 9.0957 9.94482 9.38443 9.94482 9.73947V14.2459C9.94482 14.6009 10.2336 14.8896 10.5886 14.8896H17.0263C17.3813 14.8896 17.6701 14.6009 17.6701 14.2459V9.73947C17.6701 9.38443 17.3813 9.0957 17.0263 9.0957ZM13.1637 9.73947H14.4512V11.027H13.1637V9.73947ZM10.5886 14.2459V9.73947H12.5199V11.027C12.5199 11.3821 12.8086 11.6708 13.1637 11.6708H14.4512C14.8063 11.6708 15.095 11.3821 15.095 11.027V9.73947H17.0263L17.0269 14.2459H10.5886Z" fill="#1E1E1E"/>
<path d="M12.1982 12.957H12.842V13.6008H12.1982V12.957Z" fill="#1E1E1E"/>
<path d="M13.4854 12.957H14.1291V13.6008H13.4854V12.957Z" fill="#1E1E1E"/>
<path d="M14.7734 12.957H15.4172V13.6008H14.7734V12.957Z" fill="#1E1E1E"/>
<path d="M12.1981 16.8203C11.6657 16.8203 11.2324 17.2536 11.2324 17.786C11.2324 18.3184 11.6657 18.7516 12.1981 18.7516C12.7305 18.7516 13.1637 18.3184 13.1637 17.786C13.1637 17.2536 12.7305 16.8203 12.1981 16.8203ZM12.1981 18.1079C12.0204 18.1079 11.8762 17.9636 11.8762 17.786C11.8762 17.6083 12.0204 17.4641 12.1981 17.4641C12.3758 17.4641 12.52 17.6083 12.52 17.786C12.52 17.9636 12.3758 18.1079 12.1981 18.1079Z" fill="white"/>
<path d="M5.11653 16.8203C4.58414 16.8203 4.15088 17.2536 4.15088 17.786C4.15088 18.3184 4.58414 18.7516 5.11653 18.7516C5.64893 18.7516 6.08219 18.3184 6.08219 17.786C6.08219 17.2536 5.64893 16.8203 5.11653 16.8203ZM5.11653 18.1079C4.93885 18.1079 4.79465 17.9636 4.79465 17.786C4.79465 17.6083 4.93885 17.4641 5.11653 17.4641C5.29421 17.4641 5.43842 17.6083 5.43842 17.786C5.43842 17.9636 5.29421 18.1079 5.11653 18.1079Z" fill="white"/>
<path d="M16.0609 16.8203C15.5285 16.8203 15.0952 17.2536 15.0952 17.786C15.0952 18.3184 15.5285 18.7516 16.0609 18.7516C16.5933 18.7516 17.0265 18.3184 17.0265 17.786C17.0265 17.2536 16.5933 16.8203 16.0609 16.8203ZM16.0609 18.1079C15.8832 18.1079 15.739 17.9636 15.739 17.786C15.739 17.6083 15.8832 17.4641 16.0609 17.4641C16.2386 17.4641 16.3828 17.6083 16.3828 17.786C16.3828 17.9636 16.2386 18.1079 16.0609 18.1079Z" fill="white"/>
<path d="M5.83074 12.3145H3.95479C3.54342 12.3145 3.18613 12.5932 3.08667 12.992L2.89 13.7774C2.87197 13.8482 2.86328 13.9213 2.86328 13.9944C2.86328 14.4878 3.26499 14.8895 3.75844 14.8895H5.83074C6.32419 14.8895 6.7259 14.4878 6.7259 13.9944V13.2096C6.7259 12.7162 6.32419 12.3145 5.83074 12.3145ZM6.08213 13.9944C6.08213 14.1331 5.96915 14.2458 5.83074 14.2458H3.75844C3.62003 14.2458 3.50705 14.1328 3.50705 13.9944C3.50705 13.9738 3.50963 13.9528 3.51413 13.9339L3.71048 13.1488C3.73881 13.0368 3.83859 12.9585 3.95447 12.9585H5.83042C5.96915 12.9585 6.08181 13.0715 6.08181 13.2099V13.9944H6.08213Z" fill="#1E1E1E"/>
<path d="M19.6581 7.06452C19.7795 7.12922 19.9159 7.16367 20.0527 7.16367C20.514 7.16367 20.8893 6.78835 20.8893 6.32709V5.86293C20.8893 5.55295 20.7197 5.27034 20.4464 5.12485L10.9106 0.0390625L1.37536 5.12485C1.10176 5.27034 0.932129 5.55295 0.932129 5.86293V6.32709C0.932129 6.78835 1.30745 7.16367 1.76871 7.16367C1.90551 7.16367 2.04199 7.12955 2.16398 7.06452L3.50721 6.34479V11.0263H3.31601C2.70797 11.0263 2.19134 11.4409 2.05905 12.0347L0.962708 16.9699C0.942429 17.062 0.932129 17.1553 0.932129 17.248V18.1078C0.932129 18.4628 1.22086 18.7515 1.5759 18.7515H3.08393C2.98833 18.5513 2.92202 18.335 2.88919 18.1078H1.5759V17.464H2.88919C2.92202 17.2367 2.98833 17.0204 3.08393 16.8202H1.6554L2.68769 12.1744C2.75368 11.8773 3.01215 11.6701 3.31601 11.6701H7.36983V16.8202H7.14934C7.24494 17.0204 7.31124 17.2367 7.34408 17.464H9.97066C10.0035 17.2367 10.0698 17.0204 10.1654 16.8202H8.0136V8.45121H19.6015V16.8202H18.0934C18.189 17.0204 18.2553 17.2367 18.2882 17.464H20.2452V18.1078H18.2882C18.2553 18.335 18.189 18.5513 18.0934 18.7515H20.2452C20.6003 18.7515 20.889 18.4628 20.889 18.1078V17.464C20.889 17.1089 20.6003 16.8202 20.2452 16.8202V8.45121C20.2452 8.09617 19.9565 7.80744 19.6015 7.80744H18.3139V6.34479L19.6581 7.06452ZM1.86012 6.49704C1.73588 6.56271 1.5759 6.46485 1.5759 6.32709V5.86293C1.5759 5.79147 1.61485 5.72645 1.67794 5.69329L10.9106 0.769098L20.1435 5.69329C20.2063 5.72645 20.2452 5.79147 20.2452 5.86293V6.32709C20.2452 6.46485 20.0833 6.56303 19.9616 6.49672L10.9106 1.64817L1.86012 6.49704ZM4.22244 11.0263C4.52758 9.90355 5.55279 9.09498 6.74505 9.09498H7.36983V11.0263H4.22244ZM7.36983 8.45121V5.87613H14.4513V7.80744H8.0136C7.65856 7.80744 7.36983 8.09617 7.36983 8.45121ZM17.6701 7.80744H15.0951V5.87613C15.0951 5.52109 14.8063 5.23236 14.4513 5.23236H7.36983C7.01479 5.23236 6.72606 5.52109 6.72606 5.87613V8.45217C5.68444 8.45829 4.74711 8.95978 4.15098 9.74261V6.00005L10.9106 2.37884L17.6701 5.99973V7.80744Z" fill="#1E1E1E"/>
</svg>
