<svg width="27" height="22" viewBox="0 0 27 22" fill="none" xmlns="http://www.w3.org/2000/svg">
<path d="M15.5566 21.8733H11.4434C11.3455 21.8733 11.2516 21.8344 11.1823 21.7652C11.1131 21.6959 11.0742 21.6021 11.0742 21.5042V16.1516C11.0742 16.1031 11.0837 16.0551 11.1023 16.0103C11.1208 15.9655 11.148 15.9248 11.1823 15.8905C11.2166 15.8562 11.2573 15.8291 11.3021 15.8105C11.3469 15.792 11.3949 15.7824 11.4434 15.7825H15.5566C15.6051 15.7824 15.6531 15.792 15.6979 15.8105C15.7427 15.8291 15.7834 15.8562 15.8177 15.8905C15.852 15.9248 15.8792 15.9655 15.8977 16.0103C15.9163 16.0551 15.9258 16.1031 15.9258 16.1516V21.5048C15.9256 21.6026 15.8866 21.6963 15.8174 21.7654C15.7482 21.8345 15.6544 21.8733 15.5566 21.8733ZM11.8125 21.135H15.1875V16.5208H11.8125V21.135Z" fill="#991220"/>
<path d="M19.5381 21.8733H7.46191C7.36401 21.8733 7.27012 21.8344 7.20089 21.7652C7.13166 21.6959 7.09277 21.6021 7.09277 21.5042V8.8479C7.09275 8.79942 7.10227 8.7514 7.12082 8.7066C7.13936 8.6618 7.16655 8.6211 7.20083 8.58682C7.23511 8.55253 7.27582 8.52534 7.32062 8.5068C7.36542 8.48826 7.41343 8.47873 7.46191 8.47876H19.5381C19.5866 8.47873 19.6346 8.48826 19.6794 8.5068C19.7242 8.52534 19.7649 8.55253 19.7992 8.58682C19.8335 8.6211 19.8606 8.6618 19.8792 8.7066C19.8977 8.7514 19.9073 8.79942 19.9072 8.8479V21.5042C19.9072 21.6021 19.8683 21.6959 19.7991 21.7652C19.7299 21.8344 19.636 21.8733 19.5381 21.8733ZM7.83105 21.135H19.1689V9.21704H7.83105V21.135Z" fill="#1E1E1E"/>
<path d="M26.6309 21.8733H19.5381C19.4402 21.8733 19.3463 21.8344 19.2771 21.7652C19.2078 21.6959 19.1689 21.6021 19.1689 21.5042V12.0647C19.1689 12.0162 19.1784 11.9682 19.197 11.9234C19.2155 11.8786 19.2427 11.8379 19.277 11.8036C19.3113 11.7693 19.352 11.7421 19.3968 11.7236C19.4416 11.7051 19.4896 11.6955 19.5381 11.6956H26.6309C26.6793 11.6955 26.7274 11.7051 26.7722 11.7236C26.817 11.7421 26.8577 11.7693 26.8919 11.8036C26.9262 11.8379 26.9534 11.8786 26.972 11.9234C26.9905 11.9682 27 12.0162 27 12.0647V21.5048C26.9998 21.6026 26.9609 21.6963 26.8917 21.7654C26.8224 21.8345 26.7287 21.8733 26.6309 21.8733ZM19.9072 21.135H26.2617V12.4345H19.9072V21.135Z" fill="#1E1E1E"/>
<path d="M24.9434 17.2327H21.2256C21.1277 17.2327 21.0338 17.1938 20.9646 17.1245C20.8953 17.0553 20.8564 16.9614 20.8564 16.8635V13.7522C20.8564 13.7037 20.8659 13.6557 20.8845 13.6109C20.903 13.5661 20.9302 13.5254 20.9645 13.4911C20.9988 13.4568 21.0395 13.4296 21.0843 13.4111C21.1291 13.3926 21.1771 13.383 21.2256 13.3831H24.9434C24.9918 13.383 25.0399 13.3926 25.0847 13.4111C25.1295 13.4296 25.1702 13.4568 25.2044 13.4911C25.2387 13.5254 25.2659 13.5661 25.2845 13.6109C25.303 13.6557 25.3125 13.7037 25.3125 13.7522V16.8642C25.3123 16.962 25.2734 17.0557 25.2042 17.1248C25.1349 17.1939 25.0412 17.2327 24.9434 17.2327ZM21.5947 16.4944H24.5742V14.122H21.5947V16.4944Z" fill="#991220"/>
<path d="M26.6309 12.4346H19.5381C19.4402 12.4346 19.3463 12.3957 19.2771 12.3265C19.2078 12.2572 19.1689 12.1633 19.1689 12.0654V10.2725C19.1689 10.224 19.1784 10.176 19.197 10.1312C19.2155 10.0864 19.2427 10.0457 19.277 10.0114C19.3113 9.97709 19.352 9.9499 19.3968 9.93136C19.4416 9.91282 19.4896 9.90329 19.5381 9.90332H25.7871C26.1087 9.90366 26.417 10.0315 26.6444 10.2589C26.8718 10.4863 26.9997 10.7946 27 11.1162V12.0654C27 12.1633 26.9611 12.2572 26.8919 12.3265C26.8227 12.3957 26.7288 12.4346 26.6309 12.4346ZM19.9072 11.6963H26.2617V11.1162C26.2616 10.9904 26.2115 10.8698 26.1225 10.7808C26.0336 10.6918 25.9129 10.6418 25.7871 10.6416H19.9072V11.6963Z" fill="#1E1E1E"/>
<path d="M21.1201 9.21714H5.87988C5.78198 9.21714 5.68809 9.17825 5.61886 9.10902C5.54963 9.0398 5.51074 8.9459 5.51074 8.848V7.05566C5.51071 7.00718 5.52024 6.95917 5.53878 6.91437C5.55733 6.86957 5.58452 6.82886 5.6188 6.79458C5.65308 6.7603 5.69379 6.73311 5.73859 6.71457C5.78338 6.69603 5.8314 6.6865 5.87988 6.68652H21.1201C21.1686 6.6865 21.2166 6.69603 21.2614 6.71457C21.3062 6.73311 21.3469 6.7603 21.3812 6.79458C21.4155 6.82886 21.4427 6.86957 21.4612 6.91437C21.4798 6.95917 21.4893 7.00718 21.4893 7.05566V8.84863C21.4891 8.94643 21.4501 9.04016 21.3809 9.10925C21.3117 9.17834 21.2179 9.21714 21.1201 9.21714ZM6.24902 8.47886H20.751V7.42417H6.24902V8.47886Z" fill="#1E1E1E"/>
<path d="M7.46191 21.8734H0.369141C0.271348 21.8734 0.177551 21.8346 0.108342 21.7655C0.0391331 21.6964 0.000167645 21.6027 0 21.5049L0 12.0648C0.00011183 11.967 0.0390594 11.8732 0.108281 11.8041C0.177502 11.735 0.271331 11.6962 0.369141 11.6963H7.46191C7.5104 11.6963 7.55841 11.7058 7.60321 11.7243C7.64801 11.7429 7.68871 11.7701 7.723 11.8043C7.75728 11.8386 7.78447 11.8793 7.80301 11.9241C7.82155 11.9689 7.83108 12.0169 7.83105 12.0654V21.5049C7.83089 21.6027 7.79192 21.6964 7.72271 21.7655C7.6535 21.8346 7.55971 21.8734 7.46191 21.8734ZM0.738281 21.1351H7.09277V12.4346H0.738281V21.1351Z" fill="#1E1E1E"/>
<path d="M5.77441 17.2328H2.05664C1.95885 17.2328 1.86505 17.194 1.79584 17.1249C1.72663 17.0558 1.68767 16.9621 1.6875 16.8643V13.7523C1.68761 13.6545 1.72656 13.5607 1.79578 13.4916C1.865 13.4225 1.95883 13.3837 2.05664 13.3838H5.77441C5.8229 13.3838 5.87091 13.3933 5.91571 13.4118C5.96051 13.4304 6.00121 13.4576 6.0355 13.4918C6.06978 13.5261 6.09697 13.5668 6.11551 13.6116C6.13405 13.6564 6.14358 13.7044 6.14355 13.7529V16.8643C6.14339 16.9621 6.10442 17.0558 6.03521 17.1249C5.966 17.194 5.87221 17.2328 5.77441 17.2328ZM2.42578 16.4945H5.40527V14.1221H2.42578V16.4945Z" fill="#991220"/>
<path d="M7.46192 12.4346H0.369141C0.320612 12.4346 0.272558 12.425 0.227731 12.4064C0.182903 12.3878 0.142182 12.3606 0.107895 12.3262C0.0736092 12.2919 0.0464317 12.2511 0.0279179 12.2063C0.00940407 12.1614 -8.2651e-05 12.1133 5.4246e-07 12.0648V11.1156C0.000503009 10.7941 0.128471 10.486 0.355841 10.2587C0.583212 10.0315 0.891425 9.90366 1.21289 9.90332H7.46192C7.5104 9.90329 7.55841 9.91282 7.60321 9.93136C7.64801 9.9499 7.68872 9.97709 7.723 10.0114C7.75728 10.0457 7.78447 10.0864 7.80301 10.1312C7.82155 10.176 7.83108 10.224 7.83106 10.2725V12.0654C7.83106 12.1633 7.79216 12.2572 7.72294 12.3265C7.65371 12.3957 7.55982 12.4346 7.46192 12.4346ZM0.738282 11.6963H7.09277V10.6416H1.21289C1.08707 10.6418 0.966447 10.6918 0.877477 10.7808C0.788506 10.8698 0.738449 10.9904 0.738282 11.1162V11.6963Z" fill="#1E1E1E"/>
<path d="M17.9694 7.42437H9.03088C8.93298 7.42437 8.83909 7.38548 8.76986 7.31625C8.70063 7.24702 8.66174 7.15313 8.66174 7.05523V1.42383C8.66219 1.04634 8.81234 0.684446 9.07927 0.417523C9.34619 0.1506 9.70809 0.000446597 10.0856 0H16.9147C17.2921 0.000502287 17.654 0.150674 17.9209 0.417585C18.1878 0.684495 18.338 1.04636 18.3385 1.42383V7.05586C18.3383 7.15363 18.2993 7.24733 18.2301 7.31641C18.1609 7.38549 18.0671 7.42431 17.9694 7.42437ZM9.40002 6.68609H17.6002V1.42383C17.6 1.24208 17.5277 1.06784 17.3992 0.93932C17.2707 0.810803 17.0964 0.738505 16.9147 0.738281H10.0856C9.90382 0.738505 9.72958 0.810803 9.60106 0.93932C9.47255 1.06784 9.40025 1.24208 9.40002 1.42383V6.68609Z" fill="#1E1E1E"/>
<path d="M13.5 5.51876C13.4445 5.51879 13.3897 5.50624 13.3397 5.48206L8.87057 3.32648C8.80799 3.29637 8.75518 3.24918 8.71824 3.19037C8.68129 3.13156 8.66171 3.0635 8.66174 2.99405V1.42383C8.66219 1.04634 8.81234 0.684446 9.07927 0.417523C9.34619 0.1506 9.70809 0.000446597 10.0856 0H16.9147C17.2921 0.000502287 17.654 0.150674 17.9209 0.417585C18.1878 0.684495 18.338 1.04636 18.3385 1.42383V2.99341C18.3385 3.06289 18.3189 3.13095 18.2819 3.18976C18.2449 3.24857 18.1921 3.29574 18.1295 3.32585L13.6603 5.48206C13.6103 5.50624 13.5555 5.51879 13.5 5.51876ZM9.40002 2.76223L13.5 4.73955L17.6002 2.76223V1.42383C17.6 1.24208 17.5277 1.06784 17.3992 0.93932C17.2707 0.810803 17.0964 0.738505 16.9147 0.738281H10.0856C9.90382 0.738505 9.72958 0.810803 9.60106 0.93932C9.47255 1.06784 9.40025 1.24208 9.40002 1.42383V2.76223Z" fill="#991220"/>
<path d="M15.2276 14.173H11.7725C11.3331 14.1609 10.9157 13.9779 10.6092 13.6629C10.3027 13.3478 10.1312 12.9256 10.1312 12.4861C10.1312 12.0465 10.3027 11.6243 10.6092 11.3093C10.9157 10.9943 11.3331 10.8113 11.7725 10.7992H15.2276C15.453 10.793 15.6774 10.8321 15.8874 10.9141C16.0975 10.9961 16.289 11.1194 16.4506 11.2766C16.6122 11.4339 16.7407 11.6219 16.8284 11.8296C16.9161 12.0374 16.9613 12.2606 16.9613 12.4861C16.9613 12.7116 16.9161 12.9348 16.8284 13.1425C16.7407 13.3503 16.6122 13.5383 16.4506 13.6956C16.289 13.8528 16.0975 13.9761 15.8874 14.0581C15.6774 14.1401 15.453 14.1791 15.2276 14.173ZM11.7725 11.5375C11.5269 11.5465 11.2943 11.6503 11.1238 11.8273C10.9532 12.0042 10.8579 12.2403 10.8579 12.4861C10.8579 12.7318 10.9532 12.968 11.1238 13.1449C11.2943 13.3218 11.5269 13.4257 11.7725 13.4347H15.2276C15.3551 13.4393 15.4822 13.4182 15.6014 13.3727C15.7205 13.3271 15.8293 13.258 15.9211 13.1694C16.0129 13.0809 16.086 12.9747 16.1359 12.8573C16.1858 12.7399 16.2115 12.6137 16.2115 12.4861C16.2115 12.3585 16.1858 12.2323 16.1359 12.1148C16.086 11.9974 16.0129 11.8913 15.9211 11.8027C15.8293 11.7142 15.7205 11.6451 15.6014 11.5995C15.4822 11.5539 15.3551 11.5328 15.2276 11.5375H11.7725Z" fill="#991220"/>
</svg>
