<svg width="24" height="22" viewBox="0 0 24 22" fill="none" xmlns="http://www.w3.org/2000/svg">
<path d="M17.4311 16.961C17.1057 16.9606 16.7938 16.8312 16.5637 16.6011C16.3336 16.3711 16.2042 16.0592 16.2037 15.7338V14.8421H15.3122C14.9867 14.8421 14.6746 14.7128 14.4444 14.4827C14.2143 14.2525 14.085 13.9404 14.085 13.6149C14.085 13.2894 14.2143 12.9773 14.4444 12.7471C14.6746 12.517 14.9867 12.3877 15.3122 12.3877H16.2037V11.496C16.2078 11.1732 16.339 10.8651 16.5687 10.6383C16.7984 10.4116 17.1082 10.2844 17.431 10.2844C17.7538 10.2844 18.0636 10.4116 18.2933 10.6383C18.523 10.8651 18.6542 11.1732 18.6583 11.496V12.3877H19.5498C19.8753 12.3877 20.1874 12.517 20.4176 12.7471C20.6477 12.9773 20.777 13.2894 20.777 13.6149C20.777 13.9404 20.6477 14.2525 20.4176 14.4827C20.1874 14.7128 19.8753 14.8421 19.5498 14.8421H18.6583V15.7338C18.6578 16.0592 18.5284 16.371 18.2983 16.6011C18.0683 16.8311 17.7564 16.9606 17.4311 16.961ZM15.3122 13.1046C15.1769 13.1046 15.0471 13.1584 14.9514 13.2541C14.8557 13.3498 14.8019 13.4796 14.8019 13.6149C14.8019 13.7502 14.8557 13.88 14.9514 13.9757C15.0471 14.0714 15.1769 14.1252 15.3122 14.1252H16.5617C16.6088 14.1251 16.6554 14.1344 16.699 14.1524C16.7425 14.1704 16.782 14.1968 16.8153 14.2301C16.8486 14.2634 16.875 14.3029 16.893 14.3464C16.911 14.3899 16.9202 14.4366 16.9202 14.4837V15.7332C16.9229 15.8668 16.9778 15.994 17.0733 16.0875C17.1687 16.1811 17.297 16.2335 17.4306 16.2335C17.5642 16.2335 17.6925 16.1811 17.7879 16.0875C17.8833 15.994 17.9383 15.8668 17.941 15.7332V14.4837C17.9409 14.4366 17.9502 14.3899 17.9682 14.3464C17.9862 14.3029 18.0126 14.2634 18.0459 14.2301C18.0792 14.1968 18.1187 14.1704 18.1622 14.1524C18.2057 14.1344 18.2523 14.1251 18.2994 14.1252H19.549C19.6843 14.1252 19.8141 14.0714 19.9098 13.9757C20.0055 13.88 20.0593 13.7502 20.0593 13.6149C20.0593 13.4796 20.0055 13.3498 19.9098 13.2541C19.8141 13.1584 19.6843 13.1046 19.549 13.1046H18.2994C18.2523 13.1047 18.2057 13.0954 18.1622 13.0774C18.1187 13.0594 18.0792 13.033 18.0459 12.9997C18.0126 12.9664 17.9862 12.9269 17.9682 12.8834C17.9502 12.8399 17.9409 12.7932 17.941 12.7462V11.4966C17.9383 11.363 17.8833 11.2358 17.7879 11.1423C17.6925 11.0488 17.5642 10.9964 17.4306 10.9964C17.297 10.9964 17.1687 11.0488 17.0733 11.1423C16.9778 11.2358 16.9229 11.363 16.9202 11.4966V12.7462C16.9202 12.7932 16.911 12.8399 16.893 12.8834C16.875 12.9269 16.8486 12.9664 16.8153 12.9997C16.782 13.033 16.7425 13.0594 16.699 13.0774C16.6554 13.0954 16.6088 13.1047 16.5617 13.1046H15.3122Z" fill="#1E1E1E"/>
<path d="M9.88581 21.9035H3.19353C2.55268 21.9028 1.93827 21.6479 1.48512 21.1948C1.03196 20.7416 0.777072 20.1272 0.776367 19.4864V10.1231C0.77634 10.076 0.785594 10.0294 0.8036 9.98591C0.821605 9.94241 0.84801 9.90288 0.881303 9.86958C0.914596 9.83629 0.954125 9.80989 0.99763 9.79188C1.04113 9.77388 1.08776 9.76462 1.13485 9.76465H11.2226C11.3177 9.76465 11.4089 9.80242 11.4761 9.86964C11.5433 9.93687 11.5811 10.0281 11.5811 10.1231C11.5811 10.2182 11.5433 10.3094 11.4761 10.3766C11.4089 10.4438 11.3177 10.4816 11.2226 10.4816H1.49353V19.4864C1.49402 19.9371 1.6733 20.3693 1.99205 20.6881C2.31079 21.0068 2.74296 21.1861 3.19374 21.1866H9.88601C10.135 21.187 10.3811 21.1324 10.6066 21.0267C10.8321 20.921 11.0314 20.7668 11.1905 20.5751C11.2205 20.5389 11.2574 20.509 11.2991 20.4871C11.3407 20.4651 11.3863 20.4516 11.4331 20.4473C11.48 20.443 11.5272 20.4479 11.5722 20.4619C11.6171 20.4758 11.6589 20.4984 11.6951 20.5285C11.7313 20.5586 11.7612 20.5955 11.7831 20.6371C11.8051 20.6788 11.8186 20.7243 11.8229 20.7712C11.8272 20.818 11.8223 20.8653 11.8084 20.9102C11.7944 20.9552 11.7718 20.997 11.7417 21.0331C11.5155 21.3059 11.2319 21.5254 10.9111 21.6759C10.5903 21.8263 10.2402 21.9041 9.88581 21.9035Z" fill="#1E1E1E"/>
<path d="M11.2226 10.481H0.880832C0.647221 10.481 0.423178 10.3882 0.25799 10.223C0.0928017 10.0578 0 9.8338 0 9.60019V6.83479C0.000813069 6.60171 0.0939735 6.37846 0.259073 6.21393C0.424173 6.04941 0.647752 5.95703 0.880832 5.95703H12.2012C12.4228 5.95665 12.6363 6.04067 12.7983 6.19203C12.9603 6.34338 13.0586 6.55071 13.0732 6.7719C13.079 6.86681 13.0469 6.96016 12.9839 7.0314C12.9528 7.06668 12.9149 7.09546 12.8726 7.11612C12.8303 7.13678 12.7843 7.1489 12.7373 7.15179C12.6424 7.15763 12.5491 7.12553 12.4778 7.06254C12.4066 6.99956 12.3633 6.91086 12.3575 6.81595C12.3544 6.77683 12.3365 6.74036 12.3075 6.71398C12.2784 6.6876 12.2404 6.67329 12.2012 6.67399H0.880832C0.837784 6.67361 0.796345 6.69033 0.765618 6.72048C0.734891 6.75063 0.717389 6.79174 0.716956 6.83479V9.60122C0.717487 9.64451 0.734923 9.68589 0.765541 9.71651C0.79616 9.74713 0.837534 9.76456 0.880832 9.76509H11.2226C11.3177 9.76509 11.4089 9.80286 11.4761 9.87009C11.5433 9.93732 11.5811 10.0285 11.5811 10.1236C11.5811 10.2186 11.5433 10.3098 11.4761 10.3771C11.4089 10.4443 11.3177 10.482 11.2226 10.482V10.481Z" fill="#991220"/>
<path d="M2.07302 10.4808C2.02593 10.4808 1.97931 10.4716 1.9358 10.4536C1.8923 10.4356 1.85277 10.4092 1.81947 10.3759C1.78618 10.3426 1.75978 10.3031 1.74177 10.2595C1.72377 10.216 1.71451 10.1694 1.71454 10.1223V8.2181C1.71454 8.12302 1.75231 8.03184 1.81953 7.96462C1.88676 7.89739 1.97794 7.85962 2.07302 7.85962C2.16809 7.85962 2.25927 7.89739 2.3265 7.96462C2.39373 8.03184 2.43149 8.12302 2.43149 8.2181V10.1219C2.43158 10.169 2.42236 10.2157 2.40438 10.2593C2.3864 10.3028 2.36 10.3424 2.3267 10.3757C2.29341 10.4091 2.25386 10.4355 2.21033 10.4535C2.1668 10.4716 2.12013 10.4808 2.07302 10.4808Z" fill="#991220"/>
<path d="M3.85988 10.4808C3.8128 10.4808 3.76617 10.4716 3.72267 10.4536C3.67916 10.4356 3.63963 10.4092 3.60634 10.3759C3.57305 10.3426 3.54664 10.3031 3.52864 10.2595C3.51063 10.216 3.50138 10.1694 3.5014 10.1223V8.2181C3.5014 8.12302 3.53917 8.03184 3.6064 7.96462C3.67363 7.89739 3.76481 7.85962 3.85988 7.85962C3.95496 7.85962 4.04614 7.89739 4.11336 7.96462C4.18059 8.03184 4.21836 8.12302 4.21836 8.2181V10.1219C4.21841 10.169 4.20918 10.2157 4.19119 10.2592C4.1732 10.3028 4.1468 10.3423 4.11351 10.3757C4.08022 10.409 4.04068 10.4354 3.99716 10.4535C3.95364 10.4715 3.90699 10.4808 3.85988 10.4808Z" fill="#991220"/>
<path d="M5.64632 10.4808C5.55125 10.4808 5.46006 10.443 5.39284 10.3758C5.32561 10.3086 5.28784 10.2174 5.28784 10.1223V8.2181C5.28784 8.12302 5.32561 8.03184 5.39284 7.96462C5.46006 7.89739 5.55125 7.85962 5.64632 7.85962C5.74139 7.85962 5.83257 7.89739 5.8998 7.96462C5.96703 8.03184 6.0048 8.12302 6.0048 8.2181V10.1219C6.00488 10.169 5.99566 10.2157 5.97768 10.2593C5.9597 10.3028 5.93331 10.3424 5.90001 10.3757C5.86671 10.4091 5.82716 10.4355 5.78363 10.4535C5.7401 10.4716 5.69344 10.4808 5.64632 10.4808Z" fill="#991220"/>
<path d="M7.43319 10.4808C7.3861 10.4808 7.33947 10.4716 7.29597 10.4536C7.25246 10.4356 7.21294 10.4092 7.17964 10.3759C7.14635 10.3426 7.11995 10.3031 7.10194 10.2595C7.08393 10.216 7.07468 10.1694 7.07471 10.1223V8.2181C7.07471 8.17102 7.08398 8.12441 7.10199 8.08091C7.12001 8.03742 7.14641 7.9979 7.1797 7.96462C7.21299 7.93133 7.25251 7.90492 7.296 7.88691C7.33949 7.86889 7.38611 7.85962 7.43319 7.85962C7.48026 7.85962 7.52688 7.86889 7.57037 7.88691C7.61386 7.90492 7.65338 7.93133 7.68667 7.96462C7.71996 7.9979 7.74636 8.03742 7.76438 8.08091C7.78239 8.12441 7.79166 8.17102 7.79166 8.2181V10.1219C7.79174 10.169 7.78253 10.2157 7.76455 10.2593C7.74657 10.3028 7.72017 10.3424 7.68687 10.3757C7.65357 10.4091 7.61403 10.4355 7.5705 10.4535C7.52696 10.4716 7.4803 10.4808 7.43319 10.4808Z" fill="#991220"/>
<path d="M9.22005 10.4808C9.17297 10.4808 9.12634 10.4716 9.08284 10.4536C9.03933 10.4356 8.9998 10.4092 8.96651 10.3759C8.93322 10.3426 8.90681 10.3031 8.8888 10.2595C8.8708 10.216 8.86155 10.1694 8.86157 10.1223V8.2181C8.86157 8.12302 8.89934 8.03184 8.96657 7.96462C9.0338 7.89739 9.12498 7.85962 9.22005 7.85962C9.31512 7.85962 9.40631 7.89739 9.47353 7.96462C9.54076 8.03184 9.57853 8.12302 9.57853 8.2181V10.1219C9.57858 10.169 9.56935 10.2157 9.55136 10.2592C9.53337 10.3028 9.50697 10.3423 9.47368 10.3757C9.44038 10.409 9.40085 10.4354 9.35733 10.4535C9.31381 10.4715 9.26716 10.4808 9.22005 10.4808Z" fill="#991220"/>
<path d="M11.2226 18.4094H1.13503C1.08794 18.4094 1.04132 18.4002 0.997813 18.3822C0.954308 18.3642 0.914779 18.3378 0.881486 18.3045C0.848193 18.2712 0.821789 18.2317 0.803783 18.1882C0.785777 18.1447 0.776523 18.098 0.77655 18.0509V13.6148C0.776523 13.5677 0.785777 13.5211 0.803783 13.4776C0.821789 13.4341 0.848193 13.3946 0.881486 13.3613C0.914779 13.328 0.954308 13.3016 0.997813 13.2836C1.04132 13.2656 1.08794 13.2563 1.13503 13.2563H11.2226C11.3177 13.2563 11.4089 13.2941 11.4761 13.3613C11.5433 13.4286 11.5811 13.5198 11.5811 13.6148C11.5811 13.7099 11.5433 13.8011 11.4761 13.8683C11.4089 13.9355 11.3177 13.9733 11.2226 13.9733H1.49351V17.6925H11.2236C11.3187 17.6925 11.4099 17.7302 11.4771 17.7975C11.5443 17.8647 11.5821 17.9559 11.5821 18.0509C11.5821 18.146 11.5443 18.2372 11.4771 18.3044C11.4099 18.3717 11.3187 18.4094 11.2236 18.4094H11.2226Z" fill="#1E1E1E"/>
<path d="M22.0589 21.9041H12.8032C12.2888 21.9035 11.7956 21.6989 11.4319 21.3352C11.0681 20.9714 10.8635 20.4782 10.8629 19.9638V9.32072C10.8638 8.92706 10.9438 8.5376 11.0981 8.17547C11.2524 7.81333 11.478 7.48591 11.7614 7.21266L12.6184 6.3898C12.8408 6.17523 13.0178 5.91817 13.1388 5.63388C13.2599 5.34959 13.3227 5.04386 13.3233 4.73486V3.47322C13.3233 3.42614 13.3325 3.37951 13.3505 3.33601C13.3685 3.2925 13.3949 3.25297 13.4282 3.21968C13.4615 3.18639 13.5011 3.15998 13.5446 3.14198C13.5881 3.12397 13.6347 3.11472 13.6818 3.11475H21.4536C21.5007 3.11472 21.5473 3.12397 21.5908 3.14198C21.6343 3.15998 21.6738 3.18639 21.7071 3.21968C21.7404 3.25297 21.7668 3.2925 21.7848 3.33601C21.8028 3.37951 21.8121 3.42614 21.8121 3.47322V4.8252C21.8114 5.40317 22.0296 5.95997 22.4227 6.38366L23.2216 7.24646C23.7225 7.7862 24.0006 8.49547 24 9.23181V19.963C23.9997 20.4777 23.7951 20.9713 23.4311 21.3352C23.0672 21.6992 22.5736 21.9038 22.0589 21.9041ZM14.0403 3.8317V4.73486C14.0394 5.14034 13.957 5.5415 13.798 5.9145C13.639 6.28751 13.4067 6.62476 13.1148 6.90621L12.2579 7.72949C12.044 7.9356 11.8737 8.18264 11.7573 8.4559C11.6408 8.72916 11.5805 9.02305 11.5799 9.3201V19.9632C11.5803 20.2875 11.7093 20.5985 11.9386 20.8278C12.1679 21.0572 12.4789 21.1862 12.8032 21.1865H22.0589C22.3832 21.1861 22.6941 21.0571 22.9234 20.8277C23.1527 20.5984 23.2816 20.2875 23.282 19.9632V9.23263C23.2827 8.67696 23.073 8.14163 22.6951 7.7342L21.8963 6.87139C21.3804 6.31528 21.0941 5.58455 21.0949 4.82602V3.8317H14.0403Z" fill="#1E1E1E"/>
<path d="M22.3389 3.83162H12.5234C12.3285 3.8314 12.1416 3.75387 12.0038 3.61605C11.866 3.47822 11.7884 3.29135 11.7882 3.09643V0.735392C11.7884 0.540456 11.8659 0.353563 12.0038 0.215703C12.1416 0.0778433 12.3285 0.000271076 12.5234 0H22.3389C22.5338 0.000325257 22.7207 0.0779214 22.8584 0.215775C22.9962 0.35363 23.0737 0.540491 23.0739 0.735392V3.09643C23.0737 3.29131 22.9962 3.47815 22.8584 3.61597C22.7206 3.7538 22.5338 3.83135 22.3389 3.83162ZM12.5234 0.71798C12.521 0.71798 12.5186 0.718458 12.5164 0.719387C12.5141 0.720316 12.5121 0.721678 12.5104 0.723392C12.5087 0.725107 12.5074 0.727141 12.5065 0.729377C12.5056 0.731612 12.5051 0.734005 12.5052 0.736416V3.09643C12.5052 3.10127 12.5071 3.1059 12.5105 3.10932C12.5139 3.11274 12.5186 3.11466 12.5234 3.11466H22.3389C22.3437 3.11461 22.3483 3.11266 22.3517 3.10925C22.3551 3.10584 22.357 3.10123 22.357 3.09643V0.735392C22.357 0.732998 22.3565 0.730622 22.3557 0.7284C22.3548 0.726177 22.3534 0.724152 22.3518 0.72244C22.3501 0.720728 22.3481 0.719363 22.3459 0.718422C22.3437 0.717481 22.3413 0.716983 22.3389 0.716956L12.5234 0.71798Z" fill="#991220"/>
<path d="M14.2603 3.83157C14.2132 3.8316 14.1666 3.82234 14.1231 3.80434C14.0796 3.78633 14.04 3.75993 14.0067 3.72663C13.9734 3.69334 13.947 3.65381 13.929 3.61031C13.911 3.5668 13.9018 3.52018 13.9018 3.47309V0.359455C13.9018 0.26438 13.9396 0.1732 14.0068 0.105972C14.074 0.0387446 14.1652 0.000976562 14.2603 0.000976562C14.3553 0.000976562 14.4465 0.0387446 14.5138 0.105972C14.581 0.1732 14.6188 0.26438 14.6188 0.359455V3.47309C14.6188 3.52018 14.6095 3.5668 14.5915 3.61031C14.5735 3.65381 14.5471 3.69334 14.5138 3.72663C14.4805 3.75993 14.441 3.78633 14.3975 3.80434C14.354 3.82234 14.3074 3.8316 14.2603 3.83157Z" fill="#991220"/>
<path d="M16.374 3.83157C16.327 3.83157 16.2803 3.8223 16.2369 3.80428C16.1934 3.78627 16.1538 3.75986 16.1206 3.72657C16.0873 3.69329 16.0609 3.65377 16.0429 3.61028C16.0248 3.56678 16.0156 3.52017 16.0156 3.47309V0.359455C16.0156 0.26438 16.0533 0.1732 16.1206 0.105972C16.1878 0.0387446 16.279 0.000976562 16.374 0.000976562C16.4691 0.000976562 16.5603 0.0387446 16.6275 0.105972C16.6948 0.1732 16.7325 0.26438 16.7325 0.359455V3.47309C16.7325 3.52018 16.7233 3.5668 16.7053 3.61031C16.6873 3.65381 16.6609 3.69334 16.6276 3.72663C16.5943 3.75993 16.5548 3.78633 16.5113 3.80434C16.4678 3.82234 16.4211 3.8316 16.374 3.83157Z" fill="#991220"/>
<path d="M18.488 3.83157C18.4409 3.8316 18.3943 3.82234 18.3508 3.80434C18.3073 3.78633 18.2677 3.75993 18.2345 3.72663C18.2012 3.69334 18.1748 3.65381 18.1567 3.61031C18.1387 3.5668 18.1295 3.52018 18.1295 3.47309V0.359455C18.1295 0.26438 18.1673 0.1732 18.2345 0.105972C18.3017 0.0387446 18.3929 0.000976562 18.488 0.000976562C18.5831 0.000976562 18.6742 0.0387446 18.7415 0.105972C18.8087 0.1732 18.8465 0.26438 18.8465 0.359455V3.47309C18.8465 3.52018 18.8372 3.5668 18.8192 3.61031C18.8012 3.65381 18.7748 3.69334 18.7415 3.72663C18.7082 3.75993 18.6687 3.78633 18.6252 3.80434C18.5817 3.82234 18.5351 3.8316 18.488 3.83157Z" fill="#991220"/>
<path d="M20.6016 3.83157C20.5546 3.8316 20.5079 3.82234 20.4644 3.80434C20.4209 3.78633 20.3814 3.75993 20.3481 3.72663C20.3148 3.69334 20.2884 3.65381 20.2704 3.61031C20.2524 3.5668 20.2431 3.52018 20.2432 3.47309V0.359455C20.2432 0.26438 20.2809 0.1732 20.3482 0.105972C20.4154 0.0387446 20.5066 0.000976562 20.6016 0.000976562C20.6967 0.000976562 20.7879 0.0387446 20.8551 0.105972C20.9224 0.1732 20.9601 0.26438 20.9601 0.359455V3.47309C20.9601 3.52018 20.9509 3.5668 20.9329 3.61031C20.9149 3.65381 20.8885 3.69334 20.8552 3.72663C20.8219 3.75993 20.7824 3.78633 20.7389 3.80434C20.6954 3.82234 20.6487 3.8316 20.6016 3.83157Z" fill="#991220"/>
<path d="M17.4311 18.8282C16.4 18.8282 15.392 18.5224 14.5347 17.9496C13.6774 17.3768 13.0092 16.5626 12.6146 15.6099C12.22 14.6573 12.1168 13.6091 12.3179 12.5978C12.5191 11.5866 13.0156 10.6576 13.7447 9.92855C14.4738 9.19946 15.4027 8.70294 16.414 8.50179C17.4253 8.30063 18.4735 8.40387 19.4261 8.79845C20.3787 9.19303 21.1929 9.86123 21.7658 10.7186C22.3386 11.5759 22.6444 12.5838 22.6444 13.6149C22.6428 14.9971 22.093 16.3222 21.1157 17.2995C20.1383 18.2769 18.8132 18.8266 17.4311 18.8282ZM17.4311 9.11857C16.5418 9.11857 15.6725 9.38228 14.933 9.87634C14.1936 10.3704 13.6173 11.0726 13.277 11.8942C12.9367 12.7158 12.8476 13.6199 13.0211 14.4921C13.1946 15.3643 13.6229 16.1655 14.2517 16.7943C14.8805 17.4231 15.6817 17.8514 16.5539 18.0248C17.4261 18.1983 18.3301 18.1093 19.1517 17.769C19.9733 17.4287 20.6756 16.8524 21.1696 16.1129C21.6637 15.3735 21.9274 14.5042 21.9274 13.6149C21.9261 12.4228 21.4519 11.2799 20.609 10.437C19.766 9.59408 18.6232 9.11993 17.4311 9.11857Z" fill="#1E1E1E"/>
</svg>
