<svg width="18" height="24" viewBox="0 0 18 24" fill="none" xmlns="http://www.w3.org/2000/svg">
<path d="M3.78585 11.5637H3.32382C2.76484 11.5631 2.22896 11.3407 1.8337 10.9455C1.43844 10.5502 1.21609 10.0143 1.21541 9.45534C1.21347 8.9976 1.36332 8.55212 1.64151 8.1886C1.69985 8.10927 1.7644 8.03468 1.83454 7.96554C2.02918 7.76874 2.26108 7.61268 2.51669 7.50647C2.7723 7.40026 3.04651 7.34602 3.32331 7.34694H3.78534C3.90445 7.347 4.01867 7.39435 4.10289 7.47858C4.18712 7.5628 4.23447 7.67702 4.23453 7.79613V11.1135C4.23464 11.1725 4.22311 11.231 4.20062 11.2856C4.17812 11.3402 4.1451 11.3898 4.10344 11.4316C4.06177 11.4734 4.01228 11.5066 3.95779 11.5292C3.9033 11.5519 3.84487 11.5636 3.78585 11.5637ZM3.32382 8.24533C3.16521 8.24469 3.00806 8.27571 2.8616 8.33658C2.71513 8.39744 2.58229 8.48694 2.47086 8.59981C2.43124 8.6388 2.39476 8.68086 2.36177 8.72559C2.20011 8.93442 2.11284 9.19126 2.11381 9.45534C2.11415 9.77597 2.2416 10.0834 2.46822 10.3102C2.69485 10.537 3.00216 10.6647 3.32279 10.6654H3.33665V8.2443L3.32382 8.24533Z" fill="#1E1E1E"/>
<path d="M8.84024 15.4476C7.56393 15.4487 6.32696 15.006 5.34128 14.1951C4.35561 13.3843 3.68259 12.256 3.43755 11.0034C3.3703 10.6552 3.33652 10.3013 3.33667 9.94663V5.66206C3.33669 5.46732 3.367 5.27378 3.42651 5.08837C3.56522 4.66342 3.85325 4.30315 4.23723 4.0743C4.62122 3.84545 5.07513 3.76352 5.51489 3.8437C6.61233 4.04047 7.72532 4.13747 8.84024 4.1335C9.95499 4.13735 11.0678 4.04036 12.1651 3.8437C12.4314 3.79512 12.7051 3.80568 12.9669 3.87465C13.2286 3.94363 13.472 4.06931 13.6798 4.24281C13.8876 4.41631 14.0547 4.63338 14.1693 4.87864C14.2838 5.1239 14.3431 5.39136 14.3428 5.66206V9.94663C14.3431 10.3014 14.3093 10.6554 14.2419 11.0037C13.9976 12.2564 13.3249 13.385 12.3393 14.1959C11.3537 15.0067 10.1166 15.4493 8.84024 15.4476ZM5.18069 4.71027C4.9813 4.7111 4.78722 4.77467 4.62597 4.89197C4.46472 5.00926 4.34449 5.17434 4.2823 5.36379C4.25186 5.45994 4.23628 5.56017 4.23609 5.66103V9.94663C4.23437 10.7747 4.45668 11.5879 4.87946 12.2999C5.30224 13.0119 5.90975 13.5963 6.63763 13.9912C7.31616 14.3516 8.07272 14.54 8.84101 14.54C9.6093 14.54 10.3659 14.3516 11.0444 13.9912C11.6382 13.6669 12.1534 13.216 12.5535 12.6704C12.9537 12.1248 13.2289 11.4978 13.3597 10.834C13.4158 10.5416 13.4437 10.2444 13.4431 9.94663V5.66206C13.4434 5.52241 13.4129 5.38443 13.3538 5.25791C13.2947 5.13139 13.2084 5.01943 13.1012 4.92999C12.9951 4.84144 12.8707 4.77737 12.737 4.74232C12.6033 4.70727 12.4635 4.70211 12.3276 4.72721C11.1767 4.9338 10.0095 5.03578 8.84024 5.0319C7.67099 5.03579 6.50379 4.93382 5.35293 4.72721C5.29616 4.7163 5.2385 4.71063 5.18069 4.71027Z" fill="#1E1E1E"/>
<path d="M14.3548 11.5635H13.8928C13.7737 11.5635 13.6594 11.5162 13.5752 11.432C13.4909 11.3477 13.4436 11.2335 13.4436 11.1143V7.7949C13.4436 7.67577 13.4909 7.56151 13.5752 7.47727C13.6594 7.39303 13.7737 7.3457 13.8928 7.3457H14.3548C14.914 7.3457 15.4503 7.56784 15.8457 7.96324C16.2411 8.35864 16.4632 8.89493 16.4632 9.45411C16.4632 10.0133 16.2411 10.5496 15.8457 10.945C15.4503 11.3404 14.914 11.5625 14.3548 11.5625V11.5635ZM14.3412 10.6651H14.3548C14.6757 10.6651 14.9835 10.5377 15.2104 10.3107C15.4374 10.0838 15.5648 9.77605 15.5648 9.45514C15.5648 9.13422 15.4374 8.82645 15.2104 8.59953C14.9835 8.37261 14.6757 8.24513 14.3548 8.24513H14.3412V10.6651Z" fill="#1E1E1E"/>
<path d="M1.99754 8.90926C1.93852 8.90936 1.88006 8.89781 1.82552 8.87528C1.77097 8.85274 1.72141 8.81965 1.67968 8.77792C1.63795 8.73619 1.60487 8.68663 1.58233 8.63208C1.55979 8.57754 1.54824 8.51908 1.54834 8.46006V3.80406C1.54917 3.26191 1.74066 2.73733 2.08927 2.32213C2.43789 1.90692 2.92142 1.62755 3.45525 1.53292C3.55653 1.09722 3.80225 0.708611 4.15243 0.430291C4.50262 0.151971 4.93666 0.00031877 5.38398 0H12.0834C13.0792 0.000883147 14.034 0.39678 14.7382 1.10081C15.4424 1.80485 15.8386 2.7595 15.8398 3.75529V8.16051C15.8397 8.24534 15.8156 8.32842 15.7703 8.40012C15.725 8.47183 15.6603 8.52924 15.5837 8.56571C15.5071 8.60218 15.4217 8.61621 15.3375 8.60619C15.2533 8.59617 15.1736 8.56251 15.1077 8.50909C14.895 8.33624 14.6289 8.24253 14.3548 8.24394H13.8928C13.7737 8.24394 13.6594 8.19661 13.5752 8.11237C13.4909 8.02813 13.4436 7.91387 13.4436 7.79474V5.65989C13.4438 5.52014 13.4131 5.38206 13.3538 5.25552C13.2945 5.12897 13.208 5.01709 13.1004 4.92783C12.9944 4.8393 12.8702 4.77523 12.7366 4.74018C12.603 4.70513 12.4634 4.69996 12.3275 4.72505C11.1767 4.93183 10.0095 5.03407 8.84023 5.0305C7.671 5.03434 6.50381 4.93245 5.35292 4.72607C5.13265 4.6865 4.90547 4.72599 4.71147 4.83757C4.51748 4.94915 4.36911 5.12566 4.29255 5.33596C4.27022 5.56697 4.24686 6.74618 4.23634 7.80013C4.23512 7.91846 4.18726 8.03153 4.10315 8.11478C4.01904 8.19802 3.90548 8.24471 3.78714 8.24471H3.32511C3.1665 8.24406 3.00936 8.27508 2.86289 8.33595C2.71642 8.39682 2.58358 8.48631 2.47215 8.59919C2.43253 8.63818 2.39606 8.68023 2.36306 8.72496C2.3211 8.78246 2.26608 8.82915 2.20253 8.8612C2.13897 8.89324 2.06871 8.90972 1.99754 8.90926ZM3.71373 2.40359C3.36668 2.43885 3.04503 2.60156 2.81099 2.86025C2.57696 3.11894 2.44717 3.45522 2.44674 3.80406V7.53549C2.72167 7.40983 3.02052 7.34512 3.3228 7.3458H3.34154C3.36721 5.27512 3.40366 5.16013 3.42624 5.08954C3.56507 4.66454 3.85302 4.30415 4.2369 4.07493C4.62077 3.84572 5.07463 3.76318 5.51463 3.84257C6.61217 4.03911 7.72524 4.13602 8.84023 4.13211C9.95507 4.13593 11.068 4.03893 12.1653 3.84231C12.4314 3.79399 12.7049 3.80473 12.9664 3.87377C13.2279 3.94282 13.4711 4.06848 13.6787 4.24187C13.8862 4.41526 14.0532 4.63215 14.1677 4.87719C14.2822 5.12222 14.3414 5.38943 14.3412 5.65989V7.34503H14.3548C14.5533 7.34502 14.7508 7.37319 14.9414 7.42871V3.75529C14.9404 2.99784 14.6391 2.2717 14.1035 1.73612C13.5678 1.20055 12.8417 0.899279 12.0842 0.898396H5.38475C5.09856 0.898395 4.82406 1.01189 4.62143 1.21398C4.41881 1.41608 4.3046 1.69029 4.30385 1.97647C4.30386 2.04759 4.287 2.11769 4.25464 2.18102C4.22229 2.24435 4.17537 2.2991 4.11774 2.34077C4.06011 2.38244 3.99342 2.40983 3.92314 2.42071C3.85286 2.43159 3.781 2.42563 3.71347 2.40334L3.71373 2.40359Z" fill="#1E1E1E"/>
<path d="M2.56171 24.0001H0.449198C0.330063 24.0001 0.215808 23.9528 0.131567 23.8686C0.0473262 23.7843 0 23.6701 0 23.5509V20.1935C0.00118022 19.5647 0.195403 18.9514 0.556412 18.4366C0.917421 17.9217 1.42781 17.5302 2.01857 17.3148L2.40873 17.1733C2.47658 17.1488 2.54936 17.1409 2.6209 17.1504C2.69244 17.1599 2.76063 17.1865 2.81971 17.228C2.87879 17.2694 2.92701 17.3245 2.96029 17.3885C2.99357 17.4526 3.01094 17.5237 3.01091 17.5958V23.5509C3.01091 23.6701 2.96358 23.7843 2.87934 23.8686C2.7951 23.9528 2.68085 24.0001 2.56171 24.0001ZM0.898396 23.1017H2.11251V18.2504C1.74889 18.4289 1.44247 18.7055 1.22791 19.0491C1.01334 19.3927 0.899203 19.7895 0.898396 20.1945V23.1017Z" fill="#1E1E1E"/>
<path d="M17.2312 24.0001H5.01048C4.89134 24.0001 4.77709 23.9528 4.69285 23.8685C4.60861 23.7843 4.56128 23.67 4.56128 23.5509V16.7077C4.56147 16.6158 4.58984 16.5261 4.64258 16.4509C4.69532 16.3756 4.76989 16.3183 4.85621 16.2867L6.19097 15.4843C6.27838 15.4317 6.38109 15.4105 6.4822 15.4241C6.5833 15.4376 6.67677 15.4852 6.7472 15.559C7.01673 15.8428 7.34143 16.0685 7.70135 16.2223C8.06127 16.376 8.44883 16.4546 8.84021 16.4531C9.23148 16.4546 9.61892 16.376 9.97871 16.2223C10.3385 16.0685 10.6631 15.8428 10.9324 15.559C11.0031 15.4852 11.0968 15.4375 11.1981 15.4238C11.2995 15.41 11.4024 15.4311 11.4902 15.4836L12.8224 16.286C12.9087 16.3177 12.9832 16.3752 13.0358 16.4506C13.0884 16.526 13.1166 16.6158 13.1166 16.7077V21.2074H14.6669V17.5958C14.6669 17.5237 14.6842 17.4527 14.7174 17.3887C14.7506 17.3247 14.7987 17.2697 14.8576 17.2282C14.9166 17.1867 14.9847 17.1601 15.0561 17.1505C15.1276 17.1409 15.2003 17.1486 15.2681 17.1731L15.6608 17.3142C16.2519 17.5295 16.7625 17.9211 17.1237 18.436C17.4849 18.951 17.6793 19.5645 17.6804 20.1935V23.5509C17.6804 23.67 17.6331 23.7843 17.5489 23.8685C17.4646 23.9528 17.3504 24.0001 17.2312 24.0001ZM5.45967 23.1017H16.782V20.1935C16.7812 19.7879 16.6668 19.3907 16.4518 19.0469C16.2367 18.703 15.9296 18.4263 15.5653 18.2481V21.6566C15.5653 21.7757 15.518 21.89 15.4338 21.9742C15.3495 22.0584 15.2353 22.1058 15.1161 22.1058H12.6674C12.5482 22.1058 12.434 22.0584 12.3497 21.9742C12.2655 21.89 12.2182 21.7757 12.2182 21.6566V16.9708L11.3198 16.43C10.6323 17.0276 9.75111 17.355 8.84021 17.3515C7.92949 17.3548 7.04857 17.0271 6.36141 16.4295L5.45967 16.9713V23.1017Z" fill="#1E1E1E"/>
<path d="M8.84022 17.3514C8.32734 17.3532 7.81952 17.2501 7.34795 17.0484C6.87638 16.8467 6.45104 16.5507 6.09806 16.1786C6.01818 16.0951 5.97359 15.9839 5.97357 15.8683V14.3844C5.97363 14.3064 5.99398 14.2298 6.03262 14.1621C6.07125 14.0943 6.12685 14.0378 6.19394 13.9981C6.26103 13.9583 6.33731 13.9367 6.41527 13.9354C6.49324 13.934 6.57022 13.953 6.63864 13.9904C7.317 14.3506 8.07333 14.5389 8.84138 14.5389C9.60942 14.5389 10.3658 14.3506 11.0441 13.9904C11.1125 13.9531 11.1895 13.9342 11.2674 13.9356C11.3453 13.937 11.4215 13.9587 11.4885 13.9985C11.5555 14.0382 11.611 14.0947 11.6496 14.1625C11.6881 14.2302 11.7084 14.3067 11.7084 14.3847V15.8683C11.7084 15.9275 11.6967 15.9861 11.6739 16.0408C11.6512 16.0954 11.6179 16.1451 11.576 16.1868C11.2231 16.5567 10.7984 16.8507 10.3281 17.051C9.85769 17.2512 9.35144 17.3534 8.84022 17.3514ZM6.8712 15.6807C7.40514 16.1796 8.10944 16.4559 8.84022 16.453C9.571 16.4559 10.2753 16.1796 10.8092 15.6807V15.0849C9.53984 15.5616 8.14061 15.5616 6.8712 15.0849V15.6807Z" fill="#1E1E1E"/>
<path d="M5.01046 24H2.56169C2.44255 24 2.3283 23.9526 2.24405 23.8684C2.15981 23.7841 2.11249 23.6699 2.11249 23.5508V17.4622C2.1133 17.059 2.27401 16.6726 2.55937 16.3877C2.84472 16.1028 3.23142 15.9428 3.63463 15.9426H5.01046C5.12959 15.9426 5.24384 15.99 5.32809 16.0742C5.41233 16.1584 5.45965 16.2727 5.45965 16.3918V23.5508C5.45965 23.6699 5.41233 23.7841 5.32809 23.8684C5.24384 23.9526 5.12959 24 5.01046 24ZM3.01088 23.1016H4.56126V16.841H3.63463C3.46958 16.8408 3.3112 16.9061 3.19425 17.0226C3.07731 17.139 3.01136 17.2972 3.01088 17.4622V23.1016Z" fill="#991220"/>
<path d="M15.1162 22.1056H12.6674C12.5483 22.1056 12.434 22.0583 12.3498 21.9741C12.2655 21.8898 12.2182 21.7756 12.2182 21.6564V16.3918C12.2182 16.2727 12.2655 16.1584 12.3498 16.0742C12.434 15.99 12.5483 15.9426 12.6674 15.9426H14.0432C14.4464 15.9428 14.8331 16.1028 15.1185 16.3877C15.4038 16.6726 15.5645 17.059 15.5654 17.4622V21.6564C15.5654 21.7756 15.518 21.8898 15.4338 21.9741C15.3496 22.0583 15.2353 22.1056 15.1162 22.1056ZM13.1166 21.2072H14.667V17.4622C14.6664 17.2972 14.6005 17.1391 14.4835 17.0227C14.3666 16.9062 14.2083 16.8409 14.0432 16.841H13.1166V21.2072Z" fill="#991220"/>
<path d="M5.01046 18.3791H4.04789C3.92876 18.3791 3.8145 18.3318 3.73026 18.2475C3.64602 18.1633 3.59869 18.049 3.59869 17.9299C3.59869 17.8108 3.64602 17.6965 3.73026 17.6123C3.8145 17.528 3.92876 17.4807 4.04789 17.4807H5.01046C5.12959 17.4807 5.24385 17.528 5.32809 17.6123C5.41233 17.6965 5.45966 17.8108 5.45966 17.9299C5.45966 18.049 5.41233 18.1633 5.32809 18.2475C5.24385 18.3318 5.12959 18.3791 5.01046 18.3791Z" fill="#991220"/>
<path d="M5.01046 20.5732H4.04789C3.92876 20.5732 3.8145 20.5259 3.73026 20.4416C3.64602 20.3574 3.59869 20.2431 3.59869 20.124C3.59869 20.0049 3.64602 19.8906 3.73026 19.8064C3.8145 19.7221 3.92876 19.6748 4.04789 19.6748H5.01046C5.12959 19.6748 5.24385 19.7221 5.32809 19.8064C5.41233 19.8906 5.45966 20.0049 5.45966 20.124C5.45966 20.2431 5.41233 20.3574 5.32809 20.4416C5.24385 20.5259 5.12959 20.5732 5.01046 20.5732Z" fill="#991220"/>
<path d="M13.6297 18.3791H12.6674C12.5483 18.3791 12.434 18.3318 12.3498 18.2475C12.2655 18.1633 12.2182 18.049 12.2182 17.9299C12.2182 17.8108 12.2655 17.6965 12.3498 17.6123C12.434 17.528 12.5483 17.4807 12.6674 17.4807H13.6297C13.7488 17.4807 13.8631 17.528 13.9473 17.6123C14.0316 17.6965 14.0789 17.8108 14.0789 17.9299C14.0789 18.049 14.0316 18.1633 13.9473 18.2475C13.8631 18.3318 13.7488 18.3791 13.6297 18.3791Z" fill="#991220"/>
<path d="M13.6297 20.5732H12.6674C12.5483 20.5732 12.434 20.5259 12.3498 20.4416C12.2655 20.3574 12.2182 20.2431 12.2182 20.124C12.2182 20.0049 12.2655 19.8906 12.3498 19.8064C12.434 19.7221 12.5483 19.6748 12.6674 19.6748H13.6297C13.7488 19.6748 13.8631 19.7221 13.9473 19.8064C14.0316 19.8906 14.0789 20.0049 14.0789 20.124C14.0789 20.2431 14.0316 20.3574 13.9473 20.4416C13.8631 20.5259 13.7488 20.5732 13.6297 20.5732Z" fill="#991220"/>
<path d="M5.01046 22.7649H4.04789C3.92876 22.7649 3.8145 22.7175 3.73026 22.6333C3.64602 22.549 3.59869 22.4348 3.59869 22.3157C3.59869 22.1965 3.64602 22.0823 3.73026 21.998C3.8145 21.9138 3.92876 21.8665 4.04789 21.8665H5.01046C5.12959 21.8665 5.24385 21.9138 5.32809 21.998C5.41233 22.0823 5.45966 22.1965 5.45966 22.3157C5.45966 22.4348 5.41233 22.549 5.32809 22.6333C5.24385 22.7175 5.12959 22.7649 5.01046 22.7649Z" fill="#991220"/>
</svg>
