<svg width="24" height="23" viewBox="0 0 24 23" fill="none" xmlns="http://www.w3.org/2000/svg">
<path d="M11.9999 22.8281C11.9365 22.8282 11.8738 22.8149 11.8159 22.7889L0.265155 17.5998C0.186001 17.5643 0.118834 17.5066 0.0717767 17.4337C0.0247199 17.3608 -0.000210495 17.2758 1.33882e-06 17.1891V5.63836C-0.000154261 5.56329 0.0185062 5.48938 0.0542771 5.42338C0.0900479 5.35738 0.141789 5.3014 0.204771 5.26056C0.267753 5.21971 0.339968 5.1953 0.414816 5.18955C0.489665 5.1838 0.564759 5.19691 0.633238 5.22767L12.184 10.4168C12.2631 10.4523 12.3303 10.51 12.3773 10.5829C12.4244 10.6557 12.4493 10.7407 12.4491 10.8275V22.3782C12.4492 22.4372 12.4376 22.4956 12.415 22.5501C12.3924 22.6046 12.3593 22.6542 12.3176 22.6959C12.2759 22.7376 12.2264 22.7707 12.1719 22.7933C12.1173 22.8158 12.0589 22.8274 11.9999 22.8274V22.8281ZM0.898391 16.8988L11.5507 21.6841V11.119L0.898391 6.33371V16.8988Z" fill="#1E1E1E"/>
<path d="M11.9999 22.8281C11.9409 22.8281 11.8825 22.8165 11.828 22.794C11.7735 22.7714 11.7239 22.7383 11.6822 22.6966C11.6405 22.6549 11.6074 22.6054 11.5848 22.5509C11.5623 22.4963 11.5507 22.4379 11.5507 22.3789V10.8282C11.5505 10.7414 11.5754 10.6565 11.6225 10.5836C11.6696 10.5107 11.7367 10.453 11.8159 10.4175L23.3666 5.2284C23.4351 5.19764 23.5102 5.18454 23.585 5.19028C23.6599 5.19603 23.7321 5.22044 23.7951 5.26129C23.858 5.30213 23.9098 5.35812 23.9456 5.42411C23.9813 5.49011 24 5.56402 23.9998 5.63909V17.1898C24 17.2766 23.9751 17.3615 23.9281 17.4344C23.881 17.5073 23.8138 17.565 23.7347 17.6005L12.184 22.7896C12.126 22.8153 12.0633 22.8284 11.9999 22.8281ZM12.4491 11.119V21.6848L23.1014 16.8995V6.33367L12.4491 11.119Z" fill="#1E1E1E"/>
<path d="M12 11.2787C11.9365 11.2786 11.8738 11.2652 11.8159 11.2392L0.265184 6.04907C0.186249 6.01357 0.119252 5.95602 0.0722501 5.88334C0.0252485 5.81067 0.000244141 5.72596 0.000244141 5.63941C0.000244141 5.55286 0.0252485 5.46815 0.0722501 5.39547C0.119252 5.32279 0.186249 5.26524 0.265184 5.22974L11.8159 0.0393591C11.8738 0.013413 11.9365 0 12 0C12.0634 0 12.1261 0.013413 12.184 0.0393591L23.7347 5.22948C23.8137 5.26491 23.8808 5.32243 23.9279 5.39511C23.975 5.4678 24 5.55255 24 5.63915C24 5.72575 23.975 5.8105 23.9279 5.88319C23.8808 5.95587 23.8137 6.0134 23.7347 6.04882L12.184 11.2389C12.1261 11.265 12.0634 11.2785 12 11.2787ZM1.545 5.63941L12 10.3367L22.4546 5.63941L12 0.942113L1.545 5.63941Z" fill="#1E1E1E"/>
<path d="M16.2634 9.36129C16.2001 9.36135 16.1374 9.34788 16.0796 9.32176L4.52892 4.13164C4.4499 4.09622 4.38281 4.0387 4.33573 3.96601C4.28866 3.89332 4.26361 3.80857 4.26361 3.72197C4.26361 3.63537 4.28866 3.55062 4.33573 3.47794C4.38281 3.40525 4.4499 3.34773 4.52892 3.31231L7.66045 1.90569C7.71827 1.87967 7.78096 1.86621 7.84436 1.86621C7.90777 1.86621 7.97046 1.87967 8.02828 1.90569L19.5818 7.09581C19.6608 7.13128 19.7279 7.18883 19.775 7.26154C19.822 7.33424 19.8471 7.419 19.8471 7.50561C19.8471 7.59221 19.822 7.67697 19.775 7.74967C19.7279 7.82238 19.6608 7.87993 19.5818 7.9154L16.4477 9.32202C16.3897 9.34794 16.3269 9.36133 16.2634 9.36129ZM5.809 3.72197L16.2634 8.41927L18.301 7.50471L7.84424 2.80767L5.809 3.72197Z" fill="#991220"/>
<path d="M16.2634 13.6571C16.1443 13.657 16.0301 13.6097 15.9459 13.5254C15.8616 13.4412 15.8143 13.327 15.8142 13.2079V8.91205C15.8141 8.82529 15.8391 8.74035 15.8862 8.66748C15.9333 8.59461 16.0005 8.53692 16.0796 8.50136L19.2137 7.09474C19.2822 7.06404 19.3573 7.05098 19.4321 7.05675C19.5069 7.06252 19.5791 7.08695 19.642 7.12779C19.7049 7.16863 19.7567 7.22459 19.7924 7.29056C19.8282 7.35652 19.8468 7.4304 19.8467 7.50543V11.5739C19.8467 11.656 19.8242 11.7365 19.7817 11.8067C19.7391 11.8769 19.678 11.9341 19.6052 11.972L16.4711 13.6063C16.4069 13.6397 16.3357 13.6571 16.2634 13.6571ZM16.7126 9.20287V12.4671L18.9483 11.3015V8.1995L16.7126 9.20287Z" fill="#991220"/>
</svg>
