<svg width="21" height="21" viewBox="0 0 21 21" fill="none" xmlns="http://www.w3.org/2000/svg">
<g clip-path="url(#clip0_819_2110)">
<path d="M7.66924 9.48106C10.1843 9.48106 12.2233 7.44229 12.2233 4.92706C12.2233 2.41199 10.1843 0.373047 7.66924 0.373047C5.15418 0.373047 3.11523 2.41199 3.11523 4.92706C3.11759 7.44128 5.15502 9.47871 7.66924 9.48106ZM7.66924 1.23474C9.70853 1.23474 11.3616 2.88794 11.3616 4.92706C11.3616 6.96634 9.70853 8.61937 7.66924 8.61937C5.62996 8.61937 3.97693 6.96634 3.97693 4.92706C3.97928 2.88878 5.63097 1.2371 7.66924 1.23474Z" fill="#1E1E1E"/>
<path d="M1.24967 17.6626C1.34005 15.9693 1.99927 14.4227 3.11947 13.2722C4.31288 12.0442 5.92856 11.3679 7.6649 11.3679H7.67786C9.11598 11.3596 10.514 11.8413 11.6416 12.7336C11.7063 12.7854 11.7709 12.8413 11.8355 12.8931L12.3956 12.2425C12.3224 12.1779 12.2492 12.1176 12.1758 12.0572C10.892 11.0361 9.33224 10.502 7.6649 10.502C5.69159 10.5062 3.8605 11.2731 2.50333 12.669C1.12462 14.0822 0.370643 16.008 0.375019 18.0976C0.375692 18.3354 0.568226 18.5278 0.805865 18.5285L12.9126 18.5069V17.6452L1.24967 17.6626Z" fill="#1E1E1E"/>
<path d="M17.0657 13.9539L15.1183 15.5395L14.416 14.7165C14.2613 14.5357 13.9894 14.5145 13.8086 14.6692C13.6277 14.8238 13.6065 15.0958 13.7611 15.2766L14.7391 16.4183C14.8214 16.5137 14.9408 16.5688 15.0666 16.5691C15.1654 16.57 15.2614 16.5365 15.3381 16.4744L17.613 14.6261C17.7978 14.4748 17.8252 14.2025 17.6744 14.0172C17.5236 13.8321 17.2515 13.8036 17.0657 13.9539Z" fill="#1E1E1E"/>
<path d="M19.5046 12.0268L15.7907 10.0493C15.6628 9.97945 15.5078 9.98113 15.3814 10.0535L11.7709 12.0312C11.6327 12.1073 11.5469 12.2525 11.5469 12.4102V14.9953C11.5494 17.2178 12.8665 19.2283 14.9031 20.1181L15.4029 20.3378C15.4571 20.362 15.516 20.3738 15.5753 20.3723C15.6344 20.3713 15.6928 20.3596 15.7476 20.3378L16.3119 20.0922C18.3857 19.2223 19.7345 17.1924 19.7329 14.9436V12.4102C19.7331 12.2501 19.6454 12.1029 19.5046 12.0268ZM18.8713 14.9436C18.8721 16.8476 17.7285 18.5656 15.9716 19.2995H15.9673L15.5753 19.4675L15.2478 19.3253C13.5247 18.5725 12.4104 16.8715 12.4086 14.9911V12.6601L15.5925 10.9152L18.8713 12.6645V14.9436Z" fill="#991220"/>
</g>
<defs>
<clipPath id="clip0_819_2110">
<rect width="20" height="20" fill="white" transform="translate(0.0644531 0.373047)"/>
</clipPath>
</defs>
</svg>
