<svg width="21" height="21" viewBox="0 0 21 21" fill="none" xmlns="http://www.w3.org/2000/svg">
<path d="M17.1226 13.4971H14.6226V11.3105H17.1226V13.4971Z" fill="#991220"/>
<path d="M11.4976 13.4971H8.99756V11.3105H11.4976V13.4971Z" fill="#991220"/>
<path d="M5.87256 13.4971H3.37256V11.3105H5.87256V13.4971Z" fill="#991220"/>
<path d="M14.3101 8.49711H11.8101V6.31055H14.3101V8.49711Z" fill="#991220"/>
<path d="M11.4976 3.49711H8.99756V1.31055H11.4976V3.49711Z" fill="#991220"/>
<path d="M8.68506 8.49711H6.18506V6.31055H8.68506V8.49711Z" fill="#991220"/>
<path d="M18.9976 10.9971H16.1851V5.99711H13.3726V0.998047H7.12256V5.99711H4.31006V10.9971H1.49756V15.9971H0.560059V17.5605C0.560059 18.0774 0.980684 18.498 1.49756 18.498H2.12256V19.4355C2.12256 19.9524 2.54318 20.373 3.06006 20.373H6.18506C6.70193 20.373 7.12256 19.9524 7.12256 19.4355V18.498H13.3726V19.4355C13.3726 19.9524 13.7932 20.373 14.3101 20.373H17.4351C17.9519 20.373 18.3726 19.9524 18.3726 19.4355V18.498H18.9976C19.5144 18.498 19.9351 18.0774 19.9351 17.5605V15.9971H18.9976V10.9971ZM18.3726 11.6221V15.9971H13.3726V11.6221H16.1851H18.3726ZM7.74756 11.6221H9.93506H10.5601H12.7476V15.9971H7.74756V11.6221ZM15.5601 6.62211V10.9971H13.3726H12.7476H10.5601V6.62305H13.3726V6.62211H15.5601ZM7.74756 1.62305H12.7476V5.99711H10.5601H9.93506H7.74756V1.62305ZM4.93506 6.62211H7.12256V6.62305H9.93506V10.9971H7.74756H7.12256H4.93506V6.62211ZM2.12256 11.6221H4.31006H7.12256V15.9971H2.12256V11.6221ZM6.49756 19.4355C6.49756 19.6077 6.35725 19.748 6.18506 19.748H3.06006C2.88787 19.748 2.74756 19.6077 2.74756 19.4355V18.498H6.49756V19.4355ZM17.7476 19.4355C17.7476 19.6077 17.6072 19.748 17.4351 19.748H14.3101C14.1379 19.748 13.9976 19.6077 13.9976 19.4355V18.498H17.7476V19.4355ZM19.3101 16.6221V17.5605C19.3101 17.7327 19.1697 17.873 18.9976 17.873H1.49756C1.32537 17.873 1.18506 17.7327 1.18506 17.5605V16.6221H1.49756H7.12256H7.74756H12.7476H13.3726H18.9976H19.3101Z" fill="#1E1E1E"/>
<path d="M16.81 6.62352H17.435V3.18602H16.9394L17.7475 2.37789L18.5557 3.18602H18.06V6.62352H18.685V3.81102H20.0644L17.7475 1.49414L15.4307 3.81102H16.81V6.62352Z" fill="#1E1E1E"/>
<path d="M1.81004 6.62352H2.43504V3.18602H1.93941L2.74754 2.37789L3.55566 3.18602H3.06004V6.62352H3.68504V3.81102H5.06441L2.74754 1.49414L0.430664 3.81102H1.81004V6.62352Z" fill="#1E1E1E"/>
</svg>
