<svg width="107" height="126" viewBox="0 0 107 126" fill="none" xmlns="http://www.w3.org/2000/svg">
<g clip-path="url(#clip0_705_8270)">
<g style="mix-blend-mode:multiply" opacity="0.22">
<path d="M7.78045 125.518L11.2197 121.293L14.6056 125.518L18.0449 121.293L21.4315 125.518L24.8701 121.293L28.2567 125.518L31.6953 121.293L35.0819 125.518L38.5212 121.293L41.9071 125.518L45.3464 121.293L48.7323 125.518L52.1715 121.293L55.5575 125.518L58.9967 121.293L62.3834 125.518L65.8219 121.293L69.2086 125.518L72.6478 121.293L76.0338 125.518L79.473 121.293L82.8589 125.518L86.2982 121.293L89.675 125.506V24.2129H7.77344V125.518H7.78045Z" fill="#A1A4A5"/>
</g>
<path d="M0.00771763 117.568L3.44627 113.344L6.83291 117.568L10.2715 113.344L13.6581 117.568L17.0967 113.344L20.4833 117.568L23.9225 113.344L27.3085 117.568L30.7477 113.344L34.1337 117.568L37.5729 113.344L40.9589 117.568L44.3981 113.344L47.7847 117.568L51.2233 113.344L54.6099 117.568L58.0492 113.344L61.4351 117.568L64.8744 113.344L68.2603 117.568L71.6996 113.344L75.0855 117.568L78.5248 113.344L81.9016 117.556V14.5566H0V117.568H0.00771763Z" fill="#F7F7F7"/>
<path d="M36.9277 49.7863H9.70695C8.90151 49.7863 8.24902 49.1319 8.24902 48.3258C8.24902 47.5189 8.90222 46.8652 9.70695 46.8652H36.9277C37.7332 46.8652 38.3857 47.5196 38.3857 48.3258C38.3857 49.1326 37.7325 49.7863 36.9277 49.7863Z" fill="#C4C4C4"/>
<path d="M71.6306 49.7863H61.4062C60.6007 49.7863 59.9482 49.1319 59.9482 48.3258C59.9482 47.5189 60.6014 46.8652 61.4062 46.8652H71.6306C72.4361 46.8652 73.0893 47.5196 73.0893 48.3258C73.0893 49.1326 72.4361 49.7863 71.6306 49.7863Z" fill="#C4C4C4"/>
<path d="M71.6306 56.2433H61.4062C60.6007 56.2433 59.9482 55.589 59.9482 54.7828C59.9482 53.9759 60.6014 53.3223 61.4062 53.3223H71.6306C72.4361 53.3223 73.0893 53.9759 73.0893 54.7828C73.0893 55.5897 72.4361 56.2433 71.6306 56.2433Z" fill="#C4C4C4"/>
<path d="M71.6306 62.7013H61.4062C60.6007 62.7013 59.9482 62.047 59.9482 61.2408C59.9482 60.4339 60.6014 59.7803 61.4062 59.7803H71.6306C72.4361 59.7803 73.0893 60.4346 73.0893 61.2408C73.0893 62.0477 72.4361 62.7013 71.6306 62.7013Z" fill="#C4C4C4"/>
<path d="M71.6304 75.6161H61.4059C60.6005 75.6161 59.948 74.9617 59.948 74.1549C59.948 73.348 60.6012 72.6943 61.4059 72.6943H71.6304C72.4358 72.6943 73.089 73.3487 73.089 74.1549C73.089 74.9617 72.4358 75.6161 71.6304 75.6161Z" fill="#C4C4C4"/>
<path d="M71.6306 82.0734H61.4062C60.6007 82.0734 59.9482 81.419 59.9482 80.6129C59.9482 79.806 60.6014 79.1523 61.4062 79.1523H71.6306C72.4361 79.1523 73.0893 79.8067 73.0893 80.6129C73.0893 81.4197 72.4361 82.0734 71.6306 82.0734Z" fill="#C4C4C4"/>
<path d="M26.3812 56.2433H9.70695C8.90151 56.2433 8.24902 55.589 8.24902 54.7828C8.24902 53.9759 8.90222 53.3223 9.70695 53.3223H26.3812C27.1867 53.3223 27.8392 53.9759 27.8392 54.7828C27.8392 55.5897 27.186 56.2433 26.3812 56.2433Z" fill="#C4C4C4"/>
<path d="M30.3951 62.7013H9.70695C8.90151 62.7013 8.24902 62.047 8.24902 61.2408C8.24902 60.4339 8.90222 59.7803 9.70695 59.7803H30.3951C31.2006 59.7803 31.853 60.4346 31.853 61.2408C31.853 62.0477 31.1998 62.7013 30.3951 62.7013Z" fill="#C4C4C4"/>
<path d="M32.462 75.6161H9.70695C8.90151 75.6161 8.24902 74.9617 8.24902 74.1549C8.24902 73.348 8.90222 72.6943 9.70695 72.6943H32.462C33.2675 72.6943 33.92 73.3487 33.92 74.1549C33.92 74.9617 33.2668 75.6161 32.462 75.6161Z" fill="#C4C4C4"/>
<path d="M35.1379 82.0734H9.70695C8.90151 82.0734 8.24902 81.419 8.24902 80.6129C8.24902 79.806 8.90222 79.1523 9.70695 79.1523H35.1379C35.9434 79.1523 36.5959 79.8067 36.5959 80.6129C36.5959 81.4197 35.9434 82.0734 35.1379 82.0734Z" fill="#C4C4C4"/>
<path d="M71.6304 30.2431H61.4059C60.6005 30.2431 59.948 29.5887 59.948 28.7818C59.948 27.9749 60.6012 27.3213 61.4059 27.3213H71.6304C72.4358 27.3213 73.089 27.9756 73.089 28.7818C73.089 29.5887 72.4358 30.2431 71.6304 30.2431Z" fill="#C4C4C4"/>
<path d="M71.6304 36.7011H61.4059C60.6005 36.7011 59.948 36.0467 59.948 35.2398C59.948 34.433 60.6012 33.7793 61.4059 33.7793H71.6304C72.4358 33.7793 73.089 34.4337 73.089 35.2398C73.089 36.0467 72.4358 36.7011 71.6304 36.7011Z" fill="#C4C4C4"/>
<path d="M32.462 30.2431H9.70695C8.90151 30.2431 8.24902 29.5887 8.24902 28.7818C8.24902 27.9749 8.90222 27.3213 9.70695 27.3213H32.462C33.2675 27.3213 33.92 27.9756 33.92 28.7818C33.92 29.5887 33.2668 30.2431 32.462 30.2431Z" fill="#C4C4C4"/>
<path d="M35.1379 36.7011H9.70695C8.90151 36.7011 8.24902 36.0467 8.24902 35.2398C8.24902 34.433 8.90222 33.7793 9.70695 33.7793H35.1379C35.9434 33.7793 36.5959 34.4337 36.5959 35.2398C36.5959 36.0467 35.9434 36.7011 35.1379 36.7011Z" fill="#C4C4C4"/>
<path d="M40.3066 90.3848H14.2491C10.9354 90.3848 8.24902 93.0759 8.24902 96.3956C8.24902 99.7153 10.9354 102.406 14.2491 102.406H40.3066C43.6204 102.406 46.3068 99.7153 46.3068 96.3956C46.3068 93.0759 43.6204 90.3848 40.3066 90.3848Z" fill="#E8E8E8"/>
<g style="mix-blend-mode:multiply" opacity="0.13">
<path d="M76.0072 65.1095C58.9176 65.1095 45.0146 51.1818 45.0146 34.0616C45.0146 16.9415 58.9176 3.01367 76.0072 3.01367C93.0969 3.01367 107 16.9415 107 34.0616C107 51.1818 93.0969 65.1095 76.0072 65.1095Z" fill="#595959"/>
</g>
<path d="M71.6355 56.6406C87.1058 56.6406 99.647 44.077 99.647 28.5791C99.647 13.0811 87.1058 0.517578 71.6355 0.517578C56.1652 0.517578 43.624 13.0811 43.624 28.5791C43.624 44.077 56.1652 56.6406 71.6355 56.6406Z" fill="#00B777"/>
<path d="M64.3577 40.0233L55.8747 32.0564C54.0561 30.3484 54.0561 27.4562 55.8747 25.7483C57.5346 24.1893 60.118 24.1893 61.7779 25.7483L66.3608 30.0525C66.894 30.5537 67.724 30.5537 68.2572 30.0525L81.4074 17.7034C83.0674 16.1444 85.6507 16.1444 87.3107 17.7034C89.1292 19.4113 89.1292 22.3036 87.3107 24.0115L70.261 40.0233C68.601 41.5822 66.0177 41.5822 64.3577 40.0233Z" fill="white"/>
</g>
<defs>
<clipPath id="clip0_705_8270">
<rect width="107" height="125" fill="white" transform="translate(0 0.517578)"/>
</clipPath>
</defs>
</svg>
