<svg width="13" height="13" viewBox="0 0 13 13" fill="none" xmlns="http://www.w3.org/2000/svg">
<g clip-path="url(#clip0_719_8816)">
<path d="M10.1875 2.4375H8.125V2.0625C8.125 1.44218 7.62032 0.9375 7 0.9375H5.5C4.87968 0.9375 4.375 1.44218 4.375 2.0625V2.4375H2.3125C1.79556 2.4375 1.375 2.85806 1.375 3.375V4.6875C1.375 4.89459 1.54291 5.0625 1.75 5.0625H1.95494L2.27891 11.866C2.30753 12.4669 2.80112 12.9375 3.40262 12.9375H9.09738C9.6989 12.9375 10.1925 12.4669 10.2211 11.866L10.5451 5.0625H10.75C10.9571 5.0625 11.125 4.89459 11.125 4.6875V3.375C11.125 2.85806 10.7044 2.4375 10.1875 2.4375ZM5.125 2.0625C5.125 1.85573 5.29323 1.6875 5.5 1.6875H7C7.20677 1.6875 7.375 1.85573 7.375 2.0625V2.4375H5.125V2.0625ZM2.125 3.375C2.125 3.27162 2.20912 3.1875 2.3125 3.1875H10.1875C10.2909 3.1875 10.375 3.27162 10.375 3.375V4.3125C10.2594 4.3125 2.6039 4.3125 2.125 4.3125V3.375ZM9.47193 11.8303C9.46239 12.0306 9.29786 12.1875 9.09738 12.1875H3.40262C3.20212 12.1875 3.03759 12.0306 3.02807 11.8303L2.70578 5.0625H9.79422L9.47193 11.8303Z" fill="#979797"/>
<path d="M6.25 11.4375C6.45709 11.4375 6.625 11.2696 6.625 11.0625V6.1875C6.625 5.98041 6.45709 5.8125 6.25 5.8125C6.04291 5.8125 5.875 5.98041 5.875 6.1875V11.0625C5.875 11.2696 6.04288 11.4375 6.25 11.4375Z" fill="#979797"/>
<path d="M8.125 11.4375C8.33209 11.4375 8.5 11.2696 8.5 11.0625V6.1875C8.5 5.98041 8.33209 5.8125 8.125 5.8125C7.91791 5.8125 7.75 5.98041 7.75 6.1875V11.0625C7.75 11.2696 7.91788 11.4375 8.125 11.4375Z" fill="#979797"/>
<path d="M4.375 11.4375C4.58209 11.4375 4.75 11.2696 4.75 11.0625V6.1875C4.75 5.98041 4.58209 5.8125 4.375 5.8125C4.16791 5.8125 4 5.98041 4 6.1875V11.0625C4 11.2696 4.16788 11.4375 4.375 11.4375Z" fill="#979797"/>
</g>
<defs>
<clipPath id="clip0_719_8816">
<rect width="12" height="12" fill="white" transform="translate(0.25 0.9375)"/>
</clipPath>
</defs>
</svg>
