<svg width="22" height="19" viewBox="0 0 22 19" fill="none" xmlns="http://www.w3.org/2000/svg">
<path d="M21.483 0.656087C20.5576 1.3236 19.5295 1.83542 18.4391 2.17133C17.8597 1.48809 17.0824 1.00163 16.2147 0.779126C15.3519 0.558481 14.4417 0.614033 13.6122 0.937958C12.7759 1.26505 12.061 1.84242 11.5653 2.59115C11.0659 3.34716 10.806 4.23618 10.8196 5.14216V6.13318C9.1129 6.17786 7.42248 5.79136 5.90477 5.00942C4.37629 4.2207 3.0673 3.06518 2.09504 1.64636C2.09504 1.64636 -1.78254 10.5596 6.94203 14.5207C4.95603 15.902 2.57347 16.5974 0.15625 16.5012C8.88082 21.4526 19.5442 16.5012 19.5442 5.11233C19.5442 4.83722 19.5192 4.56267 19.4696 4.29207C20.4618 3.28788 21.1584 2.02993 21.483 0.656087Z" fill="#991220"/>
</svg>
