<svg width="32" height="33" viewBox="0 0 32 33" fill="none" xmlns="http://www.w3.org/2000/svg">
<circle cx="16" cy="16.5576" r="15.5" fill="#FCF8F8" stroke="#991220"/>
<path d="M22.4 11.2309C21.8446 11.6315 21.2275 11.9387 20.5731 12.1403C20.2253 11.7303 19.7589 11.4383 19.238 11.3047C18.7202 11.1723 18.1739 11.2057 17.6761 11.4001C17.1742 11.5964 16.7451 11.9429 16.4476 12.3923C16.1478 12.846 15.9918 13.3796 16 13.9234V14.5182C14.9757 14.545 13.9611 14.313 13.0502 13.8437C12.1328 13.3703 11.3472 12.6768 10.7636 11.8252C10.7636 11.8252 8.43636 17.1748 13.6727 19.5522C12.4808 20.3813 11.0508 20.7986 9.6 20.7409C14.8364 23.7127 21.2364 20.7409 21.2364 13.9055C21.2364 13.7404 21.2214 13.5756 21.1916 13.4132C21.7871 12.8105 22.2052 12.0555 22.4 11.2309Z" fill="#991220"/>
</svg>
