<svg width="139" height="128" viewBox="0 0 139 128" fill="none" xmlns="http://www.w3.org/2000/svg">
<g style="mix-blend-mode:multiply" opacity="0.58">
<path d="M31.2039 9.25879H118.951C121.371 9.25879 123.336 11.2235 123.336 13.6441V121.86C123.336 124.982 120.801 127.516 117.68 127.516H35.03C32.9186 127.516 31.2039 125.801 31.2039 123.69V9.25879Z" fill="#EAEBEB"/>
</g>
<path d="M27.6138 0.727539C25.8249 0.727539 24.3743 2.17819 24.3743 3.96712V115.474C24.3743 117.263 25.8249 118.714 27.6138 118.714H112.523C114.312 118.714 115.762 117.263 115.762 115.474V3.96712C115.762 2.17819 114.312 0.727539 112.523 0.727539H27.6138Z" fill="#FAFAFA"/>
<path d="M38.9448 50.4033H101.806" stroke="#D9D9D9" stroke-width="4.46532" stroke-miterlimit="10" stroke-linecap="round"/>
<path d="M38.9448 59.4326H101.806" stroke="#D9D9D9" stroke-width="4.46532" stroke-miterlimit="10" stroke-linecap="round"/>
<path d="M38.9448 68.4609H101.806" stroke="#D9D9D9" stroke-width="4.46532" stroke-miterlimit="10" stroke-linecap="round"/>
<path d="M38.9448 32.2988H101.806" stroke="#D9D9D9" stroke-width="4.46532" stroke-miterlimit="10" stroke-linecap="round"/>
<path d="M38.9448 41.3271H101.806" stroke="#D9D9D9" stroke-width="4.46532" stroke-miterlimit="10" stroke-linecap="round"/>
<path d="M54.0312 20.2725H86.7187" stroke="#D9D9D9" stroke-width="4.46532" stroke-miterlimit="10" stroke-linecap="round"/>
<path d="M38.9443 86.1553H62.9687" stroke="#D9D9D9" stroke-width="4.46532" stroke-miterlimit="10" stroke-linecap="round"/>
<path d="M38.9443 95.1836H67.5723" stroke="#D9D9D9" stroke-width="4.46532" stroke-miterlimit="10" stroke-linecap="round"/>
<path d="M94.9213 99.1859C99.8141 97.9868 102.808 93.0484 101.609 88.1556C100.41 83.2628 95.4719 80.2685 90.5791 81.4676C85.6864 82.6666 82.692 87.6051 83.8911 92.4978C85.0901 97.3906 90.0286 100.385 94.9213 99.1859Z" fill="white" stroke="#B8B8B8" stroke-width="5.21016" stroke-miterlimit="10" stroke-linecap="round"/>
<path d="M91.272 90.9608L94.3699 89.626" stroke="#B8B8B8" stroke-width="5.21016" stroke-miterlimit="10" stroke-linecap="round"/>
<path d="M11.4028 59.358C11.6168 57.1752 10.0208 55.2323 7.83807 55.0183C5.65533 54.8043 3.71238 56.4002 3.49836 58.583C3.28434 60.7657 4.8803 62.7087 7.06304 62.9227C9.24578 63.1367 11.1887 61.5407 11.4028 59.358Z" fill="#991220"/>
<path d="M7.45142 66.1489C3.49526 66.1489 0.277344 62.9302 0.277344 58.9749C0.277344 55.0195 3.49609 51.8008 7.45142 51.8008C11.4067 51.8008 14.6255 55.0195 14.6255 58.9749C14.6255 62.9302 11.4067 66.1489 7.45142 66.1489ZM7.45142 58.2075C7.02814 58.2075 6.68401 58.5516 6.68401 58.9749C6.68401 59.3981 7.02814 59.7423 7.45142 59.7423C7.87469 59.7423 8.21882 59.3981 8.21882 58.9749C8.21882 58.5516 7.87469 58.2075 7.45142 58.2075Z" fill="#991220"/>
<path d="M135.473 59.6144C135.825 57.4496 134.355 55.4097 132.19 55.0583C130.025 54.7069 127.985 56.177 127.634 58.3419C127.282 60.5067 128.752 62.5466 130.917 62.898C133.082 63.2494 135.122 61.7793 135.473 59.6144Z" fill="#991220"/>
<path d="M131.549 66.1489C127.593 66.1489 124.375 62.9302 124.375 58.9749C124.375 55.0195 127.594 51.8008 131.549 51.8008C135.504 51.8008 138.723 55.0195 138.723 58.9749C138.723 62.9302 135.504 66.1489 131.549 66.1489ZM131.549 58.2075C131.126 58.2075 130.781 58.5516 130.781 58.9749C130.781 59.3981 131.126 59.7423 131.549 59.7423C131.972 59.7423 132.316 59.3981 132.316 58.9749C132.316 58.5516 131.972 58.2075 131.549 58.2075Z" fill="#991220"/>
<path d="M8.21924 58.9736H28.2583" stroke="#991220" stroke-width="7.89231" stroke-miterlimit="10"/>
<path d="M34.2515 58.9736H57.9476" stroke="#991220" stroke-width="7.89231" stroke-miterlimit="10"/>
<path d="M63.739 58.9072H87.4393" stroke="#991220" stroke-width="7.89231" stroke-miterlimit="10"/>
<path d="M93.0503 58.9082H104.864" stroke="#991220" stroke-width="7.89231" stroke-miterlimit="10"/>
<path d="M110.367 58.9082H131.548" stroke="#991220" stroke-width="7.89231" stroke-miterlimit="10"/>
</svg>
