<svg width="13" height="13" viewBox="0 0 13 13" fill="none" xmlns="http://www.w3.org/2000/svg">
<g clip-path="url(#clip0_719_8822)">
<path d="M11.25 6.92969C11.1174 6.92969 10.9902 6.98237 10.8964 7.07613C10.8027 7.1699 10.75 7.29708 10.75 7.42969V9.53619C10.7496 9.90564 10.6027 10.2599 10.3414 10.5211C10.0802 10.7823 9.72596 10.9293 9.3565 10.9297H3.1435C2.77404 10.9293 2.41983 10.7823 2.15859 10.5211C1.89734 10.2599 1.7504 9.90564 1.75 9.53619V7.42969C1.75 7.29708 1.69732 7.1699 1.60355 7.07613C1.50979 6.98237 1.38261 6.92969 1.25 6.92969C1.11739 6.92969 0.990215 6.98237 0.896447 7.07613C0.802678 7.1699 0.75 7.29708 0.75 7.42969V9.53619C0.750662 10.1708 1.00305 10.7792 1.45177 11.2279C1.9005 11.6766 2.50891 11.929 3.1435 11.9297H9.3565C9.99109 11.929 10.5995 11.6766 11.0482 11.2279C11.497 10.7792 11.7493 10.1708 11.75 9.53619V7.42969C11.75 7.29708 11.6973 7.1699 11.6036 7.07613C11.5098 6.98237 11.3826 6.92969 11.25 6.92969Z" fill="#991220"/>
<path d="M3.60346 4.78308L5.74996 2.63658V8.92958C5.74996 9.06219 5.80264 9.18937 5.89641 9.28313C5.99017 9.3769 6.11735 9.42958 6.24996 9.42958C6.38257 9.42958 6.50975 9.3769 6.60351 9.28313C6.69728 9.18937 6.74996 9.06219 6.74996 8.92958V2.63658L8.89646 4.78308C8.99076 4.87416 9.11706 4.92456 9.24816 4.92342C9.37926 4.92228 9.50467 4.86969 9.59737 4.77699C9.69007 4.68429 9.74266 4.55888 9.7438 4.42778C9.74494 4.29668 9.69454 4.17038 9.60346 4.07608L6.60346 1.07608C6.5097 0.982345 6.38254 0.929688 6.24996 0.929688C6.11738 0.929688 5.99022 0.982345 5.89646 1.07608L2.89646 4.07608C2.80538 4.17038 2.75498 4.29668 2.75612 4.42778C2.75726 4.55888 2.80985 4.68429 2.90255 4.77699C2.99525 4.86969 3.12066 4.92228 3.25176 4.92342C3.38286 4.92456 3.50916 4.87416 3.60346 4.78308Z" fill="#991220"/>
</g>
<defs>
<clipPath id="clip0_719_8822">
<rect width="12" height="12" fill="white" transform="translate(0.25 0.429688)"/>
</clipPath>
</defs>
</svg>
