<svg width="19" height="20" viewBox="0 0 19 20" fill="none" xmlns="http://www.w3.org/2000/svg">
<path d="M9.31299 0C6.40521 0 4.03955 2.36566 4.03955 5.27344C4.03955 8.18121 6.40521 10.5469 9.31299 10.5469C12.2208 10.5469 14.5864 8.18121 14.5864 5.27344C14.5864 2.36566 12.2208 0 9.31299 0ZM9.31299 9.375C7.05139 9.375 5.21143 7.53504 5.21143 5.27344C5.21143 3.01184 7.05139 1.17188 9.31299 1.17188C11.5746 1.17188 13.4146 3.01184 13.4146 5.27344C13.4146 7.53504 11.5746 9.375 9.31299 9.375Z" fill="#991220"/>
<path d="M15.8742 13.992C14.4304 12.5261 12.5165 11.7188 10.4849 11.7188H8.14111C6.10955 11.7188 4.19557 12.5261 2.75182 13.992C1.31514 15.4507 0.523926 17.3763 0.523926 19.4141C0.523926 19.7377 0.78627 20 1.10986 20H17.5161C17.8397 20 18.1021 19.7377 18.1021 19.4141C18.1021 17.3763 17.3108 15.4507 15.8742 13.992ZM1.72158 18.8281C2.01514 15.5045 4.78217 12.8906 8.14111 12.8906H10.4849C13.8438 12.8906 16.6108 15.5045 16.9044 18.8281H1.72158Z" fill="#1E1E1E"/>
</svg>
