<svg width="16" height="19" viewBox="0 0 16 19" fill="none" xmlns="http://www.w3.org/2000/svg">
<path d="M8.00003 10.5459C10.8088 10.5459 13.0938 8.2609 13.0938 5.45215C13.0938 2.6434 10.8088 0.358398 8.00003 0.358398C5.19128 0.358398 2.90628 2.6434 2.90628 5.45215C2.90628 8.2609 5.19128 10.5459 8.00003 10.5459ZM8.00003 1.4834C10.1882 1.4834 11.9688 3.26402 11.9688 5.45215C11.9688 7.64027 10.1882 9.4209 8.00003 9.4209C5.81191 9.4209 4.03128 7.64027 4.03128 5.45215C4.03128 3.26402 5.81191 1.4834 8.00003 1.4834Z" fill="#991220"/>
<path d="M15.2594 13.5185C14.73 12.5179 13.7375 11.9204 12.6056 11.9204H3.39377C2.26252 11.9204 1.27127 12.5179 0.741266 13.5179C0.211266 14.5192 0.275016 15.6754 0.942516 16.6579C1.61252 17.6435 2.61877 18.3179 3.77627 18.556C5.15689 18.8398 6.57814 18.9835 8.00002 18.9835C9.42189 18.9835 10.8431 18.8398 12.2238 18.556C13.3806 18.3179 14.3875 17.6429 15.0594 16.6548L15.0894 16.611C15.7256 15.6748 15.7894 14.5192 15.2594 13.5185ZM14.1588 15.9785L14.1288 16.0223V16.0229C13.6225 16.7673 12.8656 17.276 11.9969 17.4542C9.38439 17.991 6.61439 17.991 4.00189 17.4542C3.13314 17.2754 2.37689 16.7679 1.84127 15.9804C1.44377 15.3942 1.40439 14.671 1.73564 14.0448C2.06689 13.4192 2.68689 13.046 3.39377 13.046H12.6063C13.3138 13.046 13.9344 13.4198 14.2656 14.0454C14.5969 14.671 14.5569 15.3935 14.1588 15.9785Z" fill="#1E1E1E"/>
</svg>
