<svg width="49" height="29" viewBox="0 0 49 29" fill="none" xmlns="http://www.w3.org/2000/svg">
<path fill-rule="evenodd" clip-rule="evenodd" d="M24.5614 28.0942C21.2268 28.0942 17.9756 27.4614 14.8988 26.214C11.7127 24.9224 8.85469 23.024 6.40292 20.5735L0.780635 14.9512C0.487672 14.6582 0.487672 14.183 0.780635 13.89L6.40292 8.26775C8.85469 5.81728 11.7127 3.91888 14.8988 2.62724C17.9756 1.37987 21.2268 0.74707 24.5614 0.74707C27.896 0.74707 31.1472 1.37987 34.224 2.62724C37.4101 3.91888 40.2681 5.81728 42.7186 8.26775L48.3409 13.89C48.4815 14.0307 48.5609 14.2208 48.5609 14.42C48.5609 14.6192 48.4815 14.8093 48.3409 14.9499L42.7186 20.5722C40.2681 23.024 37.4088 24.9211 34.224 26.2127C31.1472 27.4614 27.896 28.0942 24.5614 28.0942ZM7.46409 19.5123C16.891 28.9392 32.2318 28.9392 41.6587 19.5123L46.7497 14.4213L41.6587 9.33023C37.0924 4.76391 31.0196 2.24834 24.5614 2.24834C18.1032 2.24834 12.0304 4.76391 7.46409 9.33023L2.37305 14.4213L7.46409 19.5123Z" fill="#1E1E1E"/>
<path fill-rule="evenodd" clip-rule="evenodd" d="M24.5614 24.796C23.1616 24.796 21.8023 24.5213 20.5224 23.9809C19.2867 23.4588 18.1774 22.7101 17.2256 21.7583C16.2725 20.8052 15.5251 19.6958 15.003 18.4602C14.4613 17.1803 14.1879 15.8222 14.1879 14.4212C14.1879 13.0215 14.4626 11.6622 15.003 10.3822C15.5251 9.14658 16.2738 8.03723 17.2256 7.08543C18.1787 6.13232 19.288 5.38494 20.5224 4.86282C21.8023 4.32116 23.1603 4.04773 24.5614 4.04773C25.9611 4.04773 27.3204 4.32246 28.6003 4.86282C29.836 5.38494 30.9453 6.13362 31.8984 7.08543C32.8515 8.03853 33.5989 9.14789 34.1211 10.3822C34.6627 11.6622 34.9361 13.0202 34.9361 14.4212C34.9361 15.8209 34.6614 17.1803 34.1211 18.4602C33.5989 19.6958 32.8502 20.8052 31.8984 21.7583C30.9453 22.7114 29.836 23.4588 28.6003 23.9809C27.3204 24.5213 25.9611 24.796 24.5614 24.796ZM24.5614 5.5464C19.6682 5.5464 15.6865 9.52809 15.6865 14.4212C15.6865 19.3143 19.6682 23.296 24.5614 23.296C29.4545 23.296 33.4362 19.3143 33.4362 14.4212C33.4362 9.52809 29.4545 5.5464 24.5614 5.5464Z" fill="#1E1E1E"/>
<path fill-rule="evenodd" clip-rule="evenodd" d="M24.5615 20.7193C21.0889 20.7193 18.2634 17.8939 18.2634 14.4213C18.2634 10.9487 21.0889 8.12323 24.5615 8.12323C28.0341 8.12323 30.8595 10.9487 30.8595 14.4213C30.8595 17.8939 28.0341 20.7193 24.5615 20.7193ZM24.5615 9.6232C21.9157 9.6232 19.7634 11.7755 19.7634 14.4213C19.7634 17.0671 21.9157 19.2194 24.5615 19.2194C27.2073 19.2194 29.3596 17.0671 29.3596 14.4213C29.3596 11.7755 27.2073 9.6232 24.5615 9.6232Z" fill="#991220"/>
<path fill-rule="evenodd" clip-rule="evenodd" d="M24.5614 16.5866C23.3674 16.5866 22.3961 15.6153 22.3961 14.4213C22.3961 13.2273 23.3674 12.256 24.5614 12.256C25.7554 12.256 26.7267 13.2273 26.7267 14.4213C26.7267 15.6153 25.7554 16.5866 24.5614 16.5866ZM24.5614 13.756C24.1942 13.756 23.896 14.0541 23.896 14.4213C23.896 14.7885 24.1942 15.088 24.5614 15.088C24.9286 15.088 25.228 14.7898 25.228 14.4213C25.228 14.0541 24.9286 13.756 24.5614 13.756Z" fill="#991220"/>
<path fill-rule="evenodd" clip-rule="evenodd" d="M24.5614 10.9266C24.1474 10.9266 23.8115 10.5907 23.8115 10.1766V7.56859C23.8115 7.15453 24.1474 6.8186 24.5614 6.8186C24.9755 6.8186 25.3114 7.15453 25.3114 7.56859V10.1766C25.3114 10.5907 24.9755 10.9266 24.5614 10.9266Z" fill="#991220"/>
<path fill-rule="evenodd" clip-rule="evenodd" d="M24.5614 22.0227C24.1474 22.0227 23.8115 21.6868 23.8115 21.2727V18.666C23.8115 18.2519 24.1474 17.916 24.5614 17.916C24.9755 17.916 25.3114 18.2519 25.3114 18.666V21.274C25.3114 21.6868 24.9755 22.0227 24.5614 22.0227Z" fill="#991220"/>
<path fill-rule="evenodd" clip-rule="evenodd" d="M31.4142 15.1713H28.8061C28.3921 15.1713 28.0562 14.8354 28.0562 14.4213C28.0562 14.0073 28.3921 13.6713 28.8061 13.6713H31.4142C31.8282 13.6713 32.1641 14.0073 32.1641 14.4213C32.1641 14.8354 31.8282 15.1713 31.4142 15.1713Z" fill="#991220"/>
<path fill-rule="evenodd" clip-rule="evenodd" d="M20.3167 15.1713H17.7087C17.2947 15.1713 16.9587 14.8354 16.9587 14.4213C16.9587 14.0073 17.2947 13.6713 17.7087 13.6713H20.3167C20.7308 13.6713 21.0667 14.0073 21.0667 14.4213C21.0667 14.8354 20.7321 15.1713 20.3167 15.1713Z" fill="#991220"/>
</svg>
