<svg width="33" height="33" viewBox="0 0 33 33" fill="none" xmlns="http://www.w3.org/2000/svg">
<path fill-rule="evenodd" clip-rule="evenodd" d="M16.3342 10.3992C15.2302 10.3992 14.3326 9.50091 14.3326 8.39767C14.3326 7.29367 15.2309 6.39539 16.3342 6.39539C17.4382 6.39539 18.3357 7.29367 18.3357 8.39767C18.3357 9.50167 17.4382 10.3992 16.3342 10.3992ZM16.3342 7.2731C15.714 7.2731 15.2096 7.77748 15.2096 8.39691C15.2096 9.01634 15.714 9.52148 16.3342 9.52148C16.9544 9.52148 17.4587 9.0171 17.4587 8.39691C17.4587 7.77672 16.9536 7.2731 16.3342 7.2731Z" fill="#991220"/>
<path fill-rule="evenodd" clip-rule="evenodd" d="M29.2675 12.8053H3.41301C3.17072 12.8053 2.97415 12.6088 2.97415 12.3665C2.97415 12.1242 3.17072 11.9276 3.41301 11.9276H29.2682C29.5105 11.9276 29.7071 12.1242 29.7071 12.3665C29.7071 12.6088 29.5098 12.8053 29.2675 12.8053Z" fill="#1E1E1E"/>
<path fill-rule="evenodd" clip-rule="evenodd" d="M27.8374 14.4906H4.83168C4.58939 14.4906 4.39282 14.2941 4.39282 14.0518V12.5531C4.39282 12.3108 4.58939 12.1143 4.83168 12.1143C5.07397 12.1143 5.27054 12.3108 5.27054 12.5531V13.6129H27.3985V12.5531C27.3985 12.3108 27.5951 12.1143 27.8374 12.1143C28.0797 12.1143 28.2763 12.3108 28.2763 12.5531V14.0518C28.2763 14.2941 28.0797 14.4906 27.8374 14.4906Z" fill="#1E1E1E"/>
<path fill-rule="evenodd" clip-rule="evenodd" d="M14.2702 26.9981C14.1765 26.9981 14.0835 26.9684 14.0066 26.9097L12.9186 26.0907L11.8306 26.9097C11.698 27.0095 11.5197 27.0263 11.3704 26.9516C11.2218 26.877 11.1273 26.7253 11.1273 26.5592V23.8994C11.1273 23.6571 11.3239 23.4606 11.5662 23.4606C11.8085 23.4606 12.005 23.6571 12.005 23.8994V25.68L12.6542 25.1916C12.8104 25.0743 13.026 25.0743 13.1822 25.1916L13.8313 25.68V23.8994C13.8313 23.6571 14.0279 23.4606 14.2702 23.4606C14.5125 23.4606 14.709 23.6571 14.709 23.8994V26.5592C14.709 26.7253 14.6146 26.8777 14.466 26.9516C14.4043 26.9829 14.3372 26.9981 14.2702 26.9981Z" fill="#991220"/>
<path fill-rule="evenodd" clip-rule="evenodd" d="M16.3609 31.0095C16.1186 31.0095 15.922 30.8129 15.922 30.5706V23.7683C15.922 23.526 16.1186 23.3295 16.3609 23.3295C16.6031 23.3295 16.7997 23.526 16.7997 23.7683V30.5706C16.7997 30.8129 16.6031 31.0095 16.3609 31.0095Z" fill="#991220"/>
<path fill-rule="evenodd" clip-rule="evenodd" d="M21.1136 26.9981C21.0199 26.9981 20.9269 26.9684 20.85 26.9097L19.762 26.0907L18.674 26.9097C18.5414 27.0095 18.3631 27.0263 18.2138 26.9516C18.0652 26.877 17.9707 26.7253 17.9707 26.5592V23.8994C17.9707 23.6571 18.1673 23.4606 18.4096 23.4606C18.6519 23.4606 18.8484 23.6571 18.8484 23.8994V25.68L19.4976 25.1916C19.6538 25.0743 19.8694 25.0743 20.0256 25.1916L20.6747 25.68V23.8994C20.6747 23.6571 20.8713 23.4606 21.1136 23.4606C21.3559 23.4606 21.5524 23.6571 21.5524 23.8994V26.5592C21.5524 26.7253 21.4587 26.8777 21.3094 26.9516C21.2477 26.9829 21.1806 26.9981 21.1136 26.9981Z" fill="#991220"/>
<path fill-rule="evenodd" clip-rule="evenodd" d="M23.1631 30.8137C22.9208 30.8137 22.7243 30.6171 22.7243 30.3748V24.2072H9.95627V30.3748C9.95627 30.6171 9.7597 30.8137 9.51741 30.8137C9.27512 30.8137 9.07855 30.6171 9.07855 30.3748V23.7683C9.07855 23.526 9.27512 23.3295 9.51741 23.3295H23.1631C23.2797 23.3295 23.3909 23.3759 23.4732 23.4582C23.5555 23.5405 23.602 23.6525 23.602 23.7683V30.3748C23.602 30.6171 23.4054 30.8137 23.1631 30.8137Z" fill="#991220"/>
<path fill-rule="evenodd" clip-rule="evenodd" d="M29.522 31.0095H27.8374C27.5951 31.0095 27.3985 30.8129 27.3985 30.5706V14.0517C27.3985 13.8095 27.5951 13.6129 27.8374 13.6129C28.0797 13.6129 28.2763 13.8095 28.2763 14.0517V30.1317H29.0831L29.0945 10.8274L16.3403 3.86126L3.58597 10.8274V30.131H4.39282V14.0517C4.39282 13.8095 4.58939 13.6129 4.83168 13.6129C5.07397 13.6129 5.27054 13.8095 5.27054 14.0517V30.5706C5.27054 30.8129 5.07397 31.0095 4.83168 31.0095H3.14711C2.90482 31.0095 2.70825 30.8129 2.70825 30.5706V10.5675C2.70825 10.4068 2.79587 10.2597 2.93682 10.1828L16.13 2.97669C16.261 2.90507 16.4195 2.90507 16.5505 2.97669L29.7437 10.1828C29.8846 10.2597 29.9723 10.4075 29.9723 10.5683L29.9608 30.5714C29.9608 30.8129 29.7643 31.0095 29.522 31.0095Z" fill="#1E1E1E"/>
<path fill-rule="evenodd" clip-rule="evenodd" d="M27.8374 31.0094H4.83168C4.58939 31.0094 4.39282 30.8129 4.39282 30.5706C4.39282 30.3283 4.58939 30.1317 4.83168 30.1317H27.8382C28.0804 30.1317 28.277 30.3283 28.277 30.5706C28.2763 30.8129 28.0797 31.0094 27.8374 31.0094Z" fill="#1E1E1E"/>
<path fill-rule="evenodd" clip-rule="evenodd" d="M19.7414 24.2072C19.4991 24.2072 19.3025 24.0107 19.3025 23.7684V17.4049H13.378V23.7684C13.378 24.0107 13.1814 24.2072 12.9391 24.2072C12.6968 24.2072 12.5002 24.0107 12.5002 23.7684V16.9661C12.5002 16.7238 12.6968 16.5272 12.9391 16.5272H19.7414C19.9837 16.5272 20.1802 16.7238 20.1802 16.9661V23.7684C20.1802 24.0107 19.9837 24.2072 19.7414 24.2072Z" fill="#991220"/>
<path fill-rule="evenodd" clip-rule="evenodd" d="M17.6919 20.1958C17.6004 20.1958 17.5098 20.1677 17.4336 20.112L16.3403 19.3158L15.2469 20.112C15.1136 20.2088 14.9368 20.2233 14.7898 20.1486C14.6427 20.0739 14.5498 19.9223 14.5498 19.7578V17.1856C14.5498 16.9433 14.7463 16.7467 14.9886 16.7467C15.2309 16.7467 15.4275 16.9433 15.4275 17.1856V18.8953L16.082 18.4191C16.2359 18.3071 16.4446 18.3071 16.5985 18.4191L17.253 18.8953V17.1856C17.253 16.9433 17.4496 16.7467 17.6919 16.7467C17.9342 16.7467 18.1307 16.9433 18.1307 17.1856V19.7578C18.1307 19.9231 18.0378 20.0739 17.8907 20.1486C17.8283 20.1798 17.7597 20.1958 17.6919 20.1958Z" fill="#991220"/>
</svg>
