<svg width="17" height="16" viewBox="0 0 17 16" fill="none" xmlns="http://www.w3.org/2000/svg">
<g clip-path="url(#clip0_8_505)">
<path d="M10.4475 14.5729C10.3156 14.6058 10.181 14.635 10.0475 14.6596C9.6985 14.7245 9.46776 15.0602 9.53231 15.4095C9.5642 15.5814 9.66181 15.7245 9.79432 15.818C9.9309 15.9141 10.1047 15.9575 10.2819 15.9246C10.4409 15.8951 10.6011 15.8604 10.7583 15.8211C11.103 15.7353 11.313 15.3862 11.227 15.0417C11.1412 14.6969 10.7924 14.4871 10.4475 14.5729Z" fill="#FBA101"/>
<path d="M15.2042 5.95153C15.2493 6.08732 15.3353 6.19817 15.444 6.27477C15.6051 6.38823 15.8159 6.42641 16.017 6.35989C16.3543 6.2479 16.537 5.88422 16.4255 5.54713C16.3746 5.39346 16.3182 5.23931 16.2581 5.08921C16.1262 4.75938 15.7521 4.59879 15.4221 4.73073C15.0924 4.86259 14.9317 5.23683 15.0638 5.56677C15.1143 5.69293 15.1616 5.82242 15.2042 5.95153Z" fill="#FBA101"/>
<path d="M12.5376 13.6545C12.4242 13.7294 12.3071 13.8019 12.1891 13.8699C11.8813 14.0474 11.7759 14.4408 11.9534 14.7485C12.0015 14.8322 12.0657 14.9006 12.1396 14.9529C12.3381 15.0925 12.6075 15.1134 12.8319 14.9841C12.9721 14.9032 13.1116 14.8172 13.2467 14.7278C13.543 14.5321 13.6246 14.133 13.4287 13.8366C13.2329 13.5401 12.834 13.4587 12.5376 13.6545Z" fill="#FBA101"/>
<path d="M16.825 7.74785C16.811 7.39284 16.5119 7.11652 16.1568 7.13038C15.8022 7.14438 15.5256 7.4435 15.5396 7.79838C15.5449 7.93406 15.5463 8.07178 15.5431 8.20732C15.5382 8.42995 15.647 8.6284 15.8163 8.74768C15.9171 8.81867 16.0394 8.86163 16.1721 8.86466C16.5271 8.87253 16.8213 8.59095 16.8292 8.23576C16.8327 8.0738 16.8314 7.90971 16.825 7.74785Z" fill="#FBA101"/>
<path d="M15.1007 11.9619C14.816 11.7483 14.4133 11.8063 14.2001 12.0905C14.1184 12.1993 14.0324 12.3068 13.9444 12.4103C13.7143 12.6806 13.7468 13.0866 14.0171 13.3169C14.0325 13.33 14.0481 13.342 14.0643 13.3533C14.333 13.5427 14.7065 13.4992 14.9238 13.2442C15.029 13.1207 15.1315 12.9923 15.2291 12.8624C15.4423 12.5782 15.3846 12.1752 15.1007 11.9619Z" fill="#FBA101"/>
<path d="M16.0452 9.63705C15.7063 9.53077 15.3453 9.71946 15.2391 10.0584C15.1985 10.1879 15.1534 10.318 15.1048 10.4454C14.998 10.726 15.1003 11.0346 15.3349 11.2C15.3779 11.2302 15.4253 11.2559 15.4768 11.2753C15.8087 11.402 16.1803 11.2355 16.3068 10.9035C16.3645 10.752 16.4181 10.5972 16.4666 10.4432C16.5727 10.1042 16.3841 9.74333 16.0452 9.63705Z" fill="#FBA101"/>
<path d="M7.64196 14.6652C7.06689 14.5619 6.51525 14.3861 5.99216 14.1409C5.98597 14.1376 5.98043 14.1339 5.97393 14.131C5.85066 14.073 5.7276 14.0108 5.60832 13.9459C5.60791 13.9454 5.60715 13.9451 5.6065 13.9448C5.38765 13.8243 5.17406 13.691 4.96657 13.5449C1.94087 11.4135 1.21338 7.21787 3.3449 4.19221C3.80839 3.53453 4.36928 2.98585 4.9946 2.55097C5.0023 2.54561 5.01001 2.54028 5.01764 2.53488C7.22115 1.0166 10.2132 0.914276 12.5529 2.47445L12.0504 3.20054C11.9107 3.40263 11.9967 3.54991 12.2412 3.5279L14.4241 3.33247C14.669 3.31046 14.8154 3.09863 14.7496 2.86213L14.1634 0.750148C14.0978 0.513381 13.9298 0.485041 13.7899 0.687104L13.2862 1.41491C11.5691 0.262272 9.50968 -0.177246 7.46555 0.177216C7.25967 0.212848 7.05668 0.256459 6.85647 0.307225C6.85492 0.3075 6.85369 0.307672 6.85245 0.307947C6.84471 0.309839 6.83687 0.312349 6.82934 0.314447C5.06665 0.767104 3.52873 1.79517 2.43133 3.262C2.42208 3.27297 2.41255 3.2837 2.40382 3.29563C2.36732 3.34478 2.33111 3.39507 2.29565 3.44535C2.23766 3.52776 2.1805 3.61223 2.12581 3.6967C2.11897 3.70688 2.11374 3.71723 2.10775 3.72752C1.20216 5.13082 0.765363 6.75318 0.840273 8.40483C0.840445 8.41027 0.840135 8.41574 0.840273 8.42131C0.84753 8.58265 0.860324 8.74623 0.877693 8.90726C0.878622 8.91765 0.880926 8.92748 0.88268 8.93787C0.900634 9.0998 0.923162 9.2621 0.951399 9.42437C1.23838 11.08 2.0194 12.5699 3.18971 13.7291C3.19243 13.7318 3.19525 13.7348 3.198 13.7376C3.19897 13.7387 3.20003 13.7392 3.20096 13.7402C3.51539 14.0503 3.8574 14.3372 4.22566 14.5965C5.18937 15.2756 6.26249 15.7245 7.41496 15.9313C7.76464 15.9941 8.09867 15.7614 8.16141 15.4119C8.22411 15.0621 7.99154 14.7278 7.64196 14.6652Z" fill="#FBA101"/>
<path d="M8.43663 2.86133C8.149 2.86133 7.91602 3.09452 7.91602 3.38174V8.5665L12.6579 11.0178C12.7342 11.0573 12.8159 11.0759 12.8963 11.0759C13.0847 11.0759 13.2666 10.9733 13.3591 10.7944C13.491 10.539 13.3912 10.2252 13.1358 10.0933L8.95667 7.93276V3.38174C8.95663 3.09452 8.72393 2.86133 8.43663 2.86133Z" fill="#FBA101"/>
</g>
<defs>
<clipPath id="clip0_8_505">
<rect width="16" height="16" fill="white" transform="translate(0.832031)"/>
</clipPath>
</defs>
</svg>
