<svg width="32" height="33" viewBox="0 0 32 33" fill="none" xmlns="http://www.w3.org/2000/svg">
<circle cx="16" cy="16.5576" r="15.5" fill="#FCF8F8" stroke="#991220"/>
<g clip-path="url(#clip0_162_1501)">
<path d="M16.0016 10.1577H15.9984C12.4696 10.1577 9.6 13.0281 9.6 16.5577C9.6 17.9577 10.0512 19.2553 10.8184 20.3089L10.0208 22.6865L12.4808 21.9001C13.4928 22.5705 14.7 22.9577 16.0016 22.9577C19.5304 22.9577 22.4 20.0865 22.4 16.5577C22.4 13.0289 19.5304 10.1577 16.0016 10.1577ZM19.7256 19.1953C19.5712 19.6313 18.9584 19.9929 18.4696 20.0985C18.1352 20.1697 17.6984 20.2265 16.228 19.6169C14.3472 18.8377 13.136 16.9265 13.0416 16.8025C12.9512 16.6785 12.2816 15.7905 12.2816 14.8721C12.2816 13.9537 12.748 13.5065 12.936 13.3145C13.0904 13.1569 13.3456 13.0849 13.5904 13.0849C13.6696 13.0849 13.7408 13.0889 13.8048 13.0921C13.9928 13.1001 14.0872 13.1113 14.2112 13.4081C14.3656 13.7801 14.7416 14.6985 14.7864 14.7929C14.832 14.8873 14.8776 15.0153 14.8136 15.1393C14.7536 15.2673 14.7008 15.3241 14.6064 15.4329C14.512 15.5417 14.4224 15.6249 14.328 15.7417C14.2416 15.8433 14.144 15.9521 14.2528 16.1401C14.3616 16.3241 14.7376 16.9377 15.2912 17.4305C16.0056 18.0665 16.5848 18.2697 16.792 18.3561C16.9464 18.4201 17.1304 18.4049 17.2432 18.2849C17.3864 18.1305 17.5632 17.8745 17.7432 17.6225C17.8712 17.4417 18.0328 17.4193 18.2024 17.4833C18.3752 17.5433 19.2896 17.9953 19.4776 18.0889C19.6656 18.1833 19.7896 18.2281 19.8352 18.3073C19.88 18.3865 19.88 18.7585 19.7256 19.1953Z" fill="#991220"/>
</g>
<defs>
<clipPath id="clip0_162_1501">
<rect width="12.8" height="12.8" fill="white" transform="translate(9.6 10.1577)"/>
</clipPath>
</defs>
</svg>
