<svg width="22" height="23" viewBox="0 0 22 23" fill="none" xmlns="http://www.w3.org/2000/svg">
<g clip-path="url(#clip0_203_481)">
<path d="M10.8618 0.867798H10.8565C4.97699 0.867798 0.195801 5.65031 0.195801 11.5312C0.195801 13.8638 0.947568 16.0258 2.22584 17.7812L0.896917 21.7427L4.99565 20.4324C6.68179 21.5494 8.69317 22.1945 10.8618 22.1945C16.7413 22.1945 21.5225 17.4107 21.5225 11.5312C21.5225 5.65165 16.7413 0.867798 10.8618 0.867798ZM17.0666 15.9258C16.8093 16.6522 15.7883 17.2547 14.9739 17.4307C14.4167 17.5493 13.689 17.6439 11.239 16.6282C8.10535 15.33 6.08731 12.1456 5.93002 11.939C5.7794 11.7324 4.66375 10.2529 4.66375 8.7227C4.66375 7.1925 5.44084 6.4474 5.75408 6.1275C6.01133 5.86492 6.43653 5.74495 6.84441 5.74495C6.97637 5.74495 7.095 5.75162 7.20163 5.75695C7.51486 5.77028 7.67215 5.78894 7.87875 6.28345C8.13601 6.90326 8.76248 8.43345 8.83712 8.59074C8.9131 8.74802 8.98907 8.96129 8.88244 9.16789C8.78247 9.38116 8.6945 9.4758 8.53721 9.65707C8.37993 9.83835 8.23064 9.97697 8.07336 10.1716C7.9294 10.3409 7.76679 10.5221 7.94806 10.8354C8.12934 11.1419 8.75581 12.1643 9.67819 12.9854C10.8685 14.045 11.8335 14.3836 12.1788 14.5276C12.436 14.6342 12.7426 14.6089 12.9305 14.4089C13.1691 14.1517 13.4637 13.7251 13.7636 13.3053C13.9769 13.004 14.2461 12.9667 14.5287 13.0733C14.8166 13.1733 16.3401 13.9264 16.6534 14.0824C16.9666 14.2397 17.1732 14.3143 17.2492 14.4463C17.3238 14.5782 17.3238 15.198 17.0666 15.9258Z" fill="#991220"/>
</g>
<defs>
<clipPath id="clip0_203_481">
<rect width="21.3267" height="21.3267" fill="white" transform="translate(0.195801 0.867798)"/>
</clipPath>
</defs>
</svg>
