<svg width="25" height="25" viewBox="0 0 25 25" fill="none" xmlns="http://www.w3.org/2000/svg">
<g clip-path="url(#clip0_427_7484)">
<path d="M7.98757 8.04753C9.01207 5.67678 11.3438 4.14453 13.9261 4.14453C14.2988 4.14453 14.6011 4.44678 14.6011 4.81953C14.6011 5.19228 14.2988 5.49453 13.9261 5.49453C11.8823 5.49453 10.0373 6.70653 9.22657 8.58303C9.11632 8.83803 8.86732 8.99028 8.60707 8.99028C8.51782 8.99028 8.42632 8.97228 8.33932 8.93478C7.99732 8.78703 7.83982 8.38953 7.98757 8.04753Z" fill="#991220"/>
<path d="M1.5533 22.03L6.55955 17.0245C5.06105 15.3055 4.14605 13.066 4.14605 10.612C4.14605 5.21953 8.53355 0.832031 13.9261 0.832031C19.3186 0.832031 23.7061 5.21953 23.7061 10.612C23.7061 16.0045 19.3186 20.392 13.9261 20.392C11.4721 20.392 9.23255 19.477 7.5143 17.9793L2.5088 22.9848C2.3768 23.116 2.20355 23.182 2.03105 23.182C1.85855 23.182 1.6853 23.116 1.5533 22.984C1.29005 22.7208 1.29005 22.2933 1.5533 22.03ZM22.3561 10.612C22.3561 5.96353 18.5746 2.18203 13.9261 2.18203C9.27755 2.18203 5.4968 5.96353 5.4968 10.612C5.4968 15.2605 9.2783 19.042 13.9261 19.042C18.5738 19.042 22.3561 15.2598 22.3561 10.612Z" fill="#1E1E1E"/>
</g>
<defs>
<clipPath id="clip0_427_7484">
<rect width="24" height="24" fill="white" transform="matrix(-1 0 0 1 24.5312 0.0078125)"/>
</clipPath>
</defs>
</svg>
